G04 #@! TF.GenerationSoftware,KiCad,Pcbnew,10.0.3*
G04 #@! TF.CreationDate,2026-05-30T15:28:42+09:00*
G04 #@! TF.ProjectId,lora-30x35-v3n,6c6f7261-2d33-4307-9833-352d76336e2e,rev?*
G04 #@! TF.SameCoordinates,Original*
G04 #@! TF.FileFunction,Paste,Top*
G04 #@! TF.FilePolarity,Positive*
%FSLAX46Y46*%
G04 Gerber Fmt 4.6, Leading zero omitted, Abs format (unit mm)*
G04 Created by KiCad (PCBNEW 10.0.3) date 2026-05-30 15:28:42*
%MOMM*%
%LPD*%
G01*
G04 APERTURE LIST*
%ADD10R,0.900000X0.500000*%
%ADD11R,0.600000X1.100000*%
%ADD12R,1.600000X0.700000*%
%ADD13R,0.700000X1.500000*%
%ADD14R,1.200000X1.200000*%
%ADD15R,1.800000X0.700000*%
%ADD16R,1.800000X0.800000*%
%ADD17R,0.900000X0.850000*%
%ADD18R,0.500000X0.850000*%
%ADD19R,1.000000X0.850000*%
%ADD20R,2.000000X1.400000*%
%ADD21R,0.650000X0.250000*%
%ADD22R,0.250000X0.650000*%
%ADD23R,1.600000X1.600000*%
%ADD24R,0.700000X0.900000*%
%ADD25R,1.000000X0.800000*%
%ADD26R,1.000000X2.000000*%
G04 APERTURE END LIST*
D10*
X12900000Y-17900000D03*
X12900000Y-16100000D03*
X24100000Y-33500000D03*
X25900000Y-33500000D03*
X28500000Y-5400000D03*
X28500000Y-3600000D03*
X4100000Y-33000000D03*
X5900000Y-33000000D03*
X16100000Y-28500000D03*
X17900000Y-28500000D03*
D11*
X23575000Y-31800000D03*
X24525000Y-31800000D03*
X25475000Y-31800000D03*
X26425000Y-31800000D03*
X26425000Y-29200000D03*
X25475000Y-29200000D03*
X24525000Y-29200000D03*
X23575000Y-29200000D03*
D10*
X26600000Y-800000D03*
X28400000Y-800000D03*
X27100000Y-27500000D03*
X28900000Y-27500000D03*
X7100000Y-33000000D03*
X8900000Y-33000000D03*
D12*
X26000000Y-14350000D03*
X26000000Y-13080000D03*
X26000000Y-11810000D03*
X26000000Y-10540000D03*
X26000000Y-9270000D03*
X26000000Y-8000000D03*
X26000000Y-6730000D03*
X26000000Y-5460000D03*
X26000000Y-4189999D03*
X26000000Y-2920000D03*
X26000000Y-1650000D03*
X0Y-1650000D03*
X0Y-2920000D03*
X0Y-4189999D03*
X0Y-5460000D03*
X0Y-6730000D03*
X0Y-8000000D03*
X0Y-9270000D03*
X0Y-10540000D03*
X0Y-11810000D03*
X0Y-13080000D03*
X0Y-14350000D03*
D13*
X23500000Y-19000000D03*
X26500000Y-19000000D03*
D14*
X25000000Y-19000000D03*
D10*
X18600000Y-24500000D03*
X20400000Y-24500000D03*
X19100000Y-29500000D03*
X20900000Y-29500000D03*
X16100000Y-29500000D03*
X17900000Y-29500000D03*
D15*
X11350000Y-26400000D03*
D16*
X11350000Y-25300000D03*
X11350000Y-24200000D03*
X11350000Y-23100000D03*
X11350000Y-22000000D03*
X11350000Y-20900000D03*
X11350000Y-19800000D03*
X11350000Y-18700000D03*
D15*
X11350000Y-17600000D03*
X1849999Y-17600000D03*
D16*
X1849999Y-18700000D03*
X1849999Y-19800000D03*
X1849999Y-20900000D03*
X1849999Y-22000000D03*
X1849999Y-23100000D03*
X1849999Y-24200000D03*
X1849999Y-25300000D03*
D15*
X1849999Y-26400000D03*
D17*
X13000000Y-31200000D03*
D18*
X14000000Y-31200000D03*
D19*
X15000000Y-31200000D03*
D17*
X17000000Y-31200000D03*
D18*
X16000000Y-31200000D03*
D20*
X11200000Y-33500000D03*
X18800000Y-33500000D03*
D21*
X13250000Y-21500000D03*
X13250000Y-22000000D03*
X13250000Y-22500000D03*
X13250000Y-23000000D03*
X13250000Y-23500000D03*
D22*
X14000000Y-24250000D03*
X14500000Y-24250000D03*
X15000000Y-24250000D03*
X15500000Y-24250000D03*
X16000000Y-24250000D03*
D21*
X16750000Y-23500000D03*
X16750000Y-23000000D03*
X16750000Y-22500000D03*
X16750000Y-22000000D03*
X16750000Y-21500000D03*
D22*
X16000000Y-20750000D03*
X15500000Y-20750000D03*
X15000000Y-20750000D03*
X14500000Y-20750000D03*
X14000000Y-20750000D03*
D23*
X15000000Y-22500000D03*
D10*
X28500000Y-8400000D03*
X28500000Y-6600000D03*
D24*
X1600000Y-31000000D03*
X3000000Y-31000000D03*
X4400000Y-31000000D03*
D25*
X1400000Y-29000000D03*
X4600000Y-29000000D03*
D10*
X19100000Y-28500000D03*
X20900000Y-28500000D03*
D26*
X22375000Y-25000000D03*
X23625000Y-25000000D03*
D10*
X18600000Y-20500000D03*
X20400000Y-20500000D03*
M02*
