G04 #@! TF.GenerationSoftware,KiCad,Pcbnew,10.0.3*
G04 #@! TF.CreationDate,2026-05-30T15:28:42+09:00*
G04 #@! TF.ProjectId,lora-30x35-v3n,6c6f7261-2d33-4307-9833-352d76336e2e,rev?*
G04 #@! TF.SameCoordinates,Original*
G04 #@! TF.FileFunction,Copper,L2,Bot*
G04 #@! TF.FilePolarity,Positive*
%FSLAX46Y46*%
G04 Gerber Fmt 4.6, Leading zero omitted, Abs format (unit mm)*
G04 Created by KiCad (PCBNEW 10.0.3) date 2026-05-30 15:28:42*
%MOMM*%
%LPD*%
G01*
G04 APERTURE LIST*
G04 #@! TA.AperFunction,ViaPad*
%ADD10C,0.800000*%
G04 #@! TD*
G04 #@! TA.AperFunction,ViaPad*
%ADD11C,1.000000*%
G04 #@! TD*
G04 #@! TA.AperFunction,Conductor*
%ADD12C,0.400000*%
G04 #@! TD*
G04 #@! TA.AperFunction,Conductor*
%ADD13C,0.300000*%
G04 #@! TD*
G04 #@! TA.AperFunction,Conductor*
%ADD14C,0.200000*%
G04 #@! TD*
G04 #@! TA.AperFunction,Conductor*
%ADD15C,1.500000*%
G04 #@! TD*
G04 APERTURE END LIST*
D10*
X20500000Y-17000000D03*
X12000000Y-23000000D03*
X17000000Y-32200000D03*
X5900000Y-33700000D03*
D11*
X3500000Y-18700000D03*
D10*
X26425000Y-26500000D03*
X25900000Y-34200000D03*
X12000000Y-20000000D03*
X27500000Y-13500000D03*
X11200000Y-17500000D03*
X28500000Y-9000000D03*
X12900000Y-17000000D03*
X28400000Y-1500000D03*
X28000000Y-20000000D03*
X20000000Y-16500000D03*
X25500000Y-8000000D03*
X25000000Y-26500000D03*
X13000000Y-32200000D03*
X28900000Y-26800000D03*
D11*
X24000000Y-19000000D03*
D10*
X26800000Y-4190000D03*
X12000000Y-17200000D03*
X1500000Y-5460000D03*
X14000000Y-25500000D03*
X8900000Y-33700000D03*
X18600000Y-17000000D03*
X24525000Y-32800000D03*
X27500000Y-5400000D03*
D12*
X1500000Y-15500000D02*
X13500000Y-15500000D01*
D13*
X24525000Y-32800000D02*
X25900000Y-32800000D01*
D14*
X25100000Y-21000000D02*
X14000000Y-21000000D01*
D12*
X13500000Y-15500000D02*
X12000000Y-15500000D01*
D14*
X26800000Y-4190000D02*
X26800000Y-22000000D01*
X28500000Y-9000000D02*
X28500000Y-9500000D01*
X12900000Y-17000000D02*
X12900000Y-16500000D01*
X26800000Y-22000000D02*
X15000000Y-22000000D01*
D13*
X25900000Y-32800000D02*
X25900000Y-34200000D01*
X13000000Y-32200000D02*
X17000000Y-32200000D01*
X28900000Y-26500000D02*
X28900000Y-26800000D01*
D14*
X14000000Y-21000000D02*
X14000000Y-25500000D01*
D13*
X26425000Y-26500000D02*
X28900000Y-26500000D01*
D12*
X1500000Y-5460000D02*
X1500000Y-15500000D01*
X13500000Y-15500000D02*
X18600000Y-15500000D01*
D14*
X25100000Y-8000000D02*
X25100000Y-21000000D01*
D15*
X24000000Y-19000000D02*
X24000000Y-18700000D01*
D14*
X27500000Y-5400000D02*
X27500000Y-6000000D01*
D12*
X11200000Y-15500000D02*
X11200000Y-17500000D01*
X18600000Y-15500000D02*
X18600000Y-17000000D01*
D13*
X8900000Y-33700000D02*
X8900000Y-26000000D01*
D12*
X12000000Y-20000000D02*
X12000000Y-23000000D01*
D13*
X5900000Y-33700000D02*
X8900000Y-33700000D01*
D15*
X24000000Y-18700000D02*
X3500000Y-18700000D01*
D12*
X12000000Y-15500000D02*
X12000000Y-17200000D01*
D13*
X17000000Y-32200000D02*
X17000000Y-32800000D01*
X17000000Y-32800000D02*
X24525000Y-32800000D01*
X25000000Y-26500000D02*
X15000000Y-26300000D01*
X8900000Y-26000000D02*
X15000000Y-26300000D01*
X17000000Y-32200000D02*
X17000000Y-27000000D01*
D14*
X25500000Y-8000000D02*
X25100000Y-8000000D01*
D13*
X17000000Y-27000000D02*
X15000000Y-26300000D01*
D14*
X15000000Y-22000000D02*
X15000000Y-26300000D01*
G04 #@! TA.AperFunction,NonConductor*
G36*
X29442539Y-520185D02*
G01*
X29488294Y-572989D01*
X29499500Y-624500D01*
X29499500Y-1177919D01*
X29479815Y-1244958D01*
X29427011Y-1290713D01*
X29357853Y-1300657D01*
X29294297Y-1271632D01*
X29260939Y-1225371D01*
X29198016Y-1073459D01*
X29198009Y-1073446D01*
X29099464Y-925965D01*
X29099461Y-925961D01*
X28974038Y-800538D01*
X28974034Y-800535D01*
X28864883Y-727602D01*
X28820078Y-673990D01*
X28811371Y-604665D01*
X28841526Y-541637D01*
X28900969Y-504918D01*
X28933774Y-500500D01*
X29375500Y-500500D01*
X29442539Y-520185D01*
G37*
G04 #@! TD.AperFunction*
G04 #@! TA.AperFunction,NonConductor*
G36*
X17784185Y-16203050D02*
G01*
X17793147Y-16201762D01*
X17817187Y-16212740D01*
X17842539Y-16220185D01*
X17848466Y-16227025D01*
X17856703Y-16230787D01*
X17870992Y-16253021D01*
X17888294Y-16272989D01*
X17890581Y-16283503D01*
X17894477Y-16289565D01*
X17899500Y-16324500D01*
X17899500Y-16389899D01*
X17879815Y-16456938D01*
X17878602Y-16458790D01*
X17801988Y-16573449D01*
X17801987Y-16573452D01*
X17734106Y-16737332D01*
X17734103Y-16737341D01*
X17699500Y-16911304D01*
X17699500Y-17088695D01*
X17734103Y-17262658D01*
X17734106Y-17262667D01*
X17740478Y-17278050D01*
X17747945Y-17347520D01*
X17716669Y-17409998D01*
X17656579Y-17445649D01*
X17625916Y-17449500D01*
X13874084Y-17449500D01*
X13807045Y-17429815D01*
X13761290Y-17377011D01*
X13751346Y-17307853D01*
X13759522Y-17278050D01*
X13761098Y-17274242D01*
X13765894Y-17262666D01*
X13770932Y-17237342D01*
X13800499Y-17088695D01*
X13800500Y-17088693D01*
X13800500Y-16911306D01*
X13800499Y-16911304D01*
X13765896Y-16737341D01*
X13765893Y-16737332D01*
X13698016Y-16573459D01*
X13698009Y-16573446D01*
X13599464Y-16425965D01*
X13599461Y-16425961D01*
X13585681Y-16412181D01*
X13552196Y-16350858D01*
X13557180Y-16281166D01*
X13599052Y-16225233D01*
X13664516Y-16200816D01*
X13673362Y-16200500D01*
X17775500Y-16200500D01*
X17784185Y-16203050D01*
G37*
G04 #@! TD.AperFunction*
G04 #@! TA.AperFunction,NonConductor*
G36*
X27933265Y-520185D02*
G01*
X27979020Y-572989D01*
X27988964Y-642147D01*
X27959939Y-705703D01*
X27935117Y-727602D01*
X27825965Y-800535D01*
X27825961Y-800538D01*
X27700538Y-925961D01*
X27700535Y-925965D01*
X27601990Y-1073446D01*
X27601983Y-1073459D01*
X27534106Y-1237332D01*
X27534103Y-1237341D01*
X27499500Y-1411304D01*
X27499500Y-1588695D01*
X27534103Y-1762658D01*
X27534106Y-1762667D01*
X27601983Y-1926540D01*
X27601990Y-1926553D01*
X27700535Y-2074034D01*
X27700538Y-2074038D01*
X27825961Y-2199461D01*
X27825965Y-2199464D01*
X27973446Y-2298009D01*
X27973459Y-2298016D01*
X28096363Y-2348923D01*
X28137334Y-2365894D01*
X28137336Y-2365894D01*
X28137341Y-2365896D01*
X28311304Y-2400499D01*
X28311307Y-2400500D01*
X28311309Y-2400500D01*
X28488693Y-2400500D01*
X28488694Y-2400499D01*
X28546682Y-2388964D01*
X28662658Y-2365896D01*
X28662661Y-2365894D01*
X28662666Y-2365894D01*
X28826547Y-2298013D01*
X28974035Y-2199464D01*
X29099464Y-2074035D01*
X29198013Y-1926547D01*
X29198014Y-1926544D01*
X29198016Y-1926541D01*
X29260939Y-1774628D01*
X29304779Y-1720224D01*
X29371073Y-1698159D01*
X29438773Y-1715438D01*
X29486383Y-1766575D01*
X29499500Y-1822080D01*
X29499500Y-8466225D01*
X29479815Y-8533264D01*
X29427011Y-8579019D01*
X29357853Y-8588963D01*
X29294297Y-8559938D01*
X29272398Y-8535117D01*
X29199461Y-8425961D01*
X29074038Y-8300538D01*
X29074034Y-8300535D01*
X28926553Y-8201990D01*
X28926540Y-8201983D01*
X28762667Y-8134106D01*
X28762658Y-8134103D01*
X28588694Y-8099500D01*
X28588691Y-8099500D01*
X28411309Y-8099500D01*
X28411306Y-8099500D01*
X28237341Y-8134103D01*
X28237332Y-8134106D01*
X28073459Y-8201983D01*
X28073446Y-8201990D01*
X27925965Y-8300535D01*
X27925961Y-8300538D01*
X27800538Y-8425961D01*
X27800535Y-8425965D01*
X27701990Y-8573446D01*
X27701983Y-8573459D01*
X27639061Y-8725371D01*
X27595221Y-8779775D01*
X27528927Y-8801840D01*
X27461227Y-8784561D01*
X27413616Y-8733424D01*
X27400500Y-8677919D01*
X27400500Y-6724500D01*
X27420185Y-6657461D01*
X27472989Y-6611706D01*
X27524500Y-6600500D01*
X27579055Y-6600500D01*
X27579057Y-6600500D01*
X27731784Y-6559577D01*
X27868716Y-6480520D01*
X27980520Y-6368716D01*
X28059577Y-6231784D01*
X28094118Y-6102871D01*
X28126210Y-6047288D01*
X28199464Y-5974035D01*
X28298013Y-5826547D01*
X28365894Y-5662666D01*
X28400500Y-5488691D01*
X28400500Y-5311309D01*
X28400500Y-5311306D01*
X28400499Y-5311304D01*
X28365896Y-5137341D01*
X28365893Y-5137332D01*
X28298016Y-4973459D01*
X28298009Y-4973446D01*
X28199464Y-4825965D01*
X28199461Y-4825961D01*
X28074038Y-4700538D01*
X28074034Y-4700535D01*
X27926553Y-4601990D01*
X27926540Y-4601983D01*
X27757039Y-4531775D01*
X27757595Y-4530431D01*
X27705227Y-4496107D01*
X27676774Y-4432293D01*
X27678049Y-4391558D01*
X27700500Y-4278693D01*
X27700500Y-4101306D01*
X27700499Y-4101304D01*
X27665896Y-3927341D01*
X27665893Y-3927332D01*
X27598016Y-3763459D01*
X27598009Y-3763446D01*
X27499464Y-3615965D01*
X27499461Y-3615961D01*
X27374038Y-3490538D01*
X27374034Y-3490535D01*
X27226553Y-3391990D01*
X27226540Y-3391983D01*
X27062667Y-3324106D01*
X27062658Y-3324103D01*
X26888694Y-3289500D01*
X26888691Y-3289500D01*
X26711309Y-3289500D01*
X26711306Y-3289500D01*
X26537341Y-3324103D01*
X26537332Y-3324106D01*
X26373459Y-3391983D01*
X26373446Y-3391990D01*
X26225965Y-3490535D01*
X26225961Y-3490538D01*
X26100538Y-3615961D01*
X26100535Y-3615965D01*
X26001990Y-3763446D01*
X26001983Y-3763459D01*
X25934106Y-3927332D01*
X25934103Y-3927341D01*
X25899500Y-4101304D01*
X25899500Y-4278695D01*
X25934103Y-4452658D01*
X25934106Y-4452667D01*
X26001983Y-4616540D01*
X26001990Y-4616553D01*
X26100534Y-4764033D01*
X26100535Y-4764034D01*
X26100536Y-4764035D01*
X26163182Y-4826681D01*
X26196666Y-4888002D01*
X26199500Y-4914361D01*
X26199500Y-7152380D01*
X26179815Y-7219419D01*
X26127011Y-7265174D01*
X26057853Y-7275118D01*
X26006609Y-7255482D01*
X25926553Y-7201990D01*
X25926540Y-7201983D01*
X25762667Y-7134106D01*
X25762658Y-7134103D01*
X25588694Y-7099500D01*
X25588691Y-7099500D01*
X25411309Y-7099500D01*
X25411306Y-7099500D01*
X25237341Y-7134103D01*
X25237332Y-7134106D01*
X25073459Y-7201983D01*
X25073446Y-7201990D01*
X24925966Y-7300534D01*
X24800534Y-7425967D01*
X24756542Y-7491804D01*
X24736501Y-7513205D01*
X24737030Y-7513734D01*
X24619478Y-7631286D01*
X24619475Y-7631290D01*
X24540426Y-7768209D01*
X24540423Y-7768216D01*
X24499500Y-7920943D01*
X24499500Y-17376771D01*
X24479815Y-17443810D01*
X24427011Y-17489565D01*
X24357853Y-17499509D01*
X24337183Y-17494702D01*
X24292834Y-17480292D01*
X24292827Y-17480291D01*
X24098422Y-17449500D01*
X24098417Y-17449500D01*
X21474084Y-17449500D01*
X21407045Y-17429815D01*
X21361290Y-17377011D01*
X21351346Y-17307853D01*
X21359522Y-17278050D01*
X21361098Y-17274242D01*
X21365894Y-17262666D01*
X21370932Y-17237342D01*
X21400499Y-17088695D01*
X21400500Y-17088693D01*
X21400500Y-16911306D01*
X21400499Y-16911304D01*
X21365896Y-16737341D01*
X21365893Y-16737332D01*
X21298016Y-16573459D01*
X21298009Y-16573446D01*
X21199464Y-16425965D01*
X21199461Y-16425961D01*
X21074038Y-16300538D01*
X21074034Y-16300535D01*
X20926544Y-16201985D01*
X20883111Y-16183995D01*
X20828708Y-16140154D01*
X20816005Y-16116891D01*
X20798013Y-16073453D01*
X20699464Y-15925965D01*
X20699461Y-15925961D01*
X20574038Y-15800538D01*
X20574034Y-15800535D01*
X20426553Y-15701990D01*
X20426540Y-15701983D01*
X20262667Y-15634106D01*
X20262658Y-15634103D01*
X20088694Y-15599500D01*
X20088691Y-15599500D01*
X19911309Y-15599500D01*
X19911306Y-15599500D01*
X19737341Y-15634103D01*
X19737332Y-15634106D01*
X19573459Y-15701983D01*
X19573446Y-15701990D01*
X19493391Y-15755482D01*
X19426713Y-15776360D01*
X19359333Y-15757875D01*
X19312643Y-15705896D01*
X19300500Y-15652380D01*
X19300500Y-15431004D01*
X19273581Y-15295677D01*
X19273580Y-15295676D01*
X19273580Y-15295672D01*
X19273578Y-15295667D01*
X19220778Y-15168195D01*
X19220771Y-15168182D01*
X19144114Y-15053458D01*
X19144111Y-15053454D01*
X19046545Y-14955888D01*
X19046541Y-14955885D01*
X18931817Y-14879228D01*
X18931804Y-14879221D01*
X18804332Y-14826421D01*
X18804322Y-14826418D01*
X18668995Y-14799500D01*
X18668993Y-14799500D01*
X13568993Y-14799500D01*
X2324500Y-14799500D01*
X2257461Y-14779815D01*
X2211706Y-14727011D01*
X2200500Y-14675500D01*
X2200500Y-6070099D01*
X2220185Y-6003060D01*
X2221398Y-6001208D01*
X2226367Y-5993772D01*
X2298013Y-5886547D01*
X2365894Y-5722666D01*
X2377831Y-5662658D01*
X2400499Y-5548695D01*
X2400500Y-5548693D01*
X2400500Y-5371306D01*
X2400499Y-5371304D01*
X2365896Y-5197341D01*
X2365893Y-5197332D01*
X2298016Y-5033459D01*
X2298009Y-5033446D01*
X2199464Y-4885965D01*
X2199461Y-4885961D01*
X2074038Y-4760538D01*
X2074034Y-4760535D01*
X1926553Y-4661990D01*
X1926540Y-4661983D01*
X1762667Y-4594106D01*
X1762658Y-4594103D01*
X1588694Y-4559500D01*
X1588691Y-4559500D01*
X1411309Y-4559500D01*
X1411306Y-4559500D01*
X1237341Y-4594103D01*
X1237332Y-4594106D01*
X1073459Y-4661983D01*
X1073446Y-4661990D01*
X925965Y-4760535D01*
X925961Y-4760538D01*
X800538Y-4885961D01*
X727602Y-4995117D01*
X673989Y-5039921D01*
X604664Y-5048628D01*
X541637Y-5018473D01*
X504918Y-4959030D01*
X500500Y-4926225D01*
X500500Y-624500D01*
X520185Y-557461D01*
X572989Y-511706D01*
X624500Y-500500D01*
X27866226Y-500500D01*
X27933265Y-520185D01*
G37*
G04 #@! TD.AperFunction*
G04 #@! TA.AperFunction,NonConductor*
G36*
X26140666Y-8742123D02*
G01*
X26187357Y-8794102D01*
X26199500Y-8847619D01*
X26199500Y-21275500D01*
X26179815Y-21342539D01*
X26127011Y-21388294D01*
X26075500Y-21399500D01*
X25775686Y-21399500D01*
X25708647Y-21379815D01*
X25662892Y-21327011D01*
X25652948Y-21257853D01*
X25657912Y-21239752D01*
X25657473Y-21239635D01*
X25659577Y-21231784D01*
X25700500Y-21079057D01*
X25700500Y-8974497D01*
X25720185Y-8907458D01*
X25772989Y-8861703D01*
X25776981Y-8859964D01*
X25926547Y-8798013D01*
X26006609Y-8744516D01*
X26073286Y-8723639D01*
X26140666Y-8742123D01*
G37*
G04 #@! TD.AperFunction*
G04 #@! TA.AperFunction,NonConductor*
G36*
X27552398Y-9204023D02*
G01*
X27563660Y-9204426D01*
X27583608Y-9218276D01*
X27605703Y-9228367D01*
X27613285Y-9238882D01*
X27621052Y-9244275D01*
X27639060Y-9274626D01*
X27647382Y-9294718D01*
X27701983Y-9426541D01*
X27701990Y-9426553D01*
X27800535Y-9574034D01*
X27800538Y-9574038D01*
X27910390Y-9683890D01*
X27934527Y-9725431D01*
X27937314Y-9724277D01*
X27940422Y-9731780D01*
X27940423Y-9731784D01*
X27940424Y-9731787D01*
X27940426Y-9731790D01*
X28019475Y-9868709D01*
X28019479Y-9868714D01*
X28019480Y-9868716D01*
X28131284Y-9980520D01*
X28131286Y-9980521D01*
X28131290Y-9980524D01*
X28268209Y-10059573D01*
X28268216Y-10059577D01*
X28420943Y-10100500D01*
X28420945Y-10100500D01*
X28579055Y-10100500D01*
X28579057Y-10100500D01*
X28731784Y-10059577D01*
X28868716Y-9980520D01*
X28980520Y-9868716D01*
X29059577Y-9731784D01*
X29059578Y-9731776D01*
X29062688Y-9724273D01*
X29065733Y-9725534D01*
X29089606Y-9683892D01*
X29199464Y-9574035D01*
X29229881Y-9528511D01*
X29272398Y-9464883D01*
X29326010Y-9420078D01*
X29395335Y-9411371D01*
X29458363Y-9441526D01*
X29495082Y-9500969D01*
X29499500Y-9533774D01*
X29499500Y-25886236D01*
X29479815Y-25953275D01*
X29427011Y-25999030D01*
X29357853Y-26008974D01*
X29306609Y-25989338D01*
X29208133Y-25923538D01*
X29208124Y-25923533D01*
X29089744Y-25874499D01*
X29089738Y-25874497D01*
X28964071Y-25849500D01*
X28964069Y-25849500D01*
X27099362Y-25849500D01*
X27032323Y-25829815D01*
X27011681Y-25813181D01*
X26999038Y-25800538D01*
X26999034Y-25800535D01*
X26851553Y-25701990D01*
X26851540Y-25701983D01*
X26687667Y-25634106D01*
X26687658Y-25634103D01*
X26513694Y-25599500D01*
X26513691Y-25599500D01*
X26336309Y-25599500D01*
X26336306Y-25599500D01*
X26162341Y-25634103D01*
X26162332Y-25634106D01*
X25998459Y-25701983D01*
X25998446Y-25701990D01*
X25850965Y-25800535D01*
X25850961Y-25800538D01*
X25800181Y-25851319D01*
X25738858Y-25884804D01*
X25669166Y-25879820D01*
X25624819Y-25851319D01*
X25574038Y-25800538D01*
X25574034Y-25800535D01*
X25426553Y-25701990D01*
X25426540Y-25701983D01*
X25262667Y-25634106D01*
X25262658Y-25634103D01*
X25088694Y-25599500D01*
X25088691Y-25599500D01*
X24911309Y-25599500D01*
X24911306Y-25599500D01*
X24737341Y-25634103D01*
X24737332Y-25634106D01*
X24573459Y-25701983D01*
X24573446Y-25701990D01*
X24425965Y-25800535D01*
X24421255Y-25804401D01*
X24420335Y-25803281D01*
X24365354Y-25833294D01*
X24336533Y-25836099D01*
X15722020Y-25663809D01*
X15655388Y-25642788D01*
X15610698Y-25589080D01*
X15600500Y-25539834D01*
X15600500Y-22724500D01*
X15620185Y-22657461D01*
X15672989Y-22611706D01*
X15724500Y-22600500D01*
X26879055Y-22600500D01*
X26879057Y-22600500D01*
X27031784Y-22559577D01*
X27168716Y-22480520D01*
X27280520Y-22368716D01*
X27359577Y-22231784D01*
X27400500Y-22079057D01*
X27400500Y-20911952D01*
X27420185Y-20844913D01*
X27472989Y-20799158D01*
X27542147Y-20789214D01*
X27571952Y-20797391D01*
X27573451Y-20798012D01*
X27573453Y-20798013D01*
X27737334Y-20865894D01*
X27737336Y-20865894D01*
X27737341Y-20865896D01*
X27911304Y-20900499D01*
X27911307Y-20900500D01*
X27911309Y-20900500D01*
X28088693Y-20900500D01*
X28088694Y-20900499D01*
X28146682Y-20888964D01*
X28262658Y-20865896D01*
X28262661Y-20865894D01*
X28262666Y-20865894D01*
X28426547Y-20798013D01*
X28574035Y-20699464D01*
X28699464Y-20574035D01*
X28798013Y-20426547D01*
X28865894Y-20262666D01*
X28886168Y-20160745D01*
X28900499Y-20088695D01*
X28900500Y-20088693D01*
X28900500Y-19911306D01*
X28900499Y-19911304D01*
X28865896Y-19737341D01*
X28865893Y-19737332D01*
X28798016Y-19573459D01*
X28798009Y-19573446D01*
X28699464Y-19425965D01*
X28699461Y-19425961D01*
X28574038Y-19300538D01*
X28574034Y-19300535D01*
X28426553Y-19201990D01*
X28426540Y-19201983D01*
X28262667Y-19134106D01*
X28262658Y-19134103D01*
X28088694Y-19099500D01*
X28088691Y-19099500D01*
X27911309Y-19099500D01*
X27911306Y-19099500D01*
X27737341Y-19134103D01*
X27737332Y-19134106D01*
X27571952Y-19202608D01*
X27502482Y-19210077D01*
X27440003Y-19178801D01*
X27404352Y-19118712D01*
X27400500Y-19088047D01*
X27400500Y-14524500D01*
X27420185Y-14457461D01*
X27472989Y-14411706D01*
X27524500Y-14400500D01*
X27588693Y-14400500D01*
X27588694Y-14400499D01*
X27646682Y-14388964D01*
X27762658Y-14365896D01*
X27762661Y-14365894D01*
X27762666Y-14365894D01*
X27926547Y-14298013D01*
X28074035Y-14199464D01*
X28199464Y-14074035D01*
X28298013Y-13926547D01*
X28365894Y-13762666D01*
X28400500Y-13588691D01*
X28400500Y-13411309D01*
X28400500Y-13411306D01*
X28400499Y-13411304D01*
X28365896Y-13237341D01*
X28365893Y-13237332D01*
X28298016Y-13073459D01*
X28298009Y-13073446D01*
X28199464Y-12925965D01*
X28199461Y-12925961D01*
X28074038Y-12800538D01*
X28074034Y-12800535D01*
X27926553Y-12701990D01*
X27926540Y-12701983D01*
X27762667Y-12634106D01*
X27762658Y-12634103D01*
X27588694Y-12599500D01*
X27588691Y-12599500D01*
X27524500Y-12599500D01*
X27457461Y-12579815D01*
X27411706Y-12527011D01*
X27400500Y-12475500D01*
X27400500Y-9322080D01*
X27403674Y-9311267D01*
X27402470Y-9300062D01*
X27413343Y-9278340D01*
X27420185Y-9255041D01*
X27428700Y-9247662D01*
X27433746Y-9237583D01*
X27454636Y-9225188D01*
X27472989Y-9209286D01*
X27484143Y-9207682D01*
X27493835Y-9201932D01*
X27518105Y-9202798D01*
X27542147Y-9199342D01*
X27552398Y-9204023D01*
G37*
G04 #@! TD.AperFunction*
G04 #@! TA.AperFunction,NonConductor*
G36*
X24314514Y-27136919D02*
G01*
X24381145Y-27157940D01*
X24399710Y-27173209D01*
X24413320Y-27186819D01*
X24425966Y-27199465D01*
X24573446Y-27298009D01*
X24573459Y-27298016D01*
X24696363Y-27348923D01*
X24737334Y-27365894D01*
X24737336Y-27365894D01*
X24737341Y-27365896D01*
X24911304Y-27400499D01*
X24911307Y-27400500D01*
X24911309Y-27400500D01*
X25088693Y-27400500D01*
X25088694Y-27400499D01*
X25146682Y-27388964D01*
X25262658Y-27365896D01*
X25262661Y-27365894D01*
X25262666Y-27365894D01*
X25426547Y-27298013D01*
X25574035Y-27199464D01*
X25586680Y-27186819D01*
X25624819Y-27148681D01*
X25686142Y-27115196D01*
X25755834Y-27120180D01*
X25800181Y-27148681D01*
X25850961Y-27199461D01*
X25850965Y-27199464D01*
X25998446Y-27298009D01*
X25998459Y-27298016D01*
X26121363Y-27348923D01*
X26162334Y-27365894D01*
X26162336Y-27365894D01*
X26162341Y-27365896D01*
X26336304Y-27400499D01*
X26336307Y-27400500D01*
X26336309Y-27400500D01*
X26513693Y-27400500D01*
X26513694Y-27400499D01*
X26571682Y-27388964D01*
X26687658Y-27365896D01*
X26687661Y-27365894D01*
X26687666Y-27365894D01*
X26851547Y-27298013D01*
X26999035Y-27199464D01*
X26999038Y-27199461D01*
X27011681Y-27186819D01*
X27073004Y-27153334D01*
X27099362Y-27150500D01*
X27987633Y-27150500D01*
X28054672Y-27170185D01*
X28098942Y-27221275D01*
X28099119Y-27221181D01*
X28099535Y-27221959D01*
X28100427Y-27222989D01*
X28101928Y-27226437D01*
X28101988Y-27226550D01*
X28200535Y-27374034D01*
X28200538Y-27374038D01*
X28325961Y-27499461D01*
X28325965Y-27499464D01*
X28473446Y-27598009D01*
X28473459Y-27598016D01*
X28596363Y-27648923D01*
X28637334Y-27665894D01*
X28637336Y-27665894D01*
X28637341Y-27665896D01*
X28811304Y-27700499D01*
X28811307Y-27700500D01*
X28811309Y-27700500D01*
X28988693Y-27700500D01*
X28988694Y-27700499D01*
X29085286Y-27681286D01*
X29162658Y-27665896D01*
X29162661Y-27665894D01*
X29162666Y-27665894D01*
X29326547Y-27598013D01*
X29326548Y-27598012D01*
X29328048Y-27597391D01*
X29397517Y-27589922D01*
X29459996Y-27621197D01*
X29495648Y-27681286D01*
X29499500Y-27711952D01*
X29499500Y-34375500D01*
X29479815Y-34442539D01*
X29427011Y-34488294D01*
X29375500Y-34499500D01*
X26909662Y-34499500D01*
X26842623Y-34479815D01*
X26796868Y-34427011D01*
X26786924Y-34357853D01*
X26788045Y-34351308D01*
X26800500Y-34288693D01*
X26800500Y-34111306D01*
X26800499Y-34111304D01*
X26765896Y-33937341D01*
X26765893Y-33937332D01*
X26698016Y-33773459D01*
X26698009Y-33773446D01*
X26599464Y-33625965D01*
X26599461Y-33625961D01*
X26586819Y-33613319D01*
X26553334Y-33551996D01*
X26550500Y-33525638D01*
X26550500Y-32735928D01*
X26525502Y-32610261D01*
X26525501Y-32610260D01*
X26525501Y-32610256D01*
X26476465Y-32491873D01*
X26476464Y-32491872D01*
X26476461Y-32491866D01*
X26405276Y-32385331D01*
X26405273Y-32385327D01*
X26314672Y-32294726D01*
X26314668Y-32294723D01*
X26208133Y-32223538D01*
X26208124Y-32223533D01*
X26089744Y-32174499D01*
X26089738Y-32174497D01*
X25964071Y-32149500D01*
X25964069Y-32149500D01*
X25199362Y-32149500D01*
X25132323Y-32129815D01*
X25111681Y-32113181D01*
X25099038Y-32100538D01*
X25099034Y-32100535D01*
X24951553Y-32001990D01*
X24951540Y-32001983D01*
X24787667Y-31934106D01*
X24787658Y-31934103D01*
X24613694Y-31899500D01*
X24613691Y-31899500D01*
X24436309Y-31899500D01*
X24436306Y-31899500D01*
X24262341Y-31934103D01*
X24262332Y-31934106D01*
X24098459Y-32001983D01*
X24098446Y-32001990D01*
X23950965Y-32100535D01*
X23950961Y-32100538D01*
X23938319Y-32113181D01*
X23876996Y-32146666D01*
X23850638Y-32149500D01*
X18009861Y-32149500D01*
X17942822Y-32129815D01*
X17897067Y-32077011D01*
X17888244Y-32049691D01*
X17865896Y-31937342D01*
X17865893Y-31937332D01*
X17798016Y-31773459D01*
X17798009Y-31773446D01*
X17699464Y-31625965D01*
X17699461Y-31625961D01*
X17686819Y-31613319D01*
X17653334Y-31551996D01*
X17650500Y-31525638D01*
X17650500Y-27130144D01*
X17670185Y-27063105D01*
X17722989Y-27017350D01*
X17776978Y-27006169D01*
X24314514Y-27136919D01*
G37*
G04 #@! TD.AperFunction*
G04 #@! TA.AperFunction,NonConductor*
G36*
X14856061Y-26944207D02*
G01*
X14890931Y-26951018D01*
X16175165Y-27400500D01*
X16266463Y-27432454D01*
X16323236Y-27473179D01*
X16348979Y-27538134D01*
X16349500Y-27549492D01*
X16349500Y-31425500D01*
X16329815Y-31492539D01*
X16277011Y-31538294D01*
X16225500Y-31549500D01*
X13674362Y-31549500D01*
X13607323Y-31529815D01*
X13586681Y-31513181D01*
X13574038Y-31500538D01*
X13574034Y-31500535D01*
X13426553Y-31401990D01*
X13426540Y-31401983D01*
X13262667Y-31334106D01*
X13262658Y-31334103D01*
X13088694Y-31299500D01*
X13088691Y-31299500D01*
X12911309Y-31299500D01*
X12911306Y-31299500D01*
X12737341Y-31334103D01*
X12737332Y-31334106D01*
X12573459Y-31401983D01*
X12573446Y-31401990D01*
X12425965Y-31500535D01*
X12425961Y-31500538D01*
X12300538Y-31625961D01*
X12300535Y-31625965D01*
X12201990Y-31773446D01*
X12201983Y-31773459D01*
X12134106Y-31937332D01*
X12134103Y-31937341D01*
X12099500Y-32111304D01*
X12099500Y-32288695D01*
X12134103Y-32462658D01*
X12134106Y-32462667D01*
X12201983Y-32626540D01*
X12201990Y-32626553D01*
X12300535Y-32774034D01*
X12300538Y-32774038D01*
X12425961Y-32899461D01*
X12425965Y-32899464D01*
X12573446Y-32998009D01*
X12573459Y-32998016D01*
X12670701Y-33038294D01*
X12737334Y-33065894D01*
X12737336Y-33065894D01*
X12737341Y-33065896D01*
X12911304Y-33100499D01*
X12911307Y-33100500D01*
X12911309Y-33100500D01*
X13088693Y-33100500D01*
X13088694Y-33100499D01*
X13146682Y-33088964D01*
X13262658Y-33065896D01*
X13262661Y-33065894D01*
X13262666Y-33065894D01*
X13426547Y-32998013D01*
X13574035Y-32899464D01*
X13574038Y-32899461D01*
X13586681Y-32886819D01*
X13648004Y-32853334D01*
X13674362Y-32850500D01*
X16245037Y-32850500D01*
X16312076Y-32870185D01*
X16357831Y-32922989D01*
X16366654Y-32950308D01*
X16374497Y-32989738D01*
X16374499Y-32989744D01*
X16423533Y-33108124D01*
X16423538Y-33108133D01*
X16494723Y-33214668D01*
X16494726Y-33214672D01*
X16585327Y-33305273D01*
X16585331Y-33305276D01*
X16691866Y-33376461D01*
X16691872Y-33376464D01*
X16691873Y-33376465D01*
X16810256Y-33425501D01*
X16810260Y-33425501D01*
X16810261Y-33425502D01*
X16935928Y-33450500D01*
X16935931Y-33450500D01*
X23850638Y-33450500D01*
X23917677Y-33470185D01*
X23938319Y-33486819D01*
X23950961Y-33499461D01*
X23950965Y-33499464D01*
X24098446Y-33598009D01*
X24098459Y-33598016D01*
X24221363Y-33648923D01*
X24262334Y-33665894D01*
X24262336Y-33665894D01*
X24262341Y-33665896D01*
X24436304Y-33700499D01*
X24436307Y-33700500D01*
X24436309Y-33700500D01*
X24613693Y-33700500D01*
X24613694Y-33700499D01*
X24693580Y-33684609D01*
X24787658Y-33665896D01*
X24787661Y-33665894D01*
X24787666Y-33665894D01*
X24945029Y-33600713D01*
X25014498Y-33593244D01*
X25076977Y-33624520D01*
X25112629Y-33684609D01*
X25110135Y-33754434D01*
X25102703Y-33771722D01*
X25034106Y-33937332D01*
X25034103Y-33937341D01*
X24999500Y-34111304D01*
X24999500Y-34111309D01*
X24999500Y-34288691D01*
X24999500Y-34288693D01*
X24999499Y-34288693D01*
X25011955Y-34351308D01*
X25005728Y-34420900D01*
X24962865Y-34476077D01*
X24896975Y-34499322D01*
X24890338Y-34499500D01*
X9673362Y-34499500D01*
X9606323Y-34479815D01*
X9560568Y-34427011D01*
X9550624Y-34357853D01*
X9579649Y-34294297D01*
X9585681Y-34287819D01*
X9599461Y-34274038D01*
X9599464Y-34274035D01*
X9698013Y-34126547D01*
X9765894Y-33962666D01*
X9770932Y-33937341D01*
X9800499Y-33788695D01*
X9800500Y-33788693D01*
X9800500Y-33611306D01*
X9800499Y-33611304D01*
X9765896Y-33437341D01*
X9765893Y-33437332D01*
X9698016Y-33273459D01*
X9698009Y-33273446D01*
X9599464Y-33125965D01*
X9599461Y-33125961D01*
X9586819Y-33113319D01*
X9553334Y-33051996D01*
X9550500Y-33025638D01*
X9550500Y-26813525D01*
X9570185Y-26746486D01*
X9622989Y-26700731D01*
X9680587Y-26689675D01*
X14856061Y-26944207D01*
G37*
G04 #@! TD.AperFunction*
M02*
