%TF.GenerationSoftware,KiCad,Pcbnew,10.0.3*%
%TF.CreationDate,2026-05-29T19:32:46+09:00*%
%TF.ProjectId,lora-30x35-v3n,6c6f7261-2d33-4307-9833-352d76336e2e,rev?*%
%TF.SameCoordinates,Original*%
%TF.FileFunction,Other,User*%
%FSLAX46Y46*%
G04 Gerber Fmt 4.6, Leading zero omitted, Abs format (unit mm)*
G04 Created by KiCad (PCBNEW 10.0.3) date 2026-05-29 19:32:46*
%MOMM*%
%LPD*%
G01*
G04 APERTURE LIST*
%ADD10C,0.050000*%
G04 APERTURE END LIST*
%TO.C,C4*%
D10*
X11950000Y-15600000D02*
X13850000Y-15600000D01*
X13850000Y-18400000D01*
X11950000Y-18400000D01*
X11950000Y-15600000D01*
%TO.C,R2*%
X23600000Y-32550000D02*
X26400000Y-32550000D01*
X26400000Y-34450000D01*
X23600000Y-34450000D01*
X23600000Y-32550000D01*
%TO.C,C2*%
X27550000Y-3100000D02*
X29450000Y-3100000D01*
X29450000Y-5900000D01*
X27550000Y-5900000D01*
X27550000Y-3100000D01*
%TO.C,R5*%
X3600000Y-32050000D02*
X6400000Y-32050000D01*
X6400000Y-33950000D01*
X3600000Y-33950000D01*
X3600000Y-32050000D01*
%TO.C,LED1*%
X15600000Y-27550000D02*
X18400000Y-27550000D01*
X18400000Y-29450000D01*
X15600000Y-29450000D01*
X15600000Y-27550000D01*
%TO.C,U4*%
X23000000Y-28650000D02*
X27000000Y-28650000D01*
X27000000Y-32350000D01*
X23000000Y-32350000D01*
X23000000Y-28650000D01*
%TO.C,C1*%
X26100000Y-1549999D02*
X28900000Y-1549999D01*
X28900000Y-3450000D01*
X26100000Y-3450000D01*
X26100000Y-1549999D01*
%TO.C,C6*%
X26600000Y-26550000D02*
X29400000Y-26550000D01*
X29400000Y-28450000D01*
X26600000Y-28450000D01*
X26600000Y-26550000D01*
%TO.C,R6*%
X6600000Y-32050000D02*
X9400000Y-32050000D01*
X9400000Y-33950000D01*
X6600000Y-33950000D01*
X6600000Y-32050000D01*
%TO.C,U1*%
X-500000Y500000D02*
X26500000Y500000D01*
X26500000Y-16500000D01*
X-500000Y-16500000D01*
X-500000Y500000D01*
%TO.C,ANT1*%
X22750000Y-17500000D02*
X27250000Y-17500000D01*
X27250000Y-20500000D01*
X22750000Y-20500000D01*
X22750000Y-17500000D01*
%TO.C,R1*%
X18100000Y-23550000D02*
X20900000Y-23550000D01*
X20900000Y-25450000D01*
X18100000Y-25450000D01*
X18100000Y-23550000D01*
%TO.C,R4*%
X18600000Y-28550000D02*
X21400000Y-28550000D01*
X21400000Y-30450000D01*
X18600000Y-30450000D01*
X18600000Y-28550000D01*
%TO.C,R3*%
X15600000Y-28550000D02*
X18400000Y-28550000D01*
X18400000Y-30450000D01*
X15600000Y-30450000D01*
X15600000Y-28550000D01*
%TO.C,U3*%
X1250000Y-16450000D02*
X11950000Y-16450000D01*
X11950000Y-27550000D01*
X1250000Y-27550000D01*
X1250000Y-16450000D01*
%TO.C,J2*%
X10000000Y-30200000D02*
X20000000Y-30200000D01*
X20000000Y-35200000D01*
X10000000Y-35200000D01*
X10000000Y-30200000D01*
%TO.C,U2*%
X13000000Y-20500000D02*
X17000000Y-20500000D01*
X17000000Y-24500000D01*
X13000000Y-24500000D01*
X13000000Y-20500000D01*
%TO.C,C5*%
X27550000Y-6100000D02*
X29450000Y-6100000D01*
X29450000Y-8900000D01*
X27550000Y-8900000D01*
X27550000Y-6100000D01*
%TO.C,SW1*%
X550000Y-28100000D02*
X5450000Y-28100000D01*
X5450000Y-31900000D01*
X550000Y-31900000D01*
X550000Y-28100000D01*
%TO.C,LED2*%
X18600000Y-27550000D02*
X21400000Y-27550000D01*
X21400000Y-29450000D01*
X18600000Y-29450000D01*
X18600000Y-27550000D01*
%TO.C,J1*%
X20250000Y-22250000D02*
X25750000Y-22250000D01*
X25750000Y-26750000D01*
X20250000Y-26750000D01*
X20250000Y-22250000D01*
%TO.C,C3*%
X18100000Y-19550000D02*
X20900000Y-19550000D01*
X20900000Y-21450000D01*
X18100000Y-21450000D01*
X18100000Y-19550000D01*
%TD*%
M02*
