%TF.GenerationSoftware,KiCad,Pcbnew,10.0.3*%
%TF.CreationDate,2026-05-26T21:54:56+09:00*%
%TF.ProjectId,,58585858-5858-4585-9858-585858585858,rev?*%
%TF.SameCoordinates,Original*%
%TF.FileFunction,Legend,Top*%
%TF.FilePolarity,Positive*%
%FSLAX46Y46*%
G04 Gerber Fmt 4.6, Leading zero omitted, Abs format (unit mm)*
G04 Created by KiCad (PCBNEW 10.0.3) date 2026-05-26 21:54:56*
%MOMM*%
%LPD*%
G01*
G04 APERTURE LIST*
%ADD10C,0.158750*%
%ADD11C,0.120000*%
G04 APERTURE END LIST*
D10*
X19288333Y-25079271D02*
X18864999Y-24474509D01*
X18562618Y-25079271D02*
X18562618Y-23809271D01*
X18562618Y-23809271D02*
X19046428Y-23809271D01*
X19046428Y-23809271D02*
X19167380Y-23869747D01*
X19167380Y-23869747D02*
X19227857Y-23930223D01*
X19227857Y-23930223D02*
X19288333Y-24051175D01*
X19288333Y-24051175D02*
X19288333Y-24232604D01*
X19288333Y-24232604D02*
X19227857Y-24353556D01*
X19227857Y-24353556D02*
X19167380Y-24414033D01*
X19167380Y-24414033D02*
X19046428Y-24474509D01*
X19046428Y-24474509D02*
X18562618Y-24474509D01*
X20497857Y-25079271D02*
X19772142Y-25079271D01*
X20134999Y-25079271D02*
X20134999Y-23809271D01*
X20134999Y-23809271D02*
X20014047Y-23990699D01*
X20014047Y-23990699D02*
X19893095Y-24111652D01*
X19893095Y-24111652D02*
X19772142Y-24172128D01*
X27288333Y-8958318D02*
X27227857Y-9018795D01*
X27227857Y-9018795D02*
X27046428Y-9079271D01*
X27046428Y-9079271D02*
X26925476Y-9079271D01*
X26925476Y-9079271D02*
X26744047Y-9018795D01*
X26744047Y-9018795D02*
X26623095Y-8897842D01*
X26623095Y-8897842D02*
X26562618Y-8776890D01*
X26562618Y-8776890D02*
X26502142Y-8534985D01*
X26502142Y-8534985D02*
X26502142Y-8353556D01*
X26502142Y-8353556D02*
X26562618Y-8111652D01*
X26562618Y-8111652D02*
X26623095Y-7990699D01*
X26623095Y-7990699D02*
X26744047Y-7869747D01*
X26744047Y-7869747D02*
X26925476Y-7809271D01*
X26925476Y-7809271D02*
X27046428Y-7809271D01*
X27046428Y-7809271D02*
X27227857Y-7869747D01*
X27227857Y-7869747D02*
X27288333Y-7930223D01*
X28437380Y-7809271D02*
X27832618Y-7809271D01*
X27832618Y-7809271D02*
X27772142Y-8414033D01*
X27772142Y-8414033D02*
X27832618Y-8353556D01*
X27832618Y-8353556D02*
X27953571Y-8293080D01*
X27953571Y-8293080D02*
X28255952Y-8293080D01*
X28255952Y-8293080D02*
X28376904Y-8353556D01*
X28376904Y-8353556D02*
X28437380Y-8414033D01*
X28437380Y-8414033D02*
X28497857Y-8534985D01*
X28497857Y-8534985D02*
X28497857Y-8837366D01*
X28497857Y-8837366D02*
X28437380Y-8958318D01*
X28437380Y-8958318D02*
X28376904Y-9018795D01*
X28376904Y-9018795D02*
X28255952Y-9079271D01*
X28255952Y-9079271D02*
X27953571Y-9079271D01*
X27953571Y-9079271D02*
X27832618Y-9018795D01*
X27832618Y-9018795D02*
X27772142Y-8958318D01*
X11288333Y-22458318D02*
X11227857Y-22518795D01*
X11227857Y-22518795D02*
X11046428Y-22579271D01*
X11046428Y-22579271D02*
X10925476Y-22579271D01*
X10925476Y-22579271D02*
X10744047Y-22518795D01*
X10744047Y-22518795D02*
X10623095Y-22397842D01*
X10623095Y-22397842D02*
X10562618Y-22276890D01*
X10562618Y-22276890D02*
X10502142Y-22034985D01*
X10502142Y-22034985D02*
X10502142Y-21853556D01*
X10502142Y-21853556D02*
X10562618Y-21611652D01*
X10562618Y-21611652D02*
X10623095Y-21490699D01*
X10623095Y-21490699D02*
X10744047Y-21369747D01*
X10744047Y-21369747D02*
X10925476Y-21309271D01*
X10925476Y-21309271D02*
X11046428Y-21309271D01*
X11046428Y-21309271D02*
X11227857Y-21369747D01*
X11227857Y-21369747D02*
X11288333Y-21430223D01*
X12376904Y-21732604D02*
X12376904Y-22579271D01*
X12074523Y-21248795D02*
X11772142Y-22155937D01*
X11772142Y-22155937D02*
X12558333Y-22155937D01*
X19288333Y-20958318D02*
X19227857Y-21018795D01*
X19227857Y-21018795D02*
X19046428Y-21079271D01*
X19046428Y-21079271D02*
X18925476Y-21079271D01*
X18925476Y-21079271D02*
X18744047Y-21018795D01*
X18744047Y-21018795D02*
X18623095Y-20897842D01*
X18623095Y-20897842D02*
X18562618Y-20776890D01*
X18562618Y-20776890D02*
X18502142Y-20534985D01*
X18502142Y-20534985D02*
X18502142Y-20353556D01*
X18502142Y-20353556D02*
X18562618Y-20111652D01*
X18562618Y-20111652D02*
X18623095Y-19990699D01*
X18623095Y-19990699D02*
X18744047Y-19869747D01*
X18744047Y-19869747D02*
X18925476Y-19809271D01*
X18925476Y-19809271D02*
X19046428Y-19809271D01*
X19046428Y-19809271D02*
X19227857Y-19869747D01*
X19227857Y-19869747D02*
X19288333Y-19930223D01*
X19711666Y-19809271D02*
X20497857Y-19809271D01*
X20497857Y-19809271D02*
X20074523Y-20293080D01*
X20074523Y-20293080D02*
X20255952Y-20293080D01*
X20255952Y-20293080D02*
X20376904Y-20353556D01*
X20376904Y-20353556D02*
X20437380Y-20414033D01*
X20437380Y-20414033D02*
X20497857Y-20534985D01*
X20497857Y-20534985D02*
X20497857Y-20837366D01*
X20497857Y-20837366D02*
X20437380Y-20958318D01*
X20437380Y-20958318D02*
X20376904Y-21018795D01*
X20376904Y-21018795D02*
X20255952Y-21079271D01*
X20255952Y-21079271D02*
X19893095Y-21079271D01*
X19893095Y-21079271D02*
X19772142Y-21018795D01*
X19772142Y-21018795D02*
X19711666Y-20958318D01*
X27288333Y-5958318D02*
X27227857Y-6018795D01*
X27227857Y-6018795D02*
X27046428Y-6079271D01*
X27046428Y-6079271D02*
X26925476Y-6079271D01*
X26925476Y-6079271D02*
X26744047Y-6018795D01*
X26744047Y-6018795D02*
X26623095Y-5897842D01*
X26623095Y-5897842D02*
X26562618Y-5776890D01*
X26562618Y-5776890D02*
X26502142Y-5534985D01*
X26502142Y-5534985D02*
X26502142Y-5353556D01*
X26502142Y-5353556D02*
X26562618Y-5111652D01*
X26562618Y-5111652D02*
X26623095Y-4990699D01*
X26623095Y-4990699D02*
X26744047Y-4869747D01*
X26744047Y-4869747D02*
X26925476Y-4809271D01*
X26925476Y-4809271D02*
X27046428Y-4809271D01*
X27046428Y-4809271D02*
X27227857Y-4869747D01*
X27227857Y-4869747D02*
X27288333Y-4930223D01*
X27772142Y-4930223D02*
X27832618Y-4869747D01*
X27832618Y-4869747D02*
X27953571Y-4809271D01*
X27953571Y-4809271D02*
X28255952Y-4809271D01*
X28255952Y-4809271D02*
X28376904Y-4869747D01*
X28376904Y-4869747D02*
X28437380Y-4930223D01*
X28437380Y-4930223D02*
X28497857Y-5051175D01*
X28497857Y-5051175D02*
X28497857Y-5172128D01*
X28497857Y-5172128D02*
X28437380Y-5353556D01*
X28437380Y-5353556D02*
X27711666Y-6079271D01*
X27711666Y-6079271D02*
X28497857Y-6079271D01*
X27288333Y-2958318D02*
X27227857Y-3018795D01*
X27227857Y-3018795D02*
X27046428Y-3079271D01*
X27046428Y-3079271D02*
X26925476Y-3079271D01*
X26925476Y-3079271D02*
X26744047Y-3018795D01*
X26744047Y-3018795D02*
X26623095Y-2897842D01*
X26623095Y-2897842D02*
X26562618Y-2776890D01*
X26562618Y-2776890D02*
X26502142Y-2534985D01*
X26502142Y-2534985D02*
X26502142Y-2353556D01*
X26502142Y-2353556D02*
X26562618Y-2111652D01*
X26562618Y-2111652D02*
X26623095Y-1990699D01*
X26623095Y-1990699D02*
X26744047Y-1869747D01*
X26744047Y-1869747D02*
X26925476Y-1809271D01*
X26925476Y-1809271D02*
X27046428Y-1809271D01*
X27046428Y-1809271D02*
X27227857Y-1869747D01*
X27227857Y-1869747D02*
X27288333Y-1930223D01*
X28497857Y-3079271D02*
X27772142Y-3079271D01*
X28134999Y-3079271D02*
X28134999Y-1809271D01*
X28134999Y-1809271D02*
X28014047Y-1990699D01*
X28014047Y-1990699D02*
X27893095Y-2111652D01*
X27893095Y-2111652D02*
X27772142Y-2172128D01*
X22576667Y-23809271D02*
X22576667Y-24716414D01*
X22576667Y-24716414D02*
X22516190Y-24897842D01*
X22516190Y-24897842D02*
X22395238Y-25018795D01*
X22395238Y-25018795D02*
X22213809Y-25079271D01*
X22213809Y-25079271D02*
X22092857Y-25079271D01*
X23846667Y-25079271D02*
X23120952Y-25079271D01*
X23483809Y-25079271D02*
X23483809Y-23809271D01*
X23483809Y-23809271D02*
X23362857Y-23990699D01*
X23362857Y-23990699D02*
X23241905Y-24111652D01*
X23241905Y-24111652D02*
X23120952Y-24172128D01*
X14032380Y-21809271D02*
X14032380Y-22837366D01*
X14032380Y-22837366D02*
X14092857Y-22958318D01*
X14092857Y-22958318D02*
X14153333Y-23018795D01*
X14153333Y-23018795D02*
X14274285Y-23079271D01*
X14274285Y-23079271D02*
X14516190Y-23079271D01*
X14516190Y-23079271D02*
X14637142Y-23018795D01*
X14637142Y-23018795D02*
X14697619Y-22958318D01*
X14697619Y-22958318D02*
X14758095Y-22837366D01*
X14758095Y-22837366D02*
X14758095Y-21809271D01*
X15302380Y-21930223D02*
X15362856Y-21869747D01*
X15362856Y-21869747D02*
X15483809Y-21809271D01*
X15483809Y-21809271D02*
X15786190Y-21809271D01*
X15786190Y-21809271D02*
X15907142Y-21869747D01*
X15907142Y-21869747D02*
X15967618Y-21930223D01*
X15967618Y-21930223D02*
X16028095Y-22051175D01*
X16028095Y-22051175D02*
X16028095Y-22172128D01*
X16028095Y-22172128D02*
X15967618Y-22353556D01*
X15967618Y-22353556D02*
X15241904Y-23079271D01*
X15241904Y-23079271D02*
X16028095Y-23079271D01*
X5032380Y-21309271D02*
X5032380Y-22337366D01*
X5032380Y-22337366D02*
X5092857Y-22458318D01*
X5092857Y-22458318D02*
X5153333Y-22518795D01*
X5153333Y-22518795D02*
X5274285Y-22579271D01*
X5274285Y-22579271D02*
X5516190Y-22579271D01*
X5516190Y-22579271D02*
X5637142Y-22518795D01*
X5637142Y-22518795D02*
X5697619Y-22458318D01*
X5697619Y-22458318D02*
X5758095Y-22337366D01*
X5758095Y-22337366D02*
X5758095Y-21309271D01*
X6241904Y-21309271D02*
X7028095Y-21309271D01*
X7028095Y-21309271D02*
X6604761Y-21793080D01*
X6604761Y-21793080D02*
X6786190Y-21793080D01*
X6786190Y-21793080D02*
X6907142Y-21853556D01*
X6907142Y-21853556D02*
X6967618Y-21914033D01*
X6967618Y-21914033D02*
X7028095Y-22034985D01*
X7028095Y-22034985D02*
X7028095Y-22337366D01*
X7028095Y-22337366D02*
X6967618Y-22458318D01*
X6967618Y-22458318D02*
X6907142Y-22518795D01*
X6907142Y-22518795D02*
X6786190Y-22579271D01*
X6786190Y-22579271D02*
X6423333Y-22579271D01*
X6423333Y-22579271D02*
X6302380Y-22518795D01*
X6302380Y-22518795D02*
X6241904Y-22458318D01*
X12032380Y-7309271D02*
X12032380Y-8337366D01*
X12032380Y-8337366D02*
X12092857Y-8458318D01*
X12092857Y-8458318D02*
X12153333Y-8518795D01*
X12153333Y-8518795D02*
X12274285Y-8579271D01*
X12274285Y-8579271D02*
X12516190Y-8579271D01*
X12516190Y-8579271D02*
X12637142Y-8518795D01*
X12637142Y-8518795D02*
X12697619Y-8458318D01*
X12697619Y-8458318D02*
X12758095Y-8337366D01*
X12758095Y-8337366D02*
X12758095Y-7309271D01*
X14028095Y-8579271D02*
X13302380Y-8579271D01*
X13665237Y-8579271D02*
X13665237Y-7309271D01*
X13665237Y-7309271D02*
X13544285Y-7490699D01*
X13544285Y-7490699D02*
X13423333Y-7611652D01*
X13423333Y-7611652D02*
X13302380Y-7672128D01*
%TO.C,R1*%
D11*
X18450000Y-23900000D02*
X20549999Y-23900000D01*
X20549999Y-25099999D01*
X18450000Y-25099999D01*
X18450000Y-23900000D01*
%TO.C,C5*%
X26450000Y-7900000D02*
X28549999Y-7900000D01*
X28549999Y-9100000D01*
X26450000Y-9100000D01*
X26450000Y-7900000D01*
%TO.C,C4*%
X10450000Y-21400000D02*
X12550000Y-21400000D01*
X12550000Y-22599999D01*
X10450000Y-22599999D01*
X10450000Y-21400000D01*
%TO.C,C3*%
X18450000Y-19900000D02*
X20549999Y-19900000D01*
X20549999Y-21099999D01*
X18450000Y-21099999D01*
X18450000Y-19900000D01*
%TO.C,C2*%
X26450000Y-4899999D02*
X28549999Y-4899999D01*
X28549999Y-6100000D01*
X26450000Y-6100000D01*
X26450000Y-4899999D01*
%TO.C,C1*%
X26450000Y-1900000D02*
X28549999Y-1900000D01*
X28549999Y-3100000D01*
X26450000Y-3100000D01*
X26450000Y-1900000D01*
%TO.C,J1*%
X20600000Y-22600000D02*
X25400000Y-22600000D01*
X25400000Y-26400000D01*
X20600000Y-26400000D01*
X20600000Y-22600000D01*
%TO.C,U2*%
X13350000Y-20850000D02*
X16649999Y-20850000D01*
X16649999Y-24150000D01*
X13350000Y-24150000D01*
X13350000Y-20850000D01*
%TO.C,U3*%
X1000000Y-16800000D02*
X11000000Y-16800000D01*
X11000000Y-27200000D01*
X1000000Y-27200000D01*
X1000000Y-16800000D01*
%TO.C,U1*%
X-150000Y150000D02*
X26150000Y150000D01*
X26150000Y-16149999D01*
X-150000Y-16149999D01*
X-150000Y150000D01*
%TD*%
M02*
