%TF.GenerationSoftware,KiCad,Pcbnew,10.0.3*%
%TF.CreationDate,2026-05-28T00:17:41+09:00*%
%TF.ProjectId,lora-30x28-v3m,6c6f7261-2d33-4307-9832-382d76336d2e,rev?*%
%TF.SameCoordinates,Original*%
%TF.FileFunction,Copper,L2,Bot*%
%TF.FilePolarity,Positive*%
%FSLAX46Y46*%
G04 Gerber Fmt 4.6, Leading zero omitted, Abs format (unit mm)*
G04 Created by KiCad (PCBNEW 10.0.3) date 2026-05-28 00:17:41*
%MOMM*%
%LPD*%
G01*
G04 APERTURE LIST*
%TA.AperFunction,ViaPad*%
%ADD10C,0.800000*%
%TD*%
%TA.AperFunction,ViaPad*%
%ADD11C,1.000000*%
%TD*%
%TA.AperFunction,ViaPad*%
%ADD12C,0.600000*%
%TD*%
%TA.AperFunction,Conductor*%
%ADD13C,0.400000*%
%TD*%
%TA.AperFunction,Conductor*%
%ADD14C,0.200000*%
%TD*%
%TA.AperFunction,Conductor*%
%ADD15C,1.500000*%
%TD*%
G04 APERTURE END LIST*
D10*
%TO.N,*%
X12000000Y-23000000D03*
D11*
X3500000Y-18700000D03*
D10*
X3000000Y-15000000D03*
X27500000Y-13500000D03*
D12*
X13250000Y-23700000D03*
D10*
X11500000Y-17500000D03*
X15000000Y-26300000D03*
X28000000Y-20000000D03*
X20000000Y-16500000D03*
X25500000Y-8000000D03*
X16500000Y-25500000D03*
D11*
X24000000Y-19000000D03*
D10*
X26800000Y-4190000D03*
X13500000Y-16500000D03*
D12*
X26100000Y-9270000D03*
D10*
X1500000Y-5460000D03*
X14000000Y-25500000D03*
X18600000Y-17000000D03*
X8000000Y-15000000D03*
%TD*%
%TO.N,*%
D13*
X1500000Y-15500000D02*
X13500000Y-15500000D01*
D14*
X25100000Y-21000000D02*
X14000000Y-21000000D01*
D13*
X13500000Y-15500000D02*
X12000000Y-15500000D01*
D14*
X26100000Y-20000000D02*
X13250000Y-20000000D01*
X26800000Y-4190000D02*
X26800000Y-22000000D01*
X26100000Y-9270000D02*
X26100000Y-20000000D01*
X26800000Y-22000000D02*
X15000000Y-22000000D01*
X14000000Y-21000000D02*
X14000000Y-25500000D01*
D13*
X1500000Y-5460000D02*
X1500000Y-15500000D01*
D14*
X13250000Y-20000000D02*
X13250000Y-23700000D01*
D13*
X12000000Y-15500000D02*
X12000000Y-23000000D01*
X13500000Y-15500000D02*
X18600000Y-15500000D01*
D14*
X25100000Y-8000000D02*
X25100000Y-21000000D01*
D15*
X24000000Y-19000000D02*
X24000000Y-18700000D01*
D13*
X11500000Y-15500000D02*
X11500000Y-17500000D01*
X18600000Y-15500000D02*
X18600000Y-17000000D01*
D15*
X24000000Y-18700000D02*
X3500000Y-18700000D01*
D14*
X25500000Y-8000000D02*
X25100000Y-8000000D01*
X15000000Y-22000000D02*
X15000000Y-26300000D01*
%TD*%
M02*
