%TF.GenerationSoftware,KiCad,Pcbnew,10.0.3*%
%TF.CreationDate,2026-06-08T18:32:01+09:00*%
%TF.ProjectId,lte-m-cat-tracker,6c74652d-6d2d-4636-9174-2d747261636b,rev?*%
%TF.SameCoordinates,Original*%
%TF.FileFunction,AssemblyDrawing,Top*%
%FSLAX46Y46*%
G04 Gerber Fmt 4.6, Leading zero omitted, Abs format (unit mm)*
G04 Created by KiCad (PCBNEW 10.0.3) date 2026-06-08 18:32:01*
%MOMM*%
%LPD*%
G01*
G04 APERTURE LIST*
%ADD10C,0.120000*%
%ADD11C,0.040000*%
%ADD12C,0.150000*%
%ADD13C,0.080000*%
%ADD14C,0.090000*%
%ADD15C,0.110000*%
%ADD16C,0.075000*%
%ADD17C,0.100000*%
G04 APERTURE END LIST*
D10*
X15338095Y-27563855D02*
X15833333Y-27563855D01*
X15833333Y-27563855D02*
X15566667Y-27868617D01*
X15566667Y-27868617D02*
X15680952Y-27868617D01*
X15680952Y-27868617D02*
X15757143Y-27906712D01*
X15757143Y-27906712D02*
X15795238Y-27944807D01*
X15795238Y-27944807D02*
X15833333Y-28020998D01*
X15833333Y-28020998D02*
X15833333Y-28211474D01*
X15833333Y-28211474D02*
X15795238Y-28287664D01*
X15795238Y-28287664D02*
X15757143Y-28325760D01*
X15757143Y-28325760D02*
X15680952Y-28363855D01*
X15680952Y-28363855D02*
X15452381Y-28363855D01*
X15452381Y-28363855D02*
X15376190Y-28325760D01*
X15376190Y-28325760D02*
X15338095Y-28287664D01*
X16176191Y-28287664D02*
X16214286Y-28325760D01*
X16214286Y-28325760D02*
X16176191Y-28363855D01*
X16176191Y-28363855D02*
X16138095Y-28325760D01*
X16138095Y-28325760D02*
X16176191Y-28287664D01*
X16176191Y-28287664D02*
X16176191Y-28363855D01*
X16480952Y-27563855D02*
X16976190Y-27563855D01*
X16976190Y-27563855D02*
X16709524Y-27868617D01*
X16709524Y-27868617D02*
X16823809Y-27868617D01*
X16823809Y-27868617D02*
X16900000Y-27906712D01*
X16900000Y-27906712D02*
X16938095Y-27944807D01*
X16938095Y-27944807D02*
X16976190Y-28020998D01*
X16976190Y-28020998D02*
X16976190Y-28211474D01*
X16976190Y-28211474D02*
X16938095Y-28287664D01*
X16938095Y-28287664D02*
X16900000Y-28325760D01*
X16900000Y-28325760D02*
X16823809Y-28363855D01*
X16823809Y-28363855D02*
X16595238Y-28363855D01*
X16595238Y-28363855D02*
X16519047Y-28325760D01*
X16519047Y-28325760D02*
X16480952Y-28287664D01*
X17319048Y-28363855D02*
X17319048Y-27563855D01*
X17395238Y-28059093D02*
X17623810Y-28363855D01*
X17623810Y-27830521D02*
X17319048Y-28135283D01*
D11*
X16456667Y-24618200D02*
X16370000Y-24494391D01*
X16308095Y-24618200D02*
X16308095Y-24358200D01*
X16308095Y-24358200D02*
X16407143Y-24358200D01*
X16407143Y-24358200D02*
X16431905Y-24370581D01*
X16431905Y-24370581D02*
X16444286Y-24382962D01*
X16444286Y-24382962D02*
X16456667Y-24407724D01*
X16456667Y-24407724D02*
X16456667Y-24444867D01*
X16456667Y-24444867D02*
X16444286Y-24469629D01*
X16444286Y-24469629D02*
X16431905Y-24482010D01*
X16431905Y-24482010D02*
X16407143Y-24494391D01*
X16407143Y-24494391D02*
X16308095Y-24494391D01*
X16543333Y-24358200D02*
X16704286Y-24358200D01*
X16704286Y-24358200D02*
X16617619Y-24457248D01*
X16617619Y-24457248D02*
X16654762Y-24457248D01*
X16654762Y-24457248D02*
X16679524Y-24469629D01*
X16679524Y-24469629D02*
X16691905Y-24482010D01*
X16691905Y-24482010D02*
X16704286Y-24506772D01*
X16704286Y-24506772D02*
X16704286Y-24568677D01*
X16704286Y-24568677D02*
X16691905Y-24593439D01*
X16691905Y-24593439D02*
X16679524Y-24605820D01*
X16679524Y-24605820D02*
X16654762Y-24618200D01*
X16654762Y-24618200D02*
X16580476Y-24618200D01*
X16580476Y-24618200D02*
X16555714Y-24605820D01*
X16555714Y-24605820D02*
X16543333Y-24593439D01*
D10*
X8438095Y-35563855D02*
X8438095Y-36211474D01*
X8438095Y-36211474D02*
X8476190Y-36287664D01*
X8476190Y-36287664D02*
X8514285Y-36325760D01*
X8514285Y-36325760D02*
X8590476Y-36363855D01*
X8590476Y-36363855D02*
X8742857Y-36363855D01*
X8742857Y-36363855D02*
X8819047Y-36325760D01*
X8819047Y-36325760D02*
X8857142Y-36287664D01*
X8857142Y-36287664D02*
X8895238Y-36211474D01*
X8895238Y-36211474D02*
X8895238Y-35563855D01*
X9238094Y-36325760D02*
X9352380Y-36363855D01*
X9352380Y-36363855D02*
X9542856Y-36363855D01*
X9542856Y-36363855D02*
X9619047Y-36325760D01*
X9619047Y-36325760D02*
X9657142Y-36287664D01*
X9657142Y-36287664D02*
X9695237Y-36211474D01*
X9695237Y-36211474D02*
X9695237Y-36135283D01*
X9695237Y-36135283D02*
X9657142Y-36059093D01*
X9657142Y-36059093D02*
X9619047Y-36020998D01*
X9619047Y-36020998D02*
X9542856Y-35982902D01*
X9542856Y-35982902D02*
X9390475Y-35944807D01*
X9390475Y-35944807D02*
X9314285Y-35906712D01*
X9314285Y-35906712D02*
X9276190Y-35868617D01*
X9276190Y-35868617D02*
X9238094Y-35792426D01*
X9238094Y-35792426D02*
X9238094Y-35716236D01*
X9238094Y-35716236D02*
X9276190Y-35640045D01*
X9276190Y-35640045D02*
X9314285Y-35601950D01*
X9314285Y-35601950D02*
X9390475Y-35563855D01*
X9390475Y-35563855D02*
X9580952Y-35563855D01*
X9580952Y-35563855D02*
X9695237Y-35601950D01*
X10304761Y-35944807D02*
X10419047Y-35982902D01*
X10419047Y-35982902D02*
X10457142Y-36020998D01*
X10457142Y-36020998D02*
X10495238Y-36097188D01*
X10495238Y-36097188D02*
X10495238Y-36211474D01*
X10495238Y-36211474D02*
X10457142Y-36287664D01*
X10457142Y-36287664D02*
X10419047Y-36325760D01*
X10419047Y-36325760D02*
X10342857Y-36363855D01*
X10342857Y-36363855D02*
X10038095Y-36363855D01*
X10038095Y-36363855D02*
X10038095Y-35563855D01*
X10038095Y-35563855D02*
X10304761Y-35563855D01*
X10304761Y-35563855D02*
X10380952Y-35601950D01*
X10380952Y-35601950D02*
X10419047Y-35640045D01*
X10419047Y-35640045D02*
X10457142Y-35716236D01*
X10457142Y-35716236D02*
X10457142Y-35792426D01*
X10457142Y-35792426D02*
X10419047Y-35868617D01*
X10419047Y-35868617D02*
X10380952Y-35906712D01*
X10380952Y-35906712D02*
X10304761Y-35944807D01*
X10304761Y-35944807D02*
X10038095Y-35944807D01*
X10838095Y-36059093D02*
X11447619Y-36059093D01*
X12285714Y-36287664D02*
X12247618Y-36325760D01*
X12247618Y-36325760D02*
X12133333Y-36363855D01*
X12133333Y-36363855D02*
X12057142Y-36363855D01*
X12057142Y-36363855D02*
X11942856Y-36325760D01*
X11942856Y-36325760D02*
X11866666Y-36249569D01*
X11866666Y-36249569D02*
X11828571Y-36173379D01*
X11828571Y-36173379D02*
X11790475Y-36020998D01*
X11790475Y-36020998D02*
X11790475Y-35906712D01*
X11790475Y-35906712D02*
X11828571Y-35754331D01*
X11828571Y-35754331D02*
X11866666Y-35678140D01*
X11866666Y-35678140D02*
X11942856Y-35601950D01*
X11942856Y-35601950D02*
X12057142Y-35563855D01*
X12057142Y-35563855D02*
X12133333Y-35563855D01*
X12133333Y-35563855D02*
X12247618Y-35601950D01*
X12247618Y-35601950D02*
X12285714Y-35640045D01*
X12628571Y-36059093D02*
X13238095Y-36059093D01*
X14038094Y-36363855D02*
X13580951Y-36363855D01*
X13809523Y-36363855D02*
X13809523Y-35563855D01*
X13809523Y-35563855D02*
X13733332Y-35678140D01*
X13733332Y-35678140D02*
X13657142Y-35754331D01*
X13657142Y-35754331D02*
X13580951Y-35792426D01*
X14723809Y-35563855D02*
X14571428Y-35563855D01*
X14571428Y-35563855D02*
X14495237Y-35601950D01*
X14495237Y-35601950D02*
X14457142Y-35640045D01*
X14457142Y-35640045D02*
X14380952Y-35754331D01*
X14380952Y-35754331D02*
X14342856Y-35906712D01*
X14342856Y-35906712D02*
X14342856Y-36211474D01*
X14342856Y-36211474D02*
X14380952Y-36287664D01*
X14380952Y-36287664D02*
X14419047Y-36325760D01*
X14419047Y-36325760D02*
X14495237Y-36363855D01*
X14495237Y-36363855D02*
X14647618Y-36363855D01*
X14647618Y-36363855D02*
X14723809Y-36325760D01*
X14723809Y-36325760D02*
X14761904Y-36287664D01*
X14761904Y-36287664D02*
X14799999Y-36211474D01*
X14799999Y-36211474D02*
X14799999Y-36020998D01*
X14799999Y-36020998D02*
X14761904Y-35944807D01*
X14761904Y-35944807D02*
X14723809Y-35906712D01*
X14723809Y-35906712D02*
X14647618Y-35868617D01*
X14647618Y-35868617D02*
X14495237Y-35868617D01*
X14495237Y-35868617D02*
X14419047Y-35906712D01*
X14419047Y-35906712D02*
X14380952Y-35944807D01*
X14380952Y-35944807D02*
X14342856Y-36020998D01*
X15142857Y-36363855D02*
X15142857Y-35563855D01*
X15142857Y-35563855D02*
X15447619Y-35563855D01*
X15447619Y-35563855D02*
X15523809Y-35601950D01*
X15523809Y-35601950D02*
X15561904Y-35640045D01*
X15561904Y-35640045D02*
X15600000Y-35716236D01*
X15600000Y-35716236D02*
X15600000Y-35830521D01*
X15600000Y-35830521D02*
X15561904Y-35906712D01*
X15561904Y-35906712D02*
X15523809Y-35944807D01*
X15523809Y-35944807D02*
X15447619Y-35982902D01*
X15447619Y-35982902D02*
X15142857Y-35982902D01*
X15757143Y-24830521D02*
X15757143Y-25363855D01*
X15566667Y-24525760D02*
X15376190Y-25097188D01*
X15376190Y-25097188D02*
X15871429Y-25097188D01*
X16176191Y-25287664D02*
X16214286Y-25325760D01*
X16214286Y-25325760D02*
X16176191Y-25363855D01*
X16176191Y-25363855D02*
X16138095Y-25325760D01*
X16138095Y-25325760D02*
X16176191Y-25287664D01*
X16176191Y-25287664D02*
X16176191Y-25363855D01*
X16480952Y-24563855D02*
X17014286Y-24563855D01*
X17014286Y-24563855D02*
X16671428Y-25363855D01*
X17319048Y-25363855D02*
X17319048Y-24563855D01*
X17395238Y-25059093D02*
X17623810Y-25363855D01*
X17623810Y-24830521D02*
X17319048Y-25135283D01*
D11*
X16456667Y-21618200D02*
X16370000Y-21494391D01*
X16308095Y-21618200D02*
X16308095Y-21358200D01*
X16308095Y-21358200D02*
X16407143Y-21358200D01*
X16407143Y-21358200D02*
X16431905Y-21370581D01*
X16431905Y-21370581D02*
X16444286Y-21382962D01*
X16444286Y-21382962D02*
X16456667Y-21407724D01*
X16456667Y-21407724D02*
X16456667Y-21444867D01*
X16456667Y-21444867D02*
X16444286Y-21469629D01*
X16444286Y-21469629D02*
X16431905Y-21482010D01*
X16431905Y-21482010D02*
X16407143Y-21494391D01*
X16407143Y-21494391D02*
X16308095Y-21494391D01*
X16543333Y-21358200D02*
X16716667Y-21358200D01*
X16716667Y-21358200D02*
X16605238Y-21618200D01*
D10*
X-2557142Y-21363855D02*
X-2823809Y-20982902D01*
X-3014285Y-21363855D02*
X-3014285Y-20563855D01*
X-3014285Y-20563855D02*
X-2709523Y-20563855D01*
X-2709523Y-20563855D02*
X-2633333Y-20601950D01*
X-2633333Y-20601950D02*
X-2595238Y-20640045D01*
X-2595238Y-20640045D02*
X-2557142Y-20716236D01*
X-2557142Y-20716236D02*
X-2557142Y-20830521D01*
X-2557142Y-20830521D02*
X-2595238Y-20906712D01*
X-2595238Y-20906712D02*
X-2633333Y-20944807D01*
X-2633333Y-20944807D02*
X-2709523Y-20982902D01*
X-2709523Y-20982902D02*
X-3014285Y-20982902D01*
X-1947619Y-20944807D02*
X-2214285Y-20944807D01*
X-2214285Y-21363855D02*
X-2214285Y-20563855D01*
X-2214285Y-20563855D02*
X-1833333Y-20563855D01*
X-1566667Y-21135283D02*
X-1185714Y-21135283D01*
X-1642857Y-21363855D02*
X-1376190Y-20563855D01*
X-1376190Y-20563855D02*
X-1109524Y-21363855D01*
X-842857Y-21363855D02*
X-842857Y-20563855D01*
X-842857Y-20563855D02*
X-385714Y-21363855D01*
X-385714Y-21363855D02*
X-385714Y-20563855D01*
X-119048Y-20563855D02*
X338094Y-20563855D01*
X109522Y-21363855D02*
X109522Y-20563855D01*
X528570Y-20563855D02*
X1023808Y-20563855D01*
X1023808Y-20563855D02*
X757142Y-20868617D01*
X757142Y-20868617D02*
X871427Y-20868617D01*
X871427Y-20868617D02*
X947618Y-20906712D01*
X947618Y-20906712D02*
X985713Y-20944807D01*
X985713Y-20944807D02*
X1023808Y-21020998D01*
X1023808Y-21020998D02*
X1023808Y-21211474D01*
X1023808Y-21211474D02*
X985713Y-21287664D01*
X985713Y-21287664D02*
X947618Y-21325760D01*
X947618Y-21325760D02*
X871427Y-21363855D01*
X871427Y-21363855D02*
X642856Y-21363855D01*
X642856Y-21363855D02*
X566665Y-21325760D01*
X566665Y-21325760D02*
X528570Y-21287664D01*
X1328570Y-20640045D02*
X1366666Y-20601950D01*
X1366666Y-20601950D02*
X1442856Y-20563855D01*
X1442856Y-20563855D02*
X1633332Y-20563855D01*
X1633332Y-20563855D02*
X1709523Y-20601950D01*
X1709523Y-20601950D02*
X1747618Y-20640045D01*
X1747618Y-20640045D02*
X1785713Y-20716236D01*
X1785713Y-20716236D02*
X1785713Y-20792426D01*
X1785713Y-20792426D02*
X1747618Y-20906712D01*
X1747618Y-20906712D02*
X1290475Y-21363855D01*
X1290475Y-21363855D02*
X1785713Y-21363855D01*
X2547618Y-21363855D02*
X2090475Y-21363855D01*
X2319047Y-21363855D02*
X2319047Y-20563855D01*
X2319047Y-20563855D02*
X2242856Y-20678140D01*
X2242856Y-20678140D02*
X2166666Y-20754331D01*
X2166666Y-20754331D02*
X2090475Y-20792426D01*
X3233333Y-20563855D02*
X3080952Y-20563855D01*
X3080952Y-20563855D02*
X3004761Y-20601950D01*
X3004761Y-20601950D02*
X2966666Y-20640045D01*
X2966666Y-20640045D02*
X2890476Y-20754331D01*
X2890476Y-20754331D02*
X2852380Y-20906712D01*
X2852380Y-20906712D02*
X2852380Y-21211474D01*
X2852380Y-21211474D02*
X2890476Y-21287664D01*
X2890476Y-21287664D02*
X2928571Y-21325760D01*
X2928571Y-21325760D02*
X3004761Y-21363855D01*
X3004761Y-21363855D02*
X3157142Y-21363855D01*
X3157142Y-21363855D02*
X3233333Y-21325760D01*
X3233333Y-21325760D02*
X3271428Y-21287664D01*
X3271428Y-21287664D02*
X3309523Y-21211474D01*
X3309523Y-21211474D02*
X3309523Y-21020998D01*
X3309523Y-21020998D02*
X3271428Y-20944807D01*
X3271428Y-20944807D02*
X3233333Y-20906712D01*
X3233333Y-20906712D02*
X3157142Y-20868617D01*
X3157142Y-20868617D02*
X3004761Y-20868617D01*
X3004761Y-20868617D02*
X2928571Y-20906712D01*
X2928571Y-20906712D02*
X2890476Y-20944807D01*
X2890476Y-20944807D02*
X2852380Y-21020998D01*
X4071428Y-21363855D02*
X3614285Y-21363855D01*
X3842857Y-21363855D02*
X3842857Y-20563855D01*
X3842857Y-20563855D02*
X3766666Y-20678140D01*
X3766666Y-20678140D02*
X3690476Y-20754331D01*
X3690476Y-20754331D02*
X3614285Y-20792426D01*
X4376190Y-20640045D02*
X4414286Y-20601950D01*
X4414286Y-20601950D02*
X4490476Y-20563855D01*
X4490476Y-20563855D02*
X4680952Y-20563855D01*
X4680952Y-20563855D02*
X4757143Y-20601950D01*
X4757143Y-20601950D02*
X4795238Y-20640045D01*
X4795238Y-20640045D02*
X4833333Y-20716236D01*
X4833333Y-20716236D02*
X4833333Y-20792426D01*
X4833333Y-20792426D02*
X4795238Y-20906712D01*
X4795238Y-20906712D02*
X4338095Y-21363855D01*
X4338095Y-21363855D02*
X4833333Y-21363855D01*
X5328572Y-20563855D02*
X5404762Y-20563855D01*
X5404762Y-20563855D02*
X5480953Y-20601950D01*
X5480953Y-20601950D02*
X5519048Y-20640045D01*
X5519048Y-20640045D02*
X5557143Y-20716236D01*
X5557143Y-20716236D02*
X5595238Y-20868617D01*
X5595238Y-20868617D02*
X5595238Y-21059093D01*
X5595238Y-21059093D02*
X5557143Y-21211474D01*
X5557143Y-21211474D02*
X5519048Y-21287664D01*
X5519048Y-21287664D02*
X5480953Y-21325760D01*
X5480953Y-21325760D02*
X5404762Y-21363855D01*
X5404762Y-21363855D02*
X5328572Y-21363855D01*
X5328572Y-21363855D02*
X5252381Y-21325760D01*
X5252381Y-21325760D02*
X5214286Y-21287664D01*
X5214286Y-21287664D02*
X5176191Y-21211474D01*
X5176191Y-21211474D02*
X5138095Y-21059093D01*
X5138095Y-21059093D02*
X5138095Y-20868617D01*
X5138095Y-20868617D02*
X5176191Y-20716236D01*
X5176191Y-20716236D02*
X5214286Y-20640045D01*
X5214286Y-20640045D02*
X5252381Y-20601950D01*
X5252381Y-20601950D02*
X5328572Y-20563855D01*
X5900000Y-21135283D02*
X6280953Y-21135283D01*
X5823810Y-21363855D02*
X6090477Y-20563855D01*
X6090477Y-20563855D02*
X6357143Y-21363855D01*
X7004762Y-20563855D02*
X6623810Y-20563855D01*
X6623810Y-20563855D02*
X6585714Y-20944807D01*
X6585714Y-20944807D02*
X6623810Y-20906712D01*
X6623810Y-20906712D02*
X6700000Y-20868617D01*
X6700000Y-20868617D02*
X6890476Y-20868617D01*
X6890476Y-20868617D02*
X6966667Y-20906712D01*
X6966667Y-20906712D02*
X7004762Y-20944807D01*
X7004762Y-20944807D02*
X7042857Y-21020998D01*
X7042857Y-21020998D02*
X7042857Y-21211474D01*
X7042857Y-21211474D02*
X7004762Y-21287664D01*
X7004762Y-21287664D02*
X6966667Y-21325760D01*
X6966667Y-21325760D02*
X6890476Y-21363855D01*
X6890476Y-21363855D02*
X6700000Y-21363855D01*
X6700000Y-21363855D02*
X6623810Y-21325760D01*
X6623810Y-21325760D02*
X6585714Y-21287664D01*
X7271429Y-20563855D02*
X7728572Y-20563855D01*
X7500000Y-21363855D02*
X7500000Y-20563855D01*
X9261904Y-23663855D02*
X8804761Y-23663855D01*
X9033333Y-23663855D02*
X9033333Y-22863855D01*
X9033333Y-22863855D02*
X8957142Y-22978140D01*
X8957142Y-22978140D02*
X8880952Y-23054331D01*
X8880952Y-23054331D02*
X8804761Y-23092426D01*
X9757143Y-22863855D02*
X9833333Y-22863855D01*
X9833333Y-22863855D02*
X9909524Y-22901950D01*
X9909524Y-22901950D02*
X9947619Y-22940045D01*
X9947619Y-22940045D02*
X9985714Y-23016236D01*
X9985714Y-23016236D02*
X10023809Y-23168617D01*
X10023809Y-23168617D02*
X10023809Y-23359093D01*
X10023809Y-23359093D02*
X9985714Y-23511474D01*
X9985714Y-23511474D02*
X9947619Y-23587664D01*
X9947619Y-23587664D02*
X9909524Y-23625760D01*
X9909524Y-23625760D02*
X9833333Y-23663855D01*
X9833333Y-23663855D02*
X9757143Y-23663855D01*
X9757143Y-23663855D02*
X9680952Y-23625760D01*
X9680952Y-23625760D02*
X9642857Y-23587664D01*
X9642857Y-23587664D02*
X9604762Y-23511474D01*
X9604762Y-23511474D02*
X9566666Y-23359093D01*
X9566666Y-23359093D02*
X9566666Y-23168617D01*
X9566666Y-23168617D02*
X9604762Y-23016236D01*
X9604762Y-23016236D02*
X9642857Y-22940045D01*
X9642857Y-22940045D02*
X9680952Y-22901950D01*
X9680952Y-22901950D02*
X9757143Y-22863855D01*
X10519048Y-22863855D02*
X10595238Y-22863855D01*
X10595238Y-22863855D02*
X10671429Y-22901950D01*
X10671429Y-22901950D02*
X10709524Y-22940045D01*
X10709524Y-22940045D02*
X10747619Y-23016236D01*
X10747619Y-23016236D02*
X10785714Y-23168617D01*
X10785714Y-23168617D02*
X10785714Y-23359093D01*
X10785714Y-23359093D02*
X10747619Y-23511474D01*
X10747619Y-23511474D02*
X10709524Y-23587664D01*
X10709524Y-23587664D02*
X10671429Y-23625760D01*
X10671429Y-23625760D02*
X10595238Y-23663855D01*
X10595238Y-23663855D02*
X10519048Y-23663855D01*
X10519048Y-23663855D02*
X10442857Y-23625760D01*
X10442857Y-23625760D02*
X10404762Y-23587664D01*
X10404762Y-23587664D02*
X10366667Y-23511474D01*
X10366667Y-23511474D02*
X10328571Y-23359093D01*
X10328571Y-23359093D02*
X10328571Y-23168617D01*
X10328571Y-23168617D02*
X10366667Y-23016236D01*
X10366667Y-23016236D02*
X10404762Y-22940045D01*
X10404762Y-22940045D02*
X10442857Y-22901950D01*
X10442857Y-22901950D02*
X10519048Y-22863855D01*
X11128572Y-23130521D02*
X11128572Y-23663855D01*
X11128572Y-23206712D02*
X11166667Y-23168617D01*
X11166667Y-23168617D02*
X11242857Y-23130521D01*
X11242857Y-23130521D02*
X11357143Y-23130521D01*
X11357143Y-23130521D02*
X11433334Y-23168617D01*
X11433334Y-23168617D02*
X11471429Y-23244807D01*
X11471429Y-23244807D02*
X11471429Y-23663855D01*
X12119048Y-23244807D02*
X11852382Y-23244807D01*
X11852382Y-23663855D02*
X11852382Y-22863855D01*
X11852382Y-22863855D02*
X12233334Y-22863855D01*
D11*
X10458333Y-19889765D02*
X10446429Y-19901670D01*
X10446429Y-19901670D02*
X10410714Y-19913574D01*
X10410714Y-19913574D02*
X10386905Y-19913574D01*
X10386905Y-19913574D02*
X10351191Y-19901670D01*
X10351191Y-19901670D02*
X10327381Y-19877860D01*
X10327381Y-19877860D02*
X10315476Y-19854050D01*
X10315476Y-19854050D02*
X10303572Y-19806431D01*
X10303572Y-19806431D02*
X10303572Y-19770717D01*
X10303572Y-19770717D02*
X10315476Y-19723098D01*
X10315476Y-19723098D02*
X10327381Y-19699289D01*
X10327381Y-19699289D02*
X10351191Y-19675479D01*
X10351191Y-19675479D02*
X10386905Y-19663574D01*
X10386905Y-19663574D02*
X10410714Y-19663574D01*
X10410714Y-19663574D02*
X10446429Y-19675479D01*
X10446429Y-19675479D02*
X10458333Y-19687384D01*
X10672619Y-19663574D02*
X10625000Y-19663574D01*
X10625000Y-19663574D02*
X10601191Y-19675479D01*
X10601191Y-19675479D02*
X10589286Y-19687384D01*
X10589286Y-19687384D02*
X10565476Y-19723098D01*
X10565476Y-19723098D02*
X10553572Y-19770717D01*
X10553572Y-19770717D02*
X10553572Y-19865955D01*
X10553572Y-19865955D02*
X10565476Y-19889765D01*
X10565476Y-19889765D02*
X10577381Y-19901670D01*
X10577381Y-19901670D02*
X10601191Y-19913574D01*
X10601191Y-19913574D02*
X10648810Y-19913574D01*
X10648810Y-19913574D02*
X10672619Y-19901670D01*
X10672619Y-19901670D02*
X10684524Y-19889765D01*
X10684524Y-19889765D02*
X10696429Y-19865955D01*
X10696429Y-19865955D02*
X10696429Y-19806431D01*
X10696429Y-19806431D02*
X10684524Y-19782622D01*
X10684524Y-19782622D02*
X10672619Y-19770717D01*
X10672619Y-19770717D02*
X10648810Y-19758812D01*
X10648810Y-19758812D02*
X10601191Y-19758812D01*
X10601191Y-19758812D02*
X10577381Y-19770717D01*
X10577381Y-19770717D02*
X10565476Y-19782622D01*
X10565476Y-19782622D02*
X10553572Y-19806431D01*
D10*
X19347618Y-25563855D02*
X19804761Y-25563855D01*
X19576189Y-26363855D02*
X19576189Y-25563855D01*
X20071428Y-26363855D02*
X20071428Y-25563855D01*
X20071428Y-25563855D02*
X20376190Y-25563855D01*
X20376190Y-25563855D02*
X20452380Y-25601950D01*
X20452380Y-25601950D02*
X20490475Y-25640045D01*
X20490475Y-25640045D02*
X20528571Y-25716236D01*
X20528571Y-25716236D02*
X20528571Y-25830521D01*
X20528571Y-25830521D02*
X20490475Y-25906712D01*
X20490475Y-25906712D02*
X20452380Y-25944807D01*
X20452380Y-25944807D02*
X20376190Y-25982902D01*
X20376190Y-25982902D02*
X20071428Y-25982902D01*
X21214285Y-25830521D02*
X21214285Y-26363855D01*
X21023809Y-25525760D02*
X20833332Y-26097188D01*
X20833332Y-26097188D02*
X21328571Y-26097188D01*
X21785714Y-25563855D02*
X21861904Y-25563855D01*
X21861904Y-25563855D02*
X21938095Y-25601950D01*
X21938095Y-25601950D02*
X21976190Y-25640045D01*
X21976190Y-25640045D02*
X22014285Y-25716236D01*
X22014285Y-25716236D02*
X22052380Y-25868617D01*
X22052380Y-25868617D02*
X22052380Y-26059093D01*
X22052380Y-26059093D02*
X22014285Y-26211474D01*
X22014285Y-26211474D02*
X21976190Y-26287664D01*
X21976190Y-26287664D02*
X21938095Y-26325760D01*
X21938095Y-26325760D02*
X21861904Y-26363855D01*
X21861904Y-26363855D02*
X21785714Y-26363855D01*
X21785714Y-26363855D02*
X21709523Y-26325760D01*
X21709523Y-26325760D02*
X21671428Y-26287664D01*
X21671428Y-26287664D02*
X21633333Y-26211474D01*
X21633333Y-26211474D02*
X21595237Y-26059093D01*
X21595237Y-26059093D02*
X21595237Y-25868617D01*
X21595237Y-25868617D02*
X21633333Y-25716236D01*
X21633333Y-25716236D02*
X21671428Y-25640045D01*
X21671428Y-25640045D02*
X21709523Y-25601950D01*
X21709523Y-25601950D02*
X21785714Y-25563855D01*
X22776190Y-25563855D02*
X22395238Y-25563855D01*
X22395238Y-25563855D02*
X22357142Y-25944807D01*
X22357142Y-25944807D02*
X22395238Y-25906712D01*
X22395238Y-25906712D02*
X22471428Y-25868617D01*
X22471428Y-25868617D02*
X22661904Y-25868617D01*
X22661904Y-25868617D02*
X22738095Y-25906712D01*
X22738095Y-25906712D02*
X22776190Y-25944807D01*
X22776190Y-25944807D02*
X22814285Y-26020998D01*
X22814285Y-26020998D02*
X22814285Y-26211474D01*
X22814285Y-26211474D02*
X22776190Y-26287664D01*
X22776190Y-26287664D02*
X22738095Y-26325760D01*
X22738095Y-26325760D02*
X22661904Y-26363855D01*
X22661904Y-26363855D02*
X22471428Y-26363855D01*
X22471428Y-26363855D02*
X22395238Y-26325760D01*
X22395238Y-26325760D02*
X22357142Y-26287664D01*
X23500000Y-25563855D02*
X23347619Y-25563855D01*
X23347619Y-25563855D02*
X23271428Y-25601950D01*
X23271428Y-25601950D02*
X23233333Y-25640045D01*
X23233333Y-25640045D02*
X23157143Y-25754331D01*
X23157143Y-25754331D02*
X23119047Y-25906712D01*
X23119047Y-25906712D02*
X23119047Y-26211474D01*
X23119047Y-26211474D02*
X23157143Y-26287664D01*
X23157143Y-26287664D02*
X23195238Y-26325760D01*
X23195238Y-26325760D02*
X23271428Y-26363855D01*
X23271428Y-26363855D02*
X23423809Y-26363855D01*
X23423809Y-26363855D02*
X23500000Y-26325760D01*
X23500000Y-26325760D02*
X23538095Y-26287664D01*
X23538095Y-26287664D02*
X23576190Y-26211474D01*
X23576190Y-26211474D02*
X23576190Y-26020998D01*
X23576190Y-26020998D02*
X23538095Y-25944807D01*
X23538095Y-25944807D02*
X23500000Y-25906712D01*
X23500000Y-25906712D02*
X23423809Y-25868617D01*
X23423809Y-25868617D02*
X23271428Y-25868617D01*
X23271428Y-25868617D02*
X23195238Y-25906712D01*
X23195238Y-25906712D02*
X23157143Y-25944807D01*
X23157143Y-25944807D02*
X23119047Y-26020998D01*
D12*
X20954819Y-23261904D02*
X21764342Y-23261904D01*
X21764342Y-23261904D02*
X21859580Y-23214285D01*
X21859580Y-23214285D02*
X21907200Y-23166666D01*
X21907200Y-23166666D02*
X21954819Y-23071428D01*
X21954819Y-23071428D02*
X21954819Y-22880952D01*
X21954819Y-22880952D02*
X21907200Y-22785714D01*
X21907200Y-22785714D02*
X21859580Y-22738095D01*
X21859580Y-22738095D02*
X21764342Y-22690476D01*
X21764342Y-22690476D02*
X20954819Y-22690476D01*
X21288152Y-21785714D02*
X21954819Y-21785714D01*
X20907200Y-22023809D02*
X21621485Y-22261904D01*
X21621485Y-22261904D02*
X21621485Y-21642857D01*
D10*
X-2557143Y-37563855D02*
X-2557143Y-38135283D01*
X-2557143Y-38135283D02*
X-2595238Y-38249569D01*
X-2595238Y-38249569D02*
X-2671429Y-38325760D01*
X-2671429Y-38325760D02*
X-2785714Y-38363855D01*
X-2785714Y-38363855D02*
X-2861905Y-38363855D01*
X-2214286Y-38325760D02*
X-2100000Y-38363855D01*
X-2100000Y-38363855D02*
X-1909524Y-38363855D01*
X-1909524Y-38363855D02*
X-1833333Y-38325760D01*
X-1833333Y-38325760D02*
X-1795238Y-38287664D01*
X-1795238Y-38287664D02*
X-1757143Y-38211474D01*
X-1757143Y-38211474D02*
X-1757143Y-38135283D01*
X-1757143Y-38135283D02*
X-1795238Y-38059093D01*
X-1795238Y-38059093D02*
X-1833333Y-38020998D01*
X-1833333Y-38020998D02*
X-1909524Y-37982902D01*
X-1909524Y-37982902D02*
X-2061905Y-37944807D01*
X-2061905Y-37944807D02*
X-2138095Y-37906712D01*
X-2138095Y-37906712D02*
X-2176190Y-37868617D01*
X-2176190Y-37868617D02*
X-2214286Y-37792426D01*
X-2214286Y-37792426D02*
X-2214286Y-37716236D01*
X-2214286Y-37716236D02*
X-2176190Y-37640045D01*
X-2176190Y-37640045D02*
X-2138095Y-37601950D01*
X-2138095Y-37601950D02*
X-2061905Y-37563855D01*
X-2061905Y-37563855D02*
X-1871428Y-37563855D01*
X-1871428Y-37563855D02*
X-1757143Y-37601950D01*
X-1528571Y-37563855D02*
X-1071428Y-37563855D01*
X-1300000Y-38363855D02*
X-1300000Y-37563855D01*
X-804761Y-38059093D02*
X-195238Y-38059093D01*
X604761Y-37601950D02*
X528571Y-37563855D01*
X528571Y-37563855D02*
X414285Y-37563855D01*
X414285Y-37563855D02*
X299999Y-37601950D01*
X299999Y-37601950D02*
X223809Y-37678140D01*
X223809Y-37678140D02*
X185714Y-37754331D01*
X185714Y-37754331D02*
X147618Y-37906712D01*
X147618Y-37906712D02*
X147618Y-38020998D01*
X147618Y-38020998D02*
X185714Y-38173379D01*
X185714Y-38173379D02*
X223809Y-38249569D01*
X223809Y-38249569D02*
X299999Y-38325760D01*
X299999Y-38325760D02*
X414285Y-38363855D01*
X414285Y-38363855D02*
X490476Y-38363855D01*
X490476Y-38363855D02*
X604761Y-38325760D01*
X604761Y-38325760D02*
X642857Y-38287664D01*
X642857Y-38287664D02*
X642857Y-38020998D01*
X642857Y-38020998D02*
X490476Y-38020998D01*
X985714Y-38363855D02*
X985714Y-37563855D01*
X985714Y-37944807D02*
X1442857Y-37944807D01*
X1442857Y-38363855D02*
X1442857Y-37563855D01*
X1823809Y-38059093D02*
X2433333Y-38059093D01*
X3233332Y-38363855D02*
X2776189Y-38363855D01*
X3004761Y-38363855D02*
X3004761Y-37563855D01*
X3004761Y-37563855D02*
X2928570Y-37678140D01*
X2928570Y-37678140D02*
X2852380Y-37754331D01*
X2852380Y-37754331D02*
X2776189Y-37792426D01*
X3576190Y-38287664D02*
X3614285Y-38325760D01*
X3614285Y-38325760D02*
X3576190Y-38363855D01*
X3576190Y-38363855D02*
X3538094Y-38325760D01*
X3538094Y-38325760D02*
X3576190Y-38287664D01*
X3576190Y-38287664D02*
X3576190Y-38363855D01*
X3919046Y-37640045D02*
X3957142Y-37601950D01*
X3957142Y-37601950D02*
X4033332Y-37563855D01*
X4033332Y-37563855D02*
X4223808Y-37563855D01*
X4223808Y-37563855D02*
X4299999Y-37601950D01*
X4299999Y-37601950D02*
X4338094Y-37640045D01*
X4338094Y-37640045D02*
X4376189Y-37716236D01*
X4376189Y-37716236D02*
X4376189Y-37792426D01*
X4376189Y-37792426D02*
X4338094Y-37906712D01*
X4338094Y-37906712D02*
X3880951Y-38363855D01*
X3880951Y-38363855D02*
X4376189Y-38363855D01*
X5099999Y-37563855D02*
X4719047Y-37563855D01*
X4719047Y-37563855D02*
X4680951Y-37944807D01*
X4680951Y-37944807D02*
X4719047Y-37906712D01*
X4719047Y-37906712D02*
X4795237Y-37868617D01*
X4795237Y-37868617D02*
X4985713Y-37868617D01*
X4985713Y-37868617D02*
X5061904Y-37906712D01*
X5061904Y-37906712D02*
X5099999Y-37944807D01*
X5099999Y-37944807D02*
X5138094Y-38020998D01*
X5138094Y-38020998D02*
X5138094Y-38211474D01*
X5138094Y-38211474D02*
X5099999Y-38287664D01*
X5099999Y-38287664D02*
X5061904Y-38325760D01*
X5061904Y-38325760D02*
X4985713Y-38363855D01*
X4985713Y-38363855D02*
X4795237Y-38363855D01*
X4795237Y-38363855D02*
X4719047Y-38325760D01*
X4719047Y-38325760D02*
X4680951Y-38287664D01*
X5480952Y-38363855D02*
X5480952Y-37830521D01*
X5480952Y-37906712D02*
X5519047Y-37868617D01*
X5519047Y-37868617D02*
X5595237Y-37830521D01*
X5595237Y-37830521D02*
X5709523Y-37830521D01*
X5709523Y-37830521D02*
X5785714Y-37868617D01*
X5785714Y-37868617D02*
X5823809Y-37944807D01*
X5823809Y-37944807D02*
X5823809Y-38363855D01*
X5823809Y-37944807D02*
X5861904Y-37868617D01*
X5861904Y-37868617D02*
X5938095Y-37830521D01*
X5938095Y-37830521D02*
X6052380Y-37830521D01*
X6052380Y-37830521D02*
X6128571Y-37868617D01*
X6128571Y-37868617D02*
X6166666Y-37944807D01*
X6166666Y-37944807D02*
X6166666Y-38363855D01*
X6547619Y-38363855D02*
X6547619Y-37830521D01*
X6547619Y-37906712D02*
X6585714Y-37868617D01*
X6585714Y-37868617D02*
X6661904Y-37830521D01*
X6661904Y-37830521D02*
X6776190Y-37830521D01*
X6776190Y-37830521D02*
X6852381Y-37868617D01*
X6852381Y-37868617D02*
X6890476Y-37944807D01*
X6890476Y-37944807D02*
X6890476Y-38363855D01*
X6890476Y-37944807D02*
X6928571Y-37868617D01*
X6928571Y-37868617D02*
X7004762Y-37830521D01*
X7004762Y-37830521D02*
X7119047Y-37830521D01*
X7119047Y-37830521D02*
X7195238Y-37868617D01*
X7195238Y-37868617D02*
X7233333Y-37944807D01*
X7233333Y-37944807D02*
X7233333Y-38363855D01*
X7614286Y-38059093D02*
X8223810Y-38059093D01*
X8566666Y-37640045D02*
X8604762Y-37601950D01*
X8604762Y-37601950D02*
X8680952Y-37563855D01*
X8680952Y-37563855D02*
X8871428Y-37563855D01*
X8871428Y-37563855D02*
X8947619Y-37601950D01*
X8947619Y-37601950D02*
X8985714Y-37640045D01*
X8985714Y-37640045D02*
X9023809Y-37716236D01*
X9023809Y-37716236D02*
X9023809Y-37792426D01*
X9023809Y-37792426D02*
X8985714Y-37906712D01*
X8985714Y-37906712D02*
X8528571Y-38363855D01*
X8528571Y-38363855D02*
X9023809Y-38363855D01*
X9366667Y-38363855D02*
X9366667Y-37563855D01*
X9366667Y-37563855D02*
X9671429Y-37563855D01*
X9671429Y-37563855D02*
X9747619Y-37601950D01*
X9747619Y-37601950D02*
X9785714Y-37640045D01*
X9785714Y-37640045D02*
X9823810Y-37716236D01*
X9823810Y-37716236D02*
X9823810Y-37830521D01*
X9823810Y-37830521D02*
X9785714Y-37906712D01*
X9785714Y-37906712D02*
X9747619Y-37944807D01*
X9747619Y-37944807D02*
X9671429Y-37982902D01*
X9671429Y-37982902D02*
X9366667Y-37982902D01*
D12*
X3166666Y-33954819D02*
X3166666Y-34669104D01*
X3166666Y-34669104D02*
X3119047Y-34811961D01*
X3119047Y-34811961D02*
X3023809Y-34907200D01*
X3023809Y-34907200D02*
X2880952Y-34954819D01*
X2880952Y-34954819D02*
X2785714Y-34954819D01*
X4166666Y-34954819D02*
X3595238Y-34954819D01*
X3880952Y-34954819D02*
X3880952Y-33954819D01*
X3880952Y-33954819D02*
X3785714Y-34097676D01*
X3785714Y-34097676D02*
X3690476Y-34192914D01*
X3690476Y-34192914D02*
X3595238Y-34240533D01*
D10*
X12257143Y-24330521D02*
X12257143Y-24863855D01*
X12066667Y-24025760D02*
X11876190Y-24597188D01*
X11876190Y-24597188D02*
X12371429Y-24597188D01*
X12676191Y-24787664D02*
X12714286Y-24825760D01*
X12714286Y-24825760D02*
X12676191Y-24863855D01*
X12676191Y-24863855D02*
X12638095Y-24825760D01*
X12638095Y-24825760D02*
X12676191Y-24787664D01*
X12676191Y-24787664D02*
X12676191Y-24863855D01*
X12980952Y-24063855D02*
X13514286Y-24063855D01*
X13514286Y-24063855D02*
X13171428Y-24863855D01*
X13819048Y-24863855D02*
X13819048Y-24063855D01*
X13895238Y-24559093D02*
X14123810Y-24863855D01*
X14123810Y-24330521D02*
X13819048Y-24635283D01*
D11*
X12956667Y-21118200D02*
X12870000Y-20994391D01*
X12808095Y-21118200D02*
X12808095Y-20858200D01*
X12808095Y-20858200D02*
X12907143Y-20858200D01*
X12907143Y-20858200D02*
X12931905Y-20870581D01*
X12931905Y-20870581D02*
X12944286Y-20882962D01*
X12944286Y-20882962D02*
X12956667Y-20907724D01*
X12956667Y-20907724D02*
X12956667Y-20944867D01*
X12956667Y-20944867D02*
X12944286Y-20969629D01*
X12944286Y-20969629D02*
X12931905Y-20982010D01*
X12931905Y-20982010D02*
X12907143Y-20994391D01*
X12907143Y-20994391D02*
X12808095Y-20994391D01*
X13179524Y-20858200D02*
X13130000Y-20858200D01*
X13130000Y-20858200D02*
X13105238Y-20870581D01*
X13105238Y-20870581D02*
X13092857Y-20882962D01*
X13092857Y-20882962D02*
X13068095Y-20920105D01*
X13068095Y-20920105D02*
X13055714Y-20969629D01*
X13055714Y-20969629D02*
X13055714Y-21068677D01*
X13055714Y-21068677D02*
X13068095Y-21093439D01*
X13068095Y-21093439D02*
X13080476Y-21105820D01*
X13080476Y-21105820D02*
X13105238Y-21118200D01*
X13105238Y-21118200D02*
X13154762Y-21118200D01*
X13154762Y-21118200D02*
X13179524Y-21105820D01*
X13179524Y-21105820D02*
X13191905Y-21093439D01*
X13191905Y-21093439D02*
X13204286Y-21068677D01*
X13204286Y-21068677D02*
X13204286Y-21006772D01*
X13204286Y-21006772D02*
X13191905Y-20982010D01*
X13191905Y-20982010D02*
X13179524Y-20969629D01*
X13179524Y-20969629D02*
X13154762Y-20957248D01*
X13154762Y-20957248D02*
X13105238Y-20957248D01*
X13105238Y-20957248D02*
X13080476Y-20969629D01*
X13080476Y-20969629D02*
X13068095Y-20982010D01*
X13068095Y-20982010D02*
X13055714Y-21006772D01*
D10*
X15904761Y-30163855D02*
X15447618Y-30163855D01*
X15676190Y-30163855D02*
X15676190Y-29363855D01*
X15676190Y-29363855D02*
X15599999Y-29478140D01*
X15599999Y-29478140D02*
X15523809Y-29554331D01*
X15523809Y-29554331D02*
X15447618Y-29592426D01*
X16247619Y-30163855D02*
X16247619Y-29363855D01*
X16323809Y-29859093D02*
X16552381Y-30163855D01*
X16552381Y-29630521D02*
X16247619Y-29935283D01*
D11*
X15956667Y-26418200D02*
X15870000Y-26294391D01*
X15808095Y-26418200D02*
X15808095Y-26158200D01*
X15808095Y-26158200D02*
X15907143Y-26158200D01*
X15907143Y-26158200D02*
X15931905Y-26170581D01*
X15931905Y-26170581D02*
X15944286Y-26182962D01*
X15944286Y-26182962D02*
X15956667Y-26207724D01*
X15956667Y-26207724D02*
X15956667Y-26244867D01*
X15956667Y-26244867D02*
X15944286Y-26269629D01*
X15944286Y-26269629D02*
X15931905Y-26282010D01*
X15931905Y-26282010D02*
X15907143Y-26294391D01*
X15907143Y-26294391D02*
X15808095Y-26294391D01*
X16179524Y-26244867D02*
X16179524Y-26418200D01*
X16117619Y-26145820D02*
X16055714Y-26331534D01*
X16055714Y-26331534D02*
X16216667Y-26331534D01*
D10*
X1642856Y-10863855D02*
X1185713Y-10863855D01*
X1414285Y-10863855D02*
X1414285Y-10063855D01*
X1414285Y-10063855D02*
X1338094Y-10178140D01*
X1338094Y-10178140D02*
X1261904Y-10254331D01*
X1261904Y-10254331D02*
X1185713Y-10292426D01*
X2138095Y-10063855D02*
X2214285Y-10063855D01*
X2214285Y-10063855D02*
X2290476Y-10101950D01*
X2290476Y-10101950D02*
X2328571Y-10140045D01*
X2328571Y-10140045D02*
X2366666Y-10216236D01*
X2366666Y-10216236D02*
X2404761Y-10368617D01*
X2404761Y-10368617D02*
X2404761Y-10559093D01*
X2404761Y-10559093D02*
X2366666Y-10711474D01*
X2366666Y-10711474D02*
X2328571Y-10787664D01*
X2328571Y-10787664D02*
X2290476Y-10825760D01*
X2290476Y-10825760D02*
X2214285Y-10863855D01*
X2214285Y-10863855D02*
X2138095Y-10863855D01*
X2138095Y-10863855D02*
X2061904Y-10825760D01*
X2061904Y-10825760D02*
X2023809Y-10787664D01*
X2023809Y-10787664D02*
X1985714Y-10711474D01*
X1985714Y-10711474D02*
X1947618Y-10559093D01*
X1947618Y-10559093D02*
X1947618Y-10368617D01*
X1947618Y-10368617D02*
X1985714Y-10216236D01*
X1985714Y-10216236D02*
X2023809Y-10140045D01*
X2023809Y-10140045D02*
X2061904Y-10101950D01*
X2061904Y-10101950D02*
X2138095Y-10063855D01*
X3090476Y-10330521D02*
X3090476Y-10863855D01*
X2747619Y-10330521D02*
X2747619Y-10749569D01*
X2747619Y-10749569D02*
X2785714Y-10825760D01*
X2785714Y-10825760D02*
X2861904Y-10863855D01*
X2861904Y-10863855D02*
X2976190Y-10863855D01*
X2976190Y-10863855D02*
X3052381Y-10825760D01*
X3052381Y-10825760D02*
X3090476Y-10787664D01*
X3738095Y-10444807D02*
X3471429Y-10444807D01*
X3471429Y-10863855D02*
X3471429Y-10063855D01*
X3471429Y-10063855D02*
X3852381Y-10063855D01*
D13*
X2178571Y-7179530D02*
X2154762Y-7203340D01*
X2154762Y-7203340D02*
X2083333Y-7227149D01*
X2083333Y-7227149D02*
X2035714Y-7227149D01*
X2035714Y-7227149D02*
X1964286Y-7203340D01*
X1964286Y-7203340D02*
X1916667Y-7155720D01*
X1916667Y-7155720D02*
X1892857Y-7108101D01*
X1892857Y-7108101D02*
X1869048Y-7012863D01*
X1869048Y-7012863D02*
X1869048Y-6941435D01*
X1869048Y-6941435D02*
X1892857Y-6846197D01*
X1892857Y-6846197D02*
X1916667Y-6798578D01*
X1916667Y-6798578D02*
X1964286Y-6750959D01*
X1964286Y-6750959D02*
X2035714Y-6727149D01*
X2035714Y-6727149D02*
X2083333Y-6727149D01*
X2083333Y-6727149D02*
X2154762Y-6750959D01*
X2154762Y-6750959D02*
X2178571Y-6774768D01*
X2654762Y-7227149D02*
X2369048Y-7227149D01*
X2511905Y-7227149D02*
X2511905Y-6727149D01*
X2511905Y-6727149D02*
X2464286Y-6798578D01*
X2464286Y-6798578D02*
X2416667Y-6846197D01*
X2416667Y-6846197D02*
X2369048Y-6870006D01*
X3130952Y-7227149D02*
X2845238Y-7227149D01*
X2988095Y-7227149D02*
X2988095Y-6727149D01*
X2988095Y-6727149D02*
X2940476Y-6798578D01*
X2940476Y-6798578D02*
X2892857Y-6846197D01*
X2892857Y-6846197D02*
X2845238Y-6870006D01*
D10*
X11247618Y-13825760D02*
X11361904Y-13863855D01*
X11361904Y-13863855D02*
X11552380Y-13863855D01*
X11552380Y-13863855D02*
X11628571Y-13825760D01*
X11628571Y-13825760D02*
X11666666Y-13787664D01*
X11666666Y-13787664D02*
X11704761Y-13711474D01*
X11704761Y-13711474D02*
X11704761Y-13635283D01*
X11704761Y-13635283D02*
X11666666Y-13559093D01*
X11666666Y-13559093D02*
X11628571Y-13520998D01*
X11628571Y-13520998D02*
X11552380Y-13482902D01*
X11552380Y-13482902D02*
X11399999Y-13444807D01*
X11399999Y-13444807D02*
X11323809Y-13406712D01*
X11323809Y-13406712D02*
X11285714Y-13368617D01*
X11285714Y-13368617D02*
X11247618Y-13292426D01*
X11247618Y-13292426D02*
X11247618Y-13216236D01*
X11247618Y-13216236D02*
X11285714Y-13140045D01*
X11285714Y-13140045D02*
X11323809Y-13101950D01*
X11323809Y-13101950D02*
X11399999Y-13063855D01*
X11399999Y-13063855D02*
X11590476Y-13063855D01*
X11590476Y-13063855D02*
X11704761Y-13101950D01*
X12047619Y-13863855D02*
X12047619Y-13063855D01*
X12428571Y-13863855D02*
X12428571Y-13063855D01*
X12428571Y-13063855D02*
X12695237Y-13635283D01*
X12695237Y-13635283D02*
X12961904Y-13063855D01*
X12961904Y-13063855D02*
X12961904Y-13863855D01*
X13266666Y-13063855D02*
X13800000Y-13063855D01*
X13800000Y-13063855D02*
X13457142Y-13863855D01*
X14257143Y-13063855D02*
X14333333Y-13063855D01*
X14333333Y-13063855D02*
X14409524Y-13101950D01*
X14409524Y-13101950D02*
X14447619Y-13140045D01*
X14447619Y-13140045D02*
X14485714Y-13216236D01*
X14485714Y-13216236D02*
X14523809Y-13368617D01*
X14523809Y-13368617D02*
X14523809Y-13559093D01*
X14523809Y-13559093D02*
X14485714Y-13711474D01*
X14485714Y-13711474D02*
X14447619Y-13787664D01*
X14447619Y-13787664D02*
X14409524Y-13825760D01*
X14409524Y-13825760D02*
X14333333Y-13863855D01*
X14333333Y-13863855D02*
X14257143Y-13863855D01*
X14257143Y-13863855D02*
X14180952Y-13825760D01*
X14180952Y-13825760D02*
X14142857Y-13787664D01*
X14142857Y-13787664D02*
X14104762Y-13711474D01*
X14104762Y-13711474D02*
X14066666Y-13559093D01*
X14066666Y-13559093D02*
X14066666Y-13368617D01*
X14066666Y-13368617D02*
X14104762Y-13216236D01*
X14104762Y-13216236D02*
X14142857Y-13140045D01*
X14142857Y-13140045D02*
X14180952Y-13101950D01*
X14180952Y-13101950D02*
X14257143Y-13063855D01*
X14980952Y-13406712D02*
X14904762Y-13368617D01*
X14904762Y-13368617D02*
X14866667Y-13330521D01*
X14866667Y-13330521D02*
X14828571Y-13254331D01*
X14828571Y-13254331D02*
X14828571Y-13216236D01*
X14828571Y-13216236D02*
X14866667Y-13140045D01*
X14866667Y-13140045D02*
X14904762Y-13101950D01*
X14904762Y-13101950D02*
X14980952Y-13063855D01*
X14980952Y-13063855D02*
X15133333Y-13063855D01*
X15133333Y-13063855D02*
X15209524Y-13101950D01*
X15209524Y-13101950D02*
X15247619Y-13140045D01*
X15247619Y-13140045D02*
X15285714Y-13216236D01*
X15285714Y-13216236D02*
X15285714Y-13254331D01*
X15285714Y-13254331D02*
X15247619Y-13330521D01*
X15247619Y-13330521D02*
X15209524Y-13368617D01*
X15209524Y-13368617D02*
X15133333Y-13406712D01*
X15133333Y-13406712D02*
X14980952Y-13406712D01*
X14980952Y-13406712D02*
X14904762Y-13444807D01*
X14904762Y-13444807D02*
X14866667Y-13482902D01*
X14866667Y-13482902D02*
X14828571Y-13559093D01*
X14828571Y-13559093D02*
X14828571Y-13711474D01*
X14828571Y-13711474D02*
X14866667Y-13787664D01*
X14866667Y-13787664D02*
X14904762Y-13825760D01*
X14904762Y-13825760D02*
X14980952Y-13863855D01*
X14980952Y-13863855D02*
X15133333Y-13863855D01*
X15133333Y-13863855D02*
X15209524Y-13825760D01*
X15209524Y-13825760D02*
X15247619Y-13787664D01*
X15247619Y-13787664D02*
X15285714Y-13711474D01*
X15285714Y-13711474D02*
X15285714Y-13559093D01*
X15285714Y-13559093D02*
X15247619Y-13482902D01*
X15247619Y-13482902D02*
X15209524Y-13444807D01*
X15209524Y-13444807D02*
X15133333Y-13406712D01*
X15780953Y-13063855D02*
X15857143Y-13063855D01*
X15857143Y-13063855D02*
X15933334Y-13101950D01*
X15933334Y-13101950D02*
X15971429Y-13140045D01*
X15971429Y-13140045D02*
X16009524Y-13216236D01*
X16009524Y-13216236D02*
X16047619Y-13368617D01*
X16047619Y-13368617D02*
X16047619Y-13559093D01*
X16047619Y-13559093D02*
X16009524Y-13711474D01*
X16009524Y-13711474D02*
X15971429Y-13787664D01*
X15971429Y-13787664D02*
X15933334Y-13825760D01*
X15933334Y-13825760D02*
X15857143Y-13863855D01*
X15857143Y-13863855D02*
X15780953Y-13863855D01*
X15780953Y-13863855D02*
X15704762Y-13825760D01*
X15704762Y-13825760D02*
X15666667Y-13787664D01*
X15666667Y-13787664D02*
X15628572Y-13711474D01*
X15628572Y-13711474D02*
X15590476Y-13559093D01*
X15590476Y-13559093D02*
X15590476Y-13368617D01*
X15590476Y-13368617D02*
X15628572Y-13216236D01*
X15628572Y-13216236D02*
X15666667Y-13140045D01*
X15666667Y-13140045D02*
X15704762Y-13101950D01*
X15704762Y-13101950D02*
X15780953Y-13063855D01*
X16809524Y-13101950D02*
X16733334Y-13063855D01*
X16733334Y-13063855D02*
X16619048Y-13063855D01*
X16619048Y-13063855D02*
X16504762Y-13101950D01*
X16504762Y-13101950D02*
X16428572Y-13178140D01*
X16428572Y-13178140D02*
X16390477Y-13254331D01*
X16390477Y-13254331D02*
X16352381Y-13406712D01*
X16352381Y-13406712D02*
X16352381Y-13520998D01*
X16352381Y-13520998D02*
X16390477Y-13673379D01*
X16390477Y-13673379D02*
X16428572Y-13749569D01*
X16428572Y-13749569D02*
X16504762Y-13825760D01*
X16504762Y-13825760D02*
X16619048Y-13863855D01*
X16619048Y-13863855D02*
X16695239Y-13863855D01*
X16695239Y-13863855D02*
X16809524Y-13825760D01*
X16809524Y-13825760D02*
X16847620Y-13787664D01*
X16847620Y-13787664D02*
X16847620Y-13520998D01*
X16847620Y-13520998D02*
X16695239Y-13520998D01*
X17190477Y-13559093D02*
X17800001Y-13559093D01*
X18180953Y-13863855D02*
X18180953Y-13063855D01*
X18180953Y-13063855D02*
X18447619Y-13635283D01*
X18447619Y-13635283D02*
X18714286Y-13063855D01*
X18714286Y-13063855D02*
X18714286Y-13863855D01*
X2961904Y-25363855D02*
X2504761Y-25363855D01*
X2733333Y-25363855D02*
X2733333Y-24563855D01*
X2733333Y-24563855D02*
X2657142Y-24678140D01*
X2657142Y-24678140D02*
X2580952Y-24754331D01*
X2580952Y-24754331D02*
X2504761Y-24792426D01*
X3457143Y-24563855D02*
X3533333Y-24563855D01*
X3533333Y-24563855D02*
X3609524Y-24601950D01*
X3609524Y-24601950D02*
X3647619Y-24640045D01*
X3647619Y-24640045D02*
X3685714Y-24716236D01*
X3685714Y-24716236D02*
X3723809Y-24868617D01*
X3723809Y-24868617D02*
X3723809Y-25059093D01*
X3723809Y-25059093D02*
X3685714Y-25211474D01*
X3685714Y-25211474D02*
X3647619Y-25287664D01*
X3647619Y-25287664D02*
X3609524Y-25325760D01*
X3609524Y-25325760D02*
X3533333Y-25363855D01*
X3533333Y-25363855D02*
X3457143Y-25363855D01*
X3457143Y-25363855D02*
X3380952Y-25325760D01*
X3380952Y-25325760D02*
X3342857Y-25287664D01*
X3342857Y-25287664D02*
X3304762Y-25211474D01*
X3304762Y-25211474D02*
X3266666Y-25059093D01*
X3266666Y-25059093D02*
X3266666Y-24868617D01*
X3266666Y-24868617D02*
X3304762Y-24716236D01*
X3304762Y-24716236D02*
X3342857Y-24640045D01*
X3342857Y-24640045D02*
X3380952Y-24601950D01*
X3380952Y-24601950D02*
X3457143Y-24563855D01*
X4219048Y-24563855D02*
X4295238Y-24563855D01*
X4295238Y-24563855D02*
X4371429Y-24601950D01*
X4371429Y-24601950D02*
X4409524Y-24640045D01*
X4409524Y-24640045D02*
X4447619Y-24716236D01*
X4447619Y-24716236D02*
X4485714Y-24868617D01*
X4485714Y-24868617D02*
X4485714Y-25059093D01*
X4485714Y-25059093D02*
X4447619Y-25211474D01*
X4447619Y-25211474D02*
X4409524Y-25287664D01*
X4409524Y-25287664D02*
X4371429Y-25325760D01*
X4371429Y-25325760D02*
X4295238Y-25363855D01*
X4295238Y-25363855D02*
X4219048Y-25363855D01*
X4219048Y-25363855D02*
X4142857Y-25325760D01*
X4142857Y-25325760D02*
X4104762Y-25287664D01*
X4104762Y-25287664D02*
X4066667Y-25211474D01*
X4066667Y-25211474D02*
X4028571Y-25059093D01*
X4028571Y-25059093D02*
X4028571Y-24868617D01*
X4028571Y-24868617D02*
X4066667Y-24716236D01*
X4066667Y-24716236D02*
X4104762Y-24640045D01*
X4104762Y-24640045D02*
X4142857Y-24601950D01*
X4142857Y-24601950D02*
X4219048Y-24563855D01*
X4828572Y-24830521D02*
X4828572Y-25363855D01*
X4828572Y-24906712D02*
X4866667Y-24868617D01*
X4866667Y-24868617D02*
X4942857Y-24830521D01*
X4942857Y-24830521D02*
X5057143Y-24830521D01*
X5057143Y-24830521D02*
X5133334Y-24868617D01*
X5133334Y-24868617D02*
X5171429Y-24944807D01*
X5171429Y-24944807D02*
X5171429Y-25363855D01*
X5819048Y-24944807D02*
X5552382Y-24944807D01*
X5552382Y-25363855D02*
X5552382Y-24563855D01*
X5552382Y-24563855D02*
X5933334Y-24563855D01*
D11*
X4158333Y-21589765D02*
X4146429Y-21601670D01*
X4146429Y-21601670D02*
X4110714Y-21613574D01*
X4110714Y-21613574D02*
X4086905Y-21613574D01*
X4086905Y-21613574D02*
X4051191Y-21601670D01*
X4051191Y-21601670D02*
X4027381Y-21577860D01*
X4027381Y-21577860D02*
X4015476Y-21554050D01*
X4015476Y-21554050D02*
X4003572Y-21506431D01*
X4003572Y-21506431D02*
X4003572Y-21470717D01*
X4003572Y-21470717D02*
X4015476Y-21423098D01*
X4015476Y-21423098D02*
X4027381Y-21399289D01*
X4027381Y-21399289D02*
X4051191Y-21375479D01*
X4051191Y-21375479D02*
X4086905Y-21363574D01*
X4086905Y-21363574D02*
X4110714Y-21363574D01*
X4110714Y-21363574D02*
X4146429Y-21375479D01*
X4146429Y-21375479D02*
X4158333Y-21387384D01*
X4396429Y-21613574D02*
X4253572Y-21613574D01*
X4325000Y-21613574D02*
X4325000Y-21363574D01*
X4325000Y-21363574D02*
X4301191Y-21399289D01*
X4301191Y-21399289D02*
X4277381Y-21423098D01*
X4277381Y-21423098D02*
X4253572Y-21435003D01*
D10*
X2961904Y-27363855D02*
X2504761Y-27363855D01*
X2733333Y-27363855D02*
X2733333Y-26563855D01*
X2733333Y-26563855D02*
X2657142Y-26678140D01*
X2657142Y-26678140D02*
X2580952Y-26754331D01*
X2580952Y-26754331D02*
X2504761Y-26792426D01*
X3457143Y-26563855D02*
X3533333Y-26563855D01*
X3533333Y-26563855D02*
X3609524Y-26601950D01*
X3609524Y-26601950D02*
X3647619Y-26640045D01*
X3647619Y-26640045D02*
X3685714Y-26716236D01*
X3685714Y-26716236D02*
X3723809Y-26868617D01*
X3723809Y-26868617D02*
X3723809Y-27059093D01*
X3723809Y-27059093D02*
X3685714Y-27211474D01*
X3685714Y-27211474D02*
X3647619Y-27287664D01*
X3647619Y-27287664D02*
X3609524Y-27325760D01*
X3609524Y-27325760D02*
X3533333Y-27363855D01*
X3533333Y-27363855D02*
X3457143Y-27363855D01*
X3457143Y-27363855D02*
X3380952Y-27325760D01*
X3380952Y-27325760D02*
X3342857Y-27287664D01*
X3342857Y-27287664D02*
X3304762Y-27211474D01*
X3304762Y-27211474D02*
X3266666Y-27059093D01*
X3266666Y-27059093D02*
X3266666Y-26868617D01*
X3266666Y-26868617D02*
X3304762Y-26716236D01*
X3304762Y-26716236D02*
X3342857Y-26640045D01*
X3342857Y-26640045D02*
X3380952Y-26601950D01*
X3380952Y-26601950D02*
X3457143Y-26563855D01*
X4219048Y-26563855D02*
X4295238Y-26563855D01*
X4295238Y-26563855D02*
X4371429Y-26601950D01*
X4371429Y-26601950D02*
X4409524Y-26640045D01*
X4409524Y-26640045D02*
X4447619Y-26716236D01*
X4447619Y-26716236D02*
X4485714Y-26868617D01*
X4485714Y-26868617D02*
X4485714Y-27059093D01*
X4485714Y-27059093D02*
X4447619Y-27211474D01*
X4447619Y-27211474D02*
X4409524Y-27287664D01*
X4409524Y-27287664D02*
X4371429Y-27325760D01*
X4371429Y-27325760D02*
X4295238Y-27363855D01*
X4295238Y-27363855D02*
X4219048Y-27363855D01*
X4219048Y-27363855D02*
X4142857Y-27325760D01*
X4142857Y-27325760D02*
X4104762Y-27287664D01*
X4104762Y-27287664D02*
X4066667Y-27211474D01*
X4066667Y-27211474D02*
X4028571Y-27059093D01*
X4028571Y-27059093D02*
X4028571Y-26868617D01*
X4028571Y-26868617D02*
X4066667Y-26716236D01*
X4066667Y-26716236D02*
X4104762Y-26640045D01*
X4104762Y-26640045D02*
X4142857Y-26601950D01*
X4142857Y-26601950D02*
X4219048Y-26563855D01*
X4828572Y-26830521D02*
X4828572Y-27363855D01*
X4828572Y-26906712D02*
X4866667Y-26868617D01*
X4866667Y-26868617D02*
X4942857Y-26830521D01*
X4942857Y-26830521D02*
X5057143Y-26830521D01*
X5057143Y-26830521D02*
X5133334Y-26868617D01*
X5133334Y-26868617D02*
X5171429Y-26944807D01*
X5171429Y-26944807D02*
X5171429Y-27363855D01*
X5819048Y-26944807D02*
X5552382Y-26944807D01*
X5552382Y-27363855D02*
X5552382Y-26563855D01*
X5552382Y-26563855D02*
X5933334Y-26563855D01*
D11*
X4158333Y-23589765D02*
X4146429Y-23601670D01*
X4146429Y-23601670D02*
X4110714Y-23613574D01*
X4110714Y-23613574D02*
X4086905Y-23613574D01*
X4086905Y-23613574D02*
X4051191Y-23601670D01*
X4051191Y-23601670D02*
X4027381Y-23577860D01*
X4027381Y-23577860D02*
X4015476Y-23554050D01*
X4015476Y-23554050D02*
X4003572Y-23506431D01*
X4003572Y-23506431D02*
X4003572Y-23470717D01*
X4003572Y-23470717D02*
X4015476Y-23423098D01*
X4015476Y-23423098D02*
X4027381Y-23399289D01*
X4027381Y-23399289D02*
X4051191Y-23375479D01*
X4051191Y-23375479D02*
X4086905Y-23363574D01*
X4086905Y-23363574D02*
X4110714Y-23363574D01*
X4110714Y-23363574D02*
X4146429Y-23375479D01*
X4146429Y-23375479D02*
X4158333Y-23387384D01*
X4253572Y-23387384D02*
X4265476Y-23375479D01*
X4265476Y-23375479D02*
X4289286Y-23363574D01*
X4289286Y-23363574D02*
X4348810Y-23363574D01*
X4348810Y-23363574D02*
X4372619Y-23375479D01*
X4372619Y-23375479D02*
X4384524Y-23387384D01*
X4384524Y-23387384D02*
X4396429Y-23411193D01*
X4396429Y-23411193D02*
X4396429Y-23435003D01*
X4396429Y-23435003D02*
X4384524Y-23470717D01*
X4384524Y-23470717D02*
X4241667Y-23613574D01*
X4241667Y-23613574D02*
X4396429Y-23613574D01*
D10*
X15485714Y-31363855D02*
X15219047Y-30982902D01*
X15028571Y-31363855D02*
X15028571Y-30563855D01*
X15028571Y-30563855D02*
X15333333Y-30563855D01*
X15333333Y-30563855D02*
X15409523Y-30601950D01*
X15409523Y-30601950D02*
X15447618Y-30640045D01*
X15447618Y-30640045D02*
X15485714Y-30716236D01*
X15485714Y-30716236D02*
X15485714Y-30830521D01*
X15485714Y-30830521D02*
X15447618Y-30906712D01*
X15447618Y-30906712D02*
X15409523Y-30944807D01*
X15409523Y-30944807D02*
X15333333Y-30982902D01*
X15333333Y-30982902D02*
X15028571Y-30982902D01*
X15828571Y-30944807D02*
X16095237Y-30944807D01*
X16209523Y-31363855D02*
X15828571Y-31363855D01*
X15828571Y-31363855D02*
X15828571Y-30563855D01*
X15828571Y-30563855D02*
X16209523Y-30563855D01*
X16552381Y-31363855D02*
X16552381Y-30563855D01*
X16552381Y-30563855D02*
X16742857Y-30563855D01*
X16742857Y-30563855D02*
X16857143Y-30601950D01*
X16857143Y-30601950D02*
X16933333Y-30678140D01*
X16933333Y-30678140D02*
X16971428Y-30754331D01*
X16971428Y-30754331D02*
X17009524Y-30906712D01*
X17009524Y-30906712D02*
X17009524Y-31020998D01*
X17009524Y-31020998D02*
X16971428Y-31173379D01*
X16971428Y-31173379D02*
X16933333Y-31249569D01*
X16933333Y-31249569D02*
X16857143Y-31325760D01*
X16857143Y-31325760D02*
X16742857Y-31363855D01*
X16742857Y-31363855D02*
X16552381Y-31363855D01*
D11*
X15720238Y-27613574D02*
X15601190Y-27613574D01*
X15601190Y-27613574D02*
X15601190Y-27363574D01*
X15803571Y-27482622D02*
X15886905Y-27482622D01*
X15922619Y-27613574D02*
X15803571Y-27613574D01*
X15803571Y-27613574D02*
X15803571Y-27363574D01*
X15803571Y-27363574D02*
X15922619Y-27363574D01*
X16029761Y-27613574D02*
X16029761Y-27363574D01*
X16029761Y-27363574D02*
X16089285Y-27363574D01*
X16089285Y-27363574D02*
X16124999Y-27375479D01*
X16124999Y-27375479D02*
X16148809Y-27399289D01*
X16148809Y-27399289D02*
X16160714Y-27423098D01*
X16160714Y-27423098D02*
X16172618Y-27470717D01*
X16172618Y-27470717D02*
X16172618Y-27506431D01*
X16172618Y-27506431D02*
X16160714Y-27554050D01*
X16160714Y-27554050D02*
X16148809Y-27577860D01*
X16148809Y-27577860D02*
X16124999Y-27601670D01*
X16124999Y-27601670D02*
X16089285Y-27613574D01*
X16089285Y-27613574D02*
X16029761Y-27613574D01*
X16410714Y-27613574D02*
X16267857Y-27613574D01*
X16339285Y-27613574D02*
X16339285Y-27363574D01*
X16339285Y-27363574D02*
X16315476Y-27399289D01*
X16315476Y-27399289D02*
X16291666Y-27423098D01*
X16291666Y-27423098D02*
X16267857Y-27435003D01*
D10*
X24838096Y-16563855D02*
X24838096Y-17211474D01*
X24838096Y-17211474D02*
X24876191Y-17287664D01*
X24876191Y-17287664D02*
X24914286Y-17325760D01*
X24914286Y-17325760D02*
X24990477Y-17363855D01*
X24990477Y-17363855D02*
X25142858Y-17363855D01*
X25142858Y-17363855D02*
X25219048Y-17325760D01*
X25219048Y-17325760D02*
X25257143Y-17287664D01*
X25257143Y-17287664D02*
X25295239Y-17211474D01*
X25295239Y-17211474D02*
X25295239Y-16563855D01*
X25676191Y-17287664D02*
X25714286Y-17325760D01*
X25714286Y-17325760D02*
X25676191Y-17363855D01*
X25676191Y-17363855D02*
X25638095Y-17325760D01*
X25638095Y-17325760D02*
X25676191Y-17287664D01*
X25676191Y-17287664D02*
X25676191Y-17363855D01*
X26323809Y-16944807D02*
X26057143Y-16944807D01*
X26057143Y-17363855D02*
X26057143Y-16563855D01*
X26057143Y-16563855D02*
X26438095Y-16563855D01*
X27123809Y-17363855D02*
X26742857Y-17363855D01*
X26742857Y-17363855D02*
X26742857Y-16563855D01*
X27390476Y-17059093D02*
X28000000Y-17059093D01*
X28799999Y-16601950D02*
X28723809Y-16563855D01*
X28723809Y-16563855D02*
X28609523Y-16563855D01*
X28609523Y-16563855D02*
X28495237Y-16601950D01*
X28495237Y-16601950D02*
X28419047Y-16678140D01*
X28419047Y-16678140D02*
X28380952Y-16754331D01*
X28380952Y-16754331D02*
X28342856Y-16906712D01*
X28342856Y-16906712D02*
X28342856Y-17020998D01*
X28342856Y-17020998D02*
X28380952Y-17173379D01*
X28380952Y-17173379D02*
X28419047Y-17249569D01*
X28419047Y-17249569D02*
X28495237Y-17325760D01*
X28495237Y-17325760D02*
X28609523Y-17363855D01*
X28609523Y-17363855D02*
X28685714Y-17363855D01*
X28685714Y-17363855D02*
X28799999Y-17325760D01*
X28799999Y-17325760D02*
X28838095Y-17287664D01*
X28838095Y-17287664D02*
X28838095Y-17020998D01*
X28838095Y-17020998D02*
X28685714Y-17020998D01*
X29180952Y-17363855D02*
X29180952Y-16563855D01*
X29180952Y-16563855D02*
X29638095Y-17363855D01*
X29638095Y-17363855D02*
X29638095Y-16563855D01*
X29980951Y-17325760D02*
X30095237Y-17363855D01*
X30095237Y-17363855D02*
X30285713Y-17363855D01*
X30285713Y-17363855D02*
X30361904Y-17325760D01*
X30361904Y-17325760D02*
X30399999Y-17287664D01*
X30399999Y-17287664D02*
X30438094Y-17211474D01*
X30438094Y-17211474D02*
X30438094Y-17135283D01*
X30438094Y-17135283D02*
X30399999Y-17059093D01*
X30399999Y-17059093D02*
X30361904Y-17020998D01*
X30361904Y-17020998D02*
X30285713Y-16982902D01*
X30285713Y-16982902D02*
X30133332Y-16944807D01*
X30133332Y-16944807D02*
X30057142Y-16906712D01*
X30057142Y-16906712D02*
X30019047Y-16868617D01*
X30019047Y-16868617D02*
X29980951Y-16792426D01*
X29980951Y-16792426D02*
X29980951Y-16716236D01*
X29980951Y-16716236D02*
X30019047Y-16640045D01*
X30019047Y-16640045D02*
X30057142Y-16601950D01*
X30057142Y-16601950D02*
X30133332Y-16563855D01*
X30133332Y-16563855D02*
X30323809Y-16563855D01*
X30323809Y-16563855D02*
X30438094Y-16601950D01*
X30742856Y-17325760D02*
X30857142Y-17363855D01*
X30857142Y-17363855D02*
X31047618Y-17363855D01*
X31047618Y-17363855D02*
X31123809Y-17325760D01*
X31123809Y-17325760D02*
X31161904Y-17287664D01*
X31161904Y-17287664D02*
X31199999Y-17211474D01*
X31199999Y-17211474D02*
X31199999Y-17135283D01*
X31199999Y-17135283D02*
X31161904Y-17059093D01*
X31161904Y-17059093D02*
X31123809Y-17020998D01*
X31123809Y-17020998D02*
X31047618Y-16982902D01*
X31047618Y-16982902D02*
X30895237Y-16944807D01*
X30895237Y-16944807D02*
X30819047Y-16906712D01*
X30819047Y-16906712D02*
X30780952Y-16868617D01*
X30780952Y-16868617D02*
X30742856Y-16792426D01*
X30742856Y-16792426D02*
X30742856Y-16716236D01*
X30742856Y-16716236D02*
X30780952Y-16640045D01*
X30780952Y-16640045D02*
X30819047Y-16601950D01*
X30819047Y-16601950D02*
X30895237Y-16563855D01*
X30895237Y-16563855D02*
X31085714Y-16563855D01*
X31085714Y-16563855D02*
X31199999Y-16601950D01*
D14*
X28101462Y-14471428D02*
X28101462Y-14185714D01*
X28272891Y-14528571D02*
X27672891Y-14328571D01*
X27672891Y-14328571D02*
X28272891Y-14128571D01*
X28272891Y-13928570D02*
X27672891Y-13928570D01*
X27672891Y-13928570D02*
X28272891Y-13585713D01*
X28272891Y-13585713D02*
X27672891Y-13585713D01*
X27672891Y-13385714D02*
X27672891Y-13042857D01*
X28272891Y-13214285D02*
X27672891Y-13214285D01*
X27730034Y-12871428D02*
X27701462Y-12842856D01*
X27701462Y-12842856D02*
X27672891Y-12785714D01*
X27672891Y-12785714D02*
X27672891Y-12642856D01*
X27672891Y-12642856D02*
X27701462Y-12585714D01*
X27701462Y-12585714D02*
X27730034Y-12557142D01*
X27730034Y-12557142D02*
X27787177Y-12528571D01*
X27787177Y-12528571D02*
X27844320Y-12528571D01*
X27844320Y-12528571D02*
X27930034Y-12557142D01*
X27930034Y-12557142D02*
X28272891Y-12899999D01*
X28272891Y-12899999D02*
X28272891Y-12528571D01*
D10*
X10642856Y-32363855D02*
X10185713Y-32363855D01*
X10414285Y-32363855D02*
X10414285Y-31563855D01*
X10414285Y-31563855D02*
X10338094Y-31678140D01*
X10338094Y-31678140D02*
X10261904Y-31754331D01*
X10261904Y-31754331D02*
X10185713Y-31792426D01*
X11138095Y-31563855D02*
X11214285Y-31563855D01*
X11214285Y-31563855D02*
X11290476Y-31601950D01*
X11290476Y-31601950D02*
X11328571Y-31640045D01*
X11328571Y-31640045D02*
X11366666Y-31716236D01*
X11366666Y-31716236D02*
X11404761Y-31868617D01*
X11404761Y-31868617D02*
X11404761Y-32059093D01*
X11404761Y-32059093D02*
X11366666Y-32211474D01*
X11366666Y-32211474D02*
X11328571Y-32287664D01*
X11328571Y-32287664D02*
X11290476Y-32325760D01*
X11290476Y-32325760D02*
X11214285Y-32363855D01*
X11214285Y-32363855D02*
X11138095Y-32363855D01*
X11138095Y-32363855D02*
X11061904Y-32325760D01*
X11061904Y-32325760D02*
X11023809Y-32287664D01*
X11023809Y-32287664D02*
X10985714Y-32211474D01*
X10985714Y-32211474D02*
X10947618Y-32059093D01*
X10947618Y-32059093D02*
X10947618Y-31868617D01*
X10947618Y-31868617D02*
X10985714Y-31716236D01*
X10985714Y-31716236D02*
X11023809Y-31640045D01*
X11023809Y-31640045D02*
X11061904Y-31601950D01*
X11061904Y-31601950D02*
X11138095Y-31563855D01*
X12090476Y-31830521D02*
X12090476Y-32363855D01*
X11747619Y-31830521D02*
X11747619Y-32249569D01*
X11747619Y-32249569D02*
X11785714Y-32325760D01*
X11785714Y-32325760D02*
X11861904Y-32363855D01*
X11861904Y-32363855D02*
X11976190Y-32363855D01*
X11976190Y-32363855D02*
X12052381Y-32325760D01*
X12052381Y-32325760D02*
X12090476Y-32287664D01*
X12738095Y-31944807D02*
X12471429Y-31944807D01*
X12471429Y-32363855D02*
X12471429Y-31563855D01*
X12471429Y-31563855D02*
X12852381Y-31563855D01*
D13*
X11416666Y-28679530D02*
X11392857Y-28703340D01*
X11392857Y-28703340D02*
X11321428Y-28727149D01*
X11321428Y-28727149D02*
X11273809Y-28727149D01*
X11273809Y-28727149D02*
X11202381Y-28703340D01*
X11202381Y-28703340D02*
X11154762Y-28655720D01*
X11154762Y-28655720D02*
X11130952Y-28608101D01*
X11130952Y-28608101D02*
X11107143Y-28512863D01*
X11107143Y-28512863D02*
X11107143Y-28441435D01*
X11107143Y-28441435D02*
X11130952Y-28346197D01*
X11130952Y-28346197D02*
X11154762Y-28298578D01*
X11154762Y-28298578D02*
X11202381Y-28250959D01*
X11202381Y-28250959D02*
X11273809Y-28227149D01*
X11273809Y-28227149D02*
X11321428Y-28227149D01*
X11321428Y-28227149D02*
X11392857Y-28250959D01*
X11392857Y-28250959D02*
X11416666Y-28274768D01*
X11654762Y-28727149D02*
X11750000Y-28727149D01*
X11750000Y-28727149D02*
X11797619Y-28703340D01*
X11797619Y-28703340D02*
X11821428Y-28679530D01*
X11821428Y-28679530D02*
X11869047Y-28608101D01*
X11869047Y-28608101D02*
X11892857Y-28512863D01*
X11892857Y-28512863D02*
X11892857Y-28322387D01*
X11892857Y-28322387D02*
X11869047Y-28274768D01*
X11869047Y-28274768D02*
X11845238Y-28250959D01*
X11845238Y-28250959D02*
X11797619Y-28227149D01*
X11797619Y-28227149D02*
X11702381Y-28227149D01*
X11702381Y-28227149D02*
X11654762Y-28250959D01*
X11654762Y-28250959D02*
X11630952Y-28274768D01*
X11630952Y-28274768D02*
X11607143Y-28322387D01*
X11607143Y-28322387D02*
X11607143Y-28441435D01*
X11607143Y-28441435D02*
X11630952Y-28489054D01*
X11630952Y-28489054D02*
X11654762Y-28512863D01*
X11654762Y-28512863D02*
X11702381Y-28536673D01*
X11702381Y-28536673D02*
X11797619Y-28536673D01*
X11797619Y-28536673D02*
X11845238Y-28512863D01*
X11845238Y-28512863D02*
X11869047Y-28489054D01*
X11869047Y-28489054D02*
X11892857Y-28441435D01*
D10*
X7261904Y-23663855D02*
X6804761Y-23663855D01*
X7033333Y-23663855D02*
X7033333Y-22863855D01*
X7033333Y-22863855D02*
X6957142Y-22978140D01*
X6957142Y-22978140D02*
X6880952Y-23054331D01*
X6880952Y-23054331D02*
X6804761Y-23092426D01*
X7757143Y-22863855D02*
X7833333Y-22863855D01*
X7833333Y-22863855D02*
X7909524Y-22901950D01*
X7909524Y-22901950D02*
X7947619Y-22940045D01*
X7947619Y-22940045D02*
X7985714Y-23016236D01*
X7985714Y-23016236D02*
X8023809Y-23168617D01*
X8023809Y-23168617D02*
X8023809Y-23359093D01*
X8023809Y-23359093D02*
X7985714Y-23511474D01*
X7985714Y-23511474D02*
X7947619Y-23587664D01*
X7947619Y-23587664D02*
X7909524Y-23625760D01*
X7909524Y-23625760D02*
X7833333Y-23663855D01*
X7833333Y-23663855D02*
X7757143Y-23663855D01*
X7757143Y-23663855D02*
X7680952Y-23625760D01*
X7680952Y-23625760D02*
X7642857Y-23587664D01*
X7642857Y-23587664D02*
X7604762Y-23511474D01*
X7604762Y-23511474D02*
X7566666Y-23359093D01*
X7566666Y-23359093D02*
X7566666Y-23168617D01*
X7566666Y-23168617D02*
X7604762Y-23016236D01*
X7604762Y-23016236D02*
X7642857Y-22940045D01*
X7642857Y-22940045D02*
X7680952Y-22901950D01*
X7680952Y-22901950D02*
X7757143Y-22863855D01*
X8519048Y-22863855D02*
X8595238Y-22863855D01*
X8595238Y-22863855D02*
X8671429Y-22901950D01*
X8671429Y-22901950D02*
X8709524Y-22940045D01*
X8709524Y-22940045D02*
X8747619Y-23016236D01*
X8747619Y-23016236D02*
X8785714Y-23168617D01*
X8785714Y-23168617D02*
X8785714Y-23359093D01*
X8785714Y-23359093D02*
X8747619Y-23511474D01*
X8747619Y-23511474D02*
X8709524Y-23587664D01*
X8709524Y-23587664D02*
X8671429Y-23625760D01*
X8671429Y-23625760D02*
X8595238Y-23663855D01*
X8595238Y-23663855D02*
X8519048Y-23663855D01*
X8519048Y-23663855D02*
X8442857Y-23625760D01*
X8442857Y-23625760D02*
X8404762Y-23587664D01*
X8404762Y-23587664D02*
X8366667Y-23511474D01*
X8366667Y-23511474D02*
X8328571Y-23359093D01*
X8328571Y-23359093D02*
X8328571Y-23168617D01*
X8328571Y-23168617D02*
X8366667Y-23016236D01*
X8366667Y-23016236D02*
X8404762Y-22940045D01*
X8404762Y-22940045D02*
X8442857Y-22901950D01*
X8442857Y-22901950D02*
X8519048Y-22863855D01*
X9128572Y-23130521D02*
X9128572Y-23663855D01*
X9128572Y-23206712D02*
X9166667Y-23168617D01*
X9166667Y-23168617D02*
X9242857Y-23130521D01*
X9242857Y-23130521D02*
X9357143Y-23130521D01*
X9357143Y-23130521D02*
X9433334Y-23168617D01*
X9433334Y-23168617D02*
X9471429Y-23244807D01*
X9471429Y-23244807D02*
X9471429Y-23663855D01*
X10119048Y-23244807D02*
X9852382Y-23244807D01*
X9852382Y-23663855D02*
X9852382Y-22863855D01*
X9852382Y-22863855D02*
X10233334Y-22863855D01*
D11*
X8458333Y-19889765D02*
X8446429Y-19901670D01*
X8446429Y-19901670D02*
X8410714Y-19913574D01*
X8410714Y-19913574D02*
X8386905Y-19913574D01*
X8386905Y-19913574D02*
X8351191Y-19901670D01*
X8351191Y-19901670D02*
X8327381Y-19877860D01*
X8327381Y-19877860D02*
X8315476Y-19854050D01*
X8315476Y-19854050D02*
X8303572Y-19806431D01*
X8303572Y-19806431D02*
X8303572Y-19770717D01*
X8303572Y-19770717D02*
X8315476Y-19723098D01*
X8315476Y-19723098D02*
X8327381Y-19699289D01*
X8327381Y-19699289D02*
X8351191Y-19675479D01*
X8351191Y-19675479D02*
X8386905Y-19663574D01*
X8386905Y-19663574D02*
X8410714Y-19663574D01*
X8410714Y-19663574D02*
X8446429Y-19675479D01*
X8446429Y-19675479D02*
X8458333Y-19687384D01*
X8684524Y-19663574D02*
X8565476Y-19663574D01*
X8565476Y-19663574D02*
X8553572Y-19782622D01*
X8553572Y-19782622D02*
X8565476Y-19770717D01*
X8565476Y-19770717D02*
X8589286Y-19758812D01*
X8589286Y-19758812D02*
X8648810Y-19758812D01*
X8648810Y-19758812D02*
X8672619Y-19770717D01*
X8672619Y-19770717D02*
X8684524Y-19782622D01*
X8684524Y-19782622D02*
X8696429Y-19806431D01*
X8696429Y-19806431D02*
X8696429Y-19865955D01*
X8696429Y-19865955D02*
X8684524Y-19889765D01*
X8684524Y-19889765D02*
X8672619Y-19901670D01*
X8672619Y-19901670D02*
X8648810Y-19913574D01*
X8648810Y-19913574D02*
X8589286Y-19913574D01*
X8589286Y-19913574D02*
X8565476Y-19901670D01*
X8565476Y-19901670D02*
X8553572Y-19889765D01*
D10*
X13261904Y-25863855D02*
X12804761Y-25863855D01*
X13033333Y-25863855D02*
X13033333Y-25063855D01*
X13033333Y-25063855D02*
X12957142Y-25178140D01*
X12957142Y-25178140D02*
X12880952Y-25254331D01*
X12880952Y-25254331D02*
X12804761Y-25292426D01*
X13757143Y-25063855D02*
X13833333Y-25063855D01*
X13833333Y-25063855D02*
X13909524Y-25101950D01*
X13909524Y-25101950D02*
X13947619Y-25140045D01*
X13947619Y-25140045D02*
X13985714Y-25216236D01*
X13985714Y-25216236D02*
X14023809Y-25368617D01*
X14023809Y-25368617D02*
X14023809Y-25559093D01*
X14023809Y-25559093D02*
X13985714Y-25711474D01*
X13985714Y-25711474D02*
X13947619Y-25787664D01*
X13947619Y-25787664D02*
X13909524Y-25825760D01*
X13909524Y-25825760D02*
X13833333Y-25863855D01*
X13833333Y-25863855D02*
X13757143Y-25863855D01*
X13757143Y-25863855D02*
X13680952Y-25825760D01*
X13680952Y-25825760D02*
X13642857Y-25787664D01*
X13642857Y-25787664D02*
X13604762Y-25711474D01*
X13604762Y-25711474D02*
X13566666Y-25559093D01*
X13566666Y-25559093D02*
X13566666Y-25368617D01*
X13566666Y-25368617D02*
X13604762Y-25216236D01*
X13604762Y-25216236D02*
X13642857Y-25140045D01*
X13642857Y-25140045D02*
X13680952Y-25101950D01*
X13680952Y-25101950D02*
X13757143Y-25063855D01*
X14519048Y-25063855D02*
X14595238Y-25063855D01*
X14595238Y-25063855D02*
X14671429Y-25101950D01*
X14671429Y-25101950D02*
X14709524Y-25140045D01*
X14709524Y-25140045D02*
X14747619Y-25216236D01*
X14747619Y-25216236D02*
X14785714Y-25368617D01*
X14785714Y-25368617D02*
X14785714Y-25559093D01*
X14785714Y-25559093D02*
X14747619Y-25711474D01*
X14747619Y-25711474D02*
X14709524Y-25787664D01*
X14709524Y-25787664D02*
X14671429Y-25825760D01*
X14671429Y-25825760D02*
X14595238Y-25863855D01*
X14595238Y-25863855D02*
X14519048Y-25863855D01*
X14519048Y-25863855D02*
X14442857Y-25825760D01*
X14442857Y-25825760D02*
X14404762Y-25787664D01*
X14404762Y-25787664D02*
X14366667Y-25711474D01*
X14366667Y-25711474D02*
X14328571Y-25559093D01*
X14328571Y-25559093D02*
X14328571Y-25368617D01*
X14328571Y-25368617D02*
X14366667Y-25216236D01*
X14366667Y-25216236D02*
X14404762Y-25140045D01*
X14404762Y-25140045D02*
X14442857Y-25101950D01*
X14442857Y-25101950D02*
X14519048Y-25063855D01*
X15128572Y-25330521D02*
X15128572Y-25863855D01*
X15128572Y-25406712D02*
X15166667Y-25368617D01*
X15166667Y-25368617D02*
X15242857Y-25330521D01*
X15242857Y-25330521D02*
X15357143Y-25330521D01*
X15357143Y-25330521D02*
X15433334Y-25368617D01*
X15433334Y-25368617D02*
X15471429Y-25444807D01*
X15471429Y-25444807D02*
X15471429Y-25863855D01*
X16119048Y-25444807D02*
X15852382Y-25444807D01*
X15852382Y-25863855D02*
X15852382Y-25063855D01*
X15852382Y-25063855D02*
X16233334Y-25063855D01*
D11*
X14458333Y-22089765D02*
X14446429Y-22101670D01*
X14446429Y-22101670D02*
X14410714Y-22113574D01*
X14410714Y-22113574D02*
X14386905Y-22113574D01*
X14386905Y-22113574D02*
X14351191Y-22101670D01*
X14351191Y-22101670D02*
X14327381Y-22077860D01*
X14327381Y-22077860D02*
X14315476Y-22054050D01*
X14315476Y-22054050D02*
X14303572Y-22006431D01*
X14303572Y-22006431D02*
X14303572Y-21970717D01*
X14303572Y-21970717D02*
X14315476Y-21923098D01*
X14315476Y-21923098D02*
X14327381Y-21899289D01*
X14327381Y-21899289D02*
X14351191Y-21875479D01*
X14351191Y-21875479D02*
X14386905Y-21863574D01*
X14386905Y-21863574D02*
X14410714Y-21863574D01*
X14410714Y-21863574D02*
X14446429Y-21875479D01*
X14446429Y-21875479D02*
X14458333Y-21887384D01*
X14601191Y-21970717D02*
X14577381Y-21958812D01*
X14577381Y-21958812D02*
X14565476Y-21946908D01*
X14565476Y-21946908D02*
X14553572Y-21923098D01*
X14553572Y-21923098D02*
X14553572Y-21911193D01*
X14553572Y-21911193D02*
X14565476Y-21887384D01*
X14565476Y-21887384D02*
X14577381Y-21875479D01*
X14577381Y-21875479D02*
X14601191Y-21863574D01*
X14601191Y-21863574D02*
X14648810Y-21863574D01*
X14648810Y-21863574D02*
X14672619Y-21875479D01*
X14672619Y-21875479D02*
X14684524Y-21887384D01*
X14684524Y-21887384D02*
X14696429Y-21911193D01*
X14696429Y-21911193D02*
X14696429Y-21923098D01*
X14696429Y-21923098D02*
X14684524Y-21946908D01*
X14684524Y-21946908D02*
X14672619Y-21958812D01*
X14672619Y-21958812D02*
X14648810Y-21970717D01*
X14648810Y-21970717D02*
X14601191Y-21970717D01*
X14601191Y-21970717D02*
X14577381Y-21982622D01*
X14577381Y-21982622D02*
X14565476Y-21994527D01*
X14565476Y-21994527D02*
X14553572Y-22018336D01*
X14553572Y-22018336D02*
X14553572Y-22065955D01*
X14553572Y-22065955D02*
X14565476Y-22089765D01*
X14565476Y-22089765D02*
X14577381Y-22101670D01*
X14577381Y-22101670D02*
X14601191Y-22113574D01*
X14601191Y-22113574D02*
X14648810Y-22113574D01*
X14648810Y-22113574D02*
X14672619Y-22101670D01*
X14672619Y-22101670D02*
X14684524Y-22089765D01*
X14684524Y-22089765D02*
X14696429Y-22065955D01*
X14696429Y-22065955D02*
X14696429Y-22018336D01*
X14696429Y-22018336D02*
X14684524Y-21994527D01*
X14684524Y-21994527D02*
X14672619Y-21982622D01*
X14672619Y-21982622D02*
X14648810Y-21970717D01*
D10*
X22014284Y-25063855D02*
X22547618Y-25863855D01*
X22547618Y-25063855D02*
X22014284Y-25863855D01*
X23309523Y-25787664D02*
X23271427Y-25825760D01*
X23271427Y-25825760D02*
X23157142Y-25863855D01*
X23157142Y-25863855D02*
X23080951Y-25863855D01*
X23080951Y-25863855D02*
X22966665Y-25825760D01*
X22966665Y-25825760D02*
X22890475Y-25749569D01*
X22890475Y-25749569D02*
X22852380Y-25673379D01*
X22852380Y-25673379D02*
X22814284Y-25520998D01*
X22814284Y-25520998D02*
X22814284Y-25406712D01*
X22814284Y-25406712D02*
X22852380Y-25254331D01*
X22852380Y-25254331D02*
X22890475Y-25178140D01*
X22890475Y-25178140D02*
X22966665Y-25101950D01*
X22966665Y-25101950D02*
X23080951Y-25063855D01*
X23080951Y-25063855D02*
X23157142Y-25063855D01*
X23157142Y-25063855D02*
X23271427Y-25101950D01*
X23271427Y-25101950D02*
X23309523Y-25140045D01*
X23995237Y-25063855D02*
X23842856Y-25063855D01*
X23842856Y-25063855D02*
X23766665Y-25101950D01*
X23766665Y-25101950D02*
X23728570Y-25140045D01*
X23728570Y-25140045D02*
X23652380Y-25254331D01*
X23652380Y-25254331D02*
X23614284Y-25406712D01*
X23614284Y-25406712D02*
X23614284Y-25711474D01*
X23614284Y-25711474D02*
X23652380Y-25787664D01*
X23652380Y-25787664D02*
X23690475Y-25825760D01*
X23690475Y-25825760D02*
X23766665Y-25863855D01*
X23766665Y-25863855D02*
X23919046Y-25863855D01*
X23919046Y-25863855D02*
X23995237Y-25825760D01*
X23995237Y-25825760D02*
X24033332Y-25787664D01*
X24033332Y-25787664D02*
X24071427Y-25711474D01*
X24071427Y-25711474D02*
X24071427Y-25520998D01*
X24071427Y-25520998D02*
X24033332Y-25444807D01*
X24033332Y-25444807D02*
X23995237Y-25406712D01*
X23995237Y-25406712D02*
X23919046Y-25368617D01*
X23919046Y-25368617D02*
X23766665Y-25368617D01*
X23766665Y-25368617D02*
X23690475Y-25406712D01*
X23690475Y-25406712D02*
X23652380Y-25444807D01*
X23652380Y-25444807D02*
X23614284Y-25520998D01*
X24376189Y-25140045D02*
X24414285Y-25101950D01*
X24414285Y-25101950D02*
X24490475Y-25063855D01*
X24490475Y-25063855D02*
X24680951Y-25063855D01*
X24680951Y-25063855D02*
X24757142Y-25101950D01*
X24757142Y-25101950D02*
X24795237Y-25140045D01*
X24795237Y-25140045D02*
X24833332Y-25216236D01*
X24833332Y-25216236D02*
X24833332Y-25292426D01*
X24833332Y-25292426D02*
X24795237Y-25406712D01*
X24795237Y-25406712D02*
X24338094Y-25863855D01*
X24338094Y-25863855D02*
X24833332Y-25863855D01*
X25138094Y-25140045D02*
X25176190Y-25101950D01*
X25176190Y-25101950D02*
X25252380Y-25063855D01*
X25252380Y-25063855D02*
X25442856Y-25063855D01*
X25442856Y-25063855D02*
X25519047Y-25101950D01*
X25519047Y-25101950D02*
X25557142Y-25140045D01*
X25557142Y-25140045D02*
X25595237Y-25216236D01*
X25595237Y-25216236D02*
X25595237Y-25292426D01*
X25595237Y-25292426D02*
X25557142Y-25406712D01*
X25557142Y-25406712D02*
X25099999Y-25863855D01*
X25099999Y-25863855D02*
X25595237Y-25863855D01*
X26090476Y-25063855D02*
X26166666Y-25063855D01*
X26166666Y-25063855D02*
X26242857Y-25101950D01*
X26242857Y-25101950D02*
X26280952Y-25140045D01*
X26280952Y-25140045D02*
X26319047Y-25216236D01*
X26319047Y-25216236D02*
X26357142Y-25368617D01*
X26357142Y-25368617D02*
X26357142Y-25559093D01*
X26357142Y-25559093D02*
X26319047Y-25711474D01*
X26319047Y-25711474D02*
X26280952Y-25787664D01*
X26280952Y-25787664D02*
X26242857Y-25825760D01*
X26242857Y-25825760D02*
X26166666Y-25863855D01*
X26166666Y-25863855D02*
X26090476Y-25863855D01*
X26090476Y-25863855D02*
X26014285Y-25825760D01*
X26014285Y-25825760D02*
X25976190Y-25787664D01*
X25976190Y-25787664D02*
X25938095Y-25711474D01*
X25938095Y-25711474D02*
X25899999Y-25559093D01*
X25899999Y-25559093D02*
X25899999Y-25368617D01*
X25899999Y-25368617D02*
X25938095Y-25216236D01*
X25938095Y-25216236D02*
X25976190Y-25140045D01*
X25976190Y-25140045D02*
X26014285Y-25101950D01*
X26014285Y-25101950D02*
X26090476Y-25063855D01*
X26966666Y-25444807D02*
X27080952Y-25482902D01*
X27080952Y-25482902D02*
X27119047Y-25520998D01*
X27119047Y-25520998D02*
X27157143Y-25597188D01*
X27157143Y-25597188D02*
X27157143Y-25711474D01*
X27157143Y-25711474D02*
X27119047Y-25787664D01*
X27119047Y-25787664D02*
X27080952Y-25825760D01*
X27080952Y-25825760D02*
X27004762Y-25863855D01*
X27004762Y-25863855D02*
X26700000Y-25863855D01*
X26700000Y-25863855D02*
X26700000Y-25063855D01*
X26700000Y-25063855D02*
X26966666Y-25063855D01*
X26966666Y-25063855D02*
X27042857Y-25101950D01*
X27042857Y-25101950D02*
X27080952Y-25140045D01*
X27080952Y-25140045D02*
X27119047Y-25216236D01*
X27119047Y-25216236D02*
X27119047Y-25292426D01*
X27119047Y-25292426D02*
X27080952Y-25368617D01*
X27080952Y-25368617D02*
X27042857Y-25406712D01*
X27042857Y-25406712D02*
X26966666Y-25444807D01*
X26966666Y-25444807D02*
X26700000Y-25444807D01*
X27423809Y-25063855D02*
X27919047Y-25063855D01*
X27919047Y-25063855D02*
X27652381Y-25368617D01*
X27652381Y-25368617D02*
X27766666Y-25368617D01*
X27766666Y-25368617D02*
X27842857Y-25406712D01*
X27842857Y-25406712D02*
X27880952Y-25444807D01*
X27880952Y-25444807D02*
X27919047Y-25520998D01*
X27919047Y-25520998D02*
X27919047Y-25711474D01*
X27919047Y-25711474D02*
X27880952Y-25787664D01*
X27880952Y-25787664D02*
X27842857Y-25825760D01*
X27842857Y-25825760D02*
X27766666Y-25863855D01*
X27766666Y-25863855D02*
X27538095Y-25863855D01*
X27538095Y-25863855D02*
X27461904Y-25825760D01*
X27461904Y-25825760D02*
X27423809Y-25787664D01*
X28185714Y-25063855D02*
X28680952Y-25063855D01*
X28680952Y-25063855D02*
X28414286Y-25368617D01*
X28414286Y-25368617D02*
X28528571Y-25368617D01*
X28528571Y-25368617D02*
X28604762Y-25406712D01*
X28604762Y-25406712D02*
X28642857Y-25444807D01*
X28642857Y-25444807D02*
X28680952Y-25520998D01*
X28680952Y-25520998D02*
X28680952Y-25711474D01*
X28680952Y-25711474D02*
X28642857Y-25787664D01*
X28642857Y-25787664D02*
X28604762Y-25825760D01*
X28604762Y-25825760D02*
X28528571Y-25863855D01*
X28528571Y-25863855D02*
X28300000Y-25863855D01*
X28300000Y-25863855D02*
X28223809Y-25825760D01*
X28223809Y-25825760D02*
X28185714Y-25787664D01*
X29442857Y-25863855D02*
X28985714Y-25863855D01*
X29214286Y-25863855D02*
X29214286Y-25063855D01*
X29214286Y-25063855D02*
X29138095Y-25178140D01*
X29138095Y-25178140D02*
X29061905Y-25254331D01*
X29061905Y-25254331D02*
X28985714Y-25292426D01*
X29785715Y-25863855D02*
X29785715Y-25063855D01*
X29785715Y-25063855D02*
X30052381Y-25635283D01*
X30052381Y-25635283D02*
X30319048Y-25063855D01*
X30319048Y-25063855D02*
X30319048Y-25863855D01*
X31157144Y-25863855D02*
X30890477Y-25482902D01*
X30700001Y-25863855D02*
X30700001Y-25063855D01*
X30700001Y-25063855D02*
X31004763Y-25063855D01*
X31004763Y-25063855D02*
X31080953Y-25101950D01*
X31080953Y-25101950D02*
X31119048Y-25140045D01*
X31119048Y-25140045D02*
X31157144Y-25216236D01*
X31157144Y-25216236D02*
X31157144Y-25330521D01*
X31157144Y-25330521D02*
X31119048Y-25406712D01*
X31119048Y-25406712D02*
X31080953Y-25444807D01*
X31080953Y-25444807D02*
X31004763Y-25482902D01*
X31004763Y-25482902D02*
X30700001Y-25482902D01*
X31500001Y-25559093D02*
X32109525Y-25559093D01*
X32909524Y-25101950D02*
X32833334Y-25063855D01*
X32833334Y-25063855D02*
X32719048Y-25063855D01*
X32719048Y-25063855D02*
X32604762Y-25101950D01*
X32604762Y-25101950D02*
X32528572Y-25178140D01*
X32528572Y-25178140D02*
X32490477Y-25254331D01*
X32490477Y-25254331D02*
X32452381Y-25406712D01*
X32452381Y-25406712D02*
X32452381Y-25520998D01*
X32452381Y-25520998D02*
X32490477Y-25673379D01*
X32490477Y-25673379D02*
X32528572Y-25749569D01*
X32528572Y-25749569D02*
X32604762Y-25825760D01*
X32604762Y-25825760D02*
X32719048Y-25863855D01*
X32719048Y-25863855D02*
X32795239Y-25863855D01*
X32795239Y-25863855D02*
X32909524Y-25825760D01*
X32909524Y-25825760D02*
X32947620Y-25787664D01*
X32947620Y-25787664D02*
X32947620Y-25520998D01*
X32947620Y-25520998D02*
X32795239Y-25520998D01*
D15*
X27107365Y-22548571D02*
X27690222Y-22548571D01*
X27690222Y-22548571D02*
X27758794Y-22514285D01*
X27758794Y-22514285D02*
X27793080Y-22480000D01*
X27793080Y-22480000D02*
X27827365Y-22411428D01*
X27827365Y-22411428D02*
X27827365Y-22274285D01*
X27827365Y-22274285D02*
X27793080Y-22205714D01*
X27793080Y-22205714D02*
X27758794Y-22171428D01*
X27758794Y-22171428D02*
X27690222Y-22137142D01*
X27690222Y-22137142D02*
X27107365Y-22137142D01*
X27107365Y-21451428D02*
X27107365Y-21794285D01*
X27107365Y-21794285D02*
X27450222Y-21828571D01*
X27450222Y-21828571D02*
X27415937Y-21794285D01*
X27415937Y-21794285D02*
X27381651Y-21725714D01*
X27381651Y-21725714D02*
X27381651Y-21554285D01*
X27381651Y-21554285D02*
X27415937Y-21485714D01*
X27415937Y-21485714D02*
X27450222Y-21451428D01*
X27450222Y-21451428D02*
X27518794Y-21417142D01*
X27518794Y-21417142D02*
X27690222Y-21417142D01*
X27690222Y-21417142D02*
X27758794Y-21451428D01*
X27758794Y-21451428D02*
X27793080Y-21485714D01*
X27793080Y-21485714D02*
X27827365Y-21554285D01*
X27827365Y-21554285D02*
X27827365Y-21725714D01*
X27827365Y-21725714D02*
X27793080Y-21794285D01*
X27793080Y-21794285D02*
X27758794Y-21828571D01*
D10*
X5509523Y-26944807D02*
X5776189Y-26944807D01*
X5890475Y-27363855D02*
X5509523Y-27363855D01*
X5509523Y-27363855D02*
X5509523Y-26563855D01*
X5509523Y-26563855D02*
X5890475Y-26563855D01*
X6195237Y-27325760D02*
X6309523Y-27363855D01*
X6309523Y-27363855D02*
X6499999Y-27363855D01*
X6499999Y-27363855D02*
X6576190Y-27325760D01*
X6576190Y-27325760D02*
X6614285Y-27287664D01*
X6614285Y-27287664D02*
X6652380Y-27211474D01*
X6652380Y-27211474D02*
X6652380Y-27135283D01*
X6652380Y-27135283D02*
X6614285Y-27059093D01*
X6614285Y-27059093D02*
X6576190Y-27020998D01*
X6576190Y-27020998D02*
X6499999Y-26982902D01*
X6499999Y-26982902D02*
X6347618Y-26944807D01*
X6347618Y-26944807D02*
X6271428Y-26906712D01*
X6271428Y-26906712D02*
X6233333Y-26868617D01*
X6233333Y-26868617D02*
X6195237Y-26792426D01*
X6195237Y-26792426D02*
X6195237Y-26716236D01*
X6195237Y-26716236D02*
X6233333Y-26640045D01*
X6233333Y-26640045D02*
X6271428Y-26601950D01*
X6271428Y-26601950D02*
X6347618Y-26563855D01*
X6347618Y-26563855D02*
X6538095Y-26563855D01*
X6538095Y-26563855D02*
X6652380Y-26601950D01*
X6995238Y-27363855D02*
X6995238Y-26563855D01*
X6995238Y-26563855D02*
X7300000Y-26563855D01*
X7300000Y-26563855D02*
X7376190Y-26601950D01*
X7376190Y-26601950D02*
X7414285Y-26640045D01*
X7414285Y-26640045D02*
X7452381Y-26716236D01*
X7452381Y-26716236D02*
X7452381Y-26830521D01*
X7452381Y-26830521D02*
X7414285Y-26906712D01*
X7414285Y-26906712D02*
X7376190Y-26944807D01*
X7376190Y-26944807D02*
X7300000Y-26982902D01*
X7300000Y-26982902D02*
X6995238Y-26982902D01*
X7719047Y-26563855D02*
X8214285Y-26563855D01*
X8214285Y-26563855D02*
X7947619Y-26868617D01*
X7947619Y-26868617D02*
X8061904Y-26868617D01*
X8061904Y-26868617D02*
X8138095Y-26906712D01*
X8138095Y-26906712D02*
X8176190Y-26944807D01*
X8176190Y-26944807D02*
X8214285Y-27020998D01*
X8214285Y-27020998D02*
X8214285Y-27211474D01*
X8214285Y-27211474D02*
X8176190Y-27287664D01*
X8176190Y-27287664D02*
X8138095Y-27325760D01*
X8138095Y-27325760D02*
X8061904Y-27363855D01*
X8061904Y-27363855D02*
X7833333Y-27363855D01*
X7833333Y-27363855D02*
X7757142Y-27325760D01*
X7757142Y-27325760D02*
X7719047Y-27287664D01*
X8519047Y-26640045D02*
X8557143Y-26601950D01*
X8557143Y-26601950D02*
X8633333Y-26563855D01*
X8633333Y-26563855D02*
X8823809Y-26563855D01*
X8823809Y-26563855D02*
X8900000Y-26601950D01*
X8900000Y-26601950D02*
X8938095Y-26640045D01*
X8938095Y-26640045D02*
X8976190Y-26716236D01*
X8976190Y-26716236D02*
X8976190Y-26792426D01*
X8976190Y-26792426D02*
X8938095Y-26906712D01*
X8938095Y-26906712D02*
X8480952Y-27363855D01*
X8480952Y-27363855D02*
X8976190Y-27363855D01*
X9319048Y-27059093D02*
X9928572Y-27059093D01*
X10766667Y-27287664D02*
X10728571Y-27325760D01*
X10728571Y-27325760D02*
X10614286Y-27363855D01*
X10614286Y-27363855D02*
X10538095Y-27363855D01*
X10538095Y-27363855D02*
X10423809Y-27325760D01*
X10423809Y-27325760D02*
X10347619Y-27249569D01*
X10347619Y-27249569D02*
X10309524Y-27173379D01*
X10309524Y-27173379D02*
X10271428Y-27020998D01*
X10271428Y-27020998D02*
X10271428Y-26906712D01*
X10271428Y-26906712D02*
X10309524Y-26754331D01*
X10309524Y-26754331D02*
X10347619Y-26678140D01*
X10347619Y-26678140D02*
X10423809Y-26601950D01*
X10423809Y-26601950D02*
X10538095Y-26563855D01*
X10538095Y-26563855D02*
X10614286Y-26563855D01*
X10614286Y-26563855D02*
X10728571Y-26601950D01*
X10728571Y-26601950D02*
X10766667Y-26640045D01*
X11033333Y-26563855D02*
X11528571Y-26563855D01*
X11528571Y-26563855D02*
X11261905Y-26868617D01*
X11261905Y-26868617D02*
X11376190Y-26868617D01*
X11376190Y-26868617D02*
X11452381Y-26906712D01*
X11452381Y-26906712D02*
X11490476Y-26944807D01*
X11490476Y-26944807D02*
X11528571Y-27020998D01*
X11528571Y-27020998D02*
X11528571Y-27211474D01*
X11528571Y-27211474D02*
X11490476Y-27287664D01*
X11490476Y-27287664D02*
X11452381Y-27325760D01*
X11452381Y-27325760D02*
X11376190Y-27363855D01*
X11376190Y-27363855D02*
X11147619Y-27363855D01*
X11147619Y-27363855D02*
X11071428Y-27325760D01*
X11071428Y-27325760D02*
X11033333Y-27287664D01*
D12*
X7738095Y-22954819D02*
X7738095Y-23764342D01*
X7738095Y-23764342D02*
X7785714Y-23859580D01*
X7785714Y-23859580D02*
X7833333Y-23907200D01*
X7833333Y-23907200D02*
X7928571Y-23954819D01*
X7928571Y-23954819D02*
X8119047Y-23954819D01*
X8119047Y-23954819D02*
X8214285Y-23907200D01*
X8214285Y-23907200D02*
X8261904Y-23859580D01*
X8261904Y-23859580D02*
X8309523Y-23764342D01*
X8309523Y-23764342D02*
X8309523Y-22954819D01*
X8738095Y-23050057D02*
X8785714Y-23002438D01*
X8785714Y-23002438D02*
X8880952Y-22954819D01*
X8880952Y-22954819D02*
X9119047Y-22954819D01*
X9119047Y-22954819D02*
X9214285Y-23002438D01*
X9214285Y-23002438D02*
X9261904Y-23050057D01*
X9261904Y-23050057D02*
X9309523Y-23145295D01*
X9309523Y-23145295D02*
X9309523Y-23240533D01*
X9309523Y-23240533D02*
X9261904Y-23383390D01*
X9261904Y-23383390D02*
X8690476Y-23954819D01*
X8690476Y-23954819D02*
X9309523Y-23954819D01*
D10*
X26642856Y-28863855D02*
X26185713Y-28863855D01*
X26414285Y-28863855D02*
X26414285Y-28063855D01*
X26414285Y-28063855D02*
X26338094Y-28178140D01*
X26338094Y-28178140D02*
X26261904Y-28254331D01*
X26261904Y-28254331D02*
X26185713Y-28292426D01*
X27138095Y-28063855D02*
X27214285Y-28063855D01*
X27214285Y-28063855D02*
X27290476Y-28101950D01*
X27290476Y-28101950D02*
X27328571Y-28140045D01*
X27328571Y-28140045D02*
X27366666Y-28216236D01*
X27366666Y-28216236D02*
X27404761Y-28368617D01*
X27404761Y-28368617D02*
X27404761Y-28559093D01*
X27404761Y-28559093D02*
X27366666Y-28711474D01*
X27366666Y-28711474D02*
X27328571Y-28787664D01*
X27328571Y-28787664D02*
X27290476Y-28825760D01*
X27290476Y-28825760D02*
X27214285Y-28863855D01*
X27214285Y-28863855D02*
X27138095Y-28863855D01*
X27138095Y-28863855D02*
X27061904Y-28825760D01*
X27061904Y-28825760D02*
X27023809Y-28787664D01*
X27023809Y-28787664D02*
X26985714Y-28711474D01*
X26985714Y-28711474D02*
X26947618Y-28559093D01*
X26947618Y-28559093D02*
X26947618Y-28368617D01*
X26947618Y-28368617D02*
X26985714Y-28216236D01*
X26985714Y-28216236D02*
X27023809Y-28140045D01*
X27023809Y-28140045D02*
X27061904Y-28101950D01*
X27061904Y-28101950D02*
X27138095Y-28063855D01*
X28090476Y-28330521D02*
X28090476Y-28863855D01*
X27747619Y-28330521D02*
X27747619Y-28749569D01*
X27747619Y-28749569D02*
X27785714Y-28825760D01*
X27785714Y-28825760D02*
X27861904Y-28863855D01*
X27861904Y-28863855D02*
X27976190Y-28863855D01*
X27976190Y-28863855D02*
X28052381Y-28825760D01*
X28052381Y-28825760D02*
X28090476Y-28787664D01*
X28738095Y-28444807D02*
X28471429Y-28444807D01*
X28471429Y-28863855D02*
X28471429Y-28063855D01*
X28471429Y-28063855D02*
X28852381Y-28063855D01*
D13*
X27178571Y-25179530D02*
X27154762Y-25203340D01*
X27154762Y-25203340D02*
X27083333Y-25227149D01*
X27083333Y-25227149D02*
X27035714Y-25227149D01*
X27035714Y-25227149D02*
X26964286Y-25203340D01*
X26964286Y-25203340D02*
X26916667Y-25155720D01*
X26916667Y-25155720D02*
X26892857Y-25108101D01*
X26892857Y-25108101D02*
X26869048Y-25012863D01*
X26869048Y-25012863D02*
X26869048Y-24941435D01*
X26869048Y-24941435D02*
X26892857Y-24846197D01*
X26892857Y-24846197D02*
X26916667Y-24798578D01*
X26916667Y-24798578D02*
X26964286Y-24750959D01*
X26964286Y-24750959D02*
X27035714Y-24727149D01*
X27035714Y-24727149D02*
X27083333Y-24727149D01*
X27083333Y-24727149D02*
X27154762Y-24750959D01*
X27154762Y-24750959D02*
X27178571Y-24774768D01*
X27654762Y-25227149D02*
X27369048Y-25227149D01*
X27511905Y-25227149D02*
X27511905Y-24727149D01*
X27511905Y-24727149D02*
X27464286Y-24798578D01*
X27464286Y-24798578D02*
X27416667Y-24846197D01*
X27416667Y-24846197D02*
X27369048Y-24870006D01*
X27964285Y-24727149D02*
X28011904Y-24727149D01*
X28011904Y-24727149D02*
X28059523Y-24750959D01*
X28059523Y-24750959D02*
X28083333Y-24774768D01*
X28083333Y-24774768D02*
X28107142Y-24822387D01*
X28107142Y-24822387D02*
X28130952Y-24917625D01*
X28130952Y-24917625D02*
X28130952Y-25036673D01*
X28130952Y-25036673D02*
X28107142Y-25131911D01*
X28107142Y-25131911D02*
X28083333Y-25179530D01*
X28083333Y-25179530D02*
X28059523Y-25203340D01*
X28059523Y-25203340D02*
X28011904Y-25227149D01*
X28011904Y-25227149D02*
X27964285Y-25227149D01*
X27964285Y-25227149D02*
X27916666Y-25203340D01*
X27916666Y-25203340D02*
X27892857Y-25179530D01*
X27892857Y-25179530D02*
X27869047Y-25131911D01*
X27869047Y-25131911D02*
X27845238Y-25036673D01*
X27845238Y-25036673D02*
X27845238Y-24917625D01*
X27845238Y-24917625D02*
X27869047Y-24822387D01*
X27869047Y-24822387D02*
X27892857Y-24774768D01*
X27892857Y-24774768D02*
X27916666Y-24750959D01*
X27916666Y-24750959D02*
X27964285Y-24727149D01*
D10*
X11361904Y-25863855D02*
X10904761Y-25863855D01*
X11133333Y-25863855D02*
X11133333Y-25063855D01*
X11133333Y-25063855D02*
X11057142Y-25178140D01*
X11057142Y-25178140D02*
X10980952Y-25254331D01*
X10980952Y-25254331D02*
X10904761Y-25292426D01*
X11857143Y-25063855D02*
X11933333Y-25063855D01*
X11933333Y-25063855D02*
X12009524Y-25101950D01*
X12009524Y-25101950D02*
X12047619Y-25140045D01*
X12047619Y-25140045D02*
X12085714Y-25216236D01*
X12085714Y-25216236D02*
X12123809Y-25368617D01*
X12123809Y-25368617D02*
X12123809Y-25559093D01*
X12123809Y-25559093D02*
X12085714Y-25711474D01*
X12085714Y-25711474D02*
X12047619Y-25787664D01*
X12047619Y-25787664D02*
X12009524Y-25825760D01*
X12009524Y-25825760D02*
X11933333Y-25863855D01*
X11933333Y-25863855D02*
X11857143Y-25863855D01*
X11857143Y-25863855D02*
X11780952Y-25825760D01*
X11780952Y-25825760D02*
X11742857Y-25787664D01*
X11742857Y-25787664D02*
X11704762Y-25711474D01*
X11704762Y-25711474D02*
X11666666Y-25559093D01*
X11666666Y-25559093D02*
X11666666Y-25368617D01*
X11666666Y-25368617D02*
X11704762Y-25216236D01*
X11704762Y-25216236D02*
X11742857Y-25140045D01*
X11742857Y-25140045D02*
X11780952Y-25101950D01*
X11780952Y-25101950D02*
X11857143Y-25063855D01*
X12619048Y-25063855D02*
X12695238Y-25063855D01*
X12695238Y-25063855D02*
X12771429Y-25101950D01*
X12771429Y-25101950D02*
X12809524Y-25140045D01*
X12809524Y-25140045D02*
X12847619Y-25216236D01*
X12847619Y-25216236D02*
X12885714Y-25368617D01*
X12885714Y-25368617D02*
X12885714Y-25559093D01*
X12885714Y-25559093D02*
X12847619Y-25711474D01*
X12847619Y-25711474D02*
X12809524Y-25787664D01*
X12809524Y-25787664D02*
X12771429Y-25825760D01*
X12771429Y-25825760D02*
X12695238Y-25863855D01*
X12695238Y-25863855D02*
X12619048Y-25863855D01*
X12619048Y-25863855D02*
X12542857Y-25825760D01*
X12542857Y-25825760D02*
X12504762Y-25787664D01*
X12504762Y-25787664D02*
X12466667Y-25711474D01*
X12466667Y-25711474D02*
X12428571Y-25559093D01*
X12428571Y-25559093D02*
X12428571Y-25368617D01*
X12428571Y-25368617D02*
X12466667Y-25216236D01*
X12466667Y-25216236D02*
X12504762Y-25140045D01*
X12504762Y-25140045D02*
X12542857Y-25101950D01*
X12542857Y-25101950D02*
X12619048Y-25063855D01*
X13228572Y-25330521D02*
X13228572Y-25863855D01*
X13228572Y-25406712D02*
X13266667Y-25368617D01*
X13266667Y-25368617D02*
X13342857Y-25330521D01*
X13342857Y-25330521D02*
X13457143Y-25330521D01*
X13457143Y-25330521D02*
X13533334Y-25368617D01*
X13533334Y-25368617D02*
X13571429Y-25444807D01*
X13571429Y-25444807D02*
X13571429Y-25863855D01*
X14219048Y-25444807D02*
X13952382Y-25444807D01*
X13952382Y-25863855D02*
X13952382Y-25063855D01*
X13952382Y-25063855D02*
X14333334Y-25063855D01*
D11*
X12558333Y-22089765D02*
X12546429Y-22101670D01*
X12546429Y-22101670D02*
X12510714Y-22113574D01*
X12510714Y-22113574D02*
X12486905Y-22113574D01*
X12486905Y-22113574D02*
X12451191Y-22101670D01*
X12451191Y-22101670D02*
X12427381Y-22077860D01*
X12427381Y-22077860D02*
X12415476Y-22054050D01*
X12415476Y-22054050D02*
X12403572Y-22006431D01*
X12403572Y-22006431D02*
X12403572Y-21970717D01*
X12403572Y-21970717D02*
X12415476Y-21923098D01*
X12415476Y-21923098D02*
X12427381Y-21899289D01*
X12427381Y-21899289D02*
X12451191Y-21875479D01*
X12451191Y-21875479D02*
X12486905Y-21863574D01*
X12486905Y-21863574D02*
X12510714Y-21863574D01*
X12510714Y-21863574D02*
X12546429Y-21875479D01*
X12546429Y-21875479D02*
X12558333Y-21887384D01*
X12641667Y-21863574D02*
X12808333Y-21863574D01*
X12808333Y-21863574D02*
X12701191Y-22113574D01*
D10*
X25428572Y-7563855D02*
X25428572Y-8211474D01*
X25428572Y-8211474D02*
X25466667Y-8287664D01*
X25466667Y-8287664D02*
X25504762Y-8325760D01*
X25504762Y-8325760D02*
X25580953Y-8363855D01*
X25580953Y-8363855D02*
X25733334Y-8363855D01*
X25733334Y-8363855D02*
X25809524Y-8325760D01*
X25809524Y-8325760D02*
X25847619Y-8287664D01*
X25847619Y-8287664D02*
X25885715Y-8211474D01*
X25885715Y-8211474D02*
X25885715Y-7563855D01*
X26266667Y-8287664D02*
X26304762Y-8325760D01*
X26304762Y-8325760D02*
X26266667Y-8363855D01*
X26266667Y-8363855D02*
X26228571Y-8325760D01*
X26228571Y-8325760D02*
X26266667Y-8287664D01*
X26266667Y-8287664D02*
X26266667Y-8363855D01*
X26914285Y-7944807D02*
X26647619Y-7944807D01*
X26647619Y-8363855D02*
X26647619Y-7563855D01*
X26647619Y-7563855D02*
X27028571Y-7563855D01*
X27714285Y-8363855D02*
X27333333Y-8363855D01*
X27333333Y-8363855D02*
X27333333Y-7563855D01*
X27980952Y-8059093D02*
X28590476Y-8059093D01*
X29352380Y-8363855D02*
X28971428Y-8363855D01*
X28971428Y-8363855D02*
X28971428Y-7563855D01*
X29504761Y-7563855D02*
X29961904Y-7563855D01*
X29733332Y-8363855D02*
X29733332Y-7563855D01*
X30228571Y-7944807D02*
X30495237Y-7944807D01*
X30609523Y-8363855D02*
X30228571Y-8363855D01*
X30228571Y-8363855D02*
X30228571Y-7563855D01*
X30228571Y-7563855D02*
X30609523Y-7563855D01*
D14*
X28101462Y-5471428D02*
X28101462Y-5185714D01*
X28272891Y-5528571D02*
X27672891Y-5328571D01*
X27672891Y-5328571D02*
X28272891Y-5128571D01*
X28272891Y-4928570D02*
X27672891Y-4928570D01*
X27672891Y-4928570D02*
X28272891Y-4585713D01*
X28272891Y-4585713D02*
X27672891Y-4585713D01*
X27672891Y-4385714D02*
X27672891Y-4042857D01*
X28272891Y-4214285D02*
X27672891Y-4214285D01*
X28272891Y-3528571D02*
X28272891Y-3871428D01*
X28272891Y-3699999D02*
X27672891Y-3699999D01*
X27672891Y-3699999D02*
X27758605Y-3757142D01*
X27758605Y-3757142D02*
X27815748Y-3814285D01*
X27815748Y-3814285D02*
X27844320Y-3871428D01*
D10*
X1642856Y-16863855D02*
X1185713Y-16863855D01*
X1414285Y-16863855D02*
X1414285Y-16063855D01*
X1414285Y-16063855D02*
X1338094Y-16178140D01*
X1338094Y-16178140D02*
X1261904Y-16254331D01*
X1261904Y-16254331D02*
X1185713Y-16292426D01*
X2138095Y-16063855D02*
X2214285Y-16063855D01*
X2214285Y-16063855D02*
X2290476Y-16101950D01*
X2290476Y-16101950D02*
X2328571Y-16140045D01*
X2328571Y-16140045D02*
X2366666Y-16216236D01*
X2366666Y-16216236D02*
X2404761Y-16368617D01*
X2404761Y-16368617D02*
X2404761Y-16559093D01*
X2404761Y-16559093D02*
X2366666Y-16711474D01*
X2366666Y-16711474D02*
X2328571Y-16787664D01*
X2328571Y-16787664D02*
X2290476Y-16825760D01*
X2290476Y-16825760D02*
X2214285Y-16863855D01*
X2214285Y-16863855D02*
X2138095Y-16863855D01*
X2138095Y-16863855D02*
X2061904Y-16825760D01*
X2061904Y-16825760D02*
X2023809Y-16787664D01*
X2023809Y-16787664D02*
X1985714Y-16711474D01*
X1985714Y-16711474D02*
X1947618Y-16559093D01*
X1947618Y-16559093D02*
X1947618Y-16368617D01*
X1947618Y-16368617D02*
X1985714Y-16216236D01*
X1985714Y-16216236D02*
X2023809Y-16140045D01*
X2023809Y-16140045D02*
X2061904Y-16101950D01*
X2061904Y-16101950D02*
X2138095Y-16063855D01*
X3090476Y-16330521D02*
X3090476Y-16863855D01*
X2747619Y-16330521D02*
X2747619Y-16749569D01*
X2747619Y-16749569D02*
X2785714Y-16825760D01*
X2785714Y-16825760D02*
X2861904Y-16863855D01*
X2861904Y-16863855D02*
X2976190Y-16863855D01*
X2976190Y-16863855D02*
X3052381Y-16825760D01*
X3052381Y-16825760D02*
X3090476Y-16787664D01*
X3738095Y-16444807D02*
X3471429Y-16444807D01*
X3471429Y-16863855D02*
X3471429Y-16063855D01*
X3471429Y-16063855D02*
X3852381Y-16063855D01*
D13*
X2178571Y-13179530D02*
X2154762Y-13203340D01*
X2154762Y-13203340D02*
X2083333Y-13227149D01*
X2083333Y-13227149D02*
X2035714Y-13227149D01*
X2035714Y-13227149D02*
X1964286Y-13203340D01*
X1964286Y-13203340D02*
X1916667Y-13155720D01*
X1916667Y-13155720D02*
X1892857Y-13108101D01*
X1892857Y-13108101D02*
X1869048Y-13012863D01*
X1869048Y-13012863D02*
X1869048Y-12941435D01*
X1869048Y-12941435D02*
X1892857Y-12846197D01*
X1892857Y-12846197D02*
X1916667Y-12798578D01*
X1916667Y-12798578D02*
X1964286Y-12750959D01*
X1964286Y-12750959D02*
X2035714Y-12727149D01*
X2035714Y-12727149D02*
X2083333Y-12727149D01*
X2083333Y-12727149D02*
X2154762Y-12750959D01*
X2154762Y-12750959D02*
X2178571Y-12774768D01*
X2654762Y-13227149D02*
X2369048Y-13227149D01*
X2511905Y-13227149D02*
X2511905Y-12727149D01*
X2511905Y-12727149D02*
X2464286Y-12798578D01*
X2464286Y-12798578D02*
X2416667Y-12846197D01*
X2416667Y-12846197D02*
X2369048Y-12870006D01*
X2845238Y-12774768D02*
X2869047Y-12750959D01*
X2869047Y-12750959D02*
X2916666Y-12727149D01*
X2916666Y-12727149D02*
X3035714Y-12727149D01*
X3035714Y-12727149D02*
X3083333Y-12750959D01*
X3083333Y-12750959D02*
X3107142Y-12774768D01*
X3107142Y-12774768D02*
X3130952Y-12822387D01*
X3130952Y-12822387D02*
X3130952Y-12870006D01*
X3130952Y-12870006D02*
X3107142Y-12941435D01*
X3107142Y-12941435D02*
X2821428Y-13227149D01*
X2821428Y-13227149D02*
X3130952Y-13227149D01*
D10*
X-1595239Y-35963855D02*
X-2052382Y-35963855D01*
X-1823810Y-35963855D02*
X-1823810Y-35163855D01*
X-1823810Y-35163855D02*
X-1900001Y-35278140D01*
X-1900001Y-35278140D02*
X-1976191Y-35354331D01*
X-1976191Y-35354331D02*
X-2052382Y-35392426D01*
X-1100000Y-35163855D02*
X-1023810Y-35163855D01*
X-1023810Y-35163855D02*
X-947619Y-35201950D01*
X-947619Y-35201950D02*
X-909524Y-35240045D01*
X-909524Y-35240045D02*
X-871429Y-35316236D01*
X-871429Y-35316236D02*
X-833334Y-35468617D01*
X-833334Y-35468617D02*
X-833334Y-35659093D01*
X-833334Y-35659093D02*
X-871429Y-35811474D01*
X-871429Y-35811474D02*
X-909524Y-35887664D01*
X-909524Y-35887664D02*
X-947619Y-35925760D01*
X-947619Y-35925760D02*
X-1023810Y-35963855D01*
X-1023810Y-35963855D02*
X-1100000Y-35963855D01*
X-1100000Y-35963855D02*
X-1176191Y-35925760D01*
X-1176191Y-35925760D02*
X-1214286Y-35887664D01*
X-1214286Y-35887664D02*
X-1252381Y-35811474D01*
X-1252381Y-35811474D02*
X-1290477Y-35659093D01*
X-1290477Y-35659093D02*
X-1290477Y-35468617D01*
X-1290477Y-35468617D02*
X-1252381Y-35316236D01*
X-1252381Y-35316236D02*
X-1214286Y-35240045D01*
X-1214286Y-35240045D02*
X-1176191Y-35201950D01*
X-1176191Y-35201950D02*
X-1100000Y-35163855D01*
X-338095Y-35163855D02*
X-261905Y-35163855D01*
X-261905Y-35163855D02*
X-185714Y-35201950D01*
X-185714Y-35201950D02*
X-147619Y-35240045D01*
X-147619Y-35240045D02*
X-109524Y-35316236D01*
X-109524Y-35316236D02*
X-71429Y-35468617D01*
X-71429Y-35468617D02*
X-71429Y-35659093D01*
X-71429Y-35659093D02*
X-109524Y-35811474D01*
X-109524Y-35811474D02*
X-147619Y-35887664D01*
X-147619Y-35887664D02*
X-185714Y-35925760D01*
X-185714Y-35925760D02*
X-261905Y-35963855D01*
X-261905Y-35963855D02*
X-338095Y-35963855D01*
X-338095Y-35963855D02*
X-414286Y-35925760D01*
X-414286Y-35925760D02*
X-452381Y-35887664D01*
X-452381Y-35887664D02*
X-490476Y-35811474D01*
X-490476Y-35811474D02*
X-528572Y-35659093D01*
X-528572Y-35659093D02*
X-528572Y-35468617D01*
X-528572Y-35468617D02*
X-490476Y-35316236D01*
X-490476Y-35316236D02*
X-452381Y-35240045D01*
X-452381Y-35240045D02*
X-414286Y-35201950D01*
X-414286Y-35201950D02*
X-338095Y-35163855D01*
X614285Y-35430521D02*
X614285Y-35963855D01*
X271428Y-35430521D02*
X271428Y-35849569D01*
X271428Y-35849569D02*
X309523Y-35925760D01*
X309523Y-35925760D02*
X385713Y-35963855D01*
X385713Y-35963855D02*
X499999Y-35963855D01*
X499999Y-35963855D02*
X576190Y-35925760D01*
X576190Y-35925760D02*
X614285Y-35887664D01*
X1261904Y-35544807D02*
X995238Y-35544807D01*
X995238Y-35963855D02*
X995238Y-35163855D01*
X995238Y-35163855D02*
X1376190Y-35163855D01*
X1490476Y-36040045D02*
X2099999Y-36040045D01*
X2633333Y-35163855D02*
X2480952Y-35163855D01*
X2480952Y-35163855D02*
X2404761Y-35201950D01*
X2404761Y-35201950D02*
X2366666Y-35240045D01*
X2366666Y-35240045D02*
X2290476Y-35354331D01*
X2290476Y-35354331D02*
X2252380Y-35506712D01*
X2252380Y-35506712D02*
X2252380Y-35811474D01*
X2252380Y-35811474D02*
X2290476Y-35887664D01*
X2290476Y-35887664D02*
X2328571Y-35925760D01*
X2328571Y-35925760D02*
X2404761Y-35963855D01*
X2404761Y-35963855D02*
X2557142Y-35963855D01*
X2557142Y-35963855D02*
X2633333Y-35925760D01*
X2633333Y-35925760D02*
X2671428Y-35887664D01*
X2671428Y-35887664D02*
X2709523Y-35811474D01*
X2709523Y-35811474D02*
X2709523Y-35620998D01*
X2709523Y-35620998D02*
X2671428Y-35544807D01*
X2671428Y-35544807D02*
X2633333Y-35506712D01*
X2633333Y-35506712D02*
X2557142Y-35468617D01*
X2557142Y-35468617D02*
X2404761Y-35468617D01*
X2404761Y-35468617D02*
X2328571Y-35506712D01*
X2328571Y-35506712D02*
X2290476Y-35544807D01*
X2290476Y-35544807D02*
X2252380Y-35620998D01*
X3052381Y-35887664D02*
X3090476Y-35925760D01*
X3090476Y-35925760D02*
X3052381Y-35963855D01*
X3052381Y-35963855D02*
X3014285Y-35925760D01*
X3014285Y-35925760D02*
X3052381Y-35887664D01*
X3052381Y-35887664D02*
X3052381Y-35963855D01*
X3357142Y-35163855D02*
X3852380Y-35163855D01*
X3852380Y-35163855D02*
X3585714Y-35468617D01*
X3585714Y-35468617D02*
X3699999Y-35468617D01*
X3699999Y-35468617D02*
X3776190Y-35506712D01*
X3776190Y-35506712D02*
X3814285Y-35544807D01*
X3814285Y-35544807D02*
X3852380Y-35620998D01*
X3852380Y-35620998D02*
X3852380Y-35811474D01*
X3852380Y-35811474D02*
X3814285Y-35887664D01*
X3814285Y-35887664D02*
X3776190Y-35925760D01*
X3776190Y-35925760D02*
X3699999Y-35963855D01*
X3699999Y-35963855D02*
X3471428Y-35963855D01*
X3471428Y-35963855D02*
X3395237Y-35925760D01*
X3395237Y-35925760D02*
X3357142Y-35887664D01*
X4080952Y-35163855D02*
X4347619Y-35963855D01*
X4347619Y-35963855D02*
X4614285Y-35163855D01*
X4690476Y-36040045D02*
X5299999Y-36040045D01*
X5490476Y-35963855D02*
X5490476Y-35163855D01*
X5490476Y-35163855D02*
X5795238Y-35163855D01*
X5795238Y-35163855D02*
X5871428Y-35201950D01*
X5871428Y-35201950D02*
X5909523Y-35240045D01*
X5909523Y-35240045D02*
X5947619Y-35316236D01*
X5947619Y-35316236D02*
X5947619Y-35430521D01*
X5947619Y-35430521D02*
X5909523Y-35506712D01*
X5909523Y-35506712D02*
X5871428Y-35544807D01*
X5871428Y-35544807D02*
X5795238Y-35582902D01*
X5795238Y-35582902D02*
X5490476Y-35582902D01*
X6404761Y-35963855D02*
X6328571Y-35925760D01*
X6328571Y-35925760D02*
X6290476Y-35887664D01*
X6290476Y-35887664D02*
X6252380Y-35811474D01*
X6252380Y-35811474D02*
X6252380Y-35582902D01*
X6252380Y-35582902D02*
X6290476Y-35506712D01*
X6290476Y-35506712D02*
X6328571Y-35468617D01*
X6328571Y-35468617D02*
X6404761Y-35430521D01*
X6404761Y-35430521D02*
X6519047Y-35430521D01*
X6519047Y-35430521D02*
X6595238Y-35468617D01*
X6595238Y-35468617D02*
X6633333Y-35506712D01*
X6633333Y-35506712D02*
X6671428Y-35582902D01*
X6671428Y-35582902D02*
X6671428Y-35811474D01*
X6671428Y-35811474D02*
X6633333Y-35887664D01*
X6633333Y-35887664D02*
X6595238Y-35925760D01*
X6595238Y-35925760D02*
X6519047Y-35963855D01*
X6519047Y-35963855D02*
X6404761Y-35963855D01*
X7128571Y-35963855D02*
X7052381Y-35925760D01*
X7052381Y-35925760D02*
X7014286Y-35849569D01*
X7014286Y-35849569D02*
X7014286Y-35163855D01*
X7357143Y-35430521D02*
X7547619Y-35963855D01*
X7738096Y-35430521D02*
X7547619Y-35963855D01*
X7547619Y-35963855D02*
X7471429Y-36154331D01*
X7471429Y-36154331D02*
X7433334Y-36192426D01*
X7433334Y-36192426D02*
X7357143Y-36230521D01*
X8042858Y-35963855D02*
X8042858Y-35430521D01*
X8042858Y-35506712D02*
X8080953Y-35468617D01*
X8080953Y-35468617D02*
X8157143Y-35430521D01*
X8157143Y-35430521D02*
X8271429Y-35430521D01*
X8271429Y-35430521D02*
X8347620Y-35468617D01*
X8347620Y-35468617D02*
X8385715Y-35544807D01*
X8385715Y-35544807D02*
X8385715Y-35963855D01*
X8385715Y-35544807D02*
X8423810Y-35468617D01*
X8423810Y-35468617D02*
X8500001Y-35430521D01*
X8500001Y-35430521D02*
X8614286Y-35430521D01*
X8614286Y-35430521D02*
X8690477Y-35468617D01*
X8690477Y-35468617D02*
X8728572Y-35544807D01*
X8728572Y-35544807D02*
X8728572Y-35963855D01*
X9414287Y-35925760D02*
X9338096Y-35963855D01*
X9338096Y-35963855D02*
X9185715Y-35963855D01*
X9185715Y-35963855D02*
X9109525Y-35925760D01*
X9109525Y-35925760D02*
X9071429Y-35849569D01*
X9071429Y-35849569D02*
X9071429Y-35544807D01*
X9071429Y-35544807D02*
X9109525Y-35468617D01*
X9109525Y-35468617D02*
X9185715Y-35430521D01*
X9185715Y-35430521D02*
X9338096Y-35430521D01*
X9338096Y-35430521D02*
X9414287Y-35468617D01*
X9414287Y-35468617D02*
X9452382Y-35544807D01*
X9452382Y-35544807D02*
X9452382Y-35620998D01*
X9452382Y-35620998D02*
X9071429Y-35697188D01*
X9795239Y-35963855D02*
X9795239Y-35430521D01*
X9795239Y-35582902D02*
X9833334Y-35506712D01*
X9833334Y-35506712D02*
X9871429Y-35468617D01*
X9871429Y-35468617D02*
X9947620Y-35430521D01*
X9947620Y-35430521D02*
X10023810Y-35430521D01*
X10252381Y-35735283D02*
X10633334Y-35735283D01*
X10176191Y-35963855D02*
X10442858Y-35163855D01*
X10442858Y-35163855D02*
X10709524Y-35963855D01*
X11090476Y-35963855D02*
X11014286Y-35925760D01*
X11014286Y-35925760D02*
X10976191Y-35849569D01*
X10976191Y-35849569D02*
X10976191Y-35163855D01*
D13*
X4178571Y-33479530D02*
X4154762Y-33503340D01*
X4154762Y-33503340D02*
X4083333Y-33527149D01*
X4083333Y-33527149D02*
X4035714Y-33527149D01*
X4035714Y-33527149D02*
X3964286Y-33503340D01*
X3964286Y-33503340D02*
X3916667Y-33455720D01*
X3916667Y-33455720D02*
X3892857Y-33408101D01*
X3892857Y-33408101D02*
X3869048Y-33312863D01*
X3869048Y-33312863D02*
X3869048Y-33241435D01*
X3869048Y-33241435D02*
X3892857Y-33146197D01*
X3892857Y-33146197D02*
X3916667Y-33098578D01*
X3916667Y-33098578D02*
X3964286Y-33050959D01*
X3964286Y-33050959D02*
X4035714Y-33027149D01*
X4035714Y-33027149D02*
X4083333Y-33027149D01*
X4083333Y-33027149D02*
X4154762Y-33050959D01*
X4154762Y-33050959D02*
X4178571Y-33074768D01*
X4654762Y-33527149D02*
X4369048Y-33527149D01*
X4511905Y-33527149D02*
X4511905Y-33027149D01*
X4511905Y-33027149D02*
X4464286Y-33098578D01*
X4464286Y-33098578D02*
X4416667Y-33146197D01*
X4416667Y-33146197D02*
X4369048Y-33170006D01*
X4821428Y-33027149D02*
X5130952Y-33027149D01*
X5130952Y-33027149D02*
X4964285Y-33217625D01*
X4964285Y-33217625D02*
X5035714Y-33217625D01*
X5035714Y-33217625D02*
X5083333Y-33241435D01*
X5083333Y-33241435D02*
X5107142Y-33265244D01*
X5107142Y-33265244D02*
X5130952Y-33312863D01*
X5130952Y-33312863D02*
X5130952Y-33431911D01*
X5130952Y-33431911D02*
X5107142Y-33479530D01*
X5107142Y-33479530D02*
X5083333Y-33503340D01*
X5083333Y-33503340D02*
X5035714Y-33527149D01*
X5035714Y-33527149D02*
X4892857Y-33527149D01*
X4892857Y-33527149D02*
X4845238Y-33503340D01*
X4845238Y-33503340D02*
X4821428Y-33479530D01*
D10*
X12523809Y-23663855D02*
X12066666Y-23663855D01*
X12295238Y-23663855D02*
X12295238Y-22863855D01*
X12295238Y-22863855D02*
X12219047Y-22978140D01*
X12219047Y-22978140D02*
X12142857Y-23054331D01*
X12142857Y-23054331D02*
X12066666Y-23092426D01*
X13019048Y-22863855D02*
X13095238Y-22863855D01*
X13095238Y-22863855D02*
X13171429Y-22901950D01*
X13171429Y-22901950D02*
X13209524Y-22940045D01*
X13209524Y-22940045D02*
X13247619Y-23016236D01*
X13247619Y-23016236D02*
X13285714Y-23168617D01*
X13285714Y-23168617D02*
X13285714Y-23359093D01*
X13285714Y-23359093D02*
X13247619Y-23511474D01*
X13247619Y-23511474D02*
X13209524Y-23587664D01*
X13209524Y-23587664D02*
X13171429Y-23625760D01*
X13171429Y-23625760D02*
X13095238Y-23663855D01*
X13095238Y-23663855D02*
X13019048Y-23663855D01*
X13019048Y-23663855D02*
X12942857Y-23625760D01*
X12942857Y-23625760D02*
X12904762Y-23587664D01*
X12904762Y-23587664D02*
X12866667Y-23511474D01*
X12866667Y-23511474D02*
X12828571Y-23359093D01*
X12828571Y-23359093D02*
X12828571Y-23168617D01*
X12828571Y-23168617D02*
X12866667Y-23016236D01*
X12866667Y-23016236D02*
X12904762Y-22940045D01*
X12904762Y-22940045D02*
X12942857Y-22901950D01*
X12942857Y-22901950D02*
X13019048Y-22863855D01*
X13628572Y-23663855D02*
X13628572Y-22863855D01*
X13704762Y-23359093D02*
X13933334Y-23663855D01*
X13933334Y-23130521D02*
X13628572Y-23435283D01*
D11*
X12956667Y-19918200D02*
X12870000Y-19794391D01*
X12808095Y-19918200D02*
X12808095Y-19658200D01*
X12808095Y-19658200D02*
X12907143Y-19658200D01*
X12907143Y-19658200D02*
X12931905Y-19670581D01*
X12931905Y-19670581D02*
X12944286Y-19682962D01*
X12944286Y-19682962D02*
X12956667Y-19707724D01*
X12956667Y-19707724D02*
X12956667Y-19744867D01*
X12956667Y-19744867D02*
X12944286Y-19769629D01*
X12944286Y-19769629D02*
X12931905Y-19782010D01*
X12931905Y-19782010D02*
X12907143Y-19794391D01*
X12907143Y-19794391D02*
X12808095Y-19794391D01*
X13191905Y-19658200D02*
X13068095Y-19658200D01*
X13068095Y-19658200D02*
X13055714Y-19782010D01*
X13055714Y-19782010D02*
X13068095Y-19769629D01*
X13068095Y-19769629D02*
X13092857Y-19757248D01*
X13092857Y-19757248D02*
X13154762Y-19757248D01*
X13154762Y-19757248D02*
X13179524Y-19769629D01*
X13179524Y-19769629D02*
X13191905Y-19782010D01*
X13191905Y-19782010D02*
X13204286Y-19806772D01*
X13204286Y-19806772D02*
X13204286Y-19868677D01*
X13204286Y-19868677D02*
X13191905Y-19893439D01*
X13191905Y-19893439D02*
X13179524Y-19905820D01*
X13179524Y-19905820D02*
X13154762Y-19918200D01*
X13154762Y-19918200D02*
X13092857Y-19918200D01*
X13092857Y-19918200D02*
X13068095Y-19905820D01*
X13068095Y-19905820D02*
X13055714Y-19893439D01*
D10*
X10471428Y-28363855D02*
X10090476Y-28363855D01*
X10090476Y-28363855D02*
X10090476Y-27563855D01*
X10738095Y-28363855D02*
X10738095Y-27563855D01*
X11080951Y-28325760D02*
X11195237Y-28363855D01*
X11195237Y-28363855D02*
X11385713Y-28363855D01*
X11385713Y-28363855D02*
X11461904Y-28325760D01*
X11461904Y-28325760D02*
X11499999Y-28287664D01*
X11499999Y-28287664D02*
X11538094Y-28211474D01*
X11538094Y-28211474D02*
X11538094Y-28135283D01*
X11538094Y-28135283D02*
X11499999Y-28059093D01*
X11499999Y-28059093D02*
X11461904Y-28020998D01*
X11461904Y-28020998D02*
X11385713Y-27982902D01*
X11385713Y-27982902D02*
X11233332Y-27944807D01*
X11233332Y-27944807D02*
X11157142Y-27906712D01*
X11157142Y-27906712D02*
X11119047Y-27868617D01*
X11119047Y-27868617D02*
X11080951Y-27792426D01*
X11080951Y-27792426D02*
X11080951Y-27716236D01*
X11080951Y-27716236D02*
X11119047Y-27640045D01*
X11119047Y-27640045D02*
X11157142Y-27601950D01*
X11157142Y-27601950D02*
X11233332Y-27563855D01*
X11233332Y-27563855D02*
X11423809Y-27563855D01*
X11423809Y-27563855D02*
X11538094Y-27601950D01*
X11842856Y-27640045D02*
X11880952Y-27601950D01*
X11880952Y-27601950D02*
X11957142Y-27563855D01*
X11957142Y-27563855D02*
X12147618Y-27563855D01*
X12147618Y-27563855D02*
X12223809Y-27601950D01*
X12223809Y-27601950D02*
X12261904Y-27640045D01*
X12261904Y-27640045D02*
X12299999Y-27716236D01*
X12299999Y-27716236D02*
X12299999Y-27792426D01*
X12299999Y-27792426D02*
X12261904Y-27906712D01*
X12261904Y-27906712D02*
X11804761Y-28363855D01*
X11804761Y-28363855D02*
X12299999Y-28363855D01*
X12642857Y-28363855D02*
X12642857Y-27563855D01*
X12642857Y-27563855D02*
X12833333Y-27563855D01*
X12833333Y-27563855D02*
X12947619Y-27601950D01*
X12947619Y-27601950D02*
X13023809Y-27678140D01*
X13023809Y-27678140D02*
X13061904Y-27754331D01*
X13061904Y-27754331D02*
X13100000Y-27906712D01*
X13100000Y-27906712D02*
X13100000Y-28020998D01*
X13100000Y-28020998D02*
X13061904Y-28173379D01*
X13061904Y-28173379D02*
X13023809Y-28249569D01*
X13023809Y-28249569D02*
X12947619Y-28325760D01*
X12947619Y-28325760D02*
X12833333Y-28363855D01*
X12833333Y-28363855D02*
X12642857Y-28363855D01*
X13366666Y-27563855D02*
X13557142Y-28363855D01*
X13557142Y-28363855D02*
X13709523Y-27792426D01*
X13709523Y-27792426D02*
X13861904Y-28363855D01*
X13861904Y-28363855D02*
X14052381Y-27563855D01*
X14776190Y-28363855D02*
X14319047Y-28363855D01*
X14547619Y-28363855D02*
X14547619Y-27563855D01*
X14547619Y-27563855D02*
X14471428Y-27678140D01*
X14471428Y-27678140D02*
X14395238Y-27754331D01*
X14395238Y-27754331D02*
X14319047Y-27792426D01*
X15080952Y-27640045D02*
X15119048Y-27601950D01*
X15119048Y-27601950D02*
X15195238Y-27563855D01*
X15195238Y-27563855D02*
X15385714Y-27563855D01*
X15385714Y-27563855D02*
X15461905Y-27601950D01*
X15461905Y-27601950D02*
X15500000Y-27640045D01*
X15500000Y-27640045D02*
X15538095Y-27716236D01*
X15538095Y-27716236D02*
X15538095Y-27792426D01*
X15538095Y-27792426D02*
X15500000Y-27906712D01*
X15500000Y-27906712D02*
X15042857Y-28363855D01*
X15042857Y-28363855D02*
X15538095Y-28363855D01*
X15766667Y-27563855D02*
X16223810Y-27563855D01*
X15995238Y-28363855D02*
X15995238Y-27563855D01*
X16947620Y-28363855D02*
X16680953Y-27982902D01*
X16490477Y-28363855D02*
X16490477Y-27563855D01*
X16490477Y-27563855D02*
X16795239Y-27563855D01*
X16795239Y-27563855D02*
X16871429Y-27601950D01*
X16871429Y-27601950D02*
X16909524Y-27640045D01*
X16909524Y-27640045D02*
X16947620Y-27716236D01*
X16947620Y-27716236D02*
X16947620Y-27830521D01*
X16947620Y-27830521D02*
X16909524Y-27906712D01*
X16909524Y-27906712D02*
X16871429Y-27944807D01*
X16871429Y-27944807D02*
X16795239Y-27982902D01*
X16795239Y-27982902D02*
X16490477Y-27982902D01*
D16*
X13119047Y-24227409D02*
X13119047Y-24632171D01*
X13119047Y-24632171D02*
X13142857Y-24679790D01*
X13142857Y-24679790D02*
X13166666Y-24703600D01*
X13166666Y-24703600D02*
X13214285Y-24727409D01*
X13214285Y-24727409D02*
X13309523Y-24727409D01*
X13309523Y-24727409D02*
X13357142Y-24703600D01*
X13357142Y-24703600D02*
X13380952Y-24679790D01*
X13380952Y-24679790D02*
X13404761Y-24632171D01*
X13404761Y-24632171D02*
X13404761Y-24227409D01*
X13595238Y-24227409D02*
X13904762Y-24227409D01*
X13904762Y-24227409D02*
X13738095Y-24417885D01*
X13738095Y-24417885D02*
X13809524Y-24417885D01*
X13809524Y-24417885D02*
X13857143Y-24441695D01*
X13857143Y-24441695D02*
X13880952Y-24465504D01*
X13880952Y-24465504D02*
X13904762Y-24513123D01*
X13904762Y-24513123D02*
X13904762Y-24632171D01*
X13904762Y-24632171D02*
X13880952Y-24679790D01*
X13880952Y-24679790D02*
X13857143Y-24703600D01*
X13857143Y-24703600D02*
X13809524Y-24727409D01*
X13809524Y-24727409D02*
X13666667Y-24727409D01*
X13666667Y-24727409D02*
X13619048Y-24703600D01*
X13619048Y-24703600D02*
X13595238Y-24679790D01*
D10*
X14795238Y-32863855D02*
X14414286Y-32863855D01*
X14414286Y-32863855D02*
X14376190Y-33244807D01*
X14376190Y-33244807D02*
X14414286Y-33206712D01*
X14414286Y-33206712D02*
X14490476Y-33168617D01*
X14490476Y-33168617D02*
X14680952Y-33168617D01*
X14680952Y-33168617D02*
X14757143Y-33206712D01*
X14757143Y-33206712D02*
X14795238Y-33244807D01*
X14795238Y-33244807D02*
X14833333Y-33320998D01*
X14833333Y-33320998D02*
X14833333Y-33511474D01*
X14833333Y-33511474D02*
X14795238Y-33587664D01*
X14795238Y-33587664D02*
X14757143Y-33625760D01*
X14757143Y-33625760D02*
X14680952Y-33663855D01*
X14680952Y-33663855D02*
X14490476Y-33663855D01*
X14490476Y-33663855D02*
X14414286Y-33625760D01*
X14414286Y-33625760D02*
X14376190Y-33587664D01*
X15176191Y-33587664D02*
X15214286Y-33625760D01*
X15214286Y-33625760D02*
X15176191Y-33663855D01*
X15176191Y-33663855D02*
X15138095Y-33625760D01*
X15138095Y-33625760D02*
X15176191Y-33587664D01*
X15176191Y-33587664D02*
X15176191Y-33663855D01*
X15976190Y-33663855D02*
X15519047Y-33663855D01*
X15747619Y-33663855D02*
X15747619Y-32863855D01*
X15747619Y-32863855D02*
X15671428Y-32978140D01*
X15671428Y-32978140D02*
X15595238Y-33054331D01*
X15595238Y-33054331D02*
X15519047Y-33092426D01*
X16319048Y-33663855D02*
X16319048Y-32863855D01*
X16395238Y-33359093D02*
X16623810Y-33663855D01*
X16623810Y-33130521D02*
X16319048Y-33435283D01*
D11*
X15456667Y-29918200D02*
X15370000Y-29794391D01*
X15308095Y-29918200D02*
X15308095Y-29658200D01*
X15308095Y-29658200D02*
X15407143Y-29658200D01*
X15407143Y-29658200D02*
X15431905Y-29670581D01*
X15431905Y-29670581D02*
X15444286Y-29682962D01*
X15444286Y-29682962D02*
X15456667Y-29707724D01*
X15456667Y-29707724D02*
X15456667Y-29744867D01*
X15456667Y-29744867D02*
X15444286Y-29769629D01*
X15444286Y-29769629D02*
X15431905Y-29782010D01*
X15431905Y-29782010D02*
X15407143Y-29794391D01*
X15407143Y-29794391D02*
X15308095Y-29794391D01*
X15555714Y-29682962D02*
X15568095Y-29670581D01*
X15568095Y-29670581D02*
X15592857Y-29658200D01*
X15592857Y-29658200D02*
X15654762Y-29658200D01*
X15654762Y-29658200D02*
X15679524Y-29670581D01*
X15679524Y-29670581D02*
X15691905Y-29682962D01*
X15691905Y-29682962D02*
X15704286Y-29707724D01*
X15704286Y-29707724D02*
X15704286Y-29732486D01*
X15704286Y-29732486D02*
X15691905Y-29769629D01*
X15691905Y-29769629D02*
X15543333Y-29918200D01*
X15543333Y-29918200D02*
X15704286Y-29918200D01*
D10*
X5261904Y-22863855D02*
X4804761Y-22863855D01*
X5033333Y-22863855D02*
X5033333Y-22063855D01*
X5033333Y-22063855D02*
X4957142Y-22178140D01*
X4957142Y-22178140D02*
X4880952Y-22254331D01*
X4880952Y-22254331D02*
X4804761Y-22292426D01*
X5757143Y-22063855D02*
X5833333Y-22063855D01*
X5833333Y-22063855D02*
X5909524Y-22101950D01*
X5909524Y-22101950D02*
X5947619Y-22140045D01*
X5947619Y-22140045D02*
X5985714Y-22216236D01*
X5985714Y-22216236D02*
X6023809Y-22368617D01*
X6023809Y-22368617D02*
X6023809Y-22559093D01*
X6023809Y-22559093D02*
X5985714Y-22711474D01*
X5985714Y-22711474D02*
X5947619Y-22787664D01*
X5947619Y-22787664D02*
X5909524Y-22825760D01*
X5909524Y-22825760D02*
X5833333Y-22863855D01*
X5833333Y-22863855D02*
X5757143Y-22863855D01*
X5757143Y-22863855D02*
X5680952Y-22825760D01*
X5680952Y-22825760D02*
X5642857Y-22787664D01*
X5642857Y-22787664D02*
X5604762Y-22711474D01*
X5604762Y-22711474D02*
X5566666Y-22559093D01*
X5566666Y-22559093D02*
X5566666Y-22368617D01*
X5566666Y-22368617D02*
X5604762Y-22216236D01*
X5604762Y-22216236D02*
X5642857Y-22140045D01*
X5642857Y-22140045D02*
X5680952Y-22101950D01*
X5680952Y-22101950D02*
X5757143Y-22063855D01*
X6519048Y-22063855D02*
X6595238Y-22063855D01*
X6595238Y-22063855D02*
X6671429Y-22101950D01*
X6671429Y-22101950D02*
X6709524Y-22140045D01*
X6709524Y-22140045D02*
X6747619Y-22216236D01*
X6747619Y-22216236D02*
X6785714Y-22368617D01*
X6785714Y-22368617D02*
X6785714Y-22559093D01*
X6785714Y-22559093D02*
X6747619Y-22711474D01*
X6747619Y-22711474D02*
X6709524Y-22787664D01*
X6709524Y-22787664D02*
X6671429Y-22825760D01*
X6671429Y-22825760D02*
X6595238Y-22863855D01*
X6595238Y-22863855D02*
X6519048Y-22863855D01*
X6519048Y-22863855D02*
X6442857Y-22825760D01*
X6442857Y-22825760D02*
X6404762Y-22787664D01*
X6404762Y-22787664D02*
X6366667Y-22711474D01*
X6366667Y-22711474D02*
X6328571Y-22559093D01*
X6328571Y-22559093D02*
X6328571Y-22368617D01*
X6328571Y-22368617D02*
X6366667Y-22216236D01*
X6366667Y-22216236D02*
X6404762Y-22140045D01*
X6404762Y-22140045D02*
X6442857Y-22101950D01*
X6442857Y-22101950D02*
X6519048Y-22063855D01*
X7128572Y-22330521D02*
X7128572Y-22863855D01*
X7128572Y-22406712D02*
X7166667Y-22368617D01*
X7166667Y-22368617D02*
X7242857Y-22330521D01*
X7242857Y-22330521D02*
X7357143Y-22330521D01*
X7357143Y-22330521D02*
X7433334Y-22368617D01*
X7433334Y-22368617D02*
X7471429Y-22444807D01*
X7471429Y-22444807D02*
X7471429Y-22863855D01*
X8119048Y-22444807D02*
X7852382Y-22444807D01*
X7852382Y-22863855D02*
X7852382Y-22063855D01*
X7852382Y-22063855D02*
X8233334Y-22063855D01*
D11*
X6458333Y-19089765D02*
X6446429Y-19101670D01*
X6446429Y-19101670D02*
X6410714Y-19113574D01*
X6410714Y-19113574D02*
X6386905Y-19113574D01*
X6386905Y-19113574D02*
X6351191Y-19101670D01*
X6351191Y-19101670D02*
X6327381Y-19077860D01*
X6327381Y-19077860D02*
X6315476Y-19054050D01*
X6315476Y-19054050D02*
X6303572Y-19006431D01*
X6303572Y-19006431D02*
X6303572Y-18970717D01*
X6303572Y-18970717D02*
X6315476Y-18923098D01*
X6315476Y-18923098D02*
X6327381Y-18899289D01*
X6327381Y-18899289D02*
X6351191Y-18875479D01*
X6351191Y-18875479D02*
X6386905Y-18863574D01*
X6386905Y-18863574D02*
X6410714Y-18863574D01*
X6410714Y-18863574D02*
X6446429Y-18875479D01*
X6446429Y-18875479D02*
X6458333Y-18887384D01*
X6672619Y-18946908D02*
X6672619Y-19113574D01*
X6613095Y-18851670D02*
X6553572Y-19030241D01*
X6553572Y-19030241D02*
X6708333Y-19030241D01*
D10*
X20857142Y-35125760D02*
X20971428Y-35163855D01*
X20971428Y-35163855D02*
X21161904Y-35163855D01*
X21161904Y-35163855D02*
X21238095Y-35125760D01*
X21238095Y-35125760D02*
X21276190Y-35087664D01*
X21276190Y-35087664D02*
X21314285Y-35011474D01*
X21314285Y-35011474D02*
X21314285Y-34935283D01*
X21314285Y-34935283D02*
X21276190Y-34859093D01*
X21276190Y-34859093D02*
X21238095Y-34820998D01*
X21238095Y-34820998D02*
X21161904Y-34782902D01*
X21161904Y-34782902D02*
X21009523Y-34744807D01*
X21009523Y-34744807D02*
X20933333Y-34706712D01*
X20933333Y-34706712D02*
X20895238Y-34668617D01*
X20895238Y-34668617D02*
X20857142Y-34592426D01*
X20857142Y-34592426D02*
X20857142Y-34516236D01*
X20857142Y-34516236D02*
X20895238Y-34440045D01*
X20895238Y-34440045D02*
X20933333Y-34401950D01*
X20933333Y-34401950D02*
X21009523Y-34363855D01*
X21009523Y-34363855D02*
X21200000Y-34363855D01*
X21200000Y-34363855D02*
X21314285Y-34401950D01*
X21657143Y-35163855D02*
X21657143Y-34363855D01*
X21657143Y-34363855D02*
X21923809Y-34935283D01*
X21923809Y-34935283D02*
X22190476Y-34363855D01*
X22190476Y-34363855D02*
X22190476Y-35163855D01*
X22571429Y-35163855D02*
X22571429Y-34363855D01*
X22571429Y-34363855D02*
X23028572Y-35163855D01*
X23028572Y-35163855D02*
X23028572Y-34363855D01*
X23409524Y-34859093D02*
X24019048Y-34859093D01*
X24323809Y-34363855D02*
X24819047Y-34363855D01*
X24819047Y-34363855D02*
X24552381Y-34668617D01*
X24552381Y-34668617D02*
X24666666Y-34668617D01*
X24666666Y-34668617D02*
X24742857Y-34706712D01*
X24742857Y-34706712D02*
X24780952Y-34744807D01*
X24780952Y-34744807D02*
X24819047Y-34820998D01*
X24819047Y-34820998D02*
X24819047Y-35011474D01*
X24819047Y-35011474D02*
X24780952Y-35087664D01*
X24780952Y-35087664D02*
X24742857Y-35125760D01*
X24742857Y-35125760D02*
X24666666Y-35163855D01*
X24666666Y-35163855D02*
X24438095Y-35163855D01*
X24438095Y-35163855D02*
X24361904Y-35125760D01*
X24361904Y-35125760D02*
X24323809Y-35087664D01*
X25314286Y-34363855D02*
X25390476Y-34363855D01*
X25390476Y-34363855D02*
X25466667Y-34401950D01*
X25466667Y-34401950D02*
X25504762Y-34440045D01*
X25504762Y-34440045D02*
X25542857Y-34516236D01*
X25542857Y-34516236D02*
X25580952Y-34668617D01*
X25580952Y-34668617D02*
X25580952Y-34859093D01*
X25580952Y-34859093D02*
X25542857Y-35011474D01*
X25542857Y-35011474D02*
X25504762Y-35087664D01*
X25504762Y-35087664D02*
X25466667Y-35125760D01*
X25466667Y-35125760D02*
X25390476Y-35163855D01*
X25390476Y-35163855D02*
X25314286Y-35163855D01*
X25314286Y-35163855D02*
X25238095Y-35125760D01*
X25238095Y-35125760D02*
X25200000Y-35087664D01*
X25200000Y-35087664D02*
X25161905Y-35011474D01*
X25161905Y-35011474D02*
X25123809Y-34859093D01*
X25123809Y-34859093D02*
X25123809Y-34668617D01*
X25123809Y-34668617D02*
X25161905Y-34516236D01*
X25161905Y-34516236D02*
X25200000Y-34440045D01*
X25200000Y-34440045D02*
X25238095Y-34401950D01*
X25238095Y-34401950D02*
X25314286Y-34363855D01*
X26304762Y-34363855D02*
X25923810Y-34363855D01*
X25923810Y-34363855D02*
X25885714Y-34744807D01*
X25885714Y-34744807D02*
X25923810Y-34706712D01*
X25923810Y-34706712D02*
X26000000Y-34668617D01*
X26000000Y-34668617D02*
X26190476Y-34668617D01*
X26190476Y-34668617D02*
X26266667Y-34706712D01*
X26266667Y-34706712D02*
X26304762Y-34744807D01*
X26304762Y-34744807D02*
X26342857Y-34820998D01*
X26342857Y-34820998D02*
X26342857Y-35011474D01*
X26342857Y-35011474D02*
X26304762Y-35087664D01*
X26304762Y-35087664D02*
X26266667Y-35125760D01*
X26266667Y-35125760D02*
X26190476Y-35163855D01*
X26190476Y-35163855D02*
X26000000Y-35163855D01*
X26000000Y-35163855D02*
X25923810Y-35125760D01*
X25923810Y-35125760D02*
X25885714Y-35087664D01*
X2961904Y-29363855D02*
X2504761Y-29363855D01*
X2733333Y-29363855D02*
X2733333Y-28563855D01*
X2733333Y-28563855D02*
X2657142Y-28678140D01*
X2657142Y-28678140D02*
X2580952Y-28754331D01*
X2580952Y-28754331D02*
X2504761Y-28792426D01*
X3457143Y-28563855D02*
X3533333Y-28563855D01*
X3533333Y-28563855D02*
X3609524Y-28601950D01*
X3609524Y-28601950D02*
X3647619Y-28640045D01*
X3647619Y-28640045D02*
X3685714Y-28716236D01*
X3685714Y-28716236D02*
X3723809Y-28868617D01*
X3723809Y-28868617D02*
X3723809Y-29059093D01*
X3723809Y-29059093D02*
X3685714Y-29211474D01*
X3685714Y-29211474D02*
X3647619Y-29287664D01*
X3647619Y-29287664D02*
X3609524Y-29325760D01*
X3609524Y-29325760D02*
X3533333Y-29363855D01*
X3533333Y-29363855D02*
X3457143Y-29363855D01*
X3457143Y-29363855D02*
X3380952Y-29325760D01*
X3380952Y-29325760D02*
X3342857Y-29287664D01*
X3342857Y-29287664D02*
X3304762Y-29211474D01*
X3304762Y-29211474D02*
X3266666Y-29059093D01*
X3266666Y-29059093D02*
X3266666Y-28868617D01*
X3266666Y-28868617D02*
X3304762Y-28716236D01*
X3304762Y-28716236D02*
X3342857Y-28640045D01*
X3342857Y-28640045D02*
X3380952Y-28601950D01*
X3380952Y-28601950D02*
X3457143Y-28563855D01*
X4219048Y-28563855D02*
X4295238Y-28563855D01*
X4295238Y-28563855D02*
X4371429Y-28601950D01*
X4371429Y-28601950D02*
X4409524Y-28640045D01*
X4409524Y-28640045D02*
X4447619Y-28716236D01*
X4447619Y-28716236D02*
X4485714Y-28868617D01*
X4485714Y-28868617D02*
X4485714Y-29059093D01*
X4485714Y-29059093D02*
X4447619Y-29211474D01*
X4447619Y-29211474D02*
X4409524Y-29287664D01*
X4409524Y-29287664D02*
X4371429Y-29325760D01*
X4371429Y-29325760D02*
X4295238Y-29363855D01*
X4295238Y-29363855D02*
X4219048Y-29363855D01*
X4219048Y-29363855D02*
X4142857Y-29325760D01*
X4142857Y-29325760D02*
X4104762Y-29287664D01*
X4104762Y-29287664D02*
X4066667Y-29211474D01*
X4066667Y-29211474D02*
X4028571Y-29059093D01*
X4028571Y-29059093D02*
X4028571Y-28868617D01*
X4028571Y-28868617D02*
X4066667Y-28716236D01*
X4066667Y-28716236D02*
X4104762Y-28640045D01*
X4104762Y-28640045D02*
X4142857Y-28601950D01*
X4142857Y-28601950D02*
X4219048Y-28563855D01*
X4828572Y-28830521D02*
X4828572Y-29363855D01*
X4828572Y-28906712D02*
X4866667Y-28868617D01*
X4866667Y-28868617D02*
X4942857Y-28830521D01*
X4942857Y-28830521D02*
X5057143Y-28830521D01*
X5057143Y-28830521D02*
X5133334Y-28868617D01*
X5133334Y-28868617D02*
X5171429Y-28944807D01*
X5171429Y-28944807D02*
X5171429Y-29363855D01*
X5819048Y-28944807D02*
X5552382Y-28944807D01*
X5552382Y-29363855D02*
X5552382Y-28563855D01*
X5552382Y-28563855D02*
X5933334Y-28563855D01*
D11*
X4158333Y-25589765D02*
X4146429Y-25601670D01*
X4146429Y-25601670D02*
X4110714Y-25613574D01*
X4110714Y-25613574D02*
X4086905Y-25613574D01*
X4086905Y-25613574D02*
X4051191Y-25601670D01*
X4051191Y-25601670D02*
X4027381Y-25577860D01*
X4027381Y-25577860D02*
X4015476Y-25554050D01*
X4015476Y-25554050D02*
X4003572Y-25506431D01*
X4003572Y-25506431D02*
X4003572Y-25470717D01*
X4003572Y-25470717D02*
X4015476Y-25423098D01*
X4015476Y-25423098D02*
X4027381Y-25399289D01*
X4027381Y-25399289D02*
X4051191Y-25375479D01*
X4051191Y-25375479D02*
X4086905Y-25363574D01*
X4086905Y-25363574D02*
X4110714Y-25363574D01*
X4110714Y-25363574D02*
X4146429Y-25375479D01*
X4146429Y-25375479D02*
X4158333Y-25387384D01*
X4241667Y-25363574D02*
X4396429Y-25363574D01*
X4396429Y-25363574D02*
X4313095Y-25458812D01*
X4313095Y-25458812D02*
X4348810Y-25458812D01*
X4348810Y-25458812D02*
X4372619Y-25470717D01*
X4372619Y-25470717D02*
X4384524Y-25482622D01*
X4384524Y-25482622D02*
X4396429Y-25506431D01*
X4396429Y-25506431D02*
X4396429Y-25565955D01*
X4396429Y-25565955D02*
X4384524Y-25589765D01*
X4384524Y-25589765D02*
X4372619Y-25601670D01*
X4372619Y-25601670D02*
X4348810Y-25613574D01*
X4348810Y-25613574D02*
X4277381Y-25613574D01*
X4277381Y-25613574D02*
X4253572Y-25601670D01*
X4253572Y-25601670D02*
X4241667Y-25589765D01*
D10*
X1528571Y-32713855D02*
X1528571Y-31913855D01*
X1528571Y-31913855D02*
X1795237Y-32485283D01*
X1795237Y-32485283D02*
X2061904Y-31913855D01*
X2061904Y-31913855D02*
X2061904Y-32713855D01*
X2404761Y-32675760D02*
X2519047Y-32713855D01*
X2519047Y-32713855D02*
X2709523Y-32713855D01*
X2709523Y-32713855D02*
X2785714Y-32675760D01*
X2785714Y-32675760D02*
X2823809Y-32637664D01*
X2823809Y-32637664D02*
X2861904Y-32561474D01*
X2861904Y-32561474D02*
X2861904Y-32485283D01*
X2861904Y-32485283D02*
X2823809Y-32409093D01*
X2823809Y-32409093D02*
X2785714Y-32370998D01*
X2785714Y-32370998D02*
X2709523Y-32332902D01*
X2709523Y-32332902D02*
X2557142Y-32294807D01*
X2557142Y-32294807D02*
X2480952Y-32256712D01*
X2480952Y-32256712D02*
X2442857Y-32218617D01*
X2442857Y-32218617D02*
X2404761Y-32142426D01*
X2404761Y-32142426D02*
X2404761Y-32066236D01*
X2404761Y-32066236D02*
X2442857Y-31990045D01*
X2442857Y-31990045D02*
X2480952Y-31951950D01*
X2480952Y-31951950D02*
X2557142Y-31913855D01*
X2557142Y-31913855D02*
X2747619Y-31913855D01*
X2747619Y-31913855D02*
X2861904Y-31951950D01*
X3204762Y-32713855D02*
X3204762Y-31913855D01*
X3661905Y-32713855D02*
X3319047Y-32256712D01*
X3661905Y-31913855D02*
X3204762Y-32370998D01*
X4423809Y-32713855D02*
X3966666Y-32713855D01*
X4195238Y-32713855D02*
X4195238Y-31913855D01*
X4195238Y-31913855D02*
X4119047Y-32028140D01*
X4119047Y-32028140D02*
X4042857Y-32104331D01*
X4042857Y-32104331D02*
X3966666Y-32142426D01*
X4728571Y-31990045D02*
X4766667Y-31951950D01*
X4766667Y-31951950D02*
X4842857Y-31913855D01*
X4842857Y-31913855D02*
X5033333Y-31913855D01*
X5033333Y-31913855D02*
X5109524Y-31951950D01*
X5109524Y-31951950D02*
X5147619Y-31990045D01*
X5147619Y-31990045D02*
X5185714Y-32066236D01*
X5185714Y-32066236D02*
X5185714Y-32142426D01*
X5185714Y-32142426D02*
X5147619Y-32256712D01*
X5147619Y-32256712D02*
X4690476Y-32713855D01*
X4690476Y-32713855D02*
X5185714Y-32713855D01*
X5985715Y-32637664D02*
X5947619Y-32675760D01*
X5947619Y-32675760D02*
X5833334Y-32713855D01*
X5833334Y-32713855D02*
X5757143Y-32713855D01*
X5757143Y-32713855D02*
X5642857Y-32675760D01*
X5642857Y-32675760D02*
X5566667Y-32599569D01*
X5566667Y-32599569D02*
X5528572Y-32523379D01*
X5528572Y-32523379D02*
X5490476Y-32370998D01*
X5490476Y-32370998D02*
X5490476Y-32256712D01*
X5490476Y-32256712D02*
X5528572Y-32104331D01*
X5528572Y-32104331D02*
X5566667Y-32028140D01*
X5566667Y-32028140D02*
X5642857Y-31951950D01*
X5642857Y-31951950D02*
X5757143Y-31913855D01*
X5757143Y-31913855D02*
X5833334Y-31913855D01*
X5833334Y-31913855D02*
X5947619Y-31951950D01*
X5947619Y-31951950D02*
X5985715Y-31990045D01*
X6480953Y-31913855D02*
X6557143Y-31913855D01*
X6557143Y-31913855D02*
X6633334Y-31951950D01*
X6633334Y-31951950D02*
X6671429Y-31990045D01*
X6671429Y-31990045D02*
X6709524Y-32066236D01*
X6709524Y-32066236D02*
X6747619Y-32218617D01*
X6747619Y-32218617D02*
X6747619Y-32409093D01*
X6747619Y-32409093D02*
X6709524Y-32561474D01*
X6709524Y-32561474D02*
X6671429Y-32637664D01*
X6671429Y-32637664D02*
X6633334Y-32675760D01*
X6633334Y-32675760D02*
X6557143Y-32713855D01*
X6557143Y-32713855D02*
X6480953Y-32713855D01*
X6480953Y-32713855D02*
X6404762Y-32675760D01*
X6404762Y-32675760D02*
X6366667Y-32637664D01*
X6366667Y-32637664D02*
X6328572Y-32561474D01*
X6328572Y-32561474D02*
X6290476Y-32409093D01*
X6290476Y-32409093D02*
X6290476Y-32218617D01*
X6290476Y-32218617D02*
X6328572Y-32066236D01*
X6328572Y-32066236D02*
X6366667Y-31990045D01*
X6366667Y-31990045D02*
X6404762Y-31951950D01*
X6404762Y-31951950D02*
X6480953Y-31913855D01*
X7052381Y-31990045D02*
X7090477Y-31951950D01*
X7090477Y-31951950D02*
X7166667Y-31913855D01*
X7166667Y-31913855D02*
X7357143Y-31913855D01*
X7357143Y-31913855D02*
X7433334Y-31951950D01*
X7433334Y-31951950D02*
X7471429Y-31990045D01*
X7471429Y-31990045D02*
X7509524Y-32066236D01*
X7509524Y-32066236D02*
X7509524Y-32142426D01*
X7509524Y-32142426D02*
X7471429Y-32256712D01*
X7471429Y-32256712D02*
X7014286Y-32713855D01*
X7014286Y-32713855D02*
X7509524Y-32713855D01*
X12295238Y-33263855D02*
X11914286Y-33263855D01*
X11914286Y-33263855D02*
X11876190Y-33644807D01*
X11876190Y-33644807D02*
X11914286Y-33606712D01*
X11914286Y-33606712D02*
X11990476Y-33568617D01*
X11990476Y-33568617D02*
X12180952Y-33568617D01*
X12180952Y-33568617D02*
X12257143Y-33606712D01*
X12257143Y-33606712D02*
X12295238Y-33644807D01*
X12295238Y-33644807D02*
X12333333Y-33720998D01*
X12333333Y-33720998D02*
X12333333Y-33911474D01*
X12333333Y-33911474D02*
X12295238Y-33987664D01*
X12295238Y-33987664D02*
X12257143Y-34025760D01*
X12257143Y-34025760D02*
X12180952Y-34063855D01*
X12180952Y-34063855D02*
X11990476Y-34063855D01*
X11990476Y-34063855D02*
X11914286Y-34025760D01*
X11914286Y-34025760D02*
X11876190Y-33987664D01*
X12676191Y-33987664D02*
X12714286Y-34025760D01*
X12714286Y-34025760D02*
X12676191Y-34063855D01*
X12676191Y-34063855D02*
X12638095Y-34025760D01*
X12638095Y-34025760D02*
X12676191Y-33987664D01*
X12676191Y-33987664D02*
X12676191Y-34063855D01*
X13476190Y-34063855D02*
X13019047Y-34063855D01*
X13247619Y-34063855D02*
X13247619Y-33263855D01*
X13247619Y-33263855D02*
X13171428Y-33378140D01*
X13171428Y-33378140D02*
X13095238Y-33454331D01*
X13095238Y-33454331D02*
X13019047Y-33492426D01*
X13819048Y-34063855D02*
X13819048Y-33263855D01*
X13895238Y-33759093D02*
X14123810Y-34063855D01*
X14123810Y-33530521D02*
X13819048Y-33835283D01*
D11*
X12956667Y-30318200D02*
X12870000Y-30194391D01*
X12808095Y-30318200D02*
X12808095Y-30058200D01*
X12808095Y-30058200D02*
X12907143Y-30058200D01*
X12907143Y-30058200D02*
X12931905Y-30070581D01*
X12931905Y-30070581D02*
X12944286Y-30082962D01*
X12944286Y-30082962D02*
X12956667Y-30107724D01*
X12956667Y-30107724D02*
X12956667Y-30144867D01*
X12956667Y-30144867D02*
X12944286Y-30169629D01*
X12944286Y-30169629D02*
X12931905Y-30182010D01*
X12931905Y-30182010D02*
X12907143Y-30194391D01*
X12907143Y-30194391D02*
X12808095Y-30194391D01*
X13204286Y-30318200D02*
X13055714Y-30318200D01*
X13130000Y-30318200D02*
X13130000Y-30058200D01*
X13130000Y-30058200D02*
X13105238Y-30095343D01*
X13105238Y-30095343D02*
X13080476Y-30120105D01*
X13080476Y-30120105D02*
X13055714Y-30132486D01*
%TO.C,R3*%
D17*
X15975000Y-24230000D02*
X17025000Y-24230000D01*
X17025000Y-24770000D01*
X15975000Y-24770000D01*
X15975000Y-24230000D01*
%TO.C,J2*%
X7500000Y-30800000D02*
X16500000Y-30800000D01*
X16500000Y-34200000D01*
X7500000Y-34200000D01*
X7500000Y-30800000D01*
%TO.C,R7*%
X15975000Y-21230000D02*
X17025000Y-21230000D01*
X17025000Y-21770000D01*
X15975000Y-21770000D01*
X15975000Y-21230000D01*
%TO.C,ANT3*%
X700000Y-18200000D02*
X3900000Y-18200000D01*
X3900000Y-19800000D01*
X700000Y-19800000D01*
X700000Y-18200000D01*
%TO.C,C6*%
X10000000Y-19550000D02*
X11000000Y-19550000D01*
X11000000Y-20050000D01*
X10000000Y-20050000D01*
X10000000Y-19550000D01*
%TO.C,U4*%
X20525000Y-20050000D02*
X23450000Y-20050000D01*
X23450000Y-24950000D01*
X19550000Y-24950000D01*
X19550000Y-21025000D01*
X20525000Y-20050000D01*
%TO.C,J1*%
X625000Y-32900000D02*
X625000Y-36950000D01*
X625000Y-32900000D02*
X6375000Y-32900000D01*
X625000Y-36950000D02*
X6375000Y-36950000D01*
X2375000Y-32900000D02*
X2875000Y-33607107D01*
X2875000Y-33607107D02*
X3375000Y-32900000D01*
X6375000Y-32900000D02*
X6375000Y-36950000D01*
%TO.C,R6*%
X12475000Y-20730000D02*
X13525000Y-20730000D01*
X13525000Y-21270000D01*
X12475000Y-21270000D01*
X12475000Y-20730000D01*
%TO.C,R4*%
X15475000Y-26030000D02*
X16525000Y-26030000D01*
X16525000Y-26570000D01*
X15475000Y-26570000D01*
X15475000Y-26030000D01*
%TO.C,C11*%
X1500000Y-6375000D02*
X3500000Y-6375000D01*
X3500000Y-7625000D01*
X1500000Y-7625000D01*
X1500000Y-6375000D01*
%TO.C,U1*%
X6200000Y-2150000D02*
X23800000Y-2150000D01*
X23800000Y-17850000D01*
X6200000Y-17850000D01*
X6200000Y-2150000D01*
%TO.C,C1*%
X3700000Y-21250000D02*
X4700000Y-21250000D01*
X4700000Y-21750000D01*
X3700000Y-21750000D01*
X3700000Y-21250000D01*
%TO.C,C2*%
X3700000Y-23250000D02*
X4700000Y-23250000D01*
X4700000Y-23750000D01*
X3700000Y-23750000D01*
X3700000Y-23250000D01*
%TO.C,LED1*%
X15600000Y-27750000D02*
X15600000Y-27250000D01*
X15700000Y-27750000D02*
X15700000Y-27250000D01*
X15500000Y-27250000D02*
X16500000Y-27250000D01*
X16500000Y-27750000D01*
X15500000Y-27750000D01*
X15500000Y-27250000D01*
%TO.C,ANT2*%
X26450000Y-13800000D02*
X26450000Y-13350000D01*
X26450000Y-13800000D02*
X26700000Y-13800000D01*
X26600000Y-13200000D02*
X26450000Y-13350000D01*
X26600000Y-13200000D02*
X26700000Y-13200000D01*
X26700000Y-13200000D02*
X26700000Y-12200000D01*
X26700000Y-13800000D02*
X26700000Y-14800000D01*
X27100000Y-12000000D02*
X27100000Y-12200000D01*
X27100000Y-12000000D02*
X28900000Y-12000000D01*
X27100000Y-12200000D02*
X26700000Y-12200000D01*
X27100000Y-14800000D02*
X26700000Y-14800000D01*
X27100000Y-15000000D02*
X27100000Y-14800000D01*
X27100000Y-15000000D02*
X28900000Y-15000000D01*
X28900000Y-12000000D02*
X28900000Y-12200000D01*
X28900000Y-15000000D02*
X28900000Y-14800000D01*
X29300000Y-12200000D02*
X28900000Y-12200000D01*
X29300000Y-12200000D02*
X29300000Y-14800000D01*
X29300000Y-14800000D02*
X28900000Y-14800000D01*
%TO.C,C9*%
X10500000Y-27875000D02*
X12500000Y-27875000D01*
X12500000Y-29125000D01*
X10500000Y-29125000D01*
X10500000Y-27875000D01*
%TO.C,C5*%
X8000000Y-19550000D02*
X9000000Y-19550000D01*
X9000000Y-20050000D01*
X8000000Y-20050000D01*
X8000000Y-19550000D01*
%TO.C,C8*%
X14000000Y-21750000D02*
X15000000Y-21750000D01*
X15000000Y-22250000D01*
X14000000Y-22250000D01*
X14000000Y-21750000D01*
%TO.C,U5*%
X27100000Y-20550000D02*
X28300000Y-20550000D01*
X28300000Y-23450000D01*
X26700000Y-23450000D01*
X26700000Y-20950000D01*
X27100000Y-20550000D01*
%TO.C,U2*%
X7000000Y-21000000D02*
X11000000Y-21000000D01*
X11000000Y-26000000D01*
X6000000Y-26000000D01*
X6000000Y-22000000D01*
X7000000Y-21000000D01*
%TO.C,C10*%
X26500000Y-24375000D02*
X28500000Y-24375000D01*
X28500000Y-25625000D01*
X26500000Y-25625000D01*
X26500000Y-24375000D01*
%TO.C,C7*%
X12100000Y-21750000D02*
X13100000Y-21750000D01*
X13100000Y-22250000D01*
X12100000Y-22250000D01*
X12100000Y-21750000D01*
%TO.C,ANT1*%
X26450000Y-4800000D02*
X26450000Y-4350000D01*
X26450000Y-4800000D02*
X26700000Y-4800000D01*
X26600000Y-4200000D02*
X26450000Y-4350000D01*
X26600000Y-4200000D02*
X26700000Y-4200000D01*
X26700000Y-4200000D02*
X26700000Y-3200000D01*
X26700000Y-4800000D02*
X26700000Y-5800000D01*
X27100000Y-3000000D02*
X27100000Y-3200000D01*
X27100000Y-3000000D02*
X28900000Y-3000000D01*
X27100000Y-3200000D02*
X26700000Y-3200000D01*
X27100000Y-5800000D02*
X26700000Y-5800000D01*
X27100000Y-6000000D02*
X27100000Y-5800000D01*
X27100000Y-6000000D02*
X28900000Y-6000000D01*
X28900000Y-3000000D02*
X28900000Y-3200000D01*
X28900000Y-6000000D02*
X28900000Y-5800000D01*
X29300000Y-3200000D02*
X28900000Y-3200000D01*
X29300000Y-3200000D02*
X29300000Y-5800000D01*
X29300000Y-5800000D02*
X28900000Y-5800000D01*
%TO.C,C12*%
X1500000Y-12375000D02*
X3500000Y-12375000D01*
X3500000Y-13625000D01*
X1500000Y-13625000D01*
X1500000Y-12375000D01*
%TO.C,C13*%
X2900000Y-32050000D02*
X6100000Y-32050000D01*
X6100000Y-34550000D01*
X2900000Y-34550000D01*
X2900000Y-32050000D01*
%TO.C,R5*%
X12475000Y-19530000D02*
X13525000Y-19530000D01*
X13525000Y-20070000D01*
X12475000Y-20070000D01*
X12475000Y-19530000D01*
%TO.C,U3*%
X12500000Y-24000000D02*
X13000000Y-23500000D01*
X12500000Y-25500000D02*
X12500000Y-24000000D01*
X13000000Y-23500000D02*
X14500000Y-23500000D01*
X14500000Y-23500000D02*
X14500000Y-25500000D01*
X14500000Y-25500000D02*
X12500000Y-25500000D01*
%TO.C,R2*%
X14975000Y-29530000D02*
X16025000Y-29530000D01*
X16025000Y-30070000D01*
X14975000Y-30070000D01*
X14975000Y-29530000D01*
%TO.C,C4*%
X6000000Y-18750000D02*
X7000000Y-18750000D01*
X7000000Y-19250000D01*
X6000000Y-19250000D01*
X6000000Y-18750000D01*
%TO.C,SIM1*%
X17350000Y-26900000D02*
X29850000Y-26900000D01*
X29850000Y-34800000D01*
X17350000Y-34800000D01*
X17350000Y-26900000D01*
%TO.C,C3*%
X3700000Y-25250000D02*
X4700000Y-25250000D01*
X4700000Y-25750000D01*
X3700000Y-25750000D01*
X3700000Y-25250000D01*
%TO.C,SW1*%
X250000Y-27050000D02*
X8750000Y-27050000D01*
X8750000Y-30650000D01*
X250000Y-30650000D01*
X250000Y-27050000D01*
%TO.C,R1*%
X12475000Y-29930000D02*
X13525000Y-29930000D01*
X13525000Y-30470000D01*
X12475000Y-30470000D01*
X12475000Y-29930000D01*
%TD*%
M02*
