M48
; DRILL file KiCad 10.0.3 date 2026-06-10T18:34:29
; FORMAT={-:-/ absolute / metric / decimal}
; #@! TF.CreationDate,2026-06-10T18:34:29+09:00
; #@! TF.GenerationSoftware,Kicad,Pcbnew,10.0.3
; #@! TF.FileFunction,MixedPlating,1,2
FMAT,2
METRIC
; #@! TA.AperFunction,Plated,PTH,ViaDrill
T1C0.300
%
G90
G05
T1
X1.55Y-7.0
X1.55Y-13.0
X2.0Y-28.85
X3.0Y-0.9
X3.5Y-26.5
X4.0Y-18.5
X4.0Y-18.5
X4.5Y-24.5
X4.5Y-25.4
X4.7Y-1.26
X4.7Y-22.6
X5.5Y-25.25
X6.05Y-22.5
X6.5Y-19.6
X6.5Y-21.0
X7.0Y-23.3
X7.75Y-19.6
X7.75Y-25.95
X8.35Y-33.0
X8.7Y-21.05
X9.15Y-25.95
X10.1Y-21.0
X10.73Y-19.2
X10.75Y-30.5
X10.85Y-25.95
X11.1Y-33.9
X11.25Y-32.0
X11.6Y-28.2
X11.8Y-19.6
X11.8Y-19.6
X11.8Y-25.5
X11.8Y-25.5
X11.95Y-28.5
X12.2Y-31.3
X12.49Y-31.25
X12.8Y-18.74
X12.9Y-22.2
X13.35Y-21.0
X13.51Y-32.0
X13.75Y-25.95
X13.9Y-1.26
X13.9Y-18.74
X15.0Y-18.74
X15.2Y-20.5
X15.49Y-26.3
X15.49Y-26.3
X15.515Y-27.5
X15.6Y-27.5
X15.99Y-24.0
X16.1Y-18.74
X16.485Y-27.5
X16.86Y-23.4
X18.1Y-23.0
X18.25Y-28.2
X19.025Y-24.405
X19.4Y-1.26
X19.5Y-23.5
X19.8Y-28.2
X20.0Y-29.8
X20.5Y-5.05
X20.5Y-12.0
X20.5Y-24.0
X22.0Y-28.8
X24.0Y-31.3
X24.7Y-28.8
X25.3Y-3.0
X25.3Y-14.95
X25.3Y-33.0
X25.5Y-11.5
X26.4Y-28.0
X26.55Y-19.6
X26.55Y-25.0
X26.6Y-26.5
X26.7Y-2.4
X26.7Y-9.45
X27.5Y-21.05
X27.9Y-25.0
X28.5Y-16.05
X29.5Y-5.0
X29.5Y-12.0
X29.5Y-19.0
X29.5Y-25.0
X29.5Y-30.0
M30
