M48
; DRILL file KiCad 10.0.3 date 2026-06-08T13:37:16
; FORMAT={-:-/ absolute / metric / decimal}
; #@! TF.CreationDate,2026-06-08T13:37:16+09:00
; #@! TF.GenerationSoftware,Kicad,Pcbnew,10.0.3
; #@! TF.FileFunction,MixedPlating,1,2
FMAT,2
METRIC
; #@! TA.AperFunction,Plated,PTH,ViaDrill
T1C0.150
; #@! TA.AperFunction,Plated,PTH,ViaDrill
T2C0.200
; #@! TA.AperFunction,Plated,PTH,ViaDrill
T3C0.250
; #@! TA.AperFunction,Plated,PTH,ViaDrill
T4C0.300
%
G90
G05
T1
X5.35Y-24.0
X5.35Y-25.5
T2
X2.2Y-17.2
X5.65Y-13.6
X5.65Y-15.4
X6.05Y-24.25
X9.25Y-21.05
X10.25Y-25.95
X14.262Y-24.25
T3
X2.875Y-26.95
X2.875Y-31.3
X5.65Y-6.4
X5.65Y-8.2
X8.75Y-21.05
X10.2Y-4.4
X12.6Y-4.0
X15.9Y-3.4
X18.1Y-2.2
X20.5Y-31.3
X21.06Y-28.8
X23.6Y-28.8
X26.14Y-28.8
T4
X1.0Y-7.5
X1.0Y-13.5
X1.0Y-28.5
X3.5Y-26.5
X4.0Y-18.5
X4.0Y-18.5
X6.05Y-22.5
X6.5Y-19.6
X6.5Y-21.0
X7.75Y-19.6
X7.75Y-25.95
X10.75Y-30.5
X11.8Y-19.6
X11.8Y-19.6
X11.8Y-23.0
X11.8Y-25.5
X11.8Y-25.5
X18.0Y-26.5
X19.025Y-24.405
X19.5Y-23.5
X24.5Y-1.0
X25.5Y-11.5
X26.55Y-19.6
X26.55Y-25.0
X27.5Y-21.0
X27.5Y-24.0
X29.5Y-5.0
X29.5Y-12.0
X29.5Y-19.0
X29.5Y-25.0
X29.5Y-30.0
M30
