%TF.GenerationSoftware,KiCad,Pcbnew,10.0.3*%
%TF.CreationDate,2026-06-07T17:05:49+09:00*%
%TF.ProjectId,lte-m-cat-tracker,6c74652d-6d2d-4636-9174-2d747261636b,rev?*%
%TF.SameCoordinates,Original*%
%TF.FileFunction,Copper,L2,Bot*%
%TF.FilePolarity,Positive*%
%FSLAX46Y46*%
G04 Gerber Fmt 4.6, Leading zero omitted, Abs format (unit mm)*
G04 Created by KiCad (PCBNEW 10.0.3) date 2026-06-07 17:05:49*
%MOMM*%
%LPD*%
G01*
G04 APERTURE LIST*
%TA.AperFunction,ViaPad*%
%ADD10C,0.600000*%
%TD*%
%TA.AperFunction,ViaPad*%
%ADD11C,0.400000*%
%TD*%
%TA.AperFunction,ViaPad*%
%ADD12C,0.300000*%
%TD*%
%TA.AperFunction,ViaPad*%
%ADD13C,0.500000*%
%TD*%
%TA.AperFunction,Conductor*%
%ADD14C,0.500000*%
%TD*%
%TA.AperFunction,Conductor*%
%ADD15C,0.300000*%
%TD*%
%TA.AperFunction,Conductor*%
%ADD16C,0.200000*%
%TD*%
G04 APERTURE END LIST*
D10*
%TO.N,GND*%
X29500000Y-5000000D03*
X29500000Y-12000000D03*
X29500000Y-19000000D03*
X29500000Y-25000000D03*
X29500000Y-30000000D03*
%TO.N,VBAT_SW*%
X1000000Y-28500000D03*
X1000000Y-7500000D03*
X1000000Y-13500000D03*
X24500000Y-1000000D03*
X27500000Y-1000000D03*
X27500000Y-21000000D03*
X27500000Y-24000000D03*
%TO.N,+3.3V*%
X26550000Y-19600000D03*
X26550000Y-25000000D03*
X6500000Y-19600000D03*
X6500000Y-21000000D03*
X3500000Y-26500000D03*
X7750000Y-19600000D03*
X7750000Y-25950000D03*
X11800000Y-19600000D03*
X11800000Y-25500000D03*
X11800000Y-19600000D03*
X11800000Y-23000000D03*
X11800000Y-25500000D03*
D11*
%TO.N,SIM_PWRKEY*%
X2200000Y-17200000D03*
D12*
X5350000Y-25500000D03*
D11*
%TO.N,SIM_STATUS*%
X5650000Y-15400000D03*
D12*
X5350000Y-24000000D03*
D11*
%TO.N,SIM_RESETN*%
X5650000Y-13600000D03*
X2700000Y-24250000D03*
D13*
%TO.N,SIM_TXD*%
X5650000Y-8200000D03*
D11*
X9250000Y-21050000D03*
D13*
%TO.N,SIM_RXD*%
X5650000Y-6400000D03*
%TO.N,SIM_VDD*%
X10200000Y-4400000D03*
X21060000Y-28800000D03*
%TO.N,SIM_DATA*%
X12600000Y-4000000D03*
X23600000Y-28800000D03*
%TO.N,SIM_CLK*%
X15900000Y-3400000D03*
X26140000Y-28800000D03*
%TO.N,SIM_RST*%
X18100000Y-2200000D03*
X20500000Y-31300000D03*
D11*
%TO.N,ACCEL_INT1*%
X14262000Y-24250000D03*
X10250000Y-27000000D03*
D13*
%TO.N,SIM_RXD*%
X8750000Y-21050000D03*
D10*
%TO.N,VUSB*%
X10750000Y-30500000D03*
X19025000Y-24405000D03*
%TO.N,GND*%
X29500000Y-5000000D03*
X29500000Y-12000000D03*
X29500000Y-19000000D03*
X29500000Y-25000000D03*
X29500000Y-30000000D03*
%TO.N,VBAT_SW*%
X1000000Y-28500000D03*
X1000000Y-7500000D03*
X1000000Y-13500000D03*
X24500000Y-1000000D03*
X27500000Y-1000000D03*
X27500000Y-21000000D03*
X27500000Y-24000000D03*
%TO.N,+3.3V*%
X26550000Y-19600000D03*
X26550000Y-25000000D03*
X6500000Y-19600000D03*
X6500000Y-21000000D03*
X3500000Y-26500000D03*
X7750000Y-19600000D03*
X7750000Y-25950000D03*
X11800000Y-19600000D03*
X11800000Y-25500000D03*
X11800000Y-19600000D03*
X11800000Y-23000000D03*
X11800000Y-25500000D03*
D11*
%TO.N,SIM_PWRKEY*%
X2200000Y-17200000D03*
D12*
X5350000Y-25500000D03*
D11*
%TO.N,SIM_STATUS*%
X5650000Y-15400000D03*
D12*
X5350000Y-24000000D03*
D11*
%TO.N,SIM_RESETN*%
X5650000Y-13600000D03*
X2700000Y-24250000D03*
D13*
%TO.N,SIM_TXD*%
X5650000Y-8200000D03*
D11*
X9250000Y-21050000D03*
D13*
%TO.N,SIM_RXD*%
X5650000Y-6400000D03*
%TO.N,SIM_VDD*%
X10200000Y-4400000D03*
X21060000Y-28800000D03*
%TO.N,SIM_DATA*%
X12600000Y-4000000D03*
X23600000Y-28800000D03*
%TO.N,SIM_CLK*%
X15900000Y-3400000D03*
X26140000Y-28800000D03*
%TO.N,SIM_RST*%
X18100000Y-2200000D03*
X20500000Y-31300000D03*
D11*
%TO.N,ACCEL_INT1*%
X14262000Y-24250000D03*
X10250000Y-27000000D03*
D13*
%TO.N,SIM_RXD*%
X8750000Y-21050000D03*
D10*
%TO.N,VUSB*%
X10750000Y-30500000D03*
X19025000Y-24405000D03*
%TD*%
%TO.N,VBAT_SW*%
D14*
X1000000Y-28500000D02*
X1000000Y-1000000D01*
X1000000Y-1000000D02*
X27500000Y-1000000D01*
X27500000Y-1000000D02*
X27500000Y-24500000D01*
%TO.N,+3.3V*%
D15*
X26550000Y-19600000D02*
X26550000Y-25000000D01*
X6500000Y-19600000D02*
X6500000Y-21000000D01*
X7750000Y-25950000D02*
X7750000Y-26500000D01*
X7750000Y-26500000D02*
X3500000Y-26500000D01*
X7750000Y-19600000D02*
X7750000Y-25950000D01*
X11800000Y-19600000D02*
X11800000Y-25500000D01*
X11800000Y-19600000D02*
X11800000Y-25500000D01*
%TO.N,SIM_PWRKEY*%
D16*
X2200000Y-17200000D02*
X2200000Y-25500000D01*
X2200000Y-25500000D02*
X5350000Y-25500000D01*
%TO.N,SIM_STATUS*%
X5650000Y-15400000D02*
X4700000Y-15400000D01*
X4700000Y-15400000D02*
X4700000Y-24000000D01*
X4700000Y-24000000D02*
X5350000Y-24000000D01*
%TO.N,SIM_RESETN*%
X5650000Y-13600000D02*
X2700000Y-13600000D01*
X2700000Y-13600000D02*
X2700000Y-24250000D01*
%TO.N,SIM_TXD*%
X5650000Y-8200000D02*
X3500000Y-8200000D01*
X3500000Y-8200000D02*
X3500000Y-13000000D01*
X3500000Y-13000000D02*
X9250000Y-13000000D01*
X9250000Y-13000000D02*
X9250000Y-21050000D01*
%TO.N,SIM_RXD*%
X5650000Y-6400000D02*
X8750000Y-6400000D01*
X8750000Y-6400000D02*
X8750000Y-20000000D01*
%TO.N,SIM_VDD*%
X10200000Y-4400000D02*
X21060000Y-4400000D01*
X21060000Y-4400000D02*
X21060000Y-28800000D01*
%TO.N,SIM_DATA*%
X12600000Y-4000000D02*
X23600000Y-4000000D01*
X23600000Y-4000000D02*
X23600000Y-28800000D01*
%TO.N,SIM_CLK*%
X15900000Y-3400000D02*
X26140000Y-3400000D01*
X26140000Y-3700000D02*
X26140000Y-28800000D01*
%TO.N,SIM_RST*%
X18100000Y-2200000D02*
X20500000Y-2200000D01*
X20500000Y-2000000D02*
X20500000Y-31300000D01*
%TO.N,ACCEL_INT1*%
X14262000Y-24250000D02*
X14262000Y-27000000D01*
X14262000Y-27000000D02*
X10250000Y-27000000D01*
%TO.N,SIM_RXD*%
X8750000Y-20000000D02*
X8750000Y-21050000D01*
%TO.N,VUSB*%
D14*
X10750000Y-30500000D02*
X19025000Y-30500000D01*
X19025000Y-30500000D02*
X19025000Y-24405000D01*
%TO.N,VBAT_SW*%
X1000000Y-28500000D02*
X1000000Y-1000000D01*
X1000000Y-1000000D02*
X27500000Y-1000000D01*
X27500000Y-1000000D02*
X27500000Y-24500000D01*
%TO.N,+3.3V*%
D15*
X26550000Y-19600000D02*
X26550000Y-25000000D01*
X6500000Y-19600000D02*
X6500000Y-21000000D01*
X7750000Y-25950000D02*
X7750000Y-26500000D01*
X7750000Y-26500000D02*
X3500000Y-26500000D01*
X7750000Y-19600000D02*
X7750000Y-25950000D01*
X11800000Y-19600000D02*
X11800000Y-25500000D01*
X11800000Y-19600000D02*
X11800000Y-25500000D01*
%TO.N,SIM_PWRKEY*%
D16*
X2200000Y-17200000D02*
X2200000Y-25500000D01*
X2200000Y-25500000D02*
X5350000Y-25500000D01*
%TO.N,SIM_STATUS*%
X5650000Y-15400000D02*
X4700000Y-15400000D01*
X4700000Y-15400000D02*
X4700000Y-24000000D01*
X4700000Y-24000000D02*
X5350000Y-24000000D01*
%TO.N,SIM_RESETN*%
X5650000Y-13600000D02*
X2700000Y-13600000D01*
X2700000Y-13600000D02*
X2700000Y-24250000D01*
%TO.N,SIM_TXD*%
X5650000Y-8200000D02*
X3500000Y-8200000D01*
X3500000Y-8200000D02*
X3500000Y-13000000D01*
X3500000Y-13000000D02*
X9250000Y-13000000D01*
X9250000Y-13000000D02*
X9250000Y-21050000D01*
%TO.N,SIM_RXD*%
X5650000Y-6400000D02*
X8750000Y-6400000D01*
X8750000Y-6400000D02*
X8750000Y-20000000D01*
%TO.N,SIM_VDD*%
X10200000Y-4400000D02*
X21060000Y-4400000D01*
X21060000Y-4400000D02*
X21060000Y-28800000D01*
%TO.N,SIM_DATA*%
X12600000Y-4000000D02*
X23600000Y-4000000D01*
X23600000Y-4000000D02*
X23600000Y-28800000D01*
%TO.N,SIM_CLK*%
X15900000Y-3400000D02*
X26140000Y-3400000D01*
X26140000Y-3700000D02*
X26140000Y-28800000D01*
%TO.N,SIM_RST*%
X18100000Y-2200000D02*
X20500000Y-2200000D01*
X20500000Y-2000000D02*
X20500000Y-31300000D01*
%TO.N,ACCEL_INT1*%
X14262000Y-24250000D02*
X14262000Y-27000000D01*
X14262000Y-27000000D02*
X10250000Y-27000000D01*
%TO.N,SIM_RXD*%
X8750000Y-20000000D02*
X8750000Y-21050000D01*
%TO.N,VUSB*%
D14*
X10750000Y-30500000D02*
X19025000Y-30500000D01*
X19025000Y-30500000D02*
X19025000Y-24405000D01*
%TD*%
%TA.AperFunction,Conductor*%
%TO.N,GND*%
G36*
X29742539Y-220185D02*
G01*
X29788294Y-272989D01*
X29799500Y-324500D01*
X29799500Y-34675500D01*
X29779815Y-34742539D01*
X29727011Y-34788294D01*
X29675500Y-34799500D01*
X324500Y-34799500D01*
X257461Y-34779815D01*
X211706Y-34727011D01*
X200500Y-34675500D01*
X200500Y-324500D01*
X220185Y-257461D01*
X272989Y-211706D01*
X324500Y-200500D01*
X29675500Y-200500D01*
X29742539Y-220185D01*
G37*
%TD.AperFunction*%
%TD*%
M02*
