%TF.GenerationSoftware,KiCad,Pcbnew,10.0.3*%
%TF.CreationDate,2026-06-07T17:05:49+09:00*%
%TF.ProjectId,lte-m-cat-tracker,6c74652d-6d2d-4636-9174-2d747261636b,rev?*%
%TF.SameCoordinates,Original*%
%TF.FileFunction,Copper,L1,Top*%
%TF.FilePolarity,Positive*%
%FSLAX46Y46*%
G04 Gerber Fmt 4.6, Leading zero omitted, Abs format (unit mm)*
G04 Created by KiCad (PCBNEW 10.0.3) date 2026-06-07 17:05:49*
%MOMM*%
%LPD*%
G01*
G04 APERTURE LIST*
G04 Aperture macros list*
%AMRoundRect*
0 Rectangle with rounded corners*
0 $1 Rounding radius*
0 $2 $3 $4 $5 $6 $7 $8 $9 X,Y pos of 4 corners*
0 Add a 4 corners polygon primitive as box body*
4,1,4,$2,$3,$4,$5,$6,$7,$8,$9,$2,$3,0*
0 Add four circle primitives for the rounded corners*
1,1,$1+$1,$2,$3*
1,1,$1+$1,$4,$5*
1,1,$1+$1,$6,$7*
1,1,$1+$1,$8,$9*
0 Add four rect primitives between the rounded corners*
20,1,$1+$1,$2,$3,$4,$5,0*
20,1,$1+$1,$4,$5,$6,$7,0*
20,1,$1+$1,$6,$7,$8,$9,0*
20,1,$1+$1,$8,$9,$2,$3,0*%
G04 Aperture macros list end*
%TA.AperFunction,SMDPad,CuDef*%
%ADD10R,0.540000X0.640000*%
%TD*%
%TA.AperFunction,SMDPad,CuDef*%
%ADD11R,0.300000X0.800000*%
%TD*%
%TA.AperFunction,SMDPad,CuDef*%
%ADD12R,2.400000X1.200000*%
%TD*%
%TA.AperFunction,SMDPad,CuDef*%
%ADD13R,1.600000X1.800000*%
%TD*%
%TA.AperFunction,SMDPad,CuDef*%
%ADD14R,0.560000X0.620000*%
%TD*%
%TA.AperFunction,SMDPad,CuDef*%
%ADD15R,1.950000X0.600000*%
%TD*%
%TA.AperFunction,SMDPad,CuDef*%
%ADD16R,0.600000X1.700000*%
%TD*%
%TA.AperFunction,SMDPad,CuDef*%
%ADD17R,1.000000X2.700000*%
%TD*%
%TA.AperFunction,SMDPad,CuDef*%
%ADD18R,1.000000X1.450000*%
%TD*%
%TA.AperFunction,SMDPad,CuDef*%
%ADD19R,1.500000X1.000000*%
%TD*%
%TA.AperFunction,SMDPad,CuDef*%
%ADD20R,1.000000X1.500000*%
%TD*%
%TA.AperFunction,SMDPad,CuDef*%
%ADD21R,0.800000X0.800000*%
%TD*%
%TA.AperFunction,SMDPad,CuDef*%
%ADD22R,0.590000X0.640000*%
%TD*%
%TA.AperFunction,SMDPad,CuDef*%
%ADD23R,1.050000X1.000000*%
%TD*%
%TA.AperFunction,SMDPad,CuDef*%
%ADD24R,2.200000X1.050000*%
%TD*%
%TA.AperFunction,SMDPad,CuDef*%
%ADD25R,1.325000X0.600000*%
%TD*%
%TA.AperFunction,SMDPad,CuDef*%
%ADD26R,0.800000X0.250000*%
%TD*%
%TA.AperFunction,SMDPad,CuDef*%
%ADD27R,0.250000X0.800000*%
%TD*%
%TA.AperFunction,SMDPad,CuDef*%
%ADD28R,3.700000X3.700000*%
%TD*%
%TA.AperFunction,SMDPad,CuDef*%
%ADD29R,0.375000X0.350000*%
%TD*%
%TA.AperFunction,SMDPad,CuDef*%
%ADD30R,1.100000X1.500000*%
%TD*%
%TA.AperFunction,SMDPad,CuDef*%
%ADD31R,0.800000X1.200000*%
%TD*%
%TA.AperFunction,SMDPad,CuDef*%
%ADD32RoundRect,0.250000X-0.325000X-1.100000X0.325000X-1.100000X0.325000X1.100000X-0.325000X1.100000X0*%
%TD*%
%TA.AperFunction,ViaPad*%
%ADD33C,0.600000*%
%TD*%
%TA.AperFunction,ViaPad*%
%ADD34C,0.400000*%
%TD*%
%TA.AperFunction,ViaPad*%
%ADD35C,0.300000*%
%TD*%
%TA.AperFunction,ViaPad*%
%ADD36C,0.500000*%
%TD*%
%TA.AperFunction,Conductor*%
%ADD37C,0.500000*%
%TD*%
%TA.AperFunction,Conductor*%
%ADD38C,0.300000*%
%TD*%
%TA.AperFunction,Conductor*%
%ADD39C,0.200000*%
%TD*%
G04 APERTURE END LIST*
D10*
%TO.P,R3,1*%
%TO.N,N/C*%
X15990000Y-24500000D03*
%TO.P,R3,2*%
%TO.N,GND*%
X17010000Y-24500000D03*
%TD*%
D11*
%TO.P,J2,A1*%
%TO.N,GND*%
X10250000Y-31300000D03*
%TO.P,J2,A4*%
%TO.N,VUSB*%
X10750000Y-31300000D03*
%TO.P,J2,A5*%
%TO.N,N/C*%
X11250000Y-31300000D03*
%TO.P,J2,A6*%
X11750000Y-31300000D03*
%TO.P,J2,A7*%
X12250000Y-31300000D03*
%TO.P,J2,A8*%
X12750000Y-31300000D03*
%TO.P,J2,A11*%
X13250000Y-34700000D03*
%TO.P,J2,A12*%
X13750000Y-34700000D03*
%TO.P,J2,B1*%
%TO.N,GND*%
X10250000Y-34700000D03*
%TO.P,J2,B4*%
%TO.N,N/C*%
X10750000Y-34700000D03*
%TO.P,J2,B5*%
X11250000Y-34700000D03*
%TO.P,J2,B6*%
X11750000Y-34700000D03*
%TO.P,J2,B7*%
X12250000Y-34700000D03*
%TO.P,J2,B8*%
X12750000Y-34700000D03*
%TO.P,J2,B11*%
X13250000Y-31300000D03*
%TO.P,J2,B12*%
X13750000Y-31300000D03*
D12*
%TO.P,J2,S*%
X15500000Y-34600000D03*
%TD*%
D10*
%TO.P,R7,1*%
%TO.N,+3.3V*%
X15990000Y-21500000D03*
%TO.P,R7,2*%
%TO.N,I2C_SCL*%
X17010000Y-21500000D03*
%TD*%
D13*
%TO.P,ANT3,1*%
%TO.N,WIFI_ANT*%
X500000Y-19000000D03*
%TO.P,ANT3,2*%
%TO.N,GND*%
X3100000Y-19000000D03*
%TD*%
D14*
%TO.P,C6,1*%
%TO.N,+3.3V*%
X10020000Y-19800000D03*
%TO.P,C6,2*%
%TO.N,GND*%
X10980000Y-19800000D03*
%TD*%
D15*
%TO.P,U4,1*%
%TO.N,N/C*%
X19025000Y-20595000D03*
%TO.P,U4,2*%
X19025000Y-21865000D03*
%TO.P,U4,3*%
%TO.N,GND*%
X19025000Y-23135000D03*
%TO.P,U4,4*%
%TO.N,VUSB*%
X19025000Y-24405000D03*
%TO.P,U4,5*%
%TO.N,VBAT*%
X23975000Y-24405000D03*
%TO.P,U4,6*%
%TO.N,N/C*%
X23975000Y-23135000D03*
%TO.P,U4,7*%
%TO.N,CHRG*%
X23975000Y-21865000D03*
%TO.P,U4,8*%
%TO.N,+3.3V*%
X23975000Y-20595000D03*
%TD*%
D16*
%TO.P,J1,1*%
%TO.N,VBAT*%
X2875000Y-32650000D03*
%TO.P,J1,2*%
%TO.N,GND*%
X4125000Y-32650000D03*
D17*
%TO.P,J1,MP*%
%TO.N,N/C*%
X5975000Y-35850000D03*
%TD*%
D10*
%TO.P,R6,1*%
%TO.N,+3.3V*%
X12490000Y-21000000D03*
%TO.P,R6,2*%
%TO.N,I2C_SDA*%
X13510000Y-21000000D03*
%TD*%
%TO.P,R4,1*%
%TO.N,N/C*%
X15490000Y-26300000D03*
%TO.P,R4,2*%
%TO.N,CHRG*%
X16510000Y-26300000D03*
%TD*%
D18*
%TO.P,C11,1*%
%TO.N,VBAT_SW*%
X1550000Y-7000000D03*
%TO.P,C11,2*%
%TO.N,GND*%
X3450000Y-7000000D03*
%TD*%
D19*
%TO.P,U1,1*%
%TO.N,VBAT_SW*%
X24350000Y-2800000D03*
%TO.P,U1,2*%
X24350000Y-4600000D03*
%TO.P,U1,3*%
X24350000Y-6400000D03*
%TO.P,U1,4*%
X24350000Y-8200000D03*
%TO.P,U1,5*%
%TO.N,GND*%
X24350000Y-10000000D03*
%TO.P,U1,6*%
X24350000Y-11800000D03*
%TO.P,U1,7*%
X24350000Y-13600000D03*
%TO.P,U1,8*%
%TO.N,N/C*%
X24350000Y-15400000D03*
%TO.P,U1,9*%
X24350000Y-17200000D03*
D20*
%TO.P,U1,10*%
X22000000Y-1600000D03*
%TO.P,U1,11*%
X19670000Y-1600000D03*
%TO.P,U1,12*%
X17340000Y-1600000D03*
%TO.P,U1,13*%
X15010000Y-1600000D03*
%TO.P,U1,14*%
X12680000Y-1600000D03*
%TO.P,U1,15*%
X10350000Y-1600000D03*
%TO.P,U1,16*%
X8020000Y-1600000D03*
D19*
%TO.P,U1,17*%
%TO.N,SIM_PWRKEY*%
X5650000Y-17200000D03*
%TO.P,U1,18*%
%TO.N,SIM_STATUS*%
X5650000Y-15400000D03*
%TO.P,U1,19*%
%TO.N,SIM_RESETN*%
X5650000Y-13600000D03*
%TO.P,U1,20*%
%TO.N,N/C*%
X5650000Y-11800000D03*
%TO.P,U1,21*%
X5650000Y-10000000D03*
%TO.P,U1,22*%
%TO.N,SIM_TXD*%
X5650000Y-8200000D03*
%TO.P,U1,23*%
%TO.N,SIM_RXD*%
X5650000Y-6400000D03*
%TO.P,U1,24*%
%TO.N,N/C*%
X5650000Y-4600000D03*
%TO.P,U1,25*%
X5650000Y-2800000D03*
D20*
%TO.P,U1,26*%
X8000000Y-18400000D03*
%TO.P,U1,27*%
X10330000Y-18400000D03*
%TO.P,U1,28*%
X12660000Y-18400000D03*
%TO.P,U1,29*%
X14990000Y-18400000D03*
%TO.P,U1,30*%
X17320000Y-18400000D03*
%TO.P,U1,31*%
X19650000Y-18400000D03*
%TO.P,U1,32*%
X21980000Y-18400000D03*
D21*
%TO.P,U1,33*%
X10200000Y-2800000D03*
%TO.P,U1,34*%
X12600000Y-2800000D03*
%TO.P,U1,35*%
X15000000Y-2800000D03*
%TO.P,U1,36*%
X17400000Y-2800000D03*
%TO.P,U1,37*%
X19800000Y-2800000D03*
%TO.P,U1,38*%
%TO.N,SIM_VDD*%
X10200000Y-4600000D03*
%TO.P,U1,39*%
%TO.N,SIM_DATA*%
X12600000Y-4600000D03*
%TO.P,U1,40*%
%TO.N,SIM_CLK*%
X15000000Y-4600000D03*
%TO.P,U1,41*%
%TO.N,SIM_RST*%
X17400000Y-4600000D03*
%TO.P,U1,42*%
%TO.N,N/C*%
X19800000Y-4600000D03*
%TO.P,U1,43*%
%TO.N,GND*%
X10200000Y-6400000D03*
%TO.P,U1,44*%
%TO.N,N/C*%
X12600000Y-6400000D03*
%TO.P,U1,45*%
X15000000Y-6400000D03*
%TO.P,U1,46*%
X17400000Y-6400000D03*
%TO.P,U1,47*%
X19800000Y-6400000D03*
%TO.P,U1,48*%
X10200000Y-8200000D03*
%TO.P,U1,49*%
X12600000Y-8200000D03*
%TO.P,U1,50*%
X15000000Y-8200000D03*
%TO.P,U1,51*%
X17400000Y-8200000D03*
%TO.P,U1,52*%
X19800000Y-8200000D03*
%TO.P,U1,53*%
X10200000Y-10000000D03*
%TO.P,U1,54*%
X12600000Y-10000000D03*
%TO.P,U1,55*%
X15000000Y-10000000D03*
%TO.P,U1,56*%
X17400000Y-10000000D03*
%TO.P,U1,57*%
X19800000Y-10000000D03*
%TO.P,U1,58*%
X10200000Y-11800000D03*
%TO.P,U1,59*%
X12600000Y-11800000D03*
%TO.P,U1,60*%
X15000000Y-11800000D03*
%TO.P,U1,61*%
X17400000Y-11800000D03*
%TO.P,U1,62*%
X19800000Y-11800000D03*
%TO.P,U1,63*%
X10200000Y-13600000D03*
%TO.P,U1,64*%
X12600000Y-13600000D03*
%TO.P,U1,65*%
X15000000Y-13600000D03*
%TO.P,U1,66*%
X17400000Y-13600000D03*
%TO.P,U1,67*%
X19800000Y-13600000D03*
%TO.P,U1,68*%
X10200000Y-15400000D03*
%TO.P,U1,69*%
X12600000Y-15400000D03*
%TO.P,U1,70*%
X15000000Y-15400000D03*
%TO.P,U1,71*%
X17400000Y-15400000D03*
%TO.P,U1,72*%
X19800000Y-15400000D03*
%TO.P,U1,73*%
X10200000Y-17200000D03*
%TO.P,U1,74*%
X12600000Y-17200000D03*
%TO.P,U1,75*%
%TO.N,LTE_ANT*%
X15000000Y-17200000D03*
%TO.P,U1,76*%
%TO.N,GNSS_ANT*%
X17400000Y-17200000D03*
%TO.P,U1,77*%
%TO.N,GND*%
X19800000Y-17200000D03*
%TD*%
D14*
%TO.P,C1,1*%
%TO.N,+3.3V*%
X3720000Y-21500000D03*
%TO.P,C1,2*%
%TO.N,GND*%
X4680000Y-21500000D03*
%TD*%
%TO.P,C2,1*%
%TO.N,+3.3V*%
X3720000Y-23500000D03*
%TO.P,C2,2*%
%TO.N,GND*%
X4680000Y-23500000D03*
%TD*%
D22*
%TO.P,LED1,1*%
%TO.N,GND*%
X15515000Y-27500000D03*
%TO.P,LED1,2*%
%TO.N,N/C*%
X16485000Y-27500000D03*
%TD*%
D23*
%TO.P,ANT2,1*%
%TO.N,GNSS_ANT*%
X26475000Y-13500000D03*
D24*
%TO.P,ANT2,2*%
%TO.N,GND*%
X28000000Y-14975000D03*
%TD*%
D18*
%TO.P,C9,1*%
%TO.N,VBAT_SW*%
X10550000Y-28500000D03*
%TO.P,C9,2*%
%TO.N,GND*%
X12450000Y-28500000D03*
%TD*%
D14*
%TO.P,C5,1*%
%TO.N,+3.3V*%
X8020000Y-19800000D03*
%TO.P,C5,2*%
%TO.N,GND*%
X8980000Y-19800000D03*
%TD*%
%TO.P,C8,1*%
%TO.N,+3.3V*%
X14020000Y-22000000D03*
%TO.P,C8,2*%
%TO.N,GND*%
X14980000Y-22000000D03*
%TD*%
D25*
%TO.P,U5,1*%
%TO.N,VBAT_SW*%
X26362500Y-21050000D03*
%TO.P,U5,2*%
%TO.N,GND*%
X26362500Y-22000000D03*
%TO.P,U5,3*%
%TO.N,VBAT_SW*%
X26362500Y-22950000D03*
%TO.P,U5,4*%
%TO.N,N/C*%
X28637500Y-22950000D03*
%TO.P,U5,5*%
%TO.N,+3.3V*%
X28637500Y-21050000D03*
%TD*%
D26*
%TO.P,U2,1*%
%TO.N,WIFI_ANT*%
X6050000Y-21750000D03*
%TO.P,U2,2*%
%TO.N,+3.3V*%
X6050000Y-22250000D03*
%TO.P,U2,3*%
X6050000Y-22750000D03*
%TO.P,U2,4*%
%TO.N,SIM_STATUS*%
X6050000Y-23250000D03*
%TO.P,U2,5*%
%TO.N,N/C*%
X6050000Y-23750000D03*
%TO.P,U2,6*%
%TO.N,SIM_RESETN*%
X6050000Y-24250000D03*
%TO.P,U2,7*%
%TO.N,N/C*%
X6050000Y-24750000D03*
%TO.P,U2,8*%
%TO.N,SIM_PWRKEY*%
X6050000Y-25250000D03*
D27*
%TO.P,U2,9*%
%TO.N,N/C*%
X6750000Y-25950000D03*
%TO.P,U2,10*%
X7250000Y-25950000D03*
%TO.P,U2,11*%
%TO.N,+3.3V*%
X7750000Y-25950000D03*
%TO.P,U2,12*%
%TO.N,N/C*%
X8250000Y-25950000D03*
%TO.P,U2,13*%
X8750000Y-25950000D03*
%TO.P,U2,14*%
%TO.N,I2C_SDA*%
X9250000Y-25950000D03*
%TO.P,U2,15*%
%TO.N,I2C_SCL*%
X9750000Y-25950000D03*
%TO.P,U2,16*%
%TO.N,ACCEL_INT1*%
X10250000Y-25950000D03*
D26*
%TO.P,U2,17*%
%TO.N,+3.3V*%
X10950000Y-25250000D03*
%TO.P,U2,18*%
X10950000Y-24750000D03*
%TO.P,U2,19*%
%TO.N,N/C*%
X10950000Y-24250000D03*
%TO.P,U2,20*%
X10950000Y-23750000D03*
%TO.P,U2,21*%
X10950000Y-23250000D03*
%TO.P,U2,22*%
X10950000Y-22750000D03*
%TO.P,U2,23*%
X10950000Y-22250000D03*
%TO.P,U2,24*%
X10950000Y-21750000D03*
D27*
%TO.P,U2,25*%
X10250000Y-21050000D03*
%TO.P,U2,26*%
X9750000Y-21050000D03*
%TO.P,U2,27*%
%TO.N,SIM_TXD*%
X9250000Y-21050000D03*
%TO.P,U2,28*%
%TO.N,SIM_RXD*%
X8750000Y-21050000D03*
%TO.P,U2,29*%
%TO.N,N/C*%
X8250000Y-21050000D03*
%TO.P,U2,30*%
X7750000Y-21050000D03*
%TO.P,U2,31*%
%TO.N,+3.3V*%
X7250000Y-21050000D03*
%TO.P,U2,32*%
X6750000Y-21050000D03*
D28*
%TO.P,U2,33*%
%TO.N,GND*%
X8500000Y-23500000D03*
%TD*%
D18*
%TO.P,C10,1*%
%TO.N,+3.3V*%
X26550000Y-25000000D03*
%TO.P,C10,2*%
%TO.N,GND*%
X28450000Y-25000000D03*
%TD*%
D14*
%TO.P,C7,1*%
%TO.N,+3.3V*%
X12120000Y-22000000D03*
%TO.P,C7,2*%
%TO.N,GND*%
X13080000Y-22000000D03*
%TD*%
D23*
%TO.P,ANT1,1*%
%TO.N,LTE_ANT*%
X26475000Y-4500000D03*
D24*
%TO.P,ANT1,2*%
%TO.N,GND*%
X28000000Y-5975000D03*
%TD*%
D18*
%TO.P,C12,1*%
%TO.N,VBAT_SW*%
X1550000Y-13000000D03*
%TO.P,C12,2*%
%TO.N,GND*%
X3450000Y-13000000D03*
%TD*%
D10*
%TO.P,R5,1*%
%TO.N,N/C*%
X12490000Y-19800000D03*
%TO.P,R5,2*%
%TO.N,+3.3V*%
X13510000Y-19800000D03*
%TD*%
D29*
%TO.P,U3,1*%
%TO.N,GND*%
X12737500Y-23750000D03*
%TO.P,U3,2*%
%TO.N,+3.3V*%
X12737500Y-24250000D03*
%TO.P,U3,3*%
%TO.N,I2C_SCL*%
X12737500Y-24750000D03*
%TO.P,U3,4*%
%TO.N,+3.3V*%
X12737500Y-25250000D03*
%TO.P,U3,5*%
%TO.N,N/C*%
X13250000Y-25262500D03*
%TO.P,U3,6*%
%TO.N,GND*%
X13750000Y-25262500D03*
%TO.P,U3,7*%
%TO.N,N/C*%
X14262500Y-25250000D03*
%TO.P,U3,8*%
X14262500Y-24750000D03*
%TO.P,U3,9*%
%TO.N,ACCEL_INT1*%
X14262500Y-24250000D03*
%TO.P,U3,10*%
%TO.N,GND*%
X14262500Y-23750000D03*
%TO.P,U3,11*%
%TO.N,I2C_SDA*%
X13750000Y-23737500D03*
%TO.P,U3,12*%
%TO.N,+3.3V*%
X13250000Y-23737500D03*
%TD*%
D10*
%TO.P,R2,1*%
%TO.N,GND*%
X14990000Y-29800000D03*
%TO.P,R2,2*%
%TO.N,N/C*%
X16010000Y-29800000D03*
%TD*%
D14*
%TO.P,C4,1*%
%TO.N,+3.3V*%
X6020000Y-19000000D03*
%TO.P,C4,2*%
%TO.N,GND*%
X6980000Y-19000000D03*
%TD*%
D30*
%TO.P,SIM1,1*%
%TO.N,SIM_VDD*%
X21060000Y-29300000D03*
%TO.P,SIM1,2*%
%TO.N,SIM_DATA*%
X23600000Y-29300000D03*
%TO.P,SIM1,3*%
%TO.N,SIM_CLK*%
X26140000Y-29300000D03*
%TO.P,SIM1,4*%
%TO.N,SIM_RST*%
X21060000Y-31840000D03*
%TO.P,SIM1,5*%
%TO.N,GND*%
X26140000Y-31840000D03*
%TO.P,SIM1,6*%
%TO.N,N/C*%
X17800000Y-31300000D03*
%TD*%
D14*
%TO.P,C3,1*%
%TO.N,+3.3V*%
X3720000Y-25500000D03*
%TO.P,C3,2*%
%TO.N,GND*%
X4680000Y-25500000D03*
%TD*%
D31*
%TO.P,SW1,1*%
%TO.N,VBAT*%
X2000000Y-26950000D03*
%TO.P,SW1,2*%
%TO.N,VBAT_SW*%
X2000000Y-28850000D03*
%TO.P,SW1,3*%
%TO.N,N/C*%
X2000000Y-30750000D03*
%TD*%
D10*
%TO.P,R1,1*%
%TO.N,GND*%
X12490000Y-30200000D03*
%TO.P,R1,2*%
%TO.N,N/C*%
X13510000Y-30200000D03*
%TD*%
D32*
%TO.P,C13,1*%
%TO.N,VBAT*%
X7525000Y-33300000D03*
%TO.P,C13,2*%
%TO.N,GND*%
X10475000Y-33300000D03*
%TD*%
D33*
%TO.N,GND*%
X29500000Y-5000000D03*
X29500000Y-12000000D03*
X29500000Y-19000000D03*
X29500000Y-25000000D03*
X29500000Y-30000000D03*
%TO.N,VBAT_SW*%
X1000000Y-28500000D03*
X1000000Y-7500000D03*
X1000000Y-13500000D03*
X24500000Y-1000000D03*
X27500000Y-1000000D03*
X27500000Y-21000000D03*
X27500000Y-24000000D03*
%TO.N,+3.3V*%
X26550000Y-19600000D03*
X26550000Y-25000000D03*
X6500000Y-19600000D03*
X6500000Y-21000000D03*
X3500000Y-26500000D03*
X7750000Y-19600000D03*
X7750000Y-25950000D03*
X11800000Y-19600000D03*
X11800000Y-25500000D03*
X11800000Y-19600000D03*
X11800000Y-23000000D03*
X11800000Y-25500000D03*
D34*
%TO.N,SIM_PWRKEY*%
X2200000Y-17200000D03*
D35*
X5350000Y-25500000D03*
D34*
%TO.N,SIM_STATUS*%
X5650000Y-15400000D03*
D35*
X5350000Y-24000000D03*
D34*
%TO.N,SIM_RESETN*%
X5650000Y-13600000D03*
X2700000Y-24250000D03*
D36*
%TO.N,SIM_TXD*%
X5650000Y-8200000D03*
D34*
X9250000Y-21050000D03*
D36*
%TO.N,SIM_RXD*%
X5650000Y-6400000D03*
%TO.N,SIM_VDD*%
X10200000Y-4400000D03*
X21060000Y-28800000D03*
%TO.N,SIM_DATA*%
X12600000Y-4000000D03*
X23600000Y-28800000D03*
%TO.N,SIM_CLK*%
X15900000Y-3400000D03*
X26140000Y-28800000D03*
%TO.N,SIM_RST*%
X18100000Y-2200000D03*
X20500000Y-31300000D03*
D34*
%TO.N,ACCEL_INT1*%
X14262000Y-24250000D03*
X10250000Y-27000000D03*
D36*
%TO.N,SIM_RXD*%
X8750000Y-21050000D03*
D33*
%TO.N,VUSB*%
X10750000Y-30500000D03*
X19025000Y-24405000D03*
%TO.N,GND*%
X29500000Y-5000000D03*
X29500000Y-12000000D03*
X29500000Y-19000000D03*
X29500000Y-25000000D03*
X29500000Y-30000000D03*
%TO.N,VBAT_SW*%
X1000000Y-28500000D03*
X1000000Y-7500000D03*
X1000000Y-13500000D03*
X24500000Y-1000000D03*
X27500000Y-1000000D03*
X27500000Y-21000000D03*
X27500000Y-24000000D03*
%TO.N,+3.3V*%
X26550000Y-19600000D03*
X26550000Y-25000000D03*
X6500000Y-19600000D03*
X6500000Y-21000000D03*
X3500000Y-26500000D03*
X7750000Y-19600000D03*
X7750000Y-25950000D03*
X11800000Y-19600000D03*
X11800000Y-25500000D03*
X11800000Y-19600000D03*
X11800000Y-23000000D03*
X11800000Y-25500000D03*
D34*
%TO.N,SIM_PWRKEY*%
X2200000Y-17200000D03*
D35*
X5350000Y-25500000D03*
D34*
%TO.N,SIM_STATUS*%
X5650000Y-15400000D03*
D35*
X5350000Y-24000000D03*
D34*
%TO.N,SIM_RESETN*%
X5650000Y-13600000D03*
X2700000Y-24250000D03*
D36*
%TO.N,SIM_TXD*%
X5650000Y-8200000D03*
D34*
X9250000Y-21050000D03*
D36*
%TO.N,SIM_RXD*%
X5650000Y-6400000D03*
%TO.N,SIM_VDD*%
X10200000Y-4400000D03*
X21060000Y-28800000D03*
%TO.N,SIM_DATA*%
X12600000Y-4000000D03*
X23600000Y-28800000D03*
%TO.N,SIM_CLK*%
X15900000Y-3400000D03*
X26140000Y-28800000D03*
%TO.N,SIM_RST*%
X18100000Y-2200000D03*
X20500000Y-31300000D03*
D34*
%TO.N,ACCEL_INT1*%
X14262000Y-24250000D03*
X10250000Y-27000000D03*
D36*
%TO.N,SIM_RXD*%
X8750000Y-21050000D03*
D33*
%TO.N,VUSB*%
X10750000Y-30500000D03*
X19025000Y-24405000D03*
%TD*%
%TO.N,VBAT*%
D37*
X2880000Y-32650000D02*
X2880000Y-26950000D01*
X2880000Y-26950000D02*
X2000000Y-26950000D01*
X2000000Y-26950000D02*
X2000000Y-27500000D01*
X2000000Y-27500000D02*
X13500000Y-27500000D01*
X13500000Y-27500000D02*
X13500000Y-28500000D01*
X13500000Y-28500000D02*
X17500000Y-28500000D01*
X17500000Y-28500000D02*
X17500000Y-27500000D01*
X17500000Y-27500000D02*
X25000000Y-27500000D01*
X25000000Y-27500000D02*
X25000000Y-24405000D01*
X25000000Y-24405000D02*
X23975000Y-24405000D01*
%TO.N,VBAT_SW*%
X2000000Y-28850000D02*
X2000000Y-28500000D01*
X2000000Y-28500000D02*
X10550000Y-28500000D01*
X1000000Y-7500000D02*
X1550000Y-7500000D01*
X1550000Y-7500000D02*
X1550000Y-7000000D01*
X1000000Y-13500000D02*
X1550000Y-13500000D01*
X1550000Y-13500000D02*
X1550000Y-13000000D01*
X24500000Y-1000000D02*
X24500000Y-5500000D01*
X24500000Y-5500000D02*
X24350000Y-5500000D01*
X24350000Y-5500000D02*
X24350000Y-2800000D01*
X24350000Y-5500000D02*
X24350000Y-8200000D01*
X27500000Y-21000000D02*
X26363000Y-21000000D01*
X26363000Y-21000000D02*
X26363000Y-21050000D01*
X27500000Y-24000000D02*
X26363000Y-24000000D01*
X26363000Y-24000000D02*
X26363000Y-22950000D01*
%TO.N,+3.3V*%
D38*
X28637000Y-21050000D02*
X28000000Y-21050000D01*
X28000000Y-21050000D02*
X28000000Y-19600000D01*
X28000000Y-19600000D02*
X13000000Y-19600000D01*
X13000000Y-19600000D02*
X13000000Y-20300000D01*
X13000000Y-20300000D02*
X12000000Y-20300000D01*
X12000000Y-20300000D02*
X12000000Y-19600000D01*
X12000000Y-19600000D02*
X9600000Y-19600000D01*
X9600000Y-19600000D02*
X9600000Y-20500000D01*
X9600000Y-20500000D02*
X5300000Y-20500000D01*
X5300000Y-20500000D02*
X5300000Y-19600000D01*
X5300000Y-19600000D02*
X8300000Y-19600000D01*
X6020000Y-19600000D02*
X6020000Y-19000000D01*
X8020000Y-19600000D02*
X8020000Y-19800000D01*
X23975000Y-19600000D02*
X23975000Y-20595000D01*
X15990000Y-19600000D02*
X15990000Y-21500000D01*
X13510000Y-19600000D02*
X13510000Y-19800000D01*
X12490000Y-20300000D02*
X12490000Y-21000000D01*
X12120000Y-20300000D02*
X12120000Y-22000000D01*
X14020000Y-19600000D02*
X14020000Y-22000000D01*
X10020000Y-19600000D02*
X10020000Y-19800000D01*
X6500000Y-21000000D02*
X7250000Y-21000000D01*
X7250000Y-21000000D02*
X7250000Y-21050000D01*
X6500000Y-21000000D02*
X6750000Y-21000000D01*
X6750000Y-21000000D02*
X6750000Y-21050000D01*
X3500000Y-26500000D02*
X3500000Y-25500000D01*
X3500000Y-25500000D02*
X3720000Y-25500000D01*
X3500000Y-25500000D02*
X3500000Y-23500000D01*
X3500000Y-23500000D02*
X3720000Y-23500000D01*
X3500000Y-23500000D02*
X3500000Y-21500000D01*
X3500000Y-21500000D02*
X3720000Y-21500000D01*
X11800000Y-25500000D02*
X10950000Y-25500000D01*
X10950000Y-25500000D02*
X10950000Y-25250000D01*
X10950000Y-25250000D02*
X10950000Y-24750000D01*
X11800000Y-23000000D02*
X13250000Y-23000000D01*
X13250000Y-23000000D02*
X13250000Y-23738000D01*
X11800000Y-25500000D02*
X12738000Y-25500000D01*
X12738000Y-25500000D02*
X12738000Y-25250000D01*
%TO.N,SIM_PWRKEY*%
D39*
X5650000Y-17200000D02*
X2200000Y-17200000D01*
X5350000Y-25500000D02*
X5350000Y-25250000D01*
X5350000Y-25250000D02*
X6050000Y-25250000D01*
%TO.N,SIM_STATUS*%
X5350000Y-24000000D02*
X5350000Y-23250000D01*
X5350000Y-23250000D02*
X6050000Y-23250000D01*
%TO.N,SIM_RESETN*%
X2700000Y-24250000D02*
X2700000Y-24500000D01*
X2700000Y-24500000D02*
X6050000Y-24500000D01*
X6050000Y-24500000D02*
X6050000Y-24250000D01*
%TO.N,SIM_VDD*%
X10200000Y-4600000D02*
X10200000Y-4400000D01*
X21060000Y-28800000D02*
X21060000Y-29300000D01*
%TO.N,SIM_DATA*%
X12600000Y-4600000D02*
X12600000Y-4000000D01*
X23600000Y-28800000D02*
X23600000Y-29300000D01*
%TO.N,SIM_CLK*%
X15000000Y-4600000D02*
X15900000Y-4600000D01*
X15900000Y-4600000D02*
X15900000Y-3400000D01*
X26140000Y-28800000D02*
X26140000Y-29300000D01*
%TO.N,SIM_RST*%
X17400000Y-4600000D02*
X18100000Y-4600000D01*
X18100000Y-4600000D02*
X18100000Y-2200000D01*
X20500000Y-31300000D02*
X21060000Y-31300000D01*
X21060000Y-31300000D02*
X21060000Y-31840000D01*
%TO.N,I2C_SCL*%
X9750000Y-25950000D02*
X9750000Y-26500000D01*
X9750000Y-26500000D02*
X15000000Y-26500000D01*
X15000000Y-26500000D02*
X15000000Y-24850000D01*
X15000000Y-24850000D02*
X12738000Y-24850000D01*
X12738000Y-24850000D02*
X12738000Y-24750000D01*
X12738000Y-24850000D02*
X15500000Y-24850000D01*
X15500000Y-24850000D02*
X15500000Y-25200000D01*
X15500000Y-25200000D02*
X17500000Y-25200000D01*
X17500000Y-25200000D02*
X17500000Y-21500000D01*
X17500000Y-21500000D02*
X17010000Y-21500000D01*
%TO.N,I2C_SDA*%
X9250000Y-25950000D02*
X9250000Y-26500000D01*
X9250000Y-26500000D02*
X15000000Y-26500000D01*
X15000000Y-26500000D02*
X15000000Y-23400000D01*
X15000000Y-23400000D02*
X13750000Y-23400000D01*
X13750000Y-23400000D02*
X13750000Y-23738000D01*
X13750000Y-23400000D02*
X13510000Y-23400000D01*
X13510000Y-23400000D02*
X13510000Y-21000000D01*
%TO.N,CHRG*%
X23975000Y-21865000D02*
X25500000Y-21865000D01*
X25500000Y-21865000D02*
X25500000Y-26300000D01*
X25500000Y-26300000D02*
X16510000Y-26300000D01*
%TO.N,ACCEL_INT1*%
X10250000Y-27000000D02*
X10250000Y-25950000D01*
%TO.N,VUSB*%
D37*
X10750000Y-31300000D02*
X10750000Y-30500000D01*
%TO.N,LTE_ANT*%
D39*
X15000000Y-17200000D02*
X14000000Y-17200000D01*
X14000000Y-17200000D02*
X14000000Y-9100000D01*
X14000000Y-9100000D02*
X26475000Y-9100000D01*
X26475000Y-9100000D02*
X26475000Y-4500000D01*
%TO.N,GNSS_ANT*%
X17400000Y-17200000D02*
X17400000Y-16300000D01*
X17400000Y-16300000D02*
X23000000Y-16300000D01*
X23000000Y-16300000D02*
X23000000Y-12800000D01*
X23000000Y-12800000D02*
X26475000Y-12800000D01*
X26475000Y-12800000D02*
X26475000Y-13500000D01*
%TO.N,WIFI_ANT*%
X6050000Y-21750000D02*
X6050000Y-20900000D01*
X6050000Y-20900000D02*
X1500000Y-20900000D01*
X1500000Y-20900000D02*
X1500000Y-22500000D01*
%TO.N,VBAT*%
D37*
X2880000Y-32650000D02*
X2880000Y-26950000D01*
X2880000Y-26950000D02*
X2000000Y-26950000D01*
X2000000Y-26950000D02*
X2000000Y-27500000D01*
X2000000Y-27500000D02*
X13500000Y-27500000D01*
X13500000Y-27500000D02*
X13500000Y-28500000D01*
X13500000Y-28500000D02*
X17500000Y-28500000D01*
X17500000Y-28500000D02*
X17500000Y-27500000D01*
X17500000Y-27500000D02*
X25000000Y-27500000D01*
X25000000Y-27500000D02*
X25000000Y-24405000D01*
X25000000Y-24405000D02*
X23975000Y-24405000D01*
%TO.N,VBAT_SW*%
X2000000Y-28850000D02*
X2000000Y-28500000D01*
X2000000Y-28500000D02*
X10550000Y-28500000D01*
X1000000Y-7500000D02*
X1550000Y-7500000D01*
X1550000Y-7500000D02*
X1550000Y-7000000D01*
X1000000Y-13500000D02*
X1550000Y-13500000D01*
X1550000Y-13500000D02*
X1550000Y-13000000D01*
X24500000Y-1000000D02*
X24500000Y-5500000D01*
X24500000Y-5500000D02*
X24350000Y-5500000D01*
X24350000Y-5500000D02*
X24350000Y-2800000D01*
X24350000Y-5500000D02*
X24350000Y-8200000D01*
X27500000Y-21000000D02*
X26363000Y-21000000D01*
X26363000Y-21000000D02*
X26363000Y-21050000D01*
X27500000Y-24000000D02*
X26363000Y-24000000D01*
X26363000Y-24000000D02*
X26363000Y-22950000D01*
%TO.N,+3.3V*%
D38*
X28637000Y-21050000D02*
X28000000Y-21050000D01*
X28000000Y-21050000D02*
X28000000Y-19600000D01*
X28000000Y-19600000D02*
X13000000Y-19600000D01*
X13000000Y-19600000D02*
X13000000Y-20300000D01*
X13000000Y-20300000D02*
X12000000Y-20300000D01*
X12000000Y-20300000D02*
X12000000Y-19600000D01*
X12000000Y-19600000D02*
X11700000Y-19600000D01*
X11700000Y-19600000D02*
X11700000Y-20500000D01*
X11700000Y-20500000D02*
X9600000Y-20500000D01*
X9600000Y-19600000D02*
X9600000Y-20500000D01*
X9600000Y-20500000D02*
X5300000Y-20500000D01*
X5300000Y-20500000D02*
X5300000Y-19600000D01*
X5300000Y-19600000D02*
X8300000Y-19600000D01*
X6020000Y-19600000D02*
X6020000Y-19000000D01*
X8020000Y-19600000D02*
X8020000Y-19800000D01*
X23975000Y-19600000D02*
X23975000Y-20595000D01*
X15990000Y-19600000D02*
X15990000Y-21500000D01*
X13510000Y-19600000D02*
X13510000Y-19800000D01*
X12490000Y-20300000D02*
X12490000Y-21000000D01*
X12120000Y-20300000D02*
X12120000Y-22000000D01*
X14020000Y-19600000D02*
X14020000Y-22000000D01*
X10020000Y-19600000D02*
X10020000Y-19800000D01*
X6500000Y-21000000D02*
X7250000Y-21000000D01*
X7250000Y-21000000D02*
X7250000Y-21050000D01*
X6500000Y-21000000D02*
X6750000Y-21000000D01*
X6750000Y-21000000D02*
X6750000Y-21050000D01*
X3500000Y-26500000D02*
X3500000Y-25500000D01*
X3500000Y-25500000D02*
X3720000Y-25500000D01*
X3500000Y-25500000D02*
X3500000Y-23500000D01*
X3500000Y-23500000D02*
X3720000Y-23500000D01*
X3500000Y-23500000D02*
X3500000Y-21500000D01*
X3500000Y-21500000D02*
X3720000Y-21500000D01*
X11800000Y-25500000D02*
X10950000Y-25500000D01*
X10950000Y-25500000D02*
X10950000Y-25250000D01*
X10950000Y-25250000D02*
X10950000Y-24750000D01*
X11800000Y-23000000D02*
X13250000Y-23000000D01*
X13250000Y-23000000D02*
X13250000Y-23738000D01*
X11800000Y-25500000D02*
X12738000Y-25500000D01*
X12738000Y-25500000D02*
X12738000Y-25250000D01*
%TO.N,SIM_PWRKEY*%
D39*
X5650000Y-17200000D02*
X2200000Y-17200000D01*
X5350000Y-25500000D02*
X5350000Y-25250000D01*
X5350000Y-25250000D02*
X6050000Y-25250000D01*
%TO.N,SIM_STATUS*%
X5350000Y-24000000D02*
X5350000Y-23250000D01*
X5350000Y-23250000D02*
X6050000Y-23250000D01*
%TO.N,SIM_RESETN*%
X2700000Y-24250000D02*
X2700000Y-24500000D01*
X2700000Y-24500000D02*
X6050000Y-24500000D01*
X6050000Y-24500000D02*
X6050000Y-24250000D01*
%TO.N,SIM_VDD*%
X10200000Y-4600000D02*
X10200000Y-4400000D01*
X21060000Y-28800000D02*
X21060000Y-29300000D01*
%TO.N,SIM_DATA*%
X12600000Y-4600000D02*
X12600000Y-4000000D01*
X23600000Y-28800000D02*
X23600000Y-29300000D01*
%TO.N,SIM_CLK*%
X15000000Y-4600000D02*
X15900000Y-4600000D01*
X15900000Y-4600000D02*
X15900000Y-3400000D01*
X26140000Y-28800000D02*
X26140000Y-29300000D01*
%TO.N,SIM_RST*%
X17400000Y-4600000D02*
X18100000Y-4600000D01*
X18100000Y-4600000D02*
X18100000Y-2200000D01*
X20500000Y-31300000D02*
X21060000Y-31300000D01*
X21060000Y-31300000D02*
X21060000Y-31840000D01*
%TO.N,I2C_SCL*%
X9750000Y-25950000D02*
X9750000Y-26500000D01*
X9750000Y-26500000D02*
X15000000Y-26500000D01*
X15000000Y-26500000D02*
X15000000Y-24850000D01*
X15000000Y-24850000D02*
X12738000Y-24850000D01*
X12738000Y-24850000D02*
X12738000Y-24750000D01*
X12738000Y-24850000D02*
X15500000Y-24850000D01*
X15500000Y-24850000D02*
X15500000Y-25200000D01*
X15500000Y-25200000D02*
X17500000Y-25200000D01*
X17500000Y-25200000D02*
X17500000Y-21500000D01*
X17500000Y-21500000D02*
X17010000Y-21500000D01*
%TO.N,I2C_SDA*%
X9250000Y-25950000D02*
X9250000Y-26500000D01*
X9250000Y-26500000D02*
X15000000Y-26500000D01*
X15000000Y-26500000D02*
X15000000Y-23400000D01*
X15000000Y-23400000D02*
X13750000Y-23400000D01*
X13750000Y-23400000D02*
X13750000Y-23738000D01*
X13750000Y-23400000D02*
X13510000Y-23400000D01*
X13510000Y-23400000D02*
X13510000Y-21000000D01*
%TO.N,CHRG*%
X23975000Y-21865000D02*
X25500000Y-21865000D01*
X25500000Y-21865000D02*
X25500000Y-26300000D01*
X25500000Y-26300000D02*
X16510000Y-26300000D01*
%TO.N,ACCEL_INT1*%
X10250000Y-27000000D02*
X10250000Y-25950000D01*
%TO.N,VUSB*%
D37*
X10750000Y-31300000D02*
X10750000Y-30500000D01*
%TO.N,LTE_ANT*%
D39*
X15000000Y-17200000D02*
X14000000Y-17200000D01*
X14000000Y-17200000D02*
X14000000Y-9100000D01*
X14000000Y-9100000D02*
X26475000Y-9100000D01*
X26475000Y-9100000D02*
X26475000Y-4500000D01*
%TO.N,GNSS_ANT*%
X17400000Y-17200000D02*
X17400000Y-16300000D01*
X17400000Y-16300000D02*
X23000000Y-16300000D01*
X23000000Y-16300000D02*
X23000000Y-12800000D01*
X23000000Y-12800000D02*
X26475000Y-12800000D01*
X26475000Y-12800000D02*
X26475000Y-13500000D01*
%TO.N,WIFI_ANT*%
X6050000Y-21750000D02*
X6050000Y-20900000D01*
X6050000Y-20900000D02*
X1500000Y-20900000D01*
X1500000Y-20900000D02*
X1500000Y-22500000D01*
%TO.N,VBAT*%
D37*
X2875000Y-31000000D02*
X7525000Y-31000000D01*
X7525000Y-31000000D02*
X7525000Y-33300000D01*
%TD*%
%TA.AperFunction,Conductor*%
%TO.N,GND*%
G36*
X6879815Y-21669407D02*
G01*
X6891628Y-21679496D01*
X8500000Y-23287867D01*
X10108372Y-21679496D01*
X10115489Y-21675869D01*
X10120185Y-21669407D01*
X10142233Y-21662243D01*
X10162889Y-21651719D01*
X10178376Y-21650500D01*
X10250500Y-21650500D01*
X10308691Y-21669407D01*
X10344655Y-21718907D01*
X10349500Y-21749500D01*
X10349500Y-21821624D01*
X10330593Y-21879815D01*
X10320504Y-21891628D01*
X8712132Y-23499999D01*
X10320504Y-25108371D01*
X10324130Y-25115488D01*
X10330593Y-25120184D01*
X10337756Y-25142232D01*
X10348281Y-25162888D01*
X10349500Y-25178375D01*
X10349500Y-25250500D01*
X10330593Y-25308691D01*
X10281093Y-25344655D01*
X10250500Y-25349500D01*
X10178376Y-25349500D01*
X10120185Y-25330593D01*
X10108372Y-25320504D01*
X8500000Y-23712132D01*
X6891628Y-25320504D01*
X6884510Y-25324130D01*
X6879815Y-25330593D01*
X6857766Y-25337756D01*
X6837111Y-25348281D01*
X6821624Y-25349500D01*
X6749500Y-25349500D01*
X6691309Y-25330593D01*
X6655345Y-25281093D01*
X6650500Y-25250500D01*
X6650500Y-25178375D01*
X6669407Y-25120184D01*
X6679496Y-25108371D01*
X8287867Y-23499999D01*
X6679496Y-21891628D01*
X6675869Y-21884510D01*
X6669407Y-21879815D01*
X6662243Y-21857766D01*
X6651719Y-21837111D01*
X6650500Y-21821624D01*
X6650500Y-21749500D01*
X6669407Y-21691309D01*
X6718907Y-21655345D01*
X6749500Y-21650500D01*
X6821624Y-21650500D01*
X6879815Y-21669407D01*
G37*
%TD.AperFunction*%
%TA.AperFunction,Conductor*%
G36*
X29709191Y-268907D02*
G01*
X29745155Y-318407D01*
X29750000Y-349000D01*
X29750000Y-34651000D01*
X29731093Y-34709191D01*
X29681593Y-34745155D01*
X29651000Y-34750000D01*
X16999500Y-34750000D01*
X16941309Y-34731093D01*
X16905345Y-34681593D01*
X16900500Y-34651000D01*
X16900500Y-33980253D01*
X16900498Y-33980241D01*
X16897711Y-33966231D01*
X16888867Y-33921769D01*
X16844552Y-33855448D01*
X16844548Y-33855445D01*
X16778233Y-33811134D01*
X16778231Y-33811133D01*
X16778228Y-33811132D01*
X16778227Y-33811132D01*
X16719758Y-33799501D01*
X16719748Y-33799500D01*
X14280252Y-33799500D01*
X14280251Y-33799500D01*
X14280241Y-33799501D01*
X14221772Y-33811132D01*
X14221766Y-33811134D01*
X14155451Y-33855445D01*
X14155445Y-33855451D01*
X14111134Y-33921766D01*
X14111132Y-33921772D01*
X14099501Y-33980241D01*
X14099500Y-33980253D01*
X14099500Y-34014623D01*
X14080593Y-34072814D01*
X14031093Y-34108778D01*
X13981185Y-34111721D01*
X13978231Y-34111133D01*
X13919748Y-34099500D01*
X13580252Y-34099500D01*
X13580248Y-34099500D01*
X13519314Y-34111621D01*
X13480686Y-34111621D01*
X13419751Y-34099500D01*
X13419748Y-34099500D01*
X13080252Y-34099500D01*
X13080248Y-34099500D01*
X13019314Y-34111621D01*
X12980686Y-34111621D01*
X12919751Y-34099500D01*
X12919748Y-34099500D01*
X12580252Y-34099500D01*
X12580248Y-34099500D01*
X12519314Y-34111621D01*
X12480686Y-34111621D01*
X12419751Y-34099500D01*
X12419748Y-34099500D01*
X12080252Y-34099500D01*
X12080248Y-34099500D01*
X12019314Y-34111621D01*
X11980686Y-34111621D01*
X11919751Y-34099500D01*
X11919748Y-34099500D01*
X11580252Y-34099500D01*
X11580248Y-34099500D01*
X11519314Y-34111621D01*
X11480686Y-34111621D01*
X11419751Y-34099500D01*
X11419748Y-34099500D01*
X11080252Y-34099500D01*
X11080248Y-34099500D01*
X11019314Y-34111621D01*
X10980686Y-34111621D01*
X10919751Y-34099500D01*
X10919748Y-34099500D01*
X10664772Y-34099500D01*
X10606581Y-34080593D01*
X10594768Y-34070504D01*
X10572477Y-34048213D01*
X10469872Y-34002909D01*
X10444796Y-34000000D01*
X10055210Y-34000000D01*
X10055207Y-34000001D01*
X10030125Y-34002909D01*
X9927520Y-34048214D01*
X9868933Y-34106800D01*
X10221004Y-34458871D01*
X10224630Y-34465988D01*
X10231093Y-34470684D01*
X10238256Y-34492732D01*
X10248781Y-34513388D01*
X10250000Y-34528875D01*
X10250000Y-34673124D01*
X10231093Y-34731315D01*
X10205375Y-34750000D01*
X10092210Y-34750000D01*
X10080996Y-34743128D01*
X9800000Y-34462132D01*
X9800001Y-34651000D01*
X9781094Y-34709190D01*
X9731594Y-34745154D01*
X9701001Y-34750000D01*
X6774500Y-34750000D01*
X6716309Y-34731093D01*
X6680345Y-34681593D01*
X6675500Y-34651000D01*
X6675500Y-34480253D01*
X6675498Y-34480241D01*
X6671247Y-34458871D01*
X6663867Y-34421769D01*
X6619552Y-34355448D01*
X6619548Y-34355445D01*
X6553233Y-34311134D01*
X6553231Y-34311133D01*
X6553228Y-34311132D01*
X6553227Y-34311132D01*
X6494758Y-34299501D01*
X6494748Y-34299500D01*
X5455252Y-34299500D01*
X5455251Y-34299500D01*
X5455241Y-34299501D01*
X5396772Y-34311132D01*
X5396766Y-34311134D01*
X5330451Y-34355445D01*
X5330445Y-34355451D01*
X5286134Y-34421766D01*
X5286132Y-34421772D01*
X5274501Y-34480241D01*
X5274500Y-34480253D01*
X5274500Y-34651000D01*
X5255593Y-34709191D01*
X5206093Y-34745155D01*
X5175500Y-34750000D01*
X349000Y-34750000D01*
X290809Y-34731093D01*
X254845Y-34681593D01*
X250000Y-34651000D01*
X250000Y-30130253D01*
X1399500Y-30130253D01*
X1399500Y-31369746D01*
X1399501Y-31369758D01*
X1411132Y-31428227D01*
X1411134Y-31428233D01*
X1455445Y-31494548D01*
X1455448Y-31494552D01*
X1521769Y-31538867D01*
X1566231Y-31547711D01*
X1580241Y-31550498D01*
X1580246Y-31550498D01*
X1580252Y-31550500D01*
X1580253Y-31550500D01*
X2315356Y-31550500D01*
X2373547Y-31569407D01*
X2409511Y-31618907D01*
X2409511Y-31680093D01*
X2397673Y-31704497D01*
X2387477Y-31719758D01*
X2386133Y-31721769D01*
X2386132Y-31721772D01*
X2374501Y-31780241D01*
X2374500Y-31780253D01*
X2374500Y-33519746D01*
X2374501Y-33519758D01*
X2384470Y-33569872D01*
X2386133Y-33578231D01*
X2430448Y-33644552D01*
X2496769Y-33688867D01*
X2541231Y-33697711D01*
X2555241Y-33700498D01*
X2555246Y-33700498D01*
X2555252Y-33700500D01*
X2555253Y-33700500D01*
X3194747Y-33700500D01*
X3194748Y-33700500D01*
X3253231Y-33688867D01*
X3319552Y-33644552D01*
X3363867Y-33578231D01*
X3363867Y-33578229D01*
X3364759Y-33576895D01*
X3412809Y-33539016D01*
X3473947Y-33536614D01*
X3524820Y-33570607D01*
X3537639Y-33591909D01*
X3573213Y-33672477D01*
X3652522Y-33751786D01*
X3755127Y-33797090D01*
X3780203Y-33799999D01*
X4469789Y-33799999D01*
X4469792Y-33799998D01*
X4494874Y-33797090D01*
X4597477Y-33751786D01*
X4676786Y-33672477D01*
X4722090Y-33569872D01*
X4724999Y-33544797D01*
X4724999Y-33462132D01*
X4724998Y-33462131D01*
X4153996Y-32891128D01*
X4126219Y-32836611D01*
X4125000Y-32821124D01*
X4125000Y-32649999D01*
X4337132Y-32649999D01*
X4724999Y-33037866D01*
X4724999Y-32808198D01*
X25383934Y-32808198D01*
X25417522Y-32841786D01*
X25520127Y-32887090D01*
X25545203Y-32889999D01*
X26734789Y-32889999D01*
X26734791Y-32889998D01*
X26759874Y-32887090D01*
X26862478Y-32841786D01*
X26862481Y-32841784D01*
X26896065Y-32808198D01*
X26139999Y-32052132D01*
X25383934Y-32808198D01*
X4724999Y-32808198D01*
X4724999Y-32262132D01*
X4337132Y-32649999D01*
X4125000Y-32649999D01*
X4125000Y-32478875D01*
X4143907Y-32420684D01*
X4153996Y-32408871D01*
X4724999Y-31837867D01*
X4724999Y-31755210D01*
X4724998Y-31755208D01*
X4722090Y-31730125D01*
X4676786Y-31627522D01*
X4597477Y-31548213D01*
X4574043Y-31537866D01*
X9800000Y-31537866D01*
X10037867Y-31300000D01*
X9800000Y-31062133D01*
X9800000Y-31537866D01*
X4574043Y-31537866D01*
X4494872Y-31502909D01*
X4469796Y-31500000D01*
X3780210Y-31500000D01*
X3780207Y-31500001D01*
X3755125Y-31502909D01*
X3652522Y-31548213D01*
X3573211Y-31627524D01*
X3537638Y-31708090D01*
X3496838Y-31753686D01*
X3437029Y-31766591D01*
X3381057Y-31741877D01*
X3364759Y-31723104D01*
X3319554Y-31655451D01*
X3319552Y-31655448D01*
X3319548Y-31655445D01*
X3253233Y-31611134D01*
X3253231Y-31611133D01*
X3253228Y-31611132D01*
X3253227Y-31611132D01*
X3194758Y-31599501D01*
X3194748Y-31599500D01*
X2659644Y-31599500D01*
X2601453Y-31580593D01*
X2565489Y-31531093D01*
X2565489Y-31469907D01*
X2577326Y-31445502D01*
X2588867Y-31428231D01*
X2600500Y-31369748D01*
X2600500Y-30706800D01*
X9868933Y-30706800D01*
X10221004Y-31058871D01*
X10248781Y-31113388D01*
X10250000Y-31128875D01*
X10250000Y-31471124D01*
X10231093Y-31529315D01*
X10221004Y-31541128D01*
X9868934Y-31893198D01*
X9927522Y-31951786D01*
X10030127Y-31997090D01*
X10055203Y-31999999D01*
X10444789Y-31999999D01*
X10444792Y-31999998D01*
X10469874Y-31997090D01*
X10572477Y-31951786D01*
X10594768Y-31929496D01*
X10649285Y-31901719D01*
X10664772Y-31900500D01*
X10919747Y-31900500D01*
X10919748Y-31900500D01*
X10956458Y-31893198D01*
X10980685Y-31888379D01*
X11019315Y-31888379D01*
X11080241Y-31900498D01*
X11080246Y-31900498D01*
X11080252Y-31900500D01*
X11080253Y-31900500D01*
X11419747Y-31900500D01*
X11419748Y-31900500D01*
X11456458Y-31893198D01*
X11480685Y-31888379D01*
X11519315Y-31888379D01*
X11580241Y-31900498D01*
X11580246Y-31900498D01*
X11580252Y-31900500D01*
X11580253Y-31900500D01*
X11919747Y-31900500D01*
X11919748Y-31900500D01*
X11956458Y-31893198D01*
X11980685Y-31888379D01*
X12019315Y-31888379D01*
X12080241Y-31900498D01*
X12080246Y-31900498D01*
X12080252Y-31900500D01*
X12080253Y-31900500D01*
X12419747Y-31900500D01*
X12419748Y-31900500D01*
X12456458Y-31893198D01*
X12480685Y-31888379D01*
X12519315Y-31888379D01*
X12580241Y-31900498D01*
X12580246Y-31900498D01*
X12580252Y-31900500D01*
X12580253Y-31900500D01*
X12919747Y-31900500D01*
X12919748Y-31900500D01*
X12956458Y-31893198D01*
X12980685Y-31888379D01*
X13019315Y-31888379D01*
X13080241Y-31900498D01*
X13080246Y-31900498D01*
X13080252Y-31900500D01*
X13080253Y-31900500D01*
X13419747Y-31900500D01*
X13419748Y-31900500D01*
X13456458Y-31893198D01*
X13480685Y-31888379D01*
X13519315Y-31888379D01*
X13580241Y-31900498D01*
X13580246Y-31900498D01*
X13580252Y-31900500D01*
X13580253Y-31900500D01*
X13919747Y-31900500D01*
X13919748Y-31900500D01*
X13978231Y-31888867D01*
X14044552Y-31844552D01*
X14088867Y-31778231D01*
X14100500Y-31719748D01*
X14100500Y-30880252D01*
X14088867Y-30821769D01*
X14044552Y-30755448D01*
X14001822Y-30726896D01*
X13963943Y-30678846D01*
X13959568Y-30626078D01*
X13963273Y-30606602D01*
X13968867Y-30598231D01*
X13980500Y-30539748D01*
X13980500Y-30530253D01*
X17049500Y-30530253D01*
X17049500Y-32069746D01*
X17049501Y-32069758D01*
X17061132Y-32128227D01*
X17061133Y-32128231D01*
X17105448Y-32194552D01*
X17171769Y-32238867D01*
X17216231Y-32247711D01*
X17230241Y-32250498D01*
X17230246Y-32250498D01*
X17230252Y-32250500D01*
X17230253Y-32250500D01*
X18369747Y-32250500D01*
X18369748Y-32250500D01*
X18428231Y-32238867D01*
X18494552Y-32194552D01*
X18538867Y-32128231D01*
X18550500Y-32069748D01*
X18550500Y-31070253D01*
X20309500Y-31070253D01*
X20309500Y-32609746D01*
X20309501Y-32609758D01*
X20321132Y-32668227D01*
X20321134Y-32668233D01*
X20365445Y-32734548D01*
X20365448Y-32734552D01*
X20431769Y-32778867D01*
X20476231Y-32787711D01*
X20490241Y-32790498D01*
X20490246Y-32790498D01*
X20490252Y-32790500D01*
X20490253Y-32790500D01*
X21629747Y-32790500D01*
X21629748Y-32790500D01*
X21688231Y-32778867D01*
X21754552Y-32734552D01*
X21798867Y-32668231D01*
X21810500Y-32609748D01*
X21810500Y-32477866D01*
X25290000Y-32477866D01*
X25927866Y-31839999D01*
X26352132Y-31839999D01*
X26989999Y-32477866D01*
X26989999Y-31202133D01*
X26352132Y-31839999D01*
X25927866Y-31839999D01*
X25290000Y-31202133D01*
X25290000Y-32477866D01*
X21810500Y-32477866D01*
X21810500Y-31070252D01*
X21798867Y-31011769D01*
X21754552Y-30945448D01*
X21688231Y-30901133D01*
X21688228Y-30901132D01*
X21688227Y-30901132D01*
X21629758Y-30889501D01*
X21629748Y-30889500D01*
X20490252Y-30889500D01*
X20490251Y-30889500D01*
X20490241Y-30889501D01*
X20431772Y-30901132D01*
X20431766Y-30901134D01*
X20365451Y-30945445D01*
X20365445Y-30945451D01*
X20321134Y-31011766D01*
X20321132Y-31011772D01*
X20309501Y-31070241D01*
X20309500Y-31070253D01*
X18550500Y-31070253D01*
X18550500Y-30871800D01*
X25383933Y-30871800D01*
X26139999Y-31627866D01*
X26896065Y-30871801D01*
X26862477Y-30838213D01*
X26759872Y-30792909D01*
X26734796Y-30790000D01*
X25545210Y-30790000D01*
X25545208Y-30790001D01*
X25520125Y-30792909D01*
X25417522Y-30838213D01*
X25383933Y-30871800D01*
X18550500Y-30871800D01*
X18550500Y-30530252D01*
X18538867Y-30471769D01*
X18494552Y-30405448D01*
X18482141Y-30397155D01*
X18428233Y-30361134D01*
X18428231Y-30361133D01*
X18428228Y-30361132D01*
X18428227Y-30361132D01*
X18369758Y-30349501D01*
X18369748Y-30349500D01*
X17230252Y-30349500D01*
X17230251Y-30349500D01*
X17230241Y-30349501D01*
X17171772Y-30361132D01*
X17171766Y-30361134D01*
X17105451Y-30405445D01*
X17105445Y-30405451D01*
X17061134Y-30471766D01*
X17061132Y-30471772D01*
X17049501Y-30530241D01*
X17049500Y-30530253D01*
X13980500Y-30530253D01*
X13980500Y-30397154D01*
X14604976Y-30397154D01*
X14650125Y-30417089D01*
X14650127Y-30417090D01*
X14675203Y-30419999D01*
X15304789Y-30419999D01*
X15304792Y-30419998D01*
X15329876Y-30417089D01*
X15375022Y-30397155D01*
X14989999Y-30012132D01*
X14604976Y-30397154D01*
X13980500Y-30397154D01*
X13980500Y-30157866D01*
X14420000Y-30157866D01*
X14777867Y-29800000D01*
X14777866Y-29799999D01*
X15202132Y-29799999D01*
X15202132Y-29800000D01*
X15517674Y-30115543D01*
X15544767Y-30166230D01*
X15551132Y-30198227D01*
X15551134Y-30198233D01*
X15595445Y-30264548D01*
X15595448Y-30264552D01*
X15661769Y-30308867D01*
X15706231Y-30317711D01*
X15720241Y-30320498D01*
X15720246Y-30320498D01*
X15720252Y-30320500D01*
X15720253Y-30320500D01*
X16299747Y-30320500D01*
X16299748Y-30320500D01*
X16358231Y-30308867D01*
X16424552Y-30264552D01*
X16468867Y-30198231D01*
X16480500Y-30139748D01*
X16480500Y-29460252D01*
X16468867Y-29401769D01*
X16424552Y-29335448D01*
X16376331Y-29303227D01*
X16358233Y-29291134D01*
X16358231Y-29291133D01*
X16358228Y-29291132D01*
X16358227Y-29291132D01*
X16299758Y-29279501D01*
X16299748Y-29279500D01*
X15720252Y-29279500D01*
X15720251Y-29279500D01*
X15720241Y-29279501D01*
X15661772Y-29291132D01*
X15661766Y-29291134D01*
X15595451Y-29335445D01*
X15595445Y-29335451D01*
X15551134Y-29401766D01*
X15551132Y-29401772D01*
X15544767Y-29433769D01*
X15517674Y-29484456D01*
X15202132Y-29799999D01*
X14777866Y-29799999D01*
X14420000Y-29442133D01*
X14420000Y-30157866D01*
X13980500Y-30157866D01*
X13980500Y-29860252D01*
X13968867Y-29801769D01*
X13924552Y-29735448D01*
X13924548Y-29735445D01*
X13858233Y-29691134D01*
X13858231Y-29691133D01*
X13858228Y-29691132D01*
X13858227Y-29691132D01*
X13799758Y-29679501D01*
X13799748Y-29679500D01*
X13220252Y-29679500D01*
X13220251Y-29679500D01*
X13220241Y-29679501D01*
X13161772Y-29691132D01*
X13161766Y-29691134D01*
X13095451Y-29735445D01*
X13095445Y-29735451D01*
X13051134Y-29801766D01*
X13051132Y-29801772D01*
X13044767Y-29833769D01*
X13031600Y-29857279D01*
X13017674Y-29884457D01*
X12560003Y-30342128D01*
X12505486Y-30369905D01*
X12445054Y-30360334D01*
X12419995Y-30342128D01*
X11920000Y-29842133D01*
X11920000Y-30564788D01*
X11922820Y-30589094D01*
X11910743Y-30649076D01*
X11865716Y-30690503D01*
X11824479Y-30699500D01*
X11580248Y-30699500D01*
X11519314Y-30711621D01*
X11480686Y-30711621D01*
X11419751Y-30699500D01*
X11419748Y-30699500D01*
X11080252Y-30699500D01*
X11080248Y-30699500D01*
X11019314Y-30711621D01*
X10980686Y-30711621D01*
X10919751Y-30699500D01*
X10919748Y-30699500D01*
X10664772Y-30699500D01*
X10606581Y-30680593D01*
X10594768Y-30670504D01*
X10572477Y-30648213D01*
X10469872Y-30602909D01*
X10444796Y-30600000D01*
X10055210Y-30600000D01*
X10055207Y-30600001D01*
X10030125Y-30602909D01*
X9927520Y-30648214D01*
X9868933Y-30706800D01*
X2600500Y-30706800D01*
X2600500Y-30130252D01*
X2600098Y-30128233D01*
X2597574Y-30115543D01*
X2588867Y-30071769D01*
X2544552Y-30005448D01*
X2518241Y-29987867D01*
X2478233Y-29961134D01*
X2478231Y-29961133D01*
X2478228Y-29961132D01*
X2478227Y-29961132D01*
X2419758Y-29949501D01*
X2419748Y-29949500D01*
X1580252Y-29949500D01*
X1580251Y-29949500D01*
X1580241Y-29949501D01*
X1521772Y-29961132D01*
X1521766Y-29961134D01*
X1455451Y-30005445D01*
X1455445Y-30005451D01*
X1411134Y-30071766D01*
X1411132Y-30071772D01*
X1399501Y-30130241D01*
X1399500Y-30130253D01*
X250000Y-30130253D01*
X250000Y-28230253D01*
X1399500Y-28230253D01*
X1399500Y-29469746D01*
X1399501Y-29469758D01*
X1411132Y-29528227D01*
X1411134Y-29528233D01*
X1455445Y-29594548D01*
X1455448Y-29594552D01*
X1521769Y-29638867D01*
X1566231Y-29647711D01*
X1580241Y-29650498D01*
X1580246Y-29650498D01*
X1580252Y-29650500D01*
X1580253Y-29650500D01*
X2419747Y-29650500D01*
X2419748Y-29650500D01*
X2478231Y-29638867D01*
X2544552Y-29594552D01*
X2588867Y-29528231D01*
X2600500Y-29469748D01*
X2600500Y-29430697D01*
X11731433Y-29430697D01*
X11777523Y-29476787D01*
X11814999Y-29493333D01*
X11856991Y-29465971D01*
X11886276Y-29458075D01*
X11915981Y-29450038D01*
X11916020Y-29450055D01*
X11916067Y-29450043D01*
X11973156Y-29471827D01*
X12062934Y-29544168D01*
X12072257Y-29558448D01*
X12085229Y-29569527D01*
X12088567Y-29583430D01*
X12094219Y-29592088D01*
X12489999Y-29987867D01*
X12888360Y-29589506D01*
X12889755Y-29578779D01*
X12901602Y-29566254D01*
X12909498Y-29550933D01*
X12922101Y-29544583D01*
X12931802Y-29534329D01*
X12941294Y-29529793D01*
X12952867Y-29524999D01*
X13032381Y-29445485D01*
X13086897Y-29417707D01*
X13140264Y-29424021D01*
X13165000Y-29434265D01*
X13168565Y-29430698D01*
X12940711Y-29202844D01*
X14604975Y-29202844D01*
X14989999Y-29587867D01*
X15375023Y-29202843D01*
X15329875Y-29182910D01*
X15329875Y-29182909D01*
X15304796Y-29180000D01*
X14675210Y-29180000D01*
X14675209Y-29180001D01*
X14650126Y-29182910D01*
X14604975Y-29202844D01*
X12940711Y-29202844D01*
X12450000Y-28712133D01*
X11833579Y-29328554D01*
X11833578Y-29328554D01*
X11731433Y-29430697D01*
X2600500Y-29430697D01*
X2600500Y-28230252D01*
X2588867Y-28171769D01*
X2544552Y-28105448D01*
X2544548Y-28105445D01*
X2478233Y-28061134D01*
X2478231Y-28061133D01*
X2478228Y-28061132D01*
X2478227Y-28061132D01*
X2419758Y-28049501D01*
X2419748Y-28049500D01*
X1580252Y-28049500D01*
X1580251Y-28049500D01*
X1580241Y-28049501D01*
X1521772Y-28061132D01*
X1521766Y-28061134D01*
X1455451Y-28105445D01*
X1455445Y-28105451D01*
X1411134Y-28171766D01*
X1411132Y-28171772D01*
X1399501Y-28230241D01*
X1399500Y-28230253D01*
X250000Y-28230253D01*
X250000Y-27755253D01*
X9849500Y-27755253D01*
X9849500Y-29244746D01*
X9849501Y-29244758D01*
X9861132Y-29303227D01*
X9861134Y-29303233D01*
X9882152Y-29334688D01*
X9905448Y-29369552D01*
X9971769Y-29413867D01*
X10016231Y-29422711D01*
X10030241Y-29425498D01*
X10030246Y-29425498D01*
X10030252Y-29425500D01*
X10030253Y-29425500D01*
X11069747Y-29425500D01*
X11069748Y-29425500D01*
X11128231Y-29413867D01*
X11194552Y-29369552D01*
X11238867Y-29303231D01*
X11250500Y-29244748D01*
X11250500Y-29087866D01*
X11650000Y-29087866D01*
X12237866Y-28499999D01*
X12662132Y-28499999D01*
X13249999Y-29087866D01*
X13249999Y-28530253D01*
X20309500Y-28530253D01*
X20309500Y-30069746D01*
X20309501Y-30069758D01*
X20321132Y-30128227D01*
X20321134Y-30128233D01*
X20365445Y-30194548D01*
X20365448Y-30194552D01*
X20431769Y-30238867D01*
X20476231Y-30247711D01*
X20490241Y-30250498D01*
X20490246Y-30250498D01*
X20490252Y-30250500D01*
X20490253Y-30250500D01*
X21629747Y-30250500D01*
X21629748Y-30250500D01*
X21688231Y-30238867D01*
X21754552Y-30194552D01*
X21798867Y-30128231D01*
X21810500Y-30069748D01*
X21810500Y-28530253D01*
X22849500Y-28530253D01*
X22849500Y-30069746D01*
X22849501Y-30069758D01*
X22861132Y-30128227D01*
X22861134Y-30128233D01*
X22905445Y-30194548D01*
X22905448Y-30194552D01*
X22971769Y-30238867D01*
X23016231Y-30247711D01*
X23030241Y-30250498D01*
X23030246Y-30250498D01*
X23030252Y-30250500D01*
X23030253Y-30250500D01*
X24169747Y-30250500D01*
X24169748Y-30250500D01*
X24228231Y-30238867D01*
X24294552Y-30194552D01*
X24338867Y-30128231D01*
X24350500Y-30069748D01*
X24350500Y-28530253D01*
X25389500Y-28530253D01*
X25389500Y-30069746D01*
X25389501Y-30069758D01*
X25401132Y-30128227D01*
X25401134Y-30128233D01*
X25445445Y-30194548D01*
X25445448Y-30194552D01*
X25511769Y-30238867D01*
X25556231Y-30247711D01*
X25570241Y-30250498D01*
X25570246Y-30250498D01*
X25570252Y-30250500D01*
X25570253Y-30250500D01*
X26709747Y-30250500D01*
X26709748Y-30250500D01*
X26768231Y-30238867D01*
X26834552Y-30194552D01*
X26878867Y-30128231D01*
X26890500Y-30069748D01*
X26890500Y-28530252D01*
X26878867Y-28471769D01*
X26834552Y-28405448D01*
X26834548Y-28405445D01*
X26768233Y-28361134D01*
X26768231Y-28361133D01*
X26768228Y-28361132D01*
X26768227Y-28361132D01*
X26709758Y-28349501D01*
X26709748Y-28349500D01*
X25570252Y-28349500D01*
X25570251Y-28349500D01*
X25570241Y-28349501D01*
X25511772Y-28361132D01*
X25511766Y-28361134D01*
X25445451Y-28405445D01*
X25445445Y-28405451D01*
X25401134Y-28471766D01*
X25401132Y-28471772D01*
X25389501Y-28530241D01*
X25389500Y-28530253D01*
X24350500Y-28530253D01*
X24350500Y-28530252D01*
X24338867Y-28471769D01*
X24294552Y-28405448D01*
X24294548Y-28405445D01*
X24228233Y-28361134D01*
X24228231Y-28361133D01*
X24228228Y-28361132D01*
X24228227Y-28361132D01*
X24169758Y-28349501D01*
X24169748Y-28349500D01*
X23030252Y-28349500D01*
X23030251Y-28349500D01*
X23030241Y-28349501D01*
X22971772Y-28361132D01*
X22971766Y-28361134D01*
X22905451Y-28405445D01*
X22905445Y-28405451D01*
X22861134Y-28471766D01*
X22861132Y-28471772D01*
X22849501Y-28530241D01*
X22849500Y-28530253D01*
X21810500Y-28530253D01*
X21810500Y-28530252D01*
X21798867Y-28471769D01*
X21754552Y-28405448D01*
X21754548Y-28405445D01*
X21688233Y-28361134D01*
X21688231Y-28361133D01*
X21688228Y-28361132D01*
X21688227Y-28361132D01*
X21629758Y-28349501D01*
X21629748Y-28349500D01*
X20490252Y-28349500D01*
X20490251Y-28349500D01*
X20490241Y-28349501D01*
X20431772Y-28361132D01*
X20431766Y-28361134D01*
X20365451Y-28405445D01*
X20365445Y-28405451D01*
X20321134Y-28471766D01*
X20321132Y-28471772D01*
X20309501Y-28530241D01*
X20309500Y-28530253D01*
X13249999Y-28530253D01*
X13249999Y-28104811D01*
X15122319Y-28104811D01*
X15150128Y-28117090D01*
X15150125Y-28117090D01*
X15175203Y-28119999D01*
X15854789Y-28119999D01*
X15854792Y-28119998D01*
X15879871Y-28117090D01*
X15879878Y-28117088D01*
X15907679Y-28104812D01*
X15514999Y-27712132D01*
X15122319Y-28104811D01*
X13249999Y-28104811D01*
X13249999Y-27912133D01*
X12662132Y-28499999D01*
X12237866Y-28499999D01*
X11650000Y-27912133D01*
X11650000Y-29087866D01*
X11250500Y-29087866D01*
X11250500Y-27755252D01*
X11238867Y-27696769D01*
X11194552Y-27630448D01*
X11191237Y-27628233D01*
X11164860Y-27610608D01*
X11128233Y-27586134D01*
X11128231Y-27586133D01*
X11128228Y-27586132D01*
X11128227Y-27586132D01*
X11069758Y-27574501D01*
X11069748Y-27574500D01*
X10030252Y-27574500D01*
X10030251Y-27574500D01*
X10030241Y-27574501D01*
X9971772Y-27586132D01*
X9971766Y-27586134D01*
X9905451Y-27630445D01*
X9905445Y-27630451D01*
X9861134Y-27696766D01*
X9861132Y-27696772D01*
X9849501Y-27755241D01*
X9849500Y-27755253D01*
X250000Y-27755253D01*
X250000Y-26330253D01*
X1399500Y-26330253D01*
X1399500Y-27569746D01*
X1399501Y-27569758D01*
X1411132Y-27628227D01*
X1411133Y-27628231D01*
X1455448Y-27694552D01*
X1521769Y-27738867D01*
X1566231Y-27747711D01*
X1580241Y-27750498D01*
X1580246Y-27750498D01*
X1580252Y-27750500D01*
X1580253Y-27750500D01*
X2419747Y-27750500D01*
X2419748Y-27750500D01*
X2478231Y-27738867D01*
X2544552Y-27694552D01*
X2588867Y-27628231D01*
X2600500Y-27569748D01*
X2600500Y-27569300D01*
X11731433Y-27569300D01*
X12449999Y-28287866D01*
X13168565Y-27569301D01*
X13122477Y-27523213D01*
X13019872Y-27477909D01*
X12994796Y-27475000D01*
X11905210Y-27475000D01*
X11905208Y-27475001D01*
X11880125Y-27477909D01*
X11777520Y-27523214D01*
X11731433Y-27569300D01*
X2600500Y-27569300D01*
X2600500Y-27135200D01*
X14920000Y-27135200D01*
X14920000Y-27864786D01*
X14920001Y-27864793D01*
X14921879Y-27880987D01*
X15302867Y-27500000D01*
X14921878Y-27119011D01*
X14920000Y-27135200D01*
X2600500Y-27135200D01*
X2600500Y-26330252D01*
X2588867Y-26271769D01*
X2544552Y-26205448D01*
X2544548Y-26205445D01*
X2478233Y-26161134D01*
X2478231Y-26161133D01*
X2478228Y-26161132D01*
X2478227Y-26161132D01*
X2419758Y-26149501D01*
X2419748Y-26149500D01*
X1580252Y-26149500D01*
X1580251Y-26149500D01*
X1580241Y-26149501D01*
X1521772Y-26161132D01*
X1521766Y-26161134D01*
X1455451Y-26205445D01*
X1455445Y-26205451D01*
X1411134Y-26271766D01*
X1411132Y-26271772D01*
X1399501Y-26330241D01*
X1399500Y-26330253D01*
X250000Y-26330253D01*
X250000Y-26093280D01*
X4298850Y-26093280D01*
X4330124Y-26107089D01*
X4330127Y-26107090D01*
X4355203Y-26109999D01*
X5004789Y-26109999D01*
X5004792Y-26109998D01*
X5029876Y-26107089D01*
X5061148Y-26093281D01*
X4679999Y-25712132D01*
X4298850Y-26093280D01*
X250000Y-26093280D01*
X250000Y-25170253D01*
X3239500Y-25170253D01*
X3239500Y-25829746D01*
X3239501Y-25829758D01*
X3251132Y-25888227D01*
X3251134Y-25888233D01*
X3279509Y-25930698D01*
X3295448Y-25954552D01*
X3361769Y-25998867D01*
X3406231Y-26007711D01*
X3420241Y-26010498D01*
X3420246Y-26010498D01*
X3420252Y-26010500D01*
X3420253Y-26010500D01*
X4019747Y-26010500D01*
X4019748Y-26010500D01*
X4078231Y-25998867D01*
X4144552Y-25954552D01*
X4188867Y-25888231D01*
X4200500Y-25829748D01*
X4200500Y-25808375D01*
X4219407Y-25750184D01*
X4229496Y-25738371D01*
X4467868Y-25499999D01*
X4229496Y-25261627D01*
X4201719Y-25207111D01*
X4200500Y-25191624D01*
X4200500Y-25170253D01*
X4200498Y-25170241D01*
X4194298Y-25139073D01*
X4188867Y-25111769D01*
X4144552Y-25045448D01*
X4133236Y-25037887D01*
X4109664Y-25022136D01*
X4078233Y-25001134D01*
X4078231Y-25001133D01*
X4078228Y-25001132D01*
X4078227Y-25001132D01*
X4019758Y-24989501D01*
X4019748Y-24989500D01*
X3420252Y-24989500D01*
X3420251Y-24989500D01*
X3420241Y-24989501D01*
X3361772Y-25001132D01*
X3361766Y-25001134D01*
X3295451Y-25045445D01*
X3295445Y-25045451D01*
X3251134Y-25111766D01*
X3251132Y-25111772D01*
X3239501Y-25170241D01*
X3239500Y-25170253D01*
X250000Y-25170253D01*
X250000Y-24906717D01*
X4298850Y-24906717D01*
X4680000Y-25287867D01*
X5061149Y-24906717D01*
X5029878Y-24892910D01*
X5029875Y-24892909D01*
X5004796Y-24890000D01*
X4355210Y-24890000D01*
X4355209Y-24890001D01*
X4330124Y-24892910D01*
X4298850Y-24906717D01*
X250000Y-24906717D01*
X250000Y-24093280D01*
X4298850Y-24093280D01*
X4330124Y-24107089D01*
X4330127Y-24107090D01*
X4355203Y-24109999D01*
X5004789Y-24109999D01*
X5004792Y-24109998D01*
X5029876Y-24107089D01*
X5061148Y-24093281D01*
X4679999Y-23712132D01*
X4298850Y-24093280D01*
X250000Y-24093280D01*
X250000Y-21855253D01*
X899500Y-21855253D01*
X899500Y-23144746D01*
X899501Y-23144758D01*
X911132Y-23203227D01*
X911134Y-23203233D01*
X955445Y-23269548D01*
X955448Y-23269552D01*
X1021769Y-23313867D01*
X1066231Y-23322711D01*
X1080241Y-23325498D01*
X1080246Y-23325498D01*
X1080252Y-23325500D01*
X1080253Y-23325500D01*
X1835228Y-23325500D01*
X1893419Y-23344407D01*
X1905232Y-23354496D01*
X1927522Y-23376786D01*
X2030127Y-23422090D01*
X2055203Y-23424999D01*
X2944789Y-23424999D01*
X2944791Y-23424998D01*
X2969874Y-23422090D01*
X3072479Y-23376785D01*
X3080047Y-23371602D01*
X3081214Y-23373306D01*
X3125013Y-23350991D01*
X3185445Y-23360562D01*
X3228710Y-23403827D01*
X3239500Y-23448772D01*
X3239500Y-23829746D01*
X3239501Y-23829758D01*
X3251132Y-23888227D01*
X3251134Y-23888233D01*
X3294565Y-23953231D01*
X3295448Y-23954552D01*
X3361769Y-23998867D01*
X3406231Y-24007711D01*
X3420241Y-24010498D01*
X3420246Y-24010498D01*
X3420252Y-24010500D01*
X3420253Y-24010500D01*
X4019747Y-24010500D01*
X4019748Y-24010500D01*
X4078231Y-23998867D01*
X4107215Y-23979500D01*
X4109667Y-23977862D01*
X4117877Y-23972375D01*
X4144552Y-23954552D01*
X4188867Y-23888231D01*
X4200500Y-23829748D01*
X4200500Y-23808375D01*
X4219407Y-23750184D01*
X4229496Y-23738371D01*
X4467868Y-23499999D01*
X4229496Y-23261627D01*
X4201719Y-23207111D01*
X4200500Y-23191624D01*
X4200500Y-23170253D01*
X4200498Y-23170241D01*
X4195427Y-23144748D01*
X4188867Y-23111769D01*
X4144552Y-23045448D01*
X4133236Y-23037887D01*
X4109664Y-23022136D01*
X4078233Y-23001134D01*
X4078231Y-23001133D01*
X4078228Y-23001132D01*
X4078227Y-23001132D01*
X4019758Y-22989501D01*
X4019748Y-22989500D01*
X3420252Y-22989500D01*
X3420251Y-22989500D01*
X3420241Y-22989501D01*
X3361772Y-23001132D01*
X3361765Y-23001134D01*
X3353996Y-23006326D01*
X3295107Y-23022930D01*
X3237704Y-23001750D01*
X3203714Y-22950874D01*
X3199999Y-22924007D01*
X3199999Y-22906717D01*
X4298850Y-22906717D01*
X4680000Y-23287867D01*
X5061149Y-22906717D01*
X5029878Y-22892910D01*
X5029875Y-22892909D01*
X5004796Y-22890000D01*
X4355210Y-22890000D01*
X4355209Y-22890001D01*
X4330124Y-22892910D01*
X4298850Y-22906717D01*
X3199999Y-22906717D01*
X3199999Y-22093280D01*
X4298850Y-22093280D01*
X4330124Y-22107089D01*
X4330127Y-22107090D01*
X4355203Y-22109999D01*
X5004789Y-22109999D01*
X5004792Y-22109998D01*
X5029876Y-22107089D01*
X5061148Y-22093281D01*
X4679999Y-21712132D01*
X4298850Y-22093280D01*
X3199999Y-22093280D01*
X3199999Y-22075991D01*
X3218906Y-22017800D01*
X3268406Y-21981836D01*
X3329592Y-21981836D01*
X3353998Y-21993674D01*
X3361769Y-21998867D01*
X3406231Y-22007711D01*
X3420241Y-22010498D01*
X3420246Y-22010498D01*
X3420252Y-22010500D01*
X3420253Y-22010500D01*
X4019747Y-22010500D01*
X4019748Y-22010500D01*
X4078231Y-21998867D01*
X4144552Y-21954552D01*
X4188867Y-21888231D01*
X4200500Y-21829748D01*
X4200500Y-21808375D01*
X4219407Y-21750184D01*
X4229496Y-21738371D01*
X4467868Y-21499999D01*
X4892132Y-21499999D01*
X5258640Y-21866507D01*
X5273846Y-21861215D01*
X5279793Y-21848240D01*
X5291725Y-21841522D01*
X5300573Y-21831077D01*
X5317722Y-21826885D01*
X5333109Y-21818223D01*
X5346709Y-21819801D01*
X5360009Y-21816551D01*
X5376348Y-21823241D01*
X5393887Y-21825277D01*
X5403961Y-21834548D01*
X5416632Y-21839736D01*
X5424949Y-21853861D01*
X5438910Y-21866708D01*
X5448813Y-21891775D01*
X5449500Y-21894586D01*
X5449500Y-21894748D01*
X5461133Y-21953231D01*
X5465388Y-21959599D01*
X5469518Y-21976498D01*
X5467778Y-21999811D01*
X5469611Y-22023116D01*
X5464974Y-22037387D01*
X5464965Y-22037513D01*
X5464913Y-22037573D01*
X5464814Y-22037881D01*
X5461132Y-22046769D01*
X5449501Y-22105241D01*
X5449500Y-22105253D01*
X5449500Y-22394746D01*
X5449501Y-22394758D01*
X5461132Y-22453230D01*
X5464814Y-22462119D01*
X5469611Y-22523116D01*
X5464814Y-22537881D01*
X5461132Y-22546769D01*
X5449501Y-22605241D01*
X5449500Y-22605253D01*
X5449500Y-22894746D01*
X5449501Y-22894758D01*
X5461132Y-22953230D01*
X5464814Y-22962119D01*
X5469611Y-23023116D01*
X5469518Y-23023504D01*
X5465388Y-23040399D01*
X5461133Y-23046769D01*
X5449500Y-23105252D01*
X5449500Y-23105411D01*
X5448815Y-23108214D01*
X5433790Y-23132508D01*
X5419844Y-23157410D01*
X5417811Y-23158347D01*
X5416633Y-23160252D01*
X5390199Y-23171074D01*
X5364278Y-23183024D01*
X5362082Y-23182587D01*
X5360010Y-23183436D01*
X5332270Y-23176656D01*
X5304269Y-23171086D01*
X5302749Y-23169441D01*
X5300574Y-23168910D01*
X5282119Y-23147123D01*
X5274679Y-23139073D01*
X5258640Y-23133491D01*
X4892132Y-23499999D01*
X5258640Y-23866507D01*
X5273846Y-23861215D01*
X5279793Y-23848240D01*
X5291725Y-23841522D01*
X5300573Y-23831077D01*
X5317722Y-23826885D01*
X5333109Y-23818223D01*
X5346709Y-23819801D01*
X5360009Y-23816551D01*
X5376348Y-23823241D01*
X5393887Y-23825277D01*
X5403961Y-23834548D01*
X5416632Y-23839736D01*
X5424949Y-23853861D01*
X5438910Y-23866708D01*
X5448813Y-23891775D01*
X5449500Y-23894586D01*
X5449500Y-23894748D01*
X5461133Y-23953231D01*
X5465388Y-23959599D01*
X5469518Y-23976498D01*
X5467778Y-23999811D01*
X5469611Y-24023116D01*
X5464974Y-24037387D01*
X5464965Y-24037513D01*
X5464913Y-24037573D01*
X5464814Y-24037881D01*
X5461132Y-24046769D01*
X5449501Y-24105241D01*
X5449500Y-24105253D01*
X5449500Y-24394746D01*
X5449501Y-24394758D01*
X5461132Y-24453230D01*
X5464814Y-24462119D01*
X5469611Y-24523116D01*
X5464814Y-24537881D01*
X5461132Y-24546769D01*
X5449501Y-24605241D01*
X5449500Y-24605253D01*
X5449500Y-24894746D01*
X5449501Y-24894758D01*
X5461132Y-24953230D01*
X5464814Y-24962119D01*
X5469611Y-25023116D01*
X5469518Y-25023504D01*
X5465388Y-25040399D01*
X5461133Y-25046769D01*
X5449500Y-25105252D01*
X5449500Y-25105411D01*
X5448815Y-25108214D01*
X5433790Y-25132508D01*
X5419844Y-25157410D01*
X5417811Y-25158347D01*
X5416633Y-25160252D01*
X5390199Y-25171074D01*
X5364278Y-25183024D01*
X5362082Y-25182587D01*
X5360010Y-25183436D01*
X5332270Y-25176656D01*
X5304269Y-25171086D01*
X5302749Y-25169441D01*
X5300574Y-25168910D01*
X5282119Y-25147123D01*
X5274679Y-25139073D01*
X5258640Y-25133491D01*
X4892132Y-25499999D01*
X5258640Y-25866507D01*
X5259999Y-25854793D01*
X5259999Y-25447227D01*
X5278906Y-25389036D01*
X5328406Y-25353072D01*
X5389591Y-25353072D01*
X5439092Y-25389036D01*
X5456096Y-25427911D01*
X5461132Y-25453227D01*
X5461134Y-25453233D01*
X5502895Y-25515731D01*
X5505448Y-25519552D01*
X5571769Y-25563867D01*
X5616231Y-25572711D01*
X5630241Y-25575498D01*
X5630246Y-25575498D01*
X5630252Y-25575500D01*
X6325500Y-25575500D01*
X6383691Y-25594407D01*
X6419655Y-25643907D01*
X6424500Y-25674500D01*
X6424500Y-26369746D01*
X6424501Y-26369758D01*
X6436132Y-26428227D01*
X6436133Y-26428231D01*
X6480448Y-26494552D01*
X6546769Y-26538867D01*
X6591231Y-26547711D01*
X6605241Y-26550498D01*
X6605246Y-26550498D01*
X6605252Y-26550500D01*
X6605253Y-26550500D01*
X6894747Y-26550500D01*
X6894748Y-26550500D01*
X6953231Y-26538867D01*
X6953236Y-26538863D01*
X6962113Y-26535187D01*
X7023110Y-26530386D01*
X7037887Y-26535187D01*
X7046765Y-26538864D01*
X7046769Y-26538867D01*
X7105252Y-26550500D01*
X7105253Y-26550500D01*
X7394747Y-26550500D01*
X7394748Y-26550500D01*
X7453231Y-26538867D01*
X7453236Y-26538863D01*
X7462113Y-26535187D01*
X7523110Y-26530386D01*
X7537887Y-26535187D01*
X7546765Y-26538864D01*
X7546769Y-26538867D01*
X7605252Y-26550500D01*
X7605253Y-26550500D01*
X7894747Y-26550500D01*
X7894748Y-26550500D01*
X7953231Y-26538867D01*
X7953236Y-26538863D01*
X7962113Y-26535187D01*
X8023110Y-26530386D01*
X8037887Y-26535187D01*
X8046765Y-26538864D01*
X8046769Y-26538867D01*
X8105252Y-26550500D01*
X8105253Y-26550500D01*
X8394747Y-26550500D01*
X8394748Y-26550500D01*
X8453231Y-26538867D01*
X8453236Y-26538863D01*
X8462113Y-26535187D01*
X8523110Y-26530386D01*
X8537887Y-26535187D01*
X8546765Y-26538864D01*
X8546769Y-26538867D01*
X8605252Y-26550500D01*
X8605253Y-26550500D01*
X8894747Y-26550500D01*
X8894748Y-26550500D01*
X8953231Y-26538867D01*
X8953236Y-26538863D01*
X8962113Y-26535187D01*
X9023110Y-26530386D01*
X9037887Y-26535187D01*
X9046765Y-26538864D01*
X9046769Y-26538867D01*
X9105252Y-26550500D01*
X9105253Y-26550500D01*
X9394747Y-26550500D01*
X9394748Y-26550500D01*
X9453231Y-26538867D01*
X9453236Y-26538863D01*
X9462113Y-26535187D01*
X9523110Y-26530386D01*
X9537887Y-26535187D01*
X9546765Y-26538864D01*
X9546769Y-26538867D01*
X9605252Y-26550500D01*
X9605253Y-26550500D01*
X9894747Y-26550500D01*
X9894748Y-26550500D01*
X9953231Y-26538867D01*
X9953236Y-26538863D01*
X9962113Y-26535187D01*
X10023110Y-26530386D01*
X10037887Y-26535187D01*
X10046765Y-26538864D01*
X10046769Y-26538867D01*
X10105252Y-26550500D01*
X10105253Y-26550500D01*
X10394747Y-26550500D01*
X10394748Y-26550500D01*
X10453231Y-26538867D01*
X10519552Y-26494552D01*
X10563867Y-26428231D01*
X10575500Y-26369748D01*
X10575500Y-25960253D01*
X15019500Y-25960253D01*
X15019500Y-26639746D01*
X15019501Y-26639758D01*
X15031132Y-26698227D01*
X15031133Y-26698231D01*
X15075448Y-26764552D01*
X15075451Y-26764554D01*
X15084507Y-26770605D01*
X15122386Y-26818655D01*
X15126819Y-26871111D01*
X15122318Y-26895186D01*
X15514999Y-27287868D01*
X15515000Y-27287868D01*
X15960504Y-27733372D01*
X15988281Y-27787889D01*
X15989500Y-27803376D01*
X15989500Y-27839746D01*
X15989501Y-27839758D01*
X15997703Y-27880987D01*
X16001133Y-27898231D01*
X16045448Y-27964552D01*
X16111769Y-28008867D01*
X16156231Y-28017711D01*
X16170241Y-28020498D01*
X16170246Y-28020498D01*
X16170252Y-28020500D01*
X16170253Y-28020500D01*
X16799747Y-28020500D01*
X16799748Y-28020500D01*
X16858231Y-28008867D01*
X16924552Y-27964552D01*
X16968867Y-27898231D01*
X16980500Y-27839748D01*
X16980500Y-27160252D01*
X16968867Y-27101769D01*
X16924552Y-27035448D01*
X16858231Y-26991133D01*
X16850124Y-26985716D01*
X16850914Y-26984532D01*
X16812505Y-26951732D01*
X16798219Y-26892238D01*
X16821630Y-26835709D01*
X16850449Y-26814770D01*
X16850124Y-26814284D01*
X16858231Y-26808867D01*
X16924552Y-26764552D01*
X16968867Y-26698231D01*
X16980500Y-26639748D01*
X16980500Y-25960252D01*
X16979365Y-25954548D01*
X16974621Y-25930698D01*
X27731434Y-25930698D01*
X27777522Y-25976786D01*
X27880127Y-26022090D01*
X27905203Y-26024999D01*
X28994789Y-26024999D01*
X28994791Y-26024998D01*
X29019874Y-26022090D01*
X29122478Y-25976786D01*
X29168565Y-25930698D01*
X28449999Y-25212132D01*
X27731434Y-25930698D01*
X16974621Y-25930698D01*
X16971273Y-25913865D01*
X16968867Y-25901769D01*
X16924552Y-25835448D01*
X16924548Y-25835445D01*
X16858233Y-25791134D01*
X16858231Y-25791133D01*
X16858228Y-25791132D01*
X16858227Y-25791132D01*
X16799758Y-25779501D01*
X16799748Y-25779500D01*
X16220252Y-25779500D01*
X16220251Y-25779500D01*
X16220241Y-25779501D01*
X16161772Y-25791132D01*
X16161766Y-25791134D01*
X16095451Y-25835445D01*
X16095447Y-25835449D01*
X16082315Y-25855103D01*
X16034264Y-25892982D01*
X15973126Y-25895383D01*
X15922253Y-25861389D01*
X15917685Y-25855103D01*
X15917478Y-25854793D01*
X15904552Y-25835448D01*
X15904548Y-25835445D01*
X15838233Y-25791134D01*
X15838231Y-25791133D01*
X15838228Y-25791132D01*
X15838227Y-25791132D01*
X15779758Y-25779501D01*
X15779748Y-25779500D01*
X15200252Y-25779500D01*
X15200251Y-25779500D01*
X15200241Y-25779501D01*
X15141772Y-25791132D01*
X15141766Y-25791134D01*
X15075451Y-25835445D01*
X15075445Y-25835451D01*
X15031134Y-25901766D01*
X15031132Y-25901772D01*
X15019501Y-25960241D01*
X15019500Y-25960253D01*
X10575500Y-25960253D01*
X10575500Y-25674500D01*
X10594407Y-25616309D01*
X10643907Y-25580345D01*
X10674500Y-25575500D01*
X11369747Y-25575500D01*
X11369748Y-25575500D01*
X11428231Y-25563867D01*
X11494552Y-25519552D01*
X11538867Y-25453231D01*
X11550500Y-25394748D01*
X11550500Y-25105252D01*
X11538867Y-25046769D01*
X11538864Y-25046765D01*
X11535187Y-25037887D01*
X11530386Y-24976890D01*
X11535187Y-24962113D01*
X11538863Y-24953236D01*
X11538867Y-24953231D01*
X11550500Y-24894748D01*
X11550500Y-24605252D01*
X11538867Y-24546769D01*
X11538864Y-24546765D01*
X11535187Y-24537887D01*
X11530386Y-24476890D01*
X11535187Y-24462113D01*
X11538863Y-24453236D01*
X11538867Y-24453231D01*
X11550500Y-24394748D01*
X11550500Y-24105252D01*
X11538867Y-24046769D01*
X11538864Y-24046765D01*
X11535187Y-24037887D01*
X11530386Y-23976890D01*
X11535187Y-23962113D01*
X11538863Y-23953236D01*
X11538867Y-23953231D01*
X11550500Y-23894748D01*
X11550500Y-23605252D01*
X11538867Y-23546769D01*
X11537069Y-23544078D01*
X11532914Y-23531849D01*
X11532892Y-23530204D01*
X12250000Y-23530204D01*
X12250000Y-23969789D01*
X12250001Y-23969790D01*
X12252910Y-23994873D01*
X12261358Y-24014009D01*
X12268691Y-24015380D01*
X12322417Y-24044658D01*
X12348673Y-24099923D01*
X12349500Y-24112694D01*
X12349500Y-24444752D01*
X12356648Y-24480687D01*
X12356648Y-24519313D01*
X12349500Y-24555247D01*
X12349500Y-24944752D01*
X12356648Y-24980687D01*
X12356648Y-25019313D01*
X12349500Y-25055247D01*
X12349500Y-25444746D01*
X12349501Y-25444758D01*
X12361132Y-25503227D01*
X12361134Y-25503233D01*
X12372040Y-25519554D01*
X12405448Y-25569552D01*
X12471769Y-25613867D01*
X12516231Y-25622711D01*
X12530241Y-25625498D01*
X12530246Y-25625498D01*
X12530252Y-25625500D01*
X12530253Y-25625500D01*
X12944747Y-25625500D01*
X12944748Y-25625500D01*
X12944748Y-25625499D01*
X12949592Y-25625023D01*
X12949673Y-25625846D01*
X12981647Y-25625845D01*
X12984268Y-25626366D01*
X12984269Y-25626367D01*
X13003859Y-25630263D01*
X13042743Y-25637999D01*
X13042750Y-25637999D01*
X13042752Y-25638000D01*
X13042753Y-25638000D01*
X13390720Y-25638000D01*
X13448911Y-25656907D01*
X13484875Y-25706407D01*
X13488038Y-25718827D01*
X13490833Y-25733797D01*
X13492627Y-25734590D01*
X13517703Y-25737499D01*
X13982289Y-25737499D01*
X13982289Y-25737498D01*
X14007377Y-25734589D01*
X14009166Y-25733798D01*
X14014292Y-25706336D01*
X14043555Y-25652602D01*
X14098813Y-25626331D01*
X14111611Y-25625500D01*
X14469747Y-25625500D01*
X14469748Y-25625500D01*
X14528231Y-25613867D01*
X14594552Y-25569552D01*
X14638867Y-25503231D01*
X14650500Y-25444748D01*
X14650500Y-25097154D01*
X16624976Y-25097154D01*
X16670125Y-25117089D01*
X16670127Y-25117090D01*
X16695203Y-25119999D01*
X17324789Y-25119999D01*
X17324792Y-25119998D01*
X17349876Y-25117089D01*
X17395022Y-25097155D01*
X17009999Y-24712132D01*
X16624976Y-25097154D01*
X14650500Y-25097154D01*
X14650500Y-25055252D01*
X14643351Y-25019313D01*
X14643351Y-24980684D01*
X14647046Y-24962113D01*
X14650500Y-24944748D01*
X14650500Y-24555252D01*
X14643351Y-24519313D01*
X14643351Y-24480684D01*
X14647046Y-24462113D01*
X14650500Y-24444748D01*
X14650500Y-24160253D01*
X15519500Y-24160253D01*
X15519500Y-24839746D01*
X15519501Y-24839758D01*
X15531132Y-24898227D01*
X15531134Y-24898233D01*
X15567883Y-24953231D01*
X15575448Y-24964552D01*
X15641769Y-25008867D01*
X15686231Y-25017711D01*
X15700241Y-25020498D01*
X15700246Y-25020498D01*
X15700252Y-25020500D01*
X15700253Y-25020500D01*
X16279747Y-25020500D01*
X16279748Y-25020500D01*
X16338231Y-25008867D01*
X16404552Y-24964552D01*
X16448867Y-24898231D01*
X16455232Y-24866229D01*
X16482325Y-24815542D01*
X16797868Y-24499999D01*
X17222132Y-24499999D01*
X17579999Y-24857866D01*
X17579999Y-24142132D01*
X17222132Y-24499999D01*
X16797868Y-24499999D01*
X16482325Y-24184456D01*
X16460023Y-24142391D01*
X16455232Y-24133769D01*
X16448867Y-24101769D01*
X16404552Y-24035448D01*
X16351501Y-24000000D01*
X16338233Y-23991134D01*
X16338231Y-23991133D01*
X16338228Y-23991132D01*
X16338227Y-23991132D01*
X16279758Y-23979501D01*
X16279748Y-23979500D01*
X15700252Y-23979500D01*
X15700251Y-23979500D01*
X15700241Y-23979501D01*
X15641772Y-23991132D01*
X15641766Y-23991134D01*
X15575451Y-24035445D01*
X15575445Y-24035451D01*
X15531134Y-24101766D01*
X15531132Y-24101772D01*
X15519501Y-24160241D01*
X15519500Y-24160253D01*
X14650500Y-24160253D01*
X14650500Y-24112693D01*
X14669407Y-24054502D01*
X14718907Y-24018538D01*
X14731311Y-24015378D01*
X14738641Y-24014007D01*
X14747090Y-23994874D01*
X14749999Y-23969797D01*
X14749999Y-23902844D01*
X16624975Y-23902844D01*
X17009999Y-24287867D01*
X17395023Y-23902843D01*
X17349875Y-23882910D01*
X17349875Y-23882909D01*
X17324796Y-23880000D01*
X16695210Y-23880000D01*
X16695209Y-23880001D01*
X16670126Y-23882910D01*
X16624975Y-23902844D01*
X14749999Y-23902844D01*
X14749999Y-23530210D01*
X14749998Y-23530207D01*
X14747089Y-23505123D01*
X14738641Y-23485989D01*
X14474632Y-23749999D01*
X14474632Y-23775500D01*
X14469787Y-23790411D01*
X14469787Y-23806093D01*
X14460570Y-23818778D01*
X14455725Y-23833691D01*
X14443039Y-23842907D01*
X14433823Y-23855593D01*
X14418910Y-23860438D01*
X14406225Y-23869655D01*
X14375632Y-23874500D01*
X14237000Y-23874500D01*
X14178809Y-23855593D01*
X14142845Y-23806093D01*
X14138000Y-23775500D01*
X14138000Y-23636868D01*
X14156907Y-23578677D01*
X14206407Y-23542713D01*
X14237000Y-23537868D01*
X14262500Y-23537868D01*
X14521666Y-23278701D01*
X14521665Y-23278700D01*
X14519876Y-23277910D01*
X14519872Y-23277909D01*
X14494796Y-23275000D01*
X14030210Y-23275000D01*
X14030210Y-23275001D01*
X14005125Y-23277910D01*
X14005122Y-23277911D01*
X14003332Y-23278701D01*
X14002866Y-23281197D01*
X13973585Y-23334921D01*
X13918318Y-23361174D01*
X13905553Y-23362000D01*
X13542750Y-23362000D01*
X13519310Y-23366662D01*
X13480690Y-23366662D01*
X13457249Y-23362000D01*
X13457248Y-23362000D01*
X13094446Y-23362000D01*
X13036255Y-23343093D01*
X13000291Y-23293593D01*
X12997131Y-23281188D01*
X12996666Y-23278701D01*
X12994876Y-23277910D01*
X12994872Y-23277909D01*
X12969796Y-23275000D01*
X12505210Y-23275000D01*
X12505210Y-23275001D01*
X12480125Y-23277910D01*
X12480122Y-23277911D01*
X12478333Y-23278700D01*
X12737501Y-23537868D01*
X12763000Y-23537868D01*
X12777912Y-23542713D01*
X12793593Y-23542713D01*
X12806278Y-23551929D01*
X12821191Y-23556775D01*
X12830407Y-23569460D01*
X12843093Y-23578677D01*
X12847938Y-23593589D01*
X12857155Y-23606275D01*
X12862000Y-23636868D01*
X12862000Y-23775500D01*
X12843093Y-23833691D01*
X12793593Y-23869655D01*
X12763000Y-23874500D01*
X12624368Y-23874500D01*
X12566177Y-23855593D01*
X12530213Y-23806093D01*
X12525368Y-23775500D01*
X12525368Y-23750001D01*
X12261357Y-23485990D01*
X12252911Y-23505123D01*
X12252909Y-23505129D01*
X12250000Y-23530204D01*
X11532892Y-23530204D01*
X11532546Y-23504334D01*
X11530386Y-23476890D01*
X11532108Y-23471588D01*
X11532096Y-23470669D01*
X11532672Y-23469853D01*
X11535187Y-23462113D01*
X11538863Y-23453236D01*
X11538867Y-23453231D01*
X11550500Y-23394748D01*
X11550500Y-23105252D01*
X11538867Y-23046769D01*
X11538864Y-23046765D01*
X11535187Y-23037887D01*
X11530386Y-22976890D01*
X11535187Y-22962113D01*
X11538863Y-22953236D01*
X11538867Y-22953231D01*
X11550500Y-22894748D01*
X11550500Y-22790202D01*
X17750000Y-22790202D01*
X17750000Y-23479789D01*
X17750001Y-23479792D01*
X17752909Y-23504874D01*
X17798213Y-23607477D01*
X17877522Y-23686786D01*
X17979452Y-23731792D01*
X18025047Y-23772593D01*
X18037953Y-23832401D01*
X18013239Y-23888373D01*
X17977353Y-23913820D01*
X17971768Y-23916133D01*
X17905451Y-23960445D01*
X17905445Y-23960451D01*
X17861134Y-24026766D01*
X17861132Y-24026772D01*
X17849501Y-24085241D01*
X17849500Y-24085253D01*
X17849500Y-24724746D01*
X17849501Y-24724758D01*
X17861132Y-24783227D01*
X17861134Y-24783233D01*
X17905445Y-24849548D01*
X17905448Y-24849552D01*
X17971769Y-24893867D01*
X18016231Y-24902711D01*
X18030241Y-24905498D01*
X18030246Y-24905498D01*
X18030252Y-24905500D01*
X18030253Y-24905500D01*
X20019747Y-24905500D01*
X20019748Y-24905500D01*
X20078231Y-24893867D01*
X20144552Y-24849552D01*
X20188867Y-24783231D01*
X20200500Y-24724748D01*
X20200500Y-24085253D01*
X22799500Y-24085253D01*
X22799500Y-24724746D01*
X22799501Y-24724758D01*
X22811132Y-24783227D01*
X22811134Y-24783233D01*
X22855445Y-24849548D01*
X22855448Y-24849552D01*
X22921769Y-24893867D01*
X22966231Y-24902711D01*
X22980241Y-24905498D01*
X22980246Y-24905498D01*
X22980252Y-24905500D01*
X22980253Y-24905500D01*
X24969747Y-24905500D01*
X24969748Y-24905500D01*
X25028231Y-24893867D01*
X25094552Y-24849552D01*
X25138867Y-24783231D01*
X25150500Y-24724748D01*
X25150500Y-24255253D01*
X25849500Y-24255253D01*
X25849500Y-25744746D01*
X25849501Y-25744758D01*
X25861132Y-25803227D01*
X25861134Y-25803233D01*
X25903413Y-25866507D01*
X25905448Y-25869552D01*
X25971769Y-25913867D01*
X26016231Y-25922711D01*
X26030241Y-25925498D01*
X26030246Y-25925498D01*
X26030252Y-25925500D01*
X26030253Y-25925500D01*
X27069747Y-25925500D01*
X27069748Y-25925500D01*
X27128231Y-25913867D01*
X27194552Y-25869552D01*
X27238867Y-25803231D01*
X27250500Y-25744748D01*
X27250500Y-25587866D01*
X27650000Y-25587866D01*
X28237866Y-24999999D01*
X28662132Y-24999999D01*
X29249999Y-25587866D01*
X29249999Y-24412133D01*
X28662132Y-24999999D01*
X28237866Y-24999999D01*
X27650000Y-24412133D01*
X27650000Y-25587866D01*
X27250500Y-25587866D01*
X27250500Y-24255252D01*
X27238867Y-24196769D01*
X27194552Y-24130448D01*
X27164860Y-24110608D01*
X27128233Y-24086134D01*
X27128231Y-24086133D01*
X27128228Y-24086132D01*
X27128227Y-24086132D01*
X27069758Y-24074501D01*
X27069748Y-24074500D01*
X26030252Y-24074500D01*
X26030251Y-24074500D01*
X26030241Y-24074501D01*
X25971772Y-24086132D01*
X25971766Y-24086134D01*
X25905451Y-24130445D01*
X25905445Y-24130451D01*
X25861134Y-24196766D01*
X25861132Y-24196772D01*
X25849501Y-24255241D01*
X25849500Y-24255253D01*
X25150500Y-24255253D01*
X25150500Y-24085252D01*
X25148361Y-24074501D01*
X25147327Y-24069300D01*
X27731433Y-24069300D01*
X28449999Y-24787866D01*
X29168565Y-24069301D01*
X29122477Y-24023213D01*
X29019872Y-23977909D01*
X28994796Y-23975000D01*
X27905210Y-23975000D01*
X27905208Y-23975001D01*
X27880125Y-23977909D01*
X27777520Y-24023214D01*
X27731433Y-24069300D01*
X25147327Y-24069300D01*
X25138867Y-24026769D01*
X25094552Y-23960448D01*
X25094548Y-23960445D01*
X25028233Y-23916134D01*
X25028231Y-23916133D01*
X25028228Y-23916132D01*
X25028227Y-23916132D01*
X24969758Y-23904501D01*
X24969748Y-23904500D01*
X22980252Y-23904500D01*
X22980251Y-23904500D01*
X22980241Y-23904501D01*
X22921772Y-23916132D01*
X22921766Y-23916134D01*
X22855451Y-23960445D01*
X22855445Y-23960451D01*
X22811134Y-24026766D01*
X22811132Y-24026772D01*
X22799501Y-24085241D01*
X22799500Y-24085253D01*
X20200500Y-24085253D01*
X20200500Y-24085252D01*
X20198361Y-24074501D01*
X20197327Y-24069300D01*
X20188867Y-24026769D01*
X20144552Y-23960448D01*
X20144548Y-23960445D01*
X20078233Y-23916134D01*
X20072648Y-23913821D01*
X20026123Y-23874083D01*
X20011840Y-23814588D01*
X20035256Y-23758061D01*
X20070548Y-23731792D01*
X20172476Y-23686787D01*
X20251786Y-23607477D01*
X20297090Y-23504872D01*
X20299999Y-23479797D01*
X20299999Y-22815253D01*
X22799500Y-22815253D01*
X22799500Y-23454746D01*
X22799501Y-23454758D01*
X22811132Y-23513227D01*
X22811134Y-23513233D01*
X22854863Y-23578677D01*
X22855448Y-23579552D01*
X22921769Y-23623867D01*
X22966231Y-23632711D01*
X22980241Y-23635498D01*
X22980246Y-23635498D01*
X22980252Y-23635500D01*
X22980253Y-23635500D01*
X24969747Y-23635500D01*
X24969748Y-23635500D01*
X25028231Y-23623867D01*
X25094552Y-23579552D01*
X25138867Y-23513231D01*
X25150500Y-23454748D01*
X25150500Y-22815252D01*
X25138867Y-22756769D01*
X25094552Y-22690448D01*
X25094548Y-22690445D01*
X25028233Y-22646134D01*
X25028231Y-22646133D01*
X25028228Y-22646132D01*
X25028227Y-22646132D01*
X24969758Y-22634501D01*
X24969748Y-22634500D01*
X22980252Y-22634500D01*
X22980251Y-22634500D01*
X22980241Y-22634501D01*
X22921772Y-22646132D01*
X22921766Y-22646134D01*
X22855451Y-22690445D01*
X22855445Y-22690451D01*
X22811134Y-22756766D01*
X22811132Y-22756772D01*
X22799501Y-22815241D01*
X22799500Y-22815253D01*
X20299999Y-22815253D01*
X20299999Y-22790210D01*
X20299998Y-22790207D01*
X20297090Y-22765125D01*
X20251786Y-22662522D01*
X20172477Y-22583213D01*
X20070547Y-22538207D01*
X20024951Y-22497406D01*
X20012046Y-22437597D01*
X20036760Y-22381625D01*
X20072654Y-22356176D01*
X20078220Y-22353869D01*
X20078231Y-22353867D01*
X20144552Y-22309552D01*
X20188867Y-22243231D01*
X20200500Y-22184748D01*
X20200500Y-21545253D01*
X22799500Y-21545253D01*
X22799500Y-22184746D01*
X22799501Y-22184758D01*
X22811132Y-22243227D01*
X22811134Y-22243233D01*
X22854662Y-22308376D01*
X22855448Y-22309552D01*
X22921769Y-22353867D01*
X22966231Y-22362711D01*
X22980241Y-22365498D01*
X22980246Y-22365498D01*
X22980252Y-22365500D01*
X22980253Y-22365500D01*
X24969747Y-22365500D01*
X24969748Y-22365500D01*
X25028231Y-22353867D01*
X25094552Y-22309552D01*
X25138867Y-22243231D01*
X25150500Y-22184748D01*
X25150500Y-21655202D01*
X25400000Y-21655202D01*
X25400000Y-22344789D01*
X25400001Y-22344792D01*
X25402909Y-22369874D01*
X25448214Y-22472479D01*
X25448213Y-22472479D01*
X25479749Y-22504015D01*
X25507526Y-22558532D01*
X25506843Y-22593330D01*
X25499500Y-22630244D01*
X25499500Y-23269746D01*
X25499501Y-23269758D01*
X25511132Y-23328227D01*
X25511134Y-23328233D01*
X25541470Y-23373633D01*
X25555448Y-23394552D01*
X25621769Y-23438867D01*
X25666231Y-23447711D01*
X25680241Y-23450498D01*
X25680246Y-23450498D01*
X25680252Y-23450500D01*
X25680253Y-23450500D01*
X27044747Y-23450500D01*
X27044748Y-23450500D01*
X27103231Y-23438867D01*
X27169552Y-23394552D01*
X27213867Y-23328231D01*
X27225500Y-23269748D01*
X27225500Y-22630253D01*
X27774500Y-22630253D01*
X27774500Y-23269746D01*
X27774501Y-23269758D01*
X27786132Y-23328227D01*
X27786134Y-23328233D01*
X27816470Y-23373633D01*
X27830448Y-23394552D01*
X27896769Y-23438867D01*
X27941231Y-23447711D01*
X27955241Y-23450498D01*
X27955246Y-23450498D01*
X27955252Y-23450500D01*
X27955253Y-23450500D01*
X29319747Y-23450500D01*
X29319748Y-23450500D01*
X29378231Y-23438867D01*
X29444552Y-23394552D01*
X29488867Y-23328231D01*
X29500500Y-23269748D01*
X29500500Y-22630252D01*
X29488867Y-22571769D01*
X29444552Y-22505448D01*
X29444548Y-22505445D01*
X29378233Y-22461134D01*
X29378231Y-22461133D01*
X29378228Y-22461132D01*
X29378227Y-22461132D01*
X29319758Y-22449501D01*
X29319748Y-22449500D01*
X27955252Y-22449500D01*
X27955251Y-22449500D01*
X27955241Y-22449501D01*
X27896772Y-22461132D01*
X27896766Y-22461134D01*
X27830451Y-22505445D01*
X27830445Y-22505451D01*
X27786134Y-22571766D01*
X27786132Y-22571772D01*
X27774501Y-22630241D01*
X27774500Y-22630253D01*
X27225500Y-22630253D01*
X27225500Y-22630252D01*
X27217972Y-22592408D01*
X27217819Y-22591556D01*
X27221854Y-22562081D01*
X27225346Y-22532572D01*
X27226027Y-22531593D01*
X27226118Y-22530936D01*
X27227466Y-22529529D01*
X27245251Y-22504012D01*
X27276786Y-22472478D01*
X27322090Y-22369872D01*
X27324999Y-22344797D01*
X27324999Y-21655210D01*
X27324998Y-21655207D01*
X27322090Y-21630125D01*
X27276786Y-21527522D01*
X27245249Y-21495985D01*
X27217472Y-21441468D01*
X27218155Y-21406669D01*
X27225500Y-21369748D01*
X27225500Y-20730253D01*
X27774500Y-20730253D01*
X27774500Y-21369746D01*
X27774501Y-21369758D01*
X27786132Y-21428227D01*
X27786134Y-21428233D01*
X27810402Y-21464552D01*
X27830448Y-21494552D01*
X27896769Y-21538867D01*
X27934454Y-21546363D01*
X27955241Y-21550498D01*
X27955246Y-21550498D01*
X27955252Y-21550500D01*
X27955253Y-21550500D01*
X29319747Y-21550500D01*
X29319748Y-21550500D01*
X29378231Y-21538867D01*
X29444552Y-21494552D01*
X29488867Y-21428231D01*
X29500500Y-21369748D01*
X29500500Y-20730252D01*
X29488867Y-20671769D01*
X29444552Y-20605448D01*
X29439051Y-20601772D01*
X29378233Y-20561134D01*
X29378231Y-20561133D01*
X29378228Y-20561132D01*
X29378227Y-20561132D01*
X29319758Y-20549501D01*
X29319748Y-20549500D01*
X27955252Y-20549500D01*
X27955251Y-20549500D01*
X27955241Y-20549501D01*
X27896772Y-20561132D01*
X27896766Y-20561134D01*
X27830451Y-20605445D01*
X27830445Y-20605451D01*
X27786134Y-20671766D01*
X27786132Y-20671772D01*
X27774501Y-20730241D01*
X27774500Y-20730253D01*
X27225500Y-20730253D01*
X27225500Y-20730252D01*
X27213867Y-20671769D01*
X27169552Y-20605448D01*
X27164051Y-20601772D01*
X27103233Y-20561134D01*
X27103231Y-20561133D01*
X27103228Y-20561132D01*
X27103227Y-20561132D01*
X27044758Y-20549501D01*
X27044748Y-20549500D01*
X25680252Y-20549500D01*
X25680251Y-20549500D01*
X25680241Y-20549501D01*
X25621772Y-20561132D01*
X25621766Y-20561134D01*
X25555451Y-20605445D01*
X25555445Y-20605451D01*
X25511134Y-20671766D01*
X25511132Y-20671772D01*
X25499501Y-20730241D01*
X25499500Y-20730251D01*
X25499500Y-20730252D01*
X25499500Y-21369748D01*
X25506843Y-21406667D01*
X25499653Y-21467427D01*
X25479750Y-21495984D01*
X25448214Y-21527520D01*
X25402909Y-21630127D01*
X25400000Y-21655202D01*
X25150500Y-21655202D01*
X25150500Y-21545252D01*
X25138867Y-21486769D01*
X25094552Y-21420448D01*
X25094548Y-21420445D01*
X25028233Y-21376134D01*
X25028231Y-21376133D01*
X25028228Y-21376132D01*
X25028227Y-21376132D01*
X24969758Y-21364501D01*
X24969748Y-21364500D01*
X22980252Y-21364500D01*
X22980251Y-21364500D01*
X22980241Y-21364501D01*
X22921772Y-21376132D01*
X22921766Y-21376134D01*
X22855451Y-21420445D01*
X22855445Y-21420451D01*
X22811134Y-21486766D01*
X22811132Y-21486772D01*
X22799501Y-21545241D01*
X22799500Y-21545253D01*
X20200500Y-21545253D01*
X20200500Y-21545252D01*
X20188867Y-21486769D01*
X20144552Y-21420448D01*
X20144548Y-21420445D01*
X20078233Y-21376134D01*
X20078231Y-21376133D01*
X20078228Y-21376132D01*
X20078227Y-21376132D01*
X20019758Y-21364501D01*
X20019748Y-21364500D01*
X18030252Y-21364500D01*
X18030251Y-21364500D01*
X18030241Y-21364501D01*
X17971772Y-21376132D01*
X17971766Y-21376134D01*
X17905451Y-21420445D01*
X17905445Y-21420451D01*
X17861134Y-21486766D01*
X17861132Y-21486772D01*
X17849501Y-21545241D01*
X17849500Y-21545253D01*
X17849500Y-22184746D01*
X17849501Y-22184758D01*
X17861132Y-22243227D01*
X17861134Y-22243233D01*
X17904662Y-22308376D01*
X17905448Y-22309552D01*
X17971769Y-22353867D01*
X17971772Y-22353867D01*
X17977348Y-22356177D01*
X18023874Y-22395913D01*
X18038159Y-22455407D01*
X18014746Y-22511936D01*
X17979452Y-22538207D01*
X17877522Y-22583213D01*
X17798213Y-22662522D01*
X17752909Y-22765127D01*
X17750000Y-22790202D01*
X11550500Y-22790202D01*
X11550500Y-22605252D01*
X11550499Y-22605250D01*
X11550499Y-22605244D01*
X11548119Y-22593280D01*
X12698850Y-22593280D01*
X12730124Y-22607089D01*
X12730127Y-22607090D01*
X12755203Y-22609999D01*
X13404789Y-22609999D01*
X13404792Y-22609998D01*
X13429876Y-22607089D01*
X13461148Y-22593281D01*
X13461147Y-22593280D01*
X14598850Y-22593280D01*
X14630124Y-22607089D01*
X14630127Y-22607090D01*
X14655203Y-22609999D01*
X15304789Y-22609999D01*
X15304792Y-22609998D01*
X15329876Y-22607089D01*
X15361148Y-22593281D01*
X14979999Y-22212132D01*
X14598850Y-22593280D01*
X13461147Y-22593280D01*
X13079999Y-22212132D01*
X12698850Y-22593280D01*
X11548119Y-22593280D01*
X11543839Y-22571766D01*
X11540339Y-22554170D01*
X11547529Y-22493411D01*
X11589060Y-22448480D01*
X11649070Y-22436542D01*
X11692438Y-22452541D01*
X11722277Y-22472479D01*
X11761769Y-22498867D01*
X11806231Y-22507711D01*
X11820241Y-22510498D01*
X11820246Y-22510498D01*
X11820252Y-22510500D01*
X11820253Y-22510500D01*
X12419747Y-22510500D01*
X12419748Y-22510500D01*
X12478231Y-22498867D01*
X12544552Y-22454552D01*
X12588867Y-22388231D01*
X12600500Y-22329748D01*
X12600500Y-22308375D01*
X12619407Y-22250185D01*
X12629496Y-22238372D01*
X13009996Y-21857872D01*
X13064513Y-21830095D01*
X13124945Y-21839666D01*
X13150004Y-21857872D01*
X13510504Y-22218372D01*
X13538281Y-22272889D01*
X13539500Y-22288376D01*
X13539500Y-22329746D01*
X13539501Y-22329758D01*
X13551132Y-22388227D01*
X13551134Y-22388233D01*
X13555494Y-22394758D01*
X13595448Y-22454552D01*
X13661769Y-22498867D01*
X13706231Y-22507711D01*
X13720241Y-22510498D01*
X13720246Y-22510498D01*
X13720252Y-22510500D01*
X13720253Y-22510500D01*
X14319747Y-22510500D01*
X14319748Y-22510500D01*
X14378231Y-22498867D01*
X14444552Y-22454552D01*
X14488867Y-22388231D01*
X14500500Y-22329748D01*
X14500500Y-22308375D01*
X14519407Y-22250184D01*
X14529496Y-22238371D01*
X14767868Y-21999999D01*
X14529496Y-21761627D01*
X14501719Y-21707111D01*
X14500500Y-21691624D01*
X14500500Y-21670253D01*
X14500498Y-21670241D01*
X14497506Y-21655202D01*
X14488867Y-21611769D01*
X14444552Y-21545448D01*
X14444260Y-21545253D01*
X14409664Y-21522136D01*
X14378233Y-21501134D01*
X14378231Y-21501133D01*
X14378228Y-21501132D01*
X14378227Y-21501132D01*
X14319758Y-21489501D01*
X14319748Y-21489500D01*
X14319747Y-21489500D01*
X14071344Y-21489500D01*
X14013153Y-21470593D01*
X13977189Y-21421093D01*
X13976342Y-21406718D01*
X14598849Y-21406718D01*
X14979999Y-21787868D01*
X14980000Y-21787868D01*
X15558640Y-22366507D01*
X15559999Y-22354793D01*
X15559999Y-22113233D01*
X15578906Y-22055043D01*
X15628406Y-22019079D01*
X15678313Y-22016136D01*
X15700252Y-22020500D01*
X15700253Y-22020500D01*
X16279747Y-22020500D01*
X16279748Y-22020500D01*
X16338231Y-22008867D01*
X16404552Y-21964552D01*
X16417685Y-21944896D01*
X16465734Y-21907018D01*
X16526873Y-21904616D01*
X16577746Y-21938609D01*
X16582311Y-21944892D01*
X16595448Y-21964552D01*
X16661769Y-22008867D01*
X16698313Y-22016136D01*
X16720241Y-22020498D01*
X16720246Y-22020498D01*
X16720252Y-22020500D01*
X16720253Y-22020500D01*
X17299747Y-22020500D01*
X17299748Y-22020500D01*
X17358231Y-22008867D01*
X17424552Y-21964552D01*
X17468867Y-21898231D01*
X17480500Y-21839748D01*
X17480500Y-21160252D01*
X17468867Y-21101769D01*
X17424552Y-21035448D01*
X17404630Y-21022136D01*
X17358233Y-20991134D01*
X17358231Y-20991133D01*
X17358228Y-20991132D01*
X17358227Y-20991132D01*
X17299758Y-20979501D01*
X17299748Y-20979500D01*
X16720252Y-20979500D01*
X16720251Y-20979500D01*
X16720241Y-20979501D01*
X16661772Y-20991132D01*
X16661766Y-20991134D01*
X16595451Y-21035445D01*
X16595447Y-21035449D01*
X16582315Y-21055103D01*
X16534264Y-21092982D01*
X16473126Y-21095383D01*
X16422253Y-21061389D01*
X16417685Y-21055103D01*
X16404552Y-21035448D01*
X16384630Y-21022136D01*
X16338233Y-20991134D01*
X16338231Y-20991133D01*
X16338228Y-20991132D01*
X16338227Y-20991132D01*
X16279758Y-20979501D01*
X16279748Y-20979500D01*
X15700252Y-20979500D01*
X15700251Y-20979500D01*
X15700241Y-20979501D01*
X15641772Y-20991132D01*
X15641766Y-20991134D01*
X15575451Y-21035445D01*
X15575445Y-21035451D01*
X15531134Y-21101766D01*
X15531132Y-21101772D01*
X15519501Y-21160241D01*
X15519500Y-21160253D01*
X15519500Y-21324703D01*
X15500593Y-21382894D01*
X15451093Y-21418858D01*
X15389907Y-21418858D01*
X15380513Y-21415268D01*
X15329875Y-21392910D01*
X15329872Y-21392909D01*
X15304796Y-21390000D01*
X14655210Y-21390000D01*
X14655209Y-21390001D01*
X14630124Y-21392910D01*
X14598849Y-21406718D01*
X13976342Y-21406718D01*
X13974247Y-21371184D01*
X13980499Y-21339755D01*
X13980500Y-21339746D01*
X13980500Y-20660253D01*
X13980498Y-20660241D01*
X13974533Y-20630253D01*
X13968867Y-20601769D01*
X13924552Y-20535448D01*
X13877559Y-20504048D01*
X13850124Y-20485716D01*
X13850914Y-20484532D01*
X13812505Y-20451732D01*
X13798219Y-20392238D01*
X13821630Y-20335709D01*
X13830379Y-20326692D01*
X13847713Y-20310959D01*
X13858231Y-20308867D01*
X13908537Y-20275253D01*
X17849500Y-20275253D01*
X17849500Y-20914746D01*
X17849501Y-20914758D01*
X17861132Y-20973227D01*
X17861134Y-20973233D01*
X17905445Y-21039548D01*
X17905448Y-21039552D01*
X17971769Y-21083867D01*
X18016231Y-21092711D01*
X18030241Y-21095498D01*
X18030246Y-21095498D01*
X18030252Y-21095500D01*
X18030253Y-21095500D01*
X20019747Y-21095500D01*
X20019748Y-21095500D01*
X20078231Y-21083867D01*
X20144552Y-21039552D01*
X20188867Y-20973231D01*
X20200500Y-20914748D01*
X20200500Y-20275253D01*
X22799500Y-20275253D01*
X22799500Y-20914746D01*
X22799501Y-20914758D01*
X22811132Y-20973227D01*
X22811134Y-20973233D01*
X22855445Y-21039548D01*
X22855448Y-21039552D01*
X22921769Y-21083867D01*
X22966231Y-21092711D01*
X22980241Y-21095498D01*
X22980246Y-21095498D01*
X22980252Y-21095500D01*
X22980253Y-21095500D01*
X24969747Y-21095500D01*
X24969748Y-21095500D01*
X25028231Y-21083867D01*
X25094552Y-21039552D01*
X25138867Y-20973231D01*
X25150500Y-20914748D01*
X25150500Y-20275252D01*
X25138867Y-20216769D01*
X25094552Y-20150448D01*
X25063570Y-20129746D01*
X25028233Y-20106134D01*
X25028231Y-20106133D01*
X25028228Y-20106132D01*
X25028227Y-20106132D01*
X24969758Y-20094501D01*
X24969748Y-20094500D01*
X22980252Y-20094500D01*
X22980251Y-20094500D01*
X22980241Y-20094501D01*
X22921772Y-20106132D01*
X22921766Y-20106134D01*
X22855451Y-20150445D01*
X22855445Y-20150451D01*
X22811134Y-20216766D01*
X22811132Y-20216772D01*
X22799501Y-20275241D01*
X22799500Y-20275253D01*
X20200500Y-20275253D01*
X20200500Y-20275252D01*
X20188867Y-20216769D01*
X20144552Y-20150448D01*
X20113570Y-20129746D01*
X20078233Y-20106134D01*
X20078231Y-20106133D01*
X20078228Y-20106132D01*
X20078227Y-20106132D01*
X20019758Y-20094501D01*
X20019748Y-20094500D01*
X18030252Y-20094500D01*
X18030251Y-20094500D01*
X18030241Y-20094501D01*
X17971772Y-20106132D01*
X17971766Y-20106134D01*
X17905451Y-20150445D01*
X17905445Y-20150451D01*
X17861134Y-20216766D01*
X17861132Y-20216772D01*
X17849501Y-20275241D01*
X17849500Y-20275253D01*
X13908537Y-20275253D01*
X13924552Y-20264552D01*
X13968867Y-20198231D01*
X13980500Y-20139748D01*
X13980500Y-19460252D01*
X13979365Y-19454548D01*
X13970856Y-19411769D01*
X13968867Y-19401769D01*
X13924552Y-19335448D01*
X13923949Y-19335045D01*
X13858233Y-19291134D01*
X13858231Y-19291133D01*
X13858228Y-19291132D01*
X13858227Y-19291132D01*
X13799758Y-19279501D01*
X13799748Y-19279500D01*
X13799747Y-19279500D01*
X13458920Y-19279500D01*
X13400729Y-19260593D01*
X13364765Y-19211093D01*
X13360811Y-19174612D01*
X13360500Y-19174612D01*
X13360500Y-19171745D01*
X13360397Y-19170795D01*
X13360500Y-19169749D01*
X13360500Y-17630253D01*
X14289500Y-17630253D01*
X14289500Y-19169746D01*
X14289501Y-19169758D01*
X14301132Y-19228227D01*
X14301134Y-19228233D01*
X14343163Y-19291133D01*
X14345448Y-19294552D01*
X14411769Y-19338867D01*
X14456231Y-19347711D01*
X14470241Y-19350498D01*
X14470246Y-19350498D01*
X14470252Y-19350500D01*
X14470253Y-19350500D01*
X15509747Y-19350500D01*
X15509748Y-19350500D01*
X15568231Y-19338867D01*
X15634552Y-19294552D01*
X15678867Y-19228231D01*
X15690500Y-19169748D01*
X15690500Y-17630253D01*
X16619500Y-17630253D01*
X16619500Y-19169746D01*
X16619501Y-19169758D01*
X16631132Y-19228227D01*
X16631134Y-19228233D01*
X16673163Y-19291133D01*
X16675448Y-19294552D01*
X16741769Y-19338867D01*
X16786231Y-19347711D01*
X16800241Y-19350498D01*
X16800246Y-19350498D01*
X16800252Y-19350500D01*
X16800253Y-19350500D01*
X17839747Y-19350500D01*
X17839748Y-19350500D01*
X17898231Y-19338867D01*
X17964552Y-19294552D01*
X18008867Y-19228231D01*
X18020500Y-19169748D01*
X18020500Y-17630253D01*
X18949500Y-17630253D01*
X18949500Y-19169746D01*
X18949501Y-19169758D01*
X18961132Y-19228227D01*
X18961134Y-19228233D01*
X19003163Y-19291133D01*
X19005448Y-19294552D01*
X19071769Y-19338867D01*
X19116231Y-19347711D01*
X19130241Y-19350498D01*
X19130246Y-19350498D01*
X19130252Y-19350500D01*
X19130253Y-19350500D01*
X20169747Y-19350500D01*
X20169748Y-19350500D01*
X20228231Y-19338867D01*
X20294552Y-19294552D01*
X20338867Y-19228231D01*
X20350500Y-19169748D01*
X20350500Y-17777375D01*
X20369407Y-17719184D01*
X20418907Y-17683220D01*
X20477055Y-17683220D01*
X20492470Y-17680338D01*
X20497090Y-17669875D01*
X20497090Y-17669874D01*
X20499999Y-17644797D01*
X20500000Y-17644795D01*
X20500000Y-17630253D01*
X21279500Y-17630253D01*
X21279500Y-19169746D01*
X21279501Y-19169758D01*
X21291132Y-19228227D01*
X21291134Y-19228233D01*
X21333163Y-19291133D01*
X21335448Y-19294552D01*
X21401769Y-19338867D01*
X21446231Y-19347711D01*
X21460241Y-19350498D01*
X21460246Y-19350498D01*
X21460252Y-19350500D01*
X21460253Y-19350500D01*
X22499747Y-19350500D01*
X22499748Y-19350500D01*
X22558231Y-19338867D01*
X22624552Y-19294552D01*
X22668867Y-19228231D01*
X22680500Y-19169748D01*
X22680500Y-17630252D01*
X22679532Y-17625388D01*
X22677711Y-17616231D01*
X22668867Y-17571769D01*
X22624552Y-17505448D01*
X22590499Y-17482694D01*
X22558233Y-17461134D01*
X22558231Y-17461133D01*
X22558228Y-17461132D01*
X22558227Y-17461132D01*
X22499758Y-17449501D01*
X22499748Y-17449500D01*
X21460252Y-17449500D01*
X21460251Y-17449500D01*
X21460241Y-17449501D01*
X21401772Y-17461132D01*
X21401766Y-17461134D01*
X21335451Y-17505445D01*
X21335445Y-17505451D01*
X21291134Y-17571766D01*
X21291132Y-17571772D01*
X21279501Y-17630241D01*
X21279500Y-17630253D01*
X20500000Y-17630253D01*
X20500000Y-17625388D01*
X20499999Y-16755210D01*
X20497089Y-16730125D01*
X20497089Y-16730123D01*
X20492469Y-16719660D01*
X20012132Y-17199999D01*
X20092629Y-17280496D01*
X20103153Y-17301151D01*
X20116780Y-17319907D01*
X20116780Y-17327896D01*
X20120406Y-17335013D01*
X20116780Y-17357907D01*
X20116780Y-17381093D01*
X20112084Y-17387555D01*
X20110835Y-17395445D01*
X20094443Y-17411836D01*
X20080816Y-17430593D01*
X20073218Y-17433061D01*
X20067570Y-17438710D01*
X20022625Y-17449500D01*
X19878376Y-17449500D01*
X19820185Y-17430593D01*
X19808372Y-17420504D01*
X19587868Y-17200000D01*
X19107528Y-16719661D01*
X19102911Y-16730120D01*
X19102910Y-16730125D01*
X19100000Y-16755205D01*
X19100000Y-17389353D01*
X19081093Y-17447544D01*
X19056002Y-17471668D01*
X19005451Y-17505445D01*
X19005445Y-17505451D01*
X18961134Y-17571766D01*
X18961132Y-17571772D01*
X18949501Y-17630241D01*
X18949500Y-17630253D01*
X18020500Y-17630253D01*
X18020500Y-17630252D01*
X18008867Y-17571769D01*
X18005815Y-17567202D01*
X18002689Y-17552583D01*
X18003350Y-17546210D01*
X18000500Y-17531877D01*
X18000500Y-16780253D01*
X18000498Y-16780241D01*
X17990529Y-16730125D01*
X17988867Y-16721769D01*
X17944552Y-16655448D01*
X17892627Y-16620752D01*
X17878233Y-16611134D01*
X17878231Y-16611133D01*
X17878228Y-16611132D01*
X17878227Y-16611132D01*
X17819758Y-16599501D01*
X17819748Y-16599500D01*
X16980252Y-16599500D01*
X16980251Y-16599500D01*
X16980241Y-16599501D01*
X16921772Y-16611132D01*
X16921766Y-16611134D01*
X16855451Y-16655445D01*
X16855445Y-16655451D01*
X16811134Y-16721766D01*
X16811132Y-16721772D01*
X16799501Y-16780241D01*
X16799500Y-16780253D01*
X16799500Y-17371070D01*
X16780593Y-17429261D01*
X16748896Y-17454250D01*
X16749876Y-17455716D01*
X16675451Y-17505445D01*
X16675445Y-17505451D01*
X16631134Y-17571766D01*
X16631132Y-17571772D01*
X16619501Y-17630241D01*
X16619500Y-17630253D01*
X15690500Y-17630253D01*
X15690500Y-17630252D01*
X15689532Y-17625388D01*
X15687711Y-17616231D01*
X15678867Y-17571769D01*
X15634552Y-17505448D01*
X15634548Y-17505445D01*
X15629496Y-17500393D01*
X15601719Y-17445876D01*
X15600500Y-17430389D01*
X15600500Y-16780253D01*
X15600498Y-16780241D01*
X15590529Y-16730125D01*
X15588867Y-16721769D01*
X15544552Y-16655448D01*
X15544548Y-16655445D01*
X15478233Y-16611134D01*
X15478231Y-16611133D01*
X15478228Y-16611132D01*
X15478227Y-16611132D01*
X15419758Y-16599501D01*
X15419748Y-16599500D01*
X14580252Y-16599500D01*
X14580251Y-16599500D01*
X14580241Y-16599501D01*
X14521772Y-16611132D01*
X14521766Y-16611134D01*
X14455451Y-16655445D01*
X14455445Y-16655451D01*
X14411134Y-16721766D01*
X14411132Y-16721772D01*
X14399501Y-16780241D01*
X14399500Y-16780253D01*
X14399500Y-17416415D01*
X14380593Y-17474606D01*
X14355502Y-17498730D01*
X14345451Y-17505445D01*
X14345445Y-17505451D01*
X14301134Y-17571766D01*
X14301132Y-17571772D01*
X14289501Y-17630241D01*
X14289500Y-17630253D01*
X13360500Y-17630253D01*
X13360498Y-17630241D01*
X13357711Y-17616231D01*
X13348867Y-17571769D01*
X13304552Y-17505448D01*
X13244496Y-17465319D01*
X13206619Y-17417269D01*
X13200500Y-17383005D01*
X13200500Y-16780253D01*
X13200498Y-16780241D01*
X13190529Y-16730125D01*
X13188867Y-16721769D01*
X13144552Y-16655448D01*
X13144548Y-16655445D01*
X13078233Y-16611134D01*
X13078231Y-16611133D01*
X13078228Y-16611132D01*
X13078227Y-16611132D01*
X13019758Y-16599501D01*
X13019748Y-16599500D01*
X12180252Y-16599500D01*
X12180251Y-16599500D01*
X12180241Y-16599501D01*
X12121772Y-16611132D01*
X12121766Y-16611134D01*
X12055451Y-16655445D01*
X12055445Y-16655451D01*
X12011134Y-16721766D01*
X12011132Y-16721772D01*
X11999501Y-16780241D01*
X11999500Y-16780253D01*
X11999500Y-17499283D01*
X11982816Y-17554284D01*
X11971134Y-17571766D01*
X11971132Y-17571772D01*
X11959501Y-17630241D01*
X11959500Y-17630253D01*
X11959500Y-19169746D01*
X11959501Y-19169758D01*
X11971132Y-19228227D01*
X11971134Y-19228233D01*
X12020865Y-19302659D01*
X12018339Y-19304346D01*
X12038944Y-19344787D01*
X12032631Y-19398150D01*
X12031133Y-19401766D01*
X12019501Y-19460241D01*
X12019500Y-19460253D01*
X12019500Y-20139746D01*
X12019501Y-20139758D01*
X12031132Y-20198227D01*
X12031134Y-20198233D01*
X12068763Y-20254548D01*
X12075448Y-20264552D01*
X12075451Y-20264554D01*
X12149876Y-20314284D01*
X12149085Y-20315467D01*
X12187496Y-20348272D01*
X12201780Y-20407766D01*
X12178366Y-20464295D01*
X12149551Y-20485229D01*
X12149876Y-20485716D01*
X12075451Y-20535445D01*
X12075445Y-20535451D01*
X12031134Y-20601766D01*
X12031132Y-20601772D01*
X12019501Y-20660241D01*
X12019500Y-20660253D01*
X12019500Y-21339755D01*
X12025753Y-21371184D01*
X12018563Y-21431945D01*
X11977031Y-21476876D01*
X11928656Y-21489500D01*
X11820252Y-21489500D01*
X11820251Y-21489500D01*
X11820241Y-21489501D01*
X11761772Y-21501132D01*
X11761766Y-21501134D01*
X11695451Y-21545445D01*
X11688554Y-21552343D01*
X11686319Y-21550108D01*
X11650969Y-21577968D01*
X11589831Y-21580363D01*
X11538962Y-21546363D01*
X11534401Y-21540085D01*
X11494554Y-21480451D01*
X11494552Y-21480448D01*
X11494548Y-21480445D01*
X11428233Y-21436134D01*
X11428231Y-21436133D01*
X11428228Y-21436132D01*
X11428227Y-21436132D01*
X11369758Y-21424501D01*
X11369748Y-21424500D01*
X11369747Y-21424500D01*
X10674500Y-21424500D01*
X10616309Y-21405593D01*
X10580345Y-21356093D01*
X10575500Y-21325500D01*
X10575500Y-20630253D01*
X10575498Y-20630241D01*
X10570566Y-20605448D01*
X10563867Y-20571769D01*
X10557963Y-20562933D01*
X10541354Y-20504048D01*
X10562530Y-20446644D01*
X10613403Y-20412650D01*
X10651689Y-20409592D01*
X10655205Y-20409999D01*
X11304789Y-20409999D01*
X11304792Y-20409998D01*
X11329876Y-20407089D01*
X11361149Y-20393281D01*
X11008996Y-20041127D01*
X10981219Y-19986611D01*
X10980000Y-19971124D01*
X10980000Y-19799999D01*
X11192132Y-19799999D01*
X11558640Y-20166507D01*
X11559999Y-20154793D01*
X11559999Y-19445211D01*
X11558639Y-19433491D01*
X11192132Y-19799999D01*
X10980000Y-19799999D01*
X10980000Y-19628874D01*
X10998907Y-19570683D01*
X11008996Y-19558870D01*
X11361148Y-19206717D01*
X11329878Y-19192910D01*
X11329875Y-19192909D01*
X11304797Y-19190000D01*
X11129500Y-19190000D01*
X11071309Y-19171093D01*
X11035345Y-19121593D01*
X11030500Y-19091000D01*
X11030500Y-17630253D01*
X11030498Y-17630241D01*
X11027711Y-17616231D01*
X11018867Y-17571769D01*
X10974552Y-17505448D01*
X10940499Y-17482694D01*
X10908233Y-17461134D01*
X10908228Y-17461132D01*
X10880183Y-17455553D01*
X10826800Y-17425655D01*
X10801186Y-17370089D01*
X10800500Y-17358456D01*
X10800500Y-16780253D01*
X10800498Y-16780241D01*
X10790529Y-16730125D01*
X10788867Y-16721769D01*
X10744552Y-16655448D01*
X10744548Y-16655445D01*
X10678233Y-16611134D01*
X10678231Y-16611133D01*
X10678228Y-16611132D01*
X10678227Y-16611132D01*
X10619758Y-16599501D01*
X10619748Y-16599500D01*
X9780252Y-16599500D01*
X9780251Y-16599500D01*
X9780241Y-16599501D01*
X9721772Y-16611132D01*
X9721766Y-16611134D01*
X9655451Y-16655445D01*
X9655445Y-16655451D01*
X9611134Y-16721766D01*
X9611132Y-16721772D01*
X9599501Y-16780241D01*
X9599500Y-16780253D01*
X9599500Y-17619748D01*
X9611133Y-17678231D01*
X9612812Y-17680743D01*
X9614558Y-17686500D01*
X9614865Y-17687240D01*
X9614792Y-17687270D01*
X9629500Y-17735749D01*
X9629500Y-19169755D01*
X9631751Y-19181069D01*
X9624558Y-19241830D01*
X9583025Y-19286759D01*
X9523015Y-19298695D01*
X9467450Y-19273078D01*
X9464649Y-19270385D01*
X9432477Y-19238213D01*
X9329872Y-19192909D01*
X9304797Y-19190000D01*
X8799500Y-19190000D01*
X8741309Y-19171093D01*
X8705345Y-19121593D01*
X8700500Y-19091000D01*
X8700500Y-17630253D01*
X8700498Y-17630241D01*
X8697711Y-17616231D01*
X8688867Y-17571769D01*
X8644552Y-17505448D01*
X8610499Y-17482694D01*
X8578233Y-17461134D01*
X8578231Y-17461133D01*
X8578228Y-17461132D01*
X8578227Y-17461132D01*
X8519758Y-17449501D01*
X8519748Y-17449500D01*
X7480252Y-17449500D01*
X7480251Y-17449500D01*
X7480241Y-17449501D01*
X7421772Y-17461132D01*
X7421766Y-17461134D01*
X7355451Y-17505445D01*
X7355445Y-17505451D01*
X7311134Y-17571766D01*
X7311132Y-17571772D01*
X7299501Y-17630241D01*
X7299500Y-17630253D01*
X7299500Y-18291000D01*
X7280593Y-18349191D01*
X7231093Y-18385155D01*
X7200500Y-18390000D01*
X6655210Y-18390000D01*
X6655209Y-18390001D01*
X6630124Y-18392910D01*
X6598850Y-18406717D01*
X6951004Y-18758871D01*
X6978781Y-18813388D01*
X6980000Y-18828875D01*
X6980000Y-19171124D01*
X6961093Y-19229315D01*
X6951004Y-19241128D01*
X6598850Y-19593281D01*
X6630124Y-19607089D01*
X6630127Y-19607090D01*
X6655203Y-19609999D01*
X7304789Y-19609999D01*
X7304792Y-19609998D01*
X7329874Y-19607090D01*
X7329876Y-19607089D01*
X7400511Y-19575901D01*
X7461381Y-19569692D01*
X7514275Y-19600448D01*
X7538989Y-19656419D01*
X7539500Y-19666465D01*
X7539500Y-20129746D01*
X7539501Y-20129758D01*
X7551132Y-20188227D01*
X7551134Y-20188233D01*
X7595445Y-20254548D01*
X7595448Y-20254552D01*
X7595451Y-20254554D01*
X7623799Y-20273496D01*
X7636585Y-20289715D01*
X7652477Y-20302909D01*
X7655101Y-20313203D01*
X7661678Y-20321546D01*
X7662488Y-20342183D01*
X7667591Y-20362199D01*
X7663662Y-20372069D01*
X7664080Y-20382685D01*
X7652603Y-20399859D01*
X7644968Y-20419048D01*
X7636355Y-20424177D01*
X7630087Y-20433558D01*
X7593251Y-20451743D01*
X7590676Y-20452399D01*
X7546769Y-20461133D01*
X7540819Y-20465108D01*
X7524454Y-20469280D01*
X7500655Y-20467741D01*
X7476884Y-20469611D01*
X7463796Y-20465358D01*
X7463396Y-20465333D01*
X7463189Y-20465161D01*
X7462119Y-20464814D01*
X7453230Y-20461132D01*
X7394758Y-20449501D01*
X7394748Y-20449500D01*
X7105252Y-20449500D01*
X7105251Y-20449500D01*
X7105241Y-20449501D01*
X7046769Y-20461132D01*
X7037881Y-20464814D01*
X6976884Y-20469611D01*
X6962119Y-20464814D01*
X6953230Y-20461132D01*
X6894758Y-20449501D01*
X6894748Y-20449500D01*
X6605252Y-20449500D01*
X6605251Y-20449500D01*
X6605241Y-20449501D01*
X6546772Y-20461132D01*
X6546766Y-20461134D01*
X6480451Y-20505445D01*
X6480445Y-20505451D01*
X6436134Y-20571766D01*
X6436132Y-20571772D01*
X6424501Y-20630241D01*
X6424500Y-20630253D01*
X6424500Y-21325500D01*
X6405593Y-21383691D01*
X6356093Y-21419655D01*
X6325500Y-21424500D01*
X5630252Y-21424500D01*
X5630251Y-21424500D01*
X5630241Y-21424501D01*
X5571772Y-21436132D01*
X5571766Y-21436134D01*
X5505451Y-21480445D01*
X5505445Y-21480451D01*
X5461134Y-21546766D01*
X5461132Y-21546771D01*
X5456096Y-21572088D01*
X5426198Y-21625471D01*
X5370632Y-21651085D01*
X5310623Y-21639147D01*
X5269092Y-21594215D01*
X5259999Y-21552771D01*
X5259999Y-21145211D01*
X5258639Y-21133491D01*
X4892132Y-21499999D01*
X4467868Y-21499999D01*
X4229496Y-21261627D01*
X4201719Y-21207111D01*
X4200500Y-21191624D01*
X4200500Y-21170253D01*
X4200498Y-21170241D01*
X4195519Y-21145211D01*
X4188867Y-21111769D01*
X4144552Y-21045448D01*
X4135731Y-21039554D01*
X4109664Y-21022136D01*
X4078233Y-21001134D01*
X4078231Y-21001133D01*
X4078228Y-21001132D01*
X4078227Y-21001132D01*
X4019758Y-20989501D01*
X4019748Y-20989500D01*
X3420252Y-20989500D01*
X3420251Y-20989500D01*
X3420241Y-20989501D01*
X3361772Y-21001132D01*
X3361766Y-21001134D01*
X3295451Y-21045445D01*
X3295445Y-21045451D01*
X3251134Y-21111766D01*
X3251132Y-21111772D01*
X3239501Y-21170241D01*
X3239500Y-21170253D01*
X3239500Y-21551228D01*
X3220593Y-21609419D01*
X3171093Y-21645383D01*
X3109907Y-21645383D01*
X3080680Y-21627473D01*
X3080047Y-21628398D01*
X3072479Y-21623214D01*
X2969872Y-21577909D01*
X2944796Y-21575000D01*
X2055210Y-21575000D01*
X2055208Y-21575001D01*
X2030125Y-21577909D01*
X1927522Y-21623213D01*
X1905232Y-21645504D01*
X1850715Y-21673281D01*
X1835228Y-21674500D01*
X1080252Y-21674500D01*
X1080251Y-21674500D01*
X1080241Y-21674501D01*
X1021772Y-21686132D01*
X1021766Y-21686134D01*
X955451Y-21730445D01*
X955445Y-21730451D01*
X911134Y-21796766D01*
X911132Y-21796772D01*
X899501Y-21855241D01*
X899500Y-21855253D01*
X250000Y-21855253D01*
X250000Y-20906717D01*
X4298850Y-20906717D01*
X4680000Y-21287867D01*
X5061149Y-20906717D01*
X5029878Y-20892910D01*
X5029875Y-20892909D01*
X5004796Y-20890000D01*
X4355210Y-20890000D01*
X4355209Y-20890001D01*
X4330124Y-20892910D01*
X4298850Y-20906717D01*
X250000Y-20906717D01*
X250000Y-18670253D01*
X5539500Y-18670253D01*
X5539500Y-19329746D01*
X5539501Y-19329758D01*
X5551132Y-19388227D01*
X5551134Y-19388233D01*
X5560177Y-19401766D01*
X5595448Y-19454552D01*
X5661769Y-19498867D01*
X5706231Y-19507711D01*
X5720241Y-19510498D01*
X5720246Y-19510498D01*
X5720252Y-19510500D01*
X5720253Y-19510500D01*
X6319747Y-19510500D01*
X6319748Y-19510500D01*
X6378231Y-19498867D01*
X6444552Y-19454552D01*
X6488867Y-19388231D01*
X6500500Y-19329748D01*
X6500500Y-19308375D01*
X6519407Y-19250184D01*
X6529496Y-19238371D01*
X6767868Y-18999999D01*
X6529496Y-18761627D01*
X6501719Y-18707111D01*
X6500500Y-18691624D01*
X6500500Y-18670253D01*
X6500498Y-18670241D01*
X6497711Y-18656231D01*
X6488867Y-18611769D01*
X6444552Y-18545448D01*
X6444548Y-18545445D01*
X6378233Y-18501134D01*
X6378231Y-18501133D01*
X6378228Y-18501132D01*
X6378227Y-18501132D01*
X6319758Y-18489501D01*
X6319748Y-18489500D01*
X5720252Y-18489500D01*
X5720251Y-18489500D01*
X5720241Y-18489501D01*
X5661772Y-18501132D01*
X5661766Y-18501134D01*
X5595451Y-18545445D01*
X5595445Y-18545451D01*
X5551134Y-18611766D01*
X5551132Y-18611772D01*
X5539501Y-18670241D01*
X5539500Y-18670253D01*
X250000Y-18670253D01*
X250000Y-16680253D01*
X4699500Y-16680253D01*
X4699500Y-17719746D01*
X4699501Y-17719758D01*
X4710963Y-17777375D01*
X4711133Y-17778231D01*
X4755448Y-17844552D01*
X4821769Y-17888867D01*
X4866231Y-17897711D01*
X4880241Y-17900498D01*
X4880246Y-17900498D01*
X4880252Y-17900500D01*
X4880253Y-17900500D01*
X6419747Y-17900500D01*
X6419748Y-17900500D01*
X6478231Y-17888867D01*
X6544552Y-17844552D01*
X6588867Y-17778231D01*
X6600500Y-17719748D01*
X6600500Y-16680252D01*
X6588867Y-16621769D01*
X6544552Y-16555448D01*
X6544548Y-16555445D01*
X6478233Y-16511134D01*
X6478231Y-16511133D01*
X6478228Y-16511132D01*
X6478227Y-16511132D01*
X6460115Y-16507529D01*
X19319662Y-16507529D01*
X19799999Y-16987866D01*
X20107612Y-16680253D01*
X23399500Y-16680253D01*
X23399500Y-17719746D01*
X23399501Y-17719758D01*
X23410963Y-17777375D01*
X23411133Y-17778231D01*
X23455448Y-17844552D01*
X23521769Y-17888867D01*
X23566231Y-17897711D01*
X23580241Y-17900498D01*
X23580246Y-17900498D01*
X23580252Y-17900500D01*
X23580253Y-17900500D01*
X25119747Y-17900500D01*
X25119748Y-17900500D01*
X25178231Y-17888867D01*
X25244552Y-17844552D01*
X25288867Y-17778231D01*
X25300500Y-17719748D01*
X25300500Y-16680252D01*
X25288867Y-16621769D01*
X25244552Y-16555448D01*
X25244548Y-16555445D01*
X25178233Y-16511134D01*
X25178231Y-16511133D01*
X25178228Y-16511132D01*
X25178227Y-16511132D01*
X25119758Y-16499501D01*
X25119748Y-16499500D01*
X23580252Y-16499500D01*
X23580251Y-16499500D01*
X23580241Y-16499501D01*
X23521772Y-16511132D01*
X23521766Y-16511134D01*
X23455451Y-16555445D01*
X23455445Y-16555451D01*
X23411134Y-16621766D01*
X23411132Y-16621772D01*
X23399501Y-16680241D01*
X23399500Y-16680253D01*
X20107612Y-16680253D01*
X20280337Y-16507528D01*
X20269874Y-16502910D01*
X20244795Y-16500000D01*
X19355210Y-16500000D01*
X19330125Y-16502910D01*
X19319662Y-16507529D01*
X6460115Y-16507529D01*
X6419758Y-16499501D01*
X6419748Y-16499500D01*
X4880252Y-16499500D01*
X4880251Y-16499500D01*
X4880241Y-16499501D01*
X4821772Y-16511132D01*
X4821766Y-16511134D01*
X4755451Y-16555445D01*
X4755445Y-16555451D01*
X4711134Y-16621766D01*
X4711132Y-16621772D01*
X4699501Y-16680241D01*
X4699500Y-16680253D01*
X250000Y-16680253D01*
X250000Y-14880253D01*
X4699500Y-14880253D01*
X4699500Y-15919746D01*
X4699501Y-15919758D01*
X4711132Y-15978227D01*
X4711134Y-15978233D01*
X4726013Y-16000500D01*
X4755448Y-16044552D01*
X4821769Y-16088867D01*
X4866231Y-16097711D01*
X4880241Y-16100498D01*
X4880246Y-16100498D01*
X4880252Y-16100500D01*
X4880253Y-16100500D01*
X6419747Y-16100500D01*
X6419748Y-16100500D01*
X6478231Y-16088867D01*
X6544552Y-16044552D01*
X6588867Y-15978231D01*
X6600500Y-15919748D01*
X6600500Y-14980253D01*
X9599500Y-14980253D01*
X9599500Y-15819746D01*
X9599501Y-15819758D01*
X9611132Y-15878227D01*
X9611133Y-15878231D01*
X9655448Y-15944552D01*
X9721769Y-15988867D01*
X9766231Y-15997711D01*
X9780241Y-16000498D01*
X9780246Y-16000498D01*
X9780252Y-16000500D01*
X9780253Y-16000500D01*
X10619747Y-16000500D01*
X10619748Y-16000500D01*
X10678231Y-15988867D01*
X10744552Y-15944552D01*
X10788867Y-15878231D01*
X10800500Y-15819748D01*
X10800500Y-14980253D01*
X11999500Y-14980253D01*
X11999500Y-15819746D01*
X11999501Y-15819758D01*
X12011132Y-15878227D01*
X12011133Y-15878231D01*
X12055448Y-15944552D01*
X12121769Y-15988867D01*
X12166231Y-15997711D01*
X12180241Y-16000498D01*
X12180246Y-16000498D01*
X12180252Y-16000500D01*
X12180253Y-16000500D01*
X13019747Y-16000500D01*
X13019748Y-16000500D01*
X13078231Y-15988867D01*
X13144552Y-15944552D01*
X13188867Y-15878231D01*
X13200500Y-15819748D01*
X13200500Y-14980253D01*
X14399500Y-14980253D01*
X14399500Y-15819746D01*
X14399501Y-15819758D01*
X14411132Y-15878227D01*
X14411133Y-15878231D01*
X14455448Y-15944552D01*
X14521769Y-15988867D01*
X14566231Y-15997711D01*
X14580241Y-16000498D01*
X14580246Y-16000498D01*
X14580252Y-16000500D01*
X14580253Y-16000500D01*
X15419747Y-16000500D01*
X15419748Y-16000500D01*
X15478231Y-15988867D01*
X15544552Y-15944552D01*
X15588867Y-15878231D01*
X15600500Y-15819748D01*
X15600500Y-14980253D01*
X16799500Y-14980253D01*
X16799500Y-15819746D01*
X16799501Y-15819758D01*
X16811132Y-15878227D01*
X16811133Y-15878231D01*
X16855448Y-15944552D01*
X16921769Y-15988867D01*
X16966231Y-15997711D01*
X16980241Y-16000498D01*
X16980246Y-16000498D01*
X16980252Y-16000500D01*
X16980253Y-16000500D01*
X17819747Y-16000500D01*
X17819748Y-16000500D01*
X17878231Y-15988867D01*
X17944552Y-15944552D01*
X17988867Y-15878231D01*
X18000500Y-15819748D01*
X18000500Y-14980253D01*
X19199500Y-14980253D01*
X19199500Y-15819746D01*
X19199501Y-15819758D01*
X19211132Y-15878227D01*
X19211133Y-15878231D01*
X19255448Y-15944552D01*
X19321769Y-15988867D01*
X19366231Y-15997711D01*
X19380241Y-16000498D01*
X19380246Y-16000498D01*
X19380252Y-16000500D01*
X19380253Y-16000500D01*
X20219747Y-16000500D01*
X20219748Y-16000500D01*
X20278231Y-15988867D01*
X20344552Y-15944552D01*
X20388867Y-15878231D01*
X20400500Y-15819748D01*
X20400500Y-14980252D01*
X20388867Y-14921769D01*
X20361126Y-14880253D01*
X23399500Y-14880253D01*
X23399500Y-15919746D01*
X23399501Y-15919758D01*
X23411132Y-15978227D01*
X23411134Y-15978233D01*
X23426013Y-16000500D01*
X23455448Y-16044552D01*
X23521769Y-16088867D01*
X23566231Y-16097711D01*
X23580241Y-16100498D01*
X23580246Y-16100498D01*
X23580252Y-16100500D01*
X23580253Y-16100500D01*
X25119747Y-16100500D01*
X25119748Y-16100500D01*
X25178231Y-16088867D01*
X25244552Y-16044552D01*
X25288867Y-15978231D01*
X25300500Y-15919748D01*
X25300500Y-14880252D01*
X25288867Y-14821769D01*
X25244552Y-14755448D01*
X25244548Y-14755445D01*
X25178233Y-14711134D01*
X25178231Y-14711133D01*
X25178228Y-14711132D01*
X25178227Y-14711132D01*
X25119758Y-14699501D01*
X25119748Y-14699500D01*
X23580252Y-14699500D01*
X23580251Y-14699500D01*
X23580241Y-14699501D01*
X23521772Y-14711132D01*
X23521766Y-14711134D01*
X23455451Y-14755445D01*
X23455445Y-14755451D01*
X23411134Y-14821766D01*
X23411132Y-14821772D01*
X23399501Y-14880241D01*
X23399500Y-14880253D01*
X20361126Y-14880253D01*
X20344552Y-14855448D01*
X20344548Y-14855445D01*
X20278233Y-14811134D01*
X20278231Y-14811133D01*
X20278228Y-14811132D01*
X20278227Y-14811132D01*
X20219758Y-14799501D01*
X20219748Y-14799500D01*
X19380252Y-14799500D01*
X19380251Y-14799500D01*
X19380241Y-14799501D01*
X19321772Y-14811132D01*
X19321766Y-14811134D01*
X19255451Y-14855445D01*
X19255445Y-14855451D01*
X19211134Y-14921766D01*
X19211132Y-14921772D01*
X19199501Y-14980241D01*
X19199500Y-14980253D01*
X18000500Y-14980253D01*
X18000500Y-14980252D01*
X17988867Y-14921769D01*
X17944552Y-14855448D01*
X17944548Y-14855445D01*
X17878233Y-14811134D01*
X17878231Y-14811133D01*
X17878228Y-14811132D01*
X17878227Y-14811132D01*
X17819758Y-14799501D01*
X17819748Y-14799500D01*
X16980252Y-14799500D01*
X16980251Y-14799500D01*
X16980241Y-14799501D01*
X16921772Y-14811132D01*
X16921766Y-14811134D01*
X16855451Y-14855445D01*
X16855445Y-14855451D01*
X16811134Y-14921766D01*
X16811132Y-14921772D01*
X16799501Y-14980241D01*
X16799500Y-14980253D01*
X15600500Y-14980253D01*
X15600500Y-14980252D01*
X15588867Y-14921769D01*
X15544552Y-14855448D01*
X15544548Y-14855445D01*
X15478233Y-14811134D01*
X15478231Y-14811133D01*
X15478228Y-14811132D01*
X15478227Y-14811132D01*
X15419758Y-14799501D01*
X15419748Y-14799500D01*
X14580252Y-14799500D01*
X14580251Y-14799500D01*
X14580241Y-14799501D01*
X14521772Y-14811132D01*
X14521766Y-14811134D01*
X14455451Y-14855445D01*
X14455445Y-14855451D01*
X14411134Y-14921766D01*
X14411132Y-14921772D01*
X14399501Y-14980241D01*
X14399500Y-14980253D01*
X13200500Y-14980253D01*
X13200500Y-14980252D01*
X13188867Y-14921769D01*
X13144552Y-14855448D01*
X13144548Y-14855445D01*
X13078233Y-14811134D01*
X13078231Y-14811133D01*
X13078228Y-14811132D01*
X13078227Y-14811132D01*
X13019758Y-14799501D01*
X13019748Y-14799500D01*
X12180252Y-14799500D01*
X12180251Y-14799500D01*
X12180241Y-14799501D01*
X12121772Y-14811132D01*
X12121766Y-14811134D01*
X12055451Y-14855445D01*
X12055445Y-14855451D01*
X12011134Y-14921766D01*
X12011132Y-14921772D01*
X11999501Y-14980241D01*
X11999500Y-14980253D01*
X10800500Y-14980253D01*
X10800500Y-14980252D01*
X10788867Y-14921769D01*
X10744552Y-14855448D01*
X10744548Y-14855445D01*
X10678233Y-14811134D01*
X10678231Y-14811133D01*
X10678228Y-14811132D01*
X10678227Y-14811132D01*
X10619758Y-14799501D01*
X10619748Y-14799500D01*
X9780252Y-14799500D01*
X9780251Y-14799500D01*
X9780241Y-14799501D01*
X9721772Y-14811132D01*
X9721766Y-14811134D01*
X9655451Y-14855445D01*
X9655445Y-14855451D01*
X9611134Y-14921766D01*
X9611132Y-14921772D01*
X9599501Y-14980241D01*
X9599500Y-14980253D01*
X6600500Y-14980253D01*
X6600500Y-14880252D01*
X6588867Y-14821769D01*
X6544552Y-14755448D01*
X6544548Y-14755445D01*
X6478233Y-14711134D01*
X6478231Y-14711133D01*
X6478228Y-14711132D01*
X6478227Y-14711132D01*
X6419758Y-14699501D01*
X6419748Y-14699500D01*
X4880252Y-14699500D01*
X4880251Y-14699500D01*
X4880241Y-14699501D01*
X4821772Y-14711132D01*
X4821766Y-14711134D01*
X4755451Y-14755445D01*
X4755445Y-14755451D01*
X4711134Y-14821766D01*
X4711132Y-14821772D01*
X4699501Y-14880241D01*
X4699500Y-14880253D01*
X250000Y-14880253D01*
X250000Y-14399999D01*
X23762133Y-14399999D01*
X24937866Y-14399999D01*
X24349999Y-13812132D01*
X23762133Y-14399999D01*
X250000Y-14399999D01*
X250000Y-13930698D01*
X2731434Y-13930698D01*
X2777522Y-13976786D01*
X2880127Y-14022090D01*
X2905203Y-14024999D01*
X3994789Y-14024999D01*
X3994791Y-14024998D01*
X4019874Y-14022090D01*
X4122478Y-13976786D01*
X4168565Y-13930698D01*
X3449999Y-13212132D01*
X2731434Y-13930698D01*
X250000Y-13930698D01*
X250000Y-12255253D01*
X849500Y-12255253D01*
X849500Y-13744746D01*
X849501Y-13744758D01*
X861132Y-13803227D01*
X861134Y-13803233D01*
X882153Y-13834689D01*
X905448Y-13869552D01*
X971769Y-13913867D01*
X1016231Y-13922711D01*
X1030241Y-13925498D01*
X1030246Y-13925498D01*
X1030252Y-13925500D01*
X1030253Y-13925500D01*
X2069747Y-13925500D01*
X2069748Y-13925500D01*
X2128231Y-13913867D01*
X2194552Y-13869552D01*
X2238867Y-13803231D01*
X2250500Y-13744748D01*
X2250500Y-13587866D01*
X2650000Y-13587866D01*
X3237866Y-12999999D01*
X3662132Y-12999999D01*
X4249999Y-13587866D01*
X4249999Y-13080253D01*
X4699500Y-13080253D01*
X4699500Y-14119746D01*
X4699501Y-14119758D01*
X4711132Y-14178227D01*
X4711134Y-14178233D01*
X4726013Y-14200500D01*
X4755448Y-14244552D01*
X4821769Y-14288867D01*
X4866231Y-14297711D01*
X4880241Y-14300498D01*
X4880246Y-14300498D01*
X4880252Y-14300500D01*
X4880253Y-14300500D01*
X6419747Y-14300500D01*
X6419748Y-14300500D01*
X6478231Y-14288867D01*
X6544552Y-14244552D01*
X6588867Y-14178231D01*
X6600500Y-14119748D01*
X6600500Y-13180253D01*
X9599500Y-13180253D01*
X9599500Y-14019746D01*
X9599501Y-14019758D01*
X9611132Y-14078227D01*
X9611133Y-14078231D01*
X9655448Y-14144552D01*
X9721769Y-14188867D01*
X9766231Y-14197711D01*
X9780241Y-14200498D01*
X9780246Y-14200498D01*
X9780252Y-14200500D01*
X9780253Y-14200500D01*
X10619747Y-14200500D01*
X10619748Y-14200500D01*
X10678231Y-14188867D01*
X10744552Y-14144552D01*
X10788867Y-14078231D01*
X10800500Y-14019748D01*
X10800500Y-13180253D01*
X11999500Y-13180253D01*
X11999500Y-14019746D01*
X11999501Y-14019758D01*
X12011132Y-14078227D01*
X12011133Y-14078231D01*
X12055448Y-14144552D01*
X12121769Y-14188867D01*
X12166231Y-14197711D01*
X12180241Y-14200498D01*
X12180246Y-14200498D01*
X12180252Y-14200500D01*
X12180253Y-14200500D01*
X13019747Y-14200500D01*
X13019748Y-14200500D01*
X13078231Y-14188867D01*
X13144552Y-14144552D01*
X13188867Y-14078231D01*
X13200500Y-14019748D01*
X13200500Y-13180253D01*
X14399500Y-13180253D01*
X14399500Y-14019746D01*
X14399501Y-14019758D01*
X14411132Y-14078227D01*
X14411133Y-14078231D01*
X14455448Y-14144552D01*
X14521769Y-14188867D01*
X14566231Y-14197711D01*
X14580241Y-14200498D01*
X14580246Y-14200498D01*
X14580252Y-14200500D01*
X14580253Y-14200500D01*
X15419747Y-14200500D01*
X15419748Y-14200500D01*
X15478231Y-14188867D01*
X15544552Y-14144552D01*
X15588867Y-14078231D01*
X15600500Y-14019748D01*
X15600500Y-13180253D01*
X16799500Y-13180253D01*
X16799500Y-14019746D01*
X16799501Y-14019758D01*
X16811132Y-14078227D01*
X16811133Y-14078231D01*
X16855448Y-14144552D01*
X16921769Y-14188867D01*
X16966231Y-14197711D01*
X16980241Y-14200498D01*
X16980246Y-14200498D01*
X16980252Y-14200500D01*
X16980253Y-14200500D01*
X17819747Y-14200500D01*
X17819748Y-14200500D01*
X17878231Y-14188867D01*
X17944552Y-14144552D01*
X17988867Y-14078231D01*
X18000500Y-14019748D01*
X18000500Y-13180253D01*
X19199500Y-13180253D01*
X19199500Y-14019746D01*
X19199501Y-14019758D01*
X19211132Y-14078227D01*
X19211133Y-14078231D01*
X19255448Y-14144552D01*
X19321769Y-14188867D01*
X19366231Y-14197711D01*
X19380241Y-14200498D01*
X19380246Y-14200498D01*
X19380252Y-14200500D01*
X19380253Y-14200500D01*
X20219747Y-14200500D01*
X20219748Y-14200500D01*
X20278231Y-14188867D01*
X20344552Y-14144552D01*
X20388867Y-14078231D01*
X20400500Y-14019748D01*
X20400500Y-13180252D01*
X20388867Y-13121769D01*
X20344552Y-13055448D01*
X20344184Y-13055202D01*
X23300000Y-13055202D01*
X23300000Y-14144789D01*
X23300001Y-14144791D01*
X23302909Y-14169874D01*
X23348213Y-14272477D01*
X23406801Y-14331065D01*
X23431100Y-14306766D01*
X24137866Y-13599999D01*
X24562132Y-13599999D01*
X25293198Y-14331065D01*
X25351785Y-14272478D01*
X25397090Y-14169872D01*
X25399999Y-14144797D01*
X25399999Y-13055210D01*
X25399998Y-13055208D01*
X25397090Y-13030125D01*
X25397088Y-13030120D01*
X25390579Y-13015378D01*
X25390578Y-13015376D01*
X25375069Y-12980253D01*
X25749500Y-12980253D01*
X25749500Y-14019746D01*
X25749501Y-14019758D01*
X25761132Y-14078227D01*
X25761133Y-14078231D01*
X25805448Y-14144552D01*
X25871769Y-14188867D01*
X25916231Y-14197711D01*
X25930241Y-14200498D01*
X25930246Y-14200498D01*
X25930252Y-14200500D01*
X25930253Y-14200500D01*
X26530288Y-14200500D01*
X26588479Y-14219407D01*
X26624443Y-14268907D01*
X26624443Y-14330093D01*
X26620853Y-14339487D01*
X26602910Y-14380124D01*
X26602909Y-14380127D01*
X26600000Y-14405202D01*
X26600000Y-15544789D01*
X26600001Y-15544791D01*
X26602909Y-15569874D01*
X26648213Y-15672477D01*
X26727522Y-15751786D01*
X26830127Y-15797090D01*
X26855203Y-15799999D01*
X26962867Y-15799999D01*
X27387133Y-15799999D01*
X28612866Y-15799999D01*
X27999999Y-15187132D01*
X27387133Y-15799999D01*
X26962867Y-15799999D01*
X27056102Y-15706764D01*
X27787868Y-14975000D01*
X27787869Y-14974999D01*
X28212132Y-14974999D01*
X29037132Y-15799999D01*
X29144790Y-15799999D01*
X29144791Y-15799998D01*
X29169874Y-15797090D01*
X29272477Y-15751786D01*
X29351786Y-15672477D01*
X29397090Y-15569872D01*
X29399999Y-15544797D01*
X29399999Y-14405210D01*
X29399998Y-14405208D01*
X29397090Y-14380125D01*
X29351786Y-14277522D01*
X29272477Y-14198213D01*
X29169872Y-14152909D01*
X29144797Y-14150000D01*
X29037132Y-14150000D01*
X28212132Y-14974999D01*
X27787869Y-14974999D01*
X27898881Y-14863987D01*
X28612867Y-14150000D01*
X27295223Y-14150000D01*
X27237032Y-14131093D01*
X27201068Y-14081593D01*
X27198126Y-14031683D01*
X27200499Y-14019753D01*
X27200500Y-14019746D01*
X27200500Y-12980253D01*
X27200498Y-12980241D01*
X27195566Y-12955448D01*
X27188867Y-12921769D01*
X27144552Y-12855448D01*
X27144548Y-12855445D01*
X27078233Y-12811134D01*
X27078231Y-12811133D01*
X27078228Y-12811132D01*
X27078227Y-12811132D01*
X27019758Y-12799501D01*
X27019748Y-12799500D01*
X25930252Y-12799500D01*
X25930251Y-12799500D01*
X25930241Y-12799501D01*
X25871772Y-12811132D01*
X25871766Y-12811134D01*
X25805451Y-12855445D01*
X25805445Y-12855451D01*
X25761134Y-12921766D01*
X25761132Y-12921772D01*
X25749501Y-12980241D01*
X25749500Y-12980253D01*
X25375069Y-12980253D01*
X25351786Y-12927522D01*
X25293198Y-12868934D01*
X24562132Y-13599999D01*
X24137866Y-13599999D01*
X23406800Y-12868933D01*
X23348214Y-12927520D01*
X23302909Y-13030127D01*
X23300000Y-13055202D01*
X20344184Y-13055202D01*
X20278233Y-13011134D01*
X20278231Y-13011133D01*
X20278228Y-13011132D01*
X20278227Y-13011132D01*
X20219758Y-12999501D01*
X20219748Y-12999500D01*
X19380252Y-12999500D01*
X19380251Y-12999500D01*
X19380241Y-12999501D01*
X19321772Y-13011132D01*
X19321766Y-13011134D01*
X19255451Y-13055445D01*
X19255445Y-13055451D01*
X19211134Y-13121766D01*
X19211132Y-13121772D01*
X19199501Y-13180241D01*
X19199500Y-13180253D01*
X18000500Y-13180253D01*
X18000500Y-13180252D01*
X17988867Y-13121769D01*
X17944552Y-13055448D01*
X17944184Y-13055202D01*
X17878233Y-13011134D01*
X17878231Y-13011133D01*
X17878228Y-13011132D01*
X17878227Y-13011132D01*
X17819758Y-12999501D01*
X17819748Y-12999500D01*
X16980252Y-12999500D01*
X16980251Y-12999500D01*
X16980241Y-12999501D01*
X16921772Y-13011132D01*
X16921766Y-13011134D01*
X16855451Y-13055445D01*
X16855445Y-13055451D01*
X16811134Y-13121766D01*
X16811132Y-13121772D01*
X16799501Y-13180241D01*
X16799500Y-13180253D01*
X15600500Y-13180253D01*
X15600500Y-13180252D01*
X15588867Y-13121769D01*
X15544552Y-13055448D01*
X15544184Y-13055202D01*
X15478233Y-13011134D01*
X15478231Y-13011133D01*
X15478228Y-13011132D01*
X15478227Y-13011132D01*
X15419758Y-12999501D01*
X15419748Y-12999500D01*
X14580252Y-12999500D01*
X14580251Y-12999500D01*
X14580241Y-12999501D01*
X14521772Y-13011132D01*
X14521766Y-13011134D01*
X14455451Y-13055445D01*
X14455445Y-13055451D01*
X14411134Y-13121766D01*
X14411132Y-13121772D01*
X14399501Y-13180241D01*
X14399500Y-13180253D01*
X13200500Y-13180253D01*
X13200500Y-13180252D01*
X13188867Y-13121769D01*
X13144552Y-13055448D01*
X13144184Y-13055202D01*
X13078233Y-13011134D01*
X13078231Y-13011133D01*
X13078228Y-13011132D01*
X13078227Y-13011132D01*
X13019758Y-12999501D01*
X13019748Y-12999500D01*
X12180252Y-12999500D01*
X12180251Y-12999500D01*
X12180241Y-12999501D01*
X12121772Y-13011132D01*
X12121766Y-13011134D01*
X12055451Y-13055445D01*
X12055445Y-13055451D01*
X12011134Y-13121766D01*
X12011132Y-13121772D01*
X11999501Y-13180241D01*
X11999500Y-13180253D01*
X10800500Y-13180253D01*
X10800500Y-13180252D01*
X10788867Y-13121769D01*
X10744552Y-13055448D01*
X10744184Y-13055202D01*
X10678233Y-13011134D01*
X10678231Y-13011133D01*
X10678228Y-13011132D01*
X10678227Y-13011132D01*
X10619758Y-12999501D01*
X10619748Y-12999500D01*
X9780252Y-12999500D01*
X9780251Y-12999500D01*
X9780241Y-12999501D01*
X9721772Y-13011132D01*
X9721766Y-13011134D01*
X9655451Y-13055445D01*
X9655445Y-13055451D01*
X9611134Y-13121766D01*
X9611132Y-13121772D01*
X9599501Y-13180241D01*
X9599500Y-13180253D01*
X6600500Y-13180253D01*
X6600500Y-13080252D01*
X6588867Y-13021769D01*
X6544552Y-12955448D01*
X6544548Y-12955445D01*
X6478233Y-12911134D01*
X6478231Y-12911133D01*
X6478228Y-12911132D01*
X6478227Y-12911132D01*
X6419758Y-12899501D01*
X6419748Y-12899500D01*
X4880252Y-12899500D01*
X4880251Y-12899500D01*
X4880241Y-12899501D01*
X4821772Y-12911132D01*
X4821766Y-12911134D01*
X4755451Y-12955445D01*
X4755445Y-12955451D01*
X4711134Y-13021766D01*
X4711132Y-13021772D01*
X4699501Y-13080241D01*
X4699500Y-13080253D01*
X4249999Y-13080253D01*
X4249999Y-12800000D01*
X23762133Y-12800000D01*
X24349999Y-13387866D01*
X24937866Y-12800000D01*
X23762133Y-12800000D01*
X4249999Y-12800000D01*
X4249999Y-12599999D01*
X23762133Y-12599999D01*
X24937866Y-12599999D01*
X24349999Y-12012132D01*
X23762133Y-12599999D01*
X4249999Y-12599999D01*
X4249999Y-12412133D01*
X3662132Y-12999999D01*
X3237866Y-12999999D01*
X2650000Y-12412133D01*
X2650000Y-13587866D01*
X2250500Y-13587866D01*
X2250500Y-12255252D01*
X2238867Y-12196769D01*
X2194552Y-12130448D01*
X2164860Y-12110608D01*
X2128233Y-12086134D01*
X2128231Y-12086133D01*
X2128228Y-12086132D01*
X2128227Y-12086132D01*
X2069758Y-12074501D01*
X2069748Y-12074500D01*
X1030252Y-12074500D01*
X1030251Y-12074500D01*
X1030241Y-12074501D01*
X971772Y-12086132D01*
X971766Y-12086134D01*
X905451Y-12130445D01*
X905445Y-12130451D01*
X861134Y-12196766D01*
X861132Y-12196772D01*
X849501Y-12255241D01*
X849500Y-12255253D01*
X250000Y-12255253D01*
X250000Y-12069300D01*
X2731433Y-12069300D01*
X3449999Y-12787866D01*
X4168565Y-12069301D01*
X4122477Y-12023213D01*
X4019872Y-11977909D01*
X3994796Y-11975000D01*
X2905210Y-11975000D01*
X2905208Y-11975001D01*
X2880125Y-11977909D01*
X2777520Y-12023214D01*
X2731433Y-12069300D01*
X250000Y-12069300D01*
X250000Y-11280253D01*
X4699500Y-11280253D01*
X4699500Y-12319746D01*
X4699501Y-12319758D01*
X4711132Y-12378227D01*
X4711134Y-12378233D01*
X4726013Y-12400500D01*
X4755448Y-12444552D01*
X4821769Y-12488867D01*
X4866231Y-12497711D01*
X4880241Y-12500498D01*
X4880246Y-12500498D01*
X4880252Y-12500500D01*
X4880253Y-12500500D01*
X6419747Y-12500500D01*
X6419748Y-12500500D01*
X6478231Y-12488867D01*
X6544552Y-12444552D01*
X6588867Y-12378231D01*
X6600500Y-12319748D01*
X6600500Y-11380253D01*
X9599500Y-11380253D01*
X9599500Y-12219746D01*
X9599501Y-12219758D01*
X9606562Y-12255252D01*
X9611133Y-12278231D01*
X9655448Y-12344552D01*
X9721769Y-12388867D01*
X9766231Y-12397711D01*
X9780241Y-12400498D01*
X9780246Y-12400498D01*
X9780252Y-12400500D01*
X9780253Y-12400500D01*
X10619747Y-12400500D01*
X10619748Y-12400500D01*
X10678231Y-12388867D01*
X10744552Y-12344552D01*
X10788867Y-12278231D01*
X10800500Y-12219748D01*
X10800500Y-11380253D01*
X11999500Y-11380253D01*
X11999500Y-12219746D01*
X11999501Y-12219758D01*
X12006562Y-12255252D01*
X12011133Y-12278231D01*
X12055448Y-12344552D01*
X12121769Y-12388867D01*
X12166231Y-12397711D01*
X12180241Y-12400498D01*
X12180246Y-12400498D01*
X12180252Y-12400500D01*
X12180253Y-12400500D01*
X13019747Y-12400500D01*
X13019748Y-12400500D01*
X13078231Y-12388867D01*
X13144552Y-12344552D01*
X13188867Y-12278231D01*
X13200500Y-12219748D01*
X13200500Y-11380253D01*
X14399500Y-11380253D01*
X14399500Y-12219746D01*
X14399501Y-12219758D01*
X14406562Y-12255252D01*
X14411133Y-12278231D01*
X14455448Y-12344552D01*
X14521769Y-12388867D01*
X14566231Y-12397711D01*
X14580241Y-12400498D01*
X14580246Y-12400498D01*
X14580252Y-12400500D01*
X14580253Y-12400500D01*
X15419747Y-12400500D01*
X15419748Y-12400500D01*
X15478231Y-12388867D01*
X15544552Y-12344552D01*
X15588867Y-12278231D01*
X15600500Y-12219748D01*
X15600500Y-11380253D01*
X16799500Y-11380253D01*
X16799500Y-12219746D01*
X16799501Y-12219758D01*
X16806562Y-12255252D01*
X16811133Y-12278231D01*
X16855448Y-12344552D01*
X16921769Y-12388867D01*
X16966231Y-12397711D01*
X16980241Y-12400498D01*
X16980246Y-12400498D01*
X16980252Y-12400500D01*
X16980253Y-12400500D01*
X17819747Y-12400500D01*
X17819748Y-12400500D01*
X17878231Y-12388867D01*
X17944552Y-12344552D01*
X17988867Y-12278231D01*
X18000500Y-12219748D01*
X18000500Y-11380253D01*
X19199500Y-11380253D01*
X19199500Y-12219746D01*
X19199501Y-12219758D01*
X19206562Y-12255252D01*
X19211133Y-12278231D01*
X19255448Y-12344552D01*
X19321769Y-12388867D01*
X19366231Y-12397711D01*
X19380241Y-12400498D01*
X19380246Y-12400498D01*
X19380252Y-12400500D01*
X19380253Y-12400500D01*
X20219747Y-12400500D01*
X20219748Y-12400500D01*
X20278231Y-12388867D01*
X20344552Y-12344552D01*
X20388867Y-12278231D01*
X20400500Y-12219748D01*
X20400500Y-11380252D01*
X20388867Y-11321769D01*
X20344552Y-11255448D01*
X20344184Y-11255202D01*
X23300000Y-11255202D01*
X23300000Y-12344789D01*
X23300001Y-12344791D01*
X23302909Y-12369874D01*
X23348213Y-12472477D01*
X23406801Y-12531065D01*
X23431100Y-12506766D01*
X24137866Y-11799999D01*
X24562132Y-11799999D01*
X25293198Y-12531065D01*
X25351785Y-12472478D01*
X25397090Y-12369872D01*
X25399999Y-12344797D01*
X25399999Y-11255210D01*
X25399998Y-11255208D01*
X25397090Y-11230125D01*
X25351786Y-11127522D01*
X25293198Y-11068934D01*
X24562132Y-11799999D01*
X24137866Y-11799999D01*
X23406800Y-11068933D01*
X23348214Y-11127520D01*
X23302909Y-11230127D01*
X23300000Y-11255202D01*
X20344184Y-11255202D01*
X20278233Y-11211134D01*
X20278231Y-11211133D01*
X20278228Y-11211132D01*
X20278227Y-11211132D01*
X20219758Y-11199501D01*
X20219748Y-11199500D01*
X19380252Y-11199500D01*
X19380251Y-11199500D01*
X19380241Y-11199501D01*
X19321772Y-11211132D01*
X19321766Y-11211134D01*
X19255451Y-11255445D01*
X19255445Y-11255451D01*
X19211134Y-11321766D01*
X19211132Y-11321772D01*
X19199501Y-11380241D01*
X19199500Y-11380253D01*
X18000500Y-11380253D01*
X18000500Y-11380252D01*
X17988867Y-11321769D01*
X17944552Y-11255448D01*
X17944184Y-11255202D01*
X17878233Y-11211134D01*
X17878231Y-11211133D01*
X17878228Y-11211132D01*
X17878227Y-11211132D01*
X17819758Y-11199501D01*
X17819748Y-11199500D01*
X16980252Y-11199500D01*
X16980251Y-11199500D01*
X16980241Y-11199501D01*
X16921772Y-11211132D01*
X16921766Y-11211134D01*
X16855451Y-11255445D01*
X16855445Y-11255451D01*
X16811134Y-11321766D01*
X16811132Y-11321772D01*
X16799501Y-11380241D01*
X16799500Y-11380253D01*
X15600500Y-11380253D01*
X15600500Y-11380252D01*
X15588867Y-11321769D01*
X15544552Y-11255448D01*
X15544184Y-11255202D01*
X15478233Y-11211134D01*
X15478231Y-11211133D01*
X15478228Y-11211132D01*
X15478227Y-11211132D01*
X15419758Y-11199501D01*
X15419748Y-11199500D01*
X14580252Y-11199500D01*
X14580251Y-11199500D01*
X14580241Y-11199501D01*
X14521772Y-11211132D01*
X14521766Y-11211134D01*
X14455451Y-11255445D01*
X14455445Y-11255451D01*
X14411134Y-11321766D01*
X14411132Y-11321772D01*
X14399501Y-11380241D01*
X14399500Y-11380253D01*
X13200500Y-11380253D01*
X13200500Y-11380252D01*
X13188867Y-11321769D01*
X13144552Y-11255448D01*
X13144184Y-11255202D01*
X13078233Y-11211134D01*
X13078231Y-11211133D01*
X13078228Y-11211132D01*
X13078227Y-11211132D01*
X13019758Y-11199501D01*
X13019748Y-11199500D01*
X12180252Y-11199500D01*
X12180251Y-11199500D01*
X12180241Y-11199501D01*
X12121772Y-11211132D01*
X12121766Y-11211134D01*
X12055451Y-11255445D01*
X12055445Y-11255451D01*
X12011134Y-11321766D01*
X12011132Y-11321772D01*
X11999501Y-11380241D01*
X11999500Y-11380253D01*
X10800500Y-11380253D01*
X10800500Y-11380252D01*
X10788867Y-11321769D01*
X10744552Y-11255448D01*
X10744184Y-11255202D01*
X10678233Y-11211134D01*
X10678231Y-11211133D01*
X10678228Y-11211132D01*
X10678227Y-11211132D01*
X10619758Y-11199501D01*
X10619748Y-11199500D01*
X9780252Y-11199500D01*
X9780251Y-11199500D01*
X9780241Y-11199501D01*
X9721772Y-11211132D01*
X9721766Y-11211134D01*
X9655451Y-11255445D01*
X9655445Y-11255451D01*
X9611134Y-11321766D01*
X9611132Y-11321772D01*
X9599501Y-11380241D01*
X9599500Y-11380253D01*
X6600500Y-11380253D01*
X6600500Y-11280252D01*
X6588867Y-11221769D01*
X6544552Y-11155448D01*
X6544548Y-11155445D01*
X6478233Y-11111134D01*
X6478231Y-11111133D01*
X6478228Y-11111132D01*
X6478227Y-11111132D01*
X6419758Y-11099501D01*
X6419748Y-11099500D01*
X4880252Y-11099500D01*
X4880251Y-11099500D01*
X4880241Y-11099501D01*
X4821772Y-11111132D01*
X4821766Y-11111134D01*
X4755451Y-11155445D01*
X4755445Y-11155451D01*
X4711134Y-11221766D01*
X4711132Y-11221772D01*
X4699501Y-11280241D01*
X4699500Y-11280253D01*
X250000Y-11280253D01*
X250000Y-11000000D01*
X23762133Y-11000000D01*
X24349999Y-11587866D01*
X24937866Y-11000000D01*
X23762133Y-11000000D01*
X250000Y-11000000D01*
X250000Y-10799999D01*
X23762133Y-10799999D01*
X24937866Y-10799999D01*
X24349999Y-10212132D01*
X23762133Y-10799999D01*
X250000Y-10799999D01*
X250000Y-9480253D01*
X4699500Y-9480253D01*
X4699500Y-10519746D01*
X4699501Y-10519758D01*
X4711132Y-10578227D01*
X4711134Y-10578233D01*
X4726013Y-10600500D01*
X4755448Y-10644552D01*
X4821769Y-10688867D01*
X4866231Y-10697711D01*
X4880241Y-10700498D01*
X4880246Y-10700498D01*
X4880252Y-10700500D01*
X4880253Y-10700500D01*
X6419747Y-10700500D01*
X6419748Y-10700500D01*
X6478231Y-10688867D01*
X6544552Y-10644552D01*
X6588867Y-10578231D01*
X6600500Y-10519748D01*
X6600500Y-9580253D01*
X9599500Y-9580253D01*
X9599500Y-10419746D01*
X9599501Y-10419758D01*
X9611132Y-10478227D01*
X9611133Y-10478231D01*
X9655448Y-10544552D01*
X9721769Y-10588867D01*
X9766231Y-10597711D01*
X9780241Y-10600498D01*
X9780246Y-10600498D01*
X9780252Y-10600500D01*
X9780253Y-10600500D01*
X10619747Y-10600500D01*
X10619748Y-10600500D01*
X10678231Y-10588867D01*
X10744552Y-10544552D01*
X10788867Y-10478231D01*
X10800500Y-10419748D01*
X10800500Y-9580253D01*
X11999500Y-9580253D01*
X11999500Y-10419746D01*
X11999501Y-10419758D01*
X12011132Y-10478227D01*
X12011133Y-10478231D01*
X12055448Y-10544552D01*
X12121769Y-10588867D01*
X12166231Y-10597711D01*
X12180241Y-10600498D01*
X12180246Y-10600498D01*
X12180252Y-10600500D01*
X12180253Y-10600500D01*
X13019747Y-10600500D01*
X13019748Y-10600500D01*
X13078231Y-10588867D01*
X13144552Y-10544552D01*
X13188867Y-10478231D01*
X13200500Y-10419748D01*
X13200500Y-9580253D01*
X14399500Y-9580253D01*
X14399500Y-10419746D01*
X14399501Y-10419758D01*
X14411132Y-10478227D01*
X14411133Y-10478231D01*
X14455448Y-10544552D01*
X14521769Y-10588867D01*
X14566231Y-10597711D01*
X14580241Y-10600498D01*
X14580246Y-10600498D01*
X14580252Y-10600500D01*
X14580253Y-10600500D01*
X15419747Y-10600500D01*
X15419748Y-10600500D01*
X15478231Y-10588867D01*
X15544552Y-10544552D01*
X15588867Y-10478231D01*
X15600500Y-10419748D01*
X15600500Y-9580253D01*
X16799500Y-9580253D01*
X16799500Y-10419746D01*
X16799501Y-10419758D01*
X16811132Y-10478227D01*
X16811133Y-10478231D01*
X16855448Y-10544552D01*
X16921769Y-10588867D01*
X16966231Y-10597711D01*
X16980241Y-10600498D01*
X16980246Y-10600498D01*
X16980252Y-10600500D01*
X16980253Y-10600500D01*
X17819747Y-10600500D01*
X17819748Y-10600500D01*
X17878231Y-10588867D01*
X17944552Y-10544552D01*
X17988867Y-10478231D01*
X18000500Y-10419748D01*
X18000500Y-9580253D01*
X19199500Y-9580253D01*
X19199500Y-10419746D01*
X19199501Y-10419758D01*
X19211132Y-10478227D01*
X19211133Y-10478231D01*
X19255448Y-10544552D01*
X19321769Y-10588867D01*
X19366231Y-10597711D01*
X19380241Y-10600498D01*
X19380246Y-10600498D01*
X19380252Y-10600500D01*
X19380253Y-10600500D01*
X20219747Y-10600500D01*
X20219748Y-10600500D01*
X20278231Y-10588867D01*
X20344552Y-10544552D01*
X20388867Y-10478231D01*
X20400500Y-10419748D01*
X20400500Y-9580252D01*
X20388867Y-9521769D01*
X20344552Y-9455448D01*
X20344184Y-9455202D01*
X23300000Y-9455202D01*
X23300000Y-10544789D01*
X23300001Y-10544791D01*
X23302909Y-10569874D01*
X23348213Y-10672477D01*
X23406801Y-10731065D01*
X23431100Y-10706766D01*
X24137866Y-9999999D01*
X24562132Y-9999999D01*
X25293198Y-10731065D01*
X25351785Y-10672478D01*
X25397090Y-10569872D01*
X25399999Y-10544797D01*
X25399999Y-9455210D01*
X25399998Y-9455208D01*
X25397090Y-9430125D01*
X25351786Y-9327522D01*
X25293198Y-9268934D01*
X24562132Y-9999999D01*
X24137866Y-9999999D01*
X23406800Y-9268933D01*
X23348214Y-9327520D01*
X23302909Y-9430127D01*
X23300000Y-9455202D01*
X20344184Y-9455202D01*
X20278233Y-9411134D01*
X20278231Y-9411133D01*
X20278228Y-9411132D01*
X20278227Y-9411132D01*
X20219758Y-9399501D01*
X20219748Y-9399500D01*
X19380252Y-9399500D01*
X19380251Y-9399500D01*
X19380241Y-9399501D01*
X19321772Y-9411132D01*
X19321766Y-9411134D01*
X19255451Y-9455445D01*
X19255445Y-9455451D01*
X19211134Y-9521766D01*
X19211132Y-9521772D01*
X19199501Y-9580241D01*
X19199500Y-9580253D01*
X18000500Y-9580253D01*
X18000500Y-9580252D01*
X17988867Y-9521769D01*
X17944552Y-9455448D01*
X17944184Y-9455202D01*
X17878233Y-9411134D01*
X17878231Y-9411133D01*
X17878228Y-9411132D01*
X17878227Y-9411132D01*
X17819758Y-9399501D01*
X17819748Y-9399500D01*
X16980252Y-9399500D01*
X16980251Y-9399500D01*
X16980241Y-9399501D01*
X16921772Y-9411132D01*
X16921766Y-9411134D01*
X16855451Y-9455445D01*
X16855445Y-9455451D01*
X16811134Y-9521766D01*
X16811132Y-9521772D01*
X16799501Y-9580241D01*
X16799500Y-9580253D01*
X15600500Y-9580253D01*
X15600500Y-9580252D01*
X15588867Y-9521769D01*
X15544552Y-9455448D01*
X15544184Y-9455202D01*
X15478233Y-9411134D01*
X15478231Y-9411133D01*
X15478228Y-9411132D01*
X15478227Y-9411132D01*
X15419758Y-9399501D01*
X15419748Y-9399500D01*
X14580252Y-9399500D01*
X14580251Y-9399500D01*
X14580241Y-9399501D01*
X14521772Y-9411132D01*
X14521766Y-9411134D01*
X14455451Y-9455445D01*
X14455445Y-9455451D01*
X14411134Y-9521766D01*
X14411132Y-9521772D01*
X14399501Y-9580241D01*
X14399500Y-9580253D01*
X13200500Y-9580253D01*
X13200500Y-9580252D01*
X13188867Y-9521769D01*
X13144552Y-9455448D01*
X13144184Y-9455202D01*
X13078233Y-9411134D01*
X13078231Y-9411133D01*
X13078228Y-9411132D01*
X13078227Y-9411132D01*
X13019758Y-9399501D01*
X13019748Y-9399500D01*
X12180252Y-9399500D01*
X12180251Y-9399500D01*
X12180241Y-9399501D01*
X12121772Y-9411132D01*
X12121766Y-9411134D01*
X12055451Y-9455445D01*
X12055445Y-9455451D01*
X12011134Y-9521766D01*
X12011132Y-9521772D01*
X11999501Y-9580241D01*
X11999500Y-9580253D01*
X10800500Y-9580253D01*
X10800500Y-9580252D01*
X10788867Y-9521769D01*
X10744552Y-9455448D01*
X10744184Y-9455202D01*
X10678233Y-9411134D01*
X10678231Y-9411133D01*
X10678228Y-9411132D01*
X10678227Y-9411132D01*
X10619758Y-9399501D01*
X10619748Y-9399500D01*
X9780252Y-9399500D01*
X9780251Y-9399500D01*
X9780241Y-9399501D01*
X9721772Y-9411132D01*
X9721766Y-9411134D01*
X9655451Y-9455445D01*
X9655445Y-9455451D01*
X9611134Y-9521766D01*
X9611132Y-9521772D01*
X9599501Y-9580241D01*
X9599500Y-9580253D01*
X6600500Y-9580253D01*
X6600500Y-9480252D01*
X6588867Y-9421769D01*
X6544552Y-9355448D01*
X6544548Y-9355445D01*
X6478233Y-9311134D01*
X6478231Y-9311133D01*
X6478228Y-9311132D01*
X6478227Y-9311132D01*
X6419758Y-9299501D01*
X6419748Y-9299500D01*
X4880252Y-9299500D01*
X4880251Y-9299500D01*
X4880241Y-9299501D01*
X4821772Y-9311132D01*
X4821766Y-9311134D01*
X4755451Y-9355445D01*
X4755445Y-9355451D01*
X4711134Y-9421766D01*
X4711132Y-9421772D01*
X4699501Y-9480241D01*
X4699500Y-9480253D01*
X250000Y-9480253D01*
X250000Y-9200000D01*
X23762133Y-9200000D01*
X24349999Y-9787866D01*
X24937866Y-9200000D01*
X23762133Y-9200000D01*
X250000Y-9200000D01*
X250000Y-7930698D01*
X2731434Y-7930698D01*
X2777522Y-7976786D01*
X2880127Y-8022090D01*
X2905203Y-8024999D01*
X3994789Y-8024999D01*
X3994791Y-8024998D01*
X4019874Y-8022090D01*
X4122478Y-7976786D01*
X4168565Y-7930698D01*
X3918120Y-7680253D01*
X4699500Y-7680253D01*
X4699500Y-8719746D01*
X4699501Y-8719758D01*
X4711132Y-8778227D01*
X4711134Y-8778233D01*
X4726013Y-8800500D01*
X4755448Y-8844552D01*
X4821769Y-8888867D01*
X4866231Y-8897711D01*
X4880241Y-8900498D01*
X4880246Y-8900498D01*
X4880252Y-8900500D01*
X4880253Y-8900500D01*
X6419747Y-8900500D01*
X6419748Y-8900500D01*
X6478231Y-8888867D01*
X6544552Y-8844552D01*
X6588867Y-8778231D01*
X6600500Y-8719748D01*
X6600500Y-7780253D01*
X9599500Y-7780253D01*
X9599500Y-8619746D01*
X9599501Y-8619758D01*
X9611132Y-8678227D01*
X9611133Y-8678231D01*
X9655448Y-8744552D01*
X9721769Y-8788867D01*
X9766231Y-8797711D01*
X9780241Y-8800498D01*
X9780246Y-8800498D01*
X9780252Y-8800500D01*
X9780253Y-8800500D01*
X10619747Y-8800500D01*
X10619748Y-8800500D01*
X10678231Y-8788867D01*
X10744552Y-8744552D01*
X10788867Y-8678231D01*
X10800500Y-8619748D01*
X10800500Y-7780253D01*
X11999500Y-7780253D01*
X11999500Y-8619746D01*
X11999501Y-8619758D01*
X12011132Y-8678227D01*
X12011133Y-8678231D01*
X12055448Y-8744552D01*
X12121769Y-8788867D01*
X12166231Y-8797711D01*
X12180241Y-8800498D01*
X12180246Y-8800498D01*
X12180252Y-8800500D01*
X12180253Y-8800500D01*
X13019747Y-8800500D01*
X13019748Y-8800500D01*
X13078231Y-8788867D01*
X13144552Y-8744552D01*
X13188867Y-8678231D01*
X13200500Y-8619748D01*
X13200500Y-7780253D01*
X14399500Y-7780253D01*
X14399500Y-8619746D01*
X14399501Y-8619758D01*
X14411132Y-8678227D01*
X14411133Y-8678231D01*
X14455448Y-8744552D01*
X14521769Y-8788867D01*
X14566231Y-8797711D01*
X14580241Y-8800498D01*
X14580246Y-8800498D01*
X14580252Y-8800500D01*
X14580253Y-8800500D01*
X15419747Y-8800500D01*
X15419748Y-8800500D01*
X15478231Y-8788867D01*
X15544552Y-8744552D01*
X15588867Y-8678231D01*
X15600500Y-8619748D01*
X15600500Y-7780253D01*
X16799500Y-7780253D01*
X16799500Y-8619746D01*
X16799501Y-8619758D01*
X16811132Y-8678227D01*
X16811133Y-8678231D01*
X16855448Y-8744552D01*
X16921769Y-8788867D01*
X16966231Y-8797711D01*
X16980241Y-8800498D01*
X16980246Y-8800498D01*
X16980252Y-8800500D01*
X16980253Y-8800500D01*
X17819747Y-8800500D01*
X17819748Y-8800500D01*
X17878231Y-8788867D01*
X17944552Y-8744552D01*
X17988867Y-8678231D01*
X18000500Y-8619748D01*
X18000500Y-7780253D01*
X19199500Y-7780253D01*
X19199500Y-8619746D01*
X19199501Y-8619758D01*
X19211132Y-8678227D01*
X19211133Y-8678231D01*
X19255448Y-8744552D01*
X19321769Y-8788867D01*
X19366231Y-8797711D01*
X19380241Y-8800498D01*
X19380246Y-8800498D01*
X19380252Y-8800500D01*
X19380253Y-8800500D01*
X20219747Y-8800500D01*
X20219748Y-8800500D01*
X20278231Y-8788867D01*
X20344552Y-8744552D01*
X20388867Y-8678231D01*
X20400500Y-8619748D01*
X20400500Y-7780252D01*
X20388867Y-7721769D01*
X20361126Y-7680253D01*
X23399500Y-7680253D01*
X23399500Y-8719746D01*
X23399501Y-8719758D01*
X23411132Y-8778227D01*
X23411134Y-8778233D01*
X23426013Y-8800500D01*
X23455448Y-8844552D01*
X23521769Y-8888867D01*
X23566231Y-8897711D01*
X23580241Y-8900498D01*
X23580246Y-8900498D01*
X23580252Y-8900500D01*
X23580253Y-8900500D01*
X25119747Y-8900500D01*
X25119748Y-8900500D01*
X25178231Y-8888867D01*
X25244552Y-8844552D01*
X25288867Y-8778231D01*
X25300500Y-8719748D01*
X25300500Y-7680252D01*
X25288867Y-7621769D01*
X25244552Y-7555448D01*
X25244548Y-7555445D01*
X25178233Y-7511134D01*
X25178231Y-7511133D01*
X25178228Y-7511132D01*
X25178227Y-7511132D01*
X25119758Y-7499501D01*
X25119748Y-7499500D01*
X23580252Y-7499500D01*
X23580251Y-7499500D01*
X23580241Y-7499501D01*
X23521772Y-7511132D01*
X23521766Y-7511134D01*
X23455451Y-7555445D01*
X23455445Y-7555451D01*
X23411134Y-7621766D01*
X23411132Y-7621772D01*
X23399501Y-7680241D01*
X23399500Y-7680253D01*
X20361126Y-7680253D01*
X20344552Y-7655448D01*
X20344548Y-7655445D01*
X20278233Y-7611134D01*
X20278231Y-7611133D01*
X20278228Y-7611132D01*
X20278227Y-7611132D01*
X20219758Y-7599501D01*
X20219748Y-7599500D01*
X19380252Y-7599500D01*
X19380251Y-7599500D01*
X19380241Y-7599501D01*
X19321772Y-7611132D01*
X19321766Y-7611134D01*
X19255451Y-7655445D01*
X19255445Y-7655451D01*
X19211134Y-7721766D01*
X19211132Y-7721772D01*
X19199501Y-7780241D01*
X19199500Y-7780253D01*
X18000500Y-7780253D01*
X18000500Y-7780252D01*
X17988867Y-7721769D01*
X17944552Y-7655448D01*
X17944548Y-7655445D01*
X17878233Y-7611134D01*
X17878231Y-7611133D01*
X17878228Y-7611132D01*
X17878227Y-7611132D01*
X17819758Y-7599501D01*
X17819748Y-7599500D01*
X16980252Y-7599500D01*
X16980251Y-7599500D01*
X16980241Y-7599501D01*
X16921772Y-7611132D01*
X16921766Y-7611134D01*
X16855451Y-7655445D01*
X16855445Y-7655451D01*
X16811134Y-7721766D01*
X16811132Y-7721772D01*
X16799501Y-7780241D01*
X16799500Y-7780253D01*
X15600500Y-7780253D01*
X15600500Y-7780252D01*
X15588867Y-7721769D01*
X15544552Y-7655448D01*
X15544548Y-7655445D01*
X15478233Y-7611134D01*
X15478231Y-7611133D01*
X15478228Y-7611132D01*
X15478227Y-7611132D01*
X15419758Y-7599501D01*
X15419748Y-7599500D01*
X14580252Y-7599500D01*
X14580251Y-7599500D01*
X14580241Y-7599501D01*
X14521772Y-7611132D01*
X14521766Y-7611134D01*
X14455451Y-7655445D01*
X14455445Y-7655451D01*
X14411134Y-7721766D01*
X14411132Y-7721772D01*
X14399501Y-7780241D01*
X14399500Y-7780253D01*
X13200500Y-7780253D01*
X13200500Y-7780252D01*
X13188867Y-7721769D01*
X13144552Y-7655448D01*
X13144548Y-7655445D01*
X13078233Y-7611134D01*
X13078231Y-7611133D01*
X13078228Y-7611132D01*
X13078227Y-7611132D01*
X13019758Y-7599501D01*
X13019748Y-7599500D01*
X12180252Y-7599500D01*
X12180251Y-7599500D01*
X12180241Y-7599501D01*
X12121772Y-7611132D01*
X12121766Y-7611134D01*
X12055451Y-7655445D01*
X12055445Y-7655451D01*
X12011134Y-7721766D01*
X12011132Y-7721772D01*
X11999501Y-7780241D01*
X11999500Y-7780253D01*
X10800500Y-7780253D01*
X10800500Y-7780252D01*
X10788867Y-7721769D01*
X10744552Y-7655448D01*
X10744548Y-7655445D01*
X10678233Y-7611134D01*
X10678231Y-7611133D01*
X10678228Y-7611132D01*
X10678227Y-7611132D01*
X10619758Y-7599501D01*
X10619748Y-7599500D01*
X9780252Y-7599500D01*
X9780251Y-7599500D01*
X9780241Y-7599501D01*
X9721772Y-7611132D01*
X9721766Y-7611134D01*
X9655451Y-7655445D01*
X9655445Y-7655451D01*
X9611134Y-7721766D01*
X9611132Y-7721772D01*
X9599501Y-7780241D01*
X9599500Y-7780253D01*
X6600500Y-7780253D01*
X6600500Y-7680252D01*
X6588867Y-7621769D01*
X6544552Y-7555448D01*
X6544548Y-7555445D01*
X6478233Y-7511134D01*
X6478231Y-7511133D01*
X6478228Y-7511132D01*
X6478227Y-7511132D01*
X6419758Y-7499501D01*
X6419748Y-7499500D01*
X4880252Y-7499500D01*
X4880251Y-7499500D01*
X4880241Y-7499501D01*
X4821772Y-7511132D01*
X4821766Y-7511134D01*
X4755451Y-7555445D01*
X4755445Y-7555451D01*
X4711134Y-7621766D01*
X4711132Y-7621772D01*
X4699501Y-7680241D01*
X4699500Y-7680253D01*
X3918120Y-7680253D01*
X3449999Y-7212132D01*
X2731434Y-7930698D01*
X250000Y-7930698D01*
X250000Y-6255253D01*
X849500Y-6255253D01*
X849500Y-7744746D01*
X849501Y-7744758D01*
X856562Y-7780252D01*
X861133Y-7803231D01*
X905448Y-7869552D01*
X971769Y-7913867D01*
X1016231Y-7922711D01*
X1030241Y-7925498D01*
X1030246Y-7925498D01*
X1030252Y-7925500D01*
X1030253Y-7925500D01*
X2069747Y-7925500D01*
X2069748Y-7925500D01*
X2128231Y-7913867D01*
X2194552Y-7869552D01*
X2238867Y-7803231D01*
X2250500Y-7744748D01*
X2250500Y-7587866D01*
X2650000Y-7587866D01*
X3237866Y-6999999D01*
X3662132Y-6999999D01*
X4249999Y-7587866D01*
X4249999Y-6412133D01*
X3662132Y-6999999D01*
X3237866Y-6999999D01*
X2650000Y-6412133D01*
X2650000Y-7587866D01*
X2250500Y-7587866D01*
X2250500Y-6255252D01*
X2238867Y-6196769D01*
X2194552Y-6130448D01*
X2164860Y-6110608D01*
X2128233Y-6086134D01*
X2128231Y-6086133D01*
X2128228Y-6086132D01*
X2128227Y-6086132D01*
X2069758Y-6074501D01*
X2069748Y-6074500D01*
X1030252Y-6074500D01*
X1030251Y-6074500D01*
X1030241Y-6074501D01*
X971772Y-6086132D01*
X971766Y-6086134D01*
X905451Y-6130445D01*
X905445Y-6130451D01*
X861134Y-6196766D01*
X861132Y-6196772D01*
X849501Y-6255241D01*
X849500Y-6255253D01*
X250000Y-6255253D01*
X250000Y-6069300D01*
X2731433Y-6069300D01*
X3449999Y-6787866D01*
X4168565Y-6069301D01*
X4122477Y-6023213D01*
X4019872Y-5977909D01*
X3994796Y-5975000D01*
X2905210Y-5975000D01*
X2905208Y-5975001D01*
X2880125Y-5977909D01*
X2777520Y-6023214D01*
X2731433Y-6069300D01*
X250000Y-6069300D01*
X250000Y-5880253D01*
X4699500Y-5880253D01*
X4699500Y-6919746D01*
X4699501Y-6919758D01*
X4711132Y-6978227D01*
X4711134Y-6978233D01*
X4755445Y-7044548D01*
X4755448Y-7044552D01*
X4821769Y-7088867D01*
X4863094Y-7097087D01*
X4880241Y-7100498D01*
X4880246Y-7100498D01*
X4880252Y-7100500D01*
X4880253Y-7100500D01*
X6419747Y-7100500D01*
X6419748Y-7100500D01*
X6460123Y-7092469D01*
X9719660Y-7092469D01*
X9719660Y-7092470D01*
X9730117Y-7097087D01*
X9730127Y-7097090D01*
X9755204Y-7099999D01*
X10644789Y-7099999D01*
X10644791Y-7099998D01*
X10669876Y-7097089D01*
X10680337Y-7092470D01*
X10199999Y-6612132D01*
X9719660Y-7092469D01*
X6460123Y-7092469D01*
X6478231Y-7088867D01*
X6544552Y-7044552D01*
X6588867Y-6978231D01*
X6600500Y-6919748D01*
X6600500Y-5955204D01*
X9500000Y-5955204D01*
X9500000Y-6844789D01*
X9502910Y-6869873D01*
X9507529Y-6880336D01*
X9987866Y-6399999D01*
X10412132Y-6399999D01*
X10892470Y-6880337D01*
X10897090Y-6869875D01*
X10897090Y-6869874D01*
X10899999Y-6844797D01*
X10899999Y-5980253D01*
X11999500Y-5980253D01*
X11999500Y-6819746D01*
X11999501Y-6819758D01*
X12011132Y-6878227D01*
X12011134Y-6878233D01*
X12012540Y-6880337D01*
X12055448Y-6944552D01*
X12121769Y-6988867D01*
X12166231Y-6997711D01*
X12180241Y-7000498D01*
X12180246Y-7000498D01*
X12180252Y-7000500D01*
X12180253Y-7000500D01*
X13019747Y-7000500D01*
X13019748Y-7000500D01*
X13078231Y-6988867D01*
X13144552Y-6944552D01*
X13188867Y-6878231D01*
X13200500Y-6819748D01*
X13200500Y-5980253D01*
X14399500Y-5980253D01*
X14399500Y-6819746D01*
X14399501Y-6819758D01*
X14411132Y-6878227D01*
X14411134Y-6878233D01*
X14412540Y-6880337D01*
X14455448Y-6944552D01*
X14521769Y-6988867D01*
X14566231Y-6997711D01*
X14580241Y-7000498D01*
X14580246Y-7000498D01*
X14580252Y-7000500D01*
X14580253Y-7000500D01*
X15419747Y-7000500D01*
X15419748Y-7000500D01*
X15478231Y-6988867D01*
X15544552Y-6944552D01*
X15588867Y-6878231D01*
X15600500Y-6819748D01*
X15600500Y-5980253D01*
X16799500Y-5980253D01*
X16799500Y-6819746D01*
X16799501Y-6819758D01*
X16811132Y-6878227D01*
X16811134Y-6878233D01*
X16812540Y-6880337D01*
X16855448Y-6944552D01*
X16921769Y-6988867D01*
X16966231Y-6997711D01*
X16980241Y-7000498D01*
X16980246Y-7000498D01*
X16980252Y-7000500D01*
X16980253Y-7000500D01*
X17819747Y-7000500D01*
X17819748Y-7000500D01*
X17878231Y-6988867D01*
X17944552Y-6944552D01*
X17988867Y-6878231D01*
X18000500Y-6819748D01*
X18000500Y-5980253D01*
X19199500Y-5980253D01*
X19199500Y-6819746D01*
X19199501Y-6819758D01*
X19211132Y-6878227D01*
X19211134Y-6878233D01*
X19212540Y-6880337D01*
X19255448Y-6944552D01*
X19321769Y-6988867D01*
X19366231Y-6997711D01*
X19380241Y-7000498D01*
X19380246Y-7000498D01*
X19380252Y-7000500D01*
X19380253Y-7000500D01*
X20219747Y-7000500D01*
X20219748Y-7000500D01*
X20278231Y-6988867D01*
X20344552Y-6944552D01*
X20388867Y-6878231D01*
X20400500Y-6819748D01*
X20400500Y-5980252D01*
X20388867Y-5921769D01*
X20361126Y-5880253D01*
X23399500Y-5880253D01*
X23399500Y-6919746D01*
X23399501Y-6919758D01*
X23411132Y-6978227D01*
X23411134Y-6978233D01*
X23455445Y-7044548D01*
X23455448Y-7044552D01*
X23521769Y-7088867D01*
X23563094Y-7097087D01*
X23580241Y-7100498D01*
X23580246Y-7100498D01*
X23580252Y-7100500D01*
X23580253Y-7100500D01*
X25119747Y-7100500D01*
X25119748Y-7100500D01*
X25178231Y-7088867D01*
X25244552Y-7044552D01*
X25288867Y-6978231D01*
X25300500Y-6919748D01*
X25300500Y-5880252D01*
X25288867Y-5821769D01*
X25244552Y-5755448D01*
X25244548Y-5755445D01*
X25178233Y-5711134D01*
X25178231Y-5711133D01*
X25178228Y-5711132D01*
X25178227Y-5711132D01*
X25119758Y-5699501D01*
X25119748Y-5699500D01*
X23580252Y-5699500D01*
X23580251Y-5699500D01*
X23580241Y-5699501D01*
X23521772Y-5711132D01*
X23521766Y-5711134D01*
X23455451Y-5755445D01*
X23455445Y-5755451D01*
X23411134Y-5821766D01*
X23411132Y-5821772D01*
X23399501Y-5880241D01*
X23399500Y-5880253D01*
X20361126Y-5880253D01*
X20344552Y-5855448D01*
X20344548Y-5855445D01*
X20278233Y-5811134D01*
X20278231Y-5811133D01*
X20278228Y-5811132D01*
X20278227Y-5811132D01*
X20219758Y-5799501D01*
X20219748Y-5799500D01*
X19380252Y-5799500D01*
X19380251Y-5799500D01*
X19380241Y-5799501D01*
X19321772Y-5811132D01*
X19321766Y-5811134D01*
X19255451Y-5855445D01*
X19255445Y-5855451D01*
X19211134Y-5921766D01*
X19211132Y-5921772D01*
X19199501Y-5980241D01*
X19199500Y-5980253D01*
X18000500Y-5980253D01*
X18000500Y-5980252D01*
X17988867Y-5921769D01*
X17944552Y-5855448D01*
X17944548Y-5855445D01*
X17878233Y-5811134D01*
X17878231Y-5811133D01*
X17878228Y-5811132D01*
X17878227Y-5811132D01*
X17819758Y-5799501D01*
X17819748Y-5799500D01*
X16980252Y-5799500D01*
X16980251Y-5799500D01*
X16980241Y-5799501D01*
X16921772Y-5811132D01*
X16921766Y-5811134D01*
X16855451Y-5855445D01*
X16855445Y-5855451D01*
X16811134Y-5921766D01*
X16811132Y-5921772D01*
X16799501Y-5980241D01*
X16799500Y-5980253D01*
X15600500Y-5980253D01*
X15600500Y-5980252D01*
X15588867Y-5921769D01*
X15544552Y-5855448D01*
X15544548Y-5855445D01*
X15478233Y-5811134D01*
X15478231Y-5811133D01*
X15478228Y-5811132D01*
X15478227Y-5811132D01*
X15419758Y-5799501D01*
X15419748Y-5799500D01*
X14580252Y-5799500D01*
X14580251Y-5799500D01*
X14580241Y-5799501D01*
X14521772Y-5811132D01*
X14521766Y-5811134D01*
X14455451Y-5855445D01*
X14455445Y-5855451D01*
X14411134Y-5921766D01*
X14411132Y-5921772D01*
X14399501Y-5980241D01*
X14399500Y-5980253D01*
X13200500Y-5980253D01*
X13200500Y-5980252D01*
X13188867Y-5921769D01*
X13144552Y-5855448D01*
X13144548Y-5855445D01*
X13078233Y-5811134D01*
X13078231Y-5811133D01*
X13078228Y-5811132D01*
X13078227Y-5811132D01*
X13019758Y-5799501D01*
X13019748Y-5799500D01*
X12180252Y-5799500D01*
X12180251Y-5799500D01*
X12180241Y-5799501D01*
X12121772Y-5811132D01*
X12121766Y-5811134D01*
X12055451Y-5855445D01*
X12055445Y-5855451D01*
X12011134Y-5921766D01*
X12011132Y-5921772D01*
X11999501Y-5980241D01*
X11999500Y-5980253D01*
X10899999Y-5980253D01*
X10899999Y-5955210D01*
X10897089Y-5930126D01*
X10892469Y-5919660D01*
X10412132Y-6399999D01*
X9987866Y-6399999D01*
X9507528Y-5919661D01*
X9502911Y-5930120D01*
X9502910Y-5930125D01*
X9500000Y-5955204D01*
X6600500Y-5955204D01*
X6600500Y-5880252D01*
X6588867Y-5821769D01*
X6544552Y-5755448D01*
X6544548Y-5755445D01*
X6478233Y-5711134D01*
X6478231Y-5711133D01*
X6478228Y-5711132D01*
X6478227Y-5711132D01*
X6460115Y-5707529D01*
X9719662Y-5707529D01*
X10199999Y-6187866D01*
X10680337Y-5707528D01*
X10669874Y-5702910D01*
X10644795Y-5700000D01*
X9755210Y-5700000D01*
X9730125Y-5702910D01*
X9719662Y-5707529D01*
X6460115Y-5707529D01*
X6419758Y-5699501D01*
X6419748Y-5699500D01*
X4880252Y-5699500D01*
X4880251Y-5699500D01*
X4880241Y-5699501D01*
X4821772Y-5711132D01*
X4821766Y-5711134D01*
X4755451Y-5755445D01*
X4755445Y-5755451D01*
X4711134Y-5821766D01*
X4711132Y-5821772D01*
X4699501Y-5880241D01*
X4699500Y-5880253D01*
X250000Y-5880253D01*
X250000Y-4080253D01*
X4699500Y-4080253D01*
X4699500Y-5119746D01*
X4699501Y-5119758D01*
X4711132Y-5178227D01*
X4711134Y-5178233D01*
X4726013Y-5200500D01*
X4755448Y-5244552D01*
X4821769Y-5288867D01*
X4866231Y-5297711D01*
X4880241Y-5300498D01*
X4880246Y-5300498D01*
X4880252Y-5300500D01*
X4880253Y-5300500D01*
X6419747Y-5300500D01*
X6419748Y-5300500D01*
X6478231Y-5288867D01*
X6544552Y-5244552D01*
X6588867Y-5178231D01*
X6600500Y-5119748D01*
X6600500Y-4180253D01*
X9599500Y-4180253D01*
X9599500Y-5019746D01*
X9599501Y-5019758D01*
X9611132Y-5078227D01*
X9611133Y-5078231D01*
X9655448Y-5144552D01*
X9721769Y-5188867D01*
X9766231Y-5197711D01*
X9780241Y-5200498D01*
X9780246Y-5200498D01*
X9780252Y-5200500D01*
X9780253Y-5200500D01*
X10619747Y-5200500D01*
X10619748Y-5200500D01*
X10678231Y-5188867D01*
X10744552Y-5144552D01*
X10788867Y-5078231D01*
X10800500Y-5019748D01*
X10800500Y-4180253D01*
X11999500Y-4180253D01*
X11999500Y-5019746D01*
X11999501Y-5019758D01*
X12011132Y-5078227D01*
X12011133Y-5078231D01*
X12055448Y-5144552D01*
X12121769Y-5188867D01*
X12166231Y-5197711D01*
X12180241Y-5200498D01*
X12180246Y-5200498D01*
X12180252Y-5200500D01*
X12180253Y-5200500D01*
X13019747Y-5200500D01*
X13019748Y-5200500D01*
X13078231Y-5188867D01*
X13144552Y-5144552D01*
X13188867Y-5078231D01*
X13200500Y-5019748D01*
X13200500Y-4180253D01*
X14399500Y-4180253D01*
X14399500Y-5019746D01*
X14399501Y-5019758D01*
X14411132Y-5078227D01*
X14411133Y-5078231D01*
X14455448Y-5144552D01*
X14521769Y-5188867D01*
X14566231Y-5197711D01*
X14580241Y-5200498D01*
X14580246Y-5200498D01*
X14580252Y-5200500D01*
X14580253Y-5200500D01*
X15419747Y-5200500D01*
X15419748Y-5200500D01*
X15478231Y-5188867D01*
X15544552Y-5144552D01*
X15588867Y-5078231D01*
X15600500Y-5019748D01*
X15600500Y-4180253D01*
X16799500Y-4180253D01*
X16799500Y-5019746D01*
X16799501Y-5019758D01*
X16811132Y-5078227D01*
X16811133Y-5078231D01*
X16855448Y-5144552D01*
X16921769Y-5188867D01*
X16966231Y-5197711D01*
X16980241Y-5200498D01*
X16980246Y-5200498D01*
X16980252Y-5200500D01*
X16980253Y-5200500D01*
X17819747Y-5200500D01*
X17819748Y-5200500D01*
X17878231Y-5188867D01*
X17944552Y-5144552D01*
X17988867Y-5078231D01*
X18000500Y-5019748D01*
X18000500Y-4180253D01*
X19199500Y-4180253D01*
X19199500Y-5019746D01*
X19199501Y-5019758D01*
X19211132Y-5078227D01*
X19211133Y-5078231D01*
X19255448Y-5144552D01*
X19321769Y-5188867D01*
X19366231Y-5197711D01*
X19380241Y-5200498D01*
X19380246Y-5200498D01*
X19380252Y-5200500D01*
X19380253Y-5200500D01*
X20219747Y-5200500D01*
X20219748Y-5200500D01*
X20278231Y-5188867D01*
X20344552Y-5144552D01*
X20388867Y-5078231D01*
X20400500Y-5019748D01*
X20400500Y-4180252D01*
X20388867Y-4121769D01*
X20361126Y-4080253D01*
X23399500Y-4080253D01*
X23399500Y-5119746D01*
X23399501Y-5119758D01*
X23411132Y-5178227D01*
X23411134Y-5178233D01*
X23426013Y-5200500D01*
X23455448Y-5244552D01*
X23521769Y-5288867D01*
X23566231Y-5297711D01*
X23580241Y-5300498D01*
X23580246Y-5300498D01*
X23580252Y-5300500D01*
X23580253Y-5300500D01*
X25119747Y-5300500D01*
X25119748Y-5300500D01*
X25178231Y-5288867D01*
X25244552Y-5244552D01*
X25288867Y-5178231D01*
X25300500Y-5119748D01*
X25300500Y-4080252D01*
X25288867Y-4021769D01*
X25261126Y-3980253D01*
X25749500Y-3980253D01*
X25749500Y-5019746D01*
X25749501Y-5019758D01*
X25761132Y-5078227D01*
X25761133Y-5078231D01*
X25805448Y-5144552D01*
X25871769Y-5188867D01*
X25916231Y-5197711D01*
X25930241Y-5200498D01*
X25930246Y-5200498D01*
X25930252Y-5200500D01*
X25930253Y-5200500D01*
X26530288Y-5200500D01*
X26588479Y-5219407D01*
X26624443Y-5268907D01*
X26624443Y-5330093D01*
X26620853Y-5339487D01*
X26602910Y-5380124D01*
X26602909Y-5380127D01*
X26600000Y-5405202D01*
X26600000Y-6544789D01*
X26600001Y-6544791D01*
X26602909Y-6569874D01*
X26648213Y-6672477D01*
X26727522Y-6751786D01*
X26830127Y-6797090D01*
X26855203Y-6799999D01*
X26962867Y-6799999D01*
X27387133Y-6799999D01*
X28612866Y-6799999D01*
X27999999Y-6187132D01*
X27387133Y-6799999D01*
X26962867Y-6799999D01*
X27056102Y-6706764D01*
X27787868Y-5975000D01*
X27787869Y-5974999D01*
X28212132Y-5974999D01*
X29037132Y-6799999D01*
X29144790Y-6799999D01*
X29144791Y-6799998D01*
X29169874Y-6797090D01*
X29272477Y-6751786D01*
X29351786Y-6672477D01*
X29397090Y-6569872D01*
X29399999Y-6544797D01*
X29399999Y-5405210D01*
X29399998Y-5405208D01*
X29397090Y-5380125D01*
X29351786Y-5277522D01*
X29272477Y-5198213D01*
X29169872Y-5152909D01*
X29144797Y-5150000D01*
X29037132Y-5150000D01*
X28212132Y-5974999D01*
X27787869Y-5974999D01*
X27898881Y-5863987D01*
X28612867Y-5150000D01*
X27295223Y-5150000D01*
X27237032Y-5131093D01*
X27201068Y-5081593D01*
X27198126Y-5031683D01*
X27200499Y-5019753D01*
X27200500Y-5019746D01*
X27200500Y-3980253D01*
X27200498Y-3980241D01*
X27195566Y-3955448D01*
X27188867Y-3921769D01*
X27144552Y-3855448D01*
X27144548Y-3855445D01*
X27078233Y-3811134D01*
X27078231Y-3811133D01*
X27078228Y-3811132D01*
X27078227Y-3811132D01*
X27019758Y-3799501D01*
X27019748Y-3799500D01*
X25930252Y-3799500D01*
X25930251Y-3799500D01*
X25930241Y-3799501D01*
X25871772Y-3811132D01*
X25871766Y-3811134D01*
X25805451Y-3855445D01*
X25805445Y-3855451D01*
X25761134Y-3921766D01*
X25761132Y-3921772D01*
X25749501Y-3980241D01*
X25749500Y-3980253D01*
X25261126Y-3980253D01*
X25244552Y-3955448D01*
X25244548Y-3955445D01*
X25178233Y-3911134D01*
X25178231Y-3911133D01*
X25178228Y-3911132D01*
X25178227Y-3911132D01*
X25119758Y-3899501D01*
X25119748Y-3899500D01*
X23580252Y-3899500D01*
X23580251Y-3899500D01*
X23580241Y-3899501D01*
X23521772Y-3911132D01*
X23521766Y-3911134D01*
X23455451Y-3955445D01*
X23455445Y-3955451D01*
X23411134Y-4021766D01*
X23411132Y-4021772D01*
X23399501Y-4080241D01*
X23399500Y-4080253D01*
X20361126Y-4080253D01*
X20344552Y-4055448D01*
X20344548Y-4055445D01*
X20278233Y-4011134D01*
X20278231Y-4011133D01*
X20278228Y-4011132D01*
X20278227Y-4011132D01*
X20219758Y-3999501D01*
X20219748Y-3999500D01*
X19380252Y-3999500D01*
X19380251Y-3999500D01*
X19380241Y-3999501D01*
X19321772Y-4011132D01*
X19321766Y-4011134D01*
X19255451Y-4055445D01*
X19255445Y-4055451D01*
X19211134Y-4121766D01*
X19211132Y-4121772D01*
X19199501Y-4180241D01*
X19199500Y-4180253D01*
X18000500Y-4180253D01*
X18000500Y-4180252D01*
X17988867Y-4121769D01*
X17944552Y-4055448D01*
X17944548Y-4055445D01*
X17878233Y-4011134D01*
X17878231Y-4011133D01*
X17878228Y-4011132D01*
X17878227Y-4011132D01*
X17819758Y-3999501D01*
X17819748Y-3999500D01*
X16980252Y-3999500D01*
X16980251Y-3999500D01*
X16980241Y-3999501D01*
X16921772Y-4011132D01*
X16921766Y-4011134D01*
X16855451Y-4055445D01*
X16855445Y-4055451D01*
X16811134Y-4121766D01*
X16811132Y-4121772D01*
X16799501Y-4180241D01*
X16799500Y-4180253D01*
X15600500Y-4180253D01*
X15600500Y-4180252D01*
X15588867Y-4121769D01*
X15544552Y-4055448D01*
X15544548Y-4055445D01*
X15478233Y-4011134D01*
X15478231Y-4011133D01*
X15478228Y-4011132D01*
X15478227Y-4011132D01*
X15419758Y-3999501D01*
X15419748Y-3999500D01*
X14580252Y-3999500D01*
X14580251Y-3999500D01*
X14580241Y-3999501D01*
X14521772Y-4011132D01*
X14521766Y-4011134D01*
X14455451Y-4055445D01*
X14455445Y-4055451D01*
X14411134Y-4121766D01*
X14411132Y-4121772D01*
X14399501Y-4180241D01*
X14399500Y-4180253D01*
X13200500Y-4180253D01*
X13200500Y-4180252D01*
X13188867Y-4121769D01*
X13144552Y-4055448D01*
X13144548Y-4055445D01*
X13078233Y-4011134D01*
X13078231Y-4011133D01*
X13078228Y-4011132D01*
X13078227Y-4011132D01*
X13019758Y-3999501D01*
X13019748Y-3999500D01*
X12180252Y-3999500D01*
X12180251Y-3999500D01*
X12180241Y-3999501D01*
X12121772Y-4011132D01*
X12121766Y-4011134D01*
X12055451Y-4055445D01*
X12055445Y-4055451D01*
X12011134Y-4121766D01*
X12011132Y-4121772D01*
X11999501Y-4180241D01*
X11999500Y-4180253D01*
X10800500Y-4180253D01*
X10800500Y-4180252D01*
X10788867Y-4121769D01*
X10744552Y-4055448D01*
X10744548Y-4055445D01*
X10678233Y-4011134D01*
X10678231Y-4011133D01*
X10678228Y-4011132D01*
X10678227Y-4011132D01*
X10619758Y-3999501D01*
X10619748Y-3999500D01*
X9780252Y-3999500D01*
X9780251Y-3999500D01*
X9780241Y-3999501D01*
X9721772Y-4011132D01*
X9721766Y-4011134D01*
X9655451Y-4055445D01*
X9655445Y-4055451D01*
X9611134Y-4121766D01*
X9611132Y-4121772D01*
X9599501Y-4180241D01*
X9599500Y-4180253D01*
X6600500Y-4180253D01*
X6600500Y-4080252D01*
X6588867Y-4021769D01*
X6544552Y-3955448D01*
X6544548Y-3955445D01*
X6478233Y-3911134D01*
X6478231Y-3911133D01*
X6478228Y-3911132D01*
X6478227Y-3911132D01*
X6419758Y-3899501D01*
X6419748Y-3899500D01*
X4880252Y-3899500D01*
X4880251Y-3899500D01*
X4880241Y-3899501D01*
X4821772Y-3911132D01*
X4821766Y-3911134D01*
X4755451Y-3955445D01*
X4755445Y-3955451D01*
X4711134Y-4021766D01*
X4711132Y-4021772D01*
X4699501Y-4080241D01*
X4699500Y-4080253D01*
X250000Y-4080253D01*
X250000Y-2280253D01*
X4699500Y-2280253D01*
X4699500Y-3319746D01*
X4699501Y-3319758D01*
X4711132Y-3378227D01*
X4711134Y-3378233D01*
X4726013Y-3400500D01*
X4755448Y-3444552D01*
X4821769Y-3488867D01*
X4866231Y-3497711D01*
X4880241Y-3500498D01*
X4880246Y-3500498D01*
X4880252Y-3500500D01*
X4880253Y-3500500D01*
X6419747Y-3500500D01*
X6419748Y-3500500D01*
X6478231Y-3488867D01*
X6544552Y-3444552D01*
X6588867Y-3378231D01*
X6600500Y-3319748D01*
X6600500Y-2280252D01*
X6588867Y-2221769D01*
X6544552Y-2155448D01*
X6544548Y-2155445D01*
X6478233Y-2111134D01*
X6478231Y-2111133D01*
X6478228Y-2111132D01*
X6478227Y-2111132D01*
X6419758Y-2099501D01*
X6419748Y-2099500D01*
X4880252Y-2099500D01*
X4880251Y-2099500D01*
X4880241Y-2099501D01*
X4821772Y-2111132D01*
X4821766Y-2111134D01*
X4755451Y-2155445D01*
X4755445Y-2155451D01*
X4711134Y-2221766D01*
X4711132Y-2221772D01*
X4699501Y-2280241D01*
X4699500Y-2280253D01*
X250000Y-2280253D01*
X250000Y-830253D01*
X7319500Y-830253D01*
X7319500Y-2369746D01*
X7319501Y-2369758D01*
X7331132Y-2428227D01*
X7331134Y-2428233D01*
X7375445Y-2494548D01*
X7375448Y-2494552D01*
X7441769Y-2538867D01*
X7486231Y-2547711D01*
X7500241Y-2550498D01*
X7500246Y-2550498D01*
X7500252Y-2550500D01*
X7500253Y-2550500D01*
X8539747Y-2550500D01*
X8539748Y-2550500D01*
X8598231Y-2538867D01*
X8664552Y-2494552D01*
X8708867Y-2428231D01*
X8715992Y-2392412D01*
X8718411Y-2380252D01*
X9599500Y-2380252D01*
X9599500Y-2392412D01*
X9599500Y-3219746D01*
X9599501Y-3219758D01*
X9611132Y-3278227D01*
X9611133Y-3278231D01*
X9655448Y-3344552D01*
X9721769Y-3388867D01*
X9766231Y-3397711D01*
X9780241Y-3400498D01*
X9780246Y-3400498D01*
X9780252Y-3400500D01*
X9780253Y-3400500D01*
X10619747Y-3400500D01*
X10619748Y-3400500D01*
X10678231Y-3388867D01*
X10744552Y-3344552D01*
X10788867Y-3278231D01*
X10800500Y-3219748D01*
X10800500Y-2645521D01*
X10819407Y-2587330D01*
X10868907Y-2551366D01*
X10880173Y-2548426D01*
X10928231Y-2538867D01*
X10994552Y-2494552D01*
X11038867Y-2428231D01*
X11050500Y-2369748D01*
X11050500Y-830252D01*
X11050500Y-830251D01*
X11979500Y-830251D01*
X11979500Y-830252D01*
X11979500Y-2369748D01*
X11991133Y-2428231D01*
X11991134Y-2428232D01*
X11991963Y-2430234D01*
X11999500Y-2468122D01*
X11999500Y-3219746D01*
X11999501Y-3219758D01*
X12011132Y-3278227D01*
X12011133Y-3278231D01*
X12055448Y-3344552D01*
X12121769Y-3388867D01*
X12166231Y-3397711D01*
X12180241Y-3400498D01*
X12180246Y-3400498D01*
X12180252Y-3400500D01*
X12180253Y-3400500D01*
X13019747Y-3400500D01*
X13019748Y-3400500D01*
X13078231Y-3388867D01*
X13144552Y-3344552D01*
X13188867Y-3278231D01*
X13200500Y-3219748D01*
X13200500Y-2628929D01*
X13219407Y-2570738D01*
X13251104Y-2545753D01*
X13250123Y-2544285D01*
X13314499Y-2501269D01*
X13324552Y-2494552D01*
X13368867Y-2428231D01*
X13380500Y-2369748D01*
X13380500Y-830253D01*
X14309500Y-830253D01*
X14309500Y-2369746D01*
X14309501Y-2369758D01*
X14321132Y-2428227D01*
X14321134Y-2428233D01*
X14365445Y-2494548D01*
X14365448Y-2494552D01*
X14365451Y-2494554D01*
X14370504Y-2499607D01*
X14398281Y-2554124D01*
X14399500Y-2569611D01*
X14399500Y-3219746D01*
X14399501Y-3219758D01*
X14411132Y-3278227D01*
X14411133Y-3278231D01*
X14455448Y-3344552D01*
X14521769Y-3388867D01*
X14566231Y-3397711D01*
X14580241Y-3400498D01*
X14580246Y-3400498D01*
X14580252Y-3400500D01*
X14580253Y-3400500D01*
X15419747Y-3400500D01*
X15419748Y-3400500D01*
X15478231Y-3388867D01*
X15544552Y-3344552D01*
X15588867Y-3278231D01*
X15600500Y-3219748D01*
X15600500Y-2583585D01*
X15619407Y-2525394D01*
X15644499Y-2501269D01*
X15645327Y-2500716D01*
X15654552Y-2494552D01*
X15698867Y-2428231D01*
X15710500Y-2369748D01*
X15710500Y-830253D01*
X16639500Y-830253D01*
X16639500Y-2369746D01*
X16639501Y-2369758D01*
X16651132Y-2428227D01*
X16651134Y-2428233D01*
X16695445Y-2494548D01*
X16695448Y-2494552D01*
X16755502Y-2534679D01*
X16793381Y-2582729D01*
X16799500Y-2616994D01*
X16799500Y-3219746D01*
X16799501Y-3219758D01*
X16811132Y-3278227D01*
X16811133Y-3278231D01*
X16855448Y-3344552D01*
X16921769Y-3388867D01*
X16966231Y-3397711D01*
X16980241Y-3400498D01*
X16980246Y-3400498D01*
X16980252Y-3400500D01*
X16980253Y-3400500D01*
X17819747Y-3400500D01*
X17819748Y-3400500D01*
X17878231Y-3388867D01*
X17944552Y-3344552D01*
X17988867Y-3278231D01*
X18000500Y-3219748D01*
X18000500Y-2500716D01*
X18017185Y-2445714D01*
X18020500Y-2440752D01*
X18028867Y-2428231D01*
X18040500Y-2369748D01*
X18040500Y-830253D01*
X18969500Y-830253D01*
X18969500Y-2369746D01*
X18969501Y-2369758D01*
X18981132Y-2428227D01*
X18981134Y-2428233D01*
X19025445Y-2494548D01*
X19025448Y-2494552D01*
X19091769Y-2538867D01*
X19119816Y-2544446D01*
X19173198Y-2574342D01*
X19198814Y-2629908D01*
X19199500Y-2641543D01*
X19199500Y-3219746D01*
X19199501Y-3219758D01*
X19211132Y-3278227D01*
X19211133Y-3278231D01*
X19255448Y-3344552D01*
X19321769Y-3388867D01*
X19366231Y-3397711D01*
X19380241Y-3400498D01*
X19380246Y-3400498D01*
X19380252Y-3400500D01*
X19380253Y-3400500D01*
X20219747Y-3400500D01*
X20219748Y-3400500D01*
X20278231Y-3388867D01*
X20344552Y-3344552D01*
X20388867Y-3278231D01*
X20400500Y-3219748D01*
X20400500Y-2380252D01*
X20388867Y-2321769D01*
X20387184Y-2319250D01*
X20385434Y-2313482D01*
X20385134Y-2312757D01*
X20385205Y-2312727D01*
X20370500Y-2264249D01*
X20370500Y-830253D01*
X21299500Y-830253D01*
X21299500Y-2369746D01*
X21299501Y-2369758D01*
X21311132Y-2428227D01*
X21311134Y-2428233D01*
X21355445Y-2494548D01*
X21355448Y-2494552D01*
X21421769Y-2538867D01*
X21466231Y-2547711D01*
X21480241Y-2550498D01*
X21480246Y-2550498D01*
X21480252Y-2550500D01*
X21480253Y-2550500D01*
X22519747Y-2550500D01*
X22519748Y-2550500D01*
X22578231Y-2538867D01*
X22644552Y-2494552D01*
X22688867Y-2428231D01*
X22700500Y-2369748D01*
X22700500Y-2280253D01*
X23399500Y-2280253D01*
X23399500Y-3319746D01*
X23399501Y-3319758D01*
X23411132Y-3378227D01*
X23411134Y-3378233D01*
X23426013Y-3400500D01*
X23455448Y-3444552D01*
X23521769Y-3488867D01*
X23566231Y-3497711D01*
X23580241Y-3500498D01*
X23580246Y-3500498D01*
X23580252Y-3500500D01*
X23580253Y-3500500D01*
X25119747Y-3500500D01*
X25119748Y-3500500D01*
X25178231Y-3488867D01*
X25244552Y-3444552D01*
X25288867Y-3378231D01*
X25300500Y-3319748D01*
X25300500Y-2280252D01*
X25288867Y-2221769D01*
X25244552Y-2155448D01*
X25244548Y-2155445D01*
X25178233Y-2111134D01*
X25178231Y-2111133D01*
X25178228Y-2111132D01*
X25178227Y-2111132D01*
X25119758Y-2099501D01*
X25119748Y-2099500D01*
X23580252Y-2099500D01*
X23580251Y-2099500D01*
X23580241Y-2099501D01*
X23521772Y-2111132D01*
X23521766Y-2111134D01*
X23455451Y-2155445D01*
X23455445Y-2155451D01*
X23411134Y-2221766D01*
X23411132Y-2221772D01*
X23399501Y-2280241D01*
X23399500Y-2280253D01*
X22700500Y-2280253D01*
X22700500Y-830252D01*
X22688867Y-771769D01*
X22644552Y-705448D01*
X22644548Y-705445D01*
X22578233Y-661134D01*
X22578231Y-661133D01*
X22578228Y-661132D01*
X22578227Y-661132D01*
X22519758Y-649501D01*
X22519748Y-649500D01*
X21480252Y-649500D01*
X21480251Y-649500D01*
X21480241Y-649501D01*
X21421772Y-661132D01*
X21421766Y-661134D01*
X21355451Y-705445D01*
X21355445Y-705451D01*
X21311134Y-771766D01*
X21311132Y-771772D01*
X21299501Y-830241D01*
X21299500Y-830253D01*
X20370500Y-830253D01*
X20370498Y-830241D01*
X20367711Y-816231D01*
X20358867Y-771769D01*
X20314552Y-705448D01*
X20314548Y-705445D01*
X20248233Y-661134D01*
X20248231Y-661133D01*
X20248228Y-661132D01*
X20248227Y-661132D01*
X20189758Y-649501D01*
X20189748Y-649500D01*
X19150252Y-649500D01*
X19150251Y-649500D01*
X19150241Y-649501D01*
X19091772Y-661132D01*
X19091766Y-661134D01*
X19025451Y-705445D01*
X19025445Y-705451D01*
X18981134Y-771766D01*
X18981132Y-771772D01*
X18969501Y-830241D01*
X18969500Y-830253D01*
X18040500Y-830253D01*
X18040500Y-830252D01*
X18028867Y-771769D01*
X17984552Y-705448D01*
X17984548Y-705445D01*
X17918233Y-661134D01*
X17918231Y-661133D01*
X17918228Y-661132D01*
X17918227Y-661132D01*
X17859758Y-649501D01*
X17859748Y-649500D01*
X16820252Y-649500D01*
X16820251Y-649500D01*
X16820241Y-649501D01*
X16761772Y-661132D01*
X16761766Y-661134D01*
X16695451Y-705445D01*
X16695445Y-705451D01*
X16651134Y-771766D01*
X16651132Y-771772D01*
X16639501Y-830241D01*
X16639500Y-830253D01*
X15710500Y-830253D01*
X15710500Y-830252D01*
X15698867Y-771769D01*
X15654552Y-705448D01*
X15654548Y-705445D01*
X15588233Y-661134D01*
X15588231Y-661133D01*
X15588228Y-661132D01*
X15588227Y-661132D01*
X15529758Y-649501D01*
X15529748Y-649500D01*
X14490252Y-649500D01*
X14490251Y-649500D01*
X14490241Y-649501D01*
X14431772Y-661132D01*
X14431766Y-661134D01*
X14365451Y-705445D01*
X14365445Y-705451D01*
X14321134Y-771766D01*
X14321132Y-771772D01*
X14309501Y-830241D01*
X14309500Y-830253D01*
X13380500Y-830253D01*
X13380500Y-830252D01*
X13368867Y-771769D01*
X13324552Y-705448D01*
X13324548Y-705445D01*
X13258233Y-661134D01*
X13258231Y-661133D01*
X13258228Y-661132D01*
X13258227Y-661132D01*
X13199758Y-649501D01*
X13199748Y-649500D01*
X12160252Y-649500D01*
X12160251Y-649500D01*
X12160241Y-649501D01*
X12101772Y-661132D01*
X12101766Y-661134D01*
X12035451Y-705445D01*
X12035445Y-705451D01*
X11991134Y-771766D01*
X11991132Y-771772D01*
X11979501Y-830241D01*
X11979500Y-830251D01*
X11050500Y-830251D01*
X11038867Y-771769D01*
X10994552Y-705448D01*
X10994548Y-705445D01*
X10928233Y-661134D01*
X10928231Y-661133D01*
X10928228Y-661132D01*
X10928227Y-661132D01*
X10869758Y-649501D01*
X10869748Y-649500D01*
X9830252Y-649500D01*
X9830251Y-649500D01*
X9830241Y-649501D01*
X9771772Y-661132D01*
X9771766Y-661134D01*
X9705451Y-705445D01*
X9705445Y-705451D01*
X9661134Y-771766D01*
X9661132Y-771772D01*
X9649501Y-830241D01*
X9649500Y-830253D01*
X9649500Y-2234317D01*
X9644227Y-2251697D01*
X9643812Y-2267390D01*
X9639681Y-2279042D01*
X9611133Y-2321769D01*
X9599500Y-2380252D01*
X8718411Y-2380252D01*
X8720500Y-2369752D01*
X8720500Y-830253D01*
X8720498Y-830241D01*
X8717711Y-816231D01*
X8708867Y-771769D01*
X8664552Y-705448D01*
X8664548Y-705445D01*
X8598233Y-661134D01*
X8598231Y-661133D01*
X8598228Y-661132D01*
X8598227Y-661132D01*
X8539758Y-649501D01*
X8539748Y-649500D01*
X7500252Y-649500D01*
X7500251Y-649500D01*
X7500241Y-649501D01*
X7441772Y-661132D01*
X7441766Y-661134D01*
X7375451Y-705445D01*
X7375445Y-705451D01*
X7331134Y-771766D01*
X7331132Y-771772D01*
X7319501Y-830241D01*
X7319500Y-830253D01*
X250000Y-830253D01*
X250000Y-349000D01*
X268907Y-290809D01*
X318407Y-254845D01*
X349000Y-250000D01*
X29651000Y-250000D01*
X29709191Y-268907D01*
G37*
%TD.AperFunction*%
%TD*%
M02*
