%TF.GenerationSoftware,KiCad,Pcbnew,10.0.3*%
%TF.CreationDate,2026-06-08T13:37:16+09:00*%
%TF.ProjectId,lte-m-cat-tracker,6c74652d-6d2d-4636-9174-2d747261636b,rev?*%
%TF.SameCoordinates,Original*%
%TF.FileFunction,Paste,Top*%
%TF.FilePolarity,Positive*%
%FSLAX46Y46*%
G04 Gerber Fmt 4.6, Leading zero omitted, Abs format (unit mm)*
G04 Created by KiCad (PCBNEW 10.0.3) date 2026-06-08 13:37:16*
%MOMM*%
%LPD*%
G01*
G04 APERTURE LIST*
G04 Aperture macros list*
%AMRoundRect*
0 Rectangle with rounded corners*
0 $1 Rounding radius*
0 $2 $3 $4 $5 $6 $7 $8 $9 X,Y pos of 4 corners*
0 Add a 4 corners polygon primitive as box body*
4,1,4,$2,$3,$4,$5,$6,$7,$8,$9,$2,$3,0*
0 Add four circle primitives for the rounded corners*
1,1,$1+$1,$2,$3*
1,1,$1+$1,$4,$5*
1,1,$1+$1,$6,$7*
1,1,$1+$1,$8,$9*
0 Add four rect primitives between the rounded corners*
20,1,$1+$1,$2,$3,$4,$5,0*
20,1,$1+$1,$4,$5,$6,$7,0*
20,1,$1+$1,$6,$7,$8,$9,0*
20,1,$1+$1,$8,$9,$2,$3,0*%
G04 Aperture macros list end*
%ADD10R,0.540000X0.640000*%
%ADD11R,0.300000X0.800000*%
%ADD12R,2.400000X1.200000*%
%ADD13R,1.600000X1.800000*%
%ADD14R,0.560000X0.620000*%
%ADD15R,1.950000X0.600000*%
%ADD16R,0.600000X1.700000*%
%ADD17R,1.000000X2.700000*%
%ADD18R,1.000000X1.450000*%
%ADD19R,1.500000X1.000000*%
%ADD20R,1.000000X1.500000*%
%ADD21R,0.800000X0.800000*%
%ADD22R,0.590000X0.640000*%
%ADD23R,1.050000X1.000000*%
%ADD24R,2.200000X1.050000*%
%ADD25R,1.325000X0.600000*%
%ADD26R,0.800000X0.250000*%
%ADD27R,0.250000X0.800000*%
%ADD28R,3.700000X3.700000*%
%ADD29RoundRect,0.250000X-0.325000X-1.100000X0.325000X-1.100000X0.325000X1.100000X-0.325000X1.100000X0*%
%ADD30R,0.375000X0.350000*%
%ADD31R,1.100000X1.500000*%
%ADD32R,0.800000X1.200000*%
G04 APERTURE END LIST*
D10*
%TO.C,R3*%
X15990000Y-24500000D03*
X17010000Y-24500000D03*
%TD*%
D11*
%TO.C,J2*%
X10250000Y-31300000D03*
X10750000Y-31300000D03*
X11250000Y-31300000D03*
X11750000Y-31300000D03*
X12250000Y-31300000D03*
X12750000Y-31300000D03*
X13250000Y-34700000D03*
X13750000Y-34700000D03*
X10250000Y-34700000D03*
X10750000Y-34700000D03*
X11250000Y-34700000D03*
X11750000Y-34700000D03*
X12250000Y-34700000D03*
X12750000Y-34700000D03*
X13250000Y-31300000D03*
X13750000Y-31300000D03*
D12*
X15500000Y-34600000D03*
%TD*%
D10*
%TO.C,R7*%
X15990000Y-21500000D03*
X17010000Y-21500000D03*
%TD*%
D13*
%TO.C,ANT3*%
X500000Y-19000000D03*
X3100000Y-19000000D03*
%TD*%
D14*
%TO.C,C6*%
X10020000Y-19800000D03*
X10980000Y-19800000D03*
%TD*%
D15*
%TO.C,U4*%
X19025000Y-20595000D03*
X19025000Y-21865000D03*
X19025000Y-23135000D03*
X19025000Y-24405000D03*
X23975000Y-24405000D03*
X23975000Y-23135000D03*
X23975000Y-21865000D03*
X23975000Y-20595000D03*
%TD*%
D16*
%TO.C,J1*%
X2875000Y-32650000D03*
X4125000Y-32650000D03*
D17*
X5975000Y-35850000D03*
%TD*%
D10*
%TO.C,R6*%
X12490000Y-21000000D03*
X13510000Y-21000000D03*
%TD*%
%TO.C,R4*%
X15490000Y-26300000D03*
X16510000Y-26300000D03*
%TD*%
D18*
%TO.C,C11*%
X1550000Y-7000000D03*
X3450000Y-7000000D03*
%TD*%
D19*
%TO.C,U1*%
X24350000Y-2800000D03*
X24350000Y-4600000D03*
X24350000Y-6400000D03*
X24350000Y-8200000D03*
X24350000Y-10000000D03*
X24350000Y-11800000D03*
X24350000Y-13600000D03*
X24350000Y-15400000D03*
X24350000Y-17200000D03*
D20*
X22000000Y-1600000D03*
X19670000Y-1600000D03*
X17340000Y-1600000D03*
X15010000Y-1600000D03*
X12680000Y-1600000D03*
X10350000Y-1600000D03*
X8020000Y-1600000D03*
D19*
X5650000Y-17200000D03*
X5650000Y-15400000D03*
X5650000Y-13600000D03*
X5650000Y-11800000D03*
X5650000Y-10000000D03*
X5650000Y-8200000D03*
X5650000Y-6400000D03*
X5650000Y-4600000D03*
X5650000Y-2800000D03*
D20*
X8000000Y-18400000D03*
X10330000Y-18400000D03*
X12660000Y-18400000D03*
X14990000Y-18400000D03*
X17320000Y-18400000D03*
X19650000Y-18400000D03*
X21980000Y-18400000D03*
D21*
X10200000Y-2800000D03*
X12600000Y-2800000D03*
X15000000Y-2800000D03*
X17400000Y-2800000D03*
X19800000Y-2800000D03*
X10200000Y-4600000D03*
X12600000Y-4600000D03*
X15000000Y-4600000D03*
X17400000Y-4600000D03*
X19800000Y-4600000D03*
X10200000Y-6400000D03*
X12600000Y-6400000D03*
X15000000Y-6400000D03*
X17400000Y-6400000D03*
X19800000Y-6400000D03*
X10200000Y-8200000D03*
X12600000Y-8200000D03*
X15000000Y-8200000D03*
X17400000Y-8200000D03*
X19800000Y-8200000D03*
X10200000Y-10000000D03*
X12600000Y-10000000D03*
X15000000Y-10000000D03*
X17400000Y-10000000D03*
X19800000Y-10000000D03*
X10200000Y-11800000D03*
X12600000Y-11800000D03*
X15000000Y-11800000D03*
X17400000Y-11800000D03*
X19800000Y-11800000D03*
X10200000Y-13600000D03*
X12600000Y-13600000D03*
X15000000Y-13600000D03*
X17400000Y-13600000D03*
X19800000Y-13600000D03*
X10200000Y-15400000D03*
X12600000Y-15400000D03*
X15000000Y-15400000D03*
X17400000Y-15400000D03*
X19800000Y-15400000D03*
X10200000Y-17200000D03*
X12600000Y-17200000D03*
X15000000Y-17200000D03*
X17400000Y-17200000D03*
X19800000Y-17200000D03*
%TD*%
D14*
%TO.C,C1*%
X3720000Y-21500000D03*
X4680000Y-21500000D03*
%TD*%
%TO.C,C2*%
X3720000Y-23500000D03*
X4680000Y-23500000D03*
%TD*%
D22*
%TO.C,LED1*%
X15515000Y-27500000D03*
X16485000Y-27500000D03*
%TD*%
D23*
%TO.C,ANT2*%
X26475000Y-13500000D03*
D24*
X28000000Y-14975000D03*
%TD*%
D18*
%TO.C,C9*%
X10550000Y-28500000D03*
X12450000Y-28500000D03*
%TD*%
D14*
%TO.C,C5*%
X8020000Y-19800000D03*
X8980000Y-19800000D03*
%TD*%
%TO.C,C8*%
X14020000Y-22000000D03*
X14980000Y-22000000D03*
%TD*%
D25*
%TO.C,U5*%
X26362500Y-21050000D03*
X26362500Y-22000000D03*
X26362500Y-22950000D03*
X28637500Y-22950000D03*
X28637500Y-21050000D03*
%TD*%
D26*
%TO.C,U2*%
X6050000Y-21750000D03*
X6050000Y-22250000D03*
X6050000Y-22750000D03*
X6050000Y-23250000D03*
X6050000Y-23750000D03*
X6050000Y-24250000D03*
X6050000Y-24750000D03*
X6050000Y-25250000D03*
D27*
X6750000Y-25950000D03*
X7250000Y-25950000D03*
X7750000Y-25950000D03*
X8250000Y-25950000D03*
X8750000Y-25950000D03*
X9250000Y-25950000D03*
X9750000Y-25950000D03*
X10250000Y-25950000D03*
D26*
X10950000Y-25250000D03*
X10950000Y-24750000D03*
X10950000Y-24250000D03*
X10950000Y-23750000D03*
X10950000Y-23250000D03*
X10950000Y-22750000D03*
X10950000Y-22250000D03*
X10950000Y-21750000D03*
D27*
X10250000Y-21050000D03*
X9750000Y-21050000D03*
X9250000Y-21050000D03*
X8750000Y-21050000D03*
X8250000Y-21050000D03*
X7750000Y-21050000D03*
X7250000Y-21050000D03*
X6750000Y-21050000D03*
D28*
X8500000Y-23500000D03*
%TD*%
D18*
%TO.C,C10*%
X26550000Y-25000000D03*
X28450000Y-25000000D03*
%TD*%
D14*
%TO.C,C7*%
X12120000Y-22000000D03*
X13080000Y-22000000D03*
%TD*%
D23*
%TO.C,ANT1*%
X26475000Y-4500000D03*
D24*
X28000000Y-5975000D03*
%TD*%
D18*
%TO.C,C12*%
X1550000Y-13000000D03*
X3450000Y-13000000D03*
%TD*%
D29*
%TO.C,C13*%
X7525000Y-33300000D03*
X10475000Y-33300000D03*
%TD*%
D10*
%TO.C,R5*%
X12490000Y-19800000D03*
X13510000Y-19800000D03*
%TD*%
D30*
%TO.C,U3*%
X12737500Y-23750000D03*
X12737500Y-24250000D03*
X12737500Y-24750000D03*
X12737500Y-25250000D03*
X13250000Y-25262500D03*
X13750000Y-25262500D03*
X14262500Y-25250000D03*
X14262500Y-24750000D03*
X14262500Y-24250000D03*
X14262500Y-23750000D03*
X13750000Y-23737500D03*
X13250000Y-23737500D03*
%TD*%
D10*
%TO.C,R2*%
X14990000Y-29800000D03*
X16010000Y-29800000D03*
%TD*%
D14*
%TO.C,C4*%
X6020000Y-19000000D03*
X6980000Y-19000000D03*
%TD*%
D31*
%TO.C,SIM1*%
X21060000Y-29300000D03*
X23600000Y-29300000D03*
X26140000Y-29300000D03*
X21060000Y-31840000D03*
X26140000Y-31840000D03*
X17800000Y-31300000D03*
%TD*%
D14*
%TO.C,C3*%
X3720000Y-25500000D03*
X4680000Y-25500000D03*
%TD*%
D32*
%TO.C,SW1*%
X2000000Y-26950000D03*
X2000000Y-28850000D03*
X2000000Y-30750000D03*
%TD*%
D10*
%TO.C,R1*%
X12490000Y-30200000D03*
X13510000Y-30200000D03*
%TD*%
M02*
