%TF.GenerationSoftware,KiCad,Pcbnew,10.0.3*%
%TF.CreationDate,2026-06-10T18:34:28+09:00*%
%TF.ProjectId,lte-m-cat-tracker,6c74652d-6d2d-4636-9174-2d747261636b,rev?*%
%TF.SameCoordinates,Original*%
%TF.FileFunction,Copper,L1,Top*%
%TF.FilePolarity,Positive*%
%FSLAX46Y46*%
G04 Gerber Fmt 4.6, Leading zero omitted, Abs format (unit mm)*
G04 Created by KiCad (PCBNEW 10.0.3) date 2026-06-10 18:34:28*
%MOMM*%
%LPD*%
G01*
G04 APERTURE LIST*
G04 Aperture macros list*
%AMRoundRect*
0 Rectangle with rounded corners*
0 $1 Rounding radius*
0 $2 $3 $4 $5 $6 $7 $8 $9 X,Y pos of 4 corners*
0 Add a 4 corners polygon primitive as box body*
4,1,4,$2,$3,$4,$5,$6,$7,$8,$9,$2,$3,0*
0 Add four circle primitives for the rounded corners*
1,1,$1+$1,$2,$3*
1,1,$1+$1,$4,$5*
1,1,$1+$1,$6,$7*
1,1,$1+$1,$8,$9*
0 Add four rect primitives between the rounded corners*
20,1,$1+$1,$2,$3,$4,$5,0*
20,1,$1+$1,$4,$5,$6,$7,0*
20,1,$1+$1,$6,$7,$8,$9,0*
20,1,$1+$1,$8,$9,$2,$3,0*%
G04 Aperture macros list end*
%TA.AperFunction,SMDPad,CuDef*%
%ADD10R,0.540000X0.640000*%
%TD*%
%TA.AperFunction,SMDPad,CuDef*%
%ADD11R,0.300000X0.800000*%
%TD*%
%TA.AperFunction,SMDPad,CuDef*%
%ADD12R,2.400000X1.200000*%
%TD*%
%TA.AperFunction,SMDPad,CuDef*%
%ADD13R,1.600000X1.800000*%
%TD*%
%TA.AperFunction,SMDPad,CuDef*%
%ADD14R,0.560000X0.620000*%
%TD*%
%TA.AperFunction,SMDPad,CuDef*%
%ADD15R,1.950000X0.600000*%
%TD*%
%TA.AperFunction,SMDPad,CuDef*%
%ADD16R,0.600000X1.700000*%
%TD*%
%TA.AperFunction,SMDPad,CuDef*%
%ADD17R,1.000000X2.700000*%
%TD*%
%TA.AperFunction,SMDPad,CuDef*%
%ADD18R,1.000000X1.450000*%
%TD*%
%TA.AperFunction,SMDPad,CuDef*%
%ADD19R,0.800000X0.900000*%
%TD*%
%TA.AperFunction,SMDPad,CuDef*%
%ADD20R,0.900000X0.800000*%
%TD*%
%TA.AperFunction,SMDPad,CuDef*%
%ADD21R,0.900000X0.900000*%
%TD*%
%TA.AperFunction,SMDPad,CuDef*%
%ADD22R,0.590000X0.640000*%
%TD*%
%TA.AperFunction,SMDPad,CuDef*%
%ADD23R,1.050000X1.000000*%
%TD*%
%TA.AperFunction,SMDPad,CuDef*%
%ADD24R,2.200000X1.050000*%
%TD*%
%TA.AperFunction,SMDPad,CuDef*%
%ADD25R,1.325000X0.600000*%
%TD*%
%TA.AperFunction,SMDPad,CuDef*%
%ADD26R,0.800000X0.250000*%
%TD*%
%TA.AperFunction,SMDPad,CuDef*%
%ADD27R,0.250000X0.800000*%
%TD*%
%TA.AperFunction,SMDPad,CuDef*%
%ADD28R,3.700000X3.700000*%
%TD*%
%TA.AperFunction,SMDPad,CuDef*%
%ADD29RoundRect,0.250000X-0.325000X-1.100000X0.325000X-1.100000X0.325000X1.100000X-0.325000X1.100000X0*%
%TD*%
%TA.AperFunction,SMDPad,CuDef*%
%ADD30R,0.375000X0.350000*%
%TD*%
%TA.AperFunction,SMDPad,CuDef*%
%ADD31R,1.100000X1.500000*%
%TD*%
%TA.AperFunction,SMDPad,CuDef*%
%ADD32R,0.800000X1.200000*%
%TD*%
%TA.AperFunction,ViaPad*%
%ADD33C,0.600000*%
%TD*%
%TA.AperFunction,Conductor*%
%ADD34C,0.200000*%
%TD*%
%TA.AperFunction,Conductor*%
%ADD35C,0.150000*%
%TD*%
%TA.AperFunction,Conductor*%
%ADD36C,0.500000*%
%TD*%
%TA.AperFunction,Conductor*%
%ADD37C,0.300000*%
%TD*%
G04 APERTURE END LIST*
D10*
%TO.P,R3,1*%
%TO.N,PROG*%
X15990000Y-24500000D03*
%TO.P,R3,2*%
%TO.N,GND*%
X17010000Y-24500000D03*
%TD*%
D11*
%TO.P,J2,A1*%
%TO.N,GND*%
X10250000Y-30800000D03*
%TO.P,J2,A4*%
%TO.N,VUSB*%
X10750000Y-30800000D03*
%TO.P,J2,A5*%
%TO.N,CC1*%
X11250000Y-30800000D03*
%TO.P,J2,A6*%
%TO.N,N/C*%
X11750000Y-30800000D03*
%TO.P,J2,A7*%
X12250000Y-30800000D03*
%TO.P,J2,A8*%
X12750000Y-30800000D03*
%TO.P,J2,A11*%
X13250000Y-34200000D03*
%TO.P,J2,A12*%
X13750000Y-34200000D03*
%TO.P,J2,B1*%
%TO.N,GND*%
X10250000Y-34200000D03*
%TO.P,J2,B4*%
%TO.N,N/C*%
X10750000Y-34200000D03*
%TO.P,J2,B5*%
%TO.N,CC2*%
X11250000Y-34200000D03*
%TO.P,J2,B6*%
%TO.N,N/C*%
X11750000Y-34200000D03*
%TO.P,J2,B7*%
X12250000Y-34200000D03*
%TO.P,J2,B8*%
X12750000Y-34200000D03*
%TO.P,J2,B11*%
X13250000Y-30800000D03*
%TO.P,J2,B12*%
X13750000Y-30800000D03*
D12*
%TO.P,J2,S*%
X15500000Y-34100000D03*
%TD*%
D10*
%TO.P,R7,1*%
%TO.N,+3.3V*%
X15990000Y-21500000D03*
%TO.P,R7,2*%
%TO.N,I2C_SCL*%
X17010000Y-21500000D03*
%TD*%
D13*
%TO.P,ANT3,1*%
%TO.N,WIFI_ANT*%
X1000000Y-19000000D03*
%TO.P,ANT3,2*%
%TO.N,GND*%
X3600000Y-19000000D03*
%TD*%
D14*
%TO.P,C6,1*%
%TO.N,+3.3V*%
X10020000Y-19800000D03*
%TO.P,C6,2*%
%TO.N,GND*%
X10980000Y-19800000D03*
%TD*%
D15*
%TO.P,U4,1*%
%TO.N,N/C*%
X19025000Y-20595000D03*
%TO.P,U4,2*%
%TO.N,PROG*%
X19025000Y-21865000D03*
%TO.P,U4,3*%
%TO.N,GND*%
X19025000Y-23135000D03*
%TO.P,U4,4*%
%TO.N,VUSB*%
X19025000Y-24405000D03*
%TO.P,U4,5*%
%TO.N,VBAT*%
X23975000Y-24405000D03*
%TO.P,U4,6*%
%TO.N,N/C*%
X23975000Y-23135000D03*
%TO.P,U4,7*%
%TO.N,CHRG*%
X23975000Y-21865000D03*
%TO.P,U4,8*%
%TO.N,+3.3V*%
X23975000Y-20595000D03*
%TD*%
D16*
%TO.P,J1,1*%
%TO.N,VBAT*%
X2875000Y-32650000D03*
%TO.P,J1,2*%
%TO.N,GND*%
X4125000Y-32650000D03*
D17*
%TO.P,J1,MP*%
%TO.N,N/C*%
X5975000Y-35850000D03*
%TD*%
D10*
%TO.P,R6,1*%
%TO.N,+3.3V*%
X12490000Y-21000000D03*
%TO.P,R6,2*%
%TO.N,I2C_SDA*%
X13510000Y-21000000D03*
%TD*%
%TO.P,R4,1*%
%TO.N,LED_ANODE*%
X15490000Y-26300000D03*
%TO.P,R4,2*%
%TO.N,CHRG*%
X16510000Y-26300000D03*
%TD*%
D18*
%TO.P,C11,1*%
%TO.N,VBAT_SW*%
X1550000Y-7000000D03*
%TO.P,C11,2*%
%TO.N,GND*%
X3450000Y-7000000D03*
%TD*%
D19*
%TO.P,U1,1*%
%TO.N,N/C*%
X6250000Y-3950000D03*
%TO.P,U1,2*%
X6250000Y-5050000D03*
%TO.P,U1,3*%
X6250000Y-6150000D03*
%TO.P,U1,4*%
X6250000Y-7250000D03*
%TO.P,U1,5*%
X6250000Y-8350000D03*
%TO.P,U1,6*%
X6250000Y-9450000D03*
%TO.P,U1,7*%
X6250000Y-10550000D03*
%TO.P,U1,8*%
%TO.N,GND*%
X6250000Y-11650000D03*
%TO.P,U1,9*%
%TO.N,N/C*%
X6250000Y-12750000D03*
%TO.P,U1,10*%
X6250000Y-13850000D03*
%TO.P,U1,11*%
X6250000Y-14950000D03*
%TO.P,U1,12*%
X6250000Y-16050000D03*
D20*
%TO.P,U1,13*%
%TO.N,GND*%
X10600000Y-18740000D03*
%TO.P,U1,14*%
%TO.N,N/C*%
X11700000Y-18740000D03*
%TO.P,U1,15*%
%TO.N,SIM_DATA*%
X12800000Y-18740000D03*
%TO.P,U1,16*%
%TO.N,SIM_CLK*%
X13900000Y-18740000D03*
%TO.P,U1,17*%
%TO.N,SIM_RST*%
X15000000Y-18740000D03*
%TO.P,U1,18*%
%TO.N,SIM_VDD*%
X16100000Y-18740000D03*
%TO.P,U1,19*%
%TO.N,GND*%
X17200000Y-18740000D03*
%TO.P,U1,20*%
%TO.N,N/C*%
X18300000Y-18740000D03*
%TO.P,U1,21*%
%TO.N,GND*%
X19400000Y-18740000D03*
D19*
%TO.P,U1,22*%
%TO.N,SIM_TXD*%
X23750000Y-16050000D03*
%TO.P,U1,23*%
%TO.N,SIM_RXD*%
X23750000Y-14950000D03*
%TO.P,U1,24*%
%TO.N,N/C*%
X23750000Y-13850000D03*
%TO.P,U1,25*%
X23750000Y-12750000D03*
%TO.P,U1,26*%
X23750000Y-11650000D03*
%TO.P,U1,27*%
%TO.N,GND*%
X23750000Y-10550000D03*
%TO.P,U1,28*%
%TO.N,SIM_RESETN*%
X23750000Y-9450000D03*
%TO.P,U1,29*%
%TO.N,N/C*%
X23750000Y-8350000D03*
%TO.P,U1,30*%
%TO.N,GND*%
X23750000Y-7250000D03*
%TO.P,U1,31*%
X23750000Y-6150000D03*
%TO.P,U1,32*%
%TO.N,LTE_ANT*%
X23750000Y-5050000D03*
%TO.P,U1,33*%
%TO.N,GND*%
X23750000Y-3950000D03*
D20*
%TO.P,U1,34*%
%TO.N,VBAT_SW*%
X19400000Y-1260000D03*
%TO.P,U1,35*%
X18300000Y-1260000D03*
%TO.P,U1,36*%
%TO.N,GND*%
X17200000Y-1260000D03*
%TO.P,U1,37*%
X16100000Y-1260000D03*
%TO.P,U1,38*%
%TO.N,N/C*%
X15000000Y-1260000D03*
%TO.P,U1,39*%
%TO.N,SIM_PWRKEY*%
X13900000Y-1260000D03*
%TO.P,U1,40*%
%TO.N,N/C*%
X12800000Y-1260000D03*
%TO.P,U1,41*%
X11700000Y-1260000D03*
%TO.P,U1,42*%
%TO.N,SIM_STATUS*%
X10600000Y-1260000D03*
D21*
%TO.P,U1,43*%
%TO.N,N/C*%
X10600000Y-5050000D03*
%TO.P,U1,44*%
X12800000Y-5050000D03*
%TO.P,U1,45*%
%TO.N,GND*%
X15000000Y-5050000D03*
%TO.P,U1,46*%
%TO.N,VBAT_SW*%
X17200000Y-5050000D03*
%TO.P,U1,47*%
X10600000Y-6700000D03*
%TO.P,U1,48*%
%TO.N,N/C*%
X12800000Y-6700000D03*
%TO.P,U1,49*%
X15000000Y-6700000D03*
%TO.P,U1,50*%
X17200000Y-6700000D03*
%TO.P,U1,51*%
X19400000Y-6700000D03*
%TO.P,U1,52*%
X10600000Y-8350000D03*
%TO.P,U1,53*%
X12800000Y-8350000D03*
%TO.P,U1,54*%
X15000000Y-8350000D03*
%TO.P,U1,55*%
X17200000Y-8350000D03*
%TO.P,U1,56*%
X19400000Y-8350000D03*
%TO.P,U1,57*%
X10600000Y-10000000D03*
%TO.P,U1,58*%
X12800000Y-10000000D03*
%TO.P,U1,59*%
X15000000Y-10000000D03*
%TO.P,U1,60*%
X17200000Y-10000000D03*
%TO.P,U1,61*%
X19400000Y-10000000D03*
%TO.P,U1,62*%
X10600000Y-11650000D03*
%TO.P,U1,63*%
%TO.N,GND*%
X12800000Y-11650000D03*
%TO.P,U1,64*%
%TO.N,N/C*%
X15000000Y-11650000D03*
%TO.P,U1,65*%
X17200000Y-11650000D03*
%TO.P,U1,66*%
%TO.N,GND*%
X19400000Y-11650000D03*
%TO.P,U1,67*%
X10600000Y-13300000D03*
%TO.P,U1,68*%
%TO.N,GNSS_ANT*%
X19400000Y-5050000D03*
%TO.P,U1,69*%
%TO.N,GND*%
X12800000Y-13300000D03*
%TO.P,U1,70*%
X15000000Y-13300000D03*
%TO.P,U1,71*%
X17200000Y-13300000D03*
%TO.P,U1,72*%
X19400000Y-13300000D03*
%TO.P,U1,73*%
X10600000Y-14950000D03*
%TO.P,U1,74*%
X12800000Y-14950000D03*
%TO.P,U1,75*%
X15000000Y-14950000D03*
%TO.P,U1,76*%
X17200000Y-14950000D03*
%TO.P,U1,77*%
X19400000Y-14950000D03*
%TD*%
D14*
%TO.P,C1,1*%
%TO.N,+3.3V*%
X3720000Y-21500000D03*
%TO.P,C1,2*%
%TO.N,GND*%
X4680000Y-21500000D03*
%TD*%
%TO.P,C2,1*%
%TO.N,+3.3V*%
X3720000Y-23500000D03*
%TO.P,C2,2*%
%TO.N,GND*%
X4680000Y-23500000D03*
%TD*%
D22*
%TO.P,LED1,1*%
%TO.N,GND*%
X15515000Y-27500000D03*
%TO.P,LED1,2*%
%TO.N,LED_ANODE*%
X16485000Y-27500000D03*
%TD*%
D23*
%TO.P,ANT2,1*%
%TO.N,GNSS_ANT*%
X26475000Y-13500000D03*
D24*
%TO.P,ANT2,2*%
%TO.N,GND*%
X28000000Y-14975000D03*
%TD*%
D18*
%TO.P,C9,1*%
%TO.N,VBAT_SW*%
X10550000Y-28500000D03*
%TO.P,C9,2*%
%TO.N,GND*%
X12450000Y-28500000D03*
%TD*%
D14*
%TO.P,C5,1*%
%TO.N,+3.3V*%
X8020000Y-19800000D03*
%TO.P,C5,2*%
%TO.N,GND*%
X8980000Y-19800000D03*
%TD*%
%TO.P,C8,1*%
%TO.N,+3.3V*%
X14020000Y-22000000D03*
%TO.P,C8,2*%
%TO.N,GND*%
X14980000Y-22000000D03*
%TD*%
D25*
%TO.P,U5,1*%
%TO.N,VBAT_SW*%
X26362500Y-21050000D03*
%TO.P,U5,2*%
%TO.N,GND*%
X26362500Y-22000000D03*
%TO.P,U5,3*%
%TO.N,VBAT_SW*%
X26362500Y-22950000D03*
%TO.P,U5,4*%
%TO.N,N/C*%
X28637500Y-22950000D03*
%TO.P,U5,5*%
%TO.N,+3.3V*%
X28637500Y-21050000D03*
%TD*%
D26*
%TO.P,U2,1*%
%TO.N,WIFI_ANT*%
X6050000Y-21750000D03*
%TO.P,U2,2*%
%TO.N,+3.3V*%
X6050000Y-22250000D03*
%TO.P,U2,3*%
X6050000Y-22750000D03*
%TO.P,U2,4*%
%TO.N,SIM_STATUS*%
X6050000Y-23250000D03*
%TO.P,U2,5*%
%TO.N,N/C*%
X6050000Y-23750000D03*
%TO.P,U2,6*%
%TO.N,SIM_RESETN*%
X6050000Y-24250000D03*
%TO.P,U2,7*%
%TO.N,N/C*%
X6050000Y-24750000D03*
%TO.P,U2,8*%
%TO.N,SIM_PWRKEY*%
X6050000Y-25250000D03*
D27*
%TO.P,U2,9*%
%TO.N,N/C*%
X6750000Y-25950000D03*
%TO.P,U2,10*%
X7250000Y-25950000D03*
%TO.P,U2,11*%
%TO.N,+3.3V*%
X7750000Y-25950000D03*
%TO.P,U2,12*%
%TO.N,N/C*%
X8250000Y-25950000D03*
%TO.P,U2,13*%
X8750000Y-25950000D03*
%TO.P,U2,14*%
%TO.N,I2C_SDA*%
X9250000Y-25950000D03*
%TO.P,U2,15*%
%TO.N,I2C_SCL*%
X9750000Y-25950000D03*
%TO.P,U2,16*%
%TO.N,ACCEL_INT1*%
X10250000Y-25950000D03*
D26*
%TO.P,U2,17*%
%TO.N,+3.3V*%
X10950000Y-25250000D03*
%TO.P,U2,18*%
X10950000Y-24750000D03*
%TO.P,U2,19*%
%TO.N,N/C*%
X10950000Y-24250000D03*
%TO.P,U2,20*%
X10950000Y-23750000D03*
%TO.P,U2,21*%
X10950000Y-23250000D03*
%TO.P,U2,22*%
X10950000Y-22750000D03*
%TO.P,U2,23*%
X10950000Y-22250000D03*
%TO.P,U2,24*%
X10950000Y-21750000D03*
D27*
%TO.P,U2,25*%
X10250000Y-21050000D03*
%TO.P,U2,26*%
X9750000Y-21050000D03*
%TO.P,U2,27*%
%TO.N,SIM_TXD*%
X9250000Y-21050000D03*
%TO.P,U2,28*%
%TO.N,SIM_RXD*%
X8750000Y-21050000D03*
%TO.P,U2,29*%
%TO.N,N/C*%
X8250000Y-21050000D03*
%TO.P,U2,30*%
X7750000Y-21050000D03*
%TO.P,U2,31*%
%TO.N,+3.3V*%
X7250000Y-21050000D03*
%TO.P,U2,32*%
X6750000Y-21050000D03*
D28*
%TO.P,U2,33*%
%TO.N,GND*%
X8500000Y-23500000D03*
%TD*%
D18*
%TO.P,C10,1*%
%TO.N,+3.3V*%
X26550000Y-25000000D03*
%TO.P,C10,2*%
%TO.N,GND*%
X28450000Y-25000000D03*
%TD*%
D14*
%TO.P,C7,1*%
%TO.N,+3.3V*%
X12120000Y-22000000D03*
%TO.P,C7,2*%
%TO.N,GND*%
X13080000Y-22000000D03*
%TD*%
D23*
%TO.P,ANT1,1*%
%TO.N,LTE_ANT*%
X26475000Y-4500000D03*
D24*
%TO.P,ANT1,2*%
%TO.N,GND*%
X28000000Y-5975000D03*
%TD*%
D18*
%TO.P,C12,1*%
%TO.N,VBAT_SW*%
X1550000Y-13000000D03*
%TO.P,C12,2*%
%TO.N,GND*%
X3450000Y-13000000D03*
%TD*%
D29*
%TO.P,C13,1*%
%TO.N,VBAT*%
X3025000Y-33300000D03*
%TO.P,C13,2*%
%TO.N,GND*%
X5975000Y-33300000D03*
%TD*%
D10*
%TO.P,R5,1*%
%TO.N,N/C*%
X12490000Y-19800000D03*
%TO.P,R5,2*%
%TO.N,+3.3V*%
X13510000Y-19800000D03*
%TD*%
D30*
%TO.P,U3,1*%
%TO.N,I2C_SCL*%
X14262500Y-25250000D03*
%TO.P,U3,2*%
%TO.N,+3.3V*%
X14262500Y-24750000D03*
%TO.P,U3,3*%
%TO.N,GND*%
X14262500Y-24250000D03*
%TO.P,U3,4*%
%TO.N,I2C_SDA*%
X14262500Y-23750000D03*
%TO.P,U3,5*%
%TO.N,N/C*%
X13750000Y-23737500D03*
%TO.P,U3,6*%
%TO.N,GND*%
X13250000Y-23737500D03*
%TO.P,U3,7*%
X12737500Y-23750000D03*
%TO.P,U3,8*%
X12737500Y-24250000D03*
%TO.P,U3,9*%
%TO.N,+3.3V*%
X12737500Y-24750000D03*
%TO.P,U3,10*%
X12737500Y-25250000D03*
%TO.P,U3,11*%
%TO.N,N/C*%
X13250000Y-25262500D03*
%TO.P,U3,12*%
%TO.N,ACCEL_INT1*%
X13750000Y-25262500D03*
%TD*%
D10*
%TO.P,R2,1*%
%TO.N,GND*%
X14990000Y-29800000D03*
%TO.P,R2,2*%
%TO.N,CC2*%
X16010000Y-29800000D03*
%TD*%
D14*
%TO.P,C4,1*%
%TO.N,+3.3V*%
X6020000Y-19000000D03*
%TO.P,C4,2*%
%TO.N,GND*%
X6980000Y-19000000D03*
%TD*%
D31*
%TO.P,SIM1,1*%
%TO.N,SIM_VDD*%
X21060000Y-29300000D03*
%TO.P,SIM1,2*%
%TO.N,SIM_DATA*%
X23600000Y-29300000D03*
%TO.P,SIM1,3*%
%TO.N,SIM_CLK*%
X26140000Y-29300000D03*
%TO.P,SIM1,4*%
%TO.N,SIM_RST*%
X21060000Y-31840000D03*
%TO.P,SIM1,5*%
%TO.N,GND*%
X26140000Y-31840000D03*
%TO.P,SIM1,6*%
%TO.N,N/C*%
X17800000Y-31300000D03*
%TD*%
D14*
%TO.P,C3,1*%
%TO.N,+3.3V*%
X3720000Y-25500000D03*
%TO.P,C3,2*%
%TO.N,GND*%
X4680000Y-25500000D03*
%TD*%
D32*
%TO.P,SW1,1*%
%TO.N,VBAT*%
X2000000Y-26950000D03*
%TO.P,SW1,2*%
%TO.N,VBAT_SW*%
X2000000Y-28850000D03*
%TO.P,SW1,3*%
%TO.N,N/C*%
X2000000Y-30750000D03*
%TD*%
D10*
%TO.P,R1,1*%
%TO.N,GND*%
X12490000Y-30200000D03*
%TO.P,R1,2*%
%TO.N,CC1*%
X13510000Y-30200000D03*
%TD*%
D33*
%TO.N,PROG*%
X15990000Y-24000000D03*
X20500000Y-24000000D03*
%TO.N,GND*%
X4500000Y-25400000D03*
X10730000Y-19200000D03*
X12900000Y-22200000D03*
X19800000Y-28200000D03*
X11950000Y-28500000D03*
X29500000Y-25000000D03*
X29500000Y-12000000D03*
X11600000Y-28200000D03*
X16860000Y-23400000D03*
X27900000Y-25000000D03*
X18250000Y-28200000D03*
X15515000Y-27500000D03*
X12200000Y-31300000D03*
X4000000Y-18500000D03*
X7000000Y-23300000D03*
X29500000Y-19000000D03*
X4000000Y-18500000D03*
X29500000Y-30000000D03*
X25300000Y-3000000D03*
X18100000Y-23000000D03*
X19500000Y-23500000D03*
X25500000Y-11500000D03*
X29500000Y-5000000D03*
X15600000Y-27500000D03*
X12490000Y-31250000D03*
X26600000Y-26500000D03*
%TO.N,VUSB*%
X10750000Y-30500000D03*
X19025000Y-24405000D03*
%TO.N,CC1*%
X13510000Y-32000000D03*
X11250000Y-32000000D03*
%TO.N,CC2*%
X20000000Y-29800000D03*
X11100000Y-33900000D03*
%TO.N,+3.3V*%
X26550000Y-25000000D03*
X3500000Y-26500000D03*
X7750000Y-25950000D03*
X11800000Y-19600000D03*
X11800000Y-19600000D03*
X6500000Y-19600000D03*
X11800000Y-25500000D03*
X7750000Y-19600000D03*
X11800000Y-25500000D03*
X6050000Y-22500000D03*
X6500000Y-21000000D03*
X26550000Y-19600000D03*
%TO.N,I2C_SDA*%
X9150000Y-25950000D03*
X15200000Y-20500000D03*
X13350000Y-21000000D03*
%TO.N,LED_ANODE*%
X15490000Y-26300000D03*
X15490000Y-26300000D03*
X16485000Y-27500000D03*
%TO.N,VBAT_SW*%
X19400000Y-1260000D03*
X27500000Y-21050000D03*
X1550000Y-13000000D03*
X2000000Y-28850000D03*
X1550000Y-7000000D03*
%TO.N,SIM_DATA*%
X26400000Y-28000000D03*
X12800000Y-18740000D03*
%TO.N,SIM_CLK*%
X13900000Y-18740000D03*
X24700000Y-28800000D03*
%TO.N,SIM_RST*%
X15000000Y-18740000D03*
X24000000Y-31300000D03*
%TO.N,SIM_VDD*%
X16100000Y-18740000D03*
X22000000Y-28800000D03*
%TO.N,SIM_TXD*%
X10100000Y-21000000D03*
X28500000Y-16050000D03*
%TO.N,SIM_RXD*%
X8700000Y-21050000D03*
X25300000Y-14950000D03*
X25300000Y-33000000D03*
X8350000Y-33000000D03*
%TO.N,SIM_RESETN*%
X4500000Y-24500000D03*
X3000000Y-900000D03*
X26700000Y-2400000D03*
X26700000Y-9450000D03*
%TO.N,SIM_PWRKEY*%
X5500000Y-25250000D03*
X13900000Y-1260000D03*
%TO.N,SIM_STATUS*%
X4700000Y-22600000D03*
X4700000Y-1260000D03*
%TO.N,GNSS_ANT*%
X20500000Y-12000000D03*
X20500000Y-5050000D03*
%TO.N,ACCEL_INT1*%
X10850000Y-25950000D03*
X13750000Y-25950000D03*
%TD*%
%TO.N,PROG*%
D34*
X20500000Y-24000000D02*
X20500000Y-21865000D01*
X20500000Y-21865000D02*
X19025000Y-21865000D01*
X15990000Y-24500000D02*
X15990000Y-24000000D01*
%TO.N,GND*%
X12450000Y-28500000D02*
X11950000Y-28500000D01*
X28450000Y-25000000D02*
X27900000Y-25000000D01*
X25400000Y-22000000D02*
X25400000Y-23700000D01*
X27900000Y-23700000D02*
X27900000Y-25000000D01*
X17010000Y-24500000D02*
X16860000Y-24500000D01*
X12737500Y-23750000D02*
X12737500Y-24250000D01*
D35*
X12737500Y-23750000D02*
X13250000Y-23737500D01*
D34*
X26362500Y-22000000D02*
X25700000Y-22000000D01*
X18250000Y-28200000D02*
X19800000Y-28200000D01*
X12737500Y-24250000D02*
X14262500Y-24250000D01*
X10730000Y-19800000D02*
X10730000Y-19200000D01*
X25700000Y-22000000D02*
X25400000Y-22000000D01*
X25400000Y-23700000D02*
X27900000Y-23700000D01*
X16860000Y-24500000D02*
X16860000Y-23400000D01*
X12490000Y-30200000D02*
X12490000Y-31250000D01*
X12737500Y-23750000D02*
X12200000Y-23750000D01*
X10980000Y-19800000D02*
X10730000Y-19800000D01*
%TO.N,VUSB*%
D36*
X10750000Y-31300000D02*
X10750000Y-30500000D01*
%TO.N,CC1*%
D34*
X11250000Y-32000000D02*
X11250000Y-30800000D01*
X13510000Y-30200000D02*
X13510000Y-32000000D01*
%TO.N,CC2*%
X16010000Y-29800000D02*
X20000000Y-29800000D01*
%TO.N,+3.3V*%
D37*
X28000000Y-21050000D02*
X28000000Y-19600000D01*
X11700000Y-19600000D02*
X11700000Y-20400000D01*
X28000000Y-19600000D02*
X13000000Y-19600000D01*
X5300000Y-20400000D02*
X5300000Y-19600000D01*
X12490000Y-20300000D02*
X12490000Y-21000000D01*
X3500000Y-23500000D02*
X3720000Y-23500000D01*
X6020000Y-19600000D02*
X6020000Y-19000000D01*
D34*
X12737500Y-25250000D02*
X12737500Y-24750000D01*
D37*
X15990000Y-19600000D02*
X15990000Y-21500000D01*
X3500000Y-25500000D02*
X3500000Y-23500000D01*
X9600000Y-20400000D02*
X5300000Y-20400000D01*
X6750000Y-21000000D02*
X6750000Y-21050000D01*
X3500000Y-21500000D02*
X3720000Y-21500000D01*
X28637000Y-21050000D02*
X28000000Y-21050000D01*
X11800000Y-25500000D02*
X10950000Y-25500000D01*
X11800000Y-25500000D02*
X12738000Y-25500000D01*
X10950000Y-25250000D02*
X10950000Y-24750000D01*
X13000000Y-20300000D02*
X12000000Y-20300000D01*
X23975000Y-19600000D02*
X23975000Y-20595000D01*
X3500000Y-23500000D02*
X3500000Y-21500000D01*
D34*
X12737500Y-24750000D02*
X14262500Y-24750000D01*
D37*
X12000000Y-19600000D02*
X11700000Y-19600000D01*
X3500000Y-26500000D02*
X3500000Y-25500000D01*
X12000000Y-20300000D02*
X12000000Y-19600000D01*
X10950000Y-25500000D02*
X10950000Y-25250000D01*
X5300000Y-19600000D02*
X8300000Y-19600000D01*
X12120000Y-20300000D02*
X12120000Y-22000000D01*
X9600000Y-19600000D02*
X9600000Y-20400000D01*
X6500000Y-21000000D02*
X6750000Y-21000000D01*
X10020000Y-19600000D02*
X10020000Y-19800000D01*
X8020000Y-19600000D02*
X8020000Y-19800000D01*
X12738000Y-25500000D02*
X12738000Y-25250000D01*
X7250000Y-21000000D02*
X7250000Y-21050000D01*
X11700000Y-20400000D02*
X9600000Y-20400000D01*
X14020000Y-19600000D02*
X14020000Y-22000000D01*
X3500000Y-25500000D02*
X3720000Y-25500000D01*
X13000000Y-19600000D02*
X13000000Y-20300000D01*
X6500000Y-21000000D02*
X7250000Y-21000000D01*
X13510000Y-19600000D02*
X13510000Y-19800000D01*
%TO.N,I2C_SCL*%
D34*
X15500000Y-25200000D02*
X17500000Y-25200000D01*
X9750000Y-25950000D02*
X9750000Y-26500000D01*
X17500000Y-21500000D02*
X17010000Y-21500000D01*
X14262500Y-25200000D02*
X14262500Y-25250000D01*
X17500000Y-25200000D02*
X17500000Y-21500000D01*
X15000000Y-25200000D02*
X14262500Y-25200000D01*
X9750000Y-26500000D02*
X15000000Y-26500000D01*
X15000000Y-25200000D02*
X15500000Y-25200000D01*
X15000000Y-26500000D02*
X15000000Y-25200000D01*
%TO.N,WIFI_ANT*%
X1000000Y-20870000D02*
X1000000Y-19000000D01*
X5800000Y-20870000D02*
X1000000Y-20870000D01*
X6050000Y-21750000D02*
X5800000Y-21750000D01*
X5800000Y-21750000D02*
X5800000Y-20870000D01*
%TO.N,VBAT*%
D36*
X14500000Y-27200000D02*
X14500000Y-28500000D01*
X1200000Y-32650000D02*
X1200000Y-26950000D01*
X2875000Y-33300000D02*
X3025000Y-33300000D01*
X2000000Y-27200000D02*
X14500000Y-27200000D01*
X2875000Y-32650000D02*
X2875000Y-33300000D01*
X2875000Y-32650000D02*
X1200000Y-32650000D01*
X1200000Y-26950000D02*
X2000000Y-26950000D01*
X14500000Y-28500000D02*
X17500000Y-28500000D01*
X2000000Y-26950000D02*
X2000000Y-27200000D01*
X24300000Y-27200000D02*
X24300000Y-24405000D01*
X17500000Y-28500000D02*
X17500000Y-27200000D01*
X17500000Y-27200000D02*
X24300000Y-27200000D01*
%TO.N,CHRG*%
D34*
X22000000Y-21865000D02*
X22000000Y-26300000D01*
X22000000Y-26300000D02*
X16510000Y-26300000D01*
X23975000Y-21865000D02*
X22000000Y-21865000D01*
%TO.N,I2C_SDA*%
X13350000Y-21000000D02*
X13510000Y-21000000D01*
D35*
X15500000Y-21300000D02*
X15500000Y-23300000D01*
X15200000Y-20500000D02*
X15200000Y-21300000D01*
X15200000Y-21300000D02*
X15500000Y-21300000D01*
X15500000Y-23300000D02*
X14262500Y-23300000D01*
X14262500Y-23300000D02*
X14262500Y-23750000D01*
%TO.N,LED_ANODE*%
D34*
X15490000Y-26300000D02*
X16485000Y-27500000D01*
%TO.N,VBAT_SW*%
D36*
X18300000Y-1260000D02*
X19400000Y-1260000D01*
X8400000Y-2600000D02*
X18300000Y-2600000D01*
X27500000Y-21050000D02*
X26363000Y-21050000D01*
D34*
X25500000Y-21050000D02*
X25500000Y-19900000D01*
D37*
X26362500Y-22950000D02*
X27400000Y-22950000D01*
D36*
X2000000Y-28500000D02*
X10550000Y-28500000D01*
D34*
X25500000Y-19900000D02*
X24520000Y-19900000D01*
D36*
X2000000Y-28850000D02*
X2000000Y-28500000D01*
X18300000Y-5050000D02*
X18300000Y-1260000D01*
D34*
X26363000Y-21050000D02*
X25500000Y-21050000D01*
D36*
X2200000Y-7000000D02*
X1550000Y-7000000D01*
X8400000Y-6700000D02*
X8400000Y-2600000D01*
X10600000Y-6700000D02*
X8400000Y-6700000D01*
X8400000Y-2600000D02*
X2200000Y-2600000D01*
X17200000Y-5050000D02*
X18300000Y-5050000D01*
X2200000Y-2600000D02*
X2200000Y-7000000D01*
D37*
X27400000Y-22950000D02*
X27400000Y-21050000D01*
%TO.N,SIM_DATA*%
D34*
X23600000Y-28000000D02*
X23600000Y-29300000D01*
X26400000Y-28000000D02*
X23600000Y-28000000D01*
%TO.N,SIM_CLK*%
X24700000Y-29300000D02*
X26140000Y-29300000D01*
X24700000Y-28800000D02*
X24700000Y-29300000D01*
%TO.N,SIM_RST*%
X24000000Y-31300000D02*
X21060000Y-31300000D01*
X21060000Y-31300000D02*
X21060000Y-31840000D01*
%TO.N,SIM_VDD*%
X22000000Y-29300000D02*
X21060000Y-29300000D01*
X22000000Y-28800000D02*
X22000000Y-29300000D01*
%TO.N,SIM_TXD*%
X9750000Y-21000000D02*
X9750000Y-21050000D01*
X9750000Y-21050000D02*
X9250000Y-21050000D01*
X10100000Y-21000000D02*
X9750000Y-21000000D01*
X23750000Y-16050000D02*
X28500000Y-16050000D01*
%TO.N,SIM_RXD*%
X23750000Y-14950000D02*
X25300000Y-14950000D01*
X8350000Y-33000000D02*
X25300000Y-33000000D01*
X8700000Y-21050000D02*
X8750000Y-21050000D01*
%TO.N,SIM_RESETN*%
X23750000Y-9450000D02*
X26700000Y-9450000D01*
X4500000Y-24500000D02*
X4500000Y-24250000D01*
X6050000Y-24250000D02*
X6050000Y-23750000D01*
X26700000Y-500000D02*
X3000000Y-500000D01*
X4500000Y-24250000D02*
X6050000Y-24250000D01*
X3000000Y-500000D02*
X3000000Y-900000D01*
X26700000Y-2400000D02*
X26700000Y-500000D01*
%TO.N,LTE_ANT*%
X26475000Y-5050000D02*
X26475000Y-4500000D01*
X23750000Y-5050000D02*
X26475000Y-5050000D01*
%TO.N,SIM_PWRKEY*%
X6050000Y-25250000D02*
X6050000Y-24750000D01*
X5500000Y-25250000D02*
X6050000Y-25250000D01*
%TO.N,SIM_STATUS*%
X10600000Y-1260000D02*
X4700000Y-1260000D01*
X4700000Y-22600000D02*
X5300000Y-22600000D01*
X5300000Y-23250000D02*
X6050000Y-23250000D01*
X5300000Y-22600000D02*
X5300000Y-23250000D01*
%TO.N,GNSS_ANT*%
X20500000Y-12000000D02*
X26475000Y-12000000D01*
X19400000Y-5050000D02*
X20500000Y-5050000D01*
X26475000Y-12000000D02*
X26475000Y-13500000D01*
%TO.N,ACCEL_INT1*%
X13750000Y-25950000D02*
X13750000Y-25262500D01*
X10850000Y-25950000D02*
X10250000Y-25950000D01*
%TD*%
%TA.AperFunction,Conductor*%
%TO.N,GND*%
G36*
X2767834Y-218806D02*
G01*
X2786140Y-263000D01*
X2767834Y-307194D01*
X2759544Y-315483D01*
X2759541Y-315487D01*
X2719978Y-384011D01*
X2719978Y-384013D01*
X2699500Y-460432D01*
X2699500Y-466797D01*
X2681194Y-510991D01*
X2599504Y-592680D01*
X2599501Y-592684D01*
X2533607Y-706814D01*
X2533606Y-706817D01*
X2499501Y-834101D01*
X2499500Y-834109D01*
X2499500Y-965890D01*
X2499501Y-965898D01*
X2533606Y-1093182D01*
X2533607Y-1093185D01*
X2533608Y-1093186D01*
X2591875Y-1194108D01*
X2599501Y-1207315D01*
X2599504Y-1207319D01*
X2692680Y-1300495D01*
X2692684Y-1300498D01*
X2692686Y-1300500D01*
X2736677Y-1325898D01*
X2806814Y-1366392D01*
X2806817Y-1366393D01*
X2884712Y-1387264D01*
X2934108Y-1400500D01*
X2934109Y-1400500D01*
X3065891Y-1400500D01*
X3065892Y-1400500D01*
X3193186Y-1366392D01*
X3307314Y-1300500D01*
X3400500Y-1207314D01*
X3466392Y-1093186D01*
X3500500Y-965892D01*
X3500500Y-863000D01*
X3518806Y-818806D01*
X3563000Y-800500D01*
X4300797Y-800500D01*
X4344991Y-818806D01*
X4363297Y-863000D01*
X4344991Y-907194D01*
X4299504Y-952680D01*
X4299501Y-952684D01*
X4233607Y-1066814D01*
X4233606Y-1066817D01*
X4199501Y-1194101D01*
X4199500Y-1194109D01*
X4199500Y-1325890D01*
X4199501Y-1325898D01*
X4233606Y-1453182D01*
X4233607Y-1453185D01*
X4299501Y-1567315D01*
X4299504Y-1567319D01*
X4392680Y-1660495D01*
X4392684Y-1660498D01*
X4392686Y-1660500D01*
X4506814Y-1726392D01*
X4506817Y-1726393D01*
X4584712Y-1747264D01*
X4634108Y-1760500D01*
X4634109Y-1760500D01*
X4765891Y-1760500D01*
X4765892Y-1760500D01*
X4893186Y-1726392D01*
X5007314Y-1660500D01*
X5089008Y-1578806D01*
X5133202Y-1560500D01*
X9887000Y-1560500D01*
X9931194Y-1578806D01*
X9949500Y-1623000D01*
X9949500Y-1679748D01*
X9961132Y-1738230D01*
X9961133Y-1738232D01*
X10005447Y-1804552D01*
X10071767Y-1848866D01*
X10071769Y-1848867D01*
X10130252Y-1860500D01*
X11069748Y-1860500D01*
X11128231Y-1848867D01*
X11128231Y-1848866D01*
X11134269Y-1847666D01*
X11134685Y-1849758D01*
X11165315Y-1849754D01*
X11165731Y-1847666D01*
X11171768Y-1848866D01*
X11171769Y-1848867D01*
X11230252Y-1860500D01*
X12169748Y-1860500D01*
X12228231Y-1848867D01*
X12228231Y-1848866D01*
X12234269Y-1847666D01*
X12234685Y-1849758D01*
X12265315Y-1849754D01*
X12265731Y-1847666D01*
X12271768Y-1848866D01*
X12271769Y-1848867D01*
X12330252Y-1860500D01*
X13269748Y-1860500D01*
X13328231Y-1848867D01*
X13328231Y-1848866D01*
X13334269Y-1847666D01*
X13334685Y-1849758D01*
X13365315Y-1849754D01*
X13365731Y-1847666D01*
X13371768Y-1848866D01*
X13371769Y-1848867D01*
X13430252Y-1860500D01*
X14369748Y-1860500D01*
X14428231Y-1848867D01*
X14428231Y-1848866D01*
X14434269Y-1847666D01*
X14434685Y-1849758D01*
X14465315Y-1849754D01*
X14465731Y-1847666D01*
X14471768Y-1848866D01*
X14471769Y-1848867D01*
X14530252Y-1860500D01*
X15469748Y-1860500D01*
X15528231Y-1848867D01*
X15528231Y-1848866D01*
X15528233Y-1848866D01*
X15550000Y-1834321D01*
X15594552Y-1804552D01*
X15638867Y-1738231D01*
X15650500Y-1679748D01*
X15650500Y-1523256D01*
X15668806Y-1479062D01*
X15869562Y-1278306D01*
X15913756Y-1260000D01*
X16286244Y-1260000D01*
X16330438Y-1278306D01*
X16650000Y-1597868D01*
X16969562Y-1278306D01*
X17013756Y-1260000D01*
X17261244Y-1260000D01*
X17305438Y-1278306D01*
X17323744Y-1322500D01*
X17305438Y-1366694D01*
X16862132Y-1810000D01*
X17012131Y-1959999D01*
X17694792Y-1959999D01*
X17719876Y-1957089D01*
X17761755Y-1938598D01*
X17809578Y-1937493D01*
X17844175Y-1970528D01*
X17849500Y-1995773D01*
X17849500Y-2087000D01*
X17831194Y-2131194D01*
X17787000Y-2149500D01*
X8459309Y-2149500D01*
X2259309Y-2149500D01*
X2140691Y-2149500D01*
X2140690Y-2149500D01*
X2140684Y-2149501D01*
X2026114Y-2180200D01*
X2026108Y-2180203D01*
X1923390Y-2239508D01*
X1923381Y-2239515D01*
X1839515Y-2323381D01*
X1839508Y-2323390D01*
X1780203Y-2426108D01*
X1780200Y-2426114D01*
X1749501Y-2540684D01*
X1749500Y-2540692D01*
X1749500Y-6012000D01*
X1731194Y-6056194D01*
X1687000Y-6074500D01*
X1030252Y-6074500D01*
X971769Y-6086132D01*
X971767Y-6086133D01*
X905447Y-6130447D01*
X861133Y-6196767D01*
X861132Y-6196769D01*
X849500Y-6255251D01*
X849500Y-7744748D01*
X861132Y-7803230D01*
X861133Y-7803232D01*
X905447Y-7869552D01*
X971767Y-7913866D01*
X971769Y-7913867D01*
X1030252Y-7925500D01*
X2069748Y-7925500D01*
X2128231Y-7913867D01*
X2194552Y-7869552D01*
X2238867Y-7803231D01*
X2250500Y-7744748D01*
X2250500Y-7500818D01*
X2268806Y-7456624D01*
X2296824Y-7440448D01*
X2327232Y-7432299D01*
X2373886Y-7419799D01*
X2476613Y-7360489D01*
X2499111Y-7337991D01*
X2543306Y-7293797D01*
X2587500Y-7275491D01*
X2631694Y-7293797D01*
X2650000Y-7337991D01*
X2650000Y-7587867D01*
X3237869Y-6999999D01*
X3662132Y-6999999D01*
X3662132Y-7000000D01*
X4249998Y-7587867D01*
X4249999Y-7587867D01*
X4249999Y-6412131D01*
X4249998Y-6412131D01*
X3662132Y-6999999D01*
X3237869Y-6999999D01*
X3307950Y-6929918D01*
X3450000Y-6787868D01*
X4168566Y-6069301D01*
X4122479Y-6023214D01*
X4019872Y-5977909D01*
X4019872Y-5977908D01*
X3994801Y-5975000D01*
X2905207Y-5975000D01*
X2880123Y-5977910D01*
X2777520Y-6023214D01*
X2757194Y-6043541D01*
X2713000Y-6061847D01*
X2668806Y-6043541D01*
X2650500Y-5999347D01*
X2650500Y-3480251D01*
X5649500Y-3480251D01*
X5649500Y-4419748D01*
X5662334Y-4484268D01*
X5660248Y-4484682D01*
X5660248Y-4515317D01*
X5662334Y-4515732D01*
X5661133Y-4521768D01*
X5661133Y-4521769D01*
X5649500Y-4580252D01*
X5649500Y-5519748D01*
X5659471Y-5569878D01*
X5662334Y-5584268D01*
X5660248Y-5584682D01*
X5660248Y-5615317D01*
X5662334Y-5615732D01*
X5649500Y-5680251D01*
X5649500Y-6619748D01*
X5662334Y-6684268D01*
X5660248Y-6684682D01*
X5660248Y-6715317D01*
X5662334Y-6715732D01*
X5649500Y-6780251D01*
X5649500Y-7719748D01*
X5662334Y-7784268D01*
X5660248Y-7784682D01*
X5660248Y-7815317D01*
X5662334Y-7815732D01*
X5649500Y-7880251D01*
X5649500Y-8819748D01*
X5662334Y-8884268D01*
X5660248Y-8884682D01*
X5660248Y-8915317D01*
X5662334Y-8915732D01*
X5649500Y-8980251D01*
X5649500Y-9919748D01*
X5662334Y-9984268D01*
X5660248Y-9984682D01*
X5660248Y-10015317D01*
X5662334Y-10015732D01*
X5649500Y-10080251D01*
X5649500Y-11019748D01*
X5661132Y-11078230D01*
X5661133Y-11078232D01*
X5697897Y-11133252D01*
X5705448Y-11144552D01*
X5716743Y-11152099D01*
X5716746Y-11152102D01*
X5771767Y-11188866D01*
X5771769Y-11188867D01*
X5830252Y-11200500D01*
X5986744Y-11200500D01*
X6030938Y-11218806D01*
X6250000Y-11437868D01*
X6469062Y-11218806D01*
X6513256Y-11200500D01*
X6669748Y-11200500D01*
X6728231Y-11188867D01*
X6728231Y-11188866D01*
X6728233Y-11188866D01*
X6741130Y-11180248D01*
X6794552Y-11144552D01*
X6838867Y-11078231D01*
X6850500Y-11019748D01*
X6850500Y-10907529D01*
X12269660Y-10907529D01*
X12799999Y-11437868D01*
X13330337Y-10907529D01*
X18869660Y-10907529D01*
X19399999Y-11437868D01*
X19799999Y-11037867D01*
X23050000Y-11037867D01*
X23132710Y-10955157D01*
X23537867Y-10549999D01*
X23962132Y-10549999D01*
X23962132Y-10550000D01*
X24367288Y-10955156D01*
X24394844Y-10982713D01*
X24449998Y-11037867D01*
X24449999Y-11037867D01*
X24449999Y-10062131D01*
X24449998Y-10062131D01*
X24367284Y-10144845D01*
X23962132Y-10549999D01*
X23537867Y-10549999D01*
X23132712Y-10144844D01*
X23125887Y-10128367D01*
X23105155Y-10117286D01*
X23050000Y-10062131D01*
X23050000Y-11037867D01*
X19799999Y-11037867D01*
X19930337Y-10907529D01*
X19919872Y-10902909D01*
X19919869Y-10902908D01*
X19894800Y-10900000D01*
X18905208Y-10900000D01*
X18880124Y-10902910D01*
X18869660Y-10907529D01*
X13330337Y-10907529D01*
X13319872Y-10902909D01*
X13319869Y-10902908D01*
X13294800Y-10900000D01*
X12305208Y-10900000D01*
X12280124Y-10902910D01*
X12269660Y-10907529D01*
X6850500Y-10907529D01*
X6850500Y-10080252D01*
X6838867Y-10021769D01*
X6838866Y-10021768D01*
X6837666Y-10015731D01*
X6839758Y-10015314D01*
X6839754Y-9984684D01*
X6837666Y-9984269D01*
X6844383Y-9950498D01*
X6850500Y-9919748D01*
X6850500Y-9530251D01*
X9949500Y-9530251D01*
X9949500Y-10469748D01*
X9961132Y-10528230D01*
X9961133Y-10528232D01*
X10005447Y-10594552D01*
X10071767Y-10638866D01*
X10071769Y-10638867D01*
X10130252Y-10650500D01*
X11069748Y-10650500D01*
X11128231Y-10638867D01*
X11194552Y-10594552D01*
X11238867Y-10528231D01*
X11250500Y-10469748D01*
X11250500Y-9530252D01*
X11250500Y-9530251D01*
X12149500Y-9530251D01*
X12149500Y-10469748D01*
X12161132Y-10528230D01*
X12161133Y-10528232D01*
X12205447Y-10594552D01*
X12271767Y-10638866D01*
X12271769Y-10638867D01*
X12330252Y-10650500D01*
X13269748Y-10650500D01*
X13328231Y-10638867D01*
X13394552Y-10594552D01*
X13438867Y-10528231D01*
X13450500Y-10469748D01*
X13450500Y-9530252D01*
X13450500Y-9530251D01*
X14349500Y-9530251D01*
X14349500Y-10469748D01*
X14361132Y-10528230D01*
X14361133Y-10528232D01*
X14405447Y-10594552D01*
X14471767Y-10638866D01*
X14471769Y-10638867D01*
X14530252Y-10650500D01*
X15469748Y-10650500D01*
X15528231Y-10638867D01*
X15594552Y-10594552D01*
X15638867Y-10528231D01*
X15650500Y-10469748D01*
X15650500Y-9530252D01*
X15650500Y-9530251D01*
X16549500Y-9530251D01*
X16549500Y-10469748D01*
X16561132Y-10528230D01*
X16561133Y-10528232D01*
X16605447Y-10594552D01*
X16671767Y-10638866D01*
X16671769Y-10638867D01*
X16730252Y-10650500D01*
X17669748Y-10650500D01*
X17728231Y-10638867D01*
X17794552Y-10594552D01*
X17838867Y-10528231D01*
X17850500Y-10469748D01*
X17850500Y-9530252D01*
X17850500Y-9530251D01*
X18749500Y-9530251D01*
X18749500Y-10469748D01*
X18761132Y-10528230D01*
X18761133Y-10528232D01*
X18805447Y-10594552D01*
X18871767Y-10638866D01*
X18871769Y-10638867D01*
X18930252Y-10650500D01*
X19869748Y-10650500D01*
X19928231Y-10638867D01*
X19994552Y-10594552D01*
X20038867Y-10528231D01*
X20050500Y-10469748D01*
X20050500Y-9530252D01*
X20038867Y-9471769D01*
X20038866Y-9471767D01*
X19994552Y-9405447D01*
X19928232Y-9361133D01*
X19928230Y-9361132D01*
X19869748Y-9349500D01*
X18930252Y-9349500D01*
X18871769Y-9361132D01*
X18871767Y-9361133D01*
X18805447Y-9405447D01*
X18761133Y-9471767D01*
X18761132Y-9471769D01*
X18749500Y-9530251D01*
X17850500Y-9530251D01*
X17838867Y-9471769D01*
X17838866Y-9471767D01*
X17794552Y-9405447D01*
X17728232Y-9361133D01*
X17728230Y-9361132D01*
X17669748Y-9349500D01*
X16730252Y-9349500D01*
X16671769Y-9361132D01*
X16671767Y-9361133D01*
X16605447Y-9405447D01*
X16561133Y-9471767D01*
X16561132Y-9471769D01*
X16549500Y-9530251D01*
X15650500Y-9530251D01*
X15638867Y-9471769D01*
X15638866Y-9471767D01*
X15594552Y-9405447D01*
X15528232Y-9361133D01*
X15528230Y-9361132D01*
X15469748Y-9349500D01*
X14530252Y-9349500D01*
X14471769Y-9361132D01*
X14471767Y-9361133D01*
X14405447Y-9405447D01*
X14361133Y-9471767D01*
X14361132Y-9471769D01*
X14349500Y-9530251D01*
X13450500Y-9530251D01*
X13438867Y-9471769D01*
X13438866Y-9471767D01*
X13394552Y-9405447D01*
X13328232Y-9361133D01*
X13328230Y-9361132D01*
X13269748Y-9349500D01*
X12330252Y-9349500D01*
X12271769Y-9361132D01*
X12271767Y-9361133D01*
X12205447Y-9405447D01*
X12161133Y-9471767D01*
X12161132Y-9471769D01*
X12149500Y-9530251D01*
X11250500Y-9530251D01*
X11238867Y-9471769D01*
X11238866Y-9471767D01*
X11194552Y-9405447D01*
X11128232Y-9361133D01*
X11128230Y-9361132D01*
X11069748Y-9349500D01*
X10130252Y-9349500D01*
X10071769Y-9361132D01*
X10071767Y-9361133D01*
X10005447Y-9405447D01*
X9961133Y-9471767D01*
X9961132Y-9471769D01*
X9949500Y-9530251D01*
X6850500Y-9530251D01*
X6850500Y-8980252D01*
X6838867Y-8921769D01*
X6838866Y-8921768D01*
X6837666Y-8915731D01*
X6839758Y-8915314D01*
X6839754Y-8884684D01*
X6837666Y-8884269D01*
X6838867Y-8878230D01*
X6850500Y-8819748D01*
X6850500Y-7880252D01*
X6850500Y-7880251D01*
X9949500Y-7880251D01*
X9949500Y-8819748D01*
X9961132Y-8878230D01*
X9961133Y-8878232D01*
X10005447Y-8944552D01*
X10071767Y-8988866D01*
X10071769Y-8988867D01*
X10130252Y-9000500D01*
X11069748Y-9000500D01*
X11128231Y-8988867D01*
X11194552Y-8944552D01*
X11238867Y-8878231D01*
X11250500Y-8819748D01*
X11250500Y-7880252D01*
X11250500Y-7880251D01*
X12149500Y-7880251D01*
X12149500Y-8819748D01*
X12161132Y-8878230D01*
X12161133Y-8878232D01*
X12205447Y-8944552D01*
X12271767Y-8988866D01*
X12271769Y-8988867D01*
X12330252Y-9000500D01*
X13269748Y-9000500D01*
X13328231Y-8988867D01*
X13394552Y-8944552D01*
X13438867Y-8878231D01*
X13450500Y-8819748D01*
X13450500Y-7880252D01*
X13450500Y-7880251D01*
X14349500Y-7880251D01*
X14349500Y-8819748D01*
X14361132Y-8878230D01*
X14361133Y-8878232D01*
X14405447Y-8944552D01*
X14471767Y-8988866D01*
X14471769Y-8988867D01*
X14530252Y-9000500D01*
X15469748Y-9000500D01*
X15528231Y-8988867D01*
X15594552Y-8944552D01*
X15638867Y-8878231D01*
X15650500Y-8819748D01*
X15650500Y-7880252D01*
X15650500Y-7880251D01*
X16549500Y-7880251D01*
X16549500Y-8819748D01*
X16561132Y-8878230D01*
X16561133Y-8878232D01*
X16605447Y-8944552D01*
X16671767Y-8988866D01*
X16671769Y-8988867D01*
X16730252Y-9000500D01*
X17669748Y-9000500D01*
X17728231Y-8988867D01*
X17794552Y-8944552D01*
X17838867Y-8878231D01*
X17850500Y-8819748D01*
X17850500Y-7880252D01*
X17850500Y-7880251D01*
X18749500Y-7880251D01*
X18749500Y-8819748D01*
X18761132Y-8878230D01*
X18761133Y-8878232D01*
X18805447Y-8944552D01*
X18871767Y-8988866D01*
X18871769Y-8988867D01*
X18930252Y-9000500D01*
X19869748Y-9000500D01*
X19928231Y-8988867D01*
X19994552Y-8944552D01*
X20038867Y-8878231D01*
X20050500Y-8819748D01*
X20050500Y-7880252D01*
X20050500Y-7880251D01*
X23149500Y-7880251D01*
X23149500Y-8819748D01*
X23162334Y-8884268D01*
X23160248Y-8884682D01*
X23160248Y-8915317D01*
X23162334Y-8915732D01*
X23149500Y-8980251D01*
X23149500Y-9919748D01*
X23161132Y-9978230D01*
X23161133Y-9978232D01*
X23201316Y-10038369D01*
X23202837Y-10046016D01*
X23211629Y-10048683D01*
X23271767Y-10088866D01*
X23271769Y-10088867D01*
X23330252Y-10100500D01*
X23486744Y-10100500D01*
X23530938Y-10118806D01*
X23750000Y-10337868D01*
X23969062Y-10118806D01*
X24013256Y-10100500D01*
X24169748Y-10100500D01*
X24228231Y-10088867D01*
X24228231Y-10088866D01*
X24228233Y-10088866D01*
X24241126Y-10080251D01*
X24294552Y-10044552D01*
X24334557Y-9984682D01*
X24338866Y-9978233D01*
X24338867Y-9978230D01*
X24350500Y-9919748D01*
X24350500Y-9813000D01*
X24368806Y-9768806D01*
X24413000Y-9750500D01*
X26266798Y-9750500D01*
X26310992Y-9768806D01*
X26392680Y-9850495D01*
X26392684Y-9850498D01*
X26392686Y-9850500D01*
X26506814Y-9916392D01*
X26506817Y-9916393D01*
X26584712Y-9937264D01*
X26634108Y-9950500D01*
X26634109Y-9950500D01*
X26765891Y-9950500D01*
X26765892Y-9950500D01*
X26893186Y-9916392D01*
X27007314Y-9850500D01*
X27100500Y-9757314D01*
X27166392Y-9643186D01*
X27200500Y-9515892D01*
X27200500Y-9384108D01*
X27166392Y-9256814D01*
X27100500Y-9142686D01*
X27100498Y-9142684D01*
X27100495Y-9142680D01*
X27007319Y-9049504D01*
X27007315Y-9049501D01*
X27007314Y-9049500D01*
X26902295Y-8988867D01*
X26893185Y-8983607D01*
X26893182Y-8983606D01*
X26765898Y-8949501D01*
X26765893Y-8949500D01*
X26765892Y-8949500D01*
X26634108Y-8949500D01*
X26634107Y-8949500D01*
X26634101Y-8949501D01*
X26506817Y-8983606D01*
X26506814Y-8983607D01*
X26392684Y-9049501D01*
X26392680Y-9049504D01*
X26310992Y-9131194D01*
X26266798Y-9149500D01*
X24413000Y-9149500D01*
X24368806Y-9131194D01*
X24350500Y-9087000D01*
X24350500Y-8980252D01*
X24338867Y-8921769D01*
X24338866Y-8921768D01*
X24337666Y-8915731D01*
X24339758Y-8915314D01*
X24339754Y-8884684D01*
X24337666Y-8884269D01*
X24338867Y-8878230D01*
X24350500Y-8819748D01*
X24350500Y-7880252D01*
X24338867Y-7821769D01*
X24294552Y-7755448D01*
X24283256Y-7747900D01*
X24283252Y-7747896D01*
X24228232Y-7711133D01*
X24228230Y-7711132D01*
X24169748Y-7699500D01*
X24013256Y-7699500D01*
X23969062Y-7681194D01*
X23750000Y-7462132D01*
X23530938Y-7681194D01*
X23486744Y-7699500D01*
X23330252Y-7699500D01*
X23271769Y-7711132D01*
X23271767Y-7711133D01*
X23216744Y-7747898D01*
X23216737Y-7747904D01*
X23205448Y-7755448D01*
X23197904Y-7766737D01*
X23197898Y-7766744D01*
X23161133Y-7821767D01*
X23161132Y-7821769D01*
X23149500Y-7880251D01*
X20050500Y-7880251D01*
X20038867Y-7821769D01*
X20038866Y-7821767D01*
X19994552Y-7755447D01*
X19928232Y-7711133D01*
X19928230Y-7711132D01*
X19869748Y-7699500D01*
X18930252Y-7699500D01*
X18871769Y-7711132D01*
X18871767Y-7711133D01*
X18805447Y-7755447D01*
X18761133Y-7821767D01*
X18761132Y-7821769D01*
X18749500Y-7880251D01*
X17850500Y-7880251D01*
X17838867Y-7821769D01*
X17838866Y-7821767D01*
X17794552Y-7755447D01*
X17728232Y-7711133D01*
X17728230Y-7711132D01*
X17669748Y-7699500D01*
X16730252Y-7699500D01*
X16671769Y-7711132D01*
X16671767Y-7711133D01*
X16605447Y-7755447D01*
X16561133Y-7821767D01*
X16561132Y-7821769D01*
X16549500Y-7880251D01*
X15650500Y-7880251D01*
X15638867Y-7821769D01*
X15638866Y-7821767D01*
X15594552Y-7755447D01*
X15528232Y-7711133D01*
X15528230Y-7711132D01*
X15469748Y-7699500D01*
X14530252Y-7699500D01*
X14471769Y-7711132D01*
X14471767Y-7711133D01*
X14405447Y-7755447D01*
X14361133Y-7821767D01*
X14361132Y-7821769D01*
X14349500Y-7880251D01*
X13450500Y-7880251D01*
X13438867Y-7821769D01*
X13438866Y-7821767D01*
X13394552Y-7755447D01*
X13328232Y-7711133D01*
X13328230Y-7711132D01*
X13269748Y-7699500D01*
X12330252Y-7699500D01*
X12271769Y-7711132D01*
X12271767Y-7711133D01*
X12205447Y-7755447D01*
X12161133Y-7821767D01*
X12161132Y-7821769D01*
X12149500Y-7880251D01*
X11250500Y-7880251D01*
X11238867Y-7821769D01*
X11238866Y-7821767D01*
X11194552Y-7755447D01*
X11128232Y-7711133D01*
X11128230Y-7711132D01*
X11069748Y-7699500D01*
X10130252Y-7699500D01*
X10071769Y-7711132D01*
X10071767Y-7711133D01*
X10005447Y-7755447D01*
X9961133Y-7821767D01*
X9961132Y-7821769D01*
X9949500Y-7880251D01*
X6850500Y-7880251D01*
X6838867Y-7821769D01*
X6837803Y-7820177D01*
X6836223Y-7812307D01*
X6839755Y-7794371D01*
X6839754Y-7784684D01*
X6837666Y-7784269D01*
X6841152Y-7766744D01*
X6850500Y-7719748D01*
X6850500Y-6780252D01*
X6838867Y-6721769D01*
X6838866Y-6721768D01*
X6837666Y-6715731D01*
X6839758Y-6715314D01*
X6839754Y-6684684D01*
X6837666Y-6684269D01*
X6846334Y-6640691D01*
X6850500Y-6619748D01*
X6850500Y-5680252D01*
X6838867Y-5621769D01*
X6838866Y-5621768D01*
X6837666Y-5615731D01*
X6839758Y-5615314D01*
X6839754Y-5584684D01*
X6837666Y-5584269D01*
X6840528Y-5569880D01*
X6850500Y-5519748D01*
X6850500Y-4580252D01*
X6838867Y-4521769D01*
X6838866Y-4521768D01*
X6837666Y-4515731D01*
X6839758Y-4515314D01*
X6839754Y-4484684D01*
X6837666Y-4484269D01*
X6841152Y-4466744D01*
X6850500Y-4419748D01*
X6850500Y-3480252D01*
X6838867Y-3421769D01*
X6838866Y-3421767D01*
X6794552Y-3355447D01*
X6728232Y-3311133D01*
X6728230Y-3311132D01*
X6669748Y-3299500D01*
X5830252Y-3299500D01*
X5771769Y-3311132D01*
X5771767Y-3311133D01*
X5705447Y-3355447D01*
X5661133Y-3421767D01*
X5661132Y-3421769D01*
X5649500Y-3480251D01*
X2650500Y-3480251D01*
X2650500Y-3113000D01*
X2668806Y-3068806D01*
X2713000Y-3050500D01*
X7887000Y-3050500D01*
X7931194Y-3068806D01*
X7949500Y-3113000D01*
X7949500Y-6759307D01*
X7949501Y-6759315D01*
X7980200Y-6873885D01*
X7980203Y-6873891D01*
X8039508Y-6976609D01*
X8039515Y-6976618D01*
X8123381Y-7060484D01*
X8123390Y-7060491D01*
X8226108Y-7119796D01*
X8226114Y-7119799D01*
X8340691Y-7150500D01*
X9894379Y-7150500D01*
X9938573Y-7168806D01*
X9955678Y-7200807D01*
X9961132Y-7228230D01*
X9961133Y-7228232D01*
X10005447Y-7294552D01*
X10071767Y-7338866D01*
X10071769Y-7338867D01*
X10130252Y-7350500D01*
X11069748Y-7350500D01*
X11128231Y-7338867D01*
X11194552Y-7294552D01*
X11238867Y-7228231D01*
X11250500Y-7169748D01*
X11250500Y-6230252D01*
X11250500Y-6230251D01*
X12149500Y-6230251D01*
X12149500Y-7169748D01*
X12161132Y-7228230D01*
X12161133Y-7228232D01*
X12205447Y-7294552D01*
X12271767Y-7338866D01*
X12271769Y-7338867D01*
X12330252Y-7350500D01*
X13269748Y-7350500D01*
X13328231Y-7338867D01*
X13394552Y-7294552D01*
X13438867Y-7228231D01*
X13450500Y-7169748D01*
X13450500Y-6230252D01*
X13450500Y-6230251D01*
X14349500Y-6230251D01*
X14349500Y-7169748D01*
X14361132Y-7228230D01*
X14361133Y-7228232D01*
X14405447Y-7294552D01*
X14471767Y-7338866D01*
X14471769Y-7338867D01*
X14530252Y-7350500D01*
X15469748Y-7350500D01*
X15528231Y-7338867D01*
X15594552Y-7294552D01*
X15638867Y-7228231D01*
X15650500Y-7169748D01*
X15650500Y-6230252D01*
X15650500Y-6230251D01*
X16549500Y-6230251D01*
X16549500Y-7169748D01*
X16561132Y-7228230D01*
X16561133Y-7228232D01*
X16605447Y-7294552D01*
X16671767Y-7338866D01*
X16671769Y-7338867D01*
X16730252Y-7350500D01*
X17669748Y-7350500D01*
X17728231Y-7338867D01*
X17794552Y-7294552D01*
X17838867Y-7228231D01*
X17850500Y-7169748D01*
X17850500Y-6230252D01*
X17850500Y-6230251D01*
X18749500Y-6230251D01*
X18749500Y-7169748D01*
X18761132Y-7228230D01*
X18761133Y-7228232D01*
X18805447Y-7294552D01*
X18871767Y-7338866D01*
X18871769Y-7338867D01*
X18930252Y-7350500D01*
X19869748Y-7350500D01*
X19928231Y-7338867D01*
X19994552Y-7294552D01*
X20038867Y-7228231D01*
X20050500Y-7169748D01*
X20050500Y-7062129D01*
X23050000Y-7062129D01*
X23050000Y-7737867D01*
X23132710Y-7655157D01*
X23537866Y-7250000D01*
X23962132Y-7250000D01*
X24367288Y-7655156D01*
X24394844Y-7682713D01*
X24449998Y-7737867D01*
X24449999Y-7737867D01*
X24449999Y-7062131D01*
X24300000Y-6912132D01*
X23962132Y-7250000D01*
X23537866Y-7250000D01*
X23537867Y-7249999D01*
X23200000Y-6912132D01*
X23050000Y-7062129D01*
X20050500Y-7062129D01*
X20050500Y-6700000D01*
X23412132Y-6700000D01*
X23750000Y-7037868D01*
X24087868Y-6700000D01*
X23750000Y-6362132D01*
X23412132Y-6700000D01*
X20050500Y-6700000D01*
X20050500Y-6337868D01*
X23050000Y-6337868D01*
X23200000Y-6487868D01*
X23537868Y-6150000D01*
X23537867Y-6149999D01*
X23962132Y-6149999D01*
X23962132Y-6150000D01*
X24300000Y-6487868D01*
X24300001Y-6487868D01*
X24449999Y-6337868D01*
X24449999Y-5662131D01*
X24449998Y-5662131D01*
X24367284Y-5744845D01*
X23962132Y-6149999D01*
X23537867Y-6149999D01*
X23132711Y-5744843D01*
X23105155Y-5717286D01*
X23050000Y-5662131D01*
X23050000Y-6337868D01*
X20050500Y-6337868D01*
X20050500Y-6230252D01*
X20038867Y-6171769D01*
X20038866Y-6171767D01*
X19994552Y-6105447D01*
X19928232Y-6061133D01*
X19928230Y-6061132D01*
X19869748Y-6049500D01*
X18930252Y-6049500D01*
X18871769Y-6061132D01*
X18871767Y-6061133D01*
X18805447Y-6105447D01*
X18761133Y-6171767D01*
X18761132Y-6171769D01*
X18749500Y-6230251D01*
X17850500Y-6230251D01*
X17838867Y-6171769D01*
X17838866Y-6171767D01*
X17794552Y-6105447D01*
X17728232Y-6061133D01*
X17728230Y-6061132D01*
X17669748Y-6049500D01*
X16730252Y-6049500D01*
X16671769Y-6061132D01*
X16671767Y-6061133D01*
X16605447Y-6105447D01*
X16561133Y-6171767D01*
X16561132Y-6171769D01*
X16549500Y-6230251D01*
X15650500Y-6230251D01*
X15638867Y-6171769D01*
X15638866Y-6171767D01*
X15594552Y-6105447D01*
X15528232Y-6061133D01*
X15528230Y-6061132D01*
X15469748Y-6049500D01*
X14530252Y-6049500D01*
X14471769Y-6061132D01*
X14471767Y-6061133D01*
X14405447Y-6105447D01*
X14361133Y-6171767D01*
X14361132Y-6171769D01*
X14349500Y-6230251D01*
X13450500Y-6230251D01*
X13438867Y-6171769D01*
X13438866Y-6171767D01*
X13394552Y-6105447D01*
X13328232Y-6061133D01*
X13328230Y-6061132D01*
X13269748Y-6049500D01*
X12330252Y-6049500D01*
X12271769Y-6061132D01*
X12271767Y-6061133D01*
X12205447Y-6105447D01*
X12161133Y-6171767D01*
X12161132Y-6171769D01*
X12149500Y-6230251D01*
X11250500Y-6230251D01*
X11238867Y-6171769D01*
X11238866Y-6171767D01*
X11194552Y-6105447D01*
X11128232Y-6061133D01*
X11128230Y-6061132D01*
X11069748Y-6049500D01*
X10130252Y-6049500D01*
X10071769Y-6061132D01*
X10071767Y-6061133D01*
X10005447Y-6105447D01*
X9961133Y-6171767D01*
X9961132Y-6171769D01*
X9955678Y-6199193D01*
X9929102Y-6238967D01*
X9894379Y-6249500D01*
X8913000Y-6249500D01*
X8868806Y-6231194D01*
X8850500Y-6187000D01*
X8850500Y-5792469D01*
X14469660Y-5792469D01*
X14469661Y-5792470D01*
X14480123Y-5797089D01*
X14480127Y-5797091D01*
X14505198Y-5799999D01*
X15494792Y-5799999D01*
X15519878Y-5797089D01*
X15530337Y-5792470D01*
X15530338Y-5792470D01*
X15000000Y-5262132D01*
X14469660Y-5792469D01*
X8850500Y-5792469D01*
X8850500Y-4580251D01*
X9949500Y-4580251D01*
X9949500Y-5519748D01*
X9961132Y-5578230D01*
X9961133Y-5578232D01*
X10005447Y-5644552D01*
X10071767Y-5688866D01*
X10071769Y-5688867D01*
X10130252Y-5700500D01*
X11069748Y-5700500D01*
X11128231Y-5688867D01*
X11194552Y-5644552D01*
X11238867Y-5578231D01*
X11250500Y-5519748D01*
X11250500Y-4580252D01*
X11250500Y-4580251D01*
X12149500Y-4580251D01*
X12149500Y-5519748D01*
X12161132Y-5578230D01*
X12161133Y-5578232D01*
X12205447Y-5644552D01*
X12271767Y-5688866D01*
X12271769Y-5688867D01*
X12330252Y-5700500D01*
X13269748Y-5700500D01*
X13328231Y-5688867D01*
X13394552Y-5644552D01*
X13438867Y-5578231D01*
X13450500Y-5519748D01*
X13450500Y-4580252D01*
X13449500Y-4575224D01*
X13447585Y-4565594D01*
X13445517Y-4555199D01*
X14250000Y-4555199D01*
X14250000Y-5544791D01*
X14252911Y-5569878D01*
X14252911Y-5569880D01*
X14257528Y-5580337D01*
X14257529Y-5580337D01*
X14787868Y-5049999D01*
X15212132Y-5049999D01*
X15212132Y-5050000D01*
X15742470Y-5580338D01*
X15742470Y-5580337D01*
X15747089Y-5569876D01*
X15749999Y-5544792D01*
X15749999Y-4555207D01*
X15747089Y-4530126D01*
X15747087Y-4530118D01*
X15742470Y-4519661D01*
X15742469Y-4519660D01*
X15212132Y-5049999D01*
X14787868Y-5049999D01*
X14257529Y-4519660D01*
X14257528Y-4519660D01*
X14252909Y-4530125D01*
X14250000Y-4555199D01*
X13445517Y-4555199D01*
X13440529Y-4530125D01*
X13438867Y-4521769D01*
X13438866Y-4521767D01*
X13394552Y-4455447D01*
X13328232Y-4411133D01*
X13328230Y-4411132D01*
X13269748Y-4399500D01*
X12330252Y-4399500D01*
X12271769Y-4411132D01*
X12271767Y-4411133D01*
X12205447Y-4455447D01*
X12161133Y-4521767D01*
X12161132Y-4521769D01*
X12149500Y-4580251D01*
X11250500Y-4580251D01*
X11238867Y-4521769D01*
X11238866Y-4521767D01*
X11194552Y-4455447D01*
X11128232Y-4411133D01*
X11128230Y-4411132D01*
X11069748Y-4399500D01*
X10130252Y-4399500D01*
X10071769Y-4411132D01*
X10071767Y-4411133D01*
X10005447Y-4455447D01*
X9961133Y-4521767D01*
X9961132Y-4521769D01*
X9949500Y-4580251D01*
X8850500Y-4580251D01*
X8850500Y-4307529D01*
X14469660Y-4307529D01*
X14999999Y-4837868D01*
X15530337Y-4307529D01*
X15519872Y-4302909D01*
X15519869Y-4302908D01*
X15494800Y-4300000D01*
X14505208Y-4300000D01*
X14480124Y-4302910D01*
X14469660Y-4307529D01*
X8850500Y-4307529D01*
X8850500Y-3113000D01*
X8868806Y-3068806D01*
X8913000Y-3050500D01*
X17787000Y-3050500D01*
X17831194Y-3068806D01*
X17849500Y-3113000D01*
X17849500Y-4375232D01*
X17831194Y-4419426D01*
X17787000Y-4437732D01*
X17752278Y-4427199D01*
X17728235Y-4411134D01*
X17728230Y-4411132D01*
X17669748Y-4399500D01*
X16730252Y-4399500D01*
X16671769Y-4411132D01*
X16671767Y-4411133D01*
X16605447Y-4455447D01*
X16561133Y-4521767D01*
X16561132Y-4521769D01*
X16549500Y-4580251D01*
X16549500Y-5519748D01*
X16561132Y-5578230D01*
X16561133Y-5578232D01*
X16605447Y-5644552D01*
X16671767Y-5688866D01*
X16671769Y-5688867D01*
X16730252Y-5700500D01*
X17669748Y-5700500D01*
X17728231Y-5688867D01*
X17794552Y-5644552D01*
X17838867Y-5578231D01*
X17844322Y-5550807D01*
X17870898Y-5511033D01*
X17905621Y-5500500D01*
X18359308Y-5500500D01*
X18359309Y-5500500D01*
X18473886Y-5469799D01*
X18576613Y-5410489D01*
X18606979Y-5380123D01*
X18642806Y-5344297D01*
X18687000Y-5325991D01*
X18731194Y-5344297D01*
X18749500Y-5388491D01*
X18749500Y-5519748D01*
X18761132Y-5578230D01*
X18761133Y-5578232D01*
X18805447Y-5644552D01*
X18871767Y-5688866D01*
X18871769Y-5688867D01*
X18930252Y-5700500D01*
X19869748Y-5700500D01*
X19928231Y-5688867D01*
X19994552Y-5644552D01*
X20038867Y-5578231D01*
X20050500Y-5519748D01*
X20050500Y-5459202D01*
X20068806Y-5415008D01*
X20113000Y-5396702D01*
X20157194Y-5415008D01*
X20192686Y-5450500D01*
X20297532Y-5511033D01*
X20306814Y-5516392D01*
X20306817Y-5516393D01*
X20384712Y-5537264D01*
X20434108Y-5550500D01*
X20434109Y-5550500D01*
X20565891Y-5550500D01*
X20565892Y-5550500D01*
X20693186Y-5516392D01*
X20807314Y-5450500D01*
X20900500Y-5357314D01*
X20966392Y-5243186D01*
X21000500Y-5115892D01*
X21000500Y-4984108D01*
X20966392Y-4856814D01*
X20900500Y-4742686D01*
X20900498Y-4742684D01*
X20900495Y-4742680D01*
X20807319Y-4649504D01*
X20807315Y-4649501D01*
X20807314Y-4649500D01*
X20750250Y-4616554D01*
X20693185Y-4583607D01*
X20693182Y-4583606D01*
X20680661Y-4580251D01*
X23149500Y-4580251D01*
X23149500Y-5519748D01*
X23161132Y-5578230D01*
X23161133Y-5578232D01*
X23197897Y-5633252D01*
X23205448Y-5644552D01*
X23216743Y-5652099D01*
X23216746Y-5652102D01*
X23271767Y-5688866D01*
X23271769Y-5688867D01*
X23330252Y-5700500D01*
X23486744Y-5700500D01*
X23530938Y-5718806D01*
X23750000Y-5937868D01*
X23969062Y-5718806D01*
X24013256Y-5700500D01*
X24169748Y-5700500D01*
X24228231Y-5688867D01*
X24228231Y-5688866D01*
X24228233Y-5688866D01*
X24241126Y-5680251D01*
X24294552Y-5644552D01*
X24334557Y-5584682D01*
X24338866Y-5578233D01*
X24338867Y-5578230D01*
X24340528Y-5569880D01*
X24350500Y-5519748D01*
X24350500Y-5413000D01*
X24368806Y-5368806D01*
X24413000Y-5350500D01*
X26514562Y-5350500D01*
X26521319Y-5348689D01*
X26568745Y-5354928D01*
X26597869Y-5392876D01*
X26600000Y-5409058D01*
X26600000Y-6544792D01*
X26602910Y-6569876D01*
X26648214Y-6672479D01*
X26727520Y-6751785D01*
X26830127Y-6797090D01*
X26830127Y-6797091D01*
X26855198Y-6799999D01*
X26962867Y-6799999D01*
X26962868Y-6799998D01*
X27387131Y-6799998D01*
X27387132Y-6799999D01*
X28612867Y-6799999D01*
X28612867Y-6799998D01*
X28000000Y-6187132D01*
X27387131Y-6799998D01*
X26962868Y-6799998D01*
X27021727Y-6741140D01*
X27787868Y-5975000D01*
X27787869Y-5974999D01*
X28212132Y-5974999D01*
X28212132Y-5975000D01*
X29037131Y-6799999D01*
X29144792Y-6799999D01*
X29169876Y-6797089D01*
X29272479Y-6751785D01*
X29351785Y-6672479D01*
X29397090Y-6569872D01*
X29397091Y-6569872D01*
X29399999Y-6544802D01*
X29399999Y-5405207D01*
X29397089Y-5380123D01*
X29351785Y-5277520D01*
X29272479Y-5198214D01*
X29169872Y-5152909D01*
X29169872Y-5152908D01*
X29144801Y-5150000D01*
X29037131Y-5150000D01*
X28212132Y-5974999D01*
X27787869Y-5974999D01*
X27857950Y-5904918D01*
X28612867Y-5150000D01*
X27250748Y-5150000D01*
X27206554Y-5131694D01*
X27188248Y-5087500D01*
X27189449Y-5075307D01*
X27194482Y-5050000D01*
X27200500Y-5019748D01*
X27200500Y-3980252D01*
X27188867Y-3921769D01*
X27188866Y-3921767D01*
X27144552Y-3855447D01*
X27078232Y-3811133D01*
X27078230Y-3811132D01*
X27019748Y-3799500D01*
X25930252Y-3799500D01*
X25871769Y-3811132D01*
X25871767Y-3811133D01*
X25805447Y-3855447D01*
X25761133Y-3921767D01*
X25761132Y-3921769D01*
X25749500Y-3980251D01*
X25749500Y-4687000D01*
X25731194Y-4731194D01*
X25687000Y-4749500D01*
X24413000Y-4749500D01*
X24368806Y-4731194D01*
X24350500Y-4687000D01*
X24350500Y-4580252D01*
X24338867Y-4521769D01*
X24294552Y-4455448D01*
X24283256Y-4447900D01*
X24283252Y-4447896D01*
X24228232Y-4411133D01*
X24228230Y-4411132D01*
X24169748Y-4399500D01*
X24013256Y-4399500D01*
X23969062Y-4381194D01*
X23750000Y-4162132D01*
X23530938Y-4381194D01*
X23486744Y-4399500D01*
X23330252Y-4399500D01*
X23271769Y-4411132D01*
X23271767Y-4411133D01*
X23216744Y-4447898D01*
X23216737Y-4447904D01*
X23205448Y-4455448D01*
X23197904Y-4466737D01*
X23197898Y-4466744D01*
X23161133Y-4521767D01*
X23161132Y-4521769D01*
X23149500Y-4580251D01*
X20680661Y-4580251D01*
X20565898Y-4549501D01*
X20565893Y-4549500D01*
X20565892Y-4549500D01*
X20434108Y-4549500D01*
X20434107Y-4549500D01*
X20434101Y-4549501D01*
X20306817Y-4583606D01*
X20306814Y-4583607D01*
X20192684Y-4649501D01*
X20192680Y-4649504D01*
X20157194Y-4684991D01*
X20113000Y-4703297D01*
X20068806Y-4684991D01*
X20050500Y-4640797D01*
X20050500Y-4580252D01*
X20038867Y-4521769D01*
X20038866Y-4521767D01*
X19994552Y-4455447D01*
X19968242Y-4437867D01*
X23050000Y-4437867D01*
X23537868Y-3949999D01*
X23962132Y-3949999D01*
X23962132Y-3950000D01*
X24367288Y-4355156D01*
X24394844Y-4382713D01*
X24449998Y-4437867D01*
X24449999Y-4437867D01*
X24449999Y-3462131D01*
X24449998Y-3462131D01*
X23962132Y-3949999D01*
X23537868Y-3949999D01*
X23050000Y-3462131D01*
X23050000Y-4437867D01*
X19968242Y-4437867D01*
X19928232Y-4411133D01*
X19928230Y-4411132D01*
X19869748Y-4399500D01*
X18930252Y-4399500D01*
X18871769Y-4411132D01*
X18871764Y-4411134D01*
X18847722Y-4427199D01*
X18800806Y-4436531D01*
X18761033Y-4409954D01*
X18750500Y-4375232D01*
X18750500Y-3222844D01*
X23234975Y-3222844D01*
X23749999Y-3737868D01*
X24265023Y-3222844D01*
X24219873Y-3202909D01*
X24219872Y-3202908D01*
X24194801Y-3200000D01*
X23305207Y-3200000D01*
X23280126Y-3202910D01*
X23280121Y-3202911D01*
X23234976Y-3222843D01*
X23234975Y-3222844D01*
X18750500Y-3222844D01*
X18750500Y-1915621D01*
X18757255Y-1899311D01*
X18760358Y-1881930D01*
X18766070Y-1878031D01*
X18768806Y-1871427D01*
X18799599Y-1854574D01*
X18800168Y-1854448D01*
X18828231Y-1848867D01*
X18829519Y-1848006D01*
X18836599Y-1846452D01*
X18855110Y-1849755D01*
X18865315Y-1849754D01*
X18865731Y-1847666D01*
X18871768Y-1848866D01*
X18871769Y-1848867D01*
X18930252Y-1860500D01*
X19869748Y-1860500D01*
X19928231Y-1848867D01*
X19994552Y-1804552D01*
X20038867Y-1738231D01*
X20050500Y-1679748D01*
X20050500Y-863000D01*
X20068806Y-818806D01*
X20113000Y-800500D01*
X26337000Y-800500D01*
X26381194Y-818806D01*
X26399500Y-863000D01*
X26399500Y-1966797D01*
X26381194Y-2010991D01*
X26299504Y-2092680D01*
X26299501Y-2092684D01*
X26233607Y-2206814D01*
X26233606Y-2206817D01*
X26199501Y-2334101D01*
X26199500Y-2334109D01*
X26199500Y-2465890D01*
X26199501Y-2465898D01*
X26233606Y-2593182D01*
X26233607Y-2593185D01*
X26299501Y-2707315D01*
X26299504Y-2707319D01*
X26392680Y-2800495D01*
X26392684Y-2800498D01*
X26392686Y-2800500D01*
X26506814Y-2866392D01*
X26506817Y-2866393D01*
X26584712Y-2887264D01*
X26634108Y-2900500D01*
X26634109Y-2900500D01*
X26765891Y-2900500D01*
X26765892Y-2900500D01*
X26893186Y-2866392D01*
X27007314Y-2800500D01*
X27100500Y-2707314D01*
X27166392Y-2593186D01*
X27200500Y-2465892D01*
X27200500Y-2334108D01*
X27166392Y-2206814D01*
X27100500Y-2092686D01*
X27100498Y-2092684D01*
X27100495Y-2092680D01*
X27018806Y-2010991D01*
X27000500Y-1966797D01*
X27000500Y-460438D01*
X27000499Y-460432D01*
X26989616Y-419822D01*
X26980021Y-384011D01*
X26940460Y-315489D01*
X26940458Y-315487D01*
X26940455Y-315483D01*
X26932166Y-307194D01*
X26913860Y-263000D01*
X26932166Y-218806D01*
X26976360Y-200500D01*
X29737000Y-200500D01*
X29781194Y-218806D01*
X29799500Y-263000D01*
X29799500Y-34737000D01*
X29781194Y-34781194D01*
X29737000Y-34799500D01*
X16960793Y-34799500D01*
X16916599Y-34781194D01*
X16898293Y-34737000D01*
X16899494Y-34724808D01*
X16900499Y-34719751D01*
X16900500Y-34719748D01*
X16900500Y-33480252D01*
X16888867Y-33421769D01*
X16874655Y-33400500D01*
X16872800Y-33397723D01*
X16863468Y-33350807D01*
X16890044Y-33311033D01*
X16924767Y-33300500D01*
X24866798Y-33300500D01*
X24910992Y-33318806D01*
X24992680Y-33400495D01*
X24992684Y-33400498D01*
X24992686Y-33400500D01*
X25050031Y-33433608D01*
X25106814Y-33466392D01*
X25106817Y-33466393D01*
X25184712Y-33487264D01*
X25234108Y-33500500D01*
X25234109Y-33500500D01*
X25365891Y-33500500D01*
X25365892Y-33500500D01*
X25493186Y-33466392D01*
X25607314Y-33400500D01*
X25700500Y-33307314D01*
X25766392Y-33193186D01*
X25800500Y-33065892D01*
X25800500Y-32952499D01*
X25818806Y-32908305D01*
X25863000Y-32889999D01*
X26734792Y-32889999D01*
X26759876Y-32887089D01*
X26862477Y-32841786D01*
X26896066Y-32808197D01*
X26140000Y-32052132D01*
X25946174Y-31858306D01*
X25927867Y-31839999D01*
X26352132Y-31839999D01*
X26352132Y-31840000D01*
X26989998Y-32477867D01*
X26989999Y-32477867D01*
X26989999Y-31202131D01*
X26989998Y-31202131D01*
X26352132Y-31839999D01*
X25927867Y-31839999D01*
X25290000Y-31202131D01*
X25290000Y-32437330D01*
X25271694Y-32481524D01*
X25237986Y-32498147D01*
X25238065Y-32498439D01*
X25236601Y-32498831D01*
X25235661Y-32499295D01*
X25234106Y-32499499D01*
X25106817Y-32533606D01*
X25106814Y-32533607D01*
X24992684Y-32599501D01*
X24992680Y-32599504D01*
X24910992Y-32681194D01*
X24866798Y-32699500D01*
X21868804Y-32699500D01*
X21824610Y-32681194D01*
X21806304Y-32637000D01*
X21807505Y-32624808D01*
X21810499Y-32609751D01*
X21810500Y-32609748D01*
X21810500Y-31663000D01*
X21828806Y-31618806D01*
X21873000Y-31600500D01*
X23566798Y-31600500D01*
X23610992Y-31618806D01*
X23692680Y-31700495D01*
X23692684Y-31700498D01*
X23692686Y-31700500D01*
X23797089Y-31760777D01*
X23806814Y-31766392D01*
X23806817Y-31766393D01*
X23884712Y-31787264D01*
X23934108Y-31800500D01*
X23934109Y-31800500D01*
X24065891Y-31800500D01*
X24065892Y-31800500D01*
X24193186Y-31766392D01*
X24307314Y-31700500D01*
X24400500Y-31607314D01*
X24466392Y-31493186D01*
X24500500Y-31365892D01*
X24500500Y-31234108D01*
X24466392Y-31106814D01*
X24400500Y-30992686D01*
X24400498Y-30992684D01*
X24400495Y-30992680D01*
X24307319Y-30899504D01*
X24307314Y-30899500D01*
X24259337Y-30871800D01*
X25383933Y-30871800D01*
X25383933Y-30871801D01*
X26139999Y-31627867D01*
X26896066Y-30871801D01*
X26862479Y-30838214D01*
X26759872Y-30792909D01*
X26759872Y-30792908D01*
X26734801Y-30790000D01*
X25545207Y-30790000D01*
X25520123Y-30792910D01*
X25417522Y-30838212D01*
X25383933Y-30871800D01*
X24259337Y-30871800D01*
X24193185Y-30833607D01*
X24193182Y-30833606D01*
X24065898Y-30799501D01*
X24065893Y-30799500D01*
X24065892Y-30799500D01*
X23934108Y-30799500D01*
X23934107Y-30799500D01*
X23934101Y-30799501D01*
X23806817Y-30833606D01*
X23806814Y-30833607D01*
X23692684Y-30899501D01*
X23692680Y-30899504D01*
X23610992Y-30981194D01*
X23566798Y-30999500D01*
X21824076Y-30999500D01*
X21779882Y-30981194D01*
X21772109Y-30971723D01*
X21754552Y-30945447D01*
X21688232Y-30901133D01*
X21688230Y-30901132D01*
X21629748Y-30889500D01*
X20490252Y-30889500D01*
X20431769Y-30901132D01*
X20431767Y-30901133D01*
X20365447Y-30945447D01*
X20321133Y-31011767D01*
X20321132Y-31011769D01*
X20309500Y-31070251D01*
X20309500Y-32609751D01*
X20312495Y-32624808D01*
X20303162Y-32671724D01*
X20263388Y-32698299D01*
X20251196Y-32699500D01*
X8783202Y-32699500D01*
X8739008Y-32681194D01*
X8657319Y-32599504D01*
X8657315Y-32599501D01*
X8657314Y-32599500D01*
X8600250Y-32566554D01*
X8543185Y-32533607D01*
X8543182Y-32533606D01*
X8415898Y-32499501D01*
X8415893Y-32499500D01*
X8415892Y-32499500D01*
X8284108Y-32499500D01*
X8284107Y-32499500D01*
X8284101Y-32499501D01*
X8156817Y-32533606D01*
X8156814Y-32533607D01*
X8042684Y-32599501D01*
X8042680Y-32599504D01*
X7949504Y-32692680D01*
X7949501Y-32692684D01*
X7883607Y-32806814D01*
X7883606Y-32806817D01*
X7849501Y-32934101D01*
X7849500Y-32934109D01*
X7849500Y-33065890D01*
X7849501Y-33065898D01*
X7883606Y-33193182D01*
X7883607Y-33193185D01*
X7883608Y-33193186D01*
X7945277Y-33300000D01*
X7949501Y-33307315D01*
X7949504Y-33307319D01*
X8042680Y-33400495D01*
X8042684Y-33400498D01*
X8042686Y-33400500D01*
X8100031Y-33433608D01*
X8156814Y-33466392D01*
X8156817Y-33466393D01*
X8234712Y-33487264D01*
X8284108Y-33500500D01*
X8284109Y-33500500D01*
X8415891Y-33500500D01*
X8415892Y-33500500D01*
X8543186Y-33466392D01*
X8657314Y-33400500D01*
X8739008Y-33318806D01*
X8783202Y-33300500D01*
X10928846Y-33300500D01*
X10973040Y-33318806D01*
X10991346Y-33363000D01*
X10973040Y-33407194D01*
X10945022Y-33423370D01*
X10906817Y-33433606D01*
X10906814Y-33433607D01*
X10792684Y-33499501D01*
X10792680Y-33499504D01*
X10710992Y-33581194D01*
X10666798Y-33599500D01*
X10649653Y-33599500D01*
X10605459Y-33581194D01*
X10572479Y-33548214D01*
X10469872Y-33502909D01*
X10469872Y-33502908D01*
X10444801Y-33500000D01*
X10055207Y-33500000D01*
X10030123Y-33502910D01*
X9927520Y-33548213D01*
X9868933Y-33606800D01*
X9868933Y-33606801D01*
X10231694Y-33969562D01*
X10250000Y-34013756D01*
X10250000Y-34386243D01*
X10231694Y-34430437D01*
X9880937Y-34781194D01*
X9836743Y-34799500D01*
X6813139Y-34799500D01*
X6768945Y-34781194D01*
X6750639Y-34737000D01*
X6763339Y-34699235D01*
X6783919Y-34672096D01*
X6783924Y-34672087D01*
X6839385Y-34531446D01*
X6849998Y-34443070D01*
X6850000Y-34443053D01*
X6850000Y-34437866D01*
X9800000Y-34437866D01*
X10037868Y-34199999D01*
X9800000Y-33962131D01*
X9800000Y-34437866D01*
X6850000Y-34437866D01*
X6850000Y-34387132D01*
X5975000Y-33512132D01*
X5100000Y-34387132D01*
X5100000Y-34443053D01*
X5100001Y-34443070D01*
X5110614Y-34531446D01*
X5166075Y-34672087D01*
X5166080Y-34672096D01*
X5186661Y-34699235D01*
X5198779Y-34745510D01*
X5174626Y-34786800D01*
X5136861Y-34799500D01*
X3738868Y-34799500D01*
X3694674Y-34781194D01*
X3676368Y-34737000D01*
X3688581Y-34699886D01*
X3689062Y-34699235D01*
X3752793Y-34612882D01*
X3797646Y-34484699D01*
X3800500Y-34454266D01*
X3800500Y-33962868D01*
X5100000Y-33962868D01*
X5762868Y-33300000D01*
X5762868Y-33299999D01*
X6187132Y-33299999D01*
X6187132Y-33300000D01*
X6849999Y-33962868D01*
X6850000Y-33962868D01*
X6850000Y-32637131D01*
X6849999Y-32637131D01*
X6187132Y-33299999D01*
X5762868Y-33299999D01*
X5100000Y-32637131D01*
X5100000Y-33962868D01*
X3800500Y-33962868D01*
X3800500Y-33862499D01*
X3818806Y-33818305D01*
X3863000Y-33799999D01*
X4469792Y-33799999D01*
X4494876Y-33797089D01*
X4597479Y-33751785D01*
X4676785Y-33672479D01*
X4722090Y-33569872D01*
X4722091Y-33569872D01*
X4724999Y-33544802D01*
X4724999Y-33462130D01*
X4143306Y-32880437D01*
X4125000Y-32836243D01*
X4125000Y-32649999D01*
X4337132Y-32649999D01*
X4337132Y-32650000D01*
X4724998Y-33037867D01*
X4724999Y-33037867D01*
X4724999Y-32262131D01*
X4724998Y-32262131D01*
X4337132Y-32649999D01*
X4125000Y-32649999D01*
X4125000Y-32463755D01*
X4143306Y-32419561D01*
X4405921Y-32156946D01*
X5100000Y-32156946D01*
X5100000Y-32212868D01*
X5975000Y-33087868D01*
X6850000Y-32212868D01*
X6850000Y-32156946D01*
X6849998Y-32156929D01*
X6839385Y-32068553D01*
X6783924Y-31927912D01*
X6783919Y-31927903D01*
X6692564Y-31807435D01*
X6572096Y-31716080D01*
X6572087Y-31716075D01*
X6431446Y-31660614D01*
X6343070Y-31650001D01*
X6343053Y-31650000D01*
X5606947Y-31650000D01*
X5606929Y-31650001D01*
X5518553Y-31660614D01*
X5377912Y-31716075D01*
X5377903Y-31716080D01*
X5257435Y-31807435D01*
X5166080Y-31927903D01*
X5166075Y-31927912D01*
X5110614Y-32068553D01*
X5100001Y-32156929D01*
X5100000Y-32156946D01*
X4405921Y-32156946D01*
X4724999Y-31837868D01*
X4724999Y-31755207D01*
X4722089Y-31730123D01*
X4676785Y-31627520D01*
X4597479Y-31548214D01*
X4494872Y-31502909D01*
X4494872Y-31502908D01*
X4469801Y-31500000D01*
X3780207Y-31500000D01*
X3755123Y-31502910D01*
X3652520Y-31548214D01*
X3573214Y-31627520D01*
X3530255Y-31724813D01*
X3517403Y-31737083D01*
X3507426Y-31751785D01*
X3501203Y-31752551D01*
X3495657Y-31757848D01*
X3460443Y-31760777D01*
X3456364Y-31759934D01*
X3434699Y-31752354D01*
X3407113Y-31749767D01*
X3403742Y-31749071D01*
X3386583Y-31737425D01*
X3368252Y-31727737D01*
X3364412Y-31722585D01*
X3363865Y-31721767D01*
X3344430Y-31692680D01*
X3319552Y-31655447D01*
X3253232Y-31611133D01*
X3253230Y-31611132D01*
X3194748Y-31599500D01*
X2590493Y-31599500D01*
X2546299Y-31581194D01*
X2527993Y-31537000D01*
X2542951Y-31500886D01*
X2541132Y-31499671D01*
X2588866Y-31428232D01*
X2588867Y-31428231D01*
X2600500Y-31369748D01*
X2600500Y-31037866D01*
X9800000Y-31037866D01*
X10037868Y-30799999D01*
X9800000Y-30562131D01*
X9800000Y-31037866D01*
X2600500Y-31037866D01*
X2600500Y-30206800D01*
X9868933Y-30206800D01*
X9868933Y-30206801D01*
X10231694Y-30569562D01*
X10250000Y-30613756D01*
X10250000Y-30986243D01*
X10231694Y-31030437D01*
X9868933Y-31393198D01*
X9927520Y-31451785D01*
X10030127Y-31497090D01*
X10030127Y-31497091D01*
X10055198Y-31499999D01*
X10309193Y-31499999D01*
X10353387Y-31518305D01*
X10363319Y-31531248D01*
X10389510Y-31576612D01*
X10389515Y-31576618D01*
X10473381Y-31660484D01*
X10473390Y-31660491D01*
X10576108Y-31719796D01*
X10576114Y-31719799D01*
X10690691Y-31750500D01*
X10690692Y-31750500D01*
X10717246Y-31750500D01*
X10761440Y-31768806D01*
X10779746Y-31813000D01*
X10777616Y-31829176D01*
X10749501Y-31934101D01*
X10749500Y-31934109D01*
X10749500Y-32065890D01*
X10749501Y-32065898D01*
X10783606Y-32193182D01*
X10783607Y-32193185D01*
X10849501Y-32307315D01*
X10849504Y-32307319D01*
X10942680Y-32400495D01*
X10942684Y-32400498D01*
X10942686Y-32400500D01*
X11052247Y-32463755D01*
X11056814Y-32466392D01*
X11056817Y-32466393D01*
X11113288Y-32481524D01*
X11184108Y-32500500D01*
X11184109Y-32500500D01*
X11315891Y-32500500D01*
X11315892Y-32500500D01*
X11443186Y-32466392D01*
X11557314Y-32400500D01*
X11650500Y-32307314D01*
X11716392Y-32193186D01*
X11750500Y-32065892D01*
X11750500Y-31934108D01*
X11735426Y-31877850D01*
X11716393Y-31806817D01*
X11716392Y-31806814D01*
X11688121Y-31757848D01*
X11650500Y-31692686D01*
X11650498Y-31692684D01*
X11650495Y-31692680D01*
X11568806Y-31610991D01*
X11550500Y-31566797D01*
X11550500Y-31463000D01*
X11568806Y-31418806D01*
X11613000Y-31400500D01*
X11919748Y-31400500D01*
X11978231Y-31388867D01*
X11978231Y-31388866D01*
X11984269Y-31387666D01*
X11984685Y-31389758D01*
X12015315Y-31389754D01*
X12015731Y-31387666D01*
X12021768Y-31388866D01*
X12021769Y-31388867D01*
X12080252Y-31400500D01*
X12419748Y-31400500D01*
X12478231Y-31388867D01*
X12478231Y-31388866D01*
X12484269Y-31387666D01*
X12484685Y-31389758D01*
X12515315Y-31389754D01*
X12515731Y-31387666D01*
X12521768Y-31388866D01*
X12521769Y-31388867D01*
X12580252Y-31400500D01*
X12919748Y-31400500D01*
X12978231Y-31388867D01*
X12978231Y-31388866D01*
X12984269Y-31387666D01*
X12984685Y-31389758D01*
X13015315Y-31389754D01*
X13015731Y-31387666D01*
X13021768Y-31388866D01*
X13021769Y-31388867D01*
X13080252Y-31400500D01*
X13147000Y-31400500D01*
X13191194Y-31418806D01*
X13209500Y-31463000D01*
X13209500Y-31566797D01*
X13191194Y-31610991D01*
X13109504Y-31692680D01*
X13109501Y-31692684D01*
X13043607Y-31806814D01*
X13043606Y-31806817D01*
X13009501Y-31934101D01*
X13009500Y-31934109D01*
X13009500Y-32065890D01*
X13009501Y-32065898D01*
X13043606Y-32193182D01*
X13043607Y-32193185D01*
X13109501Y-32307315D01*
X13109504Y-32307319D01*
X13202680Y-32400495D01*
X13202684Y-32400498D01*
X13202686Y-32400500D01*
X13312247Y-32463755D01*
X13316814Y-32466392D01*
X13316817Y-32466393D01*
X13373288Y-32481524D01*
X13444108Y-32500500D01*
X13444109Y-32500500D01*
X13575891Y-32500500D01*
X13575892Y-32500500D01*
X13703186Y-32466392D01*
X13817314Y-32400500D01*
X13910500Y-32307314D01*
X13976392Y-32193186D01*
X14010500Y-32065892D01*
X14010500Y-31934108D01*
X13995426Y-31877850D01*
X13976393Y-31806817D01*
X13976392Y-31806814D01*
X13948121Y-31757848D01*
X13910500Y-31692686D01*
X13910498Y-31692684D01*
X13910495Y-31692680D01*
X13828806Y-31610991D01*
X13810500Y-31566797D01*
X13810500Y-31463000D01*
X13828806Y-31418806D01*
X13873000Y-31400500D01*
X13919748Y-31400500D01*
X13978231Y-31388867D01*
X14044552Y-31344552D01*
X14088867Y-31278231D01*
X14100500Y-31219748D01*
X14100500Y-30530251D01*
X17049500Y-30530251D01*
X17049500Y-32069748D01*
X17061132Y-32128230D01*
X17061133Y-32128232D01*
X17105447Y-32194552D01*
X17171767Y-32238866D01*
X17171769Y-32238867D01*
X17230252Y-32250500D01*
X18369748Y-32250500D01*
X18428231Y-32238867D01*
X18494552Y-32194552D01*
X18538867Y-32128231D01*
X18550500Y-32069748D01*
X18550500Y-30530252D01*
X18538867Y-30471769D01*
X18538866Y-30471767D01*
X18494552Y-30405447D01*
X18428232Y-30361133D01*
X18428230Y-30361132D01*
X18369748Y-30349500D01*
X17230252Y-30349500D01*
X17171769Y-30361132D01*
X17171767Y-30361133D01*
X17105447Y-30405447D01*
X17061133Y-30471767D01*
X17061132Y-30471769D01*
X17049500Y-30530251D01*
X14100500Y-30530251D01*
X14100500Y-30397154D01*
X14604976Y-30397154D01*
X14650129Y-30417091D01*
X14650128Y-30417091D01*
X14675198Y-30419999D01*
X15304792Y-30419999D01*
X15329875Y-30417089D01*
X15329876Y-30417089D01*
X15375022Y-30397155D01*
X15375022Y-30397154D01*
X14990000Y-30012132D01*
X14604976Y-30397154D01*
X14100500Y-30397154D01*
X14100500Y-30380252D01*
X14088867Y-30321769D01*
X14088019Y-30320499D01*
X14044551Y-30255446D01*
X14008276Y-30231207D01*
X13981701Y-30191433D01*
X13980500Y-30179241D01*
X13980500Y-30157866D01*
X14420000Y-30157866D01*
X14777868Y-29799999D01*
X15202132Y-29799999D01*
X15202132Y-29800000D01*
X15525502Y-30123370D01*
X15542607Y-30155370D01*
X15551133Y-30198231D01*
X15551133Y-30198232D01*
X15595447Y-30264552D01*
X15661767Y-30308866D01*
X15661769Y-30308867D01*
X15720252Y-30320500D01*
X16299748Y-30320500D01*
X16358231Y-30308867D01*
X16424552Y-30264552D01*
X16468867Y-30198231D01*
X16478300Y-30150806D01*
X16504876Y-30111033D01*
X16539599Y-30100500D01*
X19566798Y-30100500D01*
X19610992Y-30118806D01*
X19692680Y-30200495D01*
X19692684Y-30200498D01*
X19692686Y-30200500D01*
X19803627Y-30264552D01*
X19806814Y-30266392D01*
X19806817Y-30266393D01*
X19884712Y-30287264D01*
X19934108Y-30300500D01*
X19934109Y-30300500D01*
X20065891Y-30300500D01*
X20065892Y-30300500D01*
X20193186Y-30266392D01*
X20307314Y-30200500D01*
X20307314Y-30200499D01*
X20309617Y-30199170D01*
X20357043Y-30192926D01*
X20375588Y-30201328D01*
X20431769Y-30238867D01*
X20490252Y-30250500D01*
X21629748Y-30250500D01*
X21688231Y-30238867D01*
X21754552Y-30194552D01*
X21798867Y-30128231D01*
X21810500Y-30069748D01*
X21810500Y-29663000D01*
X21828806Y-29618806D01*
X21873000Y-29600500D01*
X22039562Y-29600500D01*
X22039567Y-29600499D01*
X22062271Y-29594414D01*
X22115989Y-29580021D01*
X22184511Y-29540460D01*
X22240460Y-29484511D01*
X22280021Y-29415989D01*
X22300500Y-29339562D01*
X22300500Y-29233202D01*
X22318806Y-29189008D01*
X22400495Y-29107319D01*
X22400500Y-29107314D01*
X22466392Y-28993186D01*
X22500500Y-28865892D01*
X22500500Y-28734108D01*
X22466392Y-28606814D01*
X22400500Y-28492686D01*
X22400498Y-28492684D01*
X22400495Y-28492680D01*
X22307319Y-28399504D01*
X22307315Y-28399501D01*
X22307314Y-28399500D01*
X22244094Y-28363000D01*
X22193185Y-28333607D01*
X22193182Y-28333606D01*
X22065898Y-28299501D01*
X22065893Y-28299500D01*
X22065892Y-28299500D01*
X21934108Y-28299500D01*
X21934107Y-28299500D01*
X21934101Y-28299501D01*
X21806817Y-28333606D01*
X21806810Y-28333609D01*
X21754756Y-28363662D01*
X21707330Y-28369905D01*
X21688785Y-28361503D01*
X21688231Y-28361133D01*
X21688230Y-28361132D01*
X21629748Y-28349500D01*
X20490252Y-28349500D01*
X20431769Y-28361132D01*
X20431767Y-28361133D01*
X20365447Y-28405447D01*
X20321133Y-28471767D01*
X20321132Y-28471769D01*
X20309500Y-28530251D01*
X20309500Y-29292508D01*
X20291194Y-29336702D01*
X20247000Y-29355008D01*
X20215751Y-29346635D01*
X20193189Y-29333609D01*
X20193182Y-29333606D01*
X20065898Y-29299501D01*
X20065893Y-29299500D01*
X20065892Y-29299500D01*
X19934108Y-29299500D01*
X19934107Y-29299500D01*
X19934101Y-29299501D01*
X19806817Y-29333606D01*
X19806814Y-29333607D01*
X19692684Y-29399501D01*
X19692680Y-29399504D01*
X19610992Y-29481194D01*
X19566798Y-29499500D01*
X16539599Y-29499500D01*
X16495405Y-29481194D01*
X16478300Y-29449193D01*
X16476895Y-29442131D01*
X16468867Y-29401769D01*
X16437622Y-29355008D01*
X16424552Y-29335447D01*
X16358232Y-29291133D01*
X16358230Y-29291132D01*
X16299748Y-29279500D01*
X15720252Y-29279500D01*
X15661769Y-29291132D01*
X15661767Y-29291133D01*
X15595447Y-29335447D01*
X15551133Y-29401767D01*
X15551133Y-29401769D01*
X15542607Y-29444629D01*
X15525502Y-29476629D01*
X15202132Y-29799999D01*
X14777868Y-29799999D01*
X14420000Y-29442131D01*
X14420000Y-30157866D01*
X13980500Y-30157866D01*
X13980500Y-29860252D01*
X13968867Y-29801769D01*
X13967685Y-29800000D01*
X13924552Y-29735447D01*
X13858232Y-29691133D01*
X13858230Y-29691132D01*
X13799748Y-29679500D01*
X13220252Y-29679500D01*
X13161769Y-29691132D01*
X13161767Y-29691133D01*
X13095447Y-29735447D01*
X13051133Y-29801767D01*
X13051133Y-29801769D01*
X13042607Y-29844629D01*
X13025502Y-29876629D01*
X12720938Y-30181194D01*
X12676744Y-30199500D01*
X12580252Y-30199500D01*
X12521769Y-30211133D01*
X12521768Y-30211133D01*
X12515732Y-30212334D01*
X12515317Y-30210248D01*
X12484683Y-30210248D01*
X12484268Y-30212334D01*
X12478231Y-30211133D01*
X12419748Y-30199500D01*
X12303256Y-30199500D01*
X12259062Y-30181194D01*
X11920000Y-29842131D01*
X11920000Y-30137000D01*
X11901694Y-30181194D01*
X11857500Y-30199500D01*
X11580252Y-30199500D01*
X11521769Y-30211133D01*
X11521768Y-30211133D01*
X11515732Y-30212334D01*
X11515317Y-30210248D01*
X11484683Y-30210248D01*
X11484268Y-30212334D01*
X11478231Y-30211133D01*
X11419748Y-30199500D01*
X11183202Y-30199500D01*
X11139008Y-30181194D01*
X11057319Y-30099504D01*
X11057315Y-30099501D01*
X11057314Y-30099500D01*
X11000250Y-30066554D01*
X10943185Y-30033607D01*
X10943182Y-30033606D01*
X10815898Y-29999501D01*
X10815893Y-29999500D01*
X10815892Y-29999500D01*
X10684108Y-29999500D01*
X10684107Y-29999500D01*
X10684101Y-29999501D01*
X10556817Y-30033606D01*
X10556814Y-30033607D01*
X10494218Y-30069748D01*
X10456321Y-30091627D01*
X10425073Y-30100000D01*
X10055207Y-30100000D01*
X10030123Y-30102910D01*
X9927520Y-30148213D01*
X9868933Y-30206800D01*
X2600500Y-30206800D01*
X2600500Y-30130252D01*
X2588867Y-30071769D01*
X2587517Y-30069748D01*
X2544552Y-30005447D01*
X2478232Y-29961133D01*
X2478230Y-29961132D01*
X2419748Y-29949500D01*
X1713000Y-29949500D01*
X1668806Y-29931194D01*
X1650500Y-29887000D01*
X1650500Y-29713000D01*
X1668806Y-29668806D01*
X1713000Y-29650500D01*
X2419748Y-29650500D01*
X2478231Y-29638867D01*
X2544552Y-29594552D01*
X2588867Y-29528231D01*
X2600500Y-29469748D01*
X2600500Y-29430698D01*
X11731433Y-29430698D01*
X11777520Y-29476785D01*
X11851500Y-29509450D01*
X11851500Y-29500256D01*
X11869806Y-29456062D01*
X11914000Y-29437756D01*
X11958194Y-29456062D01*
X12027131Y-29524999D01*
X12044262Y-29524999D01*
X12088456Y-29543305D01*
X12106762Y-29587499D01*
X12105698Y-29598985D01*
X12104976Y-29602845D01*
X12489999Y-29987868D01*
X12875022Y-29602845D01*
X12874301Y-29598985D01*
X12884174Y-29552179D01*
X12924251Y-29526063D01*
X12935737Y-29524999D01*
X12952868Y-29524999D01*
X13021806Y-29456061D01*
X13066000Y-29437755D01*
X13110194Y-29456061D01*
X13113754Y-29464657D01*
X13128499Y-29470765D01*
X13168566Y-29430697D01*
X13098970Y-29361102D01*
X12940712Y-29202844D01*
X14604975Y-29202844D01*
X14989999Y-29587868D01*
X15375023Y-29202844D01*
X15329873Y-29182909D01*
X15329872Y-29182908D01*
X15304801Y-29180000D01*
X14675207Y-29180000D01*
X14650126Y-29182910D01*
X14650121Y-29182911D01*
X14604976Y-29202843D01*
X14604975Y-29202844D01*
X12940712Y-29202844D01*
X12450000Y-28712132D01*
X11731433Y-29430698D01*
X2600500Y-29430698D01*
X2600500Y-29013000D01*
X2618806Y-28968806D01*
X2663000Y-28950500D01*
X9787000Y-28950500D01*
X9831194Y-28968806D01*
X9849500Y-29013000D01*
X9849500Y-29244748D01*
X9861132Y-29303230D01*
X9861133Y-29303232D01*
X9905447Y-29369552D01*
X9971767Y-29413866D01*
X9971769Y-29413867D01*
X10030252Y-29425500D01*
X11069748Y-29425500D01*
X11128231Y-29413867D01*
X11194552Y-29369552D01*
X11238867Y-29303231D01*
X11250500Y-29244748D01*
X11250500Y-27755252D01*
X11244521Y-27725193D01*
X11253853Y-27678277D01*
X11293627Y-27651701D01*
X11305820Y-27650500D01*
X11589077Y-27650500D01*
X11633271Y-27668806D01*
X11651577Y-27713000D01*
X11651160Y-27720205D01*
X11650000Y-27730200D01*
X11650000Y-29087867D01*
X12405805Y-28332062D01*
X12449999Y-28313756D01*
X12494193Y-28332062D01*
X13249998Y-29087867D01*
X13249999Y-29087867D01*
X13249999Y-27730210D01*
X13248838Y-27720203D01*
X13261929Y-27674193D01*
X13303719Y-27650916D01*
X13310922Y-27650500D01*
X13987000Y-27650500D01*
X14031194Y-27668806D01*
X14049500Y-27713000D01*
X14049500Y-28559307D01*
X14049501Y-28559315D01*
X14080200Y-28673885D01*
X14080203Y-28673891D01*
X14139508Y-28776609D01*
X14139515Y-28776618D01*
X14223381Y-28860484D01*
X14223390Y-28860491D01*
X14326108Y-28919796D01*
X14326114Y-28919799D01*
X14440691Y-28950500D01*
X14440692Y-28950500D01*
X17559308Y-28950500D01*
X17559309Y-28950500D01*
X17673886Y-28919799D01*
X17776613Y-28860489D01*
X17860489Y-28776613D01*
X17919799Y-28673886D01*
X17950500Y-28559309D01*
X17950500Y-27713000D01*
X17968806Y-27668806D01*
X18013000Y-27650500D01*
X23373640Y-27650500D01*
X23417834Y-27668806D01*
X23436140Y-27713000D01*
X23417834Y-27757194D01*
X23359544Y-27815483D01*
X23359541Y-27815487D01*
X23319978Y-27884011D01*
X23319978Y-27884013D01*
X23299500Y-27960432D01*
X23299500Y-28287000D01*
X23281194Y-28331194D01*
X23237000Y-28349500D01*
X23030252Y-28349500D01*
X22971769Y-28361132D01*
X22971767Y-28361133D01*
X22905447Y-28405447D01*
X22861133Y-28471767D01*
X22861132Y-28471769D01*
X22849500Y-28530251D01*
X22849500Y-30069748D01*
X22861132Y-30128230D01*
X22861133Y-30128232D01*
X22905447Y-30194552D01*
X22971767Y-30238866D01*
X22971769Y-30238867D01*
X23030252Y-30250500D01*
X24169748Y-30250500D01*
X24228231Y-30238867D01*
X24294552Y-30194552D01*
X24338867Y-30128231D01*
X24350500Y-30069748D01*
X24350500Y-29526360D01*
X24368806Y-29482166D01*
X24413000Y-29463860D01*
X24457194Y-29482166D01*
X24515483Y-29540455D01*
X24515487Y-29540458D01*
X24515489Y-29540460D01*
X24584011Y-29580021D01*
X24607396Y-29586287D01*
X24660432Y-29600499D01*
X24660438Y-29600500D01*
X24739562Y-29600500D01*
X25327000Y-29600500D01*
X25371194Y-29618806D01*
X25389500Y-29663000D01*
X25389500Y-30069748D01*
X25401132Y-30128230D01*
X25401133Y-30128232D01*
X25445447Y-30194552D01*
X25511767Y-30238866D01*
X25511769Y-30238867D01*
X25570252Y-30250500D01*
X26709748Y-30250500D01*
X26768231Y-30238867D01*
X26834552Y-30194552D01*
X26878867Y-30128231D01*
X26890500Y-30069748D01*
X26890500Y-28530252D01*
X26878867Y-28471769D01*
X26835719Y-28407194D01*
X26834552Y-28405447D01*
X26817747Y-28394219D01*
X26791171Y-28354445D01*
X26799696Y-28311581D01*
X26798451Y-28310862D01*
X26800498Y-28307315D01*
X26800500Y-28307314D01*
X26866392Y-28193186D01*
X26900500Y-28065892D01*
X26900500Y-27934108D01*
X26875217Y-27839748D01*
X26866393Y-27806817D01*
X26866392Y-27806814D01*
X26839098Y-27759540D01*
X26800500Y-27692686D01*
X26800498Y-27692684D01*
X26800495Y-27692680D01*
X26707319Y-27599504D01*
X26707315Y-27599501D01*
X26707314Y-27599500D01*
X26639745Y-27560489D01*
X26593185Y-27533607D01*
X26593182Y-27533606D01*
X26465898Y-27499501D01*
X26465893Y-27499500D01*
X26465892Y-27499500D01*
X26334108Y-27499500D01*
X26334107Y-27499500D01*
X26334101Y-27499501D01*
X26206817Y-27533606D01*
X26206814Y-27533607D01*
X26092684Y-27599501D01*
X26092680Y-27599504D01*
X26010992Y-27681194D01*
X25966798Y-27699500D01*
X24569093Y-27699500D01*
X24524899Y-27681194D01*
X24506593Y-27637000D01*
X24524899Y-27592806D01*
X24537842Y-27582874D01*
X24552456Y-27574435D01*
X24576613Y-27560489D01*
X24660489Y-27476613D01*
X24719799Y-27373886D01*
X24750500Y-27259309D01*
X24750500Y-25930698D01*
X27731433Y-25930698D01*
X27777520Y-25976785D01*
X27880127Y-26022090D01*
X27880127Y-26022091D01*
X27905198Y-26024999D01*
X28994792Y-26024999D01*
X29019876Y-26022089D01*
X29122479Y-25976785D01*
X29168566Y-25930698D01*
X28450000Y-25212132D01*
X27731433Y-25930698D01*
X24750500Y-25930698D01*
X24750500Y-24968000D01*
X24768806Y-24923806D01*
X24813000Y-24905500D01*
X24969748Y-24905500D01*
X25028231Y-24893867D01*
X25094552Y-24849552D01*
X25138867Y-24783231D01*
X25150500Y-24724748D01*
X25150500Y-24255251D01*
X25849500Y-24255251D01*
X25849500Y-25744748D01*
X25861132Y-25803230D01*
X25861133Y-25803232D01*
X25905447Y-25869552D01*
X25971767Y-25913866D01*
X25971769Y-25913867D01*
X26030252Y-25925500D01*
X27069748Y-25925500D01*
X27128231Y-25913867D01*
X27194552Y-25869552D01*
X27238867Y-25803231D01*
X27250500Y-25744748D01*
X27250500Y-25587867D01*
X27650000Y-25587867D01*
X28237868Y-25000000D01*
X28237868Y-24999999D01*
X28662132Y-24999999D01*
X28662132Y-25000000D01*
X29249998Y-25587867D01*
X29249999Y-25587867D01*
X29249999Y-24412131D01*
X29249998Y-24412131D01*
X28662132Y-24999999D01*
X28237868Y-24999999D01*
X27650000Y-24412131D01*
X27650000Y-25587867D01*
X27250500Y-25587867D01*
X27250500Y-24255252D01*
X27238867Y-24196769D01*
X27236473Y-24193186D01*
X27194552Y-24130447D01*
X27142069Y-24095379D01*
X27128232Y-24086133D01*
X27128230Y-24086132D01*
X27069748Y-24074500D01*
X26030252Y-24074500D01*
X25971769Y-24086132D01*
X25971767Y-24086133D01*
X25905447Y-24130447D01*
X25861133Y-24196767D01*
X25861132Y-24196769D01*
X25849500Y-24255251D01*
X25150500Y-24255251D01*
X25150500Y-24085252D01*
X25147327Y-24069300D01*
X27731433Y-24069300D01*
X27731433Y-24069301D01*
X28449999Y-24787867D01*
X29168566Y-24069301D01*
X29122479Y-24023214D01*
X29019872Y-23977909D01*
X29019872Y-23977908D01*
X28994801Y-23975000D01*
X27905207Y-23975000D01*
X27880123Y-23977910D01*
X27777520Y-24023213D01*
X27731433Y-24069300D01*
X25147327Y-24069300D01*
X25138867Y-24026769D01*
X25136491Y-24023213D01*
X25094552Y-23960447D01*
X25028232Y-23916133D01*
X25028230Y-23916132D01*
X24969748Y-23904500D01*
X22980252Y-23904500D01*
X22921769Y-23916132D01*
X22921767Y-23916133D01*
X22855447Y-23960447D01*
X22811133Y-24026767D01*
X22811132Y-24026769D01*
X22799500Y-24085251D01*
X22799500Y-24724748D01*
X22811132Y-24783230D01*
X22811133Y-24783232D01*
X22855447Y-24849552D01*
X22921767Y-24893866D01*
X22921769Y-24893867D01*
X22980252Y-24905500D01*
X23787000Y-24905500D01*
X23831194Y-24923806D01*
X23849500Y-24968000D01*
X23849500Y-26687000D01*
X23831194Y-26731194D01*
X23787000Y-26749500D01*
X17559309Y-26749500D01*
X17440691Y-26749500D01*
X17440690Y-26749500D01*
X17440684Y-26749501D01*
X17326114Y-26780200D01*
X17326108Y-26780203D01*
X17223390Y-26839508D01*
X17223381Y-26839515D01*
X17139515Y-26923381D01*
X17139508Y-26923390D01*
X17080203Y-27026108D01*
X17080201Y-27026111D01*
X17069565Y-27065805D01*
X17040444Y-27103754D01*
X16993017Y-27109997D01*
X16957228Y-27084350D01*
X16924552Y-27035447D01*
X16858232Y-26991133D01*
X16858230Y-26991132D01*
X16799748Y-26979500D01*
X16473149Y-26979500D01*
X16470291Y-26978316D01*
X16467338Y-26979229D01*
X16448569Y-26969318D01*
X16428955Y-26961194D01*
X16425037Y-26956893D01*
X16396845Y-26922893D01*
X16382728Y-26877189D01*
X16405064Y-26834888D01*
X16444957Y-26820500D01*
X16799748Y-26820500D01*
X16858231Y-26808867D01*
X16924552Y-26764552D01*
X16968867Y-26698231D01*
X16978300Y-26650806D01*
X17004876Y-26611033D01*
X17039599Y-26600500D01*
X22039562Y-26600500D01*
X22039567Y-26600499D01*
X22062271Y-26594414D01*
X22115989Y-26580021D01*
X22184511Y-26540460D01*
X22240460Y-26484511D01*
X22280021Y-26415989D01*
X22300500Y-26339562D01*
X22300500Y-22815251D01*
X22799500Y-22815251D01*
X22799500Y-23454748D01*
X22811132Y-23513230D01*
X22811133Y-23513232D01*
X22855447Y-23579552D01*
X22921767Y-23623866D01*
X22921769Y-23623867D01*
X22980252Y-23635500D01*
X24969748Y-23635500D01*
X25028231Y-23623867D01*
X25094552Y-23579552D01*
X25138867Y-23513231D01*
X25150500Y-23454748D01*
X25150500Y-22815252D01*
X25138867Y-22756769D01*
X25138866Y-22756767D01*
X25094552Y-22690447D01*
X25028232Y-22646133D01*
X25028230Y-22646132D01*
X24969748Y-22634500D01*
X22980252Y-22634500D01*
X22921769Y-22646132D01*
X22921767Y-22646133D01*
X22855447Y-22690447D01*
X22811133Y-22756767D01*
X22811132Y-22756769D01*
X22799500Y-22815251D01*
X22300500Y-22815251D01*
X22300500Y-22228000D01*
X22318806Y-22183806D01*
X22363000Y-22165500D01*
X22744379Y-22165500D01*
X22788573Y-22183806D01*
X22805678Y-22215807D01*
X22811132Y-22243230D01*
X22811133Y-22243232D01*
X22855447Y-22309552D01*
X22921767Y-22353866D01*
X22921769Y-22353867D01*
X22980252Y-22365500D01*
X24969748Y-22365500D01*
X25028231Y-22353867D01*
X25094552Y-22309552D01*
X25138867Y-22243231D01*
X25150500Y-22184748D01*
X25150500Y-21545252D01*
X25138867Y-21486769D01*
X25135807Y-21482189D01*
X25094552Y-21420447D01*
X25028232Y-21376133D01*
X25028230Y-21376132D01*
X24969748Y-21364500D01*
X22980252Y-21364500D01*
X22921769Y-21376132D01*
X22921767Y-21376133D01*
X22855447Y-21420447D01*
X22811133Y-21486767D01*
X22811132Y-21486769D01*
X22805678Y-21514193D01*
X22779102Y-21553967D01*
X22744379Y-21564500D01*
X21960432Y-21564500D01*
X21884013Y-21584978D01*
X21884011Y-21584978D01*
X21815487Y-21624541D01*
X21815483Y-21624544D01*
X21759544Y-21680483D01*
X21759541Y-21680487D01*
X21719978Y-21749011D01*
X21719978Y-21749013D01*
X21699500Y-21825432D01*
X21699500Y-25937000D01*
X21681194Y-25981194D01*
X21637000Y-25999500D01*
X17039599Y-25999500D01*
X16995405Y-25981194D01*
X16978300Y-25949193D01*
X16968867Y-25901769D01*
X16968866Y-25901767D01*
X16924552Y-25835447D01*
X16858232Y-25791133D01*
X16858230Y-25791132D01*
X16799748Y-25779500D01*
X16220252Y-25779500D01*
X16161769Y-25791132D01*
X16161767Y-25791133D01*
X16095448Y-25835446D01*
X16051967Y-25900521D01*
X16012193Y-25927096D01*
X15965276Y-25917764D01*
X15948033Y-25900521D01*
X15904551Y-25835446D01*
X15838232Y-25791133D01*
X15838230Y-25791132D01*
X15779748Y-25779500D01*
X15363000Y-25779500D01*
X15318806Y-25761194D01*
X15300500Y-25717000D01*
X15300500Y-25563000D01*
X15318806Y-25518806D01*
X15363000Y-25500500D01*
X17539562Y-25500500D01*
X17539567Y-25500499D01*
X17562271Y-25494414D01*
X17615989Y-25480021D01*
X17684511Y-25440460D01*
X17740460Y-25384511D01*
X17780021Y-25315989D01*
X17800500Y-25239562D01*
X17800500Y-24895493D01*
X17818806Y-24851299D01*
X17863000Y-24832993D01*
X17899113Y-24847951D01*
X17900329Y-24846132D01*
X17971767Y-24893866D01*
X17971769Y-24893867D01*
X18030252Y-24905500D01*
X20019748Y-24905500D01*
X20078231Y-24893867D01*
X20144552Y-24849552D01*
X20188867Y-24783231D01*
X20200500Y-24724748D01*
X20200500Y-24513264D01*
X20218806Y-24469070D01*
X20263000Y-24450764D01*
X20294247Y-24459136D01*
X20306814Y-24466392D01*
X20306816Y-24466392D01*
X20306817Y-24466393D01*
X20384712Y-24487264D01*
X20434108Y-24500500D01*
X20434109Y-24500500D01*
X20565891Y-24500500D01*
X20565892Y-24500500D01*
X20693186Y-24466392D01*
X20807314Y-24400500D01*
X20900500Y-24307314D01*
X20966392Y-24193186D01*
X21000500Y-24065892D01*
X21000500Y-23934108D01*
X20969255Y-23817500D01*
X20966393Y-23806817D01*
X20966392Y-23806814D01*
X20955453Y-23787868D01*
X20900500Y-23692686D01*
X20900498Y-23692684D01*
X20900495Y-23692680D01*
X20818806Y-23610991D01*
X20800500Y-23566797D01*
X20800500Y-21825438D01*
X20800499Y-21825432D01*
X20789616Y-21784822D01*
X20780021Y-21749011D01*
X20740460Y-21680489D01*
X20740458Y-21680487D01*
X20740455Y-21680483D01*
X20684516Y-21624544D01*
X20684512Y-21624541D01*
X20684511Y-21624540D01*
X20615989Y-21584979D01*
X20615988Y-21584978D01*
X20615987Y-21584978D01*
X20539567Y-21564500D01*
X20539562Y-21564500D01*
X20255621Y-21564500D01*
X20211427Y-21546194D01*
X20194322Y-21514193D01*
X20188867Y-21486769D01*
X20188866Y-21486767D01*
X20144552Y-21420447D01*
X20078232Y-21376133D01*
X20078230Y-21376132D01*
X20019748Y-21364500D01*
X18030252Y-21364500D01*
X17971769Y-21376132D01*
X17971767Y-21376133D01*
X17905446Y-21420448D01*
X17905445Y-21420449D01*
X17899524Y-21429311D01*
X17859750Y-21455886D01*
X17812834Y-21446551D01*
X17787189Y-21410762D01*
X17780022Y-21384014D01*
X17780021Y-21384011D01*
X17763156Y-21354800D01*
X17740460Y-21315489D01*
X17740458Y-21315487D01*
X17740455Y-21315483D01*
X17684516Y-21259544D01*
X17684512Y-21259541D01*
X17684511Y-21259540D01*
X17615989Y-21219979D01*
X17615988Y-21219978D01*
X17615987Y-21219978D01*
X17539567Y-21199500D01*
X17535504Y-21198966D01*
X17535649Y-21197863D01*
X17495405Y-21181194D01*
X17478300Y-21149193D01*
X17468867Y-21101769D01*
X17468866Y-21101767D01*
X17424552Y-21035447D01*
X17358232Y-20991133D01*
X17358230Y-20991132D01*
X17299748Y-20979500D01*
X16720252Y-20979500D01*
X16661769Y-20991132D01*
X16661767Y-20991133D01*
X16595448Y-21035446D01*
X16551967Y-21100521D01*
X16512193Y-21127096D01*
X16465276Y-21117764D01*
X16448033Y-21100521D01*
X16440710Y-21089562D01*
X16404552Y-21035448D01*
X16404550Y-21035447D01*
X16404550Y-21035446D01*
X16368276Y-21011207D01*
X16341701Y-20971433D01*
X16340500Y-20959241D01*
X16340500Y-20275251D01*
X17849500Y-20275251D01*
X17849500Y-20914748D01*
X17861132Y-20973230D01*
X17861133Y-20973232D01*
X17905447Y-21039552D01*
X17971767Y-21083866D01*
X17971769Y-21083867D01*
X18030252Y-21095500D01*
X20019748Y-21095500D01*
X20078231Y-21083867D01*
X20144552Y-21039552D01*
X20188867Y-20973231D01*
X20200500Y-20914748D01*
X20200500Y-20275252D01*
X20188867Y-20216769D01*
X20188866Y-20216767D01*
X20144552Y-20150447D01*
X20078232Y-20106133D01*
X20078230Y-20106132D01*
X20019748Y-20094500D01*
X18030252Y-20094500D01*
X17971769Y-20106132D01*
X17971767Y-20106133D01*
X17905447Y-20150447D01*
X17861133Y-20216767D01*
X17861132Y-20216769D01*
X17849500Y-20275251D01*
X16340500Y-20275251D01*
X16340500Y-20013000D01*
X16358806Y-19968806D01*
X16403000Y-19950500D01*
X23562000Y-19950500D01*
X23606194Y-19968806D01*
X23624500Y-20013000D01*
X23624500Y-20032000D01*
X23606194Y-20076194D01*
X23562000Y-20094500D01*
X22980252Y-20094500D01*
X22921769Y-20106132D01*
X22921767Y-20106133D01*
X22855447Y-20150447D01*
X22811133Y-20216767D01*
X22811132Y-20216769D01*
X22799500Y-20275251D01*
X22799500Y-20914748D01*
X22811132Y-20973230D01*
X22811133Y-20973232D01*
X22855447Y-21039552D01*
X22921767Y-21083866D01*
X22921769Y-21083867D01*
X22980252Y-21095500D01*
X24969748Y-21095500D01*
X25028231Y-21083867D01*
X25072165Y-21054511D01*
X25099671Y-21036132D01*
X25100886Y-21037951D01*
X25137000Y-21022993D01*
X25181194Y-21041299D01*
X25199500Y-21085493D01*
X25199500Y-21089567D01*
X25219978Y-21165986D01*
X25219978Y-21165988D01*
X25233152Y-21188806D01*
X25251149Y-21219978D01*
X25259541Y-21234512D01*
X25259544Y-21234516D01*
X25315483Y-21290455D01*
X25315487Y-21290458D01*
X25315489Y-21290460D01*
X25384011Y-21330021D01*
X25408958Y-21336705D01*
X25460115Y-21350414D01*
X25468408Y-21356778D01*
X25478662Y-21358818D01*
X25486653Y-21370778D01*
X25498065Y-21379535D01*
X25505237Y-21398592D01*
X25510649Y-21425803D01*
X25501316Y-21472719D01*
X25493545Y-21482189D01*
X25448214Y-21527520D01*
X25402909Y-21630127D01*
X25402908Y-21630127D01*
X25400000Y-21655197D01*
X25400000Y-22344792D01*
X25402910Y-22369876D01*
X25448214Y-22472479D01*
X25493545Y-22517810D01*
X25511851Y-22562004D01*
X25510650Y-22574197D01*
X25499500Y-22630251D01*
X25499500Y-23269748D01*
X25511132Y-23328230D01*
X25511133Y-23328232D01*
X25555447Y-23394552D01*
X25621767Y-23438866D01*
X25621769Y-23438867D01*
X25680252Y-23450500D01*
X27044748Y-23450500D01*
X27103231Y-23438867D01*
X27169552Y-23394552D01*
X27213836Y-23328276D01*
X27253610Y-23301701D01*
X27265803Y-23300500D01*
X27446143Y-23300500D01*
X27446144Y-23300500D01*
X27535288Y-23276614D01*
X27538084Y-23275000D01*
X27552180Y-23266860D01*
X27615212Y-23230469D01*
X27638937Y-23206744D01*
X27667806Y-23177876D01*
X27712000Y-23159570D01*
X27756194Y-23177876D01*
X27774500Y-23222070D01*
X27774500Y-23269748D01*
X27786132Y-23328230D01*
X27786133Y-23328232D01*
X27830447Y-23394552D01*
X27896767Y-23438866D01*
X27896769Y-23438867D01*
X27955252Y-23450500D01*
X29319748Y-23450500D01*
X29378231Y-23438867D01*
X29444552Y-23394552D01*
X29488867Y-23328231D01*
X29500500Y-23269748D01*
X29500500Y-22630252D01*
X29488867Y-22571769D01*
X29488866Y-22571767D01*
X29444552Y-22505447D01*
X29378232Y-22461133D01*
X29378230Y-22461132D01*
X29319748Y-22449500D01*
X27955252Y-22449500D01*
X27896769Y-22461132D01*
X27896767Y-22461133D01*
X27847723Y-22493904D01*
X27800807Y-22503236D01*
X27761033Y-22476660D01*
X27750500Y-22441937D01*
X27750500Y-21558062D01*
X27768806Y-21513868D01*
X27813000Y-21495562D01*
X27847722Y-21506094D01*
X27896769Y-21538867D01*
X27955252Y-21550500D01*
X29319748Y-21550500D01*
X29378231Y-21538867D01*
X29444552Y-21494552D01*
X29488867Y-21428231D01*
X29500500Y-21369748D01*
X29500500Y-20730252D01*
X29488867Y-20671769D01*
X29488866Y-20671767D01*
X29444552Y-20605447D01*
X29378232Y-20561133D01*
X29378230Y-20561132D01*
X29319748Y-20549500D01*
X28413000Y-20549500D01*
X28368806Y-20531194D01*
X28350500Y-20487000D01*
X28350500Y-19553857D01*
X28350498Y-19553849D01*
X28345208Y-19534108D01*
X28326614Y-19464712D01*
X28326613Y-19464709D01*
X28280469Y-19384788D01*
X28280464Y-19384782D01*
X28215217Y-19319535D01*
X28215211Y-19319530D01*
X28135290Y-19273386D01*
X28135287Y-19273385D01*
X28046150Y-19249501D01*
X28046145Y-19249500D01*
X28046144Y-19249500D01*
X28046143Y-19249500D01*
X26933202Y-19249500D01*
X26889008Y-19231194D01*
X26857314Y-19199500D01*
X26788462Y-19159748D01*
X26743185Y-19133607D01*
X26743182Y-19133606D01*
X26615898Y-19099501D01*
X26615893Y-19099500D01*
X26615892Y-19099500D01*
X26484108Y-19099500D01*
X26484107Y-19099500D01*
X26484101Y-19099501D01*
X26356817Y-19133606D01*
X26356814Y-19133607D01*
X26242684Y-19199501D01*
X26232308Y-19209878D01*
X26210991Y-19231194D01*
X26166799Y-19249500D01*
X20212477Y-19249500D01*
X20168283Y-19231194D01*
X20149977Y-19187000D01*
X20149999Y-19186195D01*
X20149999Y-18295207D01*
X20147089Y-18270123D01*
X20127154Y-18224976D01*
X19630438Y-18721694D01*
X19586244Y-18740000D01*
X19213756Y-18740000D01*
X19169562Y-18721694D01*
X18968806Y-18520938D01*
X18950500Y-18476744D01*
X18950500Y-18320252D01*
X18938867Y-18261769D01*
X18938866Y-18261767D01*
X18902102Y-18206746D01*
X18902099Y-18206743D01*
X18894552Y-18195448D01*
X18883253Y-18187898D01*
X18883252Y-18187897D01*
X18828232Y-18151133D01*
X18828230Y-18151132D01*
X18769748Y-18139500D01*
X17830252Y-18139500D01*
X17771769Y-18151132D01*
X17771767Y-18151133D01*
X17716744Y-18187898D01*
X17716737Y-18187904D01*
X17705448Y-18195448D01*
X17697904Y-18206737D01*
X17697898Y-18206744D01*
X17661133Y-18261767D01*
X17661132Y-18261769D01*
X17649500Y-18320251D01*
X17649500Y-18476744D01*
X17631194Y-18520938D01*
X17430438Y-18721694D01*
X17386244Y-18740000D01*
X17013756Y-18740000D01*
X16969562Y-18721694D01*
X16768806Y-18520938D01*
X16750500Y-18476744D01*
X16750500Y-18320252D01*
X16738867Y-18261769D01*
X16738866Y-18261767D01*
X16702102Y-18206746D01*
X16702099Y-18206743D01*
X16694552Y-18195448D01*
X16683253Y-18187898D01*
X16683252Y-18187897D01*
X16628232Y-18151133D01*
X16628230Y-18151132D01*
X16569748Y-18139500D01*
X15630252Y-18139500D01*
X15571769Y-18151133D01*
X15571768Y-18151133D01*
X15565732Y-18152334D01*
X15565317Y-18150248D01*
X15534683Y-18150248D01*
X15534268Y-18152334D01*
X15528231Y-18151133D01*
X15469748Y-18139500D01*
X14530252Y-18139500D01*
X14471769Y-18151133D01*
X14471768Y-18151133D01*
X14465732Y-18152334D01*
X14465317Y-18150248D01*
X14434683Y-18150248D01*
X14434268Y-18152334D01*
X14428231Y-18151133D01*
X14369748Y-18139500D01*
X13430252Y-18139500D01*
X13371769Y-18151133D01*
X13371768Y-18151133D01*
X13365732Y-18152334D01*
X13365317Y-18150248D01*
X13334683Y-18150248D01*
X13334268Y-18152334D01*
X13328231Y-18151133D01*
X13269748Y-18139500D01*
X12330252Y-18139500D01*
X12271769Y-18151133D01*
X12271768Y-18151133D01*
X12265732Y-18152334D01*
X12265317Y-18150248D01*
X12234683Y-18150248D01*
X12234268Y-18152334D01*
X12228231Y-18151133D01*
X12169748Y-18139500D01*
X11230252Y-18139500D01*
X11171769Y-18151132D01*
X11171767Y-18151133D01*
X11116744Y-18187898D01*
X11116737Y-18187904D01*
X11105448Y-18195448D01*
X11097904Y-18206737D01*
X11097898Y-18206744D01*
X11061133Y-18261767D01*
X11061132Y-18261769D01*
X11049500Y-18320251D01*
X11049500Y-18476744D01*
X11031194Y-18520938D01*
X10830438Y-18721694D01*
X10786244Y-18740000D01*
X10413756Y-18740000D01*
X10369562Y-18721694D01*
X9872844Y-18224975D01*
X9872843Y-18224976D01*
X9852910Y-18270123D01*
X9852908Y-18270127D01*
X9850000Y-18295197D01*
X9850000Y-19184792D01*
X9852910Y-19209878D01*
X9853107Y-19210600D01*
X9853048Y-19211061D01*
X9853452Y-19214544D01*
X9852589Y-19214644D01*
X9852021Y-19219091D01*
X9855297Y-19227000D01*
X9849094Y-19241973D01*
X9847039Y-19258049D01*
X9840266Y-19263285D01*
X9836991Y-19271194D01*
X9822018Y-19277395D01*
X9809197Y-19287310D01*
X9792797Y-19289500D01*
X9779945Y-19289500D01*
X9748694Y-19281126D01*
X9735289Y-19273386D01*
X9735287Y-19273385D01*
X9646150Y-19249501D01*
X9646145Y-19249500D01*
X9646144Y-19249500D01*
X9553856Y-19249500D01*
X9553855Y-19249500D01*
X9553849Y-19249501D01*
X9464712Y-19273385D01*
X9464705Y-19273388D01*
X9458945Y-19276714D01*
X9411518Y-19282955D01*
X9373570Y-19253833D01*
X9366262Y-19234071D01*
X9361148Y-19206717D01*
X9329876Y-19192910D01*
X9329872Y-19192908D01*
X9304801Y-19190000D01*
X8655207Y-19190000D01*
X8630126Y-19192910D01*
X8630121Y-19192911D01*
X8598850Y-19206717D01*
X8598850Y-19206719D01*
X8979999Y-19587867D01*
X9171577Y-19396290D01*
X9215771Y-19377984D01*
X9259965Y-19396290D01*
X9278271Y-19440484D01*
X9274251Y-19460702D01*
X9274446Y-19460755D01*
X9273651Y-19463718D01*
X9273519Y-19464387D01*
X9273387Y-19464703D01*
X9249501Y-19553849D01*
X9249500Y-19553857D01*
X9249500Y-19716744D01*
X9231194Y-19760938D01*
X9024194Y-19967938D01*
X8980000Y-19986244D01*
X8935806Y-19967938D01*
X8668049Y-19700181D01*
X8649743Y-19655987D01*
X8650278Y-19647824D01*
X8650498Y-19646149D01*
X8650500Y-19646144D01*
X8650500Y-19553856D01*
X8626614Y-19464712D01*
X8626613Y-19464709D01*
X8580469Y-19384788D01*
X8580464Y-19384782D01*
X8515217Y-19319535D01*
X8515211Y-19319530D01*
X8435290Y-19273386D01*
X8435287Y-19273385D01*
X8346150Y-19249501D01*
X8346145Y-19249500D01*
X8346144Y-19249500D01*
X8346143Y-19249500D01*
X8133202Y-19249500D01*
X8089008Y-19231194D01*
X8057314Y-19199500D01*
X7988462Y-19159748D01*
X7943185Y-19133607D01*
X7943182Y-19133606D01*
X7815898Y-19099501D01*
X7815893Y-19099500D01*
X7815892Y-19099500D01*
X7684108Y-19099500D01*
X7684106Y-19099500D01*
X7638674Y-19111673D01*
X7591248Y-19105428D01*
X7562128Y-19067477D01*
X7559999Y-19051302D01*
X7559999Y-18645208D01*
X7558639Y-18633490D01*
X7024193Y-19167937D01*
X6979999Y-19186243D01*
X6935805Y-19167937D01*
X6518806Y-18750938D01*
X6500500Y-18706744D01*
X6500500Y-18670252D01*
X6488867Y-18611769D01*
X6488866Y-18611767D01*
X6444552Y-18545447D01*
X6378232Y-18501133D01*
X6378230Y-18501132D01*
X6319748Y-18489500D01*
X5720252Y-18489500D01*
X5661769Y-18501132D01*
X5661767Y-18501133D01*
X5595447Y-18545447D01*
X5551133Y-18611767D01*
X5551132Y-18611769D01*
X5539500Y-18670251D01*
X5539500Y-19187000D01*
X5521194Y-19231194D01*
X5477000Y-19249500D01*
X5346144Y-19249500D01*
X5253856Y-19249500D01*
X5253855Y-19249500D01*
X5253849Y-19249501D01*
X5164712Y-19273385D01*
X5164709Y-19273386D01*
X5084788Y-19319530D01*
X5084782Y-19319535D01*
X5019535Y-19384782D01*
X5019530Y-19384788D01*
X4973386Y-19464709D01*
X4973385Y-19464712D01*
X4949501Y-19553849D01*
X4949500Y-19553857D01*
X4949500Y-20446142D01*
X4949501Y-20446150D01*
X4961471Y-20490824D01*
X4955227Y-20538250D01*
X4917277Y-20567370D01*
X4901101Y-20569500D01*
X1363000Y-20569500D01*
X1318806Y-20551194D01*
X1300500Y-20507000D01*
X1300500Y-20163000D01*
X1300981Y-20161839D01*
X2650291Y-20161839D01*
X2730126Y-20197089D01*
X2755207Y-20199999D01*
X4444792Y-20199999D01*
X4469875Y-20197089D01*
X4469876Y-20197089D01*
X4549707Y-20161840D01*
X4549707Y-20161839D01*
X3600000Y-19212132D01*
X2650291Y-20161839D01*
X1300981Y-20161839D01*
X1318806Y-20118806D01*
X1363000Y-20100500D01*
X1819748Y-20100500D01*
X1878231Y-20088867D01*
X1944552Y-20044552D01*
X1988867Y-19978231D01*
X2000500Y-19919748D01*
X2000500Y-19887867D01*
X2500000Y-19887867D01*
X3387868Y-19000000D01*
X3387868Y-18999999D01*
X3812132Y-18999999D01*
X3812132Y-19000000D01*
X4699998Y-19887867D01*
X4699999Y-19887867D01*
X4699999Y-18406717D01*
X6598850Y-18406717D01*
X6598850Y-18406719D01*
X6979999Y-18787868D01*
X7361149Y-18406718D01*
X7361148Y-18406717D01*
X7329876Y-18392910D01*
X7329872Y-18392908D01*
X7304801Y-18390000D01*
X6655207Y-18390000D01*
X6630126Y-18392910D01*
X6630121Y-18392911D01*
X6598850Y-18406717D01*
X4699999Y-18406717D01*
X4699999Y-18112131D01*
X4699998Y-18112131D01*
X3812132Y-18999999D01*
X3387868Y-18999999D01*
X2500000Y-18112131D01*
X2500000Y-19887867D01*
X2000500Y-19887867D01*
X2000500Y-18080252D01*
X1988867Y-18021769D01*
X1988866Y-18021767D01*
X1944553Y-17955448D01*
X1878230Y-17911132D01*
X1819748Y-17899500D01*
X263000Y-17899500D01*
X218806Y-17881194D01*
X200980Y-17838158D01*
X2650291Y-17838158D01*
X2650291Y-17838159D01*
X3599999Y-18787867D01*
X4347866Y-18040000D01*
X10112131Y-18040000D01*
X10599999Y-18527867D01*
X11005157Y-18122710D01*
X11087867Y-18040000D01*
X16712131Y-18040000D01*
X16767285Y-18095154D01*
X16794843Y-18122711D01*
X17199999Y-18527867D01*
X17605157Y-18122710D01*
X17687867Y-18040000D01*
X18912131Y-18040000D01*
X18967285Y-18095154D01*
X18994843Y-18122711D01*
X19400000Y-18527868D01*
X19887867Y-18040000D01*
X18912131Y-18040000D01*
X17687867Y-18040000D01*
X16712131Y-18040000D01*
X11087867Y-18040000D01*
X10112131Y-18040000D01*
X4347866Y-18040000D01*
X4549707Y-17838159D01*
X4469873Y-17802909D01*
X4469872Y-17802908D01*
X4444801Y-17800000D01*
X2755207Y-17800000D01*
X2730126Y-17802910D01*
X2730121Y-17802911D01*
X2650291Y-17838158D01*
X200980Y-17838158D01*
X200500Y-17837000D01*
X200500Y-13930698D01*
X2731433Y-13930698D01*
X2777520Y-13976785D01*
X2880127Y-14022090D01*
X2880127Y-14022091D01*
X2905198Y-14024999D01*
X3994792Y-14024999D01*
X4019876Y-14022089D01*
X4122479Y-13976785D01*
X4168566Y-13930698D01*
X3450000Y-13212132D01*
X2731433Y-13930698D01*
X200500Y-13930698D01*
X200500Y-12255251D01*
X849500Y-12255251D01*
X849500Y-13744748D01*
X861132Y-13803230D01*
X861133Y-13803232D01*
X905447Y-13869552D01*
X971767Y-13913866D01*
X971769Y-13913867D01*
X1030252Y-13925500D01*
X2069748Y-13925500D01*
X2128231Y-13913867D01*
X2194552Y-13869552D01*
X2238867Y-13803231D01*
X2250500Y-13744748D01*
X2250500Y-13587867D01*
X2650000Y-13587867D01*
X3237868Y-13000000D01*
X3237868Y-12999999D01*
X3662132Y-12999999D01*
X3662132Y-13000000D01*
X4249998Y-13587867D01*
X4249999Y-13587867D01*
X4249999Y-12412131D01*
X4249998Y-12412131D01*
X3662132Y-12999999D01*
X3237868Y-12999999D01*
X2650000Y-12412131D01*
X2650000Y-13587867D01*
X2250500Y-13587867D01*
X2250500Y-12255252D01*
X2238867Y-12196769D01*
X2236473Y-12193186D01*
X2194552Y-12130447D01*
X2142069Y-12095379D01*
X2128232Y-12086133D01*
X2128230Y-12086132D01*
X2069748Y-12074500D01*
X1030252Y-12074500D01*
X971769Y-12086132D01*
X971767Y-12086133D01*
X905447Y-12130447D01*
X861133Y-12196767D01*
X861132Y-12196769D01*
X849500Y-12255251D01*
X200500Y-12255251D01*
X200500Y-12069300D01*
X2731433Y-12069300D01*
X2731433Y-12069301D01*
X3449999Y-12787867D01*
X3957616Y-12280251D01*
X5649500Y-12280251D01*
X5649500Y-13219748D01*
X5662334Y-13284268D01*
X5660248Y-13284682D01*
X5660248Y-13315317D01*
X5662334Y-13315732D01*
X5649500Y-13380251D01*
X5649500Y-14319748D01*
X5662334Y-14384268D01*
X5660248Y-14384682D01*
X5660248Y-14415317D01*
X5662334Y-14415732D01*
X5661133Y-14421768D01*
X5661133Y-14421769D01*
X5649500Y-14480252D01*
X5649500Y-15419748D01*
X5659471Y-15469878D01*
X5662334Y-15484268D01*
X5660248Y-15484682D01*
X5660248Y-15515317D01*
X5662334Y-15515732D01*
X5649500Y-15580251D01*
X5649500Y-16519748D01*
X5661132Y-16578230D01*
X5661133Y-16578232D01*
X5705447Y-16644552D01*
X5771767Y-16688866D01*
X5771769Y-16688867D01*
X5830252Y-16700500D01*
X6669748Y-16700500D01*
X6728231Y-16688867D01*
X6794552Y-16644552D01*
X6838867Y-16578231D01*
X6850500Y-16519748D01*
X6850500Y-15692469D01*
X10069660Y-15692469D01*
X10069661Y-15692470D01*
X10080123Y-15697089D01*
X10080127Y-15697091D01*
X10105198Y-15699999D01*
X11094792Y-15699999D01*
X11119878Y-15697089D01*
X11130337Y-15692470D01*
X11130338Y-15692470D01*
X11130337Y-15692469D01*
X12269660Y-15692469D01*
X12269661Y-15692470D01*
X12280123Y-15697089D01*
X12280127Y-15697091D01*
X12305198Y-15699999D01*
X13294792Y-15699999D01*
X13319878Y-15697089D01*
X13330337Y-15692470D01*
X13330338Y-15692470D01*
X13330337Y-15692469D01*
X14469660Y-15692469D01*
X14469661Y-15692470D01*
X14480123Y-15697089D01*
X14480127Y-15697091D01*
X14505198Y-15699999D01*
X15494792Y-15699999D01*
X15519878Y-15697089D01*
X15530337Y-15692470D01*
X15530338Y-15692470D01*
X15530337Y-15692469D01*
X16669660Y-15692469D01*
X16669661Y-15692470D01*
X16680123Y-15697089D01*
X16680127Y-15697091D01*
X16705198Y-15699999D01*
X17694792Y-15699999D01*
X17719878Y-15697089D01*
X17730337Y-15692470D01*
X17730338Y-15692470D01*
X17730337Y-15692469D01*
X18869660Y-15692469D01*
X18869661Y-15692470D01*
X18880123Y-15697089D01*
X18880127Y-15697091D01*
X18905198Y-15699999D01*
X19894792Y-15699999D01*
X19919878Y-15697089D01*
X19930337Y-15692470D01*
X19930338Y-15692470D01*
X19400000Y-15162132D01*
X18869660Y-15692469D01*
X17730337Y-15692469D01*
X17200000Y-15162132D01*
X16669660Y-15692469D01*
X15530337Y-15692469D01*
X15000000Y-15162132D01*
X14469660Y-15692469D01*
X13330337Y-15692469D01*
X12800000Y-15162132D01*
X12269660Y-15692469D01*
X11130337Y-15692469D01*
X10600000Y-15162132D01*
X10069660Y-15692469D01*
X6850500Y-15692469D01*
X6850500Y-15580252D01*
X6838867Y-15521769D01*
X6838866Y-15521768D01*
X6837666Y-15515731D01*
X6839758Y-15515314D01*
X6839754Y-15484684D01*
X6837666Y-15484269D01*
X6840528Y-15469880D01*
X6850500Y-15419748D01*
X6850500Y-14480252D01*
X6845517Y-14455199D01*
X9850000Y-14455199D01*
X9850000Y-15444791D01*
X9852911Y-15469878D01*
X9852911Y-15469880D01*
X9857528Y-15480337D01*
X9857529Y-15480337D01*
X10387868Y-14949999D01*
X10812132Y-14949999D01*
X10812132Y-14950000D01*
X11342470Y-15480338D01*
X11342470Y-15480337D01*
X11347089Y-15469876D01*
X11349999Y-15444792D01*
X11349999Y-14455207D01*
X11349998Y-14455199D01*
X12050000Y-14455199D01*
X12050000Y-15444791D01*
X12052911Y-15469878D01*
X12052911Y-15469880D01*
X12057528Y-15480337D01*
X12057529Y-15480337D01*
X12587868Y-14949999D01*
X13012132Y-14949999D01*
X13012132Y-14950000D01*
X13542470Y-15480338D01*
X13542470Y-15480337D01*
X13547089Y-15469876D01*
X13549999Y-15444792D01*
X13549999Y-14455207D01*
X13549998Y-14455199D01*
X14250000Y-14455199D01*
X14250000Y-15444791D01*
X14252911Y-15469878D01*
X14252911Y-15469880D01*
X14257528Y-15480337D01*
X14257529Y-15480337D01*
X14787868Y-14949999D01*
X15212132Y-14949999D01*
X15212132Y-14950000D01*
X15742470Y-15480338D01*
X15742470Y-15480337D01*
X15747089Y-15469876D01*
X15749999Y-15444792D01*
X15749999Y-14455207D01*
X15749998Y-14455199D01*
X16450000Y-14455199D01*
X16450000Y-15444791D01*
X16452911Y-15469878D01*
X16452911Y-15469880D01*
X16457528Y-15480337D01*
X16457529Y-15480337D01*
X16987868Y-14949999D01*
X17412132Y-14949999D01*
X17412132Y-14950000D01*
X17942470Y-15480338D01*
X17942470Y-15480337D01*
X17947089Y-15469876D01*
X17949999Y-15444792D01*
X17949999Y-14455207D01*
X17949998Y-14455199D01*
X18650000Y-14455199D01*
X18650000Y-15444791D01*
X18652911Y-15469878D01*
X18652911Y-15469880D01*
X18657528Y-15480337D01*
X18657529Y-15480337D01*
X19187868Y-14949999D01*
X19612132Y-14949999D01*
X19612132Y-14950000D01*
X20142470Y-15480338D01*
X20142470Y-15480337D01*
X20147089Y-15469876D01*
X20149999Y-15444792D01*
X20149999Y-14455207D01*
X20147089Y-14430126D01*
X20147087Y-14430118D01*
X20142470Y-14419661D01*
X20142469Y-14419660D01*
X19612132Y-14949999D01*
X19187868Y-14949999D01*
X18657529Y-14419660D01*
X18657528Y-14419660D01*
X18652909Y-14430125D01*
X18650000Y-14455199D01*
X17949998Y-14455199D01*
X17947089Y-14430126D01*
X17947087Y-14430118D01*
X17942470Y-14419661D01*
X17942469Y-14419660D01*
X17412132Y-14949999D01*
X16987868Y-14949999D01*
X16457529Y-14419660D01*
X16457528Y-14419660D01*
X16452909Y-14430125D01*
X16450000Y-14455199D01*
X15749998Y-14455199D01*
X15747089Y-14430126D01*
X15747087Y-14430118D01*
X15742470Y-14419661D01*
X15742469Y-14419660D01*
X15212132Y-14949999D01*
X14787868Y-14949999D01*
X14257529Y-14419660D01*
X14257528Y-14419660D01*
X14252909Y-14430125D01*
X14250000Y-14455199D01*
X13549998Y-14455199D01*
X13547089Y-14430126D01*
X13547087Y-14430118D01*
X13542470Y-14419661D01*
X13542469Y-14419660D01*
X13012132Y-14949999D01*
X12587868Y-14949999D01*
X12057529Y-14419660D01*
X12057528Y-14419660D01*
X12052909Y-14430125D01*
X12050000Y-14455199D01*
X11349998Y-14455199D01*
X11347089Y-14430126D01*
X11347087Y-14430118D01*
X11342470Y-14419661D01*
X11342469Y-14419660D01*
X10812132Y-14949999D01*
X10387868Y-14949999D01*
X9857529Y-14419660D01*
X9857528Y-14419660D01*
X9852909Y-14430125D01*
X9850000Y-14455199D01*
X6845517Y-14455199D01*
X6838867Y-14421769D01*
X6837939Y-14420381D01*
X6836373Y-14413032D01*
X6839755Y-14394715D01*
X6839754Y-14384684D01*
X6837666Y-14384269D01*
X6838867Y-14378231D01*
X6850500Y-14319748D01*
X6850500Y-14207529D01*
X10069660Y-14207529D01*
X10599999Y-14737868D01*
X11130337Y-14207529D01*
X12269660Y-14207529D01*
X12799999Y-14737868D01*
X13330337Y-14207529D01*
X14469660Y-14207529D01*
X14999999Y-14737868D01*
X15530337Y-14207529D01*
X16669660Y-14207529D01*
X17199999Y-14737868D01*
X17730337Y-14207529D01*
X18869660Y-14207529D01*
X19399999Y-14737868D01*
X19930337Y-14207529D01*
X19919872Y-14202909D01*
X19919869Y-14202908D01*
X19894800Y-14200000D01*
X18905208Y-14200000D01*
X18880124Y-14202910D01*
X18869660Y-14207529D01*
X17730337Y-14207529D01*
X17719872Y-14202909D01*
X17719869Y-14202908D01*
X17694800Y-14200000D01*
X16705208Y-14200000D01*
X16680124Y-14202910D01*
X16669660Y-14207529D01*
X15530337Y-14207529D01*
X15519872Y-14202909D01*
X15519869Y-14202908D01*
X15494800Y-14200000D01*
X14505208Y-14200000D01*
X14480124Y-14202910D01*
X14469660Y-14207529D01*
X13330337Y-14207529D01*
X13319872Y-14202909D01*
X13319869Y-14202908D01*
X13294800Y-14200000D01*
X12305208Y-14200000D01*
X12280124Y-14202910D01*
X12269660Y-14207529D01*
X11130337Y-14207529D01*
X11119872Y-14202909D01*
X11119869Y-14202908D01*
X11094800Y-14200000D01*
X10105208Y-14200000D01*
X10080124Y-14202910D01*
X10069660Y-14207529D01*
X6850500Y-14207529D01*
X6850500Y-14042469D01*
X10069660Y-14042469D01*
X10069661Y-14042470D01*
X10080123Y-14047089D01*
X10080127Y-14047091D01*
X10105198Y-14049999D01*
X11094792Y-14049999D01*
X11119878Y-14047089D01*
X11130337Y-14042470D01*
X11130338Y-14042470D01*
X11130337Y-14042469D01*
X12269660Y-14042469D01*
X12269661Y-14042470D01*
X12280123Y-14047089D01*
X12280127Y-14047091D01*
X12305198Y-14049999D01*
X13294792Y-14049999D01*
X13319878Y-14047089D01*
X13330337Y-14042470D01*
X13330338Y-14042470D01*
X13330337Y-14042469D01*
X14469660Y-14042469D01*
X14469661Y-14042470D01*
X14480123Y-14047089D01*
X14480127Y-14047091D01*
X14505198Y-14049999D01*
X15494792Y-14049999D01*
X15519878Y-14047089D01*
X15530337Y-14042470D01*
X15530338Y-14042470D01*
X15530337Y-14042469D01*
X16669660Y-14042469D01*
X16669661Y-14042470D01*
X16680123Y-14047089D01*
X16680127Y-14047091D01*
X16705198Y-14049999D01*
X17694792Y-14049999D01*
X17719878Y-14047089D01*
X17730337Y-14042470D01*
X17730338Y-14042470D01*
X17730337Y-14042469D01*
X18869660Y-14042469D01*
X18869661Y-14042470D01*
X18880123Y-14047089D01*
X18880127Y-14047091D01*
X18905198Y-14049999D01*
X19894792Y-14049999D01*
X19919878Y-14047089D01*
X19930337Y-14042470D01*
X19930338Y-14042470D01*
X19400000Y-13512132D01*
X18869660Y-14042469D01*
X17730337Y-14042469D01*
X17200000Y-13512132D01*
X16669660Y-14042469D01*
X15530337Y-14042469D01*
X15000000Y-13512132D01*
X14469660Y-14042469D01*
X13330337Y-14042469D01*
X12800000Y-13512132D01*
X12269660Y-14042469D01*
X11130337Y-14042469D01*
X10600000Y-13512132D01*
X10069660Y-14042469D01*
X6850500Y-14042469D01*
X6850500Y-13380252D01*
X6838867Y-13321769D01*
X6838866Y-13321768D01*
X6837666Y-13315731D01*
X6839758Y-13315314D01*
X6839754Y-13284684D01*
X6837666Y-13284269D01*
X6838867Y-13278231D01*
X6850500Y-13219748D01*
X6850500Y-12805199D01*
X9850000Y-12805199D01*
X9850000Y-13794791D01*
X9852911Y-13819878D01*
X9852911Y-13819880D01*
X9857528Y-13830337D01*
X9857529Y-13830337D01*
X10387868Y-13299999D01*
X10812132Y-13299999D01*
X10812132Y-13300000D01*
X11342470Y-13830338D01*
X11342470Y-13830337D01*
X11347089Y-13819876D01*
X11349999Y-13794792D01*
X11349999Y-12805207D01*
X11349998Y-12805199D01*
X12050000Y-12805199D01*
X12050000Y-13794791D01*
X12052911Y-13819878D01*
X12052911Y-13819880D01*
X12057528Y-13830337D01*
X12057529Y-13830337D01*
X12587868Y-13299999D01*
X13012132Y-13299999D01*
X13012132Y-13300000D01*
X13542470Y-13830338D01*
X13542470Y-13830337D01*
X13547089Y-13819876D01*
X13549999Y-13794792D01*
X13549999Y-12805207D01*
X13549998Y-12805199D01*
X14250000Y-12805199D01*
X14250000Y-13794791D01*
X14252911Y-13819878D01*
X14252911Y-13819880D01*
X14257528Y-13830337D01*
X14257529Y-13830337D01*
X14787868Y-13299999D01*
X15212132Y-13299999D01*
X15212132Y-13300000D01*
X15742470Y-13830338D01*
X15742470Y-13830337D01*
X15747089Y-13819876D01*
X15749999Y-13794792D01*
X15749999Y-12805207D01*
X15749998Y-12805199D01*
X16450000Y-12805199D01*
X16450000Y-13794791D01*
X16452911Y-13819878D01*
X16452911Y-13819880D01*
X16457528Y-13830337D01*
X16457529Y-13830337D01*
X16987868Y-13299999D01*
X17412132Y-13299999D01*
X17412132Y-13300000D01*
X17942470Y-13830338D01*
X17942470Y-13830337D01*
X17947089Y-13819876D01*
X17949999Y-13794792D01*
X17949999Y-12805207D01*
X17949998Y-12805199D01*
X18650000Y-12805199D01*
X18650000Y-13794791D01*
X18652911Y-13819878D01*
X18652911Y-13819880D01*
X18657528Y-13830337D01*
X18657529Y-13830337D01*
X19187868Y-13299999D01*
X19612132Y-13299999D01*
X19612132Y-13300000D01*
X20142470Y-13830338D01*
X20142470Y-13830337D01*
X20147089Y-13819876D01*
X20149999Y-13794792D01*
X20149999Y-12805207D01*
X20147089Y-12780126D01*
X20147087Y-12780118D01*
X20142470Y-12769661D01*
X20142469Y-12769660D01*
X19612132Y-13299999D01*
X19187868Y-13299999D01*
X18657529Y-12769660D01*
X18657528Y-12769660D01*
X18652909Y-12780125D01*
X18650000Y-12805199D01*
X17949998Y-12805199D01*
X17947089Y-12780126D01*
X17947087Y-12780118D01*
X17942470Y-12769661D01*
X17942469Y-12769660D01*
X17412132Y-13299999D01*
X16987868Y-13299999D01*
X16457529Y-12769660D01*
X16457528Y-12769660D01*
X16452909Y-12780125D01*
X16450000Y-12805199D01*
X15749998Y-12805199D01*
X15747089Y-12780126D01*
X15747087Y-12780118D01*
X15742470Y-12769661D01*
X15742469Y-12769660D01*
X15212132Y-13299999D01*
X14787868Y-13299999D01*
X14257529Y-12769660D01*
X14257528Y-12769660D01*
X14252909Y-12780125D01*
X14250000Y-12805199D01*
X13549998Y-12805199D01*
X13547089Y-12780126D01*
X13547087Y-12780118D01*
X13542470Y-12769661D01*
X13542469Y-12769660D01*
X13012132Y-13299999D01*
X12587868Y-13299999D01*
X12057529Y-12769660D01*
X12057528Y-12769660D01*
X12052909Y-12780125D01*
X12050000Y-12805199D01*
X11349998Y-12805199D01*
X11347089Y-12780126D01*
X11347087Y-12780118D01*
X11342470Y-12769661D01*
X11342469Y-12769660D01*
X10812132Y-13299999D01*
X10387868Y-13299999D01*
X9857529Y-12769660D01*
X9857528Y-12769660D01*
X9852909Y-12780125D01*
X9850000Y-12805199D01*
X6850500Y-12805199D01*
X6850500Y-12557529D01*
X10069660Y-12557529D01*
X10599999Y-13087868D01*
X11130337Y-12557529D01*
X12269660Y-12557529D01*
X12799999Y-13087868D01*
X13330337Y-12557529D01*
X14469660Y-12557529D01*
X14999999Y-13087868D01*
X15530337Y-12557529D01*
X16669660Y-12557529D01*
X17199999Y-13087868D01*
X17730337Y-12557529D01*
X18869660Y-12557529D01*
X19399999Y-13087868D01*
X19930337Y-12557529D01*
X19919872Y-12552909D01*
X19919869Y-12552908D01*
X19894800Y-12550000D01*
X18905208Y-12550000D01*
X18880124Y-12552910D01*
X18869660Y-12557529D01*
X17730337Y-12557529D01*
X17719872Y-12552909D01*
X17719869Y-12552908D01*
X17694800Y-12550000D01*
X16705208Y-12550000D01*
X16680124Y-12552910D01*
X16669660Y-12557529D01*
X15530337Y-12557529D01*
X15519872Y-12552909D01*
X15519869Y-12552908D01*
X15494800Y-12550000D01*
X14505208Y-12550000D01*
X14480124Y-12552910D01*
X14469660Y-12557529D01*
X13330337Y-12557529D01*
X13319872Y-12552909D01*
X13319869Y-12552908D01*
X13294800Y-12550000D01*
X12305208Y-12550000D01*
X12280124Y-12552910D01*
X12269660Y-12557529D01*
X11130337Y-12557529D01*
X11119872Y-12552909D01*
X11119869Y-12552908D01*
X11094800Y-12550000D01*
X10105208Y-12550000D01*
X10080124Y-12552910D01*
X10069660Y-12557529D01*
X6850500Y-12557529D01*
X6850500Y-12392469D01*
X12269660Y-12392469D01*
X12269661Y-12392470D01*
X12280123Y-12397089D01*
X12280127Y-12397091D01*
X12305198Y-12399999D01*
X13294792Y-12399999D01*
X13319878Y-12397089D01*
X13330337Y-12392470D01*
X13330338Y-12392470D01*
X13330337Y-12392469D01*
X18869660Y-12392469D01*
X18869661Y-12392470D01*
X18880123Y-12397089D01*
X18880127Y-12397091D01*
X18905198Y-12399999D01*
X19894792Y-12399999D01*
X19919878Y-12397089D01*
X19930337Y-12392470D01*
X19930338Y-12392470D01*
X19400000Y-11862132D01*
X18869660Y-12392469D01*
X13330337Y-12392469D01*
X12800000Y-11862132D01*
X12269660Y-12392469D01*
X6850500Y-12392469D01*
X6850500Y-12280252D01*
X6838867Y-12221769D01*
X6794552Y-12155448D01*
X6783256Y-12147900D01*
X6783252Y-12147896D01*
X6728232Y-12111133D01*
X6728230Y-12111132D01*
X6669748Y-12099500D01*
X6513256Y-12099500D01*
X6469062Y-12081194D01*
X6250000Y-11862132D01*
X6030938Y-12081194D01*
X5986744Y-12099500D01*
X5830252Y-12099500D01*
X5771769Y-12111132D01*
X5771767Y-12111133D01*
X5716744Y-12147898D01*
X5716737Y-12147904D01*
X5705448Y-12155448D01*
X5697904Y-12166737D01*
X5697898Y-12166744D01*
X5661133Y-12221767D01*
X5661132Y-12221769D01*
X5649500Y-12280251D01*
X3957616Y-12280251D01*
X4100000Y-12137867D01*
X5550000Y-12137867D01*
X5632710Y-12055157D01*
X6037867Y-11649999D01*
X6462132Y-11649999D01*
X6462132Y-11650000D01*
X6867288Y-12055156D01*
X6894844Y-12082713D01*
X6949998Y-12137867D01*
X6949999Y-12137867D01*
X6949999Y-11180251D01*
X9949500Y-11180251D01*
X9949500Y-12119748D01*
X9961132Y-12178230D01*
X9961133Y-12178232D01*
X10005447Y-12244552D01*
X10071767Y-12288866D01*
X10071769Y-12288867D01*
X10130252Y-12300500D01*
X11069748Y-12300500D01*
X11128231Y-12288867D01*
X11194552Y-12244552D01*
X11238867Y-12178231D01*
X11250500Y-12119748D01*
X11250500Y-11180252D01*
X11249809Y-11176781D01*
X11247585Y-11165594D01*
X11245517Y-11155199D01*
X12050000Y-11155199D01*
X12050000Y-12144791D01*
X12052911Y-12169878D01*
X12052911Y-12169880D01*
X12057528Y-12180337D01*
X12057529Y-12180337D01*
X12587868Y-11649999D01*
X13012132Y-11649999D01*
X13012132Y-11650000D01*
X13542470Y-12180338D01*
X13542470Y-12180337D01*
X13547089Y-12169876D01*
X13549999Y-12144792D01*
X13549999Y-11180251D01*
X14349500Y-11180251D01*
X14349500Y-12119748D01*
X14361132Y-12178230D01*
X14361133Y-12178232D01*
X14405447Y-12244552D01*
X14471767Y-12288866D01*
X14471769Y-12288867D01*
X14530252Y-12300500D01*
X15469748Y-12300500D01*
X15528231Y-12288867D01*
X15594552Y-12244552D01*
X15638867Y-12178231D01*
X15650500Y-12119748D01*
X15650500Y-11180252D01*
X15650500Y-11180251D01*
X16549500Y-11180251D01*
X16549500Y-12119748D01*
X16561132Y-12178230D01*
X16561133Y-12178232D01*
X16605447Y-12244552D01*
X16671767Y-12288866D01*
X16671769Y-12288867D01*
X16730252Y-12300500D01*
X17669748Y-12300500D01*
X17728231Y-12288867D01*
X17794552Y-12244552D01*
X17838867Y-12178231D01*
X17850500Y-12119748D01*
X17850500Y-11180252D01*
X17849809Y-11176781D01*
X17847585Y-11165594D01*
X17845517Y-11155199D01*
X18650000Y-11155199D01*
X18650000Y-12144791D01*
X18652911Y-12169878D01*
X18652911Y-12169880D01*
X18657528Y-12180337D01*
X18657529Y-12180337D01*
X19187868Y-11649999D01*
X19612132Y-11649999D01*
X19612132Y-11650000D01*
X19981194Y-12019062D01*
X19998913Y-12061839D01*
X19998966Y-12061833D01*
X19998991Y-12062029D01*
X19999500Y-12063256D01*
X19999500Y-12065890D01*
X19999501Y-12065898D01*
X20033606Y-12193182D01*
X20033607Y-12193185D01*
X20050109Y-12221767D01*
X20095565Y-12300499D01*
X20099501Y-12307315D01*
X20099504Y-12307319D01*
X20192680Y-12400495D01*
X20192684Y-12400498D01*
X20192686Y-12400500D01*
X20306814Y-12466392D01*
X20306817Y-12466393D01*
X20384712Y-12487264D01*
X20434108Y-12500500D01*
X20434109Y-12500500D01*
X20565891Y-12500500D01*
X20565892Y-12500500D01*
X20693186Y-12466392D01*
X20807314Y-12400500D01*
X20889008Y-12318806D01*
X20933202Y-12300500D01*
X23087000Y-12300500D01*
X23131194Y-12318806D01*
X23149500Y-12363000D01*
X23149500Y-13219748D01*
X23162334Y-13284268D01*
X23160248Y-13284682D01*
X23160248Y-13315317D01*
X23162334Y-13315732D01*
X23149500Y-13380251D01*
X23149500Y-14319748D01*
X23162334Y-14384268D01*
X23160248Y-14384682D01*
X23160248Y-14415317D01*
X23162334Y-14415732D01*
X23161133Y-14421768D01*
X23161133Y-14421769D01*
X23149500Y-14480252D01*
X23149500Y-15419748D01*
X23159471Y-15469878D01*
X23162334Y-15484268D01*
X23160248Y-15484682D01*
X23160248Y-15515317D01*
X23162334Y-15515732D01*
X23149500Y-15580251D01*
X23149500Y-16519748D01*
X23161132Y-16578230D01*
X23161133Y-16578232D01*
X23205447Y-16644552D01*
X23271767Y-16688866D01*
X23271769Y-16688867D01*
X23330252Y-16700500D01*
X24169748Y-16700500D01*
X24228231Y-16688867D01*
X24294552Y-16644552D01*
X24338867Y-16578231D01*
X24350500Y-16519748D01*
X24350500Y-16413000D01*
X24368806Y-16368806D01*
X24413000Y-16350500D01*
X28066798Y-16350500D01*
X28110992Y-16368806D01*
X28192680Y-16450495D01*
X28192684Y-16450498D01*
X28192686Y-16450500D01*
X28306814Y-16516392D01*
X28306817Y-16516393D01*
X28384712Y-16537264D01*
X28434108Y-16550500D01*
X28434109Y-16550500D01*
X28565891Y-16550500D01*
X28565892Y-16550500D01*
X28693186Y-16516392D01*
X28807314Y-16450500D01*
X28900500Y-16357314D01*
X28966392Y-16243186D01*
X29000500Y-16115892D01*
X29000500Y-15984108D01*
X28972250Y-15878675D01*
X28978493Y-15831249D01*
X29016444Y-15802129D01*
X29032620Y-15799999D01*
X29144792Y-15799999D01*
X29169876Y-15797089D01*
X29272479Y-15751785D01*
X29351785Y-15672479D01*
X29397090Y-15569872D01*
X29397091Y-15569872D01*
X29399999Y-15544802D01*
X29399999Y-14405207D01*
X29397089Y-14380123D01*
X29351785Y-14277520D01*
X29272479Y-14198214D01*
X29169872Y-14152909D01*
X29169872Y-14152908D01*
X29144801Y-14150000D01*
X29037131Y-14150000D01*
X28230438Y-14956694D01*
X28186244Y-14975000D01*
X27938756Y-14975000D01*
X27894562Y-14956694D01*
X27876256Y-14912500D01*
X27894562Y-14868306D01*
X28612867Y-14150000D01*
X27250748Y-14150000D01*
X27206554Y-14131694D01*
X27188248Y-14087500D01*
X27189449Y-14075307D01*
X27192490Y-14060012D01*
X27200500Y-14019748D01*
X27200500Y-12980252D01*
X27188867Y-12921769D01*
X27188866Y-12921767D01*
X27144552Y-12855447D01*
X27078232Y-12811133D01*
X27078230Y-12811132D01*
X27019748Y-12799500D01*
X26838000Y-12799500D01*
X26793806Y-12781194D01*
X26775500Y-12737000D01*
X26775500Y-11960438D01*
X26775499Y-11960432D01*
X26764616Y-11919822D01*
X26755021Y-11884011D01*
X26715460Y-11815489D01*
X26715458Y-11815487D01*
X26715455Y-11815483D01*
X26659516Y-11759544D01*
X26659512Y-11759541D01*
X26659511Y-11759540D01*
X26590989Y-11719979D01*
X26590988Y-11719978D01*
X26590987Y-11719978D01*
X26514567Y-11699500D01*
X26514562Y-11699500D01*
X24413000Y-11699500D01*
X24368806Y-11681194D01*
X24350500Y-11637000D01*
X24350500Y-11180252D01*
X24338867Y-11121769D01*
X24294552Y-11055448D01*
X24283256Y-11047900D01*
X24283252Y-11047896D01*
X24228232Y-11011133D01*
X24228230Y-11011132D01*
X24169748Y-10999500D01*
X24013256Y-10999500D01*
X23969062Y-10981194D01*
X23750000Y-10762132D01*
X23530938Y-10981194D01*
X23486744Y-10999500D01*
X23330252Y-10999500D01*
X23271769Y-11011132D01*
X23271767Y-11011133D01*
X23216744Y-11047898D01*
X23216737Y-11047904D01*
X23205448Y-11055448D01*
X23197904Y-11066737D01*
X23197898Y-11066744D01*
X23161133Y-11121767D01*
X23161132Y-11121769D01*
X23149500Y-11180251D01*
X23149500Y-11637000D01*
X23131194Y-11681194D01*
X23087000Y-11699500D01*
X20933202Y-11699500D01*
X20889008Y-11681194D01*
X20807319Y-11599504D01*
X20807315Y-11599501D01*
X20807314Y-11599500D01*
X20716628Y-11547142D01*
X20693185Y-11533607D01*
X20693182Y-11533606D01*
X20565898Y-11499501D01*
X20565893Y-11499500D01*
X20565892Y-11499500D01*
X20434108Y-11499500D01*
X20434107Y-11499500D01*
X20434101Y-11499501D01*
X20306817Y-11533606D01*
X20306814Y-11533607D01*
X20283372Y-11547142D01*
X20243748Y-11570019D01*
X20196323Y-11576262D01*
X20158372Y-11547142D01*
X20149999Y-11515892D01*
X20149999Y-11155207D01*
X20147089Y-11130126D01*
X20147087Y-11130118D01*
X20142470Y-11119661D01*
X20142469Y-11119660D01*
X19612132Y-11649999D01*
X19187868Y-11649999D01*
X18657529Y-11119660D01*
X18657528Y-11119660D01*
X18652909Y-11130125D01*
X18650000Y-11155199D01*
X17845517Y-11155199D01*
X17840529Y-11130125D01*
X17838867Y-11121769D01*
X17838866Y-11121767D01*
X17794552Y-11055447D01*
X17728232Y-11011133D01*
X17728230Y-11011132D01*
X17669748Y-10999500D01*
X16730252Y-10999500D01*
X16671769Y-11011132D01*
X16671767Y-11011133D01*
X16605447Y-11055447D01*
X16561133Y-11121767D01*
X16561132Y-11121769D01*
X16549500Y-11180251D01*
X15650500Y-11180251D01*
X15638867Y-11121769D01*
X15638866Y-11121767D01*
X15594552Y-11055447D01*
X15528232Y-11011133D01*
X15528230Y-11011132D01*
X15469748Y-10999500D01*
X14530252Y-10999500D01*
X14471769Y-11011132D01*
X14471767Y-11011133D01*
X14405447Y-11055447D01*
X14361133Y-11121767D01*
X14361132Y-11121769D01*
X14349500Y-11180251D01*
X13549999Y-11180251D01*
X13549999Y-11155207D01*
X13547089Y-11130126D01*
X13547087Y-11130118D01*
X13542470Y-11119661D01*
X13542469Y-11119660D01*
X13012132Y-11649999D01*
X12587868Y-11649999D01*
X12057529Y-11119660D01*
X12057528Y-11119660D01*
X12052909Y-11130125D01*
X12050000Y-11155199D01*
X11245517Y-11155199D01*
X11240529Y-11130125D01*
X11238867Y-11121769D01*
X11238866Y-11121767D01*
X11194552Y-11055447D01*
X11128232Y-11011133D01*
X11128230Y-11011132D01*
X11069748Y-10999500D01*
X10130252Y-10999500D01*
X10071769Y-11011132D01*
X10071767Y-11011133D01*
X10005447Y-11055447D01*
X9961133Y-11121767D01*
X9961132Y-11121769D01*
X9949500Y-11180251D01*
X6949999Y-11180251D01*
X6949999Y-11162131D01*
X6949998Y-11162131D01*
X6867284Y-11244845D01*
X6462132Y-11649999D01*
X6037867Y-11649999D01*
X5632711Y-11244843D01*
X5605155Y-11217286D01*
X5550000Y-11162131D01*
X5550000Y-12137867D01*
X4100000Y-12137867D01*
X4168566Y-12069301D01*
X4122479Y-12023214D01*
X4019872Y-11977909D01*
X4019872Y-11977908D01*
X3994801Y-11975000D01*
X2905207Y-11975000D01*
X2880123Y-11977910D01*
X2777520Y-12023213D01*
X2731433Y-12069300D01*
X200500Y-12069300D01*
X200500Y-7930698D01*
X2731433Y-7930698D01*
X2777520Y-7976785D01*
X2880127Y-8022090D01*
X2880127Y-8022091D01*
X2905198Y-8024999D01*
X3994792Y-8024999D01*
X4019876Y-8022089D01*
X4122479Y-7976785D01*
X4168566Y-7930698D01*
X3450000Y-7212132D01*
X2731433Y-7930698D01*
X200500Y-7930698D01*
X200500Y-1959998D01*
X15612131Y-1959998D01*
X15612132Y-1959999D01*
X16287868Y-1959999D01*
X16437868Y-1810000D01*
X16100000Y-1472132D01*
X15694845Y-1877284D01*
X15612131Y-1959998D01*
X200500Y-1959998D01*
X200500Y-263000D01*
X218806Y-218806D01*
X263000Y-200500D01*
X2723640Y-200500D01*
X2767834Y-218806D01*
G37*
%TD.AperFunction*%
%TA.AperFunction,Conductor*%
G36*
X15096894Y-26804087D02*
G01*
X15126016Y-26842035D01*
X15127083Y-26869699D01*
X15122318Y-26895187D01*
X15496694Y-27269562D01*
X15515000Y-27313756D01*
X15515000Y-27561244D01*
X15496694Y-27605438D01*
X15452500Y-27623744D01*
X15408306Y-27605438D01*
X14964883Y-27162015D01*
X14948707Y-27133997D01*
X14919799Y-27026114D01*
X14919796Y-27026108D01*
X14860491Y-26923390D01*
X14860484Y-26923381D01*
X14844297Y-26907194D01*
X14825991Y-26863000D01*
X14844297Y-26818806D01*
X14888491Y-26800500D01*
X15039562Y-26800500D01*
X15039567Y-26800499D01*
X15049467Y-26797846D01*
X15096894Y-26804087D01*
G37*
%TD.AperFunction*%
%TA.AperFunction,Conductor*%
G36*
X5481194Y-21188806D02*
G01*
X5499500Y-21233000D01*
X5499500Y-21470389D01*
X5488967Y-21505112D01*
X5461133Y-21546767D01*
X5461132Y-21546769D01*
X5449500Y-21605251D01*
X5449500Y-21894748D01*
X5461132Y-21953230D01*
X5461133Y-21953231D01*
X5469182Y-21965278D01*
X5478513Y-22012195D01*
X5469182Y-22034722D01*
X5461133Y-22046768D01*
X5461132Y-22046769D01*
X5449500Y-22105251D01*
X5449500Y-22247506D01*
X5431194Y-22291700D01*
X5387000Y-22310006D01*
X5370823Y-22307876D01*
X5339567Y-22299500D01*
X5339562Y-22299500D01*
X5133202Y-22299500D01*
X5089008Y-22281194D01*
X5014635Y-22206820D01*
X4996329Y-22162626D01*
X5014635Y-22118432D01*
X5033584Y-22105451D01*
X5061148Y-22093280D01*
X4680000Y-21712132D01*
X4298850Y-22093280D01*
X4330124Y-22107089D01*
X4340609Y-22108306D01*
X4382399Y-22131583D01*
X4395490Y-22177593D01*
X4377600Y-22214584D01*
X4299504Y-22292680D01*
X4299501Y-22292684D01*
X4233607Y-22406814D01*
X4233606Y-22406817D01*
X4199501Y-22534101D01*
X4199500Y-22534109D01*
X4199500Y-22665890D01*
X4199501Y-22665898D01*
X4233606Y-22793182D01*
X4233607Y-22793185D01*
X4287347Y-22886264D01*
X4289185Y-22897053D01*
X4661694Y-23269562D01*
X4680000Y-23313756D01*
X4680000Y-23686243D01*
X4661694Y-23730437D01*
X4447955Y-23944175D01*
X4419939Y-23960351D01*
X4384010Y-23969978D01*
X4384008Y-23969979D01*
X4315490Y-24009539D01*
X4315488Y-24009541D01*
X4276207Y-24048820D01*
X4263265Y-24058750D01*
X4192686Y-24099499D01*
X4192680Y-24099504D01*
X4099504Y-24192680D01*
X4099501Y-24192684D01*
X4033607Y-24306814D01*
X4033606Y-24306817D01*
X3999501Y-24434101D01*
X3999500Y-24434109D01*
X3999500Y-24565890D01*
X3999501Y-24565898D01*
X4033606Y-24693182D01*
X4033607Y-24693185D01*
X4051830Y-24724748D01*
X4093112Y-24796250D01*
X4099501Y-24807315D01*
X4099504Y-24807319D01*
X4192680Y-24900495D01*
X4192684Y-24900498D01*
X4192686Y-24900500D01*
X4306814Y-24966392D01*
X4361276Y-24980985D01*
X4389292Y-24997160D01*
X5258639Y-25866507D01*
X5259999Y-25854791D01*
X5259999Y-25785300D01*
X5278304Y-25741105D01*
X5322498Y-25722799D01*
X5338674Y-25724928D01*
X5434108Y-25750500D01*
X5434109Y-25750500D01*
X5565891Y-25750500D01*
X5565892Y-25750500D01*
X5693186Y-25716392D01*
X5807314Y-25650500D01*
X5864008Y-25593805D01*
X5908201Y-25575500D01*
X6362000Y-25575500D01*
X6406194Y-25593806D01*
X6424500Y-25638000D01*
X6424500Y-26369748D01*
X6436132Y-26428230D01*
X6436133Y-26428232D01*
X6480447Y-26494552D01*
X6546767Y-26538866D01*
X6546769Y-26538867D01*
X6605252Y-26550500D01*
X6894748Y-26550500D01*
X6953231Y-26538867D01*
X6965277Y-26530817D01*
X7012192Y-26521485D01*
X7034721Y-26530817D01*
X7046769Y-26538867D01*
X7105252Y-26550500D01*
X7394748Y-26550500D01*
X7453231Y-26538867D01*
X7465277Y-26530817D01*
X7512192Y-26521485D01*
X7534721Y-26530817D01*
X7546769Y-26538867D01*
X7605252Y-26550500D01*
X7894748Y-26550500D01*
X7953231Y-26538867D01*
X7965277Y-26530817D01*
X8012192Y-26521485D01*
X8034721Y-26530817D01*
X8046769Y-26538867D01*
X8105252Y-26550500D01*
X8394748Y-26550500D01*
X8453231Y-26538867D01*
X8465277Y-26530817D01*
X8512192Y-26521485D01*
X8534721Y-26530817D01*
X8546769Y-26538867D01*
X8605252Y-26550500D01*
X8894748Y-26550500D01*
X8953231Y-26538867D01*
X8965277Y-26530817D01*
X9012192Y-26521485D01*
X9034721Y-26530817D01*
X9046769Y-26538867D01*
X9105252Y-26550500D01*
X9394749Y-26550500D01*
X9397805Y-26550199D01*
X9398003Y-26552210D01*
X9438988Y-26560341D01*
X9461025Y-26586103D01*
X9463274Y-26590970D01*
X9469979Y-26615989D01*
X9494351Y-26658203D01*
X9495541Y-26660777D01*
X9496398Y-26682063D01*
X9499178Y-26703177D01*
X9497345Y-26705564D01*
X9497467Y-26708574D01*
X9483023Y-26724230D01*
X9470058Y-26741127D01*
X9466573Y-26742060D01*
X9465031Y-26743733D01*
X9459499Y-26743955D01*
X9438808Y-26749500D01*
X4032754Y-26749500D01*
X3988560Y-26731194D01*
X3970254Y-26687000D01*
X3972384Y-26670824D01*
X3987077Y-26615989D01*
X4000500Y-26565892D01*
X4000500Y-26434108D01*
X3975167Y-26339562D01*
X3966393Y-26306817D01*
X3966392Y-26306814D01*
X3900500Y-26192686D01*
X3900498Y-26192684D01*
X3900495Y-26192680D01*
X3868806Y-26160991D01*
X3850500Y-26116797D01*
X3850500Y-26093280D01*
X4298850Y-26093280D01*
X4330127Y-26107090D01*
X4330127Y-26107091D01*
X4355198Y-26109999D01*
X5004792Y-26109999D01*
X5029875Y-26107089D01*
X5029879Y-26107088D01*
X5061148Y-26093281D01*
X5061148Y-26093280D01*
X4680000Y-25712132D01*
X4298850Y-26093280D01*
X3850500Y-26093280D01*
X3850500Y-26073000D01*
X3868806Y-26028806D01*
X3913000Y-26010500D01*
X4019747Y-26010500D01*
X4019748Y-26010500D01*
X4078231Y-25998867D01*
X4144552Y-25954552D01*
X4188867Y-25888231D01*
X4200500Y-25829748D01*
X4200500Y-25793256D01*
X4218806Y-25749062D01*
X4467868Y-25500000D01*
X4218806Y-25250938D01*
X4200500Y-25206744D01*
X4200500Y-25170252D01*
X4188867Y-25111769D01*
X4188866Y-25111767D01*
X4144552Y-25045447D01*
X4078232Y-25001133D01*
X4078230Y-25001132D01*
X4019748Y-24989500D01*
X3913000Y-24989500D01*
X3868806Y-24971194D01*
X3850500Y-24927000D01*
X3850500Y-24073000D01*
X3868806Y-24028806D01*
X3913000Y-24010500D01*
X4019748Y-24010500D01*
X4078231Y-23998867D01*
X4144552Y-23954552D01*
X4188867Y-23888231D01*
X4200500Y-23829748D01*
X4200500Y-23793256D01*
X4218806Y-23749062D01*
X4467868Y-23500000D01*
X4218806Y-23250938D01*
X4200500Y-23206744D01*
X4200500Y-23170252D01*
X4188867Y-23111769D01*
X4188866Y-23111767D01*
X4144552Y-23045447D01*
X4078232Y-23001133D01*
X4078230Y-23001132D01*
X4019748Y-22989500D01*
X3913000Y-22989500D01*
X3868806Y-22971194D01*
X3850500Y-22927000D01*
X3850500Y-22073000D01*
X3868806Y-22028806D01*
X3913000Y-22010500D01*
X4019748Y-22010500D01*
X4078231Y-21998867D01*
X4144552Y-21954552D01*
X4188867Y-21888231D01*
X4200500Y-21829748D01*
X4200500Y-21793256D01*
X4218806Y-21749062D01*
X4635806Y-21332062D01*
X4680000Y-21313756D01*
X4724194Y-21332062D01*
X5258639Y-21866507D01*
X5259999Y-21854790D01*
X5259999Y-21233000D01*
X5278305Y-21188806D01*
X5322499Y-21170500D01*
X5437000Y-21170500D01*
X5481194Y-21188806D01*
G37*
%TD.AperFunction*%
%TA.AperFunction,Conductor*%
G36*
X10331194Y-21668806D02*
G01*
X10349500Y-21713000D01*
X10349500Y-21836744D01*
X10331194Y-21880938D01*
X6880938Y-25331194D01*
X6836744Y-25349500D01*
X6713000Y-25349500D01*
X6668806Y-25331194D01*
X6650500Y-25287000D01*
X6650500Y-25163256D01*
X6668806Y-25119062D01*
X10119062Y-21668806D01*
X10163256Y-21650500D01*
X10287000Y-21650500D01*
X10331194Y-21668806D01*
G37*
%TD.AperFunction*%
%TA.AperFunction,Conductor*%
G36*
X13124194Y-21832062D02*
G01*
X13521194Y-22229062D01*
X13539500Y-22273256D01*
X13539500Y-22329748D01*
X13551132Y-22388230D01*
X13551133Y-22388232D01*
X13595447Y-22454552D01*
X13661767Y-22498866D01*
X13661769Y-22498867D01*
X13720252Y-22510500D01*
X14319748Y-22510500D01*
X14378231Y-22498867D01*
X14444552Y-22454552D01*
X14488867Y-22388231D01*
X14500500Y-22329748D01*
X14500500Y-22293256D01*
X14518806Y-22249062D01*
X14873306Y-21894562D01*
X14917500Y-21876256D01*
X14961694Y-21894562D01*
X14980000Y-21938756D01*
X14980000Y-22186243D01*
X14961694Y-22230437D01*
X14598850Y-22593280D01*
X14630127Y-22607090D01*
X14630127Y-22607091D01*
X14655198Y-22609999D01*
X15162000Y-22609999D01*
X15206194Y-22628305D01*
X15224500Y-22672499D01*
X15224500Y-22962000D01*
X15206194Y-23006194D01*
X15162000Y-23024500D01*
X14207697Y-23024500D01*
X14106445Y-23066440D01*
X14106440Y-23066444D01*
X14028944Y-23143940D01*
X14028940Y-23143945D01*
X13987000Y-23245197D01*
X13987000Y-23299500D01*
X13968694Y-23343694D01*
X13924500Y-23362000D01*
X13564255Y-23362000D01*
X13520061Y-23343694D01*
X13501755Y-23299500D01*
X13511150Y-23276817D01*
X13509166Y-23266201D01*
X13507375Y-23265410D01*
X13482293Y-23262500D01*
X13437131Y-23262500D01*
X13212132Y-23487499D01*
X13212132Y-23487500D01*
X13249999Y-23525367D01*
X13255305Y-23520062D01*
X13299499Y-23501755D01*
X13343693Y-23520060D01*
X13362000Y-23564254D01*
X13362000Y-23675000D01*
X13343694Y-23719194D01*
X13299500Y-23737500D01*
X13063756Y-23737500D01*
X13019562Y-23719194D01*
X13000000Y-23699632D01*
X12949632Y-23750000D01*
X13412131Y-24212499D01*
X13482292Y-24212499D01*
X13507376Y-24209589D01*
X13609979Y-24164285D01*
X13642959Y-24131306D01*
X13687153Y-24113000D01*
X13712500Y-24113000D01*
X13756694Y-24131306D01*
X13775000Y-24175500D01*
X13775001Y-24387000D01*
X13756695Y-24431194D01*
X13712501Y-24449500D01*
X13287500Y-24449500D01*
X13243306Y-24431194D01*
X13225000Y-24387001D01*
X13224999Y-24293500D01*
X13094756Y-24293500D01*
X13050562Y-24275194D01*
X12737500Y-23962132D01*
X12699632Y-24000000D01*
X12905438Y-24205806D01*
X12923744Y-24250000D01*
X12905438Y-24294194D01*
X12843438Y-24356194D01*
X12799244Y-24374500D01*
X12551756Y-24374500D01*
X12507562Y-24356194D01*
X12489256Y-24312000D01*
X12507562Y-24267806D01*
X12525368Y-24250000D01*
X12487500Y-24212132D01*
X12424438Y-24275194D01*
X12380244Y-24293500D01*
X12250001Y-24293500D01*
X12250001Y-24469792D01*
X12252910Y-24494873D01*
X12252912Y-24494881D01*
X12261357Y-24514008D01*
X12279436Y-24517388D01*
X12287000Y-24514256D01*
X12331194Y-24532562D01*
X12349500Y-24576756D01*
X12349500Y-24944750D01*
X12358064Y-24987808D01*
X12358875Y-25006971D01*
X12358579Y-25009606D01*
X12349500Y-25055252D01*
X12349500Y-25090496D01*
X12349110Y-25093971D01*
X12339110Y-25112082D01*
X12331194Y-25131194D01*
X12327777Y-25132609D01*
X12325989Y-25135848D01*
X12306110Y-25141584D01*
X12287000Y-25149500D01*
X12183202Y-25149500D01*
X12139008Y-25131194D01*
X12107314Y-25099500D01*
X12033380Y-25056814D01*
X11993185Y-25033607D01*
X11993182Y-25033606D01*
X11865898Y-24999501D01*
X11865893Y-24999500D01*
X11865892Y-24999500D01*
X11734108Y-24999500D01*
X11734107Y-24999500D01*
X11734101Y-24999501D01*
X11615236Y-25031350D01*
X11567810Y-25025106D01*
X11538690Y-24987156D01*
X11537761Y-24958786D01*
X11538865Y-24953233D01*
X11538867Y-24953231D01*
X11550500Y-24894748D01*
X11550500Y-24605252D01*
X11538867Y-24546769D01*
X11530817Y-24534722D01*
X11521485Y-24487808D01*
X11530817Y-24465278D01*
X11538867Y-24453231D01*
X11550500Y-24394748D01*
X11550500Y-24105252D01*
X11538867Y-24046769D01*
X11526712Y-24028578D01*
X11525292Y-24024732D01*
X12250634Y-24024732D01*
X12275368Y-24000000D01*
X12250636Y-23975268D01*
X12252669Y-23992796D01*
X12252669Y-24007200D01*
X12250634Y-24024732D01*
X11525292Y-24024732D01*
X11524154Y-24021651D01*
X11524819Y-24004571D01*
X11521485Y-23987808D01*
X11525887Y-23977179D01*
X11526017Y-23973852D01*
X11528041Y-23971979D01*
X11530817Y-23965278D01*
X11538867Y-23953231D01*
X11550500Y-23894748D01*
X11550500Y-23605252D01*
X11538867Y-23546769D01*
X11529550Y-23532826D01*
X11528433Y-23530858D01*
X11528351Y-23530197D01*
X12250000Y-23530197D01*
X12250000Y-23706500D01*
X12380244Y-23706500D01*
X12424438Y-23724806D01*
X12487500Y-23787868D01*
X12525368Y-23750000D01*
X12261358Y-23485990D01*
X12252909Y-23505126D01*
X12252908Y-23505130D01*
X12250000Y-23530197D01*
X11528351Y-23530197D01*
X11525741Y-23509203D01*
X11521485Y-23487808D01*
X11522713Y-23484843D01*
X11522532Y-23483387D01*
X11524206Y-23481236D01*
X11530817Y-23465278D01*
X11538867Y-23453231D01*
X11550500Y-23394748D01*
X11550500Y-23278701D01*
X12478333Y-23278701D01*
X12737500Y-23537868D01*
X12787868Y-23487500D01*
X12575368Y-23275000D01*
X12505209Y-23275000D01*
X12480124Y-23277910D01*
X12478333Y-23278701D01*
X11550500Y-23278701D01*
X11550500Y-23266201D01*
X12990833Y-23266201D01*
X12999999Y-23275367D01*
X13012229Y-23263136D01*
X12992625Y-23265410D01*
X12990833Y-23266201D01*
X11550500Y-23266201D01*
X11550500Y-23105252D01*
X11538867Y-23046769D01*
X11530817Y-23034722D01*
X11521485Y-22987808D01*
X11530817Y-22965278D01*
X11538867Y-22953231D01*
X11550500Y-22894748D01*
X11550500Y-22605252D01*
X11548119Y-22593280D01*
X12698850Y-22593280D01*
X12730127Y-22607090D01*
X12730127Y-22607091D01*
X12755198Y-22609999D01*
X13404792Y-22609999D01*
X13429875Y-22607089D01*
X13429879Y-22607088D01*
X13461148Y-22593281D01*
X13461148Y-22593280D01*
X13080000Y-22212132D01*
X12698850Y-22593280D01*
X11548119Y-22593280D01*
X11538867Y-22546769D01*
X11530817Y-22534722D01*
X11521485Y-22487808D01*
X11523936Y-22478950D01*
X11526533Y-22471689D01*
X11538867Y-22453231D01*
X11546046Y-22417137D01*
X11547598Y-22412800D01*
X11560799Y-22398231D01*
X11571722Y-22381884D01*
X11576468Y-22380939D01*
X11579719Y-22377353D01*
X11599356Y-22376386D01*
X11618638Y-22372551D01*
X11622662Y-22375239D01*
X11627496Y-22375002D01*
X11642064Y-22388203D01*
X11658412Y-22399126D01*
X11658413Y-22399126D01*
X11695448Y-22454553D01*
X11761767Y-22498866D01*
X11761769Y-22498867D01*
X11820252Y-22510500D01*
X12419747Y-22510500D01*
X12419748Y-22510500D01*
X12478231Y-22498867D01*
X12544552Y-22454552D01*
X12588867Y-22388231D01*
X12600500Y-22329748D01*
X12600500Y-22293256D01*
X12618806Y-22249062D01*
X13035806Y-21832062D01*
X13080000Y-21813756D01*
X13124194Y-21832062D01*
G37*
%TD.AperFunction*%
%TA.AperFunction,Conductor*%
G36*
X14492438Y-24143806D02*
G01*
X14510744Y-24188000D01*
X14510744Y-24312000D01*
X14492438Y-24356194D01*
X14448244Y-24374500D01*
X14200756Y-24374500D01*
X14156562Y-24356194D01*
X14094562Y-24294194D01*
X14076256Y-24250000D01*
X14094562Y-24205806D01*
X14156562Y-24143806D01*
X14200756Y-24125500D01*
X14448244Y-24125500D01*
X14492438Y-24143806D01*
G37*
%TD.AperFunction*%
%TA.AperFunction,Conductor*%
G36*
X17899113Y-22307951D02*
G01*
X17900329Y-22306132D01*
X17971767Y-22353866D01*
X17971769Y-22353867D01*
X18030252Y-22365500D01*
X20019748Y-22365500D01*
X20078231Y-22353867D01*
X20091141Y-22345240D01*
X20102277Y-22337800D01*
X20120157Y-22334243D01*
X20137000Y-22327267D01*
X20142914Y-22329716D01*
X20149193Y-22328468D01*
X20164351Y-22338596D01*
X20181194Y-22345573D01*
X20183643Y-22351487D01*
X20188967Y-22355044D01*
X20199500Y-22389767D01*
X20199500Y-22499226D01*
X20181194Y-22543420D01*
X20137000Y-22561726D01*
X20111756Y-22556401D01*
X20069876Y-22537910D01*
X20069872Y-22537908D01*
X20044801Y-22535000D01*
X19837131Y-22535000D01*
X19237132Y-23134999D01*
X19237132Y-23135000D01*
X19837131Y-23734999D01*
X19971399Y-23734999D01*
X19979202Y-23738231D01*
X19987575Y-23737129D01*
X20000519Y-23747061D01*
X20015593Y-23753305D01*
X20018824Y-23761107D01*
X20025526Y-23766249D01*
X20027655Y-23782426D01*
X20033899Y-23797499D01*
X20031769Y-23813675D01*
X20019845Y-23858176D01*
X19990725Y-23896127D01*
X19959475Y-23904500D01*
X18030252Y-23904500D01*
X17971769Y-23916132D01*
X17971767Y-23916133D01*
X17900329Y-23963868D01*
X17899113Y-23962048D01*
X17863000Y-23977007D01*
X17818806Y-23958701D01*
X17800500Y-23914507D01*
X17800500Y-23748695D01*
X17818806Y-23704501D01*
X17863000Y-23686195D01*
X17888246Y-23691521D01*
X17980124Y-23732090D01*
X17980127Y-23732091D01*
X18005198Y-23734999D01*
X18212867Y-23734999D01*
X18212868Y-23734998D01*
X18637131Y-23734998D01*
X18637132Y-23734999D01*
X19412867Y-23734999D01*
X19412867Y-23734998D01*
X19025000Y-23347132D01*
X18637131Y-23734998D01*
X18212868Y-23734998D01*
X18271727Y-23676140D01*
X18812867Y-23134999D01*
X18212868Y-22535000D01*
X18637131Y-22535000D01*
X19024999Y-22922868D01*
X19412867Y-22535000D01*
X18637131Y-22535000D01*
X18212868Y-22535000D01*
X18005207Y-22535000D01*
X17980123Y-22537910D01*
X17888245Y-22578479D01*
X17840422Y-22579584D01*
X17805825Y-22546549D01*
X17800500Y-22521304D01*
X17800500Y-22355493D01*
X17818806Y-22311299D01*
X17863000Y-22292993D01*
X17899113Y-22307951D01*
G37*
%TD.AperFunction*%
%TA.AperFunction,Conductor*%
G36*
X16534723Y-21882235D02*
G01*
X16551967Y-21899479D01*
X16595447Y-21964552D01*
X16661767Y-22008866D01*
X16661769Y-22008867D01*
X16720252Y-22020500D01*
X17137000Y-22020500D01*
X17181194Y-22038806D01*
X17199500Y-22083000D01*
X17199500Y-23817500D01*
X17181194Y-23861694D01*
X17137000Y-23880000D01*
X16695207Y-23880000D01*
X16670123Y-23882910D01*
X16563970Y-23929781D01*
X16516147Y-23930885D01*
X16481550Y-23897851D01*
X16478355Y-23888782D01*
X16456393Y-23806817D01*
X16456392Y-23806814D01*
X16445453Y-23787868D01*
X16390500Y-23692686D01*
X16390498Y-23692684D01*
X16390495Y-23692680D01*
X16297319Y-23599504D01*
X16297315Y-23599501D01*
X16297314Y-23599500D01*
X16212444Y-23550500D01*
X16183185Y-23533607D01*
X16183182Y-23533606D01*
X16055898Y-23499501D01*
X16055893Y-23499500D01*
X16055892Y-23499500D01*
X15924108Y-23499500D01*
X15924107Y-23499500D01*
X15924101Y-23499501D01*
X15811946Y-23529553D01*
X15764520Y-23523310D01*
X15735400Y-23485359D01*
X15738028Y-23445265D01*
X15770865Y-23365989D01*
X15775500Y-23354800D01*
X15775500Y-22083000D01*
X15793806Y-22038806D01*
X15838000Y-22020500D01*
X16279748Y-22020500D01*
X16338231Y-22008867D01*
X16404552Y-21964552D01*
X16448033Y-21899478D01*
X16487807Y-21872903D01*
X16534723Y-21882235D01*
G37*
%TD.AperFunction*%
%TD*%
M02*
