M48
; DRILL file KiCad 10.0.3 date 2026-06-08T18:32:02
; FORMAT={-:-/ absolute / metric / decimal}
; #@! TF.CreationDate,2026-06-08T18:32:02+09:00
; #@! TF.GenerationSoftware,Kicad,Pcbnew,10.0.3
; #@! TF.FileFunction,MixedPlating,1,2
FMAT,2
METRIC
; #@! TA.AperFunction,Plated,PTH,ViaDrill
T1C0.300
%
G90
G05
T1
X3.5Y-26.5
X4.0Y-18.5
X4.0Y-18.5
X6.05Y-22.5
X6.5Y-19.6
X6.5Y-21.0
X7.75Y-19.6
X7.75Y-25.95
X10.75Y-30.5
X11.25Y-32.0
X11.25Y-34.2
X11.25Y-34.2
X11.8Y-19.6
X11.8Y-19.6
X11.8Y-23.0
X11.8Y-25.5
X11.8Y-25.5
X13.51Y-32.0
X15.49Y-26.3
X15.49Y-26.3
X15.99Y-24.0
X16.485Y-27.5
X19.025Y-24.405
X19.5Y-23.5
X20.0Y-29.8
X20.5Y-24.0
X25.5Y-11.5
X26.55Y-19.6
X26.55Y-25.0
X29.5Y-5.0
X29.5Y-12.0
X29.5Y-19.0
X29.5Y-25.0
X29.5Y-30.0
M30
