%TF.GenerationSoftware,KiCad,Pcbnew,10.0.3*%
%TF.CreationDate,2026-06-08T18:32:01+09:00*%
%TF.ProjectId,lte-m-cat-tracker,6c74652d-6d2d-4636-9174-2d747261636b,rev?*%
%TF.SameCoordinates,Original*%
%TF.FileFunction,Other,User*%
%FSLAX46Y46*%
G04 Gerber Fmt 4.6, Leading zero omitted, Abs format (unit mm)*
G04 Created by KiCad (PCBNEW 10.0.3) date 2026-06-08 18:32:01*
%MOMM*%
%LPD*%
G01*
G04 APERTURE LIST*
%ADD10C,0.050000*%
G04 APERTURE END LIST*
%TO.C,R3*%
D10*
X15570000Y-24030000D02*
X17430000Y-24030000D01*
X17430000Y-24970000D01*
X15570000Y-24970000D01*
X15570000Y-24030000D01*
%TO.C,J2*%
X7200000Y-30500000D02*
X16800000Y-30500000D01*
X16800000Y-34500000D01*
X7200000Y-34500000D01*
X7200000Y-30500000D01*
%TO.C,R7*%
X15570000Y-21030000D02*
X17430000Y-21030000D01*
X17430000Y-21970000D01*
X15570000Y-21970000D01*
X15570000Y-21030000D01*
%TO.C,ANT3*%
X500000Y-18000000D02*
X4100000Y-18000000D01*
X4100000Y-20000000D01*
X500000Y-20000000D01*
X500000Y-18000000D01*
%TO.C,C6*%
X9590000Y-19340000D02*
X11410000Y-19340000D01*
X11410000Y-20260000D01*
X9590000Y-20260000D01*
X9590000Y-19340000D01*
%TO.C,U4*%
X17800000Y-20040000D02*
X19300000Y-20040000D01*
X17800000Y-24960000D02*
X17800000Y-20040000D01*
X19300000Y-19800000D02*
X23700000Y-19800000D01*
X19300000Y-20040000D02*
X19300000Y-19800000D01*
X19300000Y-24960000D02*
X17800000Y-24960000D01*
X19300000Y-25200000D02*
X19300000Y-24960000D01*
X23700000Y-19800000D02*
X23700000Y-20040000D01*
X23700000Y-20040000D02*
X25200000Y-20040000D01*
X23700000Y-24960000D02*
X23700000Y-25200000D01*
X23700000Y-25200000D02*
X19300000Y-25200000D01*
X25200000Y-20040000D02*
X25200000Y-24960000D01*
X25200000Y-24960000D02*
X23700000Y-24960000D01*
%TO.C,J1*%
X20000Y-34000000D02*
X120000Y-34000000D01*
X20000Y-37700000D02*
X20000Y-34000000D01*
X120000Y-32400000D02*
X2070000Y-32400000D01*
X120000Y-34000000D02*
X120000Y-32400000D01*
X2030000Y-37450000D02*
X2030000Y-37700000D01*
X2030000Y-37700000D02*
X20000Y-37700000D01*
X2070000Y-31300000D02*
X4930000Y-31300000D01*
X2070000Y-32400000D02*
X2070000Y-31300000D01*
X4930000Y-31300000D02*
X4930000Y-32400000D01*
X4930000Y-32400000D02*
X6880000Y-32400000D01*
X4970000Y-37450000D02*
X2030000Y-37450000D01*
X4970000Y-37700000D02*
X4970000Y-37450000D01*
X6880000Y-32400000D02*
X6880000Y-34000000D01*
X6880000Y-34000000D02*
X6980000Y-34000000D01*
X6980000Y-34000000D02*
X6980000Y-37700000D01*
X6980000Y-37700000D02*
X4970000Y-37700000D01*
%TO.C,R6*%
X12070000Y-20530000D02*
X13930000Y-20530000D01*
X13930000Y-21470000D01*
X12070000Y-21470000D01*
X12070000Y-20530000D01*
%TO.C,R4*%
X15070000Y-25830000D02*
X16930000Y-25830000D01*
X16930000Y-26770000D01*
X15070000Y-26770000D01*
X15070000Y-25830000D01*
%TO.C,C11*%
X800000Y-6020000D02*
X4200000Y-6020000D01*
X4200000Y-7980000D01*
X800000Y-7980000D01*
X800000Y-6020000D01*
%TO.C,U1*%
X5700000Y-1650000D02*
X24300000Y-1650000D01*
X24300000Y-18350000D01*
X5700000Y-18350000D01*
X5700000Y-1650000D01*
%TO.C,C1*%
X3290000Y-21040000D02*
X5110000Y-21040000D01*
X5110000Y-21960000D01*
X3290000Y-21960000D01*
X3290000Y-21040000D01*
%TO.C,C2*%
X3290000Y-23040000D02*
X5110000Y-23040000D01*
X5110000Y-23960000D01*
X3290000Y-23960000D01*
X3290000Y-23040000D01*
%TO.C,LED1*%
X15070000Y-27030000D02*
X16930000Y-27030000D01*
X16930000Y-27970000D01*
X15070000Y-27970000D01*
X15070000Y-27030000D01*
%TO.C,ANT2*%
X29600000Y-11700000D02*
X29800000Y-11700000D01*
X29800000Y-15300000D01*
X29600000Y-15300000D01*
X29600000Y-16000000D01*
X26400000Y-16000000D01*
X26400000Y-15300000D01*
X26200000Y-15300000D01*
X26200000Y-14500000D01*
X25450000Y-14500000D01*
X25450000Y-12500000D01*
X26200000Y-12500000D01*
X26200000Y-11700000D01*
X26400000Y-11700000D01*
X26400000Y-11000000D01*
X29600000Y-11000000D01*
X29600000Y-11700000D01*
%TO.C,C9*%
X9800000Y-27520000D02*
X13200000Y-27520000D01*
X13200000Y-29480000D01*
X9800000Y-29480000D01*
X9800000Y-27520000D01*
%TO.C,C5*%
X7590000Y-19340000D02*
X9410000Y-19340000D01*
X9410000Y-20260000D01*
X7590000Y-20260000D01*
X7590000Y-19340000D01*
%TO.C,C8*%
X13590000Y-21540000D02*
X15410000Y-21540000D01*
X15410000Y-22460000D01*
X13590000Y-22460000D01*
X13590000Y-21540000D01*
%TO.C,U5*%
X25450000Y-20500000D02*
X26450000Y-20500000D01*
X25450000Y-23500000D02*
X25450000Y-20500000D01*
X26450000Y-20300000D02*
X28550000Y-20300000D01*
X26450000Y-20500000D02*
X26450000Y-20300000D01*
X26450000Y-23500000D02*
X25450000Y-23500000D01*
X26450000Y-23700000D02*
X26450000Y-23500000D01*
X28550000Y-20300000D02*
X28550000Y-20500000D01*
X28550000Y-20500000D02*
X29550000Y-20500000D01*
X28550000Y-21610000D02*
X28550000Y-22390000D01*
X28550000Y-22390000D02*
X29550000Y-22390000D01*
X28550000Y-23500000D02*
X28550000Y-23700000D01*
X28550000Y-23700000D02*
X26450000Y-23700000D01*
X29550000Y-20500000D02*
X29550000Y-21610000D01*
X29550000Y-21610000D02*
X28550000Y-21610000D01*
X29550000Y-22390000D02*
X29550000Y-23500000D01*
X29550000Y-23500000D02*
X28550000Y-23500000D01*
%TO.C,U2*%
X5400000Y-21370000D02*
X5750000Y-21370000D01*
X5400000Y-25630000D02*
X5400000Y-21370000D01*
X5750000Y-20750000D02*
X6370000Y-20750000D01*
X5750000Y-21370000D02*
X5750000Y-20750000D01*
X5750000Y-25630000D02*
X5400000Y-25630000D01*
X5750000Y-26250000D02*
X5750000Y-25630000D01*
X6370000Y-20400000D02*
X10630000Y-20400000D01*
X6370000Y-20750000D02*
X6370000Y-20400000D01*
X6370000Y-26250000D02*
X5750000Y-26250000D01*
X6370000Y-26600000D02*
X6370000Y-26250000D01*
X10630000Y-20400000D02*
X10630000Y-20750000D01*
X10630000Y-20750000D02*
X11250000Y-20750000D01*
X10630000Y-26250000D02*
X10630000Y-26600000D01*
X10630000Y-26600000D02*
X6370000Y-26600000D01*
X11250000Y-20750000D02*
X11250000Y-21370000D01*
X11250000Y-21370000D02*
X11600000Y-21370000D01*
X11250000Y-25630000D02*
X11250000Y-26250000D01*
X11250000Y-26250000D02*
X10630000Y-26250000D01*
X11600000Y-21370000D02*
X11600000Y-25630000D01*
X11600000Y-25630000D02*
X11250000Y-25630000D01*
%TO.C,C10*%
X25800000Y-24020000D02*
X29200000Y-24020000D01*
X29200000Y-25980000D01*
X25800000Y-25980000D01*
X25800000Y-24020000D01*
%TO.C,C7*%
X11690000Y-21540000D02*
X13510000Y-21540000D01*
X13510000Y-22460000D01*
X11690000Y-22460000D01*
X11690000Y-21540000D01*
%TO.C,ANT1*%
X29600000Y-2700000D02*
X29800000Y-2700000D01*
X29800000Y-6300000D01*
X29600000Y-6300000D01*
X29600000Y-7000000D01*
X26400000Y-7000000D01*
X26400000Y-6300000D01*
X26200000Y-6300000D01*
X26200000Y-5500000D01*
X25450000Y-5500000D01*
X25450000Y-3500000D01*
X26200000Y-3500000D01*
X26200000Y-2700000D01*
X26400000Y-2700000D01*
X26400000Y-2000000D01*
X29600000Y-2000000D01*
X29600000Y-2700000D01*
%TO.C,C12*%
X800000Y-12020000D02*
X4200000Y-12020000D01*
X4200000Y-13980000D01*
X800000Y-13980000D01*
X800000Y-12020000D01*
%TO.C,C13*%
X2900000Y-32050000D02*
X6100000Y-32050000D01*
X6100000Y-34550000D01*
X2900000Y-34550000D01*
X2900000Y-32050000D01*
%TO.C,R5*%
X12070000Y-19330000D02*
X13930000Y-19330000D01*
X13930000Y-20270000D01*
X12070000Y-20270000D01*
X12070000Y-19330000D01*
%TO.C,U3*%
X12250000Y-23250000D02*
X14750000Y-23250000D01*
X12250000Y-25750000D02*
X12250000Y-23250000D01*
X14750000Y-23250000D02*
X14750000Y-25750000D01*
X14750000Y-25750000D02*
X12250000Y-25750000D01*
%TO.C,R2*%
X14570000Y-29330000D02*
X16430000Y-29330000D01*
X16430000Y-30270000D01*
X14570000Y-30270000D01*
X14570000Y-29330000D01*
%TO.C,C4*%
X5590000Y-18540000D02*
X7410000Y-18540000D01*
X7410000Y-19460000D01*
X5590000Y-19460000D01*
X5590000Y-18540000D01*
%TO.C,SIM1*%
X17200000Y-26700000D02*
X30000000Y-26700000D01*
X30000000Y-35000000D01*
X17200000Y-35000000D01*
X17200000Y-26700000D01*
%TO.C,C3*%
X3290000Y-25040000D02*
X5110000Y-25040000D01*
X5110000Y-25960000D01*
X3290000Y-25960000D01*
X3290000Y-25040000D01*
%TO.C,SW1*%
X0Y-26800000D02*
X9000000Y-26800000D01*
X9000000Y-30900000D01*
X0Y-30900000D01*
X0Y-26800000D01*
%TO.C,R1*%
X12070000Y-29730000D02*
X13930000Y-29730000D01*
X13930000Y-30670000D01*
X12070000Y-30670000D01*
X12070000Y-29730000D01*
%TD*%
M02*
