%TF.GenerationSoftware,KiCad,Pcbnew,10.0.3*%
%TF.CreationDate,2026-06-10T18:34:28+09:00*%
%TF.ProjectId,lte-m-cat-tracker,6c74652d-6d2d-4636-9174-2d747261636b,rev?*%
%TF.SameCoordinates,Original*%
%TF.FileFunction,Copper,L2,Bot*%
%TF.FilePolarity,Positive*%
%FSLAX46Y46*%
G04 Gerber Fmt 4.6, Leading zero omitted, Abs format (unit mm)*
G04 Created by KiCad (PCBNEW 10.0.3) date 2026-06-10 18:34:28*
%MOMM*%
%LPD*%
G01*
G04 APERTURE LIST*
%TA.AperFunction,ViaPad*%
%ADD10C,0.600000*%
%TD*%
%TA.AperFunction,Conductor*%
%ADD11C,0.200000*%
%TD*%
%TA.AperFunction,Conductor*%
%ADD12C,0.500000*%
%TD*%
%TA.AperFunction,Conductor*%
%ADD13C,0.300000*%
%TD*%
%TA.AperFunction,Conductor*%
%ADD14C,0.150000*%
%TD*%
G04 APERTURE END LIST*
D10*
%TO.N,PROG*%
X15990000Y-24000000D03*
X20500000Y-24000000D03*
%TO.N,GND*%
X4500000Y-25400000D03*
X10730000Y-19200000D03*
X12900000Y-22200000D03*
X19800000Y-28200000D03*
X11950000Y-28500000D03*
X29500000Y-25000000D03*
X29500000Y-12000000D03*
X11600000Y-28200000D03*
X16860000Y-23400000D03*
X27900000Y-25000000D03*
X18250000Y-28200000D03*
X15515000Y-27500000D03*
X12200000Y-31300000D03*
X4000000Y-18500000D03*
X7000000Y-23300000D03*
X29500000Y-19000000D03*
X4000000Y-18500000D03*
X29500000Y-30000000D03*
X25300000Y-3000000D03*
X18100000Y-23000000D03*
X19500000Y-23500000D03*
X25500000Y-11500000D03*
X29500000Y-5000000D03*
X15600000Y-27500000D03*
X12490000Y-31250000D03*
X26600000Y-26500000D03*
%TO.N,VUSB*%
X10750000Y-30500000D03*
X19025000Y-24405000D03*
%TO.N,CC1*%
X13510000Y-32000000D03*
X11250000Y-32000000D03*
%TO.N,CC2*%
X20000000Y-29800000D03*
X11100000Y-33900000D03*
%TO.N,+3.3V*%
X26550000Y-25000000D03*
X3500000Y-26500000D03*
X7750000Y-25950000D03*
X11800000Y-19600000D03*
X11800000Y-19600000D03*
X6500000Y-19600000D03*
X11800000Y-25500000D03*
X7750000Y-19600000D03*
X11800000Y-25500000D03*
X6050000Y-22500000D03*
X6500000Y-21000000D03*
X26550000Y-19600000D03*
%TO.N,I2C_SDA*%
X9150000Y-25950000D03*
X15200000Y-20500000D03*
X13350000Y-21000000D03*
%TO.N,LED_ANODE*%
X15490000Y-26300000D03*
X15490000Y-26300000D03*
X16485000Y-27500000D03*
%TO.N,VBAT_SW*%
X19400000Y-1260000D03*
X27500000Y-21050000D03*
X1550000Y-13000000D03*
X2000000Y-28850000D03*
X1550000Y-7000000D03*
%TO.N,SIM_DATA*%
X26400000Y-28000000D03*
X12800000Y-18740000D03*
%TO.N,SIM_CLK*%
X13900000Y-18740000D03*
X24700000Y-28800000D03*
%TO.N,SIM_RST*%
X15000000Y-18740000D03*
X24000000Y-31300000D03*
%TO.N,SIM_VDD*%
X16100000Y-18740000D03*
X22000000Y-28800000D03*
%TO.N,SIM_TXD*%
X10100000Y-21000000D03*
X28500000Y-16050000D03*
%TO.N,SIM_RXD*%
X8700000Y-21050000D03*
X25300000Y-14950000D03*
X25300000Y-33000000D03*
X8350000Y-33000000D03*
%TO.N,SIM_RESETN*%
X4500000Y-24500000D03*
X3000000Y-900000D03*
X26700000Y-2400000D03*
X26700000Y-9450000D03*
%TO.N,SIM_PWRKEY*%
X5500000Y-25250000D03*
X13900000Y-1260000D03*
%TO.N,SIM_STATUS*%
X4700000Y-22600000D03*
X4700000Y-1260000D03*
%TO.N,GNSS_ANT*%
X20500000Y-12000000D03*
X20500000Y-5050000D03*
%TO.N,ACCEL_INT1*%
X10850000Y-25950000D03*
X13750000Y-25950000D03*
%TD*%
%TO.N,PROG*%
D11*
X15990000Y-24000000D02*
X20500000Y-24000000D01*
%TO.N,GND*%
X19800000Y-28200000D02*
X20300000Y-28200000D01*
X15600000Y-28200000D02*
X18250000Y-28200000D01*
X15600000Y-27500000D02*
X15600000Y-28200000D01*
%TO.N,VUSB*%
D12*
X10750000Y-30500000D02*
X19025000Y-30500000D01*
X19025000Y-30500000D02*
X19025000Y-24405000D01*
%TO.N,CC1*%
D11*
X13510000Y-32000000D02*
X11250000Y-32000000D01*
%TO.N,CC2*%
X20000000Y-34200000D02*
X11100000Y-34200000D01*
X11100000Y-34200000D02*
X11100000Y-33900000D01*
X20000000Y-29800000D02*
X20000000Y-34200000D01*
%TO.N,+3.3V*%
D13*
X6500000Y-19600000D02*
X6500000Y-21000000D01*
X7750000Y-19600000D02*
X7750000Y-25950000D01*
X11800000Y-19600000D02*
X11800000Y-25500000D01*
X7750000Y-25950000D02*
X7750000Y-26500000D01*
X11800000Y-19600000D02*
X11800000Y-25500000D01*
X26550000Y-19600000D02*
X26550000Y-25000000D01*
X6050000Y-22500000D02*
X7750000Y-22500000D01*
X7750000Y-26500000D02*
X3500000Y-26500000D01*
%TO.N,I2C_SDA*%
D14*
X9300000Y-18450000D02*
X12280000Y-18450000D01*
X12280000Y-18450000D02*
X12280000Y-19450000D01*
X12280000Y-19450000D02*
X15350000Y-19450000D01*
X15350000Y-20100000D02*
X15200000Y-20100000D01*
X9150000Y-25950000D02*
X9150000Y-22000000D01*
X13350000Y-19450000D02*
X13350000Y-21000000D01*
X9300000Y-22000000D02*
X9300000Y-18450000D01*
X9150000Y-22000000D02*
X9300000Y-22000000D01*
X15350000Y-19450000D02*
X15350000Y-20100000D01*
X15200000Y-20100000D02*
X15200000Y-20500000D01*
%TO.N,LED_ANODE*%
D11*
X15490000Y-26300000D02*
X16485000Y-26300000D01*
X16485000Y-26300000D02*
X16485000Y-27500000D01*
%TO.N,VBAT_SW*%
D12*
X27500000Y-1260000D02*
X27500000Y-21050000D01*
X1550000Y-7000000D02*
X1550000Y-13000000D01*
X1550000Y-13000000D02*
X1550000Y-28850000D01*
X1550000Y-28850000D02*
X2000000Y-28850000D01*
X19400000Y-1260000D02*
X27500000Y-1260000D01*
%TO.N,SIM_DATA*%
D11*
X26000000Y-28000000D02*
X26400000Y-28000000D01*
X26000000Y-2000000D02*
X26000000Y-28000000D01*
X12800000Y-2000000D02*
X26000000Y-2000000D01*
X12800000Y-18740000D02*
X12800000Y-2000000D01*
%TO.N,SIM_CLK*%
X24700000Y-2500000D02*
X24700000Y-28800000D01*
X13900000Y-2500000D02*
X24700000Y-2500000D01*
X13900000Y-18740000D02*
X13900000Y-2500000D01*
%TO.N,SIM_RST*%
X24000000Y-3000000D02*
X24000000Y-31300000D01*
X15000000Y-3000000D02*
X24000000Y-3000000D01*
X15000000Y-18740000D02*
X15000000Y-3000000D01*
%TO.N,SIM_VDD*%
X16100000Y-3500000D02*
X22000000Y-3500000D01*
X22000000Y-3500000D02*
X22000000Y-28800000D01*
X16100000Y-18740000D02*
X16100000Y-3500000D01*
%TO.N,SIM_TXD*%
X10100000Y-34700000D02*
X10100000Y-21000000D01*
X28500000Y-16050000D02*
X28500000Y-34700000D01*
X28500000Y-34700000D02*
X10100000Y-34700000D01*
%TO.N,SIM_RXD*%
X8350000Y-21500000D02*
X8350000Y-33000000D01*
X8700000Y-21050000D02*
X8700000Y-21500000D01*
X25300000Y-14950000D02*
X25300000Y-33000000D01*
X8700000Y-21500000D02*
X8350000Y-21500000D01*
%TO.N,SIM_RESETN*%
X3000000Y-24500000D02*
X4500000Y-24500000D01*
X3000000Y-900000D02*
X3000000Y-24500000D01*
X26700000Y-9450000D02*
X26700000Y-2400000D01*
%TO.N,SIM_PWRKEY*%
X5500000Y-1260000D02*
X5500000Y-25250000D01*
X13900000Y-1260000D02*
X5500000Y-1260000D01*
%TO.N,SIM_STATUS*%
X4700000Y-1260000D02*
X4700000Y-22600000D01*
%TO.N,GNSS_ANT*%
X20500000Y-5050000D02*
X20500000Y-12000000D01*
%TO.N,ACCEL_INT1*%
X10850000Y-27000000D02*
X13750000Y-27000000D01*
X13750000Y-27000000D02*
X13750000Y-25950000D01*
X10850000Y-25950000D02*
X10850000Y-27000000D01*
%TD*%
%TA.AperFunction,Conductor*%
%TO.N,GND*%
G36*
X29781194Y-218806D02*
G01*
X29799500Y-263000D01*
X29799500Y-34737000D01*
X29781194Y-34781194D01*
X29737000Y-34799500D01*
X28863000Y-34799500D01*
X28818806Y-34781194D01*
X28800500Y-34737000D01*
X28800500Y-16483202D01*
X28818806Y-16439008D01*
X28900495Y-16357319D01*
X28900500Y-16357314D01*
X28966392Y-16243186D01*
X29000500Y-16115892D01*
X29000500Y-15984108D01*
X28966392Y-15856814D01*
X28900500Y-15742686D01*
X28900498Y-15742684D01*
X28900495Y-15742680D01*
X28807319Y-15649504D01*
X28807315Y-15649501D01*
X28807314Y-15649500D01*
X28750250Y-15616554D01*
X28693185Y-15583607D01*
X28693182Y-15583606D01*
X28565898Y-15549501D01*
X28565893Y-15549500D01*
X28565892Y-15549500D01*
X28434108Y-15549500D01*
X28434107Y-15549500D01*
X28434101Y-15549501D01*
X28306817Y-15583606D01*
X28306814Y-15583607D01*
X28192684Y-15649501D01*
X28192680Y-15649504D01*
X28099504Y-15742680D01*
X28099497Y-15742689D01*
X28067126Y-15798758D01*
X28029176Y-15827878D01*
X27981750Y-15821634D01*
X27952630Y-15783684D01*
X27950500Y-15767508D01*
X27950500Y-1200692D01*
X27950498Y-1200684D01*
X27935312Y-1144011D01*
X27919799Y-1086114D01*
X27912673Y-1073772D01*
X27860491Y-983390D01*
X27860484Y-983381D01*
X27776618Y-899515D01*
X27776609Y-899508D01*
X27673891Y-840203D01*
X27673885Y-840200D01*
X27559315Y-809501D01*
X27559310Y-809500D01*
X27559309Y-809500D01*
X27559308Y-809500D01*
X19637459Y-809500D01*
X19606210Y-801127D01*
X19593189Y-793609D01*
X19593182Y-793606D01*
X19465898Y-759501D01*
X19465893Y-759500D01*
X19465892Y-759500D01*
X19334108Y-759500D01*
X19334107Y-759500D01*
X19334101Y-759501D01*
X19206817Y-793606D01*
X19206814Y-793607D01*
X19092684Y-859501D01*
X19092680Y-859504D01*
X18999504Y-952680D01*
X18999501Y-952684D01*
X18933607Y-1066814D01*
X18933606Y-1066817D01*
X18899501Y-1194101D01*
X18899500Y-1194109D01*
X18899500Y-1325890D01*
X18899501Y-1325898D01*
X18933606Y-1453182D01*
X18933607Y-1453185D01*
X18999501Y-1567315D01*
X18999504Y-1567319D01*
X19024991Y-1592806D01*
X19043297Y-1637000D01*
X19024991Y-1681194D01*
X18980797Y-1699500D01*
X14319203Y-1699500D01*
X14275009Y-1681194D01*
X14256703Y-1637000D01*
X14275009Y-1592806D01*
X14300495Y-1567319D01*
X14300500Y-1567314D01*
X14366392Y-1453186D01*
X14400500Y-1325892D01*
X14400500Y-1194108D01*
X14373161Y-1092077D01*
X14366393Y-1066817D01*
X14366392Y-1066814D01*
X14339098Y-1019540D01*
X14300500Y-952686D01*
X14300498Y-952684D01*
X14300495Y-952680D01*
X14207319Y-859504D01*
X14207315Y-859501D01*
X14207314Y-859500D01*
X14150250Y-826554D01*
X14093185Y-793607D01*
X14093182Y-793606D01*
X13965898Y-759501D01*
X13965893Y-759500D01*
X13965892Y-759500D01*
X13834108Y-759500D01*
X13834107Y-759500D01*
X13834101Y-759501D01*
X13706817Y-793606D01*
X13706814Y-793607D01*
X13592684Y-859501D01*
X13592680Y-859504D01*
X13510992Y-941194D01*
X13466798Y-959500D01*
X5460432Y-959500D01*
X5384013Y-979978D01*
X5384011Y-979978D01*
X5315487Y-1019541D01*
X5261256Y-1073772D01*
X5217061Y-1092077D01*
X5172867Y-1073771D01*
X5162935Y-1060827D01*
X5100500Y-952686D01*
X5100498Y-952684D01*
X5100495Y-952680D01*
X5007319Y-859504D01*
X5007315Y-859501D01*
X5007314Y-859500D01*
X4950250Y-826554D01*
X4893185Y-793607D01*
X4893182Y-793606D01*
X4765898Y-759501D01*
X4765893Y-759500D01*
X4765892Y-759500D01*
X4634108Y-759500D01*
X4634107Y-759500D01*
X4634101Y-759501D01*
X4506817Y-793606D01*
X4506814Y-793607D01*
X4392684Y-859501D01*
X4392680Y-859504D01*
X4299504Y-952680D01*
X4299501Y-952684D01*
X4233607Y-1066814D01*
X4233606Y-1066817D01*
X4199501Y-1194101D01*
X4199500Y-1194109D01*
X4199500Y-1325890D01*
X4199501Y-1325898D01*
X4233606Y-1453182D01*
X4233607Y-1453185D01*
X4299501Y-1567315D01*
X4299504Y-1567319D01*
X4381194Y-1649008D01*
X4399500Y-1693202D01*
X4399500Y-22166797D01*
X4381194Y-22210991D01*
X4299504Y-22292680D01*
X4299501Y-22292684D01*
X4233607Y-22406814D01*
X4233606Y-22406817D01*
X4199501Y-22534101D01*
X4199500Y-22534109D01*
X4199500Y-22665890D01*
X4199501Y-22665898D01*
X4233606Y-22793182D01*
X4233607Y-22793185D01*
X4299501Y-22907315D01*
X4299504Y-22907319D01*
X4392680Y-23000495D01*
X4392684Y-23000498D01*
X4392686Y-23000500D01*
X4506814Y-23066392D01*
X4506817Y-23066393D01*
X4584712Y-23087264D01*
X4634108Y-23100500D01*
X4634109Y-23100500D01*
X4765891Y-23100500D01*
X4765892Y-23100500D01*
X4893186Y-23066392D01*
X5007314Y-23000500D01*
X5048611Y-22959203D01*
X5092806Y-22915009D01*
X5137000Y-22896703D01*
X5181194Y-22915009D01*
X5199500Y-22959203D01*
X5199500Y-24816797D01*
X5181194Y-24860991D01*
X5099504Y-24942680D01*
X5099501Y-24942684D01*
X5033607Y-25056814D01*
X5033606Y-25056817D01*
X4999501Y-25184101D01*
X4999500Y-25184109D01*
X4999500Y-25315890D01*
X4999501Y-25315898D01*
X5033606Y-25443182D01*
X5033607Y-25443185D01*
X5056945Y-25483607D01*
X5094989Y-25549501D01*
X5099501Y-25557315D01*
X5099504Y-25557319D01*
X5192680Y-25650495D01*
X5192684Y-25650498D01*
X5192686Y-25650500D01*
X5306814Y-25716392D01*
X5306817Y-25716393D01*
X5348479Y-25727556D01*
X5434108Y-25750500D01*
X5434109Y-25750500D01*
X5565891Y-25750500D01*
X5565892Y-25750500D01*
X5693186Y-25716392D01*
X5807314Y-25650500D01*
X5900500Y-25557314D01*
X5966392Y-25443186D01*
X6000500Y-25315892D01*
X6000500Y-25184108D01*
X5968826Y-25065898D01*
X5966393Y-25056817D01*
X5966392Y-25056814D01*
X5933879Y-25000500D01*
X5900500Y-24942686D01*
X5900498Y-24942684D01*
X5900495Y-24942680D01*
X5818806Y-24860991D01*
X5800500Y-24816797D01*
X5800500Y-23032754D01*
X5818806Y-22988560D01*
X5863000Y-22970254D01*
X5879176Y-22972384D01*
X5939547Y-22988560D01*
X5984108Y-23000500D01*
X5984109Y-23000500D01*
X6115891Y-23000500D01*
X6115892Y-23000500D01*
X6243186Y-22966392D01*
X6357314Y-22900500D01*
X6389008Y-22868805D01*
X6433201Y-22850500D01*
X7337000Y-22850500D01*
X7381194Y-22868806D01*
X7399500Y-22913000D01*
X7399500Y-25566797D01*
X7381194Y-25610991D01*
X7349504Y-25642680D01*
X7349501Y-25642684D01*
X7283607Y-25756814D01*
X7283606Y-25756817D01*
X7249501Y-25884101D01*
X7249500Y-25884109D01*
X7249500Y-26015890D01*
X7249501Y-26015898D01*
X7264218Y-26070824D01*
X7257974Y-26118250D01*
X7220024Y-26147370D01*
X7203848Y-26149500D01*
X3883202Y-26149500D01*
X3839008Y-26131194D01*
X3807314Y-26099500D01*
X3750250Y-26066554D01*
X3693185Y-26033607D01*
X3693182Y-26033606D01*
X3565898Y-25999501D01*
X3565893Y-25999500D01*
X3565892Y-25999500D01*
X3434108Y-25999500D01*
X3434107Y-25999500D01*
X3434101Y-25999501D01*
X3306817Y-26033606D01*
X3306814Y-26033607D01*
X3192684Y-26099501D01*
X3192680Y-26099504D01*
X3099504Y-26192680D01*
X3099501Y-26192684D01*
X3033607Y-26306814D01*
X3033606Y-26306817D01*
X2999501Y-26434101D01*
X2999500Y-26434109D01*
X2999500Y-26565890D01*
X2999501Y-26565898D01*
X3033606Y-26693182D01*
X3033607Y-26693185D01*
X3099501Y-26807315D01*
X3099504Y-26807319D01*
X3192680Y-26900495D01*
X3192684Y-26900498D01*
X3192686Y-26900500D01*
X3306814Y-26966392D01*
X3306817Y-26966393D01*
X3384712Y-26987264D01*
X3434108Y-27000500D01*
X3434109Y-27000500D01*
X3565891Y-27000500D01*
X3565892Y-27000500D01*
X3693186Y-26966392D01*
X3807314Y-26900500D01*
X3839008Y-26868805D01*
X3883201Y-26850500D01*
X7796143Y-26850500D01*
X7796144Y-26850500D01*
X7885288Y-26826614D01*
X7955750Y-26785931D01*
X8003175Y-26779687D01*
X8041126Y-26808807D01*
X8049500Y-26840058D01*
X8049500Y-32566797D01*
X8031194Y-32610991D01*
X7949504Y-32692680D01*
X7949501Y-32692684D01*
X7883607Y-32806814D01*
X7883606Y-32806817D01*
X7849501Y-32934101D01*
X7849500Y-32934109D01*
X7849500Y-33065890D01*
X7849501Y-33065898D01*
X7883606Y-33193182D01*
X7883607Y-33193185D01*
X7949501Y-33307315D01*
X7949504Y-33307319D01*
X8042680Y-33400495D01*
X8042684Y-33400498D01*
X8042686Y-33400500D01*
X8100031Y-33433608D01*
X8156814Y-33466392D01*
X8156817Y-33466393D01*
X8234712Y-33487264D01*
X8284108Y-33500500D01*
X8284109Y-33500500D01*
X8415891Y-33500500D01*
X8415892Y-33500500D01*
X8543186Y-33466392D01*
X8657314Y-33400500D01*
X8750500Y-33307314D01*
X8816392Y-33193186D01*
X8850500Y-33065892D01*
X8850500Y-32934108D01*
X8816392Y-32806814D01*
X8750500Y-32692686D01*
X8750498Y-32692684D01*
X8750495Y-32692680D01*
X8668806Y-32610991D01*
X8650500Y-32566797D01*
X8650500Y-26309203D01*
X8668806Y-26265009D01*
X8713000Y-26246703D01*
X8757194Y-26265009D01*
X8842680Y-26350495D01*
X8842684Y-26350498D01*
X8842686Y-26350500D01*
X8956814Y-26416392D01*
X8956817Y-26416393D01*
X9022932Y-26434108D01*
X9084108Y-26450500D01*
X9084109Y-26450500D01*
X9215891Y-26450500D01*
X9215892Y-26450500D01*
X9343186Y-26416392D01*
X9457314Y-26350500D01*
X9550500Y-26257314D01*
X9616392Y-26143186D01*
X9650500Y-26015892D01*
X9650500Y-25884108D01*
X9616392Y-25756814D01*
X9550500Y-25642686D01*
X9550498Y-25642684D01*
X9550495Y-25642680D01*
X9457319Y-25549504D01*
X9457307Y-25549495D01*
X9456741Y-25549168D01*
X9456540Y-25548906D01*
X9454067Y-25547009D01*
X9454576Y-25546345D01*
X9427627Y-25511213D01*
X9425500Y-25495047D01*
X9425500Y-22287381D01*
X9443806Y-22243187D01*
X9453281Y-22235411D01*
X9456050Y-22233560D01*
X9456058Y-22233557D01*
X9533557Y-22156058D01*
X9536274Y-22149500D01*
X9575499Y-22054802D01*
X9575500Y-22054799D01*
X9575500Y-21325792D01*
X9593806Y-21281598D01*
X9638000Y-21263292D01*
X9682194Y-21281598D01*
X9692127Y-21294543D01*
X9699499Y-21307313D01*
X9699504Y-21307319D01*
X9781194Y-21389008D01*
X9799500Y-21433202D01*
X9799500Y-34737000D01*
X9781194Y-34781194D01*
X9737000Y-34799500D01*
X263000Y-34799500D01*
X218806Y-34781194D01*
X200500Y-34737000D01*
X200500Y-6934109D01*
X1049500Y-6934109D01*
X1049500Y-7065890D01*
X1049501Y-7065898D01*
X1083607Y-7193185D01*
X1083609Y-7193189D01*
X1091125Y-7206206D01*
X1099500Y-7237458D01*
X1099500Y-12762540D01*
X1091128Y-12793788D01*
X1083608Y-12806812D01*
X1083606Y-12806817D01*
X1049501Y-12934101D01*
X1049500Y-12934109D01*
X1049500Y-13065890D01*
X1049501Y-13065898D01*
X1083607Y-13193185D01*
X1083609Y-13193189D01*
X1091125Y-13206206D01*
X1099500Y-13237458D01*
X1099500Y-28909307D01*
X1099501Y-28909315D01*
X1130200Y-29023885D01*
X1130203Y-29023891D01*
X1189508Y-29126609D01*
X1189515Y-29126618D01*
X1273381Y-29210484D01*
X1273390Y-29210491D01*
X1376108Y-29269796D01*
X1376114Y-29269799D01*
X1490691Y-29300500D01*
X1762541Y-29300500D01*
X1793790Y-29308873D01*
X1806810Y-29316390D01*
X1806812Y-29316390D01*
X1806814Y-29316392D01*
X1806815Y-29316392D01*
X1806817Y-29316393D01*
X1884712Y-29337264D01*
X1934108Y-29350500D01*
X1934109Y-29350500D01*
X2065891Y-29350500D01*
X2065892Y-29350500D01*
X2193186Y-29316392D01*
X2307314Y-29250500D01*
X2400500Y-29157314D01*
X2466392Y-29043186D01*
X2500500Y-28915892D01*
X2500500Y-28784108D01*
X2466392Y-28656814D01*
X2400500Y-28542686D01*
X2400498Y-28542684D01*
X2400495Y-28542680D01*
X2307319Y-28449504D01*
X2307315Y-28449501D01*
X2307314Y-28449500D01*
X2222444Y-28400500D01*
X2193185Y-28383607D01*
X2193182Y-28383606D01*
X2065898Y-28349501D01*
X2065893Y-28349500D01*
X2065892Y-28349500D01*
X2065891Y-28349500D01*
X2063000Y-28349500D01*
X2018806Y-28331194D01*
X2000500Y-28287000D01*
X2000500Y-13237458D01*
X2008875Y-13206206D01*
X2016390Y-13193189D01*
X2016392Y-13193185D01*
X2050498Y-13065898D01*
X2050500Y-13065890D01*
X2050500Y-12934109D01*
X2050498Y-12934101D01*
X2016393Y-12806817D01*
X2016391Y-12806812D01*
X2008872Y-12793788D01*
X2000500Y-12762540D01*
X2000500Y-7237458D01*
X2008875Y-7206206D01*
X2016390Y-7193189D01*
X2016392Y-7193185D01*
X2050498Y-7065898D01*
X2050500Y-7065890D01*
X2050500Y-6934109D01*
X2050498Y-6934101D01*
X2016393Y-6806817D01*
X2016392Y-6806814D01*
X1950500Y-6692686D01*
X1950498Y-6692684D01*
X1950495Y-6692680D01*
X1857319Y-6599504D01*
X1857315Y-6599501D01*
X1857314Y-6599500D01*
X1800250Y-6566554D01*
X1743185Y-6533607D01*
X1743182Y-6533606D01*
X1615898Y-6499501D01*
X1615893Y-6499500D01*
X1615892Y-6499500D01*
X1484108Y-6499500D01*
X1484107Y-6499500D01*
X1484101Y-6499501D01*
X1356817Y-6533606D01*
X1356814Y-6533607D01*
X1242684Y-6599501D01*
X1242680Y-6599504D01*
X1149504Y-6692680D01*
X1149501Y-6692684D01*
X1083607Y-6806814D01*
X1083606Y-6806817D01*
X1049501Y-6934101D01*
X1049500Y-6934109D01*
X200500Y-6934109D01*
X200500Y-834109D01*
X2499500Y-834109D01*
X2499500Y-965890D01*
X2499501Y-965898D01*
X2533606Y-1093182D01*
X2533607Y-1093185D01*
X2533608Y-1093186D01*
X2595676Y-1200691D01*
X2599501Y-1207315D01*
X2599504Y-1207319D01*
X2681194Y-1289008D01*
X2699500Y-1333202D01*
X2699500Y-24539567D01*
X2719978Y-24615986D01*
X2719978Y-24615988D01*
X2759541Y-24684512D01*
X2759544Y-24684516D01*
X2815483Y-24740455D01*
X2815487Y-24740458D01*
X2815489Y-24740460D01*
X2884011Y-24780021D01*
X2907396Y-24786287D01*
X2960432Y-24800499D01*
X2960438Y-24800500D01*
X3039562Y-24800500D01*
X4066798Y-24800500D01*
X4110992Y-24818806D01*
X4192680Y-24900495D01*
X4192684Y-24900498D01*
X4192686Y-24900500D01*
X4306814Y-24966392D01*
X4306817Y-24966393D01*
X4384712Y-24987264D01*
X4434108Y-25000500D01*
X4434109Y-25000500D01*
X4565891Y-25000500D01*
X4565892Y-25000500D01*
X4693186Y-24966392D01*
X4807314Y-24900500D01*
X4900500Y-24807314D01*
X4966392Y-24693186D01*
X5000500Y-24565892D01*
X5000500Y-24434108D01*
X4969605Y-24318806D01*
X4966393Y-24306817D01*
X4966392Y-24306814D01*
X4962747Y-24300500D01*
X4900500Y-24192686D01*
X4900498Y-24192684D01*
X4900495Y-24192680D01*
X4807319Y-24099504D01*
X4807315Y-24099501D01*
X4807314Y-24099500D01*
X4749100Y-24065890D01*
X4693185Y-24033607D01*
X4693182Y-24033606D01*
X4565898Y-23999501D01*
X4565893Y-23999500D01*
X4565892Y-23999500D01*
X4434108Y-23999500D01*
X4434107Y-23999500D01*
X4434101Y-23999501D01*
X4306817Y-24033606D01*
X4306814Y-24033607D01*
X4192684Y-24099501D01*
X4192680Y-24099504D01*
X4110992Y-24181194D01*
X4066798Y-24199500D01*
X3363000Y-24199500D01*
X3318806Y-24181194D01*
X3300500Y-24137000D01*
X3300500Y-1333202D01*
X3318806Y-1289008D01*
X3400495Y-1207319D01*
X3400500Y-1207314D01*
X3466392Y-1093186D01*
X3500500Y-965892D01*
X3500500Y-834108D01*
X3466392Y-706814D01*
X3400500Y-592686D01*
X3400498Y-592684D01*
X3400495Y-592680D01*
X3307319Y-499504D01*
X3307315Y-499501D01*
X3307314Y-499500D01*
X3250250Y-466554D01*
X3193185Y-433607D01*
X3193182Y-433606D01*
X3065898Y-399501D01*
X3065893Y-399500D01*
X3065892Y-399500D01*
X2934108Y-399500D01*
X2934107Y-399500D01*
X2934101Y-399501D01*
X2806817Y-433606D01*
X2806814Y-433607D01*
X2692684Y-499501D01*
X2692680Y-499504D01*
X2599504Y-592680D01*
X2599501Y-592684D01*
X2533607Y-706814D01*
X2533606Y-706817D01*
X2499501Y-834101D01*
X2499500Y-834109D01*
X200500Y-834109D01*
X200500Y-263000D01*
X218806Y-218806D01*
X263000Y-200500D01*
X29737000Y-200500D01*
X29781194Y-218806D01*
G37*
%TD.AperFunction*%
%TA.AperFunction,Conductor*%
G36*
X19582194Y-30081598D02*
G01*
X19592127Y-30094543D01*
X19599499Y-30107313D01*
X19599504Y-30107319D01*
X19681194Y-30189008D01*
X19699500Y-30233202D01*
X19699500Y-33837000D01*
X19681194Y-33881194D01*
X19637000Y-33899500D01*
X11663000Y-33899500D01*
X11618806Y-33881194D01*
X11600500Y-33837000D01*
X11600500Y-33834109D01*
X11600498Y-33834101D01*
X11566393Y-33706817D01*
X11566392Y-33706814D01*
X11500500Y-33592686D01*
X11500498Y-33592684D01*
X11500495Y-33592680D01*
X11407319Y-33499504D01*
X11407315Y-33499501D01*
X11407314Y-33499500D01*
X11349969Y-33466392D01*
X11293185Y-33433607D01*
X11293182Y-33433606D01*
X11165898Y-33399501D01*
X11165893Y-33399500D01*
X11165892Y-33399500D01*
X11034108Y-33399500D01*
X11034107Y-33399500D01*
X11034101Y-33399501D01*
X10906817Y-33433606D01*
X10906814Y-33433607D01*
X10792684Y-33499501D01*
X10792680Y-33499504D01*
X10699504Y-33592680D01*
X10699501Y-33592684D01*
X10633607Y-33706814D01*
X10633606Y-33706817D01*
X10599501Y-33834101D01*
X10599500Y-33834109D01*
X10599500Y-33965890D01*
X10599501Y-33965898D01*
X10633606Y-34093182D01*
X10633607Y-34093185D01*
X10699501Y-34207315D01*
X10699504Y-34207319D01*
X10784992Y-34292806D01*
X10803298Y-34337000D01*
X10784992Y-34381194D01*
X10740798Y-34399500D01*
X10463000Y-34399500D01*
X10418806Y-34381194D01*
X10400500Y-34337000D01*
X10400500Y-31934109D01*
X10749500Y-31934109D01*
X10749500Y-32065890D01*
X10749501Y-32065898D01*
X10783606Y-32193182D01*
X10783607Y-32193185D01*
X10849501Y-32307315D01*
X10849504Y-32307319D01*
X10942680Y-32400495D01*
X10942684Y-32400498D01*
X10942686Y-32400500D01*
X11056814Y-32466392D01*
X11056817Y-32466393D01*
X11134712Y-32487264D01*
X11184108Y-32500500D01*
X11184109Y-32500500D01*
X11315891Y-32500500D01*
X11315892Y-32500500D01*
X11443186Y-32466392D01*
X11557314Y-32400500D01*
X11639008Y-32318806D01*
X11683202Y-32300500D01*
X13076798Y-32300500D01*
X13120992Y-32318806D01*
X13202680Y-32400495D01*
X13202684Y-32400498D01*
X13202686Y-32400500D01*
X13316814Y-32466392D01*
X13316817Y-32466393D01*
X13394712Y-32487264D01*
X13444108Y-32500500D01*
X13444109Y-32500500D01*
X13575891Y-32500500D01*
X13575892Y-32500500D01*
X13703186Y-32466392D01*
X13817314Y-32400500D01*
X13910500Y-32307314D01*
X13976392Y-32193186D01*
X14010500Y-32065892D01*
X14010500Y-31934108D01*
X13976392Y-31806814D01*
X13910500Y-31692686D01*
X13910498Y-31692684D01*
X13910495Y-31692680D01*
X13817319Y-31599504D01*
X13817315Y-31599501D01*
X13817314Y-31599500D01*
X13760250Y-31566554D01*
X13703185Y-31533607D01*
X13703182Y-31533606D01*
X13575898Y-31499501D01*
X13575893Y-31499500D01*
X13575892Y-31499500D01*
X13444108Y-31499500D01*
X13444107Y-31499500D01*
X13444101Y-31499501D01*
X13316817Y-31533606D01*
X13316814Y-31533607D01*
X13202684Y-31599501D01*
X13202680Y-31599504D01*
X13120992Y-31681194D01*
X13076798Y-31699500D01*
X11683202Y-31699500D01*
X11639008Y-31681194D01*
X11557319Y-31599504D01*
X11557315Y-31599501D01*
X11557314Y-31599500D01*
X11500250Y-31566554D01*
X11443185Y-31533607D01*
X11443182Y-31533606D01*
X11315898Y-31499501D01*
X11315893Y-31499500D01*
X11315892Y-31499500D01*
X11184108Y-31499500D01*
X11184107Y-31499500D01*
X11184101Y-31499501D01*
X11056817Y-31533606D01*
X11056814Y-31533607D01*
X10942684Y-31599501D01*
X10942680Y-31599504D01*
X10849504Y-31692680D01*
X10849501Y-31692684D01*
X10783607Y-31806814D01*
X10783606Y-31806817D01*
X10749501Y-31934101D01*
X10749500Y-31934109D01*
X10400500Y-31934109D01*
X10400500Y-30984397D01*
X10418806Y-30940203D01*
X10463000Y-30921897D01*
X10494248Y-30930269D01*
X10543791Y-30958873D01*
X10556814Y-30966392D01*
X10556817Y-30966393D01*
X10624010Y-30984397D01*
X10684108Y-31000500D01*
X10684109Y-31000500D01*
X10815891Y-31000500D01*
X10815892Y-31000500D01*
X10943186Y-30966392D01*
X10948909Y-30963087D01*
X10956210Y-30958873D01*
X10987459Y-30950500D01*
X19084308Y-30950500D01*
X19084309Y-30950500D01*
X19198886Y-30919799D01*
X19301613Y-30860489D01*
X19385489Y-30776613D01*
X19444799Y-30673886D01*
X19475500Y-30559309D01*
X19475500Y-30125792D01*
X19493806Y-30081598D01*
X19538000Y-30063292D01*
X19582194Y-30081598D01*
G37*
%TD.AperFunction*%
%TA.AperFunction,Conductor*%
G36*
X23681194Y-3318806D02*
G01*
X23699500Y-3363000D01*
X23699500Y-30866797D01*
X23681194Y-30910991D01*
X23599504Y-30992680D01*
X23599501Y-30992684D01*
X23533607Y-31106814D01*
X23533606Y-31106817D01*
X23499501Y-31234101D01*
X23499500Y-31234109D01*
X23499500Y-31365890D01*
X23499501Y-31365898D01*
X23533606Y-31493182D01*
X23533607Y-31493185D01*
X23556945Y-31533607D01*
X23594989Y-31599501D01*
X23599501Y-31607315D01*
X23599504Y-31607319D01*
X23692680Y-31700495D01*
X23692684Y-31700498D01*
X23692686Y-31700500D01*
X23806814Y-31766392D01*
X23806817Y-31766393D01*
X23884712Y-31787264D01*
X23934108Y-31800500D01*
X23934109Y-31800500D01*
X24065891Y-31800500D01*
X24065892Y-31800500D01*
X24193186Y-31766392D01*
X24307314Y-31700500D01*
X24400500Y-31607314D01*
X24466392Y-31493186D01*
X24500500Y-31365892D01*
X24500500Y-31234108D01*
X24466392Y-31106814D01*
X24400500Y-30992686D01*
X24400498Y-30992684D01*
X24400495Y-30992680D01*
X24318806Y-30910991D01*
X24300500Y-30866797D01*
X24300500Y-29255529D01*
X24318806Y-29211335D01*
X24363000Y-29193029D01*
X24394250Y-29201403D01*
X24506808Y-29266389D01*
X24506811Y-29266390D01*
X24506814Y-29266392D01*
X24506815Y-29266392D01*
X24506817Y-29266393D01*
X24519529Y-29269799D01*
X24634108Y-29300500D01*
X24634109Y-29300500D01*
X24765891Y-29300500D01*
X24765892Y-29300500D01*
X24893186Y-29266392D01*
X24905750Y-29259137D01*
X24953174Y-29252893D01*
X24991126Y-29282012D01*
X24999500Y-29313264D01*
X24999500Y-32566797D01*
X24981194Y-32610991D01*
X24899504Y-32692680D01*
X24899501Y-32692684D01*
X24833607Y-32806814D01*
X24833606Y-32806817D01*
X24799501Y-32934101D01*
X24799500Y-32934109D01*
X24799500Y-33065890D01*
X24799501Y-33065898D01*
X24833606Y-33193182D01*
X24833607Y-33193185D01*
X24899501Y-33307315D01*
X24899504Y-33307319D01*
X24992680Y-33400495D01*
X24992684Y-33400498D01*
X24992686Y-33400500D01*
X25050031Y-33433608D01*
X25106814Y-33466392D01*
X25106817Y-33466393D01*
X25184712Y-33487264D01*
X25234108Y-33500500D01*
X25234109Y-33500500D01*
X25365891Y-33500500D01*
X25365892Y-33500500D01*
X25493186Y-33466392D01*
X25607314Y-33400500D01*
X25700500Y-33307314D01*
X25766392Y-33193186D01*
X25800500Y-33065892D01*
X25800500Y-32934108D01*
X25766392Y-32806814D01*
X25700500Y-32692686D01*
X25700498Y-32692684D01*
X25700495Y-32692680D01*
X25618806Y-32610991D01*
X25600500Y-32566797D01*
X25600500Y-28141749D01*
X25618806Y-28097555D01*
X25663000Y-28079249D01*
X25707194Y-28097555D01*
X25717359Y-28112771D01*
X25717931Y-28112441D01*
X25719978Y-28115987D01*
X25719979Y-28115989D01*
X25759540Y-28184511D01*
X25759541Y-28184512D01*
X25759544Y-28184516D01*
X25815483Y-28240455D01*
X25815487Y-28240458D01*
X25815489Y-28240460D01*
X25884011Y-28280021D01*
X25907396Y-28286287D01*
X25960432Y-28300499D01*
X25960438Y-28300500D01*
X25966798Y-28300500D01*
X26010992Y-28318806D01*
X26092680Y-28400495D01*
X26092684Y-28400498D01*
X26092686Y-28400500D01*
X26206814Y-28466392D01*
X26206817Y-28466393D01*
X26284712Y-28487264D01*
X26334108Y-28500500D01*
X26334109Y-28500500D01*
X26465891Y-28500500D01*
X26465892Y-28500500D01*
X26593186Y-28466392D01*
X26707314Y-28400500D01*
X26800500Y-28307314D01*
X26866392Y-28193186D01*
X26900500Y-28065892D01*
X26900500Y-27934108D01*
X26887264Y-27884712D01*
X26866393Y-27806817D01*
X26866392Y-27806814D01*
X26800500Y-27692686D01*
X26800498Y-27692684D01*
X26800495Y-27692680D01*
X26707319Y-27599504D01*
X26707315Y-27599501D01*
X26707314Y-27599500D01*
X26649100Y-27565890D01*
X26593185Y-27533607D01*
X26593182Y-27533606D01*
X26465898Y-27499501D01*
X26465893Y-27499500D01*
X26465892Y-27499500D01*
X26363000Y-27499500D01*
X26318806Y-27481194D01*
X26300500Y-27437000D01*
X26300500Y-25532754D01*
X26318806Y-25488560D01*
X26363000Y-25470254D01*
X26379176Y-25472384D01*
X26439547Y-25488560D01*
X26484108Y-25500500D01*
X26484109Y-25500500D01*
X26615891Y-25500500D01*
X26615892Y-25500500D01*
X26743186Y-25466392D01*
X26857314Y-25400500D01*
X26950500Y-25307314D01*
X27016392Y-25193186D01*
X27050500Y-25065892D01*
X27050500Y-24934108D01*
X27019067Y-24816797D01*
X27016393Y-24806817D01*
X27016392Y-24806814D01*
X26978081Y-24740458D01*
X26950500Y-24692686D01*
X26950498Y-24692684D01*
X26950495Y-24692680D01*
X26918806Y-24660991D01*
X26900500Y-24616797D01*
X26900500Y-21221154D01*
X26918806Y-21176960D01*
X26963000Y-21158654D01*
X27007194Y-21176960D01*
X27023370Y-21204978D01*
X27033606Y-21243182D01*
X27033607Y-21243185D01*
X27099501Y-21357315D01*
X27099504Y-21357319D01*
X27192680Y-21450495D01*
X27192684Y-21450498D01*
X27192686Y-21450500D01*
X27306814Y-21516392D01*
X27306817Y-21516393D01*
X27384712Y-21537264D01*
X27434108Y-21550500D01*
X27434109Y-21550500D01*
X27565891Y-21550500D01*
X27565892Y-21550500D01*
X27693186Y-21516392D01*
X27807314Y-21450500D01*
X27900500Y-21357314D01*
X27966392Y-21243186D01*
X28000500Y-21115892D01*
X28000500Y-20984108D01*
X27986798Y-20932972D01*
X27966393Y-20856817D01*
X27966391Y-20856812D01*
X27958872Y-20843788D01*
X27950500Y-20812540D01*
X27950500Y-16332491D01*
X27968806Y-16288297D01*
X28013000Y-16269991D01*
X28057194Y-16288297D01*
X28067123Y-16301236D01*
X28099500Y-16357314D01*
X28099501Y-16357315D01*
X28099504Y-16357319D01*
X28181194Y-16439008D01*
X28199500Y-16483202D01*
X28199500Y-34337000D01*
X28181194Y-34381194D01*
X28137000Y-34399500D01*
X20338967Y-34399500D01*
X20294773Y-34381194D01*
X20276467Y-34337000D01*
X20279816Y-34320174D01*
X20278961Y-34319945D01*
X20300499Y-34239567D01*
X20300500Y-34239561D01*
X20300500Y-30233202D01*
X20318806Y-30189008D01*
X20400495Y-30107319D01*
X20400500Y-30107314D01*
X20466392Y-29993186D01*
X20500500Y-29865892D01*
X20500500Y-29734108D01*
X20466392Y-29606814D01*
X20400500Y-29492686D01*
X20400498Y-29492684D01*
X20400495Y-29492680D01*
X20307319Y-29399504D01*
X20307315Y-29399501D01*
X20307314Y-29399500D01*
X20222444Y-29350500D01*
X20193185Y-29333607D01*
X20193182Y-29333606D01*
X20065898Y-29299501D01*
X20065893Y-29299500D01*
X20065892Y-29299500D01*
X19934108Y-29299500D01*
X19934107Y-29299500D01*
X19934101Y-29299501D01*
X19806817Y-29333606D01*
X19806814Y-29333607D01*
X19692684Y-29399501D01*
X19692680Y-29399504D01*
X19599504Y-29492680D01*
X19599499Y-29492686D01*
X19592126Y-29505458D01*
X19554176Y-29534578D01*
X19506749Y-29528333D01*
X19477629Y-29490383D01*
X19475500Y-29474207D01*
X19475500Y-24642458D01*
X19483875Y-24611206D01*
X19491390Y-24598189D01*
X19491392Y-24598185D01*
X19500045Y-24565892D01*
X19525500Y-24470892D01*
X19525500Y-24363000D01*
X19543806Y-24318806D01*
X19588000Y-24300500D01*
X20066798Y-24300500D01*
X20110992Y-24318806D01*
X20192680Y-24400495D01*
X20192684Y-24400498D01*
X20192686Y-24400500D01*
X20306814Y-24466392D01*
X20306817Y-24466393D01*
X20384712Y-24487264D01*
X20434108Y-24500500D01*
X20434109Y-24500500D01*
X20565891Y-24500500D01*
X20565892Y-24500500D01*
X20693186Y-24466392D01*
X20807314Y-24400500D01*
X20900500Y-24307314D01*
X20966392Y-24193186D01*
X21000500Y-24065892D01*
X21000500Y-23934108D01*
X20966392Y-23806814D01*
X20900500Y-23692686D01*
X20900498Y-23692684D01*
X20900495Y-23692680D01*
X20807319Y-23599504D01*
X20807315Y-23599501D01*
X20807314Y-23599500D01*
X20750250Y-23566554D01*
X20693185Y-23533607D01*
X20693182Y-23533606D01*
X20565898Y-23499501D01*
X20565893Y-23499500D01*
X20565892Y-23499500D01*
X20434108Y-23499500D01*
X20434107Y-23499500D01*
X20434101Y-23499501D01*
X20306817Y-23533606D01*
X20306814Y-23533607D01*
X20192684Y-23599501D01*
X20192680Y-23599504D01*
X20110992Y-23681194D01*
X20066798Y-23699500D01*
X16423202Y-23699500D01*
X16379008Y-23681194D01*
X16297319Y-23599504D01*
X16297315Y-23599501D01*
X16297314Y-23599500D01*
X16240250Y-23566554D01*
X16183185Y-23533607D01*
X16183182Y-23533606D01*
X16055898Y-23499501D01*
X16055893Y-23499500D01*
X16055892Y-23499500D01*
X15924108Y-23499500D01*
X15924107Y-23499500D01*
X15924101Y-23499501D01*
X15796817Y-23533606D01*
X15796814Y-23533607D01*
X15682684Y-23599501D01*
X15682680Y-23599504D01*
X15589504Y-23692680D01*
X15589501Y-23692684D01*
X15523607Y-23806814D01*
X15523606Y-23806817D01*
X15489501Y-23934101D01*
X15489500Y-23934109D01*
X15489500Y-24065890D01*
X15489501Y-24065898D01*
X15523606Y-24193182D01*
X15523607Y-24193185D01*
X15523608Y-24193186D01*
X15589211Y-24306814D01*
X15589501Y-24307315D01*
X15589504Y-24307319D01*
X15682680Y-24400495D01*
X15682684Y-24400498D01*
X15682686Y-24400500D01*
X15796814Y-24466392D01*
X15796817Y-24466393D01*
X15874712Y-24487264D01*
X15924108Y-24500500D01*
X15924109Y-24500500D01*
X16055891Y-24500500D01*
X16055892Y-24500500D01*
X16183186Y-24466392D01*
X16297314Y-24400500D01*
X16379008Y-24318806D01*
X16423202Y-24300500D01*
X18462000Y-24300500D01*
X18506194Y-24318806D01*
X18524500Y-24363000D01*
X18524500Y-24470890D01*
X18524501Y-24470898D01*
X18558607Y-24598185D01*
X18558609Y-24598189D01*
X18566125Y-24611206D01*
X18574500Y-24642458D01*
X18574500Y-29987000D01*
X18556194Y-30031194D01*
X18512000Y-30049500D01*
X10987459Y-30049500D01*
X10956210Y-30041127D01*
X10943189Y-30033609D01*
X10943182Y-30033606D01*
X10815898Y-29999501D01*
X10815893Y-29999500D01*
X10815892Y-29999500D01*
X10684108Y-29999500D01*
X10684107Y-29999500D01*
X10684101Y-29999501D01*
X10556817Y-30033606D01*
X10556814Y-30033608D01*
X10494250Y-30069729D01*
X10446823Y-30075972D01*
X10408873Y-30046852D01*
X10400500Y-30015602D01*
X10400500Y-26359202D01*
X10418806Y-26315008D01*
X10463000Y-26296702D01*
X10507194Y-26315008D01*
X10531194Y-26339008D01*
X10549500Y-26383202D01*
X10549500Y-27039567D01*
X10569978Y-27115986D01*
X10569978Y-27115988D01*
X10609541Y-27184512D01*
X10609544Y-27184516D01*
X10665483Y-27240455D01*
X10665487Y-27240458D01*
X10665489Y-27240460D01*
X10734011Y-27280021D01*
X10757396Y-27286287D01*
X10810432Y-27300499D01*
X10810438Y-27300500D01*
X13789562Y-27300500D01*
X13789567Y-27300499D01*
X13812271Y-27294414D01*
X13865989Y-27280021D01*
X13934511Y-27240460D01*
X13990460Y-27184511D01*
X14030021Y-27115989D01*
X14050500Y-27039562D01*
X14050500Y-26383202D01*
X14068806Y-26339008D01*
X14150495Y-26257319D01*
X14150500Y-26257314D01*
X14161603Y-26238081D01*
X14163896Y-26234109D01*
X14989500Y-26234109D01*
X14989500Y-26365890D01*
X14989501Y-26365898D01*
X15023606Y-26493182D01*
X15023607Y-26493185D01*
X15023608Y-26493186D01*
X15065588Y-26565898D01*
X15089501Y-26607315D01*
X15089504Y-26607319D01*
X15182680Y-26700495D01*
X15182684Y-26700498D01*
X15182686Y-26700500D01*
X15296814Y-26766392D01*
X15296817Y-26766393D01*
X15369739Y-26785932D01*
X15424108Y-26800500D01*
X15424109Y-26800500D01*
X15555891Y-26800500D01*
X15555892Y-26800500D01*
X15683186Y-26766392D01*
X15797314Y-26700500D01*
X15879008Y-26618806D01*
X15923202Y-26600500D01*
X16122000Y-26600500D01*
X16166194Y-26618806D01*
X16184500Y-26663000D01*
X16184500Y-27066797D01*
X16166194Y-27110991D01*
X16084504Y-27192680D01*
X16084501Y-27192684D01*
X16018607Y-27306814D01*
X16018606Y-27306817D01*
X15984501Y-27434101D01*
X15984500Y-27434109D01*
X15984500Y-27565890D01*
X15984501Y-27565898D01*
X16018606Y-27693182D01*
X16018607Y-27693185D01*
X16018608Y-27693186D01*
X16084211Y-27806814D01*
X16084501Y-27807315D01*
X16084504Y-27807319D01*
X16177680Y-27900495D01*
X16177684Y-27900498D01*
X16177686Y-27900500D01*
X16291814Y-27966392D01*
X16291817Y-27966393D01*
X16369712Y-27987264D01*
X16419108Y-28000500D01*
X16419109Y-28000500D01*
X16550891Y-28000500D01*
X16550892Y-28000500D01*
X16678186Y-27966392D01*
X16792314Y-27900500D01*
X16885500Y-27807314D01*
X16951392Y-27693186D01*
X16985500Y-27565892D01*
X16985500Y-27434108D01*
X16951392Y-27306814D01*
X16885500Y-27192686D01*
X16885498Y-27192684D01*
X16885495Y-27192680D01*
X16803806Y-27110991D01*
X16785500Y-27066797D01*
X16785500Y-26260438D01*
X16785499Y-26260432D01*
X16768974Y-26198765D01*
X16765021Y-26184011D01*
X16725460Y-26115489D01*
X16725458Y-26115487D01*
X16725455Y-26115483D01*
X16669516Y-26059544D01*
X16669512Y-26059541D01*
X16669511Y-26059540D01*
X16600989Y-26019979D01*
X16600988Y-26019978D01*
X16600987Y-26019978D01*
X16524567Y-25999500D01*
X16524562Y-25999500D01*
X15923202Y-25999500D01*
X15879008Y-25981194D01*
X15797319Y-25899504D01*
X15797315Y-25899501D01*
X15797314Y-25899500D01*
X15737574Y-25865009D01*
X15683185Y-25833607D01*
X15683182Y-25833606D01*
X15555898Y-25799501D01*
X15555893Y-25799500D01*
X15555892Y-25799500D01*
X15424108Y-25799500D01*
X15424107Y-25799500D01*
X15424101Y-25799501D01*
X15296817Y-25833606D01*
X15296814Y-25833607D01*
X15182684Y-25899501D01*
X15182680Y-25899504D01*
X15089504Y-25992680D01*
X15089501Y-25992684D01*
X15023607Y-26106814D01*
X15023606Y-26106817D01*
X14989501Y-26234101D01*
X14989500Y-26234109D01*
X14163896Y-26234109D01*
X14184304Y-26198765D01*
X14184305Y-26198762D01*
X14187814Y-26192684D01*
X14216392Y-26143186D01*
X14250500Y-26015892D01*
X14250500Y-25884108D01*
X14216392Y-25756814D01*
X14150500Y-25642686D01*
X14150498Y-25642684D01*
X14150495Y-25642680D01*
X14057319Y-25549504D01*
X14057315Y-25549501D01*
X14057314Y-25549500D01*
X13972444Y-25500500D01*
X13943185Y-25483607D01*
X13943182Y-25483606D01*
X13815898Y-25449501D01*
X13815893Y-25449500D01*
X13815892Y-25449500D01*
X13684108Y-25449500D01*
X13684107Y-25449500D01*
X13684101Y-25449501D01*
X13556817Y-25483606D01*
X13556814Y-25483607D01*
X13442684Y-25549501D01*
X13442680Y-25549504D01*
X13349504Y-25642680D01*
X13349501Y-25642684D01*
X13283607Y-25756814D01*
X13283606Y-25756817D01*
X13249501Y-25884101D01*
X13249500Y-25884109D01*
X13249500Y-26015890D01*
X13249501Y-26015898D01*
X13283606Y-26143182D01*
X13283607Y-26143185D01*
X13349501Y-26257315D01*
X13349504Y-26257319D01*
X13431194Y-26339008D01*
X13449500Y-26383202D01*
X13449500Y-26637000D01*
X13431194Y-26681194D01*
X13387000Y-26699500D01*
X11213000Y-26699500D01*
X11168806Y-26681194D01*
X11150500Y-26637000D01*
X11150500Y-26383202D01*
X11168806Y-26339008D01*
X11250495Y-26257319D01*
X11250500Y-26257314D01*
X11316392Y-26143186D01*
X11350500Y-26015892D01*
X11350500Y-25909203D01*
X11368806Y-25865009D01*
X11413000Y-25846703D01*
X11457194Y-25865009D01*
X11492680Y-25900495D01*
X11492684Y-25900498D01*
X11492686Y-25900500D01*
X11606814Y-25966392D01*
X11606817Y-25966393D01*
X11662056Y-25981194D01*
X11734108Y-26000500D01*
X11734109Y-26000500D01*
X11865891Y-26000500D01*
X11865892Y-26000500D01*
X11993186Y-25966392D01*
X12107314Y-25900500D01*
X12200500Y-25807314D01*
X12266392Y-25693186D01*
X12300500Y-25565892D01*
X12300500Y-25434108D01*
X12268826Y-25315898D01*
X12266393Y-25306817D01*
X12266392Y-25306814D01*
X12200500Y-25192686D01*
X12200498Y-25192684D01*
X12200495Y-25192680D01*
X12168806Y-25160991D01*
X12150500Y-25116797D01*
X12150500Y-19983202D01*
X12168806Y-19939008D01*
X12200500Y-19907314D01*
X12266392Y-19793186D01*
X12272116Y-19771824D01*
X12301236Y-19733874D01*
X12332486Y-19725500D01*
X12334800Y-19725500D01*
X13012000Y-19725500D01*
X13056194Y-19743806D01*
X13074500Y-19788000D01*
X13074500Y-20545047D01*
X13056194Y-20589241D01*
X13043259Y-20599168D01*
X13042692Y-20599495D01*
X13042680Y-20599504D01*
X12949504Y-20692680D01*
X12949501Y-20692684D01*
X12883607Y-20806814D01*
X12883606Y-20806817D01*
X12849501Y-20934101D01*
X12849500Y-20934109D01*
X12849500Y-21065890D01*
X12849501Y-21065898D01*
X12883606Y-21193182D01*
X12883607Y-21193185D01*
X12883608Y-21193186D01*
X12949499Y-21307313D01*
X12949501Y-21307315D01*
X12949504Y-21307319D01*
X13042680Y-21400495D01*
X13042684Y-21400498D01*
X13042686Y-21400500D01*
X13136102Y-21454434D01*
X13156814Y-21466392D01*
X13156817Y-21466393D01*
X13234712Y-21487264D01*
X13284108Y-21500500D01*
X13284109Y-21500500D01*
X13415891Y-21500500D01*
X13415892Y-21500500D01*
X13543186Y-21466392D01*
X13657314Y-21400500D01*
X13750500Y-21307314D01*
X13816392Y-21193186D01*
X13850500Y-21065892D01*
X13850500Y-20934108D01*
X13817926Y-20812540D01*
X13816393Y-20806817D01*
X13816392Y-20806814D01*
X13750500Y-20692686D01*
X13750498Y-20692684D01*
X13750495Y-20692680D01*
X13657319Y-20599504D01*
X13657307Y-20599495D01*
X13656741Y-20599168D01*
X13656540Y-20598906D01*
X13654067Y-20597009D01*
X13654576Y-20596345D01*
X13627627Y-20561213D01*
X13625500Y-20545047D01*
X13625500Y-19788000D01*
X13643806Y-19743806D01*
X13688000Y-19725500D01*
X15012000Y-19725500D01*
X15056194Y-19743806D01*
X15074500Y-19788000D01*
X15074500Y-19812618D01*
X15056194Y-19856812D01*
X15046720Y-19864587D01*
X15043939Y-19866444D01*
X14966444Y-19943940D01*
X14966440Y-19943945D01*
X14924500Y-20045197D01*
X14923299Y-20051238D01*
X14922039Y-20050987D01*
X14906194Y-20089241D01*
X14893259Y-20099168D01*
X14892692Y-20099495D01*
X14892680Y-20099504D01*
X14799504Y-20192680D01*
X14799501Y-20192684D01*
X14733607Y-20306814D01*
X14733606Y-20306817D01*
X14699501Y-20434101D01*
X14699500Y-20434109D01*
X14699500Y-20565890D01*
X14699501Y-20565898D01*
X14733606Y-20693182D01*
X14733607Y-20693185D01*
X14733608Y-20693186D01*
X14799211Y-20806814D01*
X14799501Y-20807315D01*
X14799504Y-20807319D01*
X14892680Y-20900495D01*
X14892684Y-20900498D01*
X14892686Y-20900500D01*
X15006814Y-20966392D01*
X15006817Y-20966393D01*
X15072932Y-20984108D01*
X15134108Y-21000500D01*
X15134109Y-21000500D01*
X15265891Y-21000500D01*
X15265892Y-21000500D01*
X15393186Y-20966392D01*
X15507314Y-20900500D01*
X15600500Y-20807314D01*
X15666392Y-20693186D01*
X15700500Y-20565892D01*
X15700500Y-20434108D01*
X15666392Y-20306814D01*
X15621328Y-20228762D01*
X15615086Y-20181337D01*
X15617712Y-20173600D01*
X15625500Y-20154800D01*
X15625500Y-19395200D01*
X15625499Y-19395197D01*
X15583559Y-19293945D01*
X15583555Y-19293940D01*
X15506059Y-19216444D01*
X15506054Y-19216440D01*
X15399113Y-19172144D01*
X15400340Y-19169180D01*
X15370008Y-19148876D01*
X15360716Y-19101951D01*
X15377812Y-19070002D01*
X15400496Y-19047318D01*
X15400500Y-19047314D01*
X15466392Y-18933186D01*
X15489630Y-18846461D01*
X15518750Y-18808510D01*
X15566176Y-18802267D01*
X15604127Y-18831387D01*
X15610370Y-18846461D01*
X15633606Y-18933182D01*
X15633607Y-18933185D01*
X15699501Y-19047315D01*
X15699504Y-19047319D01*
X15792680Y-19140495D01*
X15792684Y-19140498D01*
X15792686Y-19140500D01*
X15894884Y-19199504D01*
X15906814Y-19206392D01*
X15906817Y-19206393D01*
X15944314Y-19216440D01*
X16034108Y-19240500D01*
X16034109Y-19240500D01*
X16165891Y-19240500D01*
X16165892Y-19240500D01*
X16293186Y-19206392D01*
X16407314Y-19140500D01*
X16500500Y-19047314D01*
X16566392Y-18933186D01*
X16600500Y-18805892D01*
X16600500Y-18674108D01*
X16566392Y-18546814D01*
X16500500Y-18432686D01*
X16500498Y-18432684D01*
X16500495Y-18432680D01*
X16418806Y-18350991D01*
X16400500Y-18306797D01*
X16400500Y-4984109D01*
X19999500Y-4984109D01*
X19999500Y-5115890D01*
X19999501Y-5115898D01*
X20033606Y-5243182D01*
X20033607Y-5243185D01*
X20099501Y-5357315D01*
X20099504Y-5357319D01*
X20181194Y-5439008D01*
X20199500Y-5483202D01*
X20199500Y-11566797D01*
X20181194Y-11610991D01*
X20099504Y-11692680D01*
X20099501Y-11692684D01*
X20033607Y-11806814D01*
X20033606Y-11806817D01*
X19999501Y-11934101D01*
X19999500Y-11934109D01*
X19999500Y-12065890D01*
X19999501Y-12065898D01*
X20033606Y-12193182D01*
X20033607Y-12193185D01*
X20099501Y-12307315D01*
X20099504Y-12307319D01*
X20192680Y-12400495D01*
X20192684Y-12400498D01*
X20192686Y-12400500D01*
X20306814Y-12466392D01*
X20306817Y-12466393D01*
X20384712Y-12487264D01*
X20434108Y-12500500D01*
X20434109Y-12500500D01*
X20565891Y-12500500D01*
X20565892Y-12500500D01*
X20693186Y-12466392D01*
X20807314Y-12400500D01*
X20900500Y-12307314D01*
X20966392Y-12193186D01*
X21000500Y-12065892D01*
X21000500Y-11934108D01*
X20966392Y-11806814D01*
X20900500Y-11692686D01*
X20900498Y-11692684D01*
X20900495Y-11692680D01*
X20818806Y-11610991D01*
X20800500Y-11566797D01*
X20800500Y-5483202D01*
X20818806Y-5439008D01*
X20900495Y-5357319D01*
X20900500Y-5357314D01*
X20966392Y-5243186D01*
X21000500Y-5115892D01*
X21000500Y-4984108D01*
X20966392Y-4856814D01*
X20900500Y-4742686D01*
X20900498Y-4742684D01*
X20900495Y-4742680D01*
X20807319Y-4649504D01*
X20807315Y-4649501D01*
X20807314Y-4649500D01*
X20750250Y-4616554D01*
X20693185Y-4583607D01*
X20693182Y-4583606D01*
X20565898Y-4549501D01*
X20565893Y-4549500D01*
X20565892Y-4549500D01*
X20434108Y-4549500D01*
X20434107Y-4549500D01*
X20434101Y-4549501D01*
X20306817Y-4583606D01*
X20306814Y-4583607D01*
X20192684Y-4649501D01*
X20192680Y-4649504D01*
X20099504Y-4742680D01*
X20099501Y-4742684D01*
X20033607Y-4856814D01*
X20033606Y-4856817D01*
X19999501Y-4984101D01*
X19999500Y-4984109D01*
X16400500Y-4984109D01*
X16400500Y-3863000D01*
X16418806Y-3818806D01*
X16463000Y-3800500D01*
X21637000Y-3800500D01*
X21681194Y-3818806D01*
X21699500Y-3863000D01*
X21699500Y-28366797D01*
X21681194Y-28410991D01*
X21599504Y-28492680D01*
X21599501Y-28492684D01*
X21533607Y-28606814D01*
X21533606Y-28606817D01*
X21499501Y-28734101D01*
X21499500Y-28734109D01*
X21499500Y-28865890D01*
X21499501Y-28865898D01*
X21533606Y-28993182D01*
X21533607Y-28993185D01*
X21599501Y-29107315D01*
X21599504Y-29107319D01*
X21692680Y-29200495D01*
X21692684Y-29200498D01*
X21692686Y-29200500D01*
X21783433Y-29252893D01*
X21806814Y-29266392D01*
X21806817Y-29266393D01*
X21819529Y-29269799D01*
X21934108Y-29300500D01*
X21934109Y-29300500D01*
X22065891Y-29300500D01*
X22065892Y-29300500D01*
X22193186Y-29266392D01*
X22307314Y-29200500D01*
X22400500Y-29107314D01*
X22466392Y-28993186D01*
X22500500Y-28865892D01*
X22500500Y-28734108D01*
X22466392Y-28606814D01*
X22400500Y-28492686D01*
X22400498Y-28492684D01*
X22400495Y-28492680D01*
X22318806Y-28410991D01*
X22300500Y-28366797D01*
X22300500Y-3460438D01*
X22300499Y-3460432D01*
X22278961Y-3380055D01*
X22281229Y-3379447D01*
X22281217Y-3339100D01*
X22315031Y-3305265D01*
X22338967Y-3300500D01*
X23637000Y-3300500D01*
X23681194Y-3318806D01*
G37*
%TD.AperFunction*%
%TA.AperFunction,Conductor*%
G36*
X11986194Y-18743806D02*
G01*
X12004500Y-18788000D01*
X12004500Y-19055188D01*
X11986194Y-19099382D01*
X11942000Y-19117688D01*
X11925824Y-19115558D01*
X11865898Y-19099501D01*
X11865893Y-19099500D01*
X11865892Y-19099500D01*
X11734108Y-19099500D01*
X11734107Y-19099500D01*
X11734101Y-19099501D01*
X11606817Y-19133606D01*
X11606814Y-19133607D01*
X11492684Y-19199501D01*
X11492680Y-19199504D01*
X11399504Y-19292680D01*
X11399501Y-19292684D01*
X11333607Y-19406814D01*
X11333606Y-19406817D01*
X11299501Y-19534101D01*
X11299500Y-19534109D01*
X11299500Y-19665890D01*
X11299501Y-19665898D01*
X11333606Y-19793182D01*
X11333607Y-19793185D01*
X11333608Y-19793186D01*
X11399500Y-19907314D01*
X11431194Y-19939008D01*
X11449500Y-19983201D01*
X11449500Y-25116797D01*
X11431194Y-25160991D01*
X11399504Y-25192680D01*
X11399501Y-25192684D01*
X11333607Y-25306814D01*
X11333606Y-25306817D01*
X11299501Y-25434101D01*
X11299500Y-25434109D01*
X11299500Y-25540797D01*
X11281194Y-25584991D01*
X11237000Y-25603297D01*
X11192806Y-25584991D01*
X11157319Y-25549504D01*
X11157315Y-25549501D01*
X11157314Y-25549500D01*
X11072444Y-25500500D01*
X11043185Y-25483607D01*
X11043182Y-25483606D01*
X10915898Y-25449501D01*
X10915893Y-25449500D01*
X10915892Y-25449500D01*
X10784108Y-25449500D01*
X10784107Y-25449500D01*
X10784101Y-25449501D01*
X10656817Y-25483606D01*
X10656814Y-25483607D01*
X10542684Y-25549501D01*
X10542680Y-25549504D01*
X10507194Y-25584991D01*
X10463000Y-25603297D01*
X10418806Y-25584991D01*
X10400500Y-25540797D01*
X10400500Y-21433202D01*
X10418806Y-21389008D01*
X10500495Y-21307319D01*
X10500500Y-21307314D01*
X10566392Y-21193186D01*
X10600500Y-21065892D01*
X10600500Y-20934108D01*
X10567926Y-20812540D01*
X10566393Y-20806817D01*
X10566392Y-20806814D01*
X10500500Y-20692686D01*
X10500498Y-20692684D01*
X10500495Y-20692680D01*
X10407319Y-20599504D01*
X10407315Y-20599501D01*
X10407314Y-20599500D01*
X10340999Y-20561213D01*
X10293185Y-20533607D01*
X10293182Y-20533606D01*
X10165898Y-20499501D01*
X10165893Y-20499500D01*
X10165892Y-20499500D01*
X10034108Y-20499500D01*
X10034107Y-20499500D01*
X10034101Y-20499501D01*
X9906817Y-20533606D01*
X9906814Y-20533607D01*
X9792684Y-20599501D01*
X9792680Y-20599504D01*
X9699504Y-20692680D01*
X9699499Y-20692686D01*
X9692126Y-20705458D01*
X9654176Y-20734578D01*
X9606749Y-20728333D01*
X9577629Y-20690383D01*
X9575500Y-20674207D01*
X9575500Y-18788000D01*
X9593806Y-18743806D01*
X9638000Y-18725500D01*
X11942000Y-18725500D01*
X11986194Y-18743806D01*
G37*
%TD.AperFunction*%
%TA.AperFunction,Conductor*%
G36*
X25681194Y-2318806D02*
G01*
X25699500Y-2363000D01*
X25699500Y-14494470D01*
X25681194Y-14538664D01*
X25637000Y-14556970D01*
X25605750Y-14548597D01*
X25493185Y-14483607D01*
X25493182Y-14483606D01*
X25365898Y-14449501D01*
X25365893Y-14449500D01*
X25365892Y-14449500D01*
X25234108Y-14449500D01*
X25234107Y-14449500D01*
X25234101Y-14449501D01*
X25106817Y-14483606D01*
X25106810Y-14483609D01*
X25094249Y-14490862D01*
X25046823Y-14497105D01*
X25008873Y-14467984D01*
X25000500Y-14436735D01*
X25000500Y-2460438D01*
X25000499Y-2460432D01*
X24978961Y-2380055D01*
X24981229Y-2379447D01*
X24981217Y-2339100D01*
X25015031Y-2305265D01*
X25038967Y-2300500D01*
X25637000Y-2300500D01*
X25681194Y-2318806D01*
G37*
%TD.AperFunction*%
%TD*%
M02*
