%TF.GenerationSoftware,KiCad,Pcbnew,10.0.3*%
%TF.CreationDate,2026-06-05T14:17:43+09:00*%
%TF.ProjectId,lora-30x35-v3n,6c6f7261-2d33-4307-9833-352d76336e2e,rev?*%
%TF.SameCoordinates,Original*%
%TF.FileFunction,Legend,Top*%
%TF.FilePolarity,Positive*%
%FSLAX46Y46*%
G04 Gerber Fmt 4.6, Leading zero omitted, Abs format (unit mm)*
G04 Created by KiCad (PCBNEW 10.0.3) date 2026-06-05 14:17:43*
%MOMM*%
%LPD*%
G01*
G04 APERTURE LIST*
%ADD10C,0.158750*%
%ADD11C,0.120000*%
G04 APERTURE END LIST*
D10*
X12688333Y-17458318D02*
X12627857Y-17518795D01*
X12627857Y-17518795D02*
X12446428Y-17579271D01*
X12446428Y-17579271D02*
X12325476Y-17579271D01*
X12325476Y-17579271D02*
X12144047Y-17518795D01*
X12144047Y-17518795D02*
X12023095Y-17397842D01*
X12023095Y-17397842D02*
X11962618Y-17276890D01*
X11962618Y-17276890D02*
X11902142Y-17034985D01*
X11902142Y-17034985D02*
X11902142Y-16853556D01*
X11902142Y-16853556D02*
X11962618Y-16611652D01*
X11962618Y-16611652D02*
X12023095Y-16490699D01*
X12023095Y-16490699D02*
X12144047Y-16369747D01*
X12144047Y-16369747D02*
X12325476Y-16309271D01*
X12325476Y-16309271D02*
X12446428Y-16309271D01*
X12446428Y-16309271D02*
X12627857Y-16369747D01*
X12627857Y-16369747D02*
X12688333Y-16430223D01*
X13776904Y-16732604D02*
X13776904Y-17579271D01*
X13474523Y-16248795D02*
X13172142Y-17155937D01*
X13172142Y-17155937D02*
X13958333Y-17155937D01*
X16897381Y-17809271D02*
X17623095Y-17809271D01*
X17260238Y-19079271D02*
X17260238Y-17809271D01*
X18046428Y-19079271D02*
X18046428Y-17809271D01*
X18046428Y-17809271D02*
X18530238Y-17809271D01*
X18530238Y-17809271D02*
X18651190Y-17869747D01*
X18651190Y-17869747D02*
X18711667Y-17930223D01*
X18711667Y-17930223D02*
X18772143Y-18051175D01*
X18772143Y-18051175D02*
X18772143Y-18232604D01*
X18772143Y-18232604D02*
X18711667Y-18353556D01*
X18711667Y-18353556D02*
X18651190Y-18414033D01*
X18651190Y-18414033D02*
X18530238Y-18474509D01*
X18530238Y-18474509D02*
X18046428Y-18474509D01*
X19255952Y-17930223D02*
X19316428Y-17869747D01*
X19316428Y-17869747D02*
X19437381Y-17809271D01*
X19437381Y-17809271D02*
X19739762Y-17809271D01*
X19739762Y-17809271D02*
X19860714Y-17869747D01*
X19860714Y-17869747D02*
X19921190Y-17930223D01*
X19921190Y-17930223D02*
X19981667Y-18051175D01*
X19981667Y-18051175D02*
X19981667Y-18172128D01*
X19981667Y-18172128D02*
X19921190Y-18353556D01*
X19921190Y-18353556D02*
X19195476Y-19079271D01*
X19195476Y-19079271D02*
X19981667Y-19079271D01*
X24788333Y-34079271D02*
X24364999Y-33474509D01*
X24062618Y-34079271D02*
X24062618Y-32809271D01*
X24062618Y-32809271D02*
X24546428Y-32809271D01*
X24546428Y-32809271D02*
X24667380Y-32869747D01*
X24667380Y-32869747D02*
X24727857Y-32930223D01*
X24727857Y-32930223D02*
X24788333Y-33051175D01*
X24788333Y-33051175D02*
X24788333Y-33232604D01*
X24788333Y-33232604D02*
X24727857Y-33353556D01*
X24727857Y-33353556D02*
X24667380Y-33414033D01*
X24667380Y-33414033D02*
X24546428Y-33474509D01*
X24546428Y-33474509D02*
X24062618Y-33474509D01*
X25272142Y-32930223D02*
X25332618Y-32869747D01*
X25332618Y-32869747D02*
X25453571Y-32809271D01*
X25453571Y-32809271D02*
X25755952Y-32809271D01*
X25755952Y-32809271D02*
X25876904Y-32869747D01*
X25876904Y-32869747D02*
X25937380Y-32930223D01*
X25937380Y-32930223D02*
X25997857Y-33051175D01*
X25997857Y-33051175D02*
X25997857Y-33172128D01*
X25997857Y-33172128D02*
X25937380Y-33353556D01*
X25937380Y-33353556D02*
X25211666Y-34079271D01*
X25211666Y-34079271D02*
X25997857Y-34079271D01*
X28288333Y-4958318D02*
X28227857Y-5018795D01*
X28227857Y-5018795D02*
X28046428Y-5079271D01*
X28046428Y-5079271D02*
X27925476Y-5079271D01*
X27925476Y-5079271D02*
X27744047Y-5018795D01*
X27744047Y-5018795D02*
X27623095Y-4897842D01*
X27623095Y-4897842D02*
X27562618Y-4776890D01*
X27562618Y-4776890D02*
X27502142Y-4534985D01*
X27502142Y-4534985D02*
X27502142Y-4353556D01*
X27502142Y-4353556D02*
X27562618Y-4111652D01*
X27562618Y-4111652D02*
X27623095Y-3990699D01*
X27623095Y-3990699D02*
X27744047Y-3869747D01*
X27744047Y-3869747D02*
X27925476Y-3809271D01*
X27925476Y-3809271D02*
X28046428Y-3809271D01*
X28046428Y-3809271D02*
X28227857Y-3869747D01*
X28227857Y-3869747D02*
X28288333Y-3930223D01*
X28772142Y-3930223D02*
X28832618Y-3869747D01*
X28832618Y-3869747D02*
X28953571Y-3809271D01*
X28953571Y-3809271D02*
X29255952Y-3809271D01*
X29255952Y-3809271D02*
X29376904Y-3869747D01*
X29376904Y-3869747D02*
X29437380Y-3930223D01*
X29437380Y-3930223D02*
X29497857Y-4051175D01*
X29497857Y-4051175D02*
X29497857Y-4172128D01*
X29497857Y-4172128D02*
X29437380Y-4353556D01*
X29437380Y-4353556D02*
X28711666Y-5079271D01*
X28711666Y-5079271D02*
X29497857Y-5079271D01*
X4788333Y-33579271D02*
X4364999Y-32974509D01*
X4062618Y-33579271D02*
X4062618Y-32309271D01*
X4062618Y-32309271D02*
X4546428Y-32309271D01*
X4546428Y-32309271D02*
X4667380Y-32369747D01*
X4667380Y-32369747D02*
X4727857Y-32430223D01*
X4727857Y-32430223D02*
X4788333Y-32551175D01*
X4788333Y-32551175D02*
X4788333Y-32732604D01*
X4788333Y-32732604D02*
X4727857Y-32853556D01*
X4727857Y-32853556D02*
X4667380Y-32914033D01*
X4667380Y-32914033D02*
X4546428Y-32974509D01*
X4546428Y-32974509D02*
X4062618Y-32974509D01*
X5937380Y-32309271D02*
X5332618Y-32309271D01*
X5332618Y-32309271D02*
X5272142Y-32914033D01*
X5272142Y-32914033D02*
X5332618Y-32853556D01*
X5332618Y-32853556D02*
X5453571Y-32793080D01*
X5453571Y-32793080D02*
X5755952Y-32793080D01*
X5755952Y-32793080D02*
X5876904Y-32853556D01*
X5876904Y-32853556D02*
X5937380Y-32914033D01*
X5937380Y-32914033D02*
X5997857Y-33034985D01*
X5997857Y-33034985D02*
X5997857Y-33337366D01*
X5997857Y-33337366D02*
X5937380Y-33458318D01*
X5937380Y-33458318D02*
X5876904Y-33518795D01*
X5876904Y-33518795D02*
X5755952Y-33579271D01*
X5755952Y-33579271D02*
X5453571Y-33579271D01*
X5453571Y-33579271D02*
X5332618Y-33518795D01*
X5332618Y-33518795D02*
X5272142Y-33458318D01*
X15578809Y-29079271D02*
X14974047Y-29079271D01*
X14974047Y-29079271D02*
X14974047Y-27809271D01*
X16002142Y-28414033D02*
X16425476Y-28414033D01*
X16606904Y-29079271D02*
X16002142Y-29079271D01*
X16002142Y-29079271D02*
X16002142Y-27809271D01*
X16002142Y-27809271D02*
X16606904Y-27809271D01*
X17151190Y-29079271D02*
X17151190Y-27809271D01*
X17151190Y-27809271D02*
X17453571Y-27809271D01*
X17453571Y-27809271D02*
X17635000Y-27869747D01*
X17635000Y-27869747D02*
X17755952Y-27990699D01*
X17755952Y-27990699D02*
X17816429Y-28111652D01*
X17816429Y-28111652D02*
X17876905Y-28353556D01*
X17876905Y-28353556D02*
X17876905Y-28534985D01*
X17876905Y-28534985D02*
X17816429Y-28776890D01*
X17816429Y-28776890D02*
X17755952Y-28897842D01*
X17755952Y-28897842D02*
X17635000Y-29018795D01*
X17635000Y-29018795D02*
X17453571Y-29079271D01*
X17453571Y-29079271D02*
X17151190Y-29079271D01*
X19086429Y-29079271D02*
X18360714Y-29079271D01*
X18723571Y-29079271D02*
X18723571Y-27809271D01*
X18723571Y-27809271D02*
X18602619Y-27990699D01*
X18602619Y-27990699D02*
X18481667Y-28111652D01*
X18481667Y-28111652D02*
X18360714Y-28172128D01*
X24032380Y-29809271D02*
X24032380Y-30837366D01*
X24032380Y-30837366D02*
X24092857Y-30958318D01*
X24092857Y-30958318D02*
X24153333Y-31018795D01*
X24153333Y-31018795D02*
X24274285Y-31079271D01*
X24274285Y-31079271D02*
X24516190Y-31079271D01*
X24516190Y-31079271D02*
X24637142Y-31018795D01*
X24637142Y-31018795D02*
X24697619Y-30958318D01*
X24697619Y-30958318D02*
X24758095Y-30837366D01*
X24758095Y-30837366D02*
X24758095Y-29809271D01*
X25907142Y-30232604D02*
X25907142Y-31079271D01*
X25604761Y-29748795D02*
X25302380Y-30655937D01*
X25302380Y-30655937D02*
X26088571Y-30655937D01*
X14397381Y-17809271D02*
X15123095Y-17809271D01*
X14760238Y-19079271D02*
X14760238Y-17809271D01*
X15546428Y-19079271D02*
X15546428Y-17809271D01*
X15546428Y-17809271D02*
X16030238Y-17809271D01*
X16030238Y-17809271D02*
X16151190Y-17869747D01*
X16151190Y-17869747D02*
X16211667Y-17930223D01*
X16211667Y-17930223D02*
X16272143Y-18051175D01*
X16272143Y-18051175D02*
X16272143Y-18232604D01*
X16272143Y-18232604D02*
X16211667Y-18353556D01*
X16211667Y-18353556D02*
X16151190Y-18414033D01*
X16151190Y-18414033D02*
X16030238Y-18474509D01*
X16030238Y-18474509D02*
X15546428Y-18474509D01*
X17481667Y-19079271D02*
X16755952Y-19079271D01*
X17118809Y-19079271D02*
X17118809Y-17809271D01*
X17118809Y-17809271D02*
X16997857Y-17990699D01*
X16997857Y-17990699D02*
X16876905Y-18111652D01*
X16876905Y-18111652D02*
X16755952Y-18172128D01*
X27288333Y-1258318D02*
X27227857Y-1318795D01*
X27227857Y-1318795D02*
X27046428Y-1379271D01*
X27046428Y-1379271D02*
X26925476Y-1379271D01*
X26925476Y-1379271D02*
X26744047Y-1318795D01*
X26744047Y-1318795D02*
X26623095Y-1197842D01*
X26623095Y-1197842D02*
X26562618Y-1076890D01*
X26562618Y-1076890D02*
X26502142Y-834985D01*
X26502142Y-834985D02*
X26502142Y-653556D01*
X26502142Y-653556D02*
X26562618Y-411652D01*
X26562618Y-411652D02*
X26623095Y-290699D01*
X26623095Y-290699D02*
X26744047Y-169747D01*
X26744047Y-169747D02*
X26925476Y-109271D01*
X26925476Y-109271D02*
X27046428Y-109271D01*
X27046428Y-109271D02*
X27227857Y-169747D01*
X27227857Y-169747D02*
X27288333Y-230223D01*
X28497857Y-1379271D02*
X27772142Y-1379271D01*
X28134999Y-1379271D02*
X28134999Y-109271D01*
X28134999Y-109271D02*
X28014047Y-290699D01*
X28014047Y-290699D02*
X27893095Y-411652D01*
X27893095Y-411652D02*
X27772142Y-472128D01*
X27788333Y-27958318D02*
X27727857Y-28018795D01*
X27727857Y-28018795D02*
X27546428Y-28079271D01*
X27546428Y-28079271D02*
X27425476Y-28079271D01*
X27425476Y-28079271D02*
X27244047Y-28018795D01*
X27244047Y-28018795D02*
X27123095Y-27897842D01*
X27123095Y-27897842D02*
X27062618Y-27776890D01*
X27062618Y-27776890D02*
X27002142Y-27534985D01*
X27002142Y-27534985D02*
X27002142Y-27353556D01*
X27002142Y-27353556D02*
X27062618Y-27111652D01*
X27062618Y-27111652D02*
X27123095Y-26990699D01*
X27123095Y-26990699D02*
X27244047Y-26869747D01*
X27244047Y-26869747D02*
X27425476Y-26809271D01*
X27425476Y-26809271D02*
X27546428Y-26809271D01*
X27546428Y-26809271D02*
X27727857Y-26869747D01*
X27727857Y-26869747D02*
X27788333Y-26930223D01*
X28876904Y-26809271D02*
X28634999Y-26809271D01*
X28634999Y-26809271D02*
X28514047Y-26869747D01*
X28514047Y-26869747D02*
X28453571Y-26930223D01*
X28453571Y-26930223D02*
X28332618Y-27111652D01*
X28332618Y-27111652D02*
X28272142Y-27353556D01*
X28272142Y-27353556D02*
X28272142Y-27837366D01*
X28272142Y-27837366D02*
X28332618Y-27958318D01*
X28332618Y-27958318D02*
X28393095Y-28018795D01*
X28393095Y-28018795D02*
X28514047Y-28079271D01*
X28514047Y-28079271D02*
X28755952Y-28079271D01*
X28755952Y-28079271D02*
X28876904Y-28018795D01*
X28876904Y-28018795D02*
X28937380Y-27958318D01*
X28937380Y-27958318D02*
X28997857Y-27837366D01*
X28997857Y-27837366D02*
X28997857Y-27534985D01*
X28997857Y-27534985D02*
X28937380Y-27414033D01*
X28937380Y-27414033D02*
X28876904Y-27353556D01*
X28876904Y-27353556D02*
X28755952Y-27293080D01*
X28755952Y-27293080D02*
X28514047Y-27293080D01*
X28514047Y-27293080D02*
X28393095Y-27353556D01*
X28393095Y-27353556D02*
X28332618Y-27414033D01*
X28332618Y-27414033D02*
X28272142Y-27534985D01*
X7788333Y-33579271D02*
X7364999Y-32974509D01*
X7062618Y-33579271D02*
X7062618Y-32309271D01*
X7062618Y-32309271D02*
X7546428Y-32309271D01*
X7546428Y-32309271D02*
X7667380Y-32369747D01*
X7667380Y-32369747D02*
X7727857Y-32430223D01*
X7727857Y-32430223D02*
X7788333Y-32551175D01*
X7788333Y-32551175D02*
X7788333Y-32732604D01*
X7788333Y-32732604D02*
X7727857Y-32853556D01*
X7727857Y-32853556D02*
X7667380Y-32914033D01*
X7667380Y-32914033D02*
X7546428Y-32974509D01*
X7546428Y-32974509D02*
X7062618Y-32974509D01*
X8876904Y-32309271D02*
X8634999Y-32309271D01*
X8634999Y-32309271D02*
X8514047Y-32369747D01*
X8514047Y-32369747D02*
X8453571Y-32430223D01*
X8453571Y-32430223D02*
X8332618Y-32611652D01*
X8332618Y-32611652D02*
X8272142Y-32853556D01*
X8272142Y-32853556D02*
X8272142Y-33337366D01*
X8272142Y-33337366D02*
X8332618Y-33458318D01*
X8332618Y-33458318D02*
X8393095Y-33518795D01*
X8393095Y-33518795D02*
X8514047Y-33579271D01*
X8514047Y-33579271D02*
X8755952Y-33579271D01*
X8755952Y-33579271D02*
X8876904Y-33518795D01*
X8876904Y-33518795D02*
X8937380Y-33458318D01*
X8937380Y-33458318D02*
X8997857Y-33337366D01*
X8997857Y-33337366D02*
X8997857Y-33034985D01*
X8997857Y-33034985D02*
X8937380Y-32914033D01*
X8937380Y-32914033D02*
X8876904Y-32853556D01*
X8876904Y-32853556D02*
X8755952Y-32793080D01*
X8755952Y-32793080D02*
X8514047Y-32793080D01*
X8514047Y-32793080D02*
X8393095Y-32853556D01*
X8393095Y-32853556D02*
X8332618Y-32914033D01*
X8332618Y-32914033D02*
X8272142Y-33034985D01*
X12032380Y-7309271D02*
X12032380Y-8337366D01*
X12032380Y-8337366D02*
X12092857Y-8458318D01*
X12092857Y-8458318D02*
X12153333Y-8518795D01*
X12153333Y-8518795D02*
X12274285Y-8579271D01*
X12274285Y-8579271D02*
X12516190Y-8579271D01*
X12516190Y-8579271D02*
X12637142Y-8518795D01*
X12637142Y-8518795D02*
X12697619Y-8458318D01*
X12697619Y-8458318D02*
X12758095Y-8337366D01*
X12758095Y-8337366D02*
X12758095Y-7309271D01*
X14028095Y-8579271D02*
X13302380Y-8579271D01*
X13665237Y-8579271D02*
X13665237Y-7309271D01*
X13665237Y-7309271D02*
X13544285Y-7490699D01*
X13544285Y-7490699D02*
X13423333Y-7611652D01*
X13423333Y-7611652D02*
X13302380Y-7672128D01*
X22943809Y-19216414D02*
X23548571Y-19216414D01*
X22822857Y-19579271D02*
X23246190Y-18309271D01*
X23246190Y-18309271D02*
X23669524Y-19579271D01*
X24092856Y-19579271D02*
X24092856Y-18309271D01*
X24092856Y-18309271D02*
X24818571Y-19579271D01*
X24818571Y-19579271D02*
X24818571Y-18309271D01*
X25241904Y-18309271D02*
X25967618Y-18309271D01*
X25604761Y-19579271D02*
X25604761Y-18309271D01*
X27056190Y-19579271D02*
X26330475Y-19579271D01*
X26693332Y-19579271D02*
X26693332Y-18309271D01*
X26693332Y-18309271D02*
X26572380Y-18490699D01*
X26572380Y-18490699D02*
X26451428Y-18611652D01*
X26451428Y-18611652D02*
X26330475Y-18672128D01*
X19288333Y-25079271D02*
X18864999Y-24474509D01*
X18562618Y-25079271D02*
X18562618Y-23809271D01*
X18562618Y-23809271D02*
X19046428Y-23809271D01*
X19046428Y-23809271D02*
X19167380Y-23869747D01*
X19167380Y-23869747D02*
X19227857Y-23930223D01*
X19227857Y-23930223D02*
X19288333Y-24051175D01*
X19288333Y-24051175D02*
X19288333Y-24232604D01*
X19288333Y-24232604D02*
X19227857Y-24353556D01*
X19227857Y-24353556D02*
X19167380Y-24414033D01*
X19167380Y-24414033D02*
X19046428Y-24474509D01*
X19046428Y-24474509D02*
X18562618Y-24474509D01*
X20497857Y-25079271D02*
X19772142Y-25079271D01*
X20134999Y-25079271D02*
X20134999Y-23809271D01*
X20134999Y-23809271D02*
X20014047Y-23990699D01*
X20014047Y-23990699D02*
X19893095Y-24111652D01*
X19893095Y-24111652D02*
X19772142Y-24172128D01*
X19788333Y-30079271D02*
X19364999Y-29474509D01*
X19062618Y-30079271D02*
X19062618Y-28809271D01*
X19062618Y-28809271D02*
X19546428Y-28809271D01*
X19546428Y-28809271D02*
X19667380Y-28869747D01*
X19667380Y-28869747D02*
X19727857Y-28930223D01*
X19727857Y-28930223D02*
X19788333Y-29051175D01*
X19788333Y-29051175D02*
X19788333Y-29232604D01*
X19788333Y-29232604D02*
X19727857Y-29353556D01*
X19727857Y-29353556D02*
X19667380Y-29414033D01*
X19667380Y-29414033D02*
X19546428Y-29474509D01*
X19546428Y-29474509D02*
X19062618Y-29474509D01*
X20876904Y-29232604D02*
X20876904Y-30079271D01*
X20574523Y-28748795D02*
X20272142Y-29655937D01*
X20272142Y-29655937D02*
X21058333Y-29655937D01*
X16788333Y-30079271D02*
X16364999Y-29474509D01*
X16062618Y-30079271D02*
X16062618Y-28809271D01*
X16062618Y-28809271D02*
X16546428Y-28809271D01*
X16546428Y-28809271D02*
X16667380Y-28869747D01*
X16667380Y-28869747D02*
X16727857Y-28930223D01*
X16727857Y-28930223D02*
X16788333Y-29051175D01*
X16788333Y-29051175D02*
X16788333Y-29232604D01*
X16788333Y-29232604D02*
X16727857Y-29353556D01*
X16727857Y-29353556D02*
X16667380Y-29414033D01*
X16667380Y-29414033D02*
X16546428Y-29474509D01*
X16546428Y-29474509D02*
X16062618Y-29474509D01*
X17211666Y-28809271D02*
X17997857Y-28809271D01*
X17997857Y-28809271D02*
X17574523Y-29293080D01*
X17574523Y-29293080D02*
X17755952Y-29293080D01*
X17755952Y-29293080D02*
X17876904Y-29353556D01*
X17876904Y-29353556D02*
X17937380Y-29414033D01*
X17937380Y-29414033D02*
X17997857Y-29534985D01*
X17997857Y-29534985D02*
X17997857Y-29837366D01*
X17997857Y-29837366D02*
X17937380Y-29958318D01*
X17937380Y-29958318D02*
X17876904Y-30018795D01*
X17876904Y-30018795D02*
X17755952Y-30079271D01*
X17755952Y-30079271D02*
X17393095Y-30079271D01*
X17393095Y-30079271D02*
X17272142Y-30018795D01*
X17272142Y-30018795D02*
X17211666Y-29958318D01*
X5632380Y-21309271D02*
X5632380Y-22337366D01*
X5632380Y-22337366D02*
X5692857Y-22458318D01*
X5692857Y-22458318D02*
X5753333Y-22518795D01*
X5753333Y-22518795D02*
X5874285Y-22579271D01*
X5874285Y-22579271D02*
X6116190Y-22579271D01*
X6116190Y-22579271D02*
X6237142Y-22518795D01*
X6237142Y-22518795D02*
X6297619Y-22458318D01*
X6297619Y-22458318D02*
X6358095Y-22337366D01*
X6358095Y-22337366D02*
X6358095Y-21309271D01*
X6841904Y-21309271D02*
X7628095Y-21309271D01*
X7628095Y-21309271D02*
X7204761Y-21793080D01*
X7204761Y-21793080D02*
X7386190Y-21793080D01*
X7386190Y-21793080D02*
X7507142Y-21853556D01*
X7507142Y-21853556D02*
X7567618Y-21914033D01*
X7567618Y-21914033D02*
X7628095Y-22034985D01*
X7628095Y-22034985D02*
X7628095Y-22337366D01*
X7628095Y-22337366D02*
X7567618Y-22458318D01*
X7567618Y-22458318D02*
X7507142Y-22518795D01*
X7507142Y-22518795D02*
X7386190Y-22579271D01*
X7386190Y-22579271D02*
X7023333Y-22579271D01*
X7023333Y-22579271D02*
X6902380Y-22518795D01*
X6902380Y-22518795D02*
X6841904Y-22458318D01*
X14576667Y-32309271D02*
X14576667Y-33216414D01*
X14576667Y-33216414D02*
X14516190Y-33397842D01*
X14516190Y-33397842D02*
X14395238Y-33518795D01*
X14395238Y-33518795D02*
X14213809Y-33579271D01*
X14213809Y-33579271D02*
X14092857Y-33579271D01*
X15120952Y-32430223D02*
X15181428Y-32369747D01*
X15181428Y-32369747D02*
X15302381Y-32309271D01*
X15302381Y-32309271D02*
X15604762Y-32309271D01*
X15604762Y-32309271D02*
X15725714Y-32369747D01*
X15725714Y-32369747D02*
X15786190Y-32430223D01*
X15786190Y-32430223D02*
X15846667Y-32551175D01*
X15846667Y-32551175D02*
X15846667Y-32672128D01*
X15846667Y-32672128D02*
X15786190Y-32853556D01*
X15786190Y-32853556D02*
X15060476Y-33579271D01*
X15060476Y-33579271D02*
X15846667Y-33579271D01*
X14032380Y-21809271D02*
X14032380Y-22837366D01*
X14032380Y-22837366D02*
X14092857Y-22958318D01*
X14092857Y-22958318D02*
X14153333Y-23018795D01*
X14153333Y-23018795D02*
X14274285Y-23079271D01*
X14274285Y-23079271D02*
X14516190Y-23079271D01*
X14516190Y-23079271D02*
X14637142Y-23018795D01*
X14637142Y-23018795D02*
X14697619Y-22958318D01*
X14697619Y-22958318D02*
X14758095Y-22837366D01*
X14758095Y-22837366D02*
X14758095Y-21809271D01*
X15302380Y-21930223D02*
X15362856Y-21869747D01*
X15362856Y-21869747D02*
X15483809Y-21809271D01*
X15483809Y-21809271D02*
X15786190Y-21809271D01*
X15786190Y-21809271D02*
X15907142Y-21869747D01*
X15907142Y-21869747D02*
X15967618Y-21930223D01*
X15967618Y-21930223D02*
X16028095Y-22051175D01*
X16028095Y-22051175D02*
X16028095Y-22172128D01*
X16028095Y-22172128D02*
X15967618Y-22353556D01*
X15967618Y-22353556D02*
X15241904Y-23079271D01*
X15241904Y-23079271D02*
X16028095Y-23079271D01*
X28288333Y-7958318D02*
X28227857Y-8018795D01*
X28227857Y-8018795D02*
X28046428Y-8079271D01*
X28046428Y-8079271D02*
X27925476Y-8079271D01*
X27925476Y-8079271D02*
X27744047Y-8018795D01*
X27744047Y-8018795D02*
X27623095Y-7897842D01*
X27623095Y-7897842D02*
X27562618Y-7776890D01*
X27562618Y-7776890D02*
X27502142Y-7534985D01*
X27502142Y-7534985D02*
X27502142Y-7353556D01*
X27502142Y-7353556D02*
X27562618Y-7111652D01*
X27562618Y-7111652D02*
X27623095Y-6990699D01*
X27623095Y-6990699D02*
X27744047Y-6869747D01*
X27744047Y-6869747D02*
X27925476Y-6809271D01*
X27925476Y-6809271D02*
X28046428Y-6809271D01*
X28046428Y-6809271D02*
X28227857Y-6869747D01*
X28227857Y-6869747D02*
X28288333Y-6930223D01*
X29437380Y-6809271D02*
X28832618Y-6809271D01*
X28832618Y-6809271D02*
X28772142Y-7414033D01*
X28772142Y-7414033D02*
X28832618Y-7353556D01*
X28832618Y-7353556D02*
X28953571Y-7293080D01*
X28953571Y-7293080D02*
X29255952Y-7293080D01*
X29255952Y-7293080D02*
X29376904Y-7353556D01*
X29376904Y-7353556D02*
X29437380Y-7414033D01*
X29437380Y-7414033D02*
X29497857Y-7534985D01*
X29497857Y-7534985D02*
X29497857Y-7837366D01*
X29497857Y-7837366D02*
X29437380Y-7958318D01*
X29437380Y-7958318D02*
X29376904Y-8018795D01*
X29376904Y-8018795D02*
X29255952Y-8079271D01*
X29255952Y-8079271D02*
X28953571Y-8079271D01*
X28953571Y-8079271D02*
X28832618Y-8018795D01*
X28832618Y-8018795D02*
X28772142Y-7958318D01*
X1306666Y-30518795D02*
X1488095Y-30579271D01*
X1488095Y-30579271D02*
X1790476Y-30579271D01*
X1790476Y-30579271D02*
X1911428Y-30518795D01*
X1911428Y-30518795D02*
X1971904Y-30458318D01*
X1971904Y-30458318D02*
X2032381Y-30337366D01*
X2032381Y-30337366D02*
X2032381Y-30216414D01*
X2032381Y-30216414D02*
X1971904Y-30095461D01*
X1971904Y-30095461D02*
X1911428Y-30034985D01*
X1911428Y-30034985D02*
X1790476Y-29974509D01*
X1790476Y-29974509D02*
X1548571Y-29914033D01*
X1548571Y-29914033D02*
X1427619Y-29853556D01*
X1427619Y-29853556D02*
X1367142Y-29793080D01*
X1367142Y-29793080D02*
X1306666Y-29672128D01*
X1306666Y-29672128D02*
X1306666Y-29551175D01*
X1306666Y-29551175D02*
X1367142Y-29430223D01*
X1367142Y-29430223D02*
X1427619Y-29369747D01*
X1427619Y-29369747D02*
X1548571Y-29309271D01*
X1548571Y-29309271D02*
X1850952Y-29309271D01*
X1850952Y-29309271D02*
X2032381Y-29369747D01*
X2455714Y-29309271D02*
X2758095Y-30579271D01*
X2758095Y-30579271D02*
X3000000Y-29672128D01*
X3000000Y-29672128D02*
X3241905Y-30579271D01*
X3241905Y-30579271D02*
X3544286Y-29309271D01*
X4693334Y-30579271D02*
X3967619Y-30579271D01*
X4330476Y-30579271D02*
X4330476Y-29309271D01*
X4330476Y-29309271D02*
X4209524Y-29490699D01*
X4209524Y-29490699D02*
X4088572Y-29611652D01*
X4088572Y-29611652D02*
X3967619Y-29672128D01*
X18578809Y-29079271D02*
X17974047Y-29079271D01*
X17974047Y-29079271D02*
X17974047Y-27809271D01*
X19002142Y-28414033D02*
X19425476Y-28414033D01*
X19606904Y-29079271D02*
X19002142Y-29079271D01*
X19002142Y-29079271D02*
X19002142Y-27809271D01*
X19002142Y-27809271D02*
X19606904Y-27809271D01*
X20151190Y-29079271D02*
X20151190Y-27809271D01*
X20151190Y-27809271D02*
X20453571Y-27809271D01*
X20453571Y-27809271D02*
X20635000Y-27869747D01*
X20635000Y-27869747D02*
X20755952Y-27990699D01*
X20755952Y-27990699D02*
X20816429Y-28111652D01*
X20816429Y-28111652D02*
X20876905Y-28353556D01*
X20876905Y-28353556D02*
X20876905Y-28534985D01*
X20876905Y-28534985D02*
X20816429Y-28776890D01*
X20816429Y-28776890D02*
X20755952Y-28897842D01*
X20755952Y-28897842D02*
X20635000Y-29018795D01*
X20635000Y-29018795D02*
X20453571Y-29079271D01*
X20453571Y-29079271D02*
X20151190Y-29079271D01*
X21360714Y-27930223D02*
X21421190Y-27869747D01*
X21421190Y-27869747D02*
X21542143Y-27809271D01*
X21542143Y-27809271D02*
X21844524Y-27809271D01*
X21844524Y-27809271D02*
X21965476Y-27869747D01*
X21965476Y-27869747D02*
X22025952Y-27930223D01*
X22025952Y-27930223D02*
X22086429Y-28051175D01*
X22086429Y-28051175D02*
X22086429Y-28172128D01*
X22086429Y-28172128D02*
X22025952Y-28353556D01*
X22025952Y-28353556D02*
X21300238Y-29079271D01*
X21300238Y-29079271D02*
X22086429Y-29079271D01*
X22576667Y-23809271D02*
X22576667Y-24716414D01*
X22576667Y-24716414D02*
X22516190Y-24897842D01*
X22516190Y-24897842D02*
X22395238Y-25018795D01*
X22395238Y-25018795D02*
X22213809Y-25079271D01*
X22213809Y-25079271D02*
X22092857Y-25079271D01*
X23846667Y-25079271D02*
X23120952Y-25079271D01*
X23483809Y-25079271D02*
X23483809Y-23809271D01*
X23483809Y-23809271D02*
X23362857Y-23990699D01*
X23362857Y-23990699D02*
X23241905Y-24111652D01*
X23241905Y-24111652D02*
X23120952Y-24172128D01*
X19288333Y-20958318D02*
X19227857Y-21018795D01*
X19227857Y-21018795D02*
X19046428Y-21079271D01*
X19046428Y-21079271D02*
X18925476Y-21079271D01*
X18925476Y-21079271D02*
X18744047Y-21018795D01*
X18744047Y-21018795D02*
X18623095Y-20897842D01*
X18623095Y-20897842D02*
X18562618Y-20776890D01*
X18562618Y-20776890D02*
X18502142Y-20534985D01*
X18502142Y-20534985D02*
X18502142Y-20353556D01*
X18502142Y-20353556D02*
X18562618Y-20111652D01*
X18562618Y-20111652D02*
X18623095Y-19990699D01*
X18623095Y-19990699D02*
X18744047Y-19869747D01*
X18744047Y-19869747D02*
X18925476Y-19809271D01*
X18925476Y-19809271D02*
X19046428Y-19809271D01*
X19046428Y-19809271D02*
X19227857Y-19869747D01*
X19227857Y-19869747D02*
X19288333Y-19930223D01*
X19711666Y-19809271D02*
X20497857Y-19809271D01*
X20497857Y-19809271D02*
X20074523Y-20293080D01*
X20074523Y-20293080D02*
X20255952Y-20293080D01*
X20255952Y-20293080D02*
X20376904Y-20353556D01*
X20376904Y-20353556D02*
X20437380Y-20414033D01*
X20437380Y-20414033D02*
X20497857Y-20534985D01*
X20497857Y-20534985D02*
X20497857Y-20837366D01*
X20497857Y-20837366D02*
X20437380Y-20958318D01*
X20437380Y-20958318D02*
X20376904Y-21018795D01*
X20376904Y-21018795D02*
X20255952Y-21079271D01*
X20255952Y-21079271D02*
X19893095Y-21079271D01*
X19893095Y-21079271D02*
X19772142Y-21018795D01*
X19772142Y-21018795D02*
X19711666Y-20958318D01*
X18897381Y-17809271D02*
X19623095Y-17809271D01*
X19260238Y-19079271D02*
X19260238Y-17809271D01*
X20046428Y-19079271D02*
X20046428Y-17809271D01*
X20046428Y-17809271D02*
X20530238Y-17809271D01*
X20530238Y-17809271D02*
X20651190Y-17869747D01*
X20651190Y-17869747D02*
X20711667Y-17930223D01*
X20711667Y-17930223D02*
X20772143Y-18051175D01*
X20772143Y-18051175D02*
X20772143Y-18232604D01*
X20772143Y-18232604D02*
X20711667Y-18353556D01*
X20711667Y-18353556D02*
X20651190Y-18414033D01*
X20651190Y-18414033D02*
X20530238Y-18474509D01*
X20530238Y-18474509D02*
X20046428Y-18474509D01*
X21195476Y-17809271D02*
X21981667Y-17809271D01*
X21981667Y-17809271D02*
X21558333Y-18293080D01*
X21558333Y-18293080D02*
X21739762Y-18293080D01*
X21739762Y-18293080D02*
X21860714Y-18353556D01*
X21860714Y-18353556D02*
X21921190Y-18414033D01*
X21921190Y-18414033D02*
X21981667Y-18534985D01*
X21981667Y-18534985D02*
X21981667Y-18837366D01*
X21981667Y-18837366D02*
X21921190Y-18958318D01*
X21921190Y-18958318D02*
X21860714Y-19018795D01*
X21860714Y-19018795D02*
X21739762Y-19079271D01*
X21739762Y-19079271D02*
X21376905Y-19079271D01*
X21376905Y-19079271D02*
X21255952Y-19018795D01*
X21255952Y-19018795D02*
X21195476Y-18958318D01*
%TO.C,C4*%
D11*
X12300000Y-15950000D02*
X13499999Y-15950000D01*
X13499999Y-18050000D01*
X12300000Y-18050000D01*
X12300000Y-15950000D01*
%TO.C,R2*%
X23950000Y-32900000D02*
X26050000Y-32900000D01*
X26050000Y-34100000D01*
X23950000Y-34100000D01*
X23950000Y-32900000D01*
%TO.C,C2*%
X27899999Y-3450001D02*
X29100000Y-3450001D01*
X29100000Y-5550000D01*
X27899999Y-5550000D01*
X27899999Y-3450001D01*
%TO.C,R5*%
X3950000Y-32400000D02*
X6050000Y-32400000D01*
X6050000Y-33600000D01*
X3950000Y-33600000D01*
X3950000Y-32400000D01*
%TO.C,LED1*%
X16300000Y-28150000D02*
X16300000Y-28850000D01*
X15950000Y-27900000D02*
X18050000Y-27900000D01*
X18050000Y-29100000D01*
X15950000Y-29100000D01*
X15950000Y-27900000D01*
%TO.C,U4*%
X23300000Y-29650000D02*
X26700000Y-29650000D01*
X26700000Y-31350000D01*
X23300000Y-31350000D01*
X23300000Y-29650000D01*
%TO.C,C1*%
X26450000Y-200000D02*
X28549999Y-200000D01*
X28549999Y-1400000D01*
X26450000Y-1400000D01*
X26450000Y-200000D01*
%TO.C,C6*%
X26950000Y-26900000D02*
X29050000Y-26900000D01*
X29050000Y-28100000D01*
X26950000Y-28100000D01*
X26950000Y-26900000D01*
%TO.C,R6*%
X6950000Y-32400000D02*
X9050000Y-32400000D01*
X9050000Y-33600000D01*
X6950000Y-33600000D01*
X6950000Y-32400000D01*
%TO.C,U1*%
X-150000Y150000D02*
X26150000Y150000D01*
X26150000Y-16149999D01*
X-150000Y-16149999D01*
X-150000Y150000D01*
%TO.C,ANT1*%
X23100000Y-17850000D02*
X26900000Y-17850000D01*
X26900000Y-20150000D01*
X23100000Y-20150000D01*
X23100000Y-17850000D01*
%TO.C,R1*%
X18450000Y-23900000D02*
X20549999Y-23900000D01*
X20549999Y-25099999D01*
X18450000Y-25099999D01*
X18450000Y-23900000D01*
%TO.C,R4*%
X18950000Y-28900000D02*
X21050000Y-28900000D01*
X21050000Y-30100000D01*
X18950000Y-30100000D01*
X18950000Y-28900000D01*
%TO.C,R3*%
X15950000Y-28900000D02*
X18050000Y-28900000D01*
X18050000Y-30100000D01*
X15950000Y-30100000D01*
X15950000Y-28900000D01*
%TO.C,U3*%
X1600000Y-16800000D02*
X11600000Y-16800000D01*
X11600000Y-27200000D01*
X1600000Y-27200000D01*
X1600000Y-16800000D01*
%TO.C,J2*%
X10400000Y-30500000D02*
X19600000Y-30500000D01*
X19600000Y-34800000D01*
X10400000Y-34800000D01*
X10400000Y-30500000D01*
%TO.C,U2*%
X13350000Y-20850000D02*
X16649999Y-20850000D01*
X16649999Y-24150000D01*
X13350000Y-24150000D01*
X13350000Y-20850000D01*
%TO.C,C5*%
X27900000Y-6450001D02*
X29100000Y-6450001D01*
X29100000Y-8550000D01*
X27900000Y-8550000D01*
X27900000Y-6450001D01*
%TO.C,SW1*%
X900000Y-28450000D02*
X5100000Y-28450000D01*
X5100000Y-31550000D01*
X900000Y-31550000D01*
X900000Y-28450000D01*
%TO.C,LED2*%
X19300000Y-28150000D02*
X19300000Y-28850000D01*
X18950000Y-27900000D02*
X21050000Y-27900000D01*
X21050000Y-29100000D01*
X18950000Y-29100000D01*
X18950000Y-27900000D01*
%TO.C,J1*%
X20600000Y-22600000D02*
X25400000Y-22600000D01*
X25400000Y-26400000D01*
X20600000Y-26400000D01*
X20600000Y-22600000D01*
%TO.C,C3*%
X18450000Y-19900000D02*
X20549999Y-19900000D01*
X20549999Y-21099999D01*
X18450000Y-21099999D01*
X18450000Y-19900000D01*
%TD*%
M02*
