%TF.GenerationSoftware,KiCad,Pcbnew,10.0.3*%
%TF.CreationDate,2026-05-26T20:44:07+09:00*%
%TF.ProjectId,,58585858-5858-4585-9858-585858585858,rev?*%
%TF.SameCoordinates,Original*%
%TF.FileFunction,Copper,L1,Top*%
%TF.FilePolarity,Positive*%
%FSLAX46Y46*%
G04 Gerber Fmt 4.6, Leading zero omitted, Abs format (unit mm)*
G04 Created by KiCad (PCBNEW 10.0.3) date 2026-05-26 20:44:07*
%MOMM*%
%LPD*%
G01*
G04 APERTURE LIST*
%TA.AperFunction,SMDPad,CuDef*%
%ADD10R,0.900000X0.500000*%
%TD*%
%TA.AperFunction,SMDPad,CuDef*%
%ADD11R,1.200000X2.000000*%
%TD*%
%TA.AperFunction,SMDPad,CuDef*%
%ADD12R,2.500000X1.800000*%
%TD*%
%TA.AperFunction,SMDPad,CuDef*%
%ADD13R,0.650000X0.250000*%
%TD*%
%TA.AperFunction,SMDPad,CuDef*%
%ADD14R,1.600000X1.600000*%
%TD*%
%TA.AperFunction,SMDPad,CuDef*%
%ADD15R,0.250000X0.650000*%
%TD*%
%TA.AperFunction,SMDPad,CuDef*%
%ADD16R,1.600000X0.700000*%
%TD*%
G04 APERTURE END LIST*
D10*
%TO.P,R1,2*%
%TO.N,N/C*%
X899999Y0D03*
%TO.P,R1,1*%
X-899999Y0D03*
%TD*%
%TO.P,C5,2*%
%TO.N,N/C*%
X899999Y0D03*
%TO.P,C5,1*%
X-899999Y0D03*
%TD*%
%TO.P,C4,2*%
%TO.N,N/C*%
X900000Y0D03*
%TO.P,C4,1*%
X-900000Y0D03*
%TD*%
%TO.P,C3,2*%
%TO.N,N/C*%
X900000Y0D03*
%TO.P,C3,1*%
X-900000Y0D03*
%TD*%
%TO.P,C2,2*%
%TO.N,N/C*%
X899999Y0D03*
%TO.P,C2,1*%
X-899999Y0D03*
%TD*%
%TO.P,C1,2*%
%TO.N,N/C*%
X899999Y0D03*
%TO.P,C1,1*%
X-899999Y0D03*
%TD*%
D11*
%TO.P,J1,2*%
%TO.N,N/C*%
X625000Y-500000D03*
%TO.P,J1,1*%
X-625000Y-500000D03*
%TD*%
D12*
%TO.P,U3,EP*%
%TO.N,N/C*%
X0Y0D03*
D13*
%TO.P,U3,18*%
X-2049999Y-1400000D03*
%TO.P,U3,17*%
X-2049999Y-1050000D03*
%TO.P,U3,16*%
X-2049999Y-700000D03*
%TO.P,U3,15*%
X-2049999Y-350000D03*
%TO.P,U3,14*%
X-2049999Y0D03*
%TO.P,U3,13*%
X-2049999Y349999D03*
%TO.P,U3,12*%
X-2049999Y699999D03*
%TO.P,U3,11*%
X-2049999Y1049999D03*
%TO.P,U3,10*%
X-2049999Y1399999D03*
%TO.P,U3,9*%
X2049999Y1400000D03*
%TO.P,U3,8*%
X2049999Y1050000D03*
%TO.P,U3,7*%
X2049999Y700000D03*
%TO.P,U3,6*%
X2049999Y350000D03*
%TO.P,U3,5*%
X2049999Y0D03*
%TO.P,U3,4*%
X2049999Y-349999D03*
%TO.P,U3,3*%
X2049999Y-699999D03*
%TO.P,U3,2*%
X2049999Y-1049999D03*
%TO.P,U3,1*%
X2049999Y-1399999D03*
%TD*%
D14*
%TO.P,U2,EP*%
%TO.N,N/C*%
X0Y0D03*
D15*
%TO.P,U2,20*%
X-1000000Y1750000D03*
D13*
%TO.P,U2,15*%
X1750000Y1000000D03*
D15*
%TO.P,U2,10*%
X1000000Y-1750000D03*
D13*
%TO.P,U2,5*%
X-1750000Y-1000000D03*
D15*
%TO.P,U2,19*%
X-500000Y1750000D03*
D13*
%TO.P,U2,14*%
X1750000Y500000D03*
D15*
%TO.P,U2,9*%
X500000Y-1750000D03*
D13*
%TO.P,U2,4*%
X-1750000Y-500000D03*
D15*
%TO.P,U2,18*%
X0Y1750000D03*
D13*
%TO.P,U2,13*%
X1750000Y0D03*
D15*
%TO.P,U2,8*%
X0Y-1750000D03*
D13*
%TO.P,U2,3*%
X-1750000Y0D03*
D15*
%TO.P,U2,17*%
X500000Y1750000D03*
D13*
%TO.P,U2,12*%
X1750000Y-500000D03*
D15*
%TO.P,U2,7*%
X-500000Y-1750000D03*
D13*
%TO.P,U2,2*%
X-1750000Y500000D03*
D15*
%TO.P,U2,16*%
X1000000Y1750000D03*
D13*
%TO.P,U2,11*%
X1750000Y-1000000D03*
D15*
%TO.P,U2,6*%
X-1000000Y-1750000D03*
D13*
%TO.P,U2,1*%
X-1750000Y1000000D03*
%TD*%
D16*
%TO.P,U1,22*%
%TO.N,N/C*%
X-13000000Y-6350000D03*
%TO.P,U1,21*%
X-13000000Y-5080000D03*
%TO.P,U1,20*%
X-13000000Y-3810000D03*
%TO.P,U1,19*%
X-13000000Y-2540000D03*
%TO.P,U1,18*%
X-13000000Y-1269999D03*
%TO.P,U1,17*%
X-13000000Y0D03*
%TO.P,U1,16*%
X-13000000Y1269999D03*
%TO.P,U1,15*%
X-13000000Y2540000D03*
%TO.P,U1,14*%
X-13000000Y3810000D03*
%TO.P,U1,13*%
X-13000000Y5080000D03*
%TO.P,U1,12*%
X-13000000Y6350000D03*
%TO.P,U1,11*%
X13000000Y6350000D03*
%TO.P,U1,10*%
X13000000Y5080000D03*
%TO.P,U1,9*%
X13000000Y3810000D03*
%TO.P,U1,8*%
X13000000Y2540000D03*
%TO.P,U1,7*%
X13000000Y1270000D03*
%TO.P,U1,6*%
X13000000Y0D03*
%TO.P,U1,5*%
X13000000Y-1269999D03*
%TO.P,U1,4*%
X13000000Y-2539999D03*
%TO.P,U1,3*%
X13000000Y-3809999D03*
%TO.P,U1,2*%
X13000000Y-5080000D03*
%TO.P,U1,1*%
X13000000Y-6350000D03*
%TD*%
M02*
