%TF.GenerationSoftware,KiCad,Pcbnew,10.0.3*%
%TF.CreationDate,2026-05-26T20:44:07+09:00*%
%TF.ProjectId,,58585858-5858-4585-9858-585858585858,rev?*%
%TF.SameCoordinates,Original*%
%TF.FileFunction,Legend,Top*%
%TF.FilePolarity,Positive*%
%FSLAX46Y46*%
G04 Gerber Fmt 4.6, Leading zero omitted, Abs format (unit mm)*
G04 Created by KiCad (PCBNEW 10.0.3) date 2026-05-26 20:44:07*
%MOMM*%
%LPD*%
G01*
G04 APERTURE LIST*
%ADD10C,0.158750*%
%ADD11C,0.120000*%
G04 APERTURE END LIST*
D10*
X16788333Y-19579271D02*
X16364999Y-18974509D01*
X16062618Y-19579271D02*
X16062618Y-18309271D01*
X16062618Y-18309271D02*
X16546428Y-18309271D01*
X16546428Y-18309271D02*
X16667380Y-18369747D01*
X16667380Y-18369747D02*
X16727857Y-18430223D01*
X16727857Y-18430223D02*
X16788333Y-18551175D01*
X16788333Y-18551175D02*
X16788333Y-18732604D01*
X16788333Y-18732604D02*
X16727857Y-18853556D01*
X16727857Y-18853556D02*
X16667380Y-18914033D01*
X16667380Y-18914033D02*
X16546428Y-18974509D01*
X16546428Y-18974509D02*
X16062618Y-18974509D01*
X17997857Y-19579271D02*
X17272142Y-19579271D01*
X17634999Y-19579271D02*
X17634999Y-18309271D01*
X17634999Y-18309271D02*
X17514047Y-18490699D01*
X17514047Y-18490699D02*
X17393095Y-18611652D01*
X17393095Y-18611652D02*
X17272142Y-18672128D01*
X26788333Y-17958318D02*
X26727857Y-18018795D01*
X26727857Y-18018795D02*
X26546428Y-18079271D01*
X26546428Y-18079271D02*
X26425476Y-18079271D01*
X26425476Y-18079271D02*
X26244047Y-18018795D01*
X26244047Y-18018795D02*
X26123095Y-17897842D01*
X26123095Y-17897842D02*
X26062618Y-17776890D01*
X26062618Y-17776890D02*
X26002142Y-17534985D01*
X26002142Y-17534985D02*
X26002142Y-17353556D01*
X26002142Y-17353556D02*
X26062618Y-17111652D01*
X26062618Y-17111652D02*
X26123095Y-16990699D01*
X26123095Y-16990699D02*
X26244047Y-16869747D01*
X26244047Y-16869747D02*
X26425476Y-16809271D01*
X26425476Y-16809271D02*
X26546428Y-16809271D01*
X26546428Y-16809271D02*
X26727857Y-16869747D01*
X26727857Y-16869747D02*
X26788333Y-16930223D01*
X27937380Y-16809271D02*
X27332618Y-16809271D01*
X27332618Y-16809271D02*
X27272142Y-17414033D01*
X27272142Y-17414033D02*
X27332618Y-17353556D01*
X27332618Y-17353556D02*
X27453571Y-17293080D01*
X27453571Y-17293080D02*
X27755952Y-17293080D01*
X27755952Y-17293080D02*
X27876904Y-17353556D01*
X27876904Y-17353556D02*
X27937380Y-17414033D01*
X27937380Y-17414033D02*
X27997857Y-17534985D01*
X27997857Y-17534985D02*
X27997857Y-17837366D01*
X27997857Y-17837366D02*
X27937380Y-17958318D01*
X27937380Y-17958318D02*
X27876904Y-18018795D01*
X27876904Y-18018795D02*
X27755952Y-18079271D01*
X27755952Y-18079271D02*
X27453571Y-18079271D01*
X27453571Y-18079271D02*
X27332618Y-18018795D01*
X27332618Y-18018795D02*
X27272142Y-17958318D01*
X5288333Y-21458318D02*
X5227857Y-21518795D01*
X5227857Y-21518795D02*
X5046428Y-21579271D01*
X5046428Y-21579271D02*
X4925476Y-21579271D01*
X4925476Y-21579271D02*
X4744047Y-21518795D01*
X4744047Y-21518795D02*
X4623095Y-21397842D01*
X4623095Y-21397842D02*
X4562618Y-21276890D01*
X4562618Y-21276890D02*
X4502142Y-21034985D01*
X4502142Y-21034985D02*
X4502142Y-20853556D01*
X4502142Y-20853556D02*
X4562618Y-20611652D01*
X4562618Y-20611652D02*
X4623095Y-20490699D01*
X4623095Y-20490699D02*
X4744047Y-20369747D01*
X4744047Y-20369747D02*
X4925476Y-20309271D01*
X4925476Y-20309271D02*
X5046428Y-20309271D01*
X5046428Y-20309271D02*
X5227857Y-20369747D01*
X5227857Y-20369747D02*
X5288333Y-20430223D01*
X6376904Y-20732604D02*
X6376904Y-21579271D01*
X6074523Y-20248795D02*
X5772142Y-21155937D01*
X5772142Y-21155937D02*
X6558333Y-21155937D01*
X11288333Y-19958318D02*
X11227857Y-20018795D01*
X11227857Y-20018795D02*
X11046428Y-20079271D01*
X11046428Y-20079271D02*
X10925476Y-20079271D01*
X10925476Y-20079271D02*
X10744047Y-20018795D01*
X10744047Y-20018795D02*
X10623095Y-19897842D01*
X10623095Y-19897842D02*
X10562618Y-19776890D01*
X10562618Y-19776890D02*
X10502142Y-19534985D01*
X10502142Y-19534985D02*
X10502142Y-19353556D01*
X10502142Y-19353556D02*
X10562618Y-19111652D01*
X10562618Y-19111652D02*
X10623095Y-18990699D01*
X10623095Y-18990699D02*
X10744047Y-18869747D01*
X10744047Y-18869747D02*
X10925476Y-18809271D01*
X10925476Y-18809271D02*
X11046428Y-18809271D01*
X11046428Y-18809271D02*
X11227857Y-18869747D01*
X11227857Y-18869747D02*
X11288333Y-18930223D01*
X11711666Y-18809271D02*
X12497857Y-18809271D01*
X12497857Y-18809271D02*
X12074523Y-19293080D01*
X12074523Y-19293080D02*
X12255952Y-19293080D01*
X12255952Y-19293080D02*
X12376904Y-19353556D01*
X12376904Y-19353556D02*
X12437380Y-19414033D01*
X12437380Y-19414033D02*
X12497857Y-19534985D01*
X12497857Y-19534985D02*
X12497857Y-19837366D01*
X12497857Y-19837366D02*
X12437380Y-19958318D01*
X12437380Y-19958318D02*
X12376904Y-20018795D01*
X12376904Y-20018795D02*
X12255952Y-20079271D01*
X12255952Y-20079271D02*
X11893095Y-20079271D01*
X11893095Y-20079271D02*
X11772142Y-20018795D01*
X11772142Y-20018795D02*
X11711666Y-19958318D01*
X25788333Y-16958318D02*
X25727857Y-17018795D01*
X25727857Y-17018795D02*
X25546428Y-17079271D01*
X25546428Y-17079271D02*
X25425476Y-17079271D01*
X25425476Y-17079271D02*
X25244047Y-17018795D01*
X25244047Y-17018795D02*
X25123095Y-16897842D01*
X25123095Y-16897842D02*
X25062618Y-16776890D01*
X25062618Y-16776890D02*
X25002142Y-16534985D01*
X25002142Y-16534985D02*
X25002142Y-16353556D01*
X25002142Y-16353556D02*
X25062618Y-16111652D01*
X25062618Y-16111652D02*
X25123095Y-15990699D01*
X25123095Y-15990699D02*
X25244047Y-15869747D01*
X25244047Y-15869747D02*
X25425476Y-15809271D01*
X25425476Y-15809271D02*
X25546428Y-15809271D01*
X25546428Y-15809271D02*
X25727857Y-15869747D01*
X25727857Y-15869747D02*
X25788333Y-15930223D01*
X26272142Y-15930223D02*
X26332618Y-15869747D01*
X26332618Y-15869747D02*
X26453571Y-15809271D01*
X26453571Y-15809271D02*
X26755952Y-15809271D01*
X26755952Y-15809271D02*
X26876904Y-15869747D01*
X26876904Y-15869747D02*
X26937380Y-15930223D01*
X26937380Y-15930223D02*
X26997857Y-16051175D01*
X26997857Y-16051175D02*
X26997857Y-16172128D01*
X26997857Y-16172128D02*
X26937380Y-16353556D01*
X26937380Y-16353556D02*
X26211666Y-17079271D01*
X26211666Y-17079271D02*
X26997857Y-17079271D01*
X25788333Y-14958318D02*
X25727857Y-15018795D01*
X25727857Y-15018795D02*
X25546428Y-15079271D01*
X25546428Y-15079271D02*
X25425476Y-15079271D01*
X25425476Y-15079271D02*
X25244047Y-15018795D01*
X25244047Y-15018795D02*
X25123095Y-14897842D01*
X25123095Y-14897842D02*
X25062618Y-14776890D01*
X25062618Y-14776890D02*
X25002142Y-14534985D01*
X25002142Y-14534985D02*
X25002142Y-14353556D01*
X25002142Y-14353556D02*
X25062618Y-14111652D01*
X25062618Y-14111652D02*
X25123095Y-13990699D01*
X25123095Y-13990699D02*
X25244047Y-13869747D01*
X25244047Y-13869747D02*
X25425476Y-13809271D01*
X25425476Y-13809271D02*
X25546428Y-13809271D01*
X25546428Y-13809271D02*
X25727857Y-13869747D01*
X25727857Y-13869747D02*
X25788333Y-13930223D01*
X26997857Y-15079271D02*
X26272142Y-15079271D01*
X26634999Y-15079271D02*
X26634999Y-13809271D01*
X26634999Y-13809271D02*
X26514047Y-13990699D01*
X26514047Y-13990699D02*
X26393095Y-14111652D01*
X26393095Y-14111652D02*
X26272142Y-14172128D01*
X21576667Y-18309271D02*
X21576667Y-19216414D01*
X21576667Y-19216414D02*
X21516190Y-19397842D01*
X21516190Y-19397842D02*
X21395238Y-19518795D01*
X21395238Y-19518795D02*
X21213809Y-19579271D01*
X21213809Y-19579271D02*
X21092857Y-19579271D01*
X22846667Y-19579271D02*
X22120952Y-19579271D01*
X22483809Y-19579271D02*
X22483809Y-18309271D01*
X22483809Y-18309271D02*
X22362857Y-18490699D01*
X22362857Y-18490699D02*
X22241905Y-18611652D01*
X22241905Y-18611652D02*
X22120952Y-18672128D01*
X3032380Y-18309271D02*
X3032380Y-19337366D01*
X3032380Y-19337366D02*
X3092857Y-19458318D01*
X3092857Y-19458318D02*
X3153333Y-19518795D01*
X3153333Y-19518795D02*
X3274285Y-19579271D01*
X3274285Y-19579271D02*
X3516190Y-19579271D01*
X3516190Y-19579271D02*
X3637142Y-19518795D01*
X3637142Y-19518795D02*
X3697619Y-19458318D01*
X3697619Y-19458318D02*
X3758095Y-19337366D01*
X3758095Y-19337366D02*
X3758095Y-18309271D01*
X4241904Y-18309271D02*
X5028095Y-18309271D01*
X5028095Y-18309271D02*
X4604761Y-18793080D01*
X4604761Y-18793080D02*
X4786190Y-18793080D01*
X4786190Y-18793080D02*
X4907142Y-18853556D01*
X4907142Y-18853556D02*
X4967618Y-18914033D01*
X4967618Y-18914033D02*
X5028095Y-19034985D01*
X5028095Y-19034985D02*
X5028095Y-19337366D01*
X5028095Y-19337366D02*
X4967618Y-19458318D01*
X4967618Y-19458318D02*
X4907142Y-19518795D01*
X4907142Y-19518795D02*
X4786190Y-19579271D01*
X4786190Y-19579271D02*
X4423333Y-19579271D01*
X4423333Y-19579271D02*
X4302380Y-19518795D01*
X4302380Y-19518795D02*
X4241904Y-19458318D01*
X7532380Y-18309271D02*
X7532380Y-19337366D01*
X7532380Y-19337366D02*
X7592857Y-19458318D01*
X7592857Y-19458318D02*
X7653333Y-19518795D01*
X7653333Y-19518795D02*
X7774285Y-19579271D01*
X7774285Y-19579271D02*
X8016190Y-19579271D01*
X8016190Y-19579271D02*
X8137142Y-19518795D01*
X8137142Y-19518795D02*
X8197619Y-19458318D01*
X8197619Y-19458318D02*
X8258095Y-19337366D01*
X8258095Y-19337366D02*
X8258095Y-18309271D01*
X8802380Y-18430223D02*
X8862856Y-18369747D01*
X8862856Y-18369747D02*
X8983809Y-18309271D01*
X8983809Y-18309271D02*
X9286190Y-18309271D01*
X9286190Y-18309271D02*
X9407142Y-18369747D01*
X9407142Y-18369747D02*
X9467618Y-18430223D01*
X9467618Y-18430223D02*
X9528095Y-18551175D01*
X9528095Y-18551175D02*
X9528095Y-18672128D01*
X9528095Y-18672128D02*
X9467618Y-18853556D01*
X9467618Y-18853556D02*
X8741904Y-19579271D01*
X8741904Y-19579271D02*
X9528095Y-19579271D01*
X12032380Y-7309271D02*
X12032380Y-8337366D01*
X12032380Y-8337366D02*
X12092857Y-8458318D01*
X12092857Y-8458318D02*
X12153333Y-8518795D01*
X12153333Y-8518795D02*
X12274285Y-8579271D01*
X12274285Y-8579271D02*
X12516190Y-8579271D01*
X12516190Y-8579271D02*
X12637142Y-8518795D01*
X12637142Y-8518795D02*
X12697619Y-8458318D01*
X12697619Y-8458318D02*
X12758095Y-8337366D01*
X12758095Y-8337366D02*
X12758095Y-7309271D01*
X14028095Y-8579271D02*
X13302380Y-8579271D01*
X13665237Y-8579271D02*
X13665237Y-7309271D01*
X13665237Y-7309271D02*
X13544285Y-7490699D01*
X13544285Y-7490699D02*
X13423333Y-7611652D01*
X13423333Y-7611652D02*
X13302380Y-7672128D01*
%TO.C,R1*%
D11*
X-1050000Y600000D02*
X1050000Y600000D01*
X1050000Y-600000D01*
X-1050000Y-600000D01*
X-1050000Y600000D01*
%TO.C,C5*%
X-1050000Y600000D02*
X1050000Y600000D01*
X1050000Y-600000D01*
X-1050000Y-600000D01*
X-1050000Y600000D01*
%TO.C,C4*%
X-1050000Y600000D02*
X1050000Y600000D01*
X1050000Y-600000D01*
X-1050000Y-600000D01*
X-1050000Y600000D01*
%TO.C,C3*%
X-1050000Y600000D02*
X1050000Y600000D01*
X1050000Y-600000D01*
X-1050000Y-600000D01*
X-1050000Y600000D01*
%TO.C,C2*%
X-1050000Y600000D02*
X1050000Y600000D01*
X1050000Y-600000D01*
X-1050000Y-600000D01*
X-1050000Y600000D01*
%TO.C,C1*%
X-1050000Y600000D02*
X1050000Y600000D01*
X1050000Y-600000D01*
X-1050000Y-600000D01*
X-1050000Y600000D01*
%TO.C,J1*%
X-2400000Y1900000D02*
X2400000Y1900000D01*
X2400000Y-1900000D01*
X-2400000Y-1900000D01*
X-2400000Y1900000D01*
%TO.C,U3*%
X-2199999Y1700000D02*
X2199999Y1700000D01*
X2199999Y-1700000D01*
X-2199999Y-1700000D01*
X-2199999Y1700000D01*
%TO.C,U2*%
X-1650000Y1650000D02*
X1650000Y1650000D01*
X1650000Y-1650000D01*
X-1650000Y-1650000D01*
X-1650000Y1650000D01*
%TO.C,U1*%
X-13150000Y8150000D02*
X13150000Y8150000D01*
X13150000Y-8150000D01*
X-13150000Y-8150000D01*
X-13150000Y8150000D01*
%TD*%
M02*
