%TF.GenerationSoftware,KiCad,Pcbnew,10.0.3*%
%TF.CreationDate,2026-05-26T19:43:24+09:00*%
%TF.ProjectId,lora-30x22,6c6f7261-2d33-4307-9832-322e6b696361,rev?*%
%TF.SameCoordinates,Original*%
%TF.FileFunction,Legend,Top*%
%TF.FilePolarity,Positive*%
%FSLAX46Y46*%
G04 Gerber Fmt 4.6, Leading zero omitted, Abs format (unit mm)*
G04 Created by KiCad (PCBNEW 10.0.3) date 2026-05-26 19:43:24*
%MOMM*%
%LPD*%
G01*
G04 APERTURE LIST*
%ADD10C,0.158750*%
%ADD11C,0.120000*%
%ADD12R,1.100000X0.600000*%
%ADD13R,1.700000X0.800000*%
%ADD14R,0.900000X0.500000*%
%ADD15R,0.250000X0.650000*%
%ADD16R,0.650000X0.250000*%
%ADD17R,1.600000X1.600000*%
%ADD18R,0.550000X0.700000*%
%ADD19R,0.700000X0.500000*%
%ADD20R,2.300000X1.500000*%
%ADD21R,1.200000X2.000000*%
G04 APERTURE END LIST*
D10*
X13532380Y-18309271D02*
X13532380Y-19337366D01*
X13532380Y-19337366D02*
X13592857Y-19458318D01*
X13592857Y-19458318D02*
X13653333Y-19518795D01*
X13653333Y-19518795D02*
X13774285Y-19579271D01*
X13774285Y-19579271D02*
X14016190Y-19579271D01*
X14016190Y-19579271D02*
X14137142Y-19518795D01*
X14137142Y-19518795D02*
X14197619Y-19458318D01*
X14197619Y-19458318D02*
X14258095Y-19337366D01*
X14258095Y-19337366D02*
X14258095Y-18309271D01*
X15407142Y-18732604D02*
X15407142Y-19579271D01*
X15104761Y-18248795D02*
X14802380Y-19155937D01*
X14802380Y-19155937D02*
X15588571Y-19155937D01*
X14032380Y-7309271D02*
X14032380Y-8337366D01*
X14032380Y-8337366D02*
X14092857Y-8458318D01*
X14092857Y-8458318D02*
X14153333Y-8518795D01*
X14153333Y-8518795D02*
X14274285Y-8579271D01*
X14274285Y-8579271D02*
X14516190Y-8579271D01*
X14516190Y-8579271D02*
X14637142Y-8518795D01*
X14637142Y-8518795D02*
X14697619Y-8458318D01*
X14697619Y-8458318D02*
X14758095Y-8337366D01*
X14758095Y-8337366D02*
X14758095Y-7309271D01*
X16028095Y-8579271D02*
X15302380Y-8579271D01*
X15665237Y-8579271D02*
X15665237Y-7309271D01*
X15665237Y-7309271D02*
X15544285Y-7490699D01*
X15544285Y-7490699D02*
X15423333Y-7611652D01*
X15423333Y-7611652D02*
X15302380Y-7672128D01*
X28288333Y-17958318D02*
X28227857Y-18018795D01*
X28227857Y-18018795D02*
X28046428Y-18079271D01*
X28046428Y-18079271D02*
X27925476Y-18079271D01*
X27925476Y-18079271D02*
X27744047Y-18018795D01*
X27744047Y-18018795D02*
X27623095Y-17897842D01*
X27623095Y-17897842D02*
X27562618Y-17776890D01*
X27562618Y-17776890D02*
X27502142Y-17534985D01*
X27502142Y-17534985D02*
X27502142Y-17353556D01*
X27502142Y-17353556D02*
X27562618Y-17111652D01*
X27562618Y-17111652D02*
X27623095Y-16990699D01*
X27623095Y-16990699D02*
X27744047Y-16869747D01*
X27744047Y-16869747D02*
X27925476Y-16809271D01*
X27925476Y-16809271D02*
X28046428Y-16809271D01*
X28046428Y-16809271D02*
X28227857Y-16869747D01*
X28227857Y-16869747D02*
X28288333Y-16930223D01*
X28772142Y-16930223D02*
X28832618Y-16869747D01*
X28832618Y-16869747D02*
X28953571Y-16809271D01*
X28953571Y-16809271D02*
X29255952Y-16809271D01*
X29255952Y-16809271D02*
X29376904Y-16869747D01*
X29376904Y-16869747D02*
X29437380Y-16930223D01*
X29437380Y-16930223D02*
X29497857Y-17051175D01*
X29497857Y-17051175D02*
X29497857Y-17172128D01*
X29497857Y-17172128D02*
X29437380Y-17353556D01*
X29437380Y-17353556D02*
X28711666Y-18079271D01*
X28711666Y-18079271D02*
X29497857Y-18079271D01*
X8532380Y-18309271D02*
X8532380Y-19337366D01*
X8532380Y-19337366D02*
X8592857Y-19458318D01*
X8592857Y-19458318D02*
X8653333Y-19518795D01*
X8653333Y-19518795D02*
X8774285Y-19579271D01*
X8774285Y-19579271D02*
X9016190Y-19579271D01*
X9016190Y-19579271D02*
X9137142Y-19518795D01*
X9137142Y-19518795D02*
X9197619Y-19458318D01*
X9197619Y-19458318D02*
X9258095Y-19337366D01*
X9258095Y-19337366D02*
X9258095Y-18309271D01*
X9802380Y-18430223D02*
X9862856Y-18369747D01*
X9862856Y-18369747D02*
X9983809Y-18309271D01*
X9983809Y-18309271D02*
X10286190Y-18309271D01*
X10286190Y-18309271D02*
X10407142Y-18369747D01*
X10407142Y-18369747D02*
X10467618Y-18430223D01*
X10467618Y-18430223D02*
X10528095Y-18551175D01*
X10528095Y-18551175D02*
X10528095Y-18672128D01*
X10528095Y-18672128D02*
X10467618Y-18853556D01*
X10467618Y-18853556D02*
X9741904Y-19579271D01*
X9741904Y-19579271D02*
X10528095Y-19579271D01*
X25788333Y-17958318D02*
X25727857Y-18018795D01*
X25727857Y-18018795D02*
X25546428Y-18079271D01*
X25546428Y-18079271D02*
X25425476Y-18079271D01*
X25425476Y-18079271D02*
X25244047Y-18018795D01*
X25244047Y-18018795D02*
X25123095Y-17897842D01*
X25123095Y-17897842D02*
X25062618Y-17776890D01*
X25062618Y-17776890D02*
X25002142Y-17534985D01*
X25002142Y-17534985D02*
X25002142Y-17353556D01*
X25002142Y-17353556D02*
X25062618Y-17111652D01*
X25062618Y-17111652D02*
X25123095Y-16990699D01*
X25123095Y-16990699D02*
X25244047Y-16869747D01*
X25244047Y-16869747D02*
X25425476Y-16809271D01*
X25425476Y-16809271D02*
X25546428Y-16809271D01*
X25546428Y-16809271D02*
X25727857Y-16869747D01*
X25727857Y-16869747D02*
X25788333Y-16930223D01*
X26997857Y-18079271D02*
X26272142Y-18079271D01*
X26634999Y-18079271D02*
X26634999Y-16809271D01*
X26634999Y-16809271D02*
X26514047Y-16990699D01*
X26514047Y-16990699D02*
X26393095Y-17111652D01*
X26393095Y-17111652D02*
X26272142Y-17172128D01*
X3032380Y-18309271D02*
X3032380Y-19337366D01*
X3032380Y-19337366D02*
X3092857Y-19458318D01*
X3092857Y-19458318D02*
X3153333Y-19518795D01*
X3153333Y-19518795D02*
X3274285Y-19579271D01*
X3274285Y-19579271D02*
X3516190Y-19579271D01*
X3516190Y-19579271D02*
X3637142Y-19518795D01*
X3637142Y-19518795D02*
X3697619Y-19458318D01*
X3697619Y-19458318D02*
X3758095Y-19337366D01*
X3758095Y-19337366D02*
X3758095Y-18309271D01*
X4241904Y-18309271D02*
X5028095Y-18309271D01*
X5028095Y-18309271D02*
X4604761Y-18793080D01*
X4604761Y-18793080D02*
X4786190Y-18793080D01*
X4786190Y-18793080D02*
X4907142Y-18853556D01*
X4907142Y-18853556D02*
X4967618Y-18914033D01*
X4967618Y-18914033D02*
X5028095Y-19034985D01*
X5028095Y-19034985D02*
X5028095Y-19337366D01*
X5028095Y-19337366D02*
X4967618Y-19458318D01*
X4967618Y-19458318D02*
X4907142Y-19518795D01*
X4907142Y-19518795D02*
X4786190Y-19579271D01*
X4786190Y-19579271D02*
X4423333Y-19579271D01*
X4423333Y-19579271D02*
X4302380Y-19518795D01*
X4302380Y-19518795D02*
X4241904Y-19458318D01*
X25788333Y-21079271D02*
X25364999Y-20474509D01*
X25062618Y-21079271D02*
X25062618Y-19809271D01*
X25062618Y-19809271D02*
X25546428Y-19809271D01*
X25546428Y-19809271D02*
X25667380Y-19869747D01*
X25667380Y-19869747D02*
X25727857Y-19930223D01*
X25727857Y-19930223D02*
X25788333Y-20051175D01*
X25788333Y-20051175D02*
X25788333Y-20232604D01*
X25788333Y-20232604D02*
X25727857Y-20353556D01*
X25727857Y-20353556D02*
X25667380Y-20414033D01*
X25667380Y-20414033D02*
X25546428Y-20474509D01*
X25546428Y-20474509D02*
X25062618Y-20474509D01*
X26997857Y-21079271D02*
X26272142Y-21079271D01*
X26634999Y-21079271D02*
X26634999Y-19809271D01*
X26634999Y-19809271D02*
X26514047Y-19990699D01*
X26514047Y-19990699D02*
X26393095Y-20111652D01*
X26393095Y-20111652D02*
X26272142Y-20172128D01*
X25788333Y-19458318D02*
X25727857Y-19518795D01*
X25727857Y-19518795D02*
X25546428Y-19579271D01*
X25546428Y-19579271D02*
X25425476Y-19579271D01*
X25425476Y-19579271D02*
X25244047Y-19518795D01*
X25244047Y-19518795D02*
X25123095Y-19397842D01*
X25123095Y-19397842D02*
X25062618Y-19276890D01*
X25062618Y-19276890D02*
X25002142Y-19034985D01*
X25002142Y-19034985D02*
X25002142Y-18853556D01*
X25002142Y-18853556D02*
X25062618Y-18611652D01*
X25062618Y-18611652D02*
X25123095Y-18490699D01*
X25123095Y-18490699D02*
X25244047Y-18369747D01*
X25244047Y-18369747D02*
X25425476Y-18309271D01*
X25425476Y-18309271D02*
X25546428Y-18309271D01*
X25546428Y-18309271D02*
X25727857Y-18369747D01*
X25727857Y-18369747D02*
X25788333Y-18430223D01*
X26211666Y-18309271D02*
X26997857Y-18309271D01*
X26997857Y-18309271D02*
X26574523Y-18793080D01*
X26574523Y-18793080D02*
X26755952Y-18793080D01*
X26755952Y-18793080D02*
X26876904Y-18853556D01*
X26876904Y-18853556D02*
X26937380Y-18914033D01*
X26937380Y-18914033D02*
X26997857Y-19034985D01*
X26997857Y-19034985D02*
X26997857Y-19337366D01*
X26997857Y-19337366D02*
X26937380Y-19458318D01*
X26937380Y-19458318D02*
X26876904Y-19518795D01*
X26876904Y-19518795D02*
X26755952Y-19579271D01*
X26755952Y-19579271D02*
X26393095Y-19579271D01*
X26393095Y-19579271D02*
X26272142Y-19518795D01*
X26272142Y-19518795D02*
X26211666Y-19458318D01*
X28288333Y-19458318D02*
X28227857Y-19518795D01*
X28227857Y-19518795D02*
X28046428Y-19579271D01*
X28046428Y-19579271D02*
X27925476Y-19579271D01*
X27925476Y-19579271D02*
X27744047Y-19518795D01*
X27744047Y-19518795D02*
X27623095Y-19397842D01*
X27623095Y-19397842D02*
X27562618Y-19276890D01*
X27562618Y-19276890D02*
X27502142Y-19034985D01*
X27502142Y-19034985D02*
X27502142Y-18853556D01*
X27502142Y-18853556D02*
X27562618Y-18611652D01*
X27562618Y-18611652D02*
X27623095Y-18490699D01*
X27623095Y-18490699D02*
X27744047Y-18369747D01*
X27744047Y-18369747D02*
X27925476Y-18309271D01*
X27925476Y-18309271D02*
X28046428Y-18309271D01*
X28046428Y-18309271D02*
X28227857Y-18369747D01*
X28227857Y-18369747D02*
X28288333Y-18430223D01*
X29376904Y-18732604D02*
X29376904Y-19579271D01*
X29074523Y-18248795D02*
X28772142Y-19155937D01*
X28772142Y-19155937D02*
X29558333Y-19155937D01*
X28288333Y-21079271D02*
X27864999Y-20474509D01*
X27562618Y-21079271D02*
X27562618Y-19809271D01*
X27562618Y-19809271D02*
X28046428Y-19809271D01*
X28046428Y-19809271D02*
X28167380Y-19869747D01*
X28167380Y-19869747D02*
X28227857Y-19930223D01*
X28227857Y-19930223D02*
X28288333Y-20051175D01*
X28288333Y-20051175D02*
X28288333Y-20232604D01*
X28288333Y-20232604D02*
X28227857Y-20353556D01*
X28227857Y-20353556D02*
X28167380Y-20414033D01*
X28167380Y-20414033D02*
X28046428Y-20474509D01*
X28046428Y-20474509D02*
X27562618Y-20474509D01*
X28772142Y-19930223D02*
X28832618Y-19869747D01*
X28832618Y-19869747D02*
X28953571Y-19809271D01*
X28953571Y-19809271D02*
X29255952Y-19809271D01*
X29255952Y-19809271D02*
X29376904Y-19869747D01*
X29376904Y-19869747D02*
X29437380Y-19930223D01*
X29437380Y-19930223D02*
X29497857Y-20051175D01*
X29497857Y-20051175D02*
X29497857Y-20172128D01*
X29497857Y-20172128D02*
X29437380Y-20353556D01*
X29437380Y-20353556D02*
X28711666Y-21079271D01*
X28711666Y-21079271D02*
X29497857Y-21079271D01*
X21576667Y-18309271D02*
X21576667Y-19216414D01*
X21576667Y-19216414D02*
X21516190Y-19397842D01*
X21516190Y-19397842D02*
X21395238Y-19518795D01*
X21395238Y-19518795D02*
X21213809Y-19579271D01*
X21213809Y-19579271D02*
X21092857Y-19579271D01*
X22846667Y-19579271D02*
X22120952Y-19579271D01*
X22483809Y-19579271D02*
X22483809Y-18309271D01*
X22483809Y-18309271D02*
X22362857Y-18490699D01*
X22362857Y-18490699D02*
X22241905Y-18611652D01*
X22241905Y-18611652D02*
X22120952Y-18672128D01*
%TO.C,U4*%
D11*
X-1599999Y950000D02*
X1599999Y950000D01*
X1599999Y-950000D01*
X-1599999Y-950000D01*
X-1599999Y950000D01*
%TO.C,U1*%
X-13150000Y8150000D02*
X13150000Y8150000D01*
X13150000Y-8150000D01*
X-13150000Y-8150000D01*
X-13150000Y8150000D01*
%TO.C,C2*%
X-1050000Y600000D02*
X1050000Y600000D01*
X1050000Y-600000D01*
X-1050000Y-600000D01*
X-1050000Y600000D01*
%TO.C,U2*%
X-1650000Y1650000D02*
X1650000Y1650000D01*
X1650000Y-1650000D01*
X-1650000Y-1650000D01*
X-1650000Y1650000D01*
%TO.C,C1*%
X-1050000Y600000D02*
X1050000Y600000D01*
X1050000Y-600000D01*
X-1050000Y-600000D01*
X-1050000Y600000D01*
%TO.C,U3*%
X-2199999Y1700000D02*
X2199999Y1700000D01*
X2199999Y-1700000D01*
X-2199999Y-1700000D01*
X-2199999Y1700000D01*
%TO.C,R1*%
X-1050000Y600000D02*
X1050000Y600000D01*
X1050000Y-600000D01*
X-1050000Y-600000D01*
X-1050000Y600000D01*
%TO.C,C3*%
X-1050000Y600000D02*
X1050000Y600000D01*
X1050000Y-600000D01*
X-1050000Y-600000D01*
X-1050000Y600000D01*
%TO.C,C4*%
X-1050000Y600000D02*
X1050000Y600000D01*
X1050000Y-600000D01*
X-1050000Y-600000D01*
X-1050000Y600000D01*
%TO.C,R2*%
X-1050000Y600000D02*
X1050000Y600000D01*
X1050000Y-600000D01*
X-1050000Y-600000D01*
X-1050000Y600000D01*
%TO.C,J1*%
X-2400000Y1900000D02*
X2400000Y1900000D01*
X2400000Y-1900000D01*
X-2400000Y-1900000D01*
X-2400000Y1900000D01*
%TD*%
%LPC*%
D12*
%TO.C,U4*%
X-1900000Y949999D03*
X-1900000Y0D03*
X-1900000Y-949999D03*
X1899999Y475000D03*
X1899999Y-475000D03*
%TD*%
D13*
%TO.C,U1*%
X-11000000Y8000000D03*
X-9000000Y8000000D03*
X-7000000Y8000000D03*
X-5000000Y8000000D03*
X-3000000Y8000000D03*
X-1000000Y8000000D03*
X1000000Y8000000D03*
X3000000Y8000000D03*
X5000000Y8000000D03*
X7000000Y8000000D03*
X9000000Y8000000D03*
X11000000Y8000000D03*
X-11000000Y-8000000D03*
X-9000000Y-8000000D03*
X-7000000Y-8000000D03*
X-5000000Y-8000000D03*
X-3000000Y-8000000D03*
X-1000000Y-8000000D03*
X1000000Y-8000000D03*
X3000000Y-8000000D03*
X5000000Y-8000000D03*
X7000000Y-8000000D03*
X9000000Y-8000000D03*
X11000000Y-8000000D03*
%TD*%
D14*
%TO.C,C2*%
X-899999Y0D03*
X899999Y0D03*
%TD*%
D15*
%TO.C,U2*%
X-1000000Y-1649999D03*
X-500000Y-1649999D03*
X0Y-1649999D03*
X500000Y-1649999D03*
X1000000Y-1649999D03*
D16*
X-1650000Y-1000000D03*
X-1650000Y-500000D03*
X-1650000Y0D03*
X-1650000Y500000D03*
X-1650000Y1000000D03*
D15*
X1000000Y1649999D03*
X500000Y1649999D03*
X0Y1649999D03*
X-500000Y1649999D03*
X-1000000Y1649999D03*
D16*
X1650000Y1000000D03*
X1650000Y500000D03*
X1650000Y0D03*
X1650000Y-500000D03*
X1650000Y-1000000D03*
D17*
X0Y0D03*
%TD*%
D14*
%TO.C,C1*%
X-899999Y0D03*
X899999Y0D03*
%TD*%
D18*
%TO.C,U3*%
X-799999Y-1550000D03*
X0Y-1550000D03*
X799999Y-1550000D03*
X-799999Y1550000D03*
X0Y1550000D03*
X799999Y1550000D03*
D19*
X-2049999Y399999D03*
X-2049999Y-399999D03*
X2049999Y399999D03*
X2049999Y-399999D03*
D20*
X0Y0D03*
%TD*%
D14*
%TO.C,R1*%
X-899999Y0D03*
X899999Y0D03*
%TD*%
%TO.C,C3*%
X-899999Y0D03*
X899999Y0D03*
%TD*%
%TO.C,C4*%
X-899999Y0D03*
X899999Y0D03*
%TD*%
%TO.C,R2*%
X-899999Y0D03*
X899999Y0D03*
%TD*%
D21*
%TO.C,J1*%
X-625000Y-500000D03*
X625000Y-500000D03*
%TD*%
%LPD*%
M02*
