%TF.GenerationSoftware,KiCad,Pcbnew,10.0.3*%
%TF.CreationDate,2026-05-26T19:43:24+09:00*%
%TF.ProjectId,lora-30x22,6c6f7261-2d33-4307-9832-322e6b696361,rev?*%
%TF.SameCoordinates,Original*%
%TF.FileFunction,Copper,L2,Bot*%
%TF.FilePolarity,Positive*%
%FSLAX46Y46*%
G04 Gerber Fmt 4.6, Leading zero omitted, Abs format (unit mm)*
G04 Created by KiCad (PCBNEW 10.0.3) date 2026-05-26 19:43:24*
%MOMM*%
%LPD*%
G01*
G04 APERTURE LIST*
%TA.AperFunction,ViaPad*%
%ADD10C,0.600000*%
%TD*%
G04 APERTURE END LIST*
D10*
%TO.N,GND*%
X29000000Y-8000000D03*
X1000000Y-8000000D03*
X15000000Y-8000000D03*
X29000000Y-19000000D03*
X1000000Y-19000000D03*
%TD*%
%TA.AperFunction,Conductor*%
%TO.N,GND*%
G36*
X29458691Y-519407D02*
G01*
X29494655Y-568907D01*
X29499500Y-599499D01*
X29499500Y-7518224D01*
X29474160Y-7492884D01*
X29431093Y-7524175D01*
X29369907Y-7524175D01*
X29351000Y-7515757D01*
X29250000Y-7457444D01*
X29250000Y-8542553D01*
X29351000Y-8484242D01*
X29410848Y-8471521D01*
X29466744Y-8496408D01*
X29473377Y-8507898D01*
X29499500Y-8481775D01*
X29499500Y-18518224D01*
X29474160Y-18492884D01*
X29431093Y-18524175D01*
X29369907Y-18524175D01*
X29351000Y-18515757D01*
X29250000Y-18457444D01*
X29250000Y-19542553D01*
X29351000Y-19484242D01*
X29410848Y-19471521D01*
X29466744Y-19496408D01*
X29473377Y-19507898D01*
X29499500Y-19481775D01*
X29499500Y-19868938D01*
X29499500Y-21400500D01*
X29480593Y-21458691D01*
X29431093Y-21494655D01*
X29400500Y-21499500D01*
X599500Y-21499500D01*
X541309Y-21480593D01*
X505345Y-21431093D01*
X500500Y-21400500D01*
X500500Y-20501500D01*
X2599000Y-20501500D01*
X4101000Y-20501500D01*
X5099000Y-20501500D01*
X6601000Y-20501500D01*
X7599000Y-20501500D01*
X9101000Y-20501500D01*
X10099000Y-20501500D01*
X11601000Y-20501500D01*
X12599000Y-20501500D01*
X14101000Y-20501500D01*
X15099000Y-20501500D01*
X16601000Y-20501500D01*
X17599000Y-20501500D01*
X19101000Y-20501500D01*
X20099000Y-20501500D01*
X21601000Y-20501500D01*
X22599000Y-20501500D01*
X24101000Y-20501500D01*
X25099000Y-20501500D01*
X26601000Y-20501500D01*
X27599000Y-20501500D01*
X28414941Y-20501500D01*
X28107449Y-20323970D01*
X28101948Y-20320549D01*
X28058404Y-20291454D01*
X28053140Y-20287682D01*
X28001288Y-20247897D01*
X27996278Y-20243785D01*
X27956890Y-20209243D01*
X27952162Y-20204815D01*
X27846346Y-20099000D01*
X27599000Y-20099000D01*
X27599000Y-20501500D01*
X26601000Y-20501500D01*
X26601000Y-20099000D01*
X25099000Y-20099000D01*
X25099000Y-20501500D01*
X24101000Y-20501500D01*
X24101000Y-20099000D01*
X22599000Y-20099000D01*
X22599000Y-20501500D01*
X21601000Y-20501500D01*
X21601000Y-20099000D01*
X20099000Y-20099000D01*
X20099000Y-20501500D01*
X19101000Y-20501500D01*
X19101000Y-20099000D01*
X17599000Y-20099000D01*
X17599000Y-20501500D01*
X16601000Y-20501500D01*
X16601000Y-20099000D01*
X15099000Y-20099000D01*
X15099000Y-20501500D01*
X14101000Y-20501500D01*
X14101000Y-20099000D01*
X12599000Y-20099000D01*
X12599000Y-20501500D01*
X11601000Y-20501500D01*
X11601000Y-20099000D01*
X10099000Y-20099000D01*
X10099000Y-20501500D01*
X9101000Y-20501500D01*
X9101000Y-20099000D01*
X7599000Y-20099000D01*
X7599000Y-20501500D01*
X6601000Y-20501500D01*
X6601000Y-20099000D01*
X5099000Y-20099000D01*
X5099000Y-20501500D01*
X4101000Y-20501500D01*
X4101000Y-20099000D01*
X2599000Y-20099000D01*
X2599000Y-20501500D01*
X500500Y-20501500D01*
X500500Y-19868939D01*
X500500Y-19481776D01*
X525838Y-19507114D01*
X568907Y-19475824D01*
X630093Y-19475824D01*
X649000Y-19484242D01*
X750000Y-19542554D01*
X750000Y-19250001D01*
X1250000Y-19250001D01*
X1250000Y-19542553D01*
X1365256Y-19476011D01*
X1476012Y-19365255D01*
X1542555Y-19250000D01*
X28457445Y-19250000D01*
X28523987Y-19365255D01*
X28634743Y-19476011D01*
X28750000Y-19542554D01*
X28750000Y-19250001D01*
X28749999Y-19250000D01*
X28457445Y-19250000D01*
X1542555Y-19250000D01*
X1250001Y-19250000D01*
X1250000Y-19250001D01*
X750000Y-19250001D01*
X750000Y-19101000D01*
X2599000Y-19101000D01*
X4101000Y-19101000D01*
X5099000Y-19101000D01*
X6601000Y-19101000D01*
X7599000Y-19101000D01*
X9101000Y-19101000D01*
X10099000Y-19101000D01*
X11601000Y-19101000D01*
X12599000Y-19101000D01*
X14101000Y-19101000D01*
X15099000Y-19101000D01*
X16601000Y-19101000D01*
X17599000Y-19101000D01*
X19101000Y-19101000D01*
X20099000Y-19101000D01*
X21601000Y-19101000D01*
X22599000Y-19101000D01*
X24101000Y-19101000D01*
X25099000Y-19101000D01*
X26601000Y-19101000D01*
X26601000Y-18750000D01*
X28457445Y-18750000D01*
X28749999Y-18750000D01*
X28750000Y-18749999D01*
X28750000Y-18457444D01*
X28634744Y-18523987D01*
X28523987Y-18634744D01*
X28457445Y-18750000D01*
X26601000Y-18750000D01*
X26601000Y-18240867D01*
X27599000Y-18240867D01*
X27676035Y-18107439D01*
X27679457Y-18101936D01*
X27708563Y-18058377D01*
X27712337Y-18053111D01*
X27752124Y-18001262D01*
X27756234Y-17996255D01*
X27790764Y-17956882D01*
X27795191Y-17952154D01*
X27952154Y-17795191D01*
X27956882Y-17790764D01*
X27996255Y-17756234D01*
X28001262Y-17752124D01*
X28053111Y-17712337D01*
X28058377Y-17708563D01*
X28101936Y-17679457D01*
X28107439Y-17676035D01*
X28240868Y-17599000D01*
X27599000Y-17599000D01*
X27599000Y-18240867D01*
X26601000Y-18240867D01*
X26601000Y-17599000D01*
X25099000Y-17599000D01*
X25099000Y-19101000D01*
X24101000Y-19101000D01*
X24101000Y-17599000D01*
X22599000Y-17599000D01*
X22599000Y-19101000D01*
X21601000Y-19101000D01*
X21601000Y-17599000D01*
X20099000Y-17599000D01*
X20099000Y-19101000D01*
X19101000Y-19101000D01*
X19101000Y-17599000D01*
X17599000Y-17599000D01*
X17599000Y-19101000D01*
X16601000Y-19101000D01*
X16601000Y-17599000D01*
X15099000Y-17599000D01*
X15099000Y-19101000D01*
X14101000Y-19101000D01*
X14101000Y-17599000D01*
X12599000Y-17599000D01*
X12599000Y-19101000D01*
X11601000Y-19101000D01*
X11601000Y-17599000D01*
X10099000Y-17599000D01*
X10099000Y-19101000D01*
X9101000Y-19101000D01*
X9101000Y-17599000D01*
X7599000Y-17599000D01*
X7599000Y-19101000D01*
X6601000Y-19101000D01*
X6601000Y-17599000D01*
X5099000Y-17599000D01*
X5099000Y-19101000D01*
X4101000Y-19101000D01*
X4101000Y-17599000D01*
X2599000Y-17599000D01*
X2599000Y-19101000D01*
X750000Y-19101000D01*
X750000Y-18749999D01*
X1250000Y-18749999D01*
X1250001Y-18750000D01*
X1542555Y-18750000D01*
X1476012Y-18634744D01*
X1365255Y-18523987D01*
X1250000Y-18457444D01*
X1250000Y-18749999D01*
X750000Y-18749999D01*
X750000Y-18457444D01*
X649000Y-18515757D01*
X589152Y-18528478D01*
X533256Y-18503591D01*
X526622Y-18492101D01*
X500500Y-18518223D01*
X500500Y-16601000D01*
X1498500Y-16601000D01*
X1601000Y-16601000D01*
X2599000Y-16601000D01*
X4101000Y-16601000D01*
X5099000Y-16601000D01*
X6601000Y-16601000D01*
X7599000Y-16601000D01*
X9101000Y-16601000D01*
X10099000Y-16601000D01*
X11601000Y-16601000D01*
X12599000Y-16601000D01*
X14101000Y-16601000D01*
X15099000Y-16601000D01*
X16601000Y-16601000D01*
X17599000Y-16601000D01*
X19101000Y-16601000D01*
X20099000Y-16601000D01*
X21601000Y-16601000D01*
X22599000Y-16601000D01*
X24101000Y-16601000D01*
X25099000Y-16601000D01*
X26601000Y-16601000D01*
X27599000Y-16601000D01*
X28501500Y-16601000D01*
X28501500Y-15099000D01*
X27599000Y-15099000D01*
X27599000Y-16601000D01*
X26601000Y-16601000D01*
X26601000Y-15099000D01*
X25099000Y-15099000D01*
X25099000Y-16601000D01*
X24101000Y-16601000D01*
X24101000Y-15099000D01*
X22599000Y-15099000D01*
X22599000Y-16601000D01*
X21601000Y-16601000D01*
X21601000Y-15099000D01*
X20099000Y-15099000D01*
X20099000Y-16601000D01*
X19101000Y-16601000D01*
X19101000Y-15099000D01*
X17599000Y-15099000D01*
X17599000Y-16601000D01*
X16601000Y-16601000D01*
X16601000Y-15099000D01*
X15099000Y-15099000D01*
X15099000Y-16601000D01*
X14101000Y-16601000D01*
X14101000Y-15099000D01*
X12599000Y-15099000D01*
X12599000Y-16601000D01*
X11601000Y-16601000D01*
X11601000Y-15099000D01*
X10099000Y-15099000D01*
X10099000Y-16601000D01*
X9101000Y-16601000D01*
X9101000Y-15099000D01*
X7599000Y-15099000D01*
X7599000Y-16601000D01*
X6601000Y-16601000D01*
X6601000Y-15099000D01*
X5099000Y-15099000D01*
X5099000Y-16601000D01*
X4101000Y-16601000D01*
X4101000Y-15099000D01*
X2599000Y-15099000D01*
X2599000Y-16601000D01*
X1601000Y-16601000D01*
X1601000Y-15099000D01*
X1498500Y-15099000D01*
X1498500Y-16601000D01*
X500500Y-16601000D01*
X500500Y-14101000D01*
X1498500Y-14101000D01*
X1601000Y-14101000D01*
X2599000Y-14101000D01*
X4101000Y-14101000D01*
X5099000Y-14101000D01*
X6601000Y-14101000D01*
X7599000Y-14101000D01*
X9101000Y-14101000D01*
X10099000Y-14101000D01*
X11601000Y-14101000D01*
X12599000Y-14101000D01*
X14101000Y-14101000D01*
X15099000Y-14101000D01*
X16601000Y-14101000D01*
X17599000Y-14101000D01*
X19101000Y-14101000D01*
X20099000Y-14101000D01*
X21601000Y-14101000D01*
X22599000Y-14101000D01*
X24101000Y-14101000D01*
X25099000Y-14101000D01*
X26601000Y-14101000D01*
X27599000Y-14101000D01*
X28501500Y-14101000D01*
X28501500Y-12599000D01*
X27599000Y-12599000D01*
X27599000Y-14101000D01*
X26601000Y-14101000D01*
X26601000Y-12599000D01*
X25099000Y-12599000D01*
X25099000Y-14101000D01*
X24101000Y-14101000D01*
X24101000Y-12599000D01*
X22599000Y-12599000D01*
X22599000Y-14101000D01*
X21601000Y-14101000D01*
X21601000Y-12599000D01*
X20099000Y-12599000D01*
X20099000Y-14101000D01*
X19101000Y-14101000D01*
X19101000Y-12599000D01*
X17599000Y-12599000D01*
X17599000Y-14101000D01*
X16601000Y-14101000D01*
X16601000Y-12599000D01*
X15099000Y-12599000D01*
X15099000Y-14101000D01*
X14101000Y-14101000D01*
X14101000Y-12599000D01*
X12599000Y-12599000D01*
X12599000Y-14101000D01*
X11601000Y-14101000D01*
X11601000Y-12599000D01*
X10099000Y-12599000D01*
X10099000Y-14101000D01*
X9101000Y-14101000D01*
X9101000Y-12599000D01*
X7599000Y-12599000D01*
X7599000Y-14101000D01*
X6601000Y-14101000D01*
X6601000Y-12599000D01*
X5099000Y-12599000D01*
X5099000Y-14101000D01*
X4101000Y-14101000D01*
X4101000Y-12599000D01*
X2599000Y-12599000D01*
X2599000Y-14101000D01*
X1601000Y-14101000D01*
X1601000Y-12599000D01*
X1498500Y-12599000D01*
X1498500Y-14101000D01*
X500500Y-14101000D01*
X500500Y-11601000D01*
X1498500Y-11601000D01*
X1601000Y-11601000D01*
X2599000Y-11601000D01*
X4101000Y-11601000D01*
X5099000Y-11601000D01*
X6601000Y-11601000D01*
X7599000Y-11601000D01*
X9101000Y-11601000D01*
X10099000Y-11601000D01*
X11601000Y-11601000D01*
X12599000Y-11601000D01*
X14101000Y-11601000D01*
X15099000Y-11601000D01*
X16601000Y-11601000D01*
X17599000Y-11601000D01*
X19101000Y-11601000D01*
X20099000Y-11601000D01*
X21601000Y-11601000D01*
X22599000Y-11601000D01*
X24101000Y-11601000D01*
X25099000Y-11601000D01*
X26601000Y-11601000D01*
X27599000Y-11601000D01*
X28501500Y-11601000D01*
X28501500Y-10099000D01*
X27599000Y-10099000D01*
X27599000Y-11601000D01*
X26601000Y-11601000D01*
X26601000Y-10099000D01*
X25099000Y-10099000D01*
X25099000Y-11601000D01*
X24101000Y-11601000D01*
X24101000Y-10099000D01*
X22599000Y-10099000D01*
X22599000Y-11601000D01*
X21601000Y-11601000D01*
X21601000Y-10099000D01*
X20099000Y-10099000D01*
X20099000Y-11601000D01*
X19101000Y-11601000D01*
X19101000Y-10099000D01*
X17599000Y-10099000D01*
X17599000Y-11601000D01*
X16601000Y-11601000D01*
X16601000Y-10099000D01*
X15099000Y-10099000D01*
X15099000Y-11601000D01*
X14101000Y-11601000D01*
X14101000Y-10099000D01*
X12599000Y-10099000D01*
X12599000Y-11601000D01*
X11601000Y-11601000D01*
X11601000Y-10099000D01*
X10099000Y-10099000D01*
X10099000Y-11601000D01*
X9101000Y-11601000D01*
X9101000Y-10099000D01*
X7599000Y-10099000D01*
X7599000Y-11601000D01*
X6601000Y-11601000D01*
X6601000Y-10099000D01*
X5099000Y-10099000D01*
X5099000Y-11601000D01*
X4101000Y-11601000D01*
X4101000Y-10099000D01*
X2599000Y-10099000D01*
X2599000Y-11601000D01*
X1601000Y-11601000D01*
X1601000Y-10099000D01*
X1498500Y-10099000D01*
X1498500Y-11601000D01*
X500500Y-11601000D01*
X500500Y-9101000D01*
X2599000Y-9101000D01*
X4101000Y-9101000D01*
X5099000Y-9101000D01*
X6601000Y-9101000D01*
X7599000Y-9101000D01*
X9101000Y-9101000D01*
X10099000Y-9101000D01*
X11601000Y-9101000D01*
X12599000Y-9101000D01*
X13848346Y-9101000D01*
X16151654Y-9101000D01*
X16601000Y-9101000D01*
X17599000Y-9101000D01*
X19101000Y-9101000D01*
X20099000Y-9101000D01*
X21601000Y-9101000D01*
X22599000Y-9101000D01*
X24101000Y-9101000D01*
X25099000Y-9101000D01*
X26601000Y-9101000D01*
X26601000Y-8250000D01*
X28457445Y-8250000D01*
X28523987Y-8365255D01*
X28634743Y-8476011D01*
X28750000Y-8542554D01*
X28750000Y-8250001D01*
X28749999Y-8250000D01*
X28457445Y-8250000D01*
X26601000Y-8250000D01*
X26601000Y-7750000D01*
X28457445Y-7750000D01*
X28749999Y-7750000D01*
X28750000Y-7749999D01*
X28750000Y-7457444D01*
X28634744Y-7523987D01*
X28523987Y-7634744D01*
X28457445Y-7750000D01*
X26601000Y-7750000D01*
X26601000Y-7599000D01*
X25099000Y-7599000D01*
X25099000Y-9101000D01*
X24101000Y-9101000D01*
X24101000Y-7599000D01*
X22599000Y-7599000D01*
X22599000Y-9101000D01*
X21601000Y-9101000D01*
X21601000Y-7599000D01*
X20099000Y-7599000D01*
X20099000Y-9101000D01*
X19101000Y-9101000D01*
X19101000Y-7599000D01*
X17599000Y-7599000D01*
X17599000Y-9101000D01*
X16601000Y-9101000D01*
X16601000Y-7599000D01*
X16555871Y-7599000D01*
X16555871Y-7964356D01*
X16546320Y-8000000D01*
X16555871Y-8035644D01*
X16555871Y-8464360D01*
X16542608Y-8513860D01*
X16323965Y-8892561D01*
X16320543Y-8898064D01*
X16291437Y-8941623D01*
X16287663Y-8946889D01*
X16247876Y-8998738D01*
X16243766Y-9003745D01*
X16209236Y-9043118D01*
X16204808Y-9047846D01*
X16151654Y-9101000D01*
X13848346Y-9101000D01*
X13795192Y-9047846D01*
X13790764Y-9043118D01*
X13756234Y-9003745D01*
X13752124Y-8998738D01*
X13712337Y-8946889D01*
X13708563Y-8941623D01*
X13679457Y-8898064D01*
X13676035Y-8892561D01*
X13457392Y-8513860D01*
X13444129Y-8464360D01*
X13444129Y-8250000D01*
X14457445Y-8250000D01*
X14523987Y-8365255D01*
X14634743Y-8476011D01*
X14750000Y-8542554D01*
X14750000Y-8250001D01*
X15250000Y-8250001D01*
X15250000Y-8542553D01*
X15365256Y-8476011D01*
X15476012Y-8365255D01*
X15542555Y-8250000D01*
X15250001Y-8250000D01*
X15250000Y-8250001D01*
X14750000Y-8250001D01*
X14749999Y-8250000D01*
X14457445Y-8250000D01*
X13444129Y-8250000D01*
X13444129Y-8035644D01*
X13453679Y-8000000D01*
X13444129Y-7964356D01*
X13444129Y-7750000D01*
X14457445Y-7750000D01*
X14749999Y-7750000D01*
X14750000Y-7749999D01*
X15250000Y-7749999D01*
X15250001Y-7750000D01*
X15542555Y-7750000D01*
X15476012Y-7634744D01*
X15365255Y-7523987D01*
X15250000Y-7457444D01*
X15250000Y-7749999D01*
X14750000Y-7749999D01*
X14750000Y-7457444D01*
X14634744Y-7523987D01*
X14523987Y-7634744D01*
X14457445Y-7750000D01*
X13444129Y-7750000D01*
X13444129Y-7599000D01*
X12599000Y-7599000D01*
X12599000Y-9101000D01*
X11601000Y-9101000D01*
X11601000Y-7599000D01*
X10099000Y-7599000D01*
X10099000Y-9101000D01*
X9101000Y-9101000D01*
X9101000Y-7599000D01*
X7599000Y-7599000D01*
X7599000Y-9101000D01*
X6601000Y-9101000D01*
X6601000Y-7599000D01*
X5099000Y-7599000D01*
X5099000Y-9101000D01*
X4101000Y-9101000D01*
X4101000Y-7599000D01*
X2599000Y-7599000D01*
X2599000Y-9101000D01*
X500500Y-9101000D01*
X500500Y-8481776D01*
X525838Y-8507114D01*
X568907Y-8475824D01*
X630093Y-8475824D01*
X649000Y-8484242D01*
X750000Y-8542554D01*
X750000Y-8250001D01*
X1250000Y-8250001D01*
X1250000Y-8542553D01*
X1365256Y-8476011D01*
X1476012Y-8365255D01*
X1542555Y-8250000D01*
X1250001Y-8250000D01*
X1250000Y-8250001D01*
X750000Y-8250001D01*
X750000Y-7749999D01*
X1250000Y-7749999D01*
X1250001Y-7750000D01*
X1542555Y-7750000D01*
X1476012Y-7634744D01*
X1365255Y-7523987D01*
X1250000Y-7457444D01*
X1250000Y-7749999D01*
X750000Y-7749999D01*
X750000Y-7457444D01*
X649000Y-7515757D01*
X589152Y-7528478D01*
X533256Y-7503591D01*
X526622Y-7492101D01*
X500500Y-7518223D01*
X500500Y-6601000D01*
X2599000Y-6601000D01*
X4101000Y-6601000D01*
X5099000Y-6601000D01*
X6601000Y-6601000D01*
X7599000Y-6601000D01*
X9101000Y-6601000D01*
X10099000Y-6601000D01*
X11601000Y-6601000D01*
X12599000Y-6601000D01*
X14101000Y-6601000D01*
X14101000Y-6444129D01*
X15099000Y-6444129D01*
X15464360Y-6444129D01*
X15513860Y-6457392D01*
X15762597Y-6601000D01*
X16601000Y-6601000D01*
X17599000Y-6601000D01*
X19101000Y-6601000D01*
X20099000Y-6601000D01*
X21601000Y-6601000D01*
X22599000Y-6601000D01*
X24101000Y-6601000D01*
X25099000Y-6601000D01*
X26601000Y-6601000D01*
X27599000Y-6601000D01*
X28237403Y-6601000D01*
X28486140Y-6457392D01*
X28501500Y-6453276D01*
X28501500Y-5099000D01*
X27599000Y-5099000D01*
X27599000Y-6601000D01*
X26601000Y-6601000D01*
X26601000Y-5099000D01*
X25099000Y-5099000D01*
X25099000Y-6601000D01*
X24101000Y-6601000D01*
X24101000Y-5099000D01*
X22599000Y-5099000D01*
X22599000Y-6601000D01*
X21601000Y-6601000D01*
X21601000Y-5099000D01*
X20099000Y-5099000D01*
X20099000Y-6601000D01*
X19101000Y-6601000D01*
X19101000Y-5099000D01*
X17599000Y-5099000D01*
X17599000Y-6601000D01*
X16601000Y-6601000D01*
X16601000Y-5099000D01*
X15099000Y-5099000D01*
X15099000Y-6444129D01*
X14101000Y-6444129D01*
X14101000Y-5099000D01*
X12599000Y-5099000D01*
X12599000Y-6601000D01*
X11601000Y-6601000D01*
X11601000Y-5099000D01*
X10099000Y-5099000D01*
X10099000Y-6601000D01*
X9101000Y-6601000D01*
X9101000Y-5099000D01*
X7599000Y-5099000D01*
X7599000Y-6601000D01*
X6601000Y-6601000D01*
X6601000Y-5099000D01*
X5099000Y-5099000D01*
X5099000Y-6601000D01*
X4101000Y-6601000D01*
X4101000Y-5099000D01*
X2599000Y-5099000D01*
X2599000Y-6601000D01*
X500500Y-6601000D01*
X500500Y-6453276D01*
X1498500Y-6453276D01*
X1513860Y-6457392D01*
X1601000Y-6507702D01*
X1601000Y-5099000D01*
X1498500Y-5099000D01*
X1498500Y-6453276D01*
X500500Y-6453276D01*
X500500Y-4101000D01*
X1498500Y-4101000D01*
X1601000Y-4101000D01*
X2599000Y-4101000D01*
X4101000Y-4101000D01*
X5099000Y-4101000D01*
X6601000Y-4101000D01*
X7599000Y-4101000D01*
X9101000Y-4101000D01*
X10099000Y-4101000D01*
X11601000Y-4101000D01*
X12599000Y-4101000D01*
X14101000Y-4101000D01*
X15099000Y-4101000D01*
X16601000Y-4101000D01*
X17599000Y-4101000D01*
X19101000Y-4101000D01*
X20099000Y-4101000D01*
X21601000Y-4101000D01*
X22599000Y-4101000D01*
X24101000Y-4101000D01*
X25099000Y-4101000D01*
X26601000Y-4101000D01*
X27599000Y-4101000D01*
X28501500Y-4101000D01*
X28501500Y-2599000D01*
X27599000Y-2599000D01*
X27599000Y-4101000D01*
X26601000Y-4101000D01*
X26601000Y-2599000D01*
X25099000Y-2599000D01*
X25099000Y-4101000D01*
X24101000Y-4101000D01*
X24101000Y-2599000D01*
X22599000Y-2599000D01*
X22599000Y-4101000D01*
X21601000Y-4101000D01*
X21601000Y-2599000D01*
X20099000Y-2599000D01*
X20099000Y-4101000D01*
X19101000Y-4101000D01*
X19101000Y-2599000D01*
X17599000Y-2599000D01*
X17599000Y-4101000D01*
X16601000Y-4101000D01*
X16601000Y-2599000D01*
X15099000Y-2599000D01*
X15099000Y-4101000D01*
X14101000Y-4101000D01*
X14101000Y-2599000D01*
X12599000Y-2599000D01*
X12599000Y-4101000D01*
X11601000Y-4101000D01*
X11601000Y-2599000D01*
X10099000Y-2599000D01*
X10099000Y-4101000D01*
X9101000Y-4101000D01*
X9101000Y-2599000D01*
X7599000Y-2599000D01*
X7599000Y-4101000D01*
X6601000Y-4101000D01*
X6601000Y-2599000D01*
X5099000Y-2599000D01*
X5099000Y-4101000D01*
X4101000Y-4101000D01*
X4101000Y-2599000D01*
X2599000Y-2599000D01*
X2599000Y-4101000D01*
X1601000Y-4101000D01*
X1601000Y-2599000D01*
X1498500Y-2599000D01*
X1498500Y-4101000D01*
X500500Y-4101000D01*
X500500Y-1601000D01*
X2599000Y-1601000D01*
X4101000Y-1601000D01*
X5099000Y-1601000D01*
X6601000Y-1601000D01*
X7599000Y-1601000D01*
X9101000Y-1601000D01*
X10099000Y-1601000D01*
X11601000Y-1601000D01*
X12599000Y-1601000D01*
X14101000Y-1601000D01*
X15099000Y-1601000D01*
X16601000Y-1601000D01*
X17599000Y-1601000D01*
X19101000Y-1601000D01*
X20099000Y-1601000D01*
X21601000Y-1601000D01*
X22599000Y-1601000D01*
X24101000Y-1601000D01*
X25099000Y-1601000D01*
X26601000Y-1601000D01*
X26601000Y-1498500D01*
X25099000Y-1498500D01*
X25099000Y-1601000D01*
X24101000Y-1601000D01*
X24101000Y-1498500D01*
X22599000Y-1498500D01*
X22599000Y-1601000D01*
X21601000Y-1601000D01*
X21601000Y-1498500D01*
X20099000Y-1498500D01*
X20099000Y-1601000D01*
X19101000Y-1601000D01*
X19101000Y-1498500D01*
X17599000Y-1498500D01*
X17599000Y-1601000D01*
X16601000Y-1601000D01*
X16601000Y-1498500D01*
X15099000Y-1498500D01*
X15099000Y-1601000D01*
X14101000Y-1601000D01*
X14101000Y-1498500D01*
X12599000Y-1498500D01*
X12599000Y-1601000D01*
X11601000Y-1601000D01*
X11601000Y-1498500D01*
X10099000Y-1498500D01*
X10099000Y-1601000D01*
X9101000Y-1601000D01*
X9101000Y-1498500D01*
X7599000Y-1498500D01*
X7599000Y-1601000D01*
X6601000Y-1601000D01*
X6601000Y-1498500D01*
X5099000Y-1498500D01*
X5099000Y-1601000D01*
X4101000Y-1601000D01*
X4101000Y-1498500D01*
X2599000Y-1498500D01*
X2599000Y-1601000D01*
X500500Y-1601000D01*
X500500Y-599500D01*
X519407Y-541309D01*
X568907Y-505345D01*
X599500Y-500500D01*
X29400500Y-500500D01*
X29458691Y-519407D01*
G37*
%TD.AperFunction*%
%TD*%
M02*
