%TF.GenerationSoftware,KiCad,Pcbnew,10.0.3*%
%TF.CreationDate,2026-05-26T19:43:24+09:00*%
%TF.ProjectId,lora-30x22,6c6f7261-2d33-4307-9832-322e6b696361,rev?*%
%TF.SameCoordinates,Original*%
%TF.FileFunction,Copper,L1,Top*%
%TF.FilePolarity,Positive*%
%FSLAX46Y46*%
G04 Gerber Fmt 4.6, Leading zero omitted, Abs format (unit mm)*
G04 Created by KiCad (PCBNEW 10.0.3) date 2026-05-26 19:43:24*
%MOMM*%
%LPD*%
G01*
G04 APERTURE LIST*
%TA.AperFunction,SMDPad,CuDef*%
%ADD10R,1.100000X0.600000*%
%TD*%
%TA.AperFunction,SMDPad,CuDef*%
%ADD11R,1.700000X0.800000*%
%TD*%
%TA.AperFunction,SMDPad,CuDef*%
%ADD12R,0.900000X0.500000*%
%TD*%
%TA.AperFunction,SMDPad,CuDef*%
%ADD13R,0.250000X0.650000*%
%TD*%
%TA.AperFunction,SMDPad,CuDef*%
%ADD14R,0.650000X0.250000*%
%TD*%
%TA.AperFunction,SMDPad,CuDef*%
%ADD15R,1.600000X1.600000*%
%TD*%
%TA.AperFunction,SMDPad,CuDef*%
%ADD16R,0.550000X0.700000*%
%TD*%
%TA.AperFunction,SMDPad,CuDef*%
%ADD17R,0.700000X0.500000*%
%TD*%
%TA.AperFunction,SMDPad,CuDef*%
%ADD18R,2.300000X1.500000*%
%TD*%
%TA.AperFunction,SMDPad,CuDef*%
%ADD19R,1.200000X2.000000*%
%TD*%
%TA.AperFunction,ViaPad*%
%ADD20C,0.600000*%
%TD*%
%TA.AperFunction,Conductor*%
%ADD21C,0.400000*%
%TD*%
%TA.AperFunction,Conductor*%
%ADD22C,0.200000*%
%TD*%
G04 APERTURE END LIST*
D10*
%TO.P,U4,1*%
%TO.N,GND*%
X-1900000Y949999D03*
%TO.P,U4,2*%
X-1900000Y0D03*
%TO.P,U4,3*%
%TO.N,BATT_P*%
X-1900000Y-949999D03*
%TO.P,U4,4*%
%TO.N,CHARGE_PROG*%
X1899999Y475000D03*
%TO.P,U4,5*%
%TO.N,VCC_3V3*%
X1899999Y-475000D03*
%TD*%
D11*
%TO.P,U1,1*%
%TO.N,GND*%
X-11000000Y8000000D03*
%TO.P,U1,2*%
%TO.N,VCC_3V3*%
X-9000000Y8000000D03*
%TO.P,U1,3*%
%TO.N,E220_M0*%
X-7000000Y8000000D03*
%TO.P,U1,4*%
%TO.N,E220_M1*%
X-5000000Y8000000D03*
%TO.P,U1,5*%
%TO.N,UART_TX*%
X-3000000Y8000000D03*
%TO.P,U1,6*%
%TO.N,UART_RX*%
X-1000000Y8000000D03*
%TO.P,U1,7*%
%TO.N,E220_AUX*%
X1000000Y8000000D03*
%TO.P,U1,8*%
%TO.N,GND*%
X3000000Y8000000D03*
%TO.P,U1,9*%
X5000000Y8000000D03*
%TO.P,U1,10*%
X7000000Y8000000D03*
%TO.P,U1,11*%
X9000000Y8000000D03*
%TO.P,U1,12*%
X11000000Y8000000D03*
%TO.P,U1,13*%
X-11000000Y-8000000D03*
%TO.P,U1,14*%
X-9000000Y-8000000D03*
%TO.P,U1,15*%
X-7000000Y-8000000D03*
%TO.P,U1,16*%
X-5000000Y-8000000D03*
%TO.P,U1,17*%
X-3000000Y-8000000D03*
%TO.P,U1,18*%
X-1000000Y-8000000D03*
%TO.P,U1,19*%
X1000000Y-8000000D03*
%TO.P,U1,20*%
X3000000Y-8000000D03*
%TO.P,U1,21*%
X5000000Y-8000000D03*
%TO.P,U1,22*%
X7000000Y-8000000D03*
%TO.P,U1,23*%
X9000000Y-8000000D03*
%TO.P,U1,24*%
X11000000Y-8000000D03*
%TD*%
D12*
%TO.P,C2,1*%
%TO.N,VCC_3V3*%
X-899999Y0D03*
%TO.P,C2,2*%
%TO.N,GND*%
X899999Y0D03*
%TD*%
D13*
%TO.P,U2,1*%
%TO.N,GND*%
X-1000000Y-1649999D03*
%TO.P,U2,2*%
X-500000Y-1649999D03*
%TO.P,U2,3*%
X0Y-1649999D03*
%TO.P,U2,4*%
X500000Y-1649999D03*
%TO.P,U2,5*%
%TO.N,UART_TX*%
X1000000Y-1649999D03*
D14*
%TO.P,U2,6*%
%TO.N,UART_RX*%
X-1650000Y-1000000D03*
%TO.P,U2,7*%
%TO.N,GND*%
X-1650000Y-500000D03*
%TO.P,U2,8*%
X-1650000Y0D03*
%TO.P,U2,9*%
X-1650000Y500000D03*
%TO.P,U2,10*%
%TO.N,GPS_RXD*%
X-1650000Y1000000D03*
D13*
%TO.P,U2,11*%
%TO.N,GPS_TXD*%
X1000000Y1649999D03*
%TO.P,U2,12*%
%TO.N,GND*%
X500000Y1649999D03*
%TO.P,U2,13*%
X0Y1649999D03*
%TO.P,U2,14*%
X-500000Y1649999D03*
%TO.P,U2,15*%
X-1000000Y1649999D03*
D14*
%TO.P,U2,16*%
%TO.N,VCC_3V3*%
X1650000Y1000000D03*
%TO.P,U2,17*%
%TO.N,GND*%
X1650000Y500000D03*
%TO.P,U2,18*%
X1650000Y0D03*
%TO.P,U2,19*%
X1650000Y-500000D03*
%TO.P,U2,20*%
X1650000Y-1000000D03*
D15*
%TO.P,U2,EP*%
X0Y0D03*
%TD*%
D12*
%TO.P,C1,1*%
%TO.N,VCC_3V3*%
X-899999Y0D03*
%TO.P,C1,2*%
%TO.N,GND*%
X899999Y0D03*
%TD*%
D16*
%TO.P,U3,1*%
%TO.N,GND*%
X-799999Y-1550000D03*
%TO.P,U3,2*%
%TO.N,GPS_RXD*%
X0Y-1550000D03*
%TO.P,U3,3*%
%TO.N,GPS_TXD*%
X799999Y-1550000D03*
%TO.P,U3,4*%
%TO.N,VCC_3V3*%
X-799999Y1550000D03*
%TO.P,U3,5*%
%TO.N,GND*%
X0Y1550000D03*
%TO.P,U3,6*%
X799999Y1550000D03*
D17*
%TO.P,U3,7*%
X-2049999Y399999D03*
%TO.P,U3,8*%
X-2049999Y-399999D03*
%TO.P,U3,9*%
X2049999Y399999D03*
%TO.P,U3,10*%
X2049999Y-399999D03*
D18*
%TO.P,U3,EP*%
X0Y0D03*
%TD*%
D12*
%TO.P,R1,1*%
%TO.N,CHARGE_PROG*%
X-899999Y0D03*
%TO.P,R1,2*%
%TO.N,GND*%
X899999Y0D03*
%TD*%
%TO.P,C3,1*%
%TO.N,VCC_3V3*%
X-899999Y0D03*
%TO.P,C3,2*%
%TO.N,GND*%
X899999Y0D03*
%TD*%
%TO.P,C4,1*%
%TO.N,VCC_3V3*%
X-899999Y0D03*
%TO.P,C4,2*%
%TO.N,GND*%
X899999Y0D03*
%TD*%
%TO.P,R2,1*%
%TO.N,VCC_3V3*%
X-899999Y0D03*
%TO.P,R2,2*%
%TO.N,E220_AUX*%
X899999Y0D03*
%TD*%
D19*
%TO.P,J1,1*%
%TO.N,BATT_P*%
X-625000Y-500000D03*
%TO.P,J1,2*%
%TO.N,GND*%
X625000Y-500000D03*
%TD*%
D20*
%TO.N,GND*%
X29000000Y-8000000D03*
X1000000Y-8000000D03*
X15000000Y-8000000D03*
X29000000Y-19000000D03*
X1000000Y-19000000D03*
%TD*%
%TO.N,GND*%
D21*
X26000000Y0D02*
X26000000Y-16000000D01*
X4000000Y0D02*
X4000000Y-16000000D01*
%TO.N,CHARGE_PROG*%
D22*
X26100000Y-19475000D02*
X26100000Y-20500000D01*
X16100000Y-19475000D02*
X26100000Y-19475000D01*
D21*
X21375000Y-19500000D02*
X16100000Y-19000000D01*
%TO.N,E220_M1*%
D22*
X10000000Y-2500000D02*
X4000000Y-2500000D01*
X10000000Y0D02*
X10000000Y-2500000D01*
%TO.N,E220_M0*%
X8000000Y-2000000D02*
X4000000Y-2000000D01*
X8000000Y0D02*
X8000000Y-2000000D01*
%TO.N,GPS_TXD*%
X8500000Y-21300000D02*
X8500000Y-17350000D01*
X4800000Y-21300000D02*
X8500000Y-21300000D01*
X4800000Y-20550000D02*
X4800000Y-21300000D01*
%TO.N,GPS_RXD*%
X4000000Y-20000000D02*
X7850000Y-20000000D01*
X4000000Y-20550000D02*
X4000000Y-20000000D01*
%TO.N,UART_RX*%
X7850000Y-18500000D02*
X7850000Y-18000000D01*
X1500000Y-18500000D02*
X7850000Y-18500000D01*
X1500000Y-1000000D02*
X1500000Y-18500000D01*
X14000000Y-1000000D02*
X1500000Y-1000000D01*
X14000000Y0D02*
X14000000Y-1000000D01*
%TO.N,UART_TX*%
X12000000Y-500000D02*
X12000000Y0D01*
X2000000Y-500000D02*
X12000000Y-500000D01*
X2000000Y-20000000D02*
X2000000Y-500000D01*
X10500000Y-20000000D02*
X2000000Y-20000000D01*
X10500000Y-20650000D02*
X10500000Y-20000000D01*
%TO.N,VCC_3V3*%
X11150000Y-18000000D02*
X26000000Y-18000000D01*
D21*
X2800000Y-17500000D02*
X4000000Y-17500000D01*
X6000000Y-500000D02*
X6000000Y0D01*
X2800000Y-500000D02*
X6000000Y-500000D01*
X2800000Y-18000000D02*
X2800000Y-500000D01*
X11150000Y-18000000D02*
X2800000Y-18000000D01*
X13000000Y-18525000D02*
X11150000Y-18000000D01*
X16399999Y-18525000D02*
X13000000Y-18525000D01*
%TD*%
M02*
