%TF.GenerationSoftware,KiCad,Pcbnew,10.0.3*%
%TF.CreationDate,2026-05-27T06:34:40+09:00*%
%TF.ProjectId,lora-30x28-v3d,6c6f7261-2d33-4307-9832-382d7633642e,rev?*%
%TF.SameCoordinates,Original*%
%TF.FileFunction,Copper,L1,Top*%
%TF.FilePolarity,Positive*%
%FSLAX46Y46*%
G04 Gerber Fmt 4.6, Leading zero omitted, Abs format (unit mm)*
G04 Created by KiCad (PCBNEW 10.0.3) date 2026-05-27 06:34:40*
%MOMM*%
%LPD*%
G01*
G04 APERTURE LIST*
%TA.AperFunction,SMDPad,CuDef*%
%ADD10R,0.900000X0.500000*%
%TD*%
%TA.AperFunction,SMDPad,CuDef*%
%ADD11R,1.600000X0.700000*%
%TD*%
%TA.AperFunction,SMDPad,CuDef*%
%ADD12R,0.700000X1.500000*%
%TD*%
%TA.AperFunction,SMDPad,CuDef*%
%ADD13R,1.200000X1.200000*%
%TD*%
%TA.AperFunction,SMDPad,CuDef*%
%ADD14R,1.800000X0.700000*%
%TD*%
%TA.AperFunction,SMDPad,CuDef*%
%ADD15R,1.800000X0.800000*%
%TD*%
%TA.AperFunction,SMDPad,CuDef*%
%ADD16R,0.650000X0.250000*%
%TD*%
%TA.AperFunction,SMDPad,CuDef*%
%ADD17R,0.250000X0.650000*%
%TD*%
%TA.AperFunction,SMDPad,CuDef*%
%ADD18R,1.600000X1.600000*%
%TD*%
%TA.AperFunction,SMDPad,CuDef*%
%ADD19R,1.200000X2.000000*%
%TD*%
%TA.AperFunction,ViaPad*%
%ADD20C,0.800000*%
%TD*%
%TA.AperFunction,ViaPad*%
%ADD21C,1.000000*%
%TD*%
%TA.AperFunction,Conductor*%
%ADD22C,0.400000*%
%TD*%
%TA.AperFunction,Conductor*%
%ADD23C,0.300000*%
%TD*%
%TA.AperFunction,Conductor*%
%ADD24C,0.200000*%
%TD*%
%TA.AperFunction,Conductor*%
%ADD25C,0.500000*%
%TD*%
G04 APERTURE END LIST*
D10*
%TO.P,C4,1*%
%TO.N,N/C*%
X-900000Y0D03*
%TO.P,C4,2*%
X900000Y0D03*
%TD*%
%TO.P,C2,1*%
%TO.N,N/C*%
X-899999Y0D03*
%TO.P,C2,2*%
X899999Y0D03*
%TD*%
%TO.P,C1,1*%
%TO.N,N/C*%
X-899999Y0D03*
%TO.P,C1,2*%
X899999Y0D03*
%TD*%
D11*
%TO.P,U1,1*%
%TO.N,N/C*%
X13000000Y-6350000D03*
%TO.P,U1,2*%
X13000000Y-5080000D03*
%TO.P,U1,3*%
X13000000Y-3809999D03*
%TO.P,U1,4*%
X13000000Y-2539999D03*
%TO.P,U1,5*%
X13000000Y-1269999D03*
%TO.P,U1,6*%
X13000000Y0D03*
%TO.P,U1,7*%
X13000000Y1270000D03*
%TO.P,U1,8*%
X13000000Y2540000D03*
%TO.P,U1,9*%
X13000000Y3810000D03*
%TO.P,U1,10*%
X13000000Y5080000D03*
%TO.P,U1,11*%
X13000000Y6350000D03*
%TO.P,U1,12*%
X-13000000Y6350000D03*
%TO.P,U1,13*%
X-13000000Y5080000D03*
%TO.P,U1,14*%
X-13000000Y3810000D03*
%TO.P,U1,15*%
X-13000000Y2540000D03*
%TO.P,U1,16*%
X-13000000Y1269999D03*
%TO.P,U1,17*%
X-13000000Y0D03*
%TO.P,U1,18*%
X-13000000Y-1269999D03*
%TO.P,U1,19*%
X-13000000Y-2540000D03*
%TO.P,U1,20*%
X-13000000Y-3810000D03*
%TO.P,U1,21*%
X-13000000Y-5080000D03*
%TO.P,U1,22*%
X-13000000Y-6350000D03*
%TD*%
D12*
%TO.P,ANT1,G1*%
%TO.N,N/C*%
X-1500000Y0D03*
%TO.P,ANT1,G2*%
X1500000Y0D03*
D13*
%TO.P,ANT1,S*%
X0Y0D03*
%TD*%
D10*
%TO.P,R1,1*%
%TO.N,N/C*%
X-899999Y0D03*
%TO.P,R1,2*%
X899999Y0D03*
%TD*%
D14*
%TO.P,U3,1*%
%TO.N,N/C*%
X4750000Y-4399999D03*
D15*
%TO.P,U3,2*%
X4750000Y-3299999D03*
%TO.P,U3,3*%
X4750000Y-2199999D03*
%TO.P,U3,4*%
X4750000Y-1099999D03*
%TO.P,U3,5*%
X4750000Y0D03*
%TO.P,U3,6*%
X4750000Y1100000D03*
%TO.P,U3,7*%
X4750000Y2200000D03*
%TO.P,U3,8*%
X4750000Y3300000D03*
D14*
%TO.P,U3,9*%
X4750000Y4400000D03*
%TO.P,U3,10*%
X-4750000Y4399999D03*
D15*
%TO.P,U3,11*%
X-4750000Y3299999D03*
%TO.P,U3,12*%
X-4750000Y2199999D03*
%TO.P,U3,13*%
X-4750000Y1099999D03*
%TO.P,U3,14*%
X-4750000Y0D03*
%TO.P,U3,15*%
X-4750000Y-1100000D03*
%TO.P,U3,16*%
X-4750000Y-2200000D03*
%TO.P,U3,17*%
X-4750000Y-3300000D03*
D14*
%TO.P,U3,18*%
X-4750000Y-4400000D03*
%TD*%
D16*
%TO.P,U2,1*%
%TO.N,N/C*%
X-1750000Y1000000D03*
%TO.P,U2,2*%
X-1750000Y500000D03*
%TO.P,U2,3*%
X-1750000Y0D03*
%TO.P,U2,4*%
X-1750000Y-500000D03*
%TO.P,U2,5*%
X-1750000Y-1000000D03*
D17*
%TO.P,U2,6*%
X-1000000Y-1750000D03*
%TO.P,U2,7*%
X-500000Y-1750000D03*
%TO.P,U2,8*%
X0Y-1750000D03*
%TO.P,U2,9*%
X500000Y-1750000D03*
%TO.P,U2,10*%
X1000000Y-1750000D03*
D16*
%TO.P,U2,11*%
X1750000Y-1000000D03*
%TO.P,U2,12*%
X1750000Y-500000D03*
%TO.P,U2,13*%
X1750000Y0D03*
%TO.P,U2,14*%
X1750000Y500000D03*
%TO.P,U2,15*%
X1750000Y1000000D03*
D17*
%TO.P,U2,16*%
X1000000Y1750000D03*
%TO.P,U2,17*%
X500000Y1750000D03*
%TO.P,U2,18*%
X0Y1750000D03*
%TO.P,U2,19*%
X-500000Y1750000D03*
%TO.P,U2,20*%
X-1000000Y1750000D03*
D18*
%TO.P,U2,EP*%
X0Y0D03*
%TD*%
D10*
%TO.P,C5,1*%
%TO.N,N/C*%
X-899999Y0D03*
%TO.P,C5,2*%
X899999Y0D03*
%TD*%
D19*
%TO.P,J1,1*%
%TO.N,N/C*%
X-625000Y-500000D03*
%TO.P,J1,2*%
X625000Y-500000D03*
%TD*%
D10*
%TO.P,C3,1*%
%TO.N,N/C*%
X-899999Y0D03*
%TO.P,C3,2*%
X899999Y0D03*
%TD*%
D20*
%TO.N,*%
X28000000Y-20000000D03*
X16500000Y-25500000D03*
X3000000Y-15000000D03*
X8000000Y-15000000D03*
X20000000Y-16500000D03*
X13500000Y-16500000D03*
X27500000Y-13500000D03*
X27500000Y-2000000D03*
D21*
X3500000Y-18700000D03*
X24000000Y-19000000D03*
D20*
X18600000Y-17000000D03*
X12000000Y-23000000D03*
X11500000Y-17500000D03*
X1500000Y-5460000D03*
%TD*%
%TO.N,*%
D22*
X3500000Y-18700000D02*
X2750000Y-18700000D01*
X25000000Y-19000000D02*
X24000000Y-19000000D01*
X18600000Y-17000000D02*
X18600000Y-20500000D01*
D23*
X11350000Y-22000000D02*
X10600000Y-22000000D01*
X11350000Y-20900000D02*
X11350000Y-22000000D01*
D22*
X12000000Y-23000000D02*
X13250000Y-23000000D01*
X11350000Y-18700000D02*
X11350000Y-20900000D01*
X11350000Y-17500000D02*
X11350000Y-18700000D01*
X11500000Y-17500000D02*
X11350000Y-17500000D01*
X800000Y-5460000D02*
X1500000Y-5460000D01*
D24*
X27000000Y-23000000D02*
X16750000Y-23000000D01*
X26000000Y-4189999D02*
X27500000Y-4189999D01*
X27500000Y-4189999D02*
X27500000Y-18500000D01*
X27000000Y-18000000D02*
X12000000Y-18000000D01*
X12500000Y-23500000D02*
X13250000Y-23500000D01*
X11500000Y-24250000D02*
X14500000Y-24250000D01*
X15500000Y-24200000D02*
X15500000Y-20750000D01*
X26500000Y-23500000D02*
X16750000Y-23500000D01*
X26500000Y-9270000D02*
X26500000Y-17500000D01*
D25*
X29000000Y-2920000D02*
X26000000Y-2920000D01*
D24*
X12000000Y-24250000D02*
X14000000Y-24250000D01*
X16000000Y-25299999D02*
X16000000Y-20750000D01*
X27500000Y-18500000D02*
X11500000Y-18500000D01*
X11350000Y-25299999D02*
X16000000Y-25299999D01*
X27000000Y-6730000D02*
X27000000Y-23000000D01*
X26000000Y-6730000D02*
X27000000Y-6730000D01*
X26500000Y-17500000D02*
X12500000Y-17500000D01*
X11350000Y-24200000D02*
X15500000Y-24200000D01*
X12500000Y-17500000D02*
X12500000Y-23500000D01*
D25*
X29000000Y-25000000D02*
X29000000Y-2920000D01*
D24*
X12000000Y-18000000D02*
X12000000Y-24250000D01*
X26000000Y-5459999D02*
X26500000Y-5459999D01*
X26000000Y-8000000D02*
X27000000Y-8000000D01*
X11500000Y-18500000D02*
X11500000Y-24250000D01*
X26500000Y-5459999D02*
X26500000Y-23500000D01*
X26000000Y-9270000D02*
X26500000Y-9270000D01*
X27000000Y-8000000D02*
X27000000Y-18000000D01*
D25*
X22375000Y-25000000D02*
X29000000Y-25000000D01*
%TD*%
M02*
