%TF.GenerationSoftware,KiCad,Pcbnew,10.0.3*%
%TF.CreationDate,2026-05-27T06:34:40+09:00*%
%TF.ProjectId,lora-30x28-v3d,6c6f7261-2d33-4307-9832-382d7633642e,rev?*%
%TF.SameCoordinates,Original*%
%TF.FileFunction,Paste,Top*%
%TF.FilePolarity,Positive*%
%FSLAX46Y46*%
G04 Gerber Fmt 4.6, Leading zero omitted, Abs format (unit mm)*
G04 Created by KiCad (PCBNEW 10.0.3) date 2026-05-27 06:34:40*
%MOMM*%
%LPD*%
G01*
G04 APERTURE LIST*
%ADD10R,0.900000X0.500000*%
%ADD11R,1.600000X0.700000*%
%ADD12R,0.700000X1.500000*%
%ADD13R,1.200000X1.200000*%
%ADD14R,1.800000X0.700000*%
%ADD15R,1.800000X0.800000*%
%ADD16R,0.650000X0.250000*%
%ADD17R,0.250000X0.650000*%
%ADD18R,1.600000X1.600000*%
%ADD19R,1.200000X2.000000*%
G04 APERTURE END LIST*
D10*
%TO.C,C4*%
X-900000Y0D03*
X900000Y0D03*
%TD*%
%TO.C,C2*%
X-899999Y0D03*
X899999Y0D03*
%TD*%
%TO.C,C1*%
X-899999Y0D03*
X899999Y0D03*
%TD*%
D11*
%TO.C,U1*%
X13000000Y-6350000D03*
X13000000Y-5080000D03*
X13000000Y-3809999D03*
X13000000Y-2539999D03*
X13000000Y-1269999D03*
X13000000Y0D03*
X13000000Y1270000D03*
X13000000Y2540000D03*
X13000000Y3810000D03*
X13000000Y5080000D03*
X13000000Y6350000D03*
X-13000000Y6350000D03*
X-13000000Y5080000D03*
X-13000000Y3810000D03*
X-13000000Y2540000D03*
X-13000000Y1269999D03*
X-13000000Y0D03*
X-13000000Y-1269999D03*
X-13000000Y-2540000D03*
X-13000000Y-3810000D03*
X-13000000Y-5080000D03*
X-13000000Y-6350000D03*
%TD*%
D12*
%TO.C,ANT1*%
X-1500000Y0D03*
X1500000Y0D03*
D13*
X0Y0D03*
%TD*%
D10*
%TO.C,R1*%
X-899999Y0D03*
X899999Y0D03*
%TD*%
D14*
%TO.C,U3*%
X4750000Y-4399999D03*
D15*
X4750000Y-3299999D03*
X4750000Y-2199999D03*
X4750000Y-1099999D03*
X4750000Y0D03*
X4750000Y1100000D03*
X4750000Y2200000D03*
X4750000Y3300000D03*
D14*
X4750000Y4400000D03*
X-4750000Y4399999D03*
D15*
X-4750000Y3299999D03*
X-4750000Y2199999D03*
X-4750000Y1099999D03*
X-4750000Y0D03*
X-4750000Y-1100000D03*
X-4750000Y-2200000D03*
X-4750000Y-3300000D03*
D14*
X-4750000Y-4400000D03*
%TD*%
D16*
%TO.C,U2*%
X-1750000Y1000000D03*
X-1750000Y500000D03*
X-1750000Y0D03*
X-1750000Y-500000D03*
X-1750000Y-1000000D03*
D17*
X-1000000Y-1750000D03*
X-500000Y-1750000D03*
X0Y-1750000D03*
X500000Y-1750000D03*
X1000000Y-1750000D03*
D16*
X1750000Y-1000000D03*
X1750000Y-500000D03*
X1750000Y0D03*
X1750000Y500000D03*
X1750000Y1000000D03*
D17*
X1000000Y1750000D03*
X500000Y1750000D03*
X0Y1750000D03*
X-500000Y1750000D03*
X-1000000Y1750000D03*
D18*
X0Y0D03*
%TD*%
D10*
%TO.C,C5*%
X-899999Y0D03*
X899999Y0D03*
%TD*%
D19*
%TO.C,J1*%
X-625000Y-500000D03*
X625000Y-500000D03*
%TD*%
D10*
%TO.C,C3*%
X-899999Y0D03*
X899999Y0D03*
%TD*%
M02*
